<svg width="456" height="216" viewBox="0 0 456 216" fill="none" xmlns="http://www.w3.org/2000/svg">
<path d="M215.6 212.144C215.064 212.144 214.6 212.048 214.208 211.856C213.816 211.656 213.492 211.372 213.236 211.004C212.98 210.636 212.788 210.184 212.66 209.648C212.54 209.112 212.48 208.5 212.48 207.812C212.48 207.132 212.54 206.524 212.66 205.988C212.788 205.444 212.98 204.988 213.236 204.62C213.492 204.252 213.816 203.972 214.208 203.78C214.6 203.58 215.064 203.48 215.6 203.48C216.664 203.48 217.448 203.86 217.952 204.62C218.464 205.38 218.72 206.444 218.72 207.812C218.72 209.18 218.464 210.244 217.952 211.004C217.448 211.764 216.664 212.144 215.6 212.144ZM215.6 210.812C216.136 210.812 216.508 210.612 216.716 210.212C216.932 209.804 217.04 209.256 217.04 208.568V207.056C217.04 206.368 216.932 205.824 216.716 205.424C216.508 205.016 216.136 204.812 215.6 204.812C215.064 204.812 214.688 205.016 214.472 205.424C214.264 205.824 214.16 206.368 214.16 207.056V208.568C214.16 209.256 214.264 209.804 214.472 210.212C214.688 210.612 215.064 210.812 215.6 210.812ZM221.355 212L227.163 203.624H228.555L222.747 212H221.355ZM221.931 208.232C221.251 208.232 220.731 208.032 220.371 207.632C220.019 207.224 219.843 206.632 219.843 205.856C219.843 205.08 220.019 204.492 220.371 204.092C220.731 203.684 221.251 203.48 221.931 203.48C222.611 203.48 223.127 203.684 223.479 204.092C223.831 204.492 224.007 205.08 224.007 205.856C224.007 206.632 223.831 207.224 223.479 207.632C223.127 208.032 222.611 208.232 221.931 208.232ZM221.931 207.32C222.427 207.32 222.675 206.94 222.675 206.18V205.532C222.675 204.772 222.427 204.392 221.931 204.392C221.435 204.392 221.187 204.772 221.187 205.532V206.18C221.187 206.94 221.435 207.32 221.931 207.32ZM227.979 212.144C227.307 212.144 226.791 211.944 226.431 211.544C226.079 211.136 225.903 210.544 225.903 209.768C225.903 208.992 226.079 208.404 226.431 208.004C226.791 207.596 227.307 207.392 227.979 207.392C228.659 207.392 229.175 207.596 229.527 208.004C229.887 208.404 230.067 208.992 230.067 209.768C230.067 210.544 229.887 211.136 229.527 211.544C229.175 211.944 228.659 212.144 227.979 212.144ZM227.979 211.232C228.475 211.232 228.723 210.852 228.723 210.092V209.444C228.723 208.684 228.475 208.304 227.979 208.304C227.483 208.304 227.235 208.684 227.235 209.444V210.092C227.235 210.852 227.483 211.232 227.979 211.232Z" fill="#41637D"/>
<path d="M324.18 204.992H320.412L320.22 207.8H320.304C320.392 207.624 320.488 207.46 320.592 207.308C320.696 207.156 320.816 207.028 320.952 206.924C321.088 206.82 321.244 206.74 321.42 206.684C321.604 206.62 321.824 206.588 322.08 206.588C322.44 206.588 322.776 206.648 323.088 206.768C323.4 206.888 323.668 207.064 323.892 207.296C324.124 207.52 324.304 207.796 324.432 208.124C324.568 208.452 324.636 208.824 324.636 209.24C324.636 209.664 324.568 210.052 324.432 210.404C324.296 210.756 324.096 211.064 323.832 211.328C323.568 211.584 323.244 211.784 322.86 211.928C322.476 212.072 322.036 212.144 321.54 212.144C321.156 212.144 320.812 212.1 320.508 212.012C320.204 211.932 319.936 211.82 319.704 211.676C319.472 211.532 319.272 211.368 319.104 211.184C318.936 210.992 318.788 210.792 318.66 210.584L319.812 209.696C319.908 209.856 320.008 210.008 320.112 210.152C320.216 210.288 320.336 210.408 320.472 210.512C320.616 210.616 320.772 210.7 320.94 210.764C321.116 210.82 321.32 210.848 321.552 210.848C322.024 210.848 322.38 210.716 322.62 210.452C322.868 210.188 322.992 209.828 322.992 209.372V209.276C322.992 208.844 322.868 208.504 322.62 208.256C322.372 208.008 322.028 207.884 321.588 207.884C321.244 207.884 320.964 207.952 320.748 208.088C320.532 208.216 320.36 208.356 320.232 208.508L318.936 208.328L319.248 203.624H324.18V204.992ZM328.795 212.144C328.259 212.144 327.795 212.048 327.403 211.856C327.011 211.656 326.687 211.372 326.431 211.004C326.175 210.636 325.983 210.184 325.855 209.648C325.735 209.112 325.675 208.5 325.675 207.812C325.675 207.132 325.735 206.524 325.855 205.988C325.983 205.444 326.175 204.988 326.431 204.62C326.687 204.252 327.011 203.972 327.403 203.78C327.795 203.58 328.259 203.48 328.795 203.48C329.859 203.48 330.643 203.86 331.147 204.62C331.659 205.38 331.915 206.444 331.915 207.812C331.915 209.18 331.659 210.244 331.147 211.004C330.643 211.764 329.859 212.144 328.795 212.144ZM328.795 210.812C329.331 210.812 329.703 210.612 329.911 210.212C330.127 209.804 330.235 209.256 330.235 208.568V207.056C330.235 206.368 330.127 205.824 329.911 205.424C329.703 205.016 329.331 204.812 328.795 204.812C328.259 204.812 327.883 205.016 327.667 205.424C327.459 205.824 327.355 206.368 327.355 207.056V208.568C327.355 209.256 327.459 209.804 327.667 210.212C327.883 210.612 328.259 210.812 328.795 210.812ZM334.551 212L340.359 203.624H341.751L335.943 212H334.551ZM335.127 208.232C334.447 208.232 333.927 208.032 333.567 207.632C333.215 207.224 333.039 206.632 333.039 205.856C333.039 205.08 333.215 204.492 333.567 204.092C333.927 203.684 334.447 203.48 335.127 203.48C335.807 203.48 336.323 203.684 336.675 204.092C337.027 204.492 337.203 205.08 337.203 205.856C337.203 206.632 337.027 207.224 336.675 207.632C336.323 208.032 335.807 208.232 335.127 208.232ZM335.127 207.32C335.623 207.32 335.871 206.94 335.871 206.18V205.532C335.871 204.772 335.623 204.392 335.127 204.392C334.631 204.392 334.383 204.772 334.383 205.532V206.18C334.383 206.94 334.631 207.32 335.127 207.32ZM341.175 212.144C340.503 212.144 339.987 211.944 339.627 211.544C339.275 211.136 339.099 210.544 339.099 209.768C339.099 208.992 339.275 208.404 339.627 208.004C339.987 207.596 340.503 207.392 341.175 207.392C341.855 207.392 342.371 207.596 342.723 208.004C343.083 208.404 343.263 208.992 343.263 209.768C343.263 210.544 343.083 211.136 342.723 211.544C342.371 211.944 341.855 212.144 341.175 212.144ZM341.175 211.232C341.671 211.232 341.919 210.852 341.919 210.092V209.444C341.919 208.684 341.671 208.304 341.175 208.304C340.679 208.304 340.431 208.684 340.431 209.444V210.092C340.431 210.852 340.679 211.232 341.175 211.232Z" fill="#41637D"/>
<path d="M423.092 212V210.716H425.396V204.764H425.288L423.464 206.924L422.48 206.096L424.556 203.624H426.944V210.716H428.864V212H423.092ZM432.795 212.144C432.259 212.144 431.795 212.048 431.403 211.856C431.011 211.656 430.687 211.372 430.431 211.004C430.175 210.636 429.983 210.184 429.855 209.648C429.735 209.112 429.675 208.5 429.675 207.812C429.675 207.132 429.735 206.524 429.855 205.988C429.983 205.444 430.175 204.988 430.431 204.62C430.687 204.252 431.011 203.972 431.403 203.78C431.795 203.58 432.259 203.48 432.795 203.48C433.859 203.48 434.643 203.86 435.147 204.62C435.659 205.38 435.915 206.444 435.915 207.812C435.915 209.18 435.659 210.244 435.147 211.004C434.643 211.764 433.859 212.144 432.795 212.144ZM432.795 210.812C433.331 210.812 433.703 210.612 433.911 210.212C434.127 209.804 434.235 209.256 434.235 208.568V207.056C434.235 206.368 434.127 205.824 433.911 205.424C433.703 205.016 433.331 204.812 432.795 204.812C432.259 204.812 431.883 205.016 431.667 205.424C431.459 205.824 431.355 206.368 431.355 207.056V208.568C431.355 209.256 431.459 209.804 431.667 210.212C431.883 210.612 432.259 210.812 432.795 210.812ZM439.991 212.144C439.455 212.144 438.991 212.048 438.599 211.856C438.207 211.656 437.883 211.372 437.627 211.004C437.371 210.636 437.179 210.184 437.051 209.648C436.931 209.112 436.871 208.5 436.871 207.812C436.871 207.132 436.931 206.524 437.051 205.988C437.179 205.444 437.371 204.988 437.627 204.62C437.883 204.252 438.207 203.972 438.599 203.78C438.991 203.58 439.455 203.48 439.991 203.48C441.055 203.48 441.839 203.86 442.343 204.62C442.855 205.38 443.111 206.444 443.111 207.812C443.111 209.18 442.855 210.244 442.343 211.004C441.839 211.764 441.055 212.144 439.991 212.144ZM439.991 210.812C440.527 210.812 440.899 210.612 441.107 210.212C441.323 209.804 441.431 209.256 441.431 208.568V207.056C441.431 206.368 441.323 205.824 441.107 205.424C440.899 205.016 440.527 204.812 439.991 204.812C439.455 204.812 439.079 205.016 438.863 205.424C438.655 205.824 438.551 206.368 438.551 207.056V208.568C438.551 209.256 438.655 209.804 438.863 210.212C439.079 210.612 439.455 210.812 439.991 210.812ZM445.746 212L451.554 203.624H452.946L447.138 212H445.746ZM446.322 208.232C445.642 208.232 445.122 208.032 444.762 207.632C444.41 207.224 444.234 206.632 444.234 205.856C444.234 205.08 444.41 204.492 444.762 204.092C445.122 203.684 445.642 203.48 446.322 203.48C447.002 203.48 447.518 203.684 447.87 204.092C448.222 204.492 448.398 205.08 448.398 205.856C448.398 206.632 448.222 207.224 447.87 207.632C447.518 208.032 447.002 208.232 446.322 208.232ZM446.322 207.32C446.818 207.32 447.066 206.94 447.066 206.18V205.532C447.066 204.772 446.818 204.392 446.322 204.392C445.826 204.392 445.578 204.772 445.578 205.532V206.18C445.578 206.94 445.826 207.32 446.322 207.32ZM452.37 212.144C451.698 212.144 451.182 211.944 450.822 211.544C450.47 211.136 450.294 210.544 450.294 209.768C450.294 208.992 450.47 208.404 450.822 208.004C451.182 207.596 451.698 207.392 452.37 207.392C453.05 207.392 453.566 207.596 453.918 208.004C454.278 208.404 454.458 208.992 454.458 209.768C454.458 210.544 454.278 211.136 453.918 211.544C453.566 211.944 453.05 212.144 452.37 212.144ZM452.37 211.232C452.866 211.232 453.114 210.852 453.114 210.092V209.444C453.114 208.684 452.866 208.304 452.37 208.304C451.874 208.304 451.626 208.684 451.626 209.444V210.092C451.626 210.852 451.874 211.232 452.37 211.232Z" fill="#41637D"/>
<line opacity="0.2" x1="244.318" y1="7.59867e-09" x2="244.318" y2="190" stroke="#41637D"/>
<line opacity="0.2" x1="352.754" y1="7.59867e-09" x2="352.754" y2="190" stroke="#41637D"/>
<line opacity="0.2" x1="266.01" y1="7.59867e-09" x2="266.01" y2="190" stroke="#41637D"/>
<line opacity="0.2" x1="374.438" y1="7.59867e-09" x2="374.437" y2="190" stroke="#41637D"/>
<line opacity="0.2" x1="287.693" y1="7.59867e-09" x2="287.693" y2="190" stroke="#41637D"/>
<line opacity="0.2" x1="396.123" y1="7.59867e-09" x2="396.123" y2="190" stroke="#41637D"/>
<line opacity="0.2" x1="309.379" y1="7.59867e-09" x2="309.379" y2="190" stroke="#41637D"/>
<line opacity="0.2" x1="417.809" y1="7.59867e-09" x2="417.809" y2="190" stroke="#41637D"/>
<rect x="222" width="217" height="17" fill="#EDEDED"/>
<rect x="225" width="170" height="17" fill="#1084DD"/>
<path d="M61.0191 13V3.228H67.4591V4.866H62.8671V7.232H66.9271V8.87H62.8671V11.362H67.4591V13H61.0191ZM77.1836 13H75.0276L72.7876 9.248H72.7456L70.5336 13H68.5176L71.6816 7.988L68.6576 3.228H70.8136L72.8856 6.7H72.9276L75.0276 3.228H77.0436L73.9916 7.988L77.1836 13ZM82.4235 4.866V13H80.5755V4.866H77.8035V3.228H85.1955V4.866H82.4235ZM88.5565 13H86.7085V3.228H91.1185C91.5665 3.228 91.9679 3.298 92.3225 3.438C92.6772 3.578 92.9759 3.78333 93.2185 4.054C93.4705 4.31533 93.6619 4.63267 93.7925 5.006C93.9325 5.37933 94.0025 5.79467 94.0025 6.252C94.0025 6.924 93.8485 7.50267 93.5405 7.988C93.2419 8.47333 92.7892 8.81867 92.1825 9.024L94.1845 13H92.1265L90.3065 9.234H88.5565V13ZM90.9365 7.68C91.2912 7.68 91.5712 7.58667 91.7765 7.4C91.9819 7.204 92.0845 6.92867 92.0845 6.574V5.93C92.0845 5.57533 91.9819 5.30467 91.7765 5.118C91.5712 4.93133 91.2912 4.838 90.9365 4.838H88.5565V7.68H90.9365ZM102.053 13L101.269 10.508H97.7974L97.0274 13H95.1514L98.4274 3.228H100.723L103.971 13H102.053ZM99.5614 4.908H99.4914L98.2454 8.926H100.821L99.5614 4.908ZM108.837 13.168C108.193 13.168 107.609 13.0653 107.087 12.86C106.573 12.6453 106.13 12.328 105.757 11.908C105.393 11.488 105.113 10.97 104.917 10.354C104.721 9.72867 104.623 9.00533 104.623 8.184C104.623 7.36267 104.721 6.63467 104.917 6C105.113 5.356 105.393 4.81933 105.757 4.39C106.13 3.95133 106.573 3.62 107.087 3.396C107.609 3.172 108.193 3.06 108.837 3.06C109.714 3.06 110.442 3.24667 111.021 3.62C111.599 3.99333 112.061 4.558 112.407 5.314L110.825 6.154C110.685 5.71533 110.456 5.36533 110.139 5.104C109.821 4.83333 109.387 4.698 108.837 4.698C108.146 4.698 107.595 4.93133 107.185 5.398C106.783 5.86467 106.583 6.518 106.583 7.358V8.898C106.583 9.74733 106.783 10.4007 107.185 10.858C107.595 11.306 108.146 11.53 108.837 11.53C109.387 11.53 109.835 11.3807 110.181 11.082C110.535 10.7833 110.792 10.4147 110.951 9.976L112.449 10.858C112.094 11.586 111.623 12.1553 111.035 12.566C110.447 12.9673 109.714 13.168 108.837 13.168ZM117.861 4.866V13H116.013V4.866H113.241V3.228H120.633V4.866H117.861ZM121.672 13V11.516H122.96V4.712H121.672V3.228H126.11V4.712H124.808V11.516H126.11V13H121.672ZM131.834 13.168C131.19 13.168 130.606 13.0607 130.084 12.846C129.561 12.6313 129.113 12.3093 128.74 11.88C128.376 11.4507 128.091 10.9233 127.886 10.298C127.68 9.67267 127.578 8.94467 127.578 8.114C127.578 7.29267 127.68 6.56933 127.886 5.944C128.091 5.30933 128.376 4.77733 128.74 4.348C129.113 3.91867 129.561 3.59667 130.084 3.382C130.606 3.16733 131.19 3.06 131.834 3.06C132.478 3.06 133.061 3.16733 133.584 3.382C134.106 3.59667 134.554 3.91867 134.928 4.348C135.301 4.77733 135.586 5.30933 135.782 5.944C135.987 6.56933 136.09 7.29267 136.09 8.114C136.09 8.94467 135.987 9.67267 135.782 10.298C135.586 10.9233 135.301 11.4507 134.928 11.88C134.554 12.3093 134.106 12.6313 133.584 12.846C133.061 13.0607 132.478 13.168 131.834 13.168ZM131.834 11.53C132.534 11.53 133.089 11.2967 133.5 10.83C133.92 10.3633 134.13 9.71 134.13 8.87V7.358C134.13 6.518 133.92 5.86467 133.5 5.398C133.089 4.93133 132.534 4.698 131.834 4.698C131.134 4.698 130.574 4.93133 130.154 5.398C129.743 5.86467 129.538 6.518 129.538 7.358V8.87C129.538 9.71 129.743 10.3633 130.154 10.83C130.574 11.2967 131.134 11.53 131.834 11.53ZM140.764 7.988L139.756 5.958H139.714V13H137.964V3.228H139.994L142.934 8.24L143.942 10.27H143.984V3.228H145.734V13H143.704L140.764 7.988ZM151.336 13V3.228H155.732C156.18 3.228 156.581 3.30267 156.936 3.452C157.3 3.592 157.608 3.79733 157.86 4.068C158.112 4.32933 158.303 4.64667 158.434 5.02C158.564 5.39333 158.63 5.804 158.63 6.252C158.63 6.70933 158.564 7.12467 158.434 7.498C158.303 7.862 158.112 8.17933 157.86 8.45C157.608 8.71133 157.3 8.91667 156.936 9.066C156.581 9.206 156.18 9.276 155.732 9.276H153.184V13H151.336ZM153.184 7.68H155.564C155.918 7.68 156.198 7.58667 156.404 7.4C156.609 7.204 156.712 6.92867 156.712 6.574V5.93C156.712 5.57533 156.609 5.30467 156.404 5.118C156.198 4.93133 155.918 4.838 155.564 4.838H153.184V7.68ZM159.898 13V11.516H161.186V4.712H159.898V3.228H164.336V4.712H163.034V11.516H164.336V13H159.898ZM166.224 13V3.228H168.072V11.362H171.922V13H166.224ZM176.841 13.168C176.197 13.168 175.614 13.0607 175.091 12.846C174.569 12.6313 174.121 12.3093 173.747 11.88C173.383 11.4507 173.099 10.9233 172.893 10.298C172.688 9.67267 172.585 8.94467 172.585 8.114C172.585 7.29267 172.688 6.56933 172.893 5.944C173.099 5.30933 173.383 4.77733 173.747 4.348C174.121 3.91867 174.569 3.59667 175.091 3.382C175.614 3.16733 176.197 3.06 176.841 3.06C177.485 3.06 178.069 3.16733 178.591 3.382C179.114 3.59667 179.562 3.91867 179.935 4.348C180.309 4.77733 180.593 5.30933 180.789 5.944C180.995 6.56933 181.097 7.29267 181.097 8.114C181.097 8.94467 180.995 9.67267 180.789 10.298C180.593 10.9233 180.309 11.4507 179.935 11.88C179.562 12.3093 179.114 12.6313 178.591 12.846C178.069 13.0607 177.485 13.168 176.841 13.168ZM176.841 11.53C177.541 11.53 178.097 11.2967 178.507 10.83C178.927 10.3633 179.137 9.71 179.137 8.87V7.358C179.137 6.518 178.927 5.86467 178.507 5.398C178.097 4.93133 177.541 4.698 176.841 4.698C176.141 4.698 175.581 4.93133 175.161 5.398C174.751 5.86467 174.545 6.518 174.545 7.358V8.87C174.545 9.71 174.751 10.3633 175.161 10.83C175.581 11.2967 176.141 11.53 176.841 11.53ZM186.466 4.866V13H184.618V4.866H181.846V3.228H189.238V4.866H186.466ZM190.752 13V3.228H197.192V4.866H192.6V7.232H196.66V8.87H192.6V11.362H197.192V13H190.752Z" fill="#41637D"/>
<rect x="222" y="41" width="217" height="17" fill="#EDEDED"/>
<rect x="222" y="41" width="178" height="17" fill="#39A4F5"/>
<rect x="222" y="41" width="131" height="17" fill="#1084DD"/>
<path d="M21.1793 54.0005V44.2285H25.5753C26.0233 44.2285 26.4246 44.3032 26.7793 44.4525C27.1433 44.5925 27.4513 44.7978 27.7033 45.0685C27.9553 45.3298 28.1466 45.6472 28.2773 46.0205C28.4079 46.3938 28.4733 46.8045 28.4733 47.2525C28.4733 47.7098 28.4079 48.1252 28.2773 48.4985C28.1466 48.8625 27.9553 49.1798 27.7033 49.4505C27.4513 49.7118 27.1433 49.9172 26.7793 50.0665C26.4246 50.2065 26.0233 50.2765 25.5753 50.2765H23.0273V54.0005H21.1793ZM23.0273 48.6805H25.4073C25.7619 48.6805 26.0419 48.5872 26.2473 48.4005C26.4526 48.2045 26.5553 47.9292 26.5553 47.5745V46.9305C26.5553 46.5758 26.4526 46.3052 26.2473 46.1185C26.0419 45.9318 25.7619 45.8385 25.4073 45.8385H23.0273V48.6805ZM33.984 54.1685C33.34 54.1685 32.7567 54.0612 32.234 53.8465C31.7113 53.6318 31.2633 53.3098 30.89 52.8805C30.526 52.4512 30.2413 51.9238 30.036 51.2985C29.8307 50.6732 29.728 49.9452 29.728 49.1145C29.728 48.2932 29.8307 47.5698 30.036 46.9445C30.2413 46.3098 30.526 45.7778 30.89 45.3485C31.2633 44.9192 31.7113 44.5972 32.234 44.3825C32.7567 44.1678 33.34 44.0605 33.984 44.0605C34.628 44.0605 35.2113 44.1678 35.734 44.3825C36.2567 44.5972 36.7047 44.9192 37.078 45.3485C37.4513 45.7778 37.736 46.3098 37.932 46.9445C38.1373 47.5698 38.24 48.2932 38.24 49.1145C38.24 49.9452 38.1373 50.6732 37.932 51.2985C37.736 51.9238 37.4513 52.4512 37.078 52.8805C36.7047 53.3098 36.2567 53.6318 35.734 53.8465C35.2113 54.0612 34.628 54.1685 33.984 54.1685ZM33.984 52.5305C34.684 52.5305 35.2393 52.2972 35.65 51.8305C36.07 51.3638 36.28 50.7105 36.28 49.8705V48.3585C36.28 47.5185 36.07 46.8652 35.65 46.3985C35.2393 45.9318 34.684 45.6985 33.984 45.6985C33.284 45.6985 32.724 45.9318 32.304 46.3985C31.8933 46.8652 31.688 47.5185 31.688 48.3585V49.8705C31.688 50.7105 31.8933 51.3638 32.304 51.8305C32.724 52.2972 33.284 52.5305 33.984 52.5305ZM43.1118 54.1685C42.2718 54.1685 41.5578 54.0192 40.9698 53.7205C40.3911 53.4218 39.8918 53.0298 39.4718 52.5445L40.7178 51.3405C41.0538 51.7325 41.4271 52.0312 41.8378 52.2365C42.2578 52.4418 42.7198 52.5445 43.2238 52.5445C43.7931 52.5445 44.2224 52.4232 44.5118 52.1805C44.8011 51.9285 44.9458 51.5925 44.9458 51.1725C44.9458 50.8458 44.8524 50.5798 44.6658 50.3745C44.4791 50.1692 44.1291 50.0198 43.6158 49.9265L42.6918 49.7865C40.7411 49.4785 39.7658 48.5312 39.7658 46.9445C39.7658 46.5058 39.8451 46.1092 40.0038 45.7545C40.1718 45.3998 40.4098 45.0965 40.7178 44.8445C41.0258 44.5925 41.3944 44.4012 41.8238 44.2705C42.2624 44.1305 42.7571 44.0605 43.3078 44.0605C44.0451 44.0605 44.6891 44.1818 45.2398 44.4245C45.7904 44.6672 46.2618 45.0265 46.6538 45.5025L45.3938 46.6925C45.1511 46.3938 44.8571 46.1512 44.5118 45.9645C44.1664 45.7778 43.7324 45.6845 43.2098 45.6845C42.6778 45.6845 42.2764 45.7872 42.0058 45.9925C41.7444 46.1885 41.6138 46.4685 41.6138 46.8325C41.6138 47.2058 41.7211 47.4812 41.9358 47.6585C42.1504 47.8358 42.4958 47.9665 42.9718 48.0505L43.8818 48.2185C44.8711 48.3958 45.5991 48.7132 46.0658 49.1705C46.5418 49.6185 46.7798 50.2485 46.7798 51.0605C46.7798 51.5272 46.6958 51.9518 46.5278 52.3345C46.3691 52.7078 46.1311 53.0345 45.8138 53.3145C45.5058 53.5852 45.1231 53.7952 44.6658 53.9445C44.2178 54.0938 43.6998 54.1685 43.1118 54.1685ZM52.1949 45.8665V54.0005H50.3469V45.8665H47.5749V44.2285H54.9669V45.8665H52.1949ZM55.5015 50.6265V48.8485H59.5055V50.6265H55.5015ZM64.6637 45.8665V54.0005H62.8157V45.8665H60.0437V44.2285H67.4357V45.8665H64.6637ZM70.7968 54.0005H68.9488V44.2285H73.3588C73.8068 44.2285 74.2081 44.2985 74.5628 44.4385C74.9174 44.5785 75.2161 44.7838 75.4588 45.0545C75.7108 45.3158 75.9021 45.6332 76.0328 46.0065C76.1728 46.3798 76.2428 46.7952 76.2428 47.2525C76.2428 47.9245 76.0888 48.5032 75.7808 48.9885C75.4821 49.4738 75.0294 49.8192 74.4228 50.0245L76.4248 54.0005H74.3668L72.5468 50.2345H70.7968V54.0005ZM73.1768 48.6805C73.5314 48.6805 73.8114 48.5872 74.0168 48.4005C74.2221 48.2045 74.3248 47.9292 74.3248 47.5745V46.9305C74.3248 46.5758 74.2221 46.3052 74.0168 46.1185C73.8114 45.9318 73.5314 45.8385 73.1768 45.8385H70.7968V48.6805H73.1768ZM84.2937 54.0005L83.5097 51.5085H80.0377L79.2677 54.0005H77.3917L80.6677 44.2285H82.9637L86.2117 54.0005H84.2937ZM81.8017 45.9085H81.7317L80.4857 49.9265H83.0617L81.8017 45.9085ZM87.2459 54.0005V52.5165H88.5339V45.7125H87.2459V44.2285H91.6839V45.7125H90.3819V52.5165H91.6839V54.0005H87.2459ZM97.3395 45.8665V54.0005H95.4915V45.8665H92.7195V44.2285H100.111V45.8665H97.3395ZM101.625 54.0005V44.2285H108.065V45.8665H103.473V48.2325H107.533V49.8705H103.473V52.3625H108.065V54.0005H101.625ZM117.397 46.9865H117.341L116.585 48.5405L114.583 52.2365L112.581 48.5405L111.825 46.9865H111.769V54.0005H110.019V44.2285H112.105L114.611 49.0025H114.667L117.145 44.2285H119.147V54.0005H117.397V46.9865ZM121.449 54.0005V44.2285H127.889V45.8665H123.297V48.2325H127.357V49.8705H123.297V52.3625H127.889V54.0005H121.449ZM132.643 48.9885L131.635 46.9585H131.593V54.0005H129.843V44.2285H131.873L134.813 49.2405L135.821 51.2705H135.863V44.2285H137.613V54.0005H135.583L132.643 48.9885ZM143.742 45.8665V54.0005H141.894V45.8665H139.122V44.2285H146.514V45.8665H143.742ZM151.336 54.0005V44.2285H155.732C156.18 44.2285 156.581 44.3032 156.936 44.4525C157.3 44.5925 157.608 44.7978 157.86 45.0685C158.112 45.3298 158.303 45.6472 158.434 46.0205C158.564 46.3938 158.63 46.8045 158.63 47.2525C158.63 47.7098 158.564 48.1252 158.434 48.4985C158.303 48.8625 158.112 49.1798 157.86 49.4505C157.608 49.7118 157.3 49.9172 156.936 50.0665C156.581 50.2065 156.18 50.2765 155.732 50.2765H153.184V54.0005H151.336ZM153.184 48.6805H155.564C155.918 48.6805 156.198 48.5872 156.404 48.4005C156.609 48.2045 156.712 47.9292 156.712 47.5745V46.9305C156.712 46.5758 156.609 46.3052 156.404 46.1185C156.198 45.9318 155.918 45.8385 155.564 45.8385H153.184V48.6805ZM159.898 54.0005V52.5165H161.186V45.7125H159.898V44.2285H164.336V45.7125H163.034V52.5165H164.336V54.0005H159.898ZM166.224 54.0005V44.2285H168.072V52.3625H171.922V54.0005H166.224ZM176.841 54.1685C176.197 54.1685 175.614 54.0612 175.091 53.8465C174.569 53.6318 174.121 53.3098 173.747 52.8805C173.383 52.4512 173.099 51.9238 172.893 51.2985C172.688 50.6732 172.585 49.9452 172.585 49.1145C172.585 48.2932 172.688 47.5698 172.893 46.9445C173.099 46.3098 173.383 45.7778 173.747 45.3485C174.121 44.9192 174.569 44.5972 175.091 44.3825C175.614 44.1678 176.197 44.0605 176.841 44.0605C177.485 44.0605 178.069 44.1678 178.591 44.3825C179.114 44.5972 179.562 44.9192 179.935 45.3485C180.309 45.7778 180.593 46.3098 180.789 46.9445C180.995 47.5698 181.097 48.2932 181.097 49.1145C181.097 49.9452 180.995 50.6732 180.789 51.2985C180.593 51.9238 180.309 52.4512 179.935 52.8805C179.562 53.3098 179.114 53.6318 178.591 53.8465C178.069 54.0612 177.485 54.1685 176.841 54.1685ZM176.841 52.5305C177.541 52.5305 178.097 52.2972 178.507 51.8305C178.927 51.3638 179.137 50.7105 179.137 49.8705V48.3585C179.137 47.5185 178.927 46.8652 178.507 46.3985C178.097 45.9318 177.541 45.6985 176.841 45.6985C176.141 45.6985 175.581 45.9318 175.161 46.3985C174.751 46.8652 174.545 47.5185 174.545 48.3585V49.8705C174.545 50.7105 174.751 51.3638 175.161 51.8305C175.581 52.2972 176.141 52.5305 176.841 52.5305ZM186.466 45.8665V54.0005H184.618V45.8665H181.846V44.2285H189.238V45.8665H186.466ZM190.752 54.0005V44.2285H197.192V45.8665H192.6V48.2325H196.66V49.8705H192.6V52.3625H197.192V54.0005H190.752Z" fill="#41637D"/>
<rect x="222" y="82" width="217" height="17" fill="#39A4F5"/>
<rect x="222" y="82" width="131" height="17" fill="#1084DD"/>
<path d="M9.91647 95.168C9.07647 95.168 8.36247 95.0187 7.77447 94.72C7.1958 94.4213 6.69647 94.0293 6.27647 93.544L7.52247 92.34C7.85847 92.732 8.2318 93.0307 8.64247 93.236C9.06247 93.4413 9.52447 93.544 10.0285 93.544C10.5978 93.544 11.0271 93.4227 11.3165 93.18C11.6058 92.928 11.7505 92.592 11.7505 92.172C11.7505 91.8453 11.6571 91.5793 11.4705 91.374C11.2838 91.1687 10.9338 91.0193 10.4205 90.926L9.49647 90.786C7.5458 90.478 6.57047 89.5307 6.57047 87.944C6.57047 87.5053 6.6498 87.1087 6.80847 86.754C6.97647 86.3993 7.21447 86.096 7.52247 85.844C7.83047 85.592 8.19914 85.4007 8.62847 85.27C9.06714 85.13 9.5618 85.06 10.1125 85.06C10.8498 85.06 11.4938 85.1813 12.0445 85.424C12.5951 85.6667 13.0665 86.026 13.4585 86.502L12.1985 87.692C11.9558 87.3933 11.6618 87.1507 11.3165 86.964C10.9711 86.7773 10.5371 86.684 10.0145 86.684C9.48247 86.684 9.08114 86.7867 8.81047 86.992C8.54914 87.188 8.41847 87.468 8.41847 87.832C8.41847 88.2053 8.5258 88.4807 8.74047 88.658C8.95514 88.8353 9.30047 88.966 9.77647 89.05L10.6865 89.218C11.6758 89.3953 12.4038 89.7127 12.8705 90.17C13.3465 90.618 13.5845 91.248 13.5845 92.06C13.5845 92.5267 13.5005 92.9513 13.3325 93.334C13.1738 93.7073 12.9358 94.034 12.6185 94.314C12.3105 94.5847 11.9278 94.7947 11.4705 94.944C11.0225 95.0933 10.5045 95.168 9.91647 95.168ZM19.2311 95.168C18.5871 95.168 18.0037 95.0653 17.4811 94.86C16.9677 94.6453 16.5244 94.328 16.1511 93.908C15.7871 93.488 15.5071 92.97 15.3111 92.354C15.1151 91.7287 15.0171 91.0053 15.0171 90.184C15.0171 89.3627 15.1151 88.6347 15.3111 88C15.5071 87.356 15.7871 86.8193 16.1511 86.39C16.5244 85.9513 16.9677 85.62 17.4811 85.396C18.0037 85.172 18.5871 85.06 19.2311 85.06C20.1084 85.06 20.8364 85.2467 21.4151 85.62C21.9937 85.9933 22.4557 86.558 22.8011 87.314L21.2191 88.154C21.0791 87.7153 20.8504 87.3653 20.5331 87.104C20.2157 86.8333 19.7817 86.698 19.2311 86.698C18.5404 86.698 17.9897 86.9313 17.5791 87.398C17.1777 87.8647 16.9771 88.518 16.9771 89.358V90.898C16.9771 91.7473 17.1777 92.4007 17.5791 92.858C17.9897 93.306 18.5404 93.53 19.2311 93.53C19.7817 93.53 20.2297 93.3807 20.5751 93.082C20.9297 92.7833 21.1864 92.4147 21.3451 91.976L22.8431 92.858C22.4884 93.586 22.0171 94.1553 21.4291 94.566C20.8411 94.9673 20.1084 95.168 19.2311 95.168ZM30.3855 95L29.6015 92.508H26.1295L25.3595 95H23.4835L26.7595 85.228H29.0555L32.3035 95H30.3855ZM27.8935 86.908H27.8235L26.5775 90.926H29.1535L27.8935 86.908ZM33.7437 95V85.228H35.5917V93.362H39.4417V95H33.7437ZM41.0445 95V85.228H47.4845V86.866H42.8925V89.232H46.9525V90.87H42.8925V93.362H47.4845V95H41.0445ZM49.103 91.626V89.848H53.107V91.626H49.103ZM56.8218 85.228V91.234C56.8218 91.9993 56.9665 92.5733 57.2558 92.956C57.5545 93.3387 58.0538 93.53 58.7538 93.53C59.4538 93.53 59.9485 93.3387 60.2378 92.956C60.5365 92.5733 60.6858 91.9993 60.6858 91.234V85.228H62.5058V90.996C62.5058 91.7147 62.4358 92.3353 62.2958 92.858C62.1652 93.3807 61.9505 93.8147 61.6518 94.16C61.3532 94.5053 60.9612 94.762 60.4758 94.93C59.9998 95.0887 59.4212 95.168 58.7398 95.168C58.0492 95.168 57.4658 95.0887 56.9898 94.93C56.5232 94.762 56.1405 94.5053 55.8418 94.16C55.5432 93.8147 55.3285 93.3807 55.1978 92.858C55.0672 92.3353 55.0018 91.7147 55.0018 90.996V85.228H56.8218ZM64.7378 95V85.228H69.1338C69.5818 85.228 69.9832 85.3027 70.3378 85.452C70.7018 85.592 71.0098 85.7973 71.2618 86.068C71.5138 86.3293 71.7052 86.6467 71.8358 87.02C71.9665 87.3933 72.0318 87.804 72.0318 88.252C72.0318 88.7093 71.9665 89.1247 71.8358 89.498C71.7052 89.862 71.5138 90.1793 71.2618 90.45C71.0098 90.7113 70.7018 90.9167 70.3378 91.066C69.9832 91.206 69.5818 91.276 69.1338 91.276H66.5858V95H64.7378ZM66.5858 89.68H68.9658C69.3205 89.68 69.6005 89.5867 69.8058 89.4C70.0112 89.204 70.1138 88.9287 70.1138 88.574V87.93C70.1138 87.5753 70.0112 87.3047 69.8058 87.118C69.6005 86.9313 69.3205 86.838 68.9658 86.838H66.5858V89.68ZM77.0152 95V85.228H78.8632V93.362H82.7132V95H77.0152ZM90.6101 95L89.8261 92.508H86.3541L85.5841 95H83.7081L86.9841 85.228H89.2801L92.5281 95H90.6101ZM88.1181 86.908H88.0481L86.8021 90.926H89.3781L88.1181 86.908ZM93.9683 85.228H98.4903C98.8916 85.228 99.251 85.2887 99.5683 85.41C99.895 85.5313 100.17 85.6993 100.394 85.914C100.618 86.1287 100.786 86.3947 100.898 86.712C101.02 87.02 101.08 87.3607 101.08 87.734C101.08 88.1073 101.029 88.4247 100.926 88.686C100.833 88.938 100.702 89.148 100.534 89.316C100.376 89.484 100.189 89.61 99.9743 89.694C99.769 89.778 99.5543 89.8247 99.3303 89.834V89.918C99.545 89.918 99.7736 89.96 100.016 90.044C100.268 90.128 100.497 90.2633 100.702 90.45C100.917 90.6273 101.094 90.8607 101.234 91.15C101.374 91.43 101.444 91.78 101.444 92.2C101.444 92.592 101.379 92.9607 101.248 93.306C101.127 93.642 100.954 93.936 100.73 94.188C100.506 94.44 100.24 94.6407 99.9323 94.79C99.6243 94.93 99.2883 95 98.9243 95H93.9683V85.228ZM95.8163 93.432H98.3923C98.747 93.432 99.0223 93.3433 99.2183 93.166C99.4143 92.9793 99.5123 92.7133 99.5123 92.368V91.892C99.5123 91.5467 99.4143 91.2807 99.2183 91.094C99.0223 90.9073 98.747 90.814 98.3923 90.814H95.8163V93.432ZM95.8163 89.302H98.0983C98.4343 89.302 98.6956 89.2133 98.8823 89.036C99.069 88.8493 99.1623 88.5927 99.1623 88.266V87.832C99.1623 87.5053 99.069 87.2533 98.8823 87.076C98.6956 86.8893 98.4343 86.796 98.0983 86.796H95.8163V89.302ZM107.088 95.168C106.444 95.168 105.86 95.0607 105.338 94.846C104.815 94.6313 104.367 94.3093 103.994 93.88C103.63 93.4507 103.345 92.9233 103.14 92.298C102.934 91.6727 102.832 90.9447 102.832 90.114C102.832 89.2927 102.934 88.5693 103.14 87.944C103.345 87.3093 103.63 86.7773 103.994 86.348C104.367 85.9187 104.815 85.5967 105.338 85.382C105.86 85.1673 106.444 85.06 107.088 85.06C107.732 85.06 108.315 85.1673 108.838 85.382C109.36 85.5967 109.808 85.9187 110.182 86.348C110.555 86.7773 110.84 87.3093 111.036 87.944C111.241 88.5693 111.344 89.2927 111.344 90.114C111.344 90.9447 111.241 91.6727 111.036 92.298C110.84 92.9233 110.555 93.4507 110.182 93.88C109.808 94.3093 109.36 94.6313 108.838 94.846C108.315 95.0607 107.732 95.168 107.088 95.168ZM107.088 93.53C107.788 93.53 108.343 93.2967 108.754 92.83C109.174 92.3633 109.384 91.71 109.384 90.87V89.358C109.384 88.518 109.174 87.8647 108.754 87.398C108.343 86.9313 107.788 86.698 107.088 86.698C106.388 86.698 105.828 86.9313 105.408 87.398C104.997 87.8647 104.792 88.518 104.792 89.358V90.87C104.792 91.71 104.997 92.3633 105.408 92.83C105.828 93.2967 106.388 93.53 107.088 93.53ZM116.121 95V93.516H117.409V86.712H116.121V85.228H120.559V86.712H119.257V93.516H120.559V95H116.121ZM125.247 89.988L124.239 87.958H124.197V95H122.447V85.228H124.477L127.417 90.24L128.425 92.27H128.467V85.228H130.217V95H128.187L125.247 89.988ZM132.509 85.228H136.065C136.7 85.228 137.274 85.3307 137.787 85.536C138.31 85.7413 138.753 86.0493 139.117 86.46C139.491 86.8613 139.775 87.37 139.971 87.986C140.177 88.5927 140.279 89.302 140.279 90.114C140.279 90.926 140.177 91.64 139.971 92.256C139.775 92.8627 139.491 93.3713 139.117 93.782C138.753 94.1833 138.31 94.4867 137.787 94.692C137.274 94.8973 136.7 95 136.065 95H132.509V85.228ZM136.065 93.362C136.756 93.362 137.302 93.1613 137.703 92.76C138.114 92.3493 138.319 91.724 138.319 90.884V89.344C138.319 88.504 138.114 87.8833 137.703 87.482C137.302 87.0713 136.756 86.866 136.065 86.866H134.357V93.362H136.065ZM143.912 85.228V91.234C143.912 91.9993 144.056 92.5733 144.346 92.956C144.644 93.3387 145.144 93.53 145.844 93.53C146.544 93.53 147.038 93.3387 147.328 92.956C147.626 92.5733 147.776 91.9993 147.776 91.234V85.228H149.596V90.996C149.596 91.7147 149.526 92.3353 149.386 92.858C149.255 93.3807 149.04 93.8147 148.742 94.16C148.443 94.5053 148.051 94.762 147.566 94.93C147.09 95.0887 146.511 95.168 145.83 95.168C145.139 95.168 144.556 95.0887 144.08 94.93C143.613 94.762 143.23 94.5053 142.932 94.16C142.633 93.8147 142.418 93.3807 142.288 92.858C142.157 92.3353 142.092 91.7147 142.092 90.996V85.228H143.912ZM154.866 95.168C154.026 95.168 153.312 95.0187 152.724 94.72C152.145 94.4213 151.646 94.0293 151.226 93.544L152.472 92.34C152.808 92.732 153.181 93.0307 153.592 93.236C154.012 93.4413 154.474 93.544 154.978 93.544C155.547 93.544 155.976 93.4227 156.266 93.18C156.555 92.928 156.7 92.592 156.7 92.172C156.7 91.8453 156.606 91.5793 156.42 91.374C156.233 91.1687 155.883 91.0193 155.37 90.926L154.446 90.786C152.495 90.478 151.52 89.5307 151.52 87.944C151.52 87.5053 151.599 87.1087 151.758 86.754C151.926 86.3993 152.164 86.096 152.472 85.844C152.78 85.592 153.148 85.4007 153.578 85.27C154.016 85.13 154.511 85.06 155.062 85.06C155.799 85.06 156.443 85.1813 156.994 85.424C157.544 85.6667 158.016 86.026 158.408 86.502L157.148 87.692C156.905 87.3933 156.611 87.1507 156.266 86.964C155.92 86.7773 155.486 86.684 154.964 86.684C154.432 86.684 154.03 86.7867 153.76 86.992C153.498 87.188 153.368 87.468 153.368 87.832C153.368 88.2053 153.475 88.4807 153.69 88.658C153.904 88.8353 154.25 88.966 154.726 89.05L155.636 89.218C156.625 89.3953 157.353 89.7127 157.82 90.17C158.296 90.618 158.534 91.248 158.534 92.06C158.534 92.5267 158.45 92.9513 158.282 93.334C158.123 93.7073 157.885 94.034 157.568 94.314C157.26 94.5847 156.877 94.7947 156.42 94.944C155.972 95.0933 155.454 95.168 154.866 95.168ZM163.949 86.866V95H162.101V86.866H159.329V85.228H166.721V86.866H163.949ZM170.082 95H168.234V85.228H172.644C173.092 85.228 173.493 85.298 173.848 85.438C174.203 85.578 174.501 85.7833 174.744 86.054C174.996 86.3153 175.187 86.6327 175.318 87.006C175.458 87.3793 175.528 87.7947 175.528 88.252C175.528 88.924 175.374 89.5027 175.066 89.988C174.767 90.4733 174.315 90.8187 173.708 91.024L175.71 95H173.652L171.832 91.234H170.082V95ZM172.462 89.68C172.817 89.68 173.097 89.5867 173.302 89.4C173.507 89.204 173.61 88.9287 173.61 88.574V87.93C173.61 87.5753 173.507 87.3047 173.302 87.118C173.097 86.9313 172.817 86.838 172.462 86.838H170.082V89.68H172.462ZM177.125 95V93.516H178.413V86.712H177.125V85.228H181.563V86.712H180.261V93.516H181.563V95H177.125ZM183.451 95V85.228H189.891V86.866H185.299V89.232H189.359V90.87H185.299V93.362H189.891V95H183.451ZM191.845 95V85.228H193.693V93.362H197.543V95H191.845Z" fill="#41637D"/>
<rect x="222" y="164" width="217" height="17" fill="#EDEDED"/>
<rect x="222" y="164" width="47" height="17" fill="#39A4F5"/>
<rect x="222" y="164" width="26" height="17" fill="#1084DD"/>
<path d="M1.86284 177V167.228H8.14884V168.866H3.71084V171.232H7.57484V172.87H3.71084V177H1.86284ZM13.4098 177.168C12.7658 177.168 12.1824 177.061 11.6598 176.846C11.1371 176.632 10.6891 176.31 10.3158 175.88C9.95178 175.451 9.66711 174.924 9.46178 174.298C9.25645 173.673 9.15378 172.945 9.15378 172.114C9.15378 171.293 9.25645 170.57 9.46178 169.944C9.66711 169.31 9.95178 168.778 10.3158 168.348C10.6891 167.919 11.1371 167.597 11.6598 167.382C12.1824 167.168 12.7658 167.06 13.4098 167.06C14.0538 167.06 14.6371 167.168 15.1598 167.382C15.6824 167.597 16.1304 167.919 16.5038 168.348C16.8771 168.778 17.1618 169.31 17.3578 169.944C17.5631 170.57 17.6658 171.293 17.6658 172.114C17.6658 172.945 17.5631 173.673 17.3578 174.298C17.1618 174.924 16.8771 175.451 16.5038 175.88C16.1304 176.31 15.6824 176.632 15.1598 176.846C14.6371 177.061 14.0538 177.168 13.4098 177.168ZM13.4098 175.53C14.1098 175.53 14.6651 175.297 15.0758 174.83C15.4958 174.364 15.7058 173.71 15.7058 172.87V171.358C15.7058 170.518 15.4958 169.865 15.0758 169.398C14.6651 168.932 14.1098 168.698 13.4098 168.698C12.7098 168.698 12.1498 168.932 11.7298 169.398C11.3191 169.865 11.1138 170.518 11.1138 171.358V172.87C11.1138 173.71 11.3191 174.364 11.7298 174.83C12.1498 175.297 12.7098 175.53 13.4098 175.53ZM21.3886 177H19.5406V167.228H23.9506C24.3986 167.228 24.7999 167.298 25.1546 167.438C25.5092 167.578 25.8079 167.784 26.0506 168.054C26.3026 168.316 26.4939 168.633 26.6246 169.006C26.7646 169.38 26.8346 169.795 26.8346 170.252C26.8346 170.924 26.6806 171.503 26.3726 171.988C26.0739 172.474 25.6212 172.819 25.0146 173.024L27.0166 177H24.9586L23.1386 173.234H21.3886V177ZM23.7686 171.68C24.1232 171.68 24.4032 171.587 24.6086 171.4C24.8139 171.204 24.9166 170.929 24.9166 170.574V169.93C24.9166 169.576 24.8139 169.305 24.6086 169.118C24.4032 168.932 24.1232 168.838 23.7686 168.838H21.3886V171.68H23.7686ZM36.2155 169.986H36.1595L35.4035 171.54L33.4015 175.236L31.3995 171.54L30.6435 169.986H30.5875V177H28.8375V167.228H30.9235L33.4295 172.002H33.4855L35.9635 167.228H37.9655V177H36.2155V169.986ZM42.0171 167.228V173.234C42.0171 174 42.1618 174.574 42.4511 174.956C42.7498 175.339 43.2491 175.53 43.9491 175.53C44.6491 175.53 45.1438 175.339 45.4331 174.956C45.7318 174.574 45.8811 174 45.8811 173.234V167.228H47.7011V172.996C47.7011 173.715 47.6311 174.336 47.4911 174.858C47.3605 175.381 47.1458 175.815 46.8471 176.16C46.5485 176.506 46.1565 176.762 45.6711 176.93C45.1951 177.089 44.6165 177.168 43.9351 177.168C43.2445 177.168 42.6611 177.089 42.1851 176.93C41.7185 176.762 41.3358 176.506 41.0371 176.16C40.7385 175.815 40.5238 175.381 40.3931 174.858C40.2625 174.336 40.1971 173.715 40.1971 172.996V167.228H42.0171ZM49.9332 177V167.228H51.7812V175.362H55.6312V177H49.9332ZM63.528 177L62.744 174.508H59.272L58.502 177H56.626L59.902 167.228H62.198L65.446 177H63.528ZM61.036 168.908H60.966L59.72 172.926H62.296L61.036 168.908ZM69.8063 168.866V177H67.9583V168.866H65.1863V167.228H72.5783V168.866H69.8063ZM73.617 177V175.516H74.905V168.712H73.617V167.228H78.055V168.712H76.753V175.516H78.055V177H73.617ZM83.7789 177.168C83.1349 177.168 82.5516 177.061 82.0289 176.846C81.5063 176.632 81.0583 176.31 80.6849 175.88C80.3209 175.451 80.0363 174.924 79.8309 174.298C79.6256 173.673 79.5229 172.945 79.5229 172.114C79.5229 171.293 79.6256 170.57 79.8309 169.944C80.0363 169.31 80.3209 168.778 80.6849 168.348C81.0583 167.919 81.5063 167.597 82.0289 167.382C82.5516 167.168 83.1349 167.06 83.7789 167.06C84.4229 167.06 85.0063 167.168 85.5289 167.382C86.0516 167.597 86.4996 167.919 86.8729 168.348C87.2463 168.778 87.5309 169.31 87.7269 169.944C87.9323 170.57 88.0349 171.293 88.0349 172.114C88.0349 172.945 87.9323 173.673 87.7269 174.298C87.5309 174.924 87.2463 175.451 86.8729 175.88C86.4996 176.31 86.0516 176.632 85.5289 176.846C85.0063 177.061 84.4229 177.168 83.7789 177.168ZM83.7789 175.53C84.4789 175.53 85.0343 175.297 85.4449 174.83C85.8649 174.364 86.0749 173.71 86.0749 172.87V171.358C86.0749 170.518 85.8649 169.865 85.4449 169.398C85.0343 168.932 84.4789 168.698 83.7789 168.698C83.0789 168.698 82.5189 168.932 82.0989 169.398C81.6883 169.865 81.4829 170.518 81.4829 171.358V172.87C81.4829 173.71 81.6883 174.364 82.0989 174.83C82.5189 175.297 83.0789 175.53 83.7789 175.53ZM92.7097 171.988L91.7017 169.958H91.6597V177H89.9097V167.228H91.9397L94.8797 172.24L95.8877 174.27H95.9297V167.228H97.6797V177H95.6497L92.7097 171.988ZM108.965 176.104C108.825 176.226 108.666 176.352 108.489 176.482C108.311 176.604 108.106 176.716 107.873 176.818C107.649 176.921 107.392 177.005 107.103 177.07C106.823 177.136 106.505 177.168 106.151 177.168C105.628 177.168 105.161 177.098 104.751 176.958C104.349 176.818 104.013 176.627 103.743 176.384C103.472 176.142 103.267 175.857 103.127 175.53C102.987 175.194 102.917 174.835 102.917 174.452C102.917 174.107 102.968 173.804 103.071 173.542C103.173 173.272 103.313 173.029 103.491 172.814C103.668 172.59 103.878 172.394 104.121 172.226C104.363 172.049 104.62 171.881 104.891 171.722C104.601 171.396 104.345 171.041 104.121 170.658C103.906 170.266 103.799 169.846 103.799 169.398C103.799 169.081 103.864 168.782 103.995 168.502C104.125 168.213 104.312 167.961 104.555 167.746C104.807 167.532 105.105 167.364 105.451 167.242C105.796 167.121 106.183 167.06 106.613 167.06C106.995 167.06 107.35 167.112 107.677 167.214C108.003 167.317 108.283 167.462 108.517 167.648C108.759 167.835 108.946 168.064 109.077 168.334C109.217 168.605 109.287 168.913 109.287 169.258C109.287 169.566 109.231 169.851 109.119 170.112C109.016 170.364 108.871 170.598 108.685 170.812C108.498 171.018 108.283 171.214 108.041 171.4C107.798 171.578 107.537 171.746 107.257 171.904L108.965 173.752C109.095 173.435 109.193 173.099 109.259 172.744C109.333 172.39 109.38 172.035 109.399 171.68H111.597V173.178H110.687C110.547 173.813 110.332 174.392 110.043 174.914L111.975 177H109.777L108.965 176.104ZM106.557 168.446C106.258 168.446 106.011 168.535 105.815 168.712C105.619 168.88 105.521 169.109 105.521 169.398V169.496C105.521 169.711 105.586 169.926 105.717 170.14C105.857 170.346 106.071 170.612 106.361 170.938C106.715 170.724 107.005 170.5 107.229 170.266C107.462 170.033 107.579 169.762 107.579 169.454V169.37C107.579 169.072 107.476 168.843 107.271 168.684C107.075 168.526 106.837 168.446 106.557 168.446ZM106.389 175.67C106.725 175.67 107.028 175.619 107.299 175.516C107.569 175.414 107.807 175.274 108.013 175.096L105.787 172.688C105.46 172.884 105.203 173.094 105.017 173.318C104.839 173.533 104.751 173.808 104.751 174.144V174.298C104.751 174.709 104.891 175.04 105.171 175.292C105.451 175.544 105.857 175.67 106.389 175.67ZM118.838 177L115.646 167.228H117.536L119.034 171.988L119.902 175.236H119.944L120.798 171.988L122.296 167.228H124.13L120.938 177H118.838ZM130.848 177L130.064 174.508H126.592L125.822 177H123.946L127.222 167.228H129.518L132.766 177H130.848ZM128.356 168.908H128.286L127.04 172.926H129.616L128.356 168.908ZM134.207 177V167.228H136.055V175.362H139.905V177H134.207ZM141.101 177V175.516H142.389V168.712H141.101V167.228H145.539V168.712H144.237V175.516H145.539V177H141.101ZM147.427 167.228H150.983C151.618 167.228 152.192 167.331 152.705 167.536C153.228 167.742 153.671 168.05 154.035 168.46C154.409 168.862 154.693 169.37 154.889 169.986C155.095 170.593 155.197 171.302 155.197 172.114C155.197 172.926 155.095 173.64 154.889 174.256C154.693 174.863 154.409 175.372 154.035 175.782C153.671 176.184 153.228 176.487 152.705 176.692C152.192 176.898 151.618 177 150.983 177H147.427V167.228ZM150.983 175.362C151.674 175.362 152.22 175.162 152.621 174.76C153.032 174.35 153.237 173.724 153.237 172.884V171.344C153.237 170.504 153.032 169.884 152.621 169.482C152.22 169.072 151.674 168.866 150.983 168.866H149.275V175.362H150.983ZM162.704 177L161.92 174.508H158.448L157.678 177H155.802L159.078 167.228H161.374L164.622 177H162.704ZM160.212 168.908H160.142L158.896 172.926H161.472L160.212 168.908ZM168.982 168.866V177H167.134V168.866H164.362V167.228H171.754V168.866H168.982ZM172.793 177V175.516H174.081V168.712H172.793V167.228H177.231V168.712H175.929V175.516H177.231V177H172.793ZM182.955 177.168C182.311 177.168 181.727 177.061 181.205 176.846C180.682 176.632 180.234 176.31 179.861 175.88C179.497 175.451 179.212 174.924 179.007 174.298C178.801 173.673 178.699 172.945 178.699 172.114C178.699 171.293 178.801 170.57 179.007 169.944C179.212 169.31 179.497 168.778 179.861 168.348C180.234 167.919 180.682 167.597 181.205 167.382C181.727 167.168 182.311 167.06 182.955 167.06C183.599 167.06 184.182 167.168 184.705 167.382C185.227 167.597 185.675 167.919 186.049 168.348C186.422 168.778 186.707 169.31 186.903 169.944C187.108 170.57 187.211 171.293 187.211 172.114C187.211 172.945 187.108 173.673 186.903 174.298C186.707 174.924 186.422 175.451 186.049 175.88C185.675 176.31 185.227 176.632 184.705 176.846C184.182 177.061 183.599 177.168 182.955 177.168ZM182.955 175.53C183.655 175.53 184.21 175.297 184.621 174.83C185.041 174.364 185.251 173.71 185.251 172.87V171.358C185.251 170.518 185.041 169.865 184.621 169.398C184.21 168.932 183.655 168.698 182.955 168.698C182.255 168.698 181.695 168.932 181.275 169.398C180.864 169.865 180.659 170.518 180.659 171.358V172.87C180.659 173.71 180.864 174.364 181.275 174.83C181.695 175.297 182.255 175.53 182.955 175.53ZM191.886 171.988L190.878 169.958H190.836V177H189.086V167.228H191.116L194.056 172.24L195.064 174.27H195.106V167.228H196.856V177H194.826L191.886 171.988Z" fill="#41637D"/>
<rect x="222" y="123" width="217" height="17" fill="#EDEDED"/>
<rect x="222" y="123" width="165" height="17" fill="#39A4F5"/>
<rect x="222" y="123" width="47" height="17" fill="#1084DD"/>
<path d="M67.2331 136.404L66.4491 133.912H62.9771L62.2071 136.404H60.3311L63.6071 126.632H65.9031L69.1511 136.404H67.2331ZM64.7411 128.312H64.6711L63.4251 132.33H66.0011L64.7411 128.312ZM73.3914 131.392L72.3834 129.362H72.3414V136.404H70.5914V126.632H72.6214L75.5614 131.644L76.5694 133.674H76.6114V126.632H78.3614V136.404H76.3314L73.3914 131.392ZM86.7019 136.404L85.9179 133.912H82.4459L81.6759 136.404H79.7999L83.0759 126.632H85.3719L88.6199 136.404H86.7019ZM84.2099 128.312H84.1399L82.8939 132.33H85.4699L84.2099 128.312ZM90.0601 136.404V126.632H91.9081V134.766H95.7581V136.404H90.0601ZM98.5094 136.404V132.568L95.1634 126.632H97.2354L99.4894 130.762H99.5174L101.715 126.632H103.731L100.371 132.554V136.404H98.5094ZM107.522 136.572C106.682 136.572 105.968 136.422 105.38 136.124C104.801 135.825 104.302 135.433 103.882 134.948L105.128 133.744C105.464 134.136 105.837 134.434 106.248 134.64C106.668 134.845 107.13 134.948 107.634 134.948C108.203 134.948 108.633 134.826 108.922 134.584C109.211 134.332 109.356 133.996 109.356 133.576C109.356 133.249 109.263 132.983 109.076 132.778C108.889 132.572 108.539 132.423 108.026 132.33L107.102 132.19C105.151 131.882 104.176 130.934 104.176 129.348C104.176 128.909 104.255 128.512 104.414 128.158C104.582 127.803 104.82 127.5 105.128 127.248C105.436 126.996 105.805 126.804 106.234 126.674C106.673 126.534 107.167 126.464 107.718 126.464C108.455 126.464 109.099 126.585 109.65 126.828C110.201 127.07 110.672 127.43 111.064 127.906L109.804 129.096C109.561 128.797 109.267 128.554 108.922 128.368C108.577 128.181 108.143 128.088 107.62 128.088C107.088 128.088 106.687 128.19 106.416 128.396C106.155 128.592 106.024 128.872 106.024 129.236C106.024 129.609 106.131 129.884 106.346 130.062C106.561 130.239 106.906 130.37 107.382 130.454L108.292 130.622C109.281 130.799 110.009 131.116 110.476 131.574C110.952 132.022 111.19 132.652 111.19 133.464C111.19 133.93 111.106 134.355 110.938 134.738C110.779 135.111 110.541 135.438 110.224 135.718C109.916 135.988 109.533 136.198 109.076 136.348C108.628 136.497 108.11 136.572 107.522 136.572ZM113.043 136.404V126.632H119.483V128.27H114.891V130.636H118.951V132.274H114.891V134.766H119.483V136.404H113.043ZM126.594 136.404H124.746V126.632H129.156C129.604 126.632 130.005 126.702 130.36 126.842C130.714 126.982 131.013 127.187 131.256 127.458C131.508 127.719 131.699 128.036 131.83 128.41C131.97 128.783 132.04 129.198 132.04 129.656C132.04 130.328 131.886 130.906 131.578 131.392C131.279 131.877 130.826 132.222 130.22 132.428L132.222 136.404H130.164L128.344 132.638H126.594V136.404ZM128.974 131.084C129.328 131.084 129.608 130.99 129.814 130.804C130.019 130.608 130.122 130.332 130.122 129.978V129.334C130.122 128.979 130.019 128.708 129.814 128.522C129.608 128.335 129.328 128.242 128.974 128.242H126.594V131.084H128.974ZM134.043 136.404V126.632H140.483V128.27H135.891V130.636H139.951V132.274H135.891V134.766H140.483V136.404H134.043ZM137.445 125.988L136.367 125.456L137.697 122.838L139.209 123.594L137.445 125.988ZM145.475 136.572C144.635 136.572 143.921 136.422 143.333 136.124C142.754 135.825 142.255 135.433 141.835 134.948L143.081 133.744C143.417 134.136 143.79 134.434 144.201 134.64C144.621 134.845 145.083 134.948 145.587 134.948C146.156 134.948 146.586 134.826 146.875 134.584C147.164 134.332 147.309 133.996 147.309 133.576C147.309 133.249 147.216 132.983 147.029 132.778C146.842 132.572 146.492 132.423 145.979 132.33L145.055 132.19C143.104 131.882 142.129 130.934 142.129 129.348C142.129 128.909 142.208 128.512 142.367 128.158C142.535 127.803 142.773 127.5 143.081 127.248C143.389 126.996 143.758 126.804 144.187 126.674C144.626 126.534 145.12 126.464 145.671 126.464C146.408 126.464 147.052 126.585 147.603 126.828C148.154 127.07 148.625 127.43 149.017 127.906L147.757 129.096C147.514 128.797 147.22 128.554 146.875 128.368C146.53 128.181 146.096 128.088 145.573 128.088C145.041 128.088 144.64 128.19 144.369 128.396C144.108 128.592 143.977 128.872 143.977 129.236C143.977 129.609 144.084 129.884 144.299 130.062C144.514 130.239 144.859 130.37 145.335 130.454L146.245 130.622C147.234 130.799 147.962 131.116 148.429 131.574C148.905 132.022 149.143 132.652 149.143 133.464C149.143 133.93 149.059 134.355 148.891 134.738C148.732 135.111 148.494 135.438 148.177 135.718C147.869 135.988 147.486 136.198 147.029 136.348C146.581 136.497 146.063 136.572 145.475 136.572ZM152.746 126.632V132.638C152.746 133.403 152.89 133.977 153.18 134.36C153.478 134.742 153.978 134.934 154.678 134.934C155.378 134.934 155.872 134.742 156.162 134.36C156.46 133.977 156.61 133.403 156.61 132.638V126.632H158.43V132.4C158.43 133.118 158.36 133.739 158.22 134.262C158.089 134.784 157.874 135.218 157.576 135.564C157.277 135.909 156.885 136.166 156.4 136.334C155.924 136.492 155.345 136.572 154.664 136.572C153.973 136.572 153.39 136.492 152.914 136.334C152.447 136.166 152.064 135.909 151.766 135.564C151.467 135.218 151.252 134.784 151.122 134.262C150.991 133.739 150.926 133.118 150.926 132.4V126.632H152.746ZM160.662 136.404V126.632H162.51V134.766H166.36V136.404H160.662ZM170.773 128.27V136.404H168.925V128.27H166.153V126.632H173.545V128.27H170.773ZM180.19 136.404L179.406 133.912H175.934L175.164 136.404H173.288L176.564 126.632H178.86L182.108 136.404H180.19ZM177.698 128.312H177.628L176.382 132.33H178.958L177.698 128.312ZM186.468 128.27V136.404H184.62V128.27H181.848V126.632H189.24V128.27H186.468ZM193.627 136.572C192.787 136.572 192.073 136.422 191.485 136.124C190.907 135.825 190.407 135.433 189.987 134.948L191.233 133.744C191.569 134.136 191.943 134.434 192.353 134.64C192.773 134.845 193.235 134.948 193.739 134.948C194.309 134.948 194.738 134.826 195.027 134.584C195.317 134.332 195.461 133.996 195.461 133.576C195.461 133.249 195.368 132.983 195.181 132.778C194.995 132.572 194.645 132.423 194.131 132.33L193.207 132.19C191.257 131.882 190.281 130.934 190.281 129.348C190.281 128.909 190.361 128.512 190.519 128.158C190.687 127.803 190.925 127.5 191.233 127.248C191.541 126.996 191.91 126.804 192.339 126.674C192.778 126.534 193.273 126.464 193.823 126.464C194.561 126.464 195.205 126.585 195.755 126.828C196.306 127.07 196.777 127.43 197.169 127.906L195.909 129.096C195.667 128.797 195.373 128.554 195.027 128.368C194.682 128.181 194.248 128.088 193.725 128.088C193.193 128.088 192.792 128.19 192.521 128.396C192.26 128.592 192.129 128.872 192.129 129.236C192.129 129.609 192.237 129.884 192.451 130.062C192.666 130.239 193.011 130.37 193.487 130.454L194.397 130.622C195.387 130.799 196.115 131.116 196.581 131.574C197.057 132.022 197.295 132.652 197.295 133.464C197.295 133.93 197.211 134.355 197.043 134.738C196.885 135.111 196.647 135.438 196.329 135.718C196.021 135.988 195.639 136.198 195.181 136.348C194.733 136.497 194.215 136.572 193.627 136.572Z" fill="#41637D"/>
<line x1="222.635" y1="7.59867e-09" x2="222.635" y2="190" stroke="#41637D"/>
<line x1="331.066" y1="7.59867e-09" x2="331.066" y2="190" stroke="#41637D"/>
<line x1="439.5" y1="7.59867e-09" x2="439.5" y2="190" stroke="#41637D"/>
</svg>
