<svg width="409" height="215" viewBox="0 0 409 215" fill="none" xmlns="http://www.w3.org/2000/svg">
<path d="M169.557 212.144C169.021 212.144 168.557 212.048 168.165 211.856C167.773 211.656 167.449 211.372 167.193 211.004C166.937 210.636 166.745 210.184 166.617 209.648C166.497 209.112 166.437 208.5 166.437 207.812C166.437 207.132 166.497 206.524 166.617 205.988C166.745 205.444 166.937 204.988 167.193 204.62C167.449 204.252 167.773 203.972 168.165 203.78C168.557 203.58 169.021 203.48 169.557 203.48C170.621 203.48 171.405 203.86 171.909 204.62C172.421 205.38 172.677 206.444 172.677 207.812C172.677 209.18 172.421 210.244 171.909 211.004C171.405 211.764 170.621 212.144 169.557 212.144ZM169.557 210.812C170.093 210.812 170.465 210.612 170.673 210.212C170.889 209.804 170.997 209.256 170.997 208.568V207.056C170.997 206.368 170.889 205.824 170.673 205.424C170.465 205.016 170.093 204.812 169.557 204.812C169.021 204.812 168.645 205.016 168.429 205.424C168.221 205.824 168.117 206.368 168.117 207.056V208.568C168.117 209.256 168.221 209.804 168.429 210.212C168.645 210.612 169.021 210.812 169.557 210.812ZM175.312 212L181.12 203.624H182.512L176.704 212H175.312ZM175.888 208.232C175.208 208.232 174.688 208.032 174.328 207.632C173.976 207.224 173.8 206.632 173.8 205.856C173.8 205.08 173.976 204.492 174.328 204.092C174.688 203.684 175.208 203.48 175.888 203.48C176.568 203.48 177.084 203.684 177.436 204.092C177.788 204.492 177.964 205.08 177.964 205.856C177.964 206.632 177.788 207.224 177.436 207.632C177.084 208.032 176.568 208.232 175.888 208.232ZM175.888 207.32C176.384 207.32 176.632 206.94 176.632 206.18V205.532C176.632 204.772 176.384 204.392 175.888 204.392C175.392 204.392 175.144 204.772 175.144 205.532V206.18C175.144 206.94 175.392 207.32 175.888 207.32ZM181.936 212.144C181.264 212.144 180.748 211.944 180.388 211.544C180.036 211.136 179.86 210.544 179.86 209.768C179.86 208.992 180.036 208.404 180.388 208.004C180.748 207.596 181.264 207.392 181.936 207.392C182.616 207.392 183.132 207.596 183.484 208.004C183.844 208.404 184.024 208.992 184.024 209.768C184.024 210.544 183.844 211.136 183.484 211.544C183.132 211.944 182.616 212.144 181.936 212.144ZM181.936 211.232C182.432 211.232 182.68 210.852 182.68 210.092V209.444C182.68 208.684 182.432 208.304 181.936 208.304C181.44 208.304 181.192 208.684 181.192 209.444V210.092C181.192 210.852 181.44 211.232 181.936 211.232Z" fill="#41637D"/>
<path d="M277.225 204.992H273.457L273.265 207.8H273.349C273.437 207.624 273.533 207.46 273.637 207.308C273.741 207.156 273.861 207.028 273.997 206.924C274.133 206.82 274.289 206.74 274.465 206.684C274.649 206.62 274.869 206.588 275.125 206.588C275.485 206.588 275.821 206.648 276.133 206.768C276.445 206.888 276.713 207.064 276.937 207.296C277.169 207.52 277.349 207.796 277.477 208.124C277.613 208.452 277.681 208.824 277.681 209.24C277.681 209.664 277.613 210.052 277.477 210.404C277.341 210.756 277.141 211.064 276.877 211.328C276.613 211.584 276.289 211.784 275.905 211.928C275.521 212.072 275.081 212.144 274.585 212.144C274.201 212.144 273.857 212.1 273.553 212.012C273.249 211.932 272.981 211.82 272.749 211.676C272.517 211.532 272.317 211.368 272.149 211.184C271.981 210.992 271.833 210.792 271.705 210.584L272.857 209.696C272.953 209.856 273.053 210.008 273.157 210.152C273.261 210.288 273.381 210.408 273.517 210.512C273.661 210.616 273.817 210.7 273.985 210.764C274.161 210.82 274.365 210.848 274.597 210.848C275.069 210.848 275.425 210.716 275.665 210.452C275.913 210.188 276.037 209.828 276.037 209.372V209.276C276.037 208.844 275.913 208.504 275.665 208.256C275.417 208.008 275.073 207.884 274.633 207.884C274.289 207.884 274.009 207.952 273.793 208.088C273.577 208.216 273.405 208.356 273.277 208.508L271.981 208.328L272.293 203.624H277.225V204.992ZM281.84 212.144C281.304 212.144 280.84 212.048 280.448 211.856C280.056 211.656 279.732 211.372 279.476 211.004C279.22 210.636 279.028 210.184 278.9 209.648C278.78 209.112 278.72 208.5 278.72 207.812C278.72 207.132 278.78 206.524 278.9 205.988C279.028 205.444 279.22 204.988 279.476 204.62C279.732 204.252 280.056 203.972 280.448 203.78C280.84 203.58 281.304 203.48 281.84 203.48C282.904 203.48 283.688 203.86 284.192 204.62C284.704 205.38 284.96 206.444 284.96 207.812C284.96 209.18 284.704 210.244 284.192 211.004C283.688 211.764 282.904 212.144 281.84 212.144ZM281.84 210.812C282.376 210.812 282.748 210.612 282.956 210.212C283.172 209.804 283.28 209.256 283.28 208.568V207.056C283.28 206.368 283.172 205.824 282.956 205.424C282.748 205.016 282.376 204.812 281.84 204.812C281.304 204.812 280.928 205.016 280.712 205.424C280.504 205.824 280.4 206.368 280.4 207.056V208.568C280.4 209.256 280.504 209.804 280.712 210.212C280.928 210.612 281.304 210.812 281.84 210.812ZM287.596 212L293.404 203.624H294.796L288.988 212H287.596ZM288.172 208.232C287.492 208.232 286.972 208.032 286.612 207.632C286.26 207.224 286.084 206.632 286.084 205.856C286.084 205.08 286.26 204.492 286.612 204.092C286.972 203.684 287.492 203.48 288.172 203.48C288.852 203.48 289.368 203.684 289.72 204.092C290.072 204.492 290.248 205.08 290.248 205.856C290.248 206.632 290.072 207.224 289.72 207.632C289.368 208.032 288.852 208.232 288.172 208.232ZM288.172 207.32C288.668 207.32 288.916 206.94 288.916 206.18V205.532C288.916 204.772 288.668 204.392 288.172 204.392C287.676 204.392 287.428 204.772 287.428 205.532V206.18C287.428 206.94 287.676 207.32 288.172 207.32ZM294.22 212.144C293.548 212.144 293.032 211.944 292.672 211.544C292.32 211.136 292.144 210.544 292.144 209.768C292.144 208.992 292.32 208.404 292.672 208.004C293.032 207.596 293.548 207.392 294.22 207.392C294.9 207.392 295.416 207.596 295.768 208.004C296.128 208.404 296.308 208.992 296.308 209.768C296.308 210.544 296.128 211.136 295.768 211.544C295.416 211.944 294.9 212.144 294.22 212.144ZM294.22 211.232C294.716 211.232 294.964 210.852 294.964 210.092V209.444C294.964 208.684 294.716 208.304 294.22 208.304C293.724 208.304 293.476 208.684 293.476 209.444V210.092C293.476 210.852 293.724 211.232 294.22 211.232Z" fill="#41637D"/>
<path d="M376.539 212V210.716H378.843V204.764H378.735L376.911 206.924L375.927 206.096L378.003 203.624H380.391V210.716H382.311V212H376.539ZM386.243 212.144C385.707 212.144 385.243 212.048 384.851 211.856C384.459 211.656 384.135 211.372 383.879 211.004C383.623 210.636 383.431 210.184 383.303 209.648C383.183 209.112 383.123 208.5 383.123 207.812C383.123 207.132 383.183 206.524 383.303 205.988C383.431 205.444 383.623 204.988 383.879 204.62C384.135 204.252 384.459 203.972 384.851 203.78C385.243 203.58 385.707 203.48 386.243 203.48C387.307 203.48 388.091 203.86 388.595 204.62C389.107 205.38 389.363 206.444 389.363 207.812C389.363 209.18 389.107 210.244 388.595 211.004C388.091 211.764 387.307 212.144 386.243 212.144ZM386.243 210.812C386.779 210.812 387.151 210.612 387.359 210.212C387.575 209.804 387.683 209.256 387.683 208.568V207.056C387.683 206.368 387.575 205.824 387.359 205.424C387.151 205.016 386.779 204.812 386.243 204.812C385.707 204.812 385.331 205.016 385.115 205.424C384.907 205.824 384.803 206.368 384.803 207.056V208.568C384.803 209.256 384.907 209.804 385.115 210.212C385.331 210.612 385.707 210.812 386.243 210.812ZM393.438 212.144C392.902 212.144 392.438 212.048 392.046 211.856C391.654 211.656 391.33 211.372 391.074 211.004C390.818 210.636 390.626 210.184 390.498 209.648C390.378 209.112 390.318 208.5 390.318 207.812C390.318 207.132 390.378 206.524 390.498 205.988C390.626 205.444 390.818 204.988 391.074 204.62C391.33 204.252 391.654 203.972 392.046 203.78C392.438 203.58 392.902 203.48 393.438 203.48C394.502 203.48 395.286 203.86 395.79 204.62C396.302 205.38 396.558 206.444 396.558 207.812C396.558 209.18 396.302 210.244 395.79 211.004C395.286 211.764 394.502 212.144 393.438 212.144ZM393.438 210.812C393.974 210.812 394.346 210.612 394.554 210.212C394.77 209.804 394.878 209.256 394.878 208.568V207.056C394.878 206.368 394.77 205.824 394.554 205.424C394.346 205.016 393.974 204.812 393.438 204.812C392.902 204.812 392.526 205.016 392.31 205.424C392.102 205.824 391.998 206.368 391.998 207.056V208.568C391.998 209.256 392.102 209.804 392.31 210.212C392.526 210.612 392.902 210.812 393.438 210.812ZM399.193 212L405.001 203.624H406.393L400.585 212H399.193ZM399.769 208.232C399.089 208.232 398.569 208.032 398.209 207.632C397.857 207.224 397.681 206.632 397.681 205.856C397.681 205.08 397.857 204.492 398.209 204.092C398.569 203.684 399.089 203.48 399.769 203.48C400.449 203.48 400.965 203.684 401.317 204.092C401.669 204.492 401.845 205.08 401.845 205.856C401.845 206.632 401.669 207.224 401.317 207.632C400.965 208.032 400.449 208.232 399.769 208.232ZM399.769 207.32C400.265 207.32 400.513 206.94 400.513 206.18V205.532C400.513 204.772 400.265 204.392 399.769 204.392C399.273 204.392 399.025 204.772 399.025 205.532V206.18C399.025 206.94 399.273 207.32 399.769 207.32ZM405.817 212.144C405.145 212.144 404.629 211.944 404.269 211.544C403.917 211.136 403.741 210.544 403.741 209.768C403.741 208.992 403.917 208.404 404.269 208.004C404.629 207.596 405.145 207.392 405.817 207.392C406.497 207.392 407.013 207.596 407.365 208.004C407.725 208.404 407.905 208.992 407.905 209.768C407.905 210.544 407.725 211.136 407.365 211.544C407.013 211.944 406.497 212.144 405.817 212.144ZM405.817 211.232C406.313 211.232 406.561 210.852 406.561 210.092V209.444C406.561 208.684 406.313 208.304 405.817 208.304C405.321 208.304 405.073 208.684 405.073 209.444V210.092C405.073 210.852 405.321 211.232 405.817 211.232Z" fill="#41637D"/>
<line opacity="0.2" x1="197.32" y1="7.59868e-09" x2="197.32" y2="190" stroke="#41637D"/>
<line opacity="0.2" x1="305.756" y1="7.59868e-09" x2="305.756" y2="190" stroke="#41637D"/>
<line opacity="0.2" x1="219.01" y1="7.59868e-09" x2="219.01" y2="190" stroke="#41637D"/>
<line opacity="0.2" x1="327.441" y1="7.59868e-09" x2="327.441" y2="190" stroke="#41637D"/>
<line opacity="0.2" x1="240.695" y1="7.59868e-09" x2="240.695" y2="190" stroke="#41637D"/>
<line opacity="0.2" x1="349.125" y1="7.59868e-09" x2="349.125" y2="190" stroke="#41637D"/>
<line opacity="0.2" x1="262.381" y1="7.59868e-09" x2="262.381" y2="190" stroke="#41637D"/>
<line opacity="0.2" x1="370.811" y1="7.59868e-09" x2="370.811" y2="190" stroke="#41637D"/>
<rect x="175" width="217" height="17" fill="#EDEDED"/>
<rect x="175" width="72" height="17" fill="#39A4F5"/>
<rect x="178" width="31" height="17" fill="#1084DD"/>
<path d="M10.9254 4.624H13.9734C14.5174 4.624 15.0094 4.712 15.4494 4.888C15.8974 5.064 16.2774 5.328 16.5894 5.68C16.9094 6.024 17.1534 6.46 17.3214 6.988C17.4974 7.508 17.5854 8.116 17.5854 8.812C17.5854 9.508 17.4974 10.12 17.3214 10.648C17.1534 11.168 16.9094 11.604 16.5894 11.956C16.2774 12.3 15.8974 12.56 15.4494 12.736C15.0094 12.912 14.5174 13 13.9734 13H10.9254V4.624ZM13.9734 11.596C14.5654 11.596 15.0334 11.424 15.3774 11.08C15.7294 10.728 15.9054 10.192 15.9054 9.472V8.152C15.9054 7.432 15.7294 6.9 15.3774 6.556C15.0334 6.204 14.5654 6.028 13.9734 6.028H12.5094V11.596H13.9734ZM19.1988 13V4.624H24.7188V6.028H20.7828V8.056H24.2628V9.46H20.7828V11.596H24.7188V13H19.1988ZM28.9982 13.144C28.2782 13.144 27.6662 13.016 27.1622 12.76C26.6662 12.504 26.2382 12.168 25.8782 11.752L26.9462 10.72C27.2342 11.056 27.5542 11.312 27.9062 11.488C28.2662 11.664 28.6622 11.752 29.0942 11.752C29.5822 11.752 29.9502 11.648 30.1982 11.44C30.4462 11.224 30.5702 10.936 30.5702 10.576C30.5702 10.296 30.4902 10.068 30.3302 9.892C30.1702 9.716 29.8702 9.588 29.4302 9.508L28.6382 9.388C26.9662 9.124 26.1302 8.312 26.1302 6.952C26.1302 6.576 26.1982 6.236 26.3342 5.932C26.4782 5.628 26.6822 5.368 26.9462 5.152C27.2102 4.936 27.5262 4.772 27.8942 4.66C28.2702 4.54 28.6942 4.48 29.1662 4.48C29.7982 4.48 30.3502 4.584 30.8222 4.792C31.2942 5 31.6982 5.308 32.0342 5.716L30.9542 6.736C30.7462 6.48 30.4942 6.272 30.1982 6.112C29.9022 5.952 29.5302 5.872 29.0822 5.872C28.6262 5.872 28.2822 5.96 28.0502 6.136C27.8262 6.304 27.7142 6.544 27.7142 6.856C27.7142 7.176 27.8062 7.412 27.9902 7.564C28.1742 7.716 28.4702 7.828 28.8782 7.9L29.6582 8.044C30.5062 8.196 31.1302 8.468 31.5302 8.86C31.9382 9.244 32.1422 9.784 32.1422 10.48C32.1422 10.88 32.0702 11.244 31.9262 11.572C31.7902 11.892 31.5862 12.172 31.3142 12.412C31.0502 12.644 30.7222 12.824 30.3302 12.952C29.9462 13.08 29.5022 13.144 28.9982 13.144ZM33.3821 13V11.728H34.4861V5.896H33.3821V4.624H37.1861V5.896H36.0701V11.728H37.1861V13H33.3821ZM44.1443 11.704H44.0963C44.0243 12.112 43.7963 12.456 43.4123 12.736C43.0363 13.008 42.5323 13.144 41.9003 13.144C41.4043 13.144 40.9443 13.052 40.5203 12.868C40.1043 12.684 39.7403 12.412 39.4283 12.052C39.1243 11.684 38.8843 11.232 38.7083 10.696C38.5323 10.16 38.4443 9.54 38.4443 8.836C38.4443 8.132 38.5323 7.512 38.7083 6.976C38.8923 6.432 39.1483 5.976 39.4763 5.608C39.8043 5.24 40.1963 4.96 40.6523 4.768C41.1083 4.576 41.6163 4.48 42.1763 4.48C42.9283 4.48 43.5683 4.644 44.0963 4.972C44.6243 5.3 45.0403 5.772 45.3443 6.388L44.0603 7.144C43.9083 6.784 43.6803 6.484 43.3763 6.244C43.0803 6.004 42.6803 5.884 42.1763 5.884C41.5523 5.884 41.0523 6.076 40.6763 6.46C40.3083 6.836 40.1243 7.396 40.1243 8.14V9.484C40.1243 10.22 40.3123 10.78 40.6883 11.164C41.0643 11.548 41.5683 11.74 42.2003 11.74C42.4483 11.74 42.6803 11.712 42.8963 11.656C43.1123 11.592 43.3003 11.5 43.4603 11.38C43.6203 11.26 43.7483 11.112 43.8443 10.936C43.9403 10.76 43.9883 10.552 43.9883 10.312V9.772H42.3443V8.44H45.5123V13H44.1443V11.704ZM49.7473 8.704L48.8833 6.964H48.8473V13H47.3473V4.624H49.0873L51.6073 8.92L52.4713 10.66H52.5073V4.624H54.0073V13H52.2673L49.7473 8.704ZM58.8082 4.624H61.8562C62.4002 4.624 62.8922 4.712 63.3322 4.888C63.7802 5.064 64.1602 5.328 64.4722 5.68C64.7922 6.024 65.0362 6.46 65.2042 6.988C65.3802 7.508 65.4682 8.116 65.4682 8.812C65.4682 9.508 65.3802 10.12 65.2042 10.648C65.0362 11.168 64.7922 11.604 64.4722 11.956C64.1602 12.3 63.7802 12.56 63.3322 12.736C62.8922 12.912 62.4002 13 61.8562 13H58.8082V4.624ZM61.8562 11.596C62.4482 11.596 62.9162 11.424 63.2602 11.08C63.6122 10.728 63.7882 10.192 63.7882 9.472V8.152C63.7882 7.432 63.6122 6.9 63.2602 6.556C62.9162 6.204 62.4482 6.028 61.8562 6.028H60.3922V11.596H61.8562ZM68.5817 4.624V9.772C68.5817 10.428 68.7057 10.92 68.9537 11.248C69.2097 11.576 69.6377 11.74 70.2377 11.74C70.8377 11.74 71.2617 11.576 71.5097 11.248C71.7657 10.92 71.8937 10.428 71.8937 9.772V4.624H73.4537V9.568C73.4537 10.184 73.3937 10.716 73.2737 11.164C73.1617 11.612 72.9777 11.984 72.7217 12.28C72.4657 12.576 72.1297 12.796 71.7137 12.94C71.3057 13.076 70.8097 13.144 70.2257 13.144C69.6337 13.144 69.1337 13.076 68.7257 12.94C68.3257 12.796 67.9977 12.576 67.7417 12.28C67.4857 11.984 67.3017 11.612 67.1897 11.164C67.0777 10.716 67.0217 10.184 67.0217 9.568V4.624H68.5817ZM78.2028 13V4.624H81.9708C82.3548 4.624 82.6988 4.688 83.0028 4.816C83.3148 4.936 83.5788 5.112 83.7948 5.344C84.0108 5.568 84.1748 5.84 84.2868 6.16C84.3988 6.48 84.4548 6.832 84.4548 7.216C84.4548 7.608 84.3988 7.964 84.2868 8.284C84.1748 8.596 84.0108 8.868 83.7948 9.1C83.5788 9.324 83.3148 9.5 83.0028 9.628C82.6988 9.748 82.3548 9.808 81.9708 9.808H79.7868V13H78.2028ZM79.7868 8.44H81.8268C82.1308 8.44 82.3708 8.36 82.5468 8.2C82.7228 8.032 82.8108 7.796 82.8108 7.492V6.94C82.8108 6.636 82.7228 6.404 82.5468 6.244C82.3708 6.084 82.1308 6.004 81.8268 6.004H79.7868V8.44ZM87.4743 13H85.8903V4.624H89.6703C90.0543 4.624 90.3983 4.684 90.7023 4.804C91.0063 4.924 91.2623 5.1 91.4703 5.332C91.6863 5.556 91.8503 5.828 91.9622 6.148C92.0823 6.468 92.1423 6.824 92.1423 7.216C92.1423 7.792 92.0103 8.288 91.7463 8.704C91.4903 9.12 91.1023 9.416 90.5823 9.592L92.2983 13H90.5343L88.9743 9.772H87.4743V13ZM89.5143 8.44C89.8183 8.44 90.0583 8.36 90.2343 8.2C90.4103 8.032 90.4983 7.796 90.4983 7.492V6.94C90.4983 6.636 90.4103 6.404 90.2343 6.244C90.0583 6.084 89.8183 6.004 89.5143 6.004H87.4743V8.44H89.5143ZM97.0298 13.144C96.4778 13.144 95.9778 13.052 95.5298 12.868C95.0818 12.684 94.6978 12.408 94.3778 12.04C94.0658 11.672 93.8218 11.22 93.6458 10.684C93.4698 10.148 93.3818 9.524 93.3818 8.812C93.3818 8.108 93.4698 7.488 93.6458 6.952C93.8218 6.408 94.0658 5.952 94.3778 5.584C94.6978 5.216 95.0818 4.94 95.5298 4.756C95.9778 4.572 96.4778 4.48 97.0298 4.48C97.5818 4.48 98.0818 4.572 98.5298 4.756C98.9778 4.94 99.3618 5.216 99.6818 5.584C100.002 5.952 100.246 6.408 100.414 6.952C100.59 7.488 100.678 8.108 100.678 8.812C100.678 9.524 100.59 10.148 100.414 10.684C100.246 11.22 100.002 11.672 99.6818 12.04C99.3618 12.408 98.9778 12.684 98.5298 12.868C98.0818 13.052 97.5818 13.144 97.0298 13.144ZM97.0298 11.74C97.6298 11.74 98.1058 11.54 98.4578 11.14C98.8178 10.74 98.9978 10.18 98.9978 9.46V8.164C98.9978 7.444 98.8178 6.884 98.4578 6.484C98.1058 6.084 97.6298 5.884 97.0298 5.884C96.4298 5.884 95.9498 6.084 95.5898 6.484C95.2378 6.884 95.0618 7.444 95.0618 8.164V9.46C95.0618 10.18 95.2378 10.74 95.5898 11.14C95.9498 11.54 96.4298 11.74 97.0298 11.74ZM105.28 6.028V13H103.696V6.028H101.32V4.624H107.656V6.028H105.28ZM111.948 13.144C111.396 13.144 110.896 13.052 110.448 12.868C110 12.684 109.616 12.408 109.296 12.04C108.984 11.672 108.74 11.22 108.564 10.684C108.388 10.148 108.3 9.524 108.3 8.812C108.3 8.108 108.388 7.488 108.564 6.952C108.74 6.408 108.984 5.952 109.296 5.584C109.616 5.216 110 4.94 110.448 4.756C110.896 4.572 111.396 4.48 111.948 4.48C112.5 4.48 113 4.572 113.448 4.756C113.896 4.94 114.28 5.216 114.6 5.584C114.92 5.952 115.164 6.408 115.332 6.952C115.508 7.488 115.596 8.108 115.596 8.812C115.596 9.524 115.508 10.148 115.332 10.684C115.164 11.22 114.92 11.672 114.6 12.04C114.28 12.408 113.896 12.684 113.448 12.868C113 13.052 112.5 13.144 111.948 13.144ZM111.948 11.74C112.548 11.74 113.024 11.54 113.376 11.14C113.736 10.74 113.916 10.18 113.916 9.46V8.164C113.916 7.444 113.736 6.884 113.376 6.484C113.024 6.084 112.548 5.884 111.948 5.884C111.348 5.884 110.868 6.084 110.508 6.484C110.156 6.884 109.98 7.444 109.98 8.164V9.46C109.98 10.18 110.156 10.74 110.508 11.14C110.868 11.54 111.348 11.74 111.948 11.74ZM120.455 13.144C119.903 13.144 119.403 13.056 118.955 12.88C118.515 12.696 118.135 12.424 117.815 12.064C117.503 11.704 117.263 11.26 117.095 10.732C116.927 10.196 116.843 9.576 116.843 8.872C116.843 8.168 116.927 7.544 117.095 7C117.263 6.448 117.503 5.988 117.815 5.62C118.135 5.244 118.515 4.96 118.955 4.768C119.403 4.576 119.903 4.48 120.455 4.48C121.207 4.48 121.831 4.64 122.327 4.96C122.823 5.28 123.219 5.764 123.515 6.412L122.159 7.132C122.039 6.756 121.843 6.456 121.571 6.232C121.299 6 120.927 5.884 120.455 5.884C119.863 5.884 119.391 6.084 119.039 6.484C118.695 6.884 118.523 7.444 118.523 8.164V9.484C118.523 10.212 118.695 10.772 119.039 11.164C119.391 11.548 119.863 11.74 120.455 11.74C120.927 11.74 121.311 11.612 121.607 11.356C121.911 11.1 122.131 10.784 122.267 10.408L123.551 11.164C123.247 11.788 122.843 12.276 122.339 12.628C121.835 12.972 121.207 13.144 120.455 13.144ZM128.038 13.144C127.486 13.144 126.986 13.052 126.538 12.868C126.09 12.684 125.706 12.408 125.386 12.04C125.074 11.672 124.83 11.22 124.654 10.684C124.478 10.148 124.39 9.524 124.39 8.812C124.39 8.108 124.478 7.488 124.654 6.952C124.83 6.408 125.074 5.952 125.386 5.584C125.706 5.216 126.09 4.94 126.538 4.756C126.986 4.572 127.486 4.48 128.038 4.48C128.59 4.48 129.09 4.572 129.538 4.756C129.986 4.94 130.37 5.216 130.69 5.584C131.01 5.952 131.254 6.408 131.422 6.952C131.598 7.488 131.686 8.108 131.686 8.812C131.686 9.524 131.598 10.148 131.422 10.684C131.254 11.22 131.01 11.672 130.69 12.04C130.37 12.408 129.986 12.684 129.538 12.868C129.09 13.052 128.59 13.144 128.038 13.144ZM128.038 11.74C128.638 11.74 129.114 11.54 129.466 11.14C129.826 10.74 130.006 10.18 130.006 9.46V8.164C130.006 7.444 129.826 6.884 129.466 6.484C129.114 6.084 128.638 5.884 128.038 5.884C127.438 5.884 126.958 6.084 126.598 6.484C126.246 6.884 126.07 7.444 126.07 8.164V9.46C126.07 10.18 126.246 10.74 126.598 11.14C126.958 11.54 127.438 11.74 128.038 11.74ZM133.293 13V4.624H134.877V11.596H138.177V13H133.293ZM139.55 13V4.624H145.07V6.028H141.134V8.056H144.614V9.46H141.134V11.596H145.07V13H139.55ZM145.822 14.812L149.266 4.12H150.55L147.106 14.812H145.822ZM66.9469 29.144C66.3949 29.144 65.8949 29.056 65.4469 28.88C65.0069 28.696 64.6269 28.424 64.3069 28.064C63.9949 27.704 63.7549 27.26 63.5869 26.732C63.4189 26.196 63.3349 25.576 63.3349 24.872C63.3349 24.168 63.4189 23.544 63.5869 23C63.7549 22.448 63.9949 21.988 64.3069 21.62C64.6269 21.244 65.0069 20.96 65.4469 20.768C65.8949 20.576 66.3949 20.48 66.9469 20.48C67.6989 20.48 68.3229 20.64 68.8189 20.96C69.3149 21.28 69.7109 21.764 70.0069 22.412L68.6509 23.132C68.5309 22.756 68.3349 22.456 68.0629 22.232C67.7909 22 67.4189 21.884 66.9469 21.884C66.3549 21.884 65.8829 22.084 65.5309 22.484C65.1869 22.884 65.0149 23.444 65.0149 24.164V25.484C65.0149 26.212 65.1869 26.772 65.5309 27.164C65.8829 27.548 66.3549 27.74 66.9469 27.74C67.4189 27.74 67.8029 27.612 68.0989 27.356C68.4029 27.1 68.6229 26.784 68.7589 26.408L70.0429 27.164C69.7389 27.788 69.3349 28.276 68.8309 28.628C68.3269 28.972 67.6989 29.144 66.9469 29.144ZM76.4702 25.46H72.9782V29H71.3942V20.624H72.9782V24.056H76.4702V20.624H78.0542V29H76.4702V25.46ZM83.3072 29.144C82.7552 29.144 82.2552 29.052 81.8072 28.868C81.3592 28.684 80.9752 28.408 80.6552 28.04C80.3432 27.672 80.0992 27.22 79.9232 26.684C79.7472 26.148 79.6592 25.524 79.6592 24.812C79.6592 24.108 79.7472 23.488 79.9232 22.952C80.0992 22.408 80.3432 21.952 80.6552 21.584C80.9752 21.216 81.3592 20.94 81.8072 20.756C82.2552 20.572 82.7552 20.48 83.3072 20.48C83.8592 20.48 84.3592 20.572 84.8072 20.756C85.2552 20.94 85.6392 21.216 85.9592 21.584C86.2792 21.952 86.5232 22.408 86.6912 22.952C86.8672 23.488 86.9552 24.108 86.9552 24.812C86.9552 25.524 86.8672 26.148 86.6912 26.684C86.5232 27.22 86.2792 27.672 85.9592 28.04C85.6392 28.408 85.2552 28.684 84.8072 28.868C84.3592 29.052 83.8592 29.144 83.3072 29.144ZM83.3072 27.74C83.9072 27.74 84.3832 27.54 84.7352 27.14C85.0952 26.74 85.2752 26.18 85.2752 25.46V24.164C85.2752 23.444 85.0952 22.884 84.7352 22.484C84.3832 22.084 83.9072 21.884 83.3072 21.884C82.7072 21.884 82.2272 22.084 81.8672 22.484C81.5152 22.884 81.3392 23.444 81.3392 24.164V25.46C81.3392 26.18 81.5152 26.74 81.8672 27.14C82.2272 27.54 82.7072 27.74 83.3072 27.74ZM88.2141 29V27.728H89.3181V21.896H88.2141V20.624H92.0181V21.896H90.9021V27.728H92.0181V29H88.2141ZM100.296 29H98.4483L96.5283 25.784H96.4923L94.5963 29H92.8683L95.5803 24.704L92.9883 20.624H94.8363L96.6123 23.6H96.6483L98.4483 20.624H100.176L97.5603 24.704L100.296 29ZM107.624 22.028V29H106.04V22.028H103.664V20.624H110V22.028H107.624ZM111.297 29V20.624H116.817V22.028H112.881V24.056H116.361V25.46H112.881V27.596H116.817V29H111.297ZM121.744 29.144C121.192 29.144 120.692 29.056 120.244 28.88C119.804 28.696 119.424 28.424 119.104 28.064C118.792 27.704 118.552 27.26 118.384 26.732C118.216 26.196 118.132 25.576 118.132 24.872C118.132 24.168 118.216 23.544 118.384 23C118.552 22.448 118.792 21.988 119.104 21.62C119.424 21.244 119.804 20.96 120.244 20.768C120.692 20.576 121.192 20.48 121.744 20.48C122.496 20.48 123.12 20.64 123.616 20.96C124.112 21.28 124.508 21.764 124.804 22.412L123.448 23.132C123.328 22.756 123.132 22.456 122.86 22.232C122.588 22 122.216 21.884 121.744 21.884C121.152 21.884 120.68 22.084 120.328 22.484C119.984 22.884 119.812 23.444 119.812 24.164V25.484C119.812 26.212 119.984 26.772 120.328 27.164C120.68 27.548 121.152 27.74 121.744 27.74C122.216 27.74 122.6 27.612 122.896 27.356C123.2 27.1 123.42 26.784 123.556 26.408L124.84 27.164C124.536 27.788 124.132 28.276 123.628 28.628C123.124 28.972 122.496 29.144 121.744 29.144ZM131.267 25.46H127.775V29H126.191V20.624H127.775V24.056H131.267V20.624H132.851V29H131.267V25.46ZM137.216 24.704L136.352 22.964H136.316V29H134.816V20.624H136.556L139.076 24.92L139.94 26.66H139.976V20.624H141.476V29H139.736L137.216 24.704ZM146.729 29.144C146.177 29.144 145.677 29.052 145.229 28.868C144.781 28.684 144.397 28.408 144.077 28.04C143.765 27.672 143.521 27.22 143.345 26.684C143.169 26.148 143.081 25.524 143.081 24.812C143.081 24.108 143.169 23.488 143.345 22.952C143.521 22.408 143.765 21.952 144.077 21.584C144.397 21.216 144.781 20.94 145.229 20.756C145.677 20.572 146.177 20.48 146.729 20.48C147.281 20.48 147.781 20.572 148.229 20.756C148.677 20.94 149.061 21.216 149.381 21.584C149.701 21.952 149.945 22.408 150.113 22.952C150.289 23.488 150.377 24.108 150.377 24.812C150.377 25.524 150.289 26.148 150.113 26.684C149.945 27.22 149.701 27.672 149.381 28.04C149.061 28.408 148.677 28.684 148.229 28.868C147.781 29.052 147.281 29.144 146.729 29.144ZM146.729 27.74C147.329 27.74 147.805 27.54 148.157 27.14C148.517 26.74 148.697 26.18 148.697 25.46V24.164C148.697 23.444 148.517 22.884 148.157 22.484C147.805 22.084 147.329 21.884 146.729 21.884C146.129 21.884 145.649 22.084 145.289 22.484C144.937 22.884 144.761 23.444 144.761 24.164V25.46C144.761 26.18 144.937 26.74 145.289 27.14C145.649 27.54 146.129 27.74 146.729 27.74Z" fill="#41637D"/>
<rect x="175" y="42" width="217" height="17" fill="#EDEDED"/>
<rect x="175" y="41.9995" width="52" height="17" fill="#39A4F5"/>
<rect x="175" y="41.9995" width="28" height="17" fill="#1084DD"/>
<path d="M32.6871 47V38.624H38.2071V40.028H34.2711V42.056H37.7511V43.46H34.2711V45.596H38.2071V47H32.6871ZM46.5424 47H44.6944L42.7744 43.784H42.7384L40.8424 47H39.1144L41.8264 42.704L39.2344 38.624H41.0824L42.8584 41.6H42.8944L44.6944 38.624H46.4224L43.8064 42.704L46.5424 47ZM51.0337 40.028V47H49.4497V40.028H47.0737V38.624H53.4097V40.028H51.0337ZM56.2907 47H54.7067V38.624H58.4867C58.8707 38.624 59.2147 38.684 59.5187 38.804C59.8227 38.924 60.0787 39.1 60.2867 39.332C60.5027 39.556 60.6667 39.828 60.7787 40.148C60.8987 40.468 60.9587 40.824 60.9587 41.216C60.9587 41.792 60.8267 42.288 60.5627 42.704C60.3067 43.12 59.9187 43.416 59.3987 43.592L61.1147 47H59.3507L57.7907 43.772H56.2907V47ZM58.3307 42.44C58.6347 42.44 58.8747 42.36 59.0507 42.2C59.2267 42.032 59.3147 41.796 59.3147 41.492V40.94C59.3147 40.636 59.2267 40.404 59.0507 40.244C58.8747 40.084 58.6347 40.004 58.3307 40.004H56.2907V42.44H58.3307ZM67.8594 47L67.1874 44.864H64.2114L63.5514 47H61.9434L64.7514 38.624H66.7194L69.5034 47H67.8594ZM65.7234 40.064H65.6634L64.5954 43.508H66.8034L65.7234 40.064ZM70.3899 47V45.728H71.4939V39.896H70.3899V38.624H74.1939V39.896H73.0779V45.728H74.1939V47H70.3899ZM79.0415 40.028V47H77.4575V40.028H75.0815V38.624H81.4175V40.028H79.0415ZM85.5504 47V38.624H87.1344V45.596H90.4344V47H85.5504ZM97.2032 47L96.5312 44.864H93.5552L92.8952 47H91.2872L94.0952 38.624H96.0632L98.8472 47H97.2032ZM95.0672 40.064H95.0072L93.9392 43.508H96.1472L95.0672 40.064ZM100.082 38.624H103.958C104.302 38.624 104.61 38.676 104.882 38.78C105.162 38.884 105.398 39.028 105.59 39.212C105.782 39.396 105.926 39.624 106.022 39.896C106.126 40.16 106.178 40.452 106.178 40.772C106.178 41.092 106.134 41.364 106.046 41.588C105.966 41.804 105.854 41.984 105.71 42.128C105.574 42.272 105.414 42.38 105.23 42.452C105.054 42.524 104.87 42.564 104.678 42.572V42.644C104.862 42.644 105.058 42.68 105.266 42.752C105.482 42.824 105.678 42.94 105.854 43.1C106.038 43.252 106.19 43.452 106.31 43.7C106.43 43.94 106.49 44.24 106.49 44.6C106.49 44.936 106.434 45.252 106.322 45.548C106.218 45.836 106.07 46.088 105.878 46.304C105.686 46.52 105.458 46.692 105.194 46.82C104.93 46.94 104.642 47 104.33 47H100.082V38.624ZM101.666 45.656H103.874C104.178 45.656 104.414 45.58 104.582 45.428C104.75 45.268 104.834 45.04 104.834 44.744V44.336C104.834 44.04 104.75 43.812 104.582 43.652C104.414 43.492 104.178 43.412 103.874 43.412H101.666V45.656ZM101.666 42.116H103.622C103.91 42.116 104.134 42.04 104.294 41.888C104.454 41.728 104.534 41.508 104.534 41.228V40.856C104.534 40.576 104.454 40.36 104.294 40.208C104.134 40.048 103.91 39.968 103.622 39.968H101.666V42.116ZM111.327 47.144C110.775 47.144 110.275 47.052 109.827 46.868C109.379 46.684 108.995 46.408 108.675 46.04C108.363 45.672 108.119 45.22 107.943 44.684C107.767 44.148 107.679 43.524 107.679 42.812C107.679 42.108 107.767 41.488 107.943 40.952C108.119 40.408 108.363 39.952 108.675 39.584C108.995 39.216 109.379 38.94 109.827 38.756C110.275 38.572 110.775 38.48 111.327 38.48C111.879 38.48 112.379 38.572 112.827 38.756C113.275 38.94 113.659 39.216 113.979 39.584C114.299 39.952 114.543 40.408 114.711 40.952C114.887 41.488 114.975 42.108 114.975 42.812C114.975 43.524 114.887 44.148 114.711 44.684C114.543 45.22 114.299 45.672 113.979 46.04C113.659 46.408 113.275 46.684 112.827 46.868C112.379 47.052 111.879 47.144 111.327 47.144ZM111.327 45.74C111.927 45.74 112.403 45.54 112.755 45.14C113.115 44.74 113.295 44.18 113.295 43.46V42.164C113.295 41.444 113.115 40.884 112.755 40.484C112.403 40.084 111.927 39.884 111.327 39.884C110.727 39.884 110.247 40.084 109.887 40.484C109.535 40.884 109.359 41.444 109.359 42.164V43.46C109.359 44.18 109.535 44.74 109.887 45.14C110.247 45.54 110.727 45.74 111.327 45.74ZM118.494 48.812L121.938 38.12H123.222L119.778 48.812H118.494ZM129.076 47H127.492V38.624H131.272C131.656 38.624 132 38.684 132.304 38.804C132.608 38.924 132.864 39.1 133.072 39.332C133.288 39.556 133.452 39.828 133.564 40.148C133.684 40.468 133.744 40.824 133.744 41.216C133.744 41.792 133.612 42.288 133.348 42.704C133.092 43.12 132.704 43.416 132.184 43.592L133.9 47H132.136L130.576 43.772H129.076V47ZM131.116 42.44C131.42 42.44 131.66 42.36 131.836 42.2C132.012 42.032 132.1 41.796 132.1 41.492V40.94C132.1 40.636 132.012 40.404 131.836 40.244C131.66 40.084 131.42 40.004 131.116 40.004H129.076V42.44H131.116ZM140.028 46.232C139.908 46.336 139.772 46.444 139.62 46.556C139.468 46.66 139.292 46.756 139.092 46.844C138.9 46.932 138.68 47.004 138.432 47.06C138.192 47.116 137.92 47.144 137.616 47.144C137.168 47.144 136.768 47.084 136.416 46.964C136.072 46.844 135.784 46.68 135.552 46.472C135.32 46.264 135.144 46.02 135.024 45.74C134.904 45.452 134.844 45.144 134.844 44.816C134.844 44.52 134.888 44.26 134.976 44.036C135.064 43.804 135.184 43.596 135.336 43.412C135.488 43.22 135.668 43.052 135.876 42.908C136.084 42.756 136.304 42.612 136.536 42.476C136.288 42.196 136.068 41.892 135.876 41.564C135.692 41.228 135.6 40.868 135.6 40.484C135.6 40.212 135.656 39.956 135.768 39.716C135.88 39.468 136.04 39.252 136.248 39.068C136.464 38.884 136.72 38.74 137.016 38.636C137.312 38.532 137.644 38.48 138.012 38.48C138.34 38.48 138.644 38.524 138.924 38.612C139.204 38.7 139.444 38.824 139.644 38.984C139.852 39.144 140.012 39.34 140.124 39.572C140.244 39.804 140.304 40.068 140.304 40.364C140.304 40.628 140.256 40.872 140.16 41.096C140.072 41.312 139.948 41.512 139.788 41.696C139.628 41.872 139.444 42.04 139.236 42.2C139.028 42.352 138.804 42.496 138.564 42.632L140.028 44.216C140.14 43.944 140.224 43.656 140.28 43.352C140.344 43.048 140.384 42.744 140.4 42.44H142.284V43.724H141.504C141.384 44.268 141.2 44.764 140.952 45.212L142.608 47H140.724L140.028 46.232ZM137.964 39.668C137.708 39.668 137.496 39.744 137.328 39.896C137.16 40.04 137.076 40.236 137.076 40.484V40.568C137.076 40.752 137.132 40.936 137.244 41.12C137.364 41.296 137.548 41.524 137.796 41.804C138.1 41.62 138.348 41.428 138.54 41.228C138.74 41.028 138.84 40.796 138.84 40.532V40.46C138.84 40.204 138.752 40.008 138.576 39.872C138.408 39.736 138.204 39.668 137.964 39.668ZM137.82 45.86C138.108 45.86 138.368 45.816 138.6 45.728C138.832 45.64 139.036 45.52 139.212 45.368L137.304 43.304C137.024 43.472 136.804 43.652 136.644 43.844C136.492 44.028 136.416 44.264 136.416 44.552V44.684C136.416 45.036 136.536 45.32 136.776 45.536C137.016 45.752 137.364 45.86 137.82 45.86ZM143.711 38.624H146.759C147.303 38.624 147.795 38.712 148.235 38.888C148.683 39.064 149.063 39.328 149.375 39.68C149.695 40.024 149.939 40.46 150.107 40.988C150.283 41.508 150.371 42.116 150.371 42.812C150.371 43.508 150.283 44.12 150.107 44.648C149.939 45.168 149.695 45.604 149.375 45.956C149.063 46.3 148.683 46.56 148.235 46.736C147.795 46.912 147.303 47 146.759 47H143.711V38.624ZM146.759 45.596C147.351 45.596 147.819 45.424 148.163 45.08C148.515 44.728 148.691 44.192 148.691 43.472V42.152C148.691 41.432 148.515 40.9 148.163 40.556C147.819 40.204 147.351 40.028 146.759 40.028H145.295V45.596H146.759ZM34.5405 64.812L37.9845 54.12H39.2685L35.8245 64.812H34.5405ZM43.5387 63V54.624H49.0587V56.028H45.1227V58.056H48.6027V59.46H45.1227V61.596H49.0587V63H43.5387ZM57.394 63H55.546L53.626 59.784H53.59L51.694 63H49.966L52.678 58.704L50.086 54.624H51.934L53.71 57.6H53.746L55.546 54.624H57.274L54.658 58.704L57.394 63ZM61.8853 56.028V63H60.3013V56.028H57.9253V54.624H64.2613V56.028H61.8853ZM67.1422 63H65.5582V54.624H69.3382C69.7222 54.624 70.0662 54.684 70.3702 54.804C70.6742 54.924 70.9302 55.1 71.1382 55.332C71.3542 55.556 71.5182 55.828 71.6302 56.148C71.7502 56.468 71.8102 56.824 71.8102 57.216C71.8102 57.792 71.6782 58.288 71.4142 58.704C71.1582 59.12 70.7702 59.416 70.2502 59.592L71.9662 63H70.2022L68.6422 59.772H67.1422V63ZM69.1822 58.44C69.4862 58.44 69.7262 58.36 69.9022 58.2C70.0782 58.032 70.1662 57.796 70.1662 57.492V56.94C70.1662 56.636 70.0782 56.404 69.9022 56.244C69.7262 56.084 69.4862 56.004 69.1822 56.004H67.1422V58.44H69.1822ZM78.711 63L78.039 60.864H75.063L74.403 63H72.795L75.603 54.624H77.571L80.355 63H78.711ZM76.575 56.064H76.515L75.447 59.508H77.655L76.575 56.064ZM84.5251 63.144C83.9731 63.144 83.4731 63.056 83.0251 62.88C82.5851 62.696 82.2051 62.424 81.8851 62.064C81.5731 61.704 81.3331 61.26 81.1651 60.732C80.9971 60.196 80.9131 59.576 80.9131 58.872C80.9131 58.168 80.9971 57.544 81.1651 57C81.3331 56.448 81.5731 55.988 81.8851 55.62C82.2051 55.244 82.5851 54.96 83.0251 54.768C83.4731 54.576 83.9731 54.48 84.5251 54.48C85.2771 54.48 85.9011 54.64 86.3971 54.96C86.8931 55.28 87.2891 55.764 87.5851 56.412L86.2291 57.132C86.1091 56.756 85.9131 56.456 85.6411 56.232C85.3691 56 84.9971 55.884 84.5251 55.884C83.9331 55.884 83.4611 56.084 83.1091 56.484C82.7651 56.884 82.5931 57.444 82.5931 58.164V59.484C82.5931 60.212 82.7651 60.772 83.1091 61.164C83.4611 61.548 83.9331 61.74 84.5251 61.74C84.9971 61.74 85.3811 61.612 85.6771 61.356C85.9811 61.1 86.2011 60.784 86.3371 60.408L87.6211 61.164C87.3171 61.788 86.9131 62.276 86.4091 62.628C85.9051 62.972 85.2771 63.144 84.5251 63.144ZM92.2603 56.028V63H90.6763V56.028H88.3003V54.624H94.6363V56.028H92.2603ZM95.5266 63V61.728H96.6306V55.896H95.5266V54.624H99.3306V55.896H98.2146V61.728H99.3306V63H95.5266ZM104.237 63.144C103.685 63.144 103.185 63.052 102.737 62.868C102.289 62.684 101.905 62.408 101.585 62.04C101.273 61.672 101.029 61.22 100.853 60.684C100.677 60.148 100.589 59.524 100.589 58.812C100.589 58.108 100.677 57.488 100.853 56.952C101.029 56.408 101.273 55.952 101.585 55.584C101.905 55.216 102.289 54.94 102.737 54.756C103.185 54.572 103.685 54.48 104.237 54.48C104.789 54.48 105.289 54.572 105.737 54.756C106.185 54.94 106.569 55.216 106.889 55.584C107.209 55.952 107.453 56.408 107.621 56.952C107.797 57.488 107.885 58.108 107.885 58.812C107.885 59.524 107.797 60.148 107.621 60.684C107.453 61.22 107.209 61.672 106.889 62.04C106.569 62.408 106.185 62.684 105.737 62.868C105.289 63.052 104.789 63.144 104.237 63.144ZM104.237 61.74C104.837 61.74 105.313 61.54 105.665 61.14C106.025 60.74 106.205 60.18 106.205 59.46V58.164C106.205 57.444 106.025 56.884 105.665 56.484C105.313 56.084 104.837 55.884 104.237 55.884C103.637 55.884 103.157 56.084 102.797 56.484C102.445 56.884 102.269 57.444 102.269 58.164V59.46C102.269 60.18 102.445 60.74 102.797 61.14C103.157 61.54 103.637 61.74 104.237 61.74ZM111.892 58.704L111.028 56.964H110.992V63H109.492V54.624H111.232L113.752 58.92L114.616 60.66H114.652V54.624H116.152V63H114.412L111.892 58.704ZM120.953 63V54.624H122.537V61.596H125.837V63H120.953ZM132.605 63L131.934 60.864H128.958L128.298 63H126.69L129.498 54.624H131.466L134.25 63H132.605ZM130.47 56.064H130.41L129.342 59.508H131.55L130.47 56.064ZM135.484 54.624H139.36C139.704 54.624 140.012 54.676 140.284 54.78C140.564 54.884 140.8 55.028 140.992 55.212C141.184 55.396 141.328 55.624 141.424 55.896C141.528 56.16 141.58 56.452 141.58 56.772C141.58 57.092 141.536 57.364 141.448 57.588C141.368 57.804 141.256 57.984 141.112 58.128C140.976 58.272 140.816 58.38 140.632 58.452C140.456 58.524 140.272 58.564 140.08 58.572V58.644C140.264 58.644 140.46 58.68 140.668 58.752C140.884 58.824 141.08 58.94 141.256 59.1C141.44 59.252 141.592 59.452 141.712 59.7C141.832 59.94 141.892 60.24 141.892 60.6C141.892 60.936 141.836 61.252 141.724 61.548C141.62 61.836 141.472 62.088 141.28 62.304C141.088 62.52 140.86 62.692 140.596 62.82C140.332 62.94 140.044 63 139.732 63H135.484V54.624ZM137.068 61.656H139.276C139.58 61.656 139.816 61.58 139.984 61.428C140.152 61.268 140.236 61.04 140.236 60.744V60.336C140.236 60.04 140.152 59.812 139.984 59.652C139.816 59.492 139.58 59.412 139.276 59.412H137.068V61.656ZM137.068 58.116H139.024C139.312 58.116 139.536 58.04 139.696 57.888C139.856 57.728 139.936 57.508 139.936 57.228V56.856C139.936 56.576 139.856 56.36 139.696 56.208C139.536 56.048 139.312 55.968 139.024 55.968H137.068V58.116ZM146.729 63.144C146.177 63.144 145.677 63.052 145.229 62.868C144.781 62.684 144.397 62.408 144.077 62.04C143.765 61.672 143.521 61.22 143.345 60.684C143.169 60.148 143.081 59.524 143.081 58.812C143.081 58.108 143.169 57.488 143.345 56.952C143.521 56.408 143.765 55.952 144.077 55.584C144.397 55.216 144.781 54.94 145.229 54.756C145.677 54.572 146.177 54.48 146.729 54.48C147.281 54.48 147.781 54.572 148.229 54.756C148.677 54.94 149.061 55.216 149.381 55.584C149.701 55.952 149.945 56.408 150.113 56.952C150.289 57.488 150.377 58.108 150.377 58.812C150.377 59.524 150.289 60.148 150.113 60.684C149.945 61.22 149.701 61.672 149.381 62.04C149.061 62.408 148.677 62.684 148.229 62.868C147.781 63.052 147.281 63.144 146.729 63.144ZM146.729 61.74C147.329 61.74 147.805 61.54 148.157 61.14C148.517 60.74 148.697 60.18 148.697 59.46V58.164C148.697 57.444 148.517 56.884 148.157 56.484C147.805 56.084 147.329 55.884 146.729 55.884C146.129 55.884 145.649 56.084 145.289 56.484C144.937 56.884 144.761 57.444 144.761 58.164V59.46C144.761 60.18 144.937 60.74 145.289 61.14C145.649 61.54 146.129 61.74 146.729 61.74Z" fill="#41637D"/>
<rect x="175" y="82" width="217" height="17" fill="#EDEDED"/>
<rect x="175" y="82" width="46" height="17" fill="#39A4F5"/>
<rect x="175" y="82" width="23" height="17" fill="#1084DD"/>
<path d="M1.31603 95V86.624H5.08403C5.46803 86.624 5.81203 86.688 6.11603 86.816C6.42803 86.936 6.69203 87.112 6.90803 87.344C7.12403 87.568 7.28803 87.84 7.40003 88.16C7.51203 88.48 7.56803 88.832 7.56803 89.216C7.56803 89.608 7.51203 89.964 7.40003 90.284C7.28803 90.596 7.12403 90.868 6.90803 91.1C6.69203 91.324 6.42803 91.5 6.11603 91.628C5.81203 91.748 5.46803 91.808 5.08403 91.808H2.90003V95H1.31603ZM2.90003 90.44H4.94003C5.24403 90.44 5.48403 90.36 5.66003 90.2C5.83603 90.032 5.92403 89.796 5.92403 89.492V88.94C5.92403 88.636 5.83603 88.404 5.66003 88.244C5.48403 88.084 5.24403 88.004 4.94003 88.004H2.90003V90.44ZM12.2915 95.144C11.7395 95.144 11.2395 95.052 10.7915 94.868C10.3435 94.684 9.95953 94.408 9.63953 94.04C9.32753 93.672 9.08353 93.22 8.90753 92.684C8.73153 92.148 8.64353 91.524 8.64353 90.812C8.64353 90.108 8.73153 89.488 8.90753 88.952C9.08353 88.408 9.32753 87.952 9.63953 87.584C9.95953 87.216 10.3435 86.94 10.7915 86.756C11.2395 86.572 11.7395 86.48 12.2915 86.48C12.8435 86.48 13.3435 86.572 13.7915 86.756C14.2395 86.94 14.6235 87.216 14.9435 87.584C15.2635 87.952 15.5075 88.408 15.6755 88.952C15.8515 89.488 15.9395 90.108 15.9395 90.812C15.9395 91.524 15.8515 92.148 15.6755 92.684C15.5075 93.22 15.2635 93.672 14.9435 94.04C14.6235 94.408 14.2395 94.684 13.7915 94.868C13.3435 95.052 12.8435 95.144 12.2915 95.144ZM12.2915 93.74C12.8915 93.74 13.3675 93.54 13.7195 93.14C14.0795 92.74 14.2595 92.18 14.2595 91.46V90.164C14.2595 89.444 14.0795 88.884 13.7195 88.484C13.3675 88.084 12.8915 87.884 12.2915 87.884C11.6915 87.884 11.2115 88.084 10.8515 88.484C10.4995 88.884 10.3235 89.444 10.3235 90.164V91.46C10.3235 92.18 10.4995 92.74 10.8515 93.14C11.2115 93.54 11.6915 93.74 12.2915 93.74ZM20.1153 95.144C19.3953 95.144 18.7833 95.016 18.2793 94.76C17.7833 94.504 17.3553 94.168 16.9953 93.752L18.0633 92.72C18.3513 93.056 18.6713 93.312 19.0233 93.488C19.3833 93.664 19.7793 93.752 20.2113 93.752C20.6993 93.752 21.0673 93.648 21.3153 93.44C21.5633 93.224 21.6873 92.936 21.6873 92.576C21.6873 92.296 21.6073 92.068 21.4473 91.892C21.2873 91.716 20.9873 91.588 20.5473 91.508L19.7553 91.388C18.0833 91.124 17.2473 90.312 17.2473 88.952C17.2473 88.576 17.3153 88.236 17.4513 87.932C17.5953 87.628 17.7993 87.368 18.0633 87.152C18.3273 86.936 18.6433 86.772 19.0113 86.66C19.3873 86.54 19.8113 86.48 20.2833 86.48C20.9153 86.48 21.4673 86.584 21.9393 86.792C22.4113 87 22.8153 87.308 23.1513 87.716L22.0713 88.736C21.8633 88.48 21.6113 88.272 21.3153 88.112C21.0193 87.952 20.6473 87.872 20.1993 87.872C19.7433 87.872 19.3993 87.96 19.1673 88.136C18.9433 88.304 18.8313 88.544 18.8313 88.856C18.8313 89.176 18.9233 89.412 19.1073 89.564C19.2913 89.716 19.5873 89.828 19.9953 89.9L20.7753 90.044C21.6233 90.196 22.2473 90.468 22.6473 90.86C23.0553 91.244 23.2593 91.784 23.2593 92.48C23.2593 92.88 23.1873 93.244 23.0433 93.572C22.9073 93.892 22.7033 94.172 22.4313 94.412C22.1673 94.644 21.8393 94.824 21.4473 94.952C21.0633 95.08 20.6193 95.144 20.1153 95.144ZM27.9009 88.028V95H26.3169V88.028H23.9409V86.624H30.2769V88.028H27.9009ZM30.7351 92.108V90.584H34.1671V92.108H30.7351ZM38.5884 88.028V95H37.0044V88.028H34.6284V86.624H40.9644V88.028H38.5884ZM43.8453 95H42.2613V86.624H46.0413C46.4253 86.624 46.7693 86.684 47.0733 86.804C47.3773 86.924 47.6333 87.1 47.8413 87.332C48.0573 87.556 48.2213 87.828 48.3333 88.148C48.4533 88.468 48.5133 88.824 48.5133 89.216C48.5133 89.792 48.3813 90.288 48.1173 90.704C47.8613 91.12 47.4733 91.416 46.9533 91.592L48.6693 95H46.9053L45.3453 91.772H43.8453V95ZM45.8853 90.44C46.1893 90.44 46.4293 90.36 46.6053 90.2C46.7813 90.032 46.8693 89.796 46.8693 89.492V88.94C46.8693 88.636 46.7813 88.404 46.6053 88.244C46.4293 88.084 46.1893 88.004 45.8853 88.004H43.8453V90.44H45.8853ZM55.4141 95L54.7421 92.864H51.7661L51.1061 95H49.4981L52.3061 86.624H54.2741L57.0581 95H55.4141ZM53.2781 88.064H53.2181L52.1501 91.508H54.3581L53.2781 88.064ZM57.9446 95V93.728H59.0486V87.896H57.9446V86.624H61.7486V87.896H60.6326V93.728H61.7486V95H57.9446ZM66.5962 88.028V95H65.0122V88.028H62.6362V86.624H68.9722V88.028H66.5962ZM70.2692 95V86.624H75.7892V88.028H71.8532V90.056H75.3332V91.46H71.8532V93.596H75.7892V95H70.2692ZM83.7885 88.988H83.7405L83.0925 90.32L81.3765 93.488L79.6605 90.32L79.0125 88.988H78.9645V95H77.4645V86.624H79.2525L81.4005 90.716H81.4485L83.5725 86.624H85.2885V95H83.7885V88.988ZM87.2613 95V86.624H92.7813V88.028H88.8453V90.056H92.3253V91.46H88.8453V93.596H92.7813V95H87.2613ZM96.8567 90.704L95.9927 88.964H95.9567V95H94.4567V86.624H96.1967L98.7167 90.92L99.5807 92.66H99.6167V86.624H101.117V95H99.3767L96.8567 90.704ZM106.37 88.028V95H104.786V88.028H102.41V86.624H108.746V88.028H106.37ZM111.955 96.812L115.399 86.12H116.683L113.239 96.812H111.955ZM120.953 95V86.624H122.537V93.596H125.837V95H120.953ZM132.605 95L131.934 92.864H128.958L128.298 95H126.69L129.498 86.624H131.466L134.25 95H132.605ZM130.47 88.064H130.41L129.342 91.508H131.55L130.47 88.064ZM135.484 86.624H139.36C139.704 86.624 140.012 86.676 140.284 86.78C140.564 86.884 140.8 87.028 140.992 87.212C141.184 87.396 141.328 87.624 141.424 87.896C141.528 88.16 141.58 88.452 141.58 88.772C141.58 89.092 141.536 89.364 141.448 89.588C141.368 89.804 141.256 89.984 141.112 90.128C140.976 90.272 140.816 90.38 140.632 90.452C140.456 90.524 140.272 90.564 140.08 90.572V90.644C140.264 90.644 140.46 90.68 140.668 90.752C140.884 90.824 141.08 90.94 141.256 91.1C141.44 91.252 141.592 91.452 141.712 91.7C141.832 91.94 141.892 92.24 141.892 92.6C141.892 92.936 141.836 93.252 141.724 93.548C141.62 93.836 141.472 94.088 141.28 94.304C141.088 94.52 140.86 94.692 140.596 94.82C140.332 94.94 140.044 95 139.732 95H135.484V86.624ZM137.068 93.656H139.276C139.58 93.656 139.816 93.58 139.984 93.428C140.152 93.268 140.236 93.04 140.236 92.744V92.336C140.236 92.04 140.152 91.812 139.984 91.652C139.816 91.492 139.58 91.412 139.276 91.412H137.068V93.656ZM137.068 90.116H139.024C139.312 90.116 139.536 90.04 139.696 89.888C139.856 89.728 139.936 89.508 139.936 89.228V88.856C139.936 88.576 139.856 88.36 139.696 88.208C139.536 88.048 139.312 87.968 139.024 87.968H137.068V90.116ZM146.729 95.144C146.177 95.144 145.677 95.052 145.229 94.868C144.781 94.684 144.397 94.408 144.077 94.04C143.765 93.672 143.521 93.22 143.345 92.684C143.169 92.148 143.081 91.524 143.081 90.812C143.081 90.108 143.169 89.488 143.345 88.952C143.521 88.408 143.765 87.952 144.077 87.584C144.397 87.216 144.781 86.94 145.229 86.756C145.677 86.572 146.177 86.48 146.729 86.48C147.281 86.48 147.781 86.572 148.229 86.756C148.677 86.94 149.061 87.216 149.381 87.584C149.701 87.952 149.945 88.408 150.113 88.952C150.289 89.488 150.377 90.108 150.377 90.812C150.377 91.524 150.289 92.148 150.113 92.684C149.945 93.22 149.701 93.672 149.381 94.04C149.061 94.408 148.677 94.684 148.229 94.868C147.781 95.052 147.281 95.144 146.729 95.144ZM146.729 93.74C147.329 93.74 147.805 93.54 148.157 93.14C148.517 92.74 148.697 92.18 148.697 91.46V90.164C148.697 89.444 148.517 88.884 148.157 88.484C147.805 88.084 147.329 87.884 146.729 87.884C146.129 87.884 145.649 88.084 145.289 88.484C144.937 88.884 144.761 89.444 144.761 90.164V91.46C144.761 92.18 144.937 92.74 145.289 93.14C145.649 93.54 146.129 93.74 146.729 93.74Z" fill="#41637D"/>
<rect x="175" y="164" width="217" height="17" fill="#EDEDED"/>
<rect x="175" y="164" width="57" height="17" fill="#39A4F5"/>
<path d="M44.3443 170.028V177H42.7603V170.028H40.3843V168.624H46.7203V170.028H44.3443ZM48.0172 177V168.624H53.5372V170.028H49.6012V172.056H53.0812V173.46H49.6012V175.596H53.5372V177H48.0172ZM57.8165 177.144C57.0965 177.144 56.4845 177.016 55.9805 176.76C55.4845 176.504 55.0565 176.168 54.6965 175.752L55.7645 174.72C56.0525 175.056 56.3725 175.312 56.7245 175.488C57.0845 175.664 57.4805 175.752 57.9125 175.752C58.4005 175.752 58.7685 175.648 59.0165 175.44C59.2645 175.224 59.3885 174.936 59.3885 174.576C59.3885 174.296 59.3085 174.068 59.1485 173.892C58.9885 173.716 58.6885 173.588 58.2485 173.508L57.4565 173.388C55.7845 173.124 54.9485 172.312 54.9485 170.952C54.9485 170.576 55.0165 170.236 55.1525 169.932C55.2965 169.628 55.5005 169.368 55.7645 169.152C56.0285 168.936 56.3445 168.772 56.7125 168.66C57.0885 168.54 57.5125 168.48 57.9845 168.48C58.6165 168.48 59.1685 168.584 59.6405 168.792C60.1125 169 60.5165 169.308 60.8525 169.716L59.7725 170.736C59.5645 170.48 59.3125 170.272 59.0165 170.112C58.7205 169.952 58.3485 169.872 57.9005 169.872C57.4445 169.872 57.1005 169.96 56.8685 170.136C56.6445 170.304 56.5325 170.544 56.5325 170.856C56.5325 171.176 56.6245 171.412 56.8085 171.564C56.9925 171.716 57.2885 171.828 57.6965 171.9L58.4765 172.044C59.3245 172.196 59.9485 172.468 60.3485 172.86C60.7565 173.244 60.9605 173.784 60.9605 174.48C60.9605 174.88 60.8885 175.244 60.7445 175.572C60.6085 175.892 60.4045 176.172 60.1325 176.412C59.8685 176.644 59.5405 176.824 59.1485 176.952C58.7645 177.08 58.3205 177.144 57.8165 177.144ZM65.6021 170.028V177H64.0181V170.028H61.6421V168.624H67.9781V170.028H65.6021ZM72.111 168.624H75.159C75.703 168.624 76.195 168.712 76.635 168.888C77.083 169.064 77.463 169.328 77.775 169.68C78.095 170.024 78.339 170.46 78.507 170.988C78.683 171.508 78.771 172.116 78.771 172.812C78.771 173.508 78.683 174.12 78.507 174.648C78.339 175.168 78.095 175.604 77.775 175.956C77.463 176.3 77.083 176.56 76.635 176.736C76.195 176.912 75.703 177 75.159 177H72.111V168.624ZM75.159 175.596C75.751 175.596 76.219 175.424 76.563 175.08C76.915 174.728 77.091 174.192 77.091 173.472V172.152C77.091 171.432 76.915 170.9 76.563 170.556C76.219 170.204 75.751 170.028 75.159 170.028H73.695V175.596H75.159ZM80.9189 168C81.2469 168 81.4829 168.08 81.6269 168.24C81.7789 168.392 81.8549 168.584 81.8549 168.816V169.044C81.8549 169.26 81.8229 169.48 81.7589 169.704C81.7029 169.92 81.6189 170.132 81.5069 170.34C81.3949 170.548 81.2629 170.744 81.1109 170.928C80.9589 171.112 80.7949 171.276 80.6189 171.42H79.5869C79.8429 171.18 80.0589 170.94 80.2349 170.7C80.4109 170.452 80.5429 170.18 80.6309 169.884C80.3989 169.844 80.2309 169.752 80.1269 169.608C80.0229 169.456 79.9709 169.28 79.9709 169.08V168.816C79.9709 168.584 80.0429 168.392 80.1869 168.24C80.3389 168.08 80.5829 168 80.9189 168ZM83.6188 177V168.624H89.1388V170.028H85.2028V172.056H88.6828V173.46H85.2028V175.596H89.1388V177H83.6188ZM90.8141 177V168.624H96.2021V170.028H92.3981V172.056H95.7101V173.46H92.3981V177H90.8141ZM97.7399 177V168.624H103.128V170.028H99.3239V172.056H102.636V173.46H99.3239V177H97.7399ZM104.318 177V175.728H105.422V169.896H104.318V168.624H108.122V169.896H107.006V175.728H108.122V177H104.318ZM112.992 177.144C112.44 177.144 111.94 177.056 111.492 176.88C111.052 176.696 110.672 176.424 110.352 176.064C110.04 175.704 109.8 175.26 109.632 174.732C109.464 174.196 109.38 173.576 109.38 172.872C109.38 172.168 109.464 171.544 109.632 171C109.8 170.448 110.04 169.988 110.352 169.62C110.672 169.244 111.052 168.96 111.492 168.768C111.94 168.576 112.44 168.48 112.992 168.48C113.744 168.48 114.368 168.64 114.864 168.96C115.36 169.28 115.756 169.764 116.052 170.412L114.696 171.132C114.576 170.756 114.38 170.456 114.108 170.232C113.836 170 113.464 169.884 112.992 169.884C112.4 169.884 111.928 170.084 111.576 170.484C111.232 170.884 111.06 171.444 111.06 172.164V173.484C111.06 174.212 111.232 174.772 111.576 175.164C111.928 175.548 112.4 175.74 112.992 175.74C113.464 175.74 113.848 175.612 114.144 175.356C114.448 175.1 114.668 174.784 114.804 174.408L116.088 175.164C115.784 175.788 115.38 176.276 114.876 176.628C114.372 176.972 113.744 177.144 112.992 177.144ZM122.553 177L121.881 174.864H118.905L118.245 177H116.637L119.445 168.624H121.413L124.197 177H122.553ZM120.417 170.064H120.357L119.289 173.508H121.497L120.417 170.064ZM128.367 177.144C127.815 177.144 127.315 177.056 126.867 176.88C126.427 176.696 126.047 176.424 125.727 176.064C125.415 175.704 125.175 175.26 125.007 174.732C124.839 174.196 124.755 173.576 124.755 172.872C124.755 172.168 124.839 171.544 125.007 171C125.175 170.448 125.415 169.988 125.727 169.62C126.047 169.244 126.427 168.96 126.867 168.768C127.315 168.576 127.815 168.48 128.367 168.48C129.119 168.48 129.743 168.64 130.239 168.96C130.735 169.28 131.131 169.764 131.427 170.412L130.071 171.132C129.951 170.756 129.755 170.456 129.483 170.232C129.211 170 128.839 169.884 128.367 169.884C127.775 169.884 127.303 170.084 126.951 170.484C126.607 170.884 126.435 171.444 126.435 172.164V173.484C126.435 174.212 126.607 174.772 126.951 175.164C127.303 175.548 127.775 175.74 128.367 175.74C128.839 175.74 129.223 175.612 129.519 175.356C129.823 175.1 130.043 174.784 130.179 174.408L131.463 175.164C131.159 175.788 130.755 176.276 130.251 176.628C129.747 176.972 129.119 177.144 128.367 177.144ZM132.466 177V175.728H133.57V169.896H132.466V168.624H136.27V169.896H135.154V175.728H136.27V177H132.466ZM141.118 170.028V177H139.534V170.028H137.158V168.624H143.494V170.028H141.118ZM144.791 177V168.624H150.311V170.028H146.375V172.056H149.855V173.46H146.375V175.596H150.311V177H144.791ZM147.707 168.072L146.783 167.616L147.923 165.372L149.219 166.02L147.707 168.072Z" fill="#41637D"/>
<rect x="175" y="123" width="217" height="17" fill="#EDEDED"/>
<rect x="175" y="123" width="46" height="17" fill="#39A4F5"/>
<path d="M19.9098 136.548C19.3578 136.548 18.8578 136.46 18.4098 136.284C17.9698 136.1 17.5898 135.828 17.2698 135.468C16.9578 135.108 16.7178 134.664 16.5498 134.136C16.3818 133.6 16.2978 132.98 16.2978 132.276C16.2978 131.572 16.3818 130.948 16.5498 130.404C16.7178 129.852 16.9578 129.392 17.2698 129.024C17.5898 128.648 17.9698 128.364 18.4098 128.172C18.8578 127.98 19.3578 127.884 19.9098 127.884C20.6618 127.884 21.2858 128.044 21.7818 128.364C22.2778 128.684 22.6738 129.168 22.9698 129.816L21.6138 130.536C21.4938 130.16 21.2978 129.86 21.0258 129.636C20.7538 129.404 20.3818 129.288 19.9098 129.288C19.3178 129.288 18.8458 129.488 18.4938 129.888C18.1498 130.288 17.9778 130.848 17.9778 131.568V132.888C17.9778 133.616 18.1498 134.176 18.4938 134.568C18.8458 134.952 19.3178 135.144 19.9098 135.144C20.3818 135.144 20.7658 135.016 21.0618 134.76C21.3658 134.504 21.5858 134.188 21.7218 133.812L23.0058 134.568C22.7018 135.192 22.2978 135.68 21.7938 136.032C21.2898 136.376 20.6618 136.548 19.9098 136.548ZM29.4707 136.404L28.7987 134.268H25.8227L25.1627 136.404H23.5547L26.3627 128.028H28.3307L31.1147 136.404H29.4707ZM27.3347 129.468H27.2747L26.2067 132.912H28.4147L27.3347 129.468ZM33.9332 136.404H32.3492V128.028H36.1292C36.5132 128.028 36.8572 128.088 37.1612 128.208C37.4652 128.328 37.7212 128.504 37.9292 128.736C38.1452 128.96 38.3092 129.232 38.4212 129.552C38.5412 129.872 38.6012 130.228 38.6012 130.62C38.6012 131.196 38.4692 131.692 38.2052 132.108C37.9492 132.524 37.5612 132.82 37.0412 132.996L38.7572 136.404H36.9932L35.4332 133.176H33.9332V136.404ZM35.9732 131.844C36.2772 131.844 36.5172 131.764 36.6932 131.604C36.8692 131.436 36.9572 131.2 36.9572 130.896V130.344C36.9572 130.04 36.8692 129.808 36.6932 129.648C36.5172 129.488 36.2772 129.408 35.9732 129.408H33.9332V131.844H35.9732ZM45.502 136.404L44.83 134.268H41.854L41.194 136.404H39.586L42.394 128.028H44.362L47.146 136.404H45.502ZM43.366 129.468H43.306L42.238 132.912H44.446L43.366 129.468ZM51.3161 136.548C50.7641 136.548 50.2641 136.46 49.8161 136.284C49.3761 136.1 48.9961 135.828 48.6761 135.468C48.3641 135.108 48.1241 134.664 47.9561 134.136C47.7881 133.6 47.7041 132.98 47.7041 132.276C47.7041 131.572 47.7881 130.948 47.9561 130.404C48.1241 129.852 48.3641 129.392 48.6761 129.024C48.9961 128.648 49.3761 128.364 49.8161 128.172C50.2641 127.98 50.7641 127.884 51.3161 127.884C52.0681 127.884 52.6921 128.044 53.1881 128.364C53.6841 128.684 54.0801 129.168 54.3761 129.816L53.0201 130.536C52.9001 130.16 52.7041 129.86 52.4321 129.636C52.1601 129.404 51.7881 129.288 51.3161 129.288C50.7241 129.288 50.2521 129.488 49.9001 129.888C49.5561 130.288 49.3841 130.848 49.3841 131.568V132.888C49.3841 133.616 49.5561 134.176 49.9001 134.568C50.2521 134.952 50.7241 135.144 51.3161 135.144C51.7881 135.144 52.1721 135.016 52.4681 134.76C52.7721 134.504 52.9921 134.188 53.1281 133.812L54.4121 134.568C54.1081 135.192 53.7041 135.68 53.2001 136.032C52.6961 136.376 52.0681 136.548 51.3161 136.548ZM59.0513 129.432V136.404H57.4673V129.432H55.0913V128.028H61.4273V129.432H59.0513ZM62.7242 136.404V128.028H68.2442V129.432H64.3082V131.46H67.7882V132.864H64.3082V135H68.2442V136.404H62.7242ZM65.6402 127.476L64.7162 127.02L65.8562 124.776L67.1522 125.424L65.6402 127.476ZM71.5035 136.404H69.9195V128.028H73.6995C74.0835 128.028 74.4275 128.088 74.7315 128.208C75.0355 128.328 75.2915 128.504 75.4995 128.736C75.7155 128.96 75.8795 129.232 75.9915 129.552C76.1115 129.872 76.1715 130.228 76.1715 130.62C76.1715 131.196 76.0395 131.692 75.7755 132.108C75.5195 132.524 75.1315 132.82 74.6115 132.996L76.3275 136.404H74.5635L73.0035 133.176H71.5035V136.404ZM73.5435 131.844C73.8475 131.844 74.0875 131.764 74.2635 131.604C74.4395 131.436 74.5275 131.2 74.5275 130.896V130.344C74.5275 130.04 74.4395 129.808 74.2635 129.648C74.0875 129.488 73.8475 129.408 73.5435 129.408H71.5035V131.844H73.5435ZM77.5403 136.404V135.132H78.6443V129.3H77.5403V128.028H81.3443V129.3H80.2283V135.132H81.3443V136.404H77.5403ZM85.5665 136.548C84.8465 136.548 84.2345 136.42 83.7305 136.164C83.2345 135.908 82.8065 135.572 82.4465 135.156L83.5145 134.124C83.8025 134.46 84.1225 134.716 84.4745 134.892C84.8345 135.068 85.2305 135.156 85.6625 135.156C86.1505 135.156 86.5185 135.052 86.7665 134.844C87.0145 134.628 87.1385 134.34 87.1385 133.98C87.1385 133.7 87.0585 133.472 86.8985 133.296C86.7385 133.12 86.4385 132.992 85.9985 132.912L85.2065 132.792C83.5345 132.528 82.6985 131.716 82.6985 130.356C82.6985 129.98 82.7665 129.64 82.9025 129.336C83.0465 129.032 83.2505 128.772 83.5145 128.556C83.7785 128.34 84.0945 128.176 84.4625 128.064C84.8385 127.944 85.2625 127.884 85.7345 127.884C86.3665 127.884 86.9185 127.988 87.3905 128.196C87.8625 128.404 88.2665 128.712 88.6025 129.12L87.5225 130.14C87.3145 129.884 87.0625 129.676 86.7665 129.516C86.4705 129.356 86.0985 129.276 85.6505 129.276C85.1945 129.276 84.8505 129.364 84.6185 129.54C84.3945 129.708 84.2825 129.948 84.2825 130.26C84.2825 130.58 84.3745 130.816 84.5585 130.968C84.7425 131.12 85.0385 131.232 85.4465 131.304L86.2265 131.448C87.0745 131.6 87.6985 131.872 88.0985 132.264C88.5065 132.648 88.7105 133.188 88.7105 133.884C88.7105 134.284 88.6385 134.648 88.4945 134.976C88.3585 135.296 88.1545 135.576 87.8825 135.816C87.6185 136.048 87.2905 136.228 86.8985 136.356C86.5145 136.484 86.0705 136.548 85.5665 136.548ZM90.2985 136.404V128.028H95.8185V129.432H91.8825V131.46H95.3625V132.864H91.8825V135H95.8185V136.404H90.2985ZM99.0778 136.404H97.4938V128.028H101.274C101.658 128.028 102.002 128.088 102.306 128.208C102.61 128.328 102.866 128.504 103.074 128.736C103.29 128.96 103.454 129.232 103.566 129.552C103.686 129.872 103.746 130.228 103.746 130.62C103.746 131.196 103.614 131.692 103.35 132.108C103.094 132.524 102.706 132.82 102.186 132.996L103.902 136.404H102.138L100.578 133.176H99.0778V136.404ZM101.118 131.844C101.422 131.844 101.662 131.764 101.838 131.604C102.014 131.436 102.102 131.2 102.102 130.896V130.344C102.102 130.04 102.014 129.808 101.838 129.648C101.662 129.488 101.422 129.408 101.118 129.408H99.0778V131.844H101.118ZM108.298 136.404V128.028H109.882V135H113.182V136.404H108.298ZM114.434 127.404C114.762 127.404 114.998 127.484 115.142 127.644C115.294 127.796 115.37 127.988 115.37 128.22V128.448C115.37 128.664 115.338 128.884 115.274 129.108C115.218 129.324 115.134 129.536 115.022 129.744C114.91 129.952 114.778 130.148 114.626 130.332C114.474 130.516 114.31 130.68 114.134 130.824H113.102C113.358 130.584 113.574 130.344 113.75 130.104C113.926 129.856 114.058 129.584 114.146 129.288C113.914 129.248 113.746 129.156 113.642 129.012C113.538 128.86 113.486 128.684 113.486 128.484V128.22C113.486 127.988 113.558 127.796 113.702 127.644C113.854 127.484 114.098 127.404 114.434 127.404ZM117.134 136.404V128.028H122.654V129.432H118.718V131.46H122.198V132.864H118.718V135H122.654V136.404H117.134ZM126.934 136.548C126.214 136.548 125.602 136.42 125.098 136.164C124.602 135.908 124.174 135.572 123.814 135.156L124.882 134.124C125.17 134.46 125.49 134.716 125.842 134.892C126.202 135.068 126.598 135.156 127.03 135.156C127.518 135.156 127.886 135.052 128.134 134.844C128.382 134.628 128.506 134.34 128.506 133.98C128.506 133.7 128.426 133.472 128.266 133.296C128.106 133.12 127.806 132.992 127.366 132.912L126.574 132.792C124.902 132.528 124.066 131.716 124.066 130.356C124.066 129.98 124.134 129.64 124.27 129.336C124.414 129.032 124.618 128.772 124.882 128.556C125.146 128.34 125.462 128.176 125.83 128.064C126.206 127.944 126.63 127.884 127.102 127.884C127.734 127.884 128.286 127.988 128.758 128.196C129.23 128.404 129.634 128.712 129.97 129.12L128.89 130.14C128.682 129.884 128.43 129.676 128.134 129.516C127.838 129.356 127.466 129.276 127.018 129.276C126.562 129.276 126.218 129.364 125.986 129.54C125.762 129.708 125.65 129.948 125.65 130.26C125.65 130.58 125.742 130.816 125.926 130.968C126.11 131.12 126.406 131.232 126.814 131.304L127.594 131.448C128.442 131.6 129.066 131.872 129.466 132.264C129.874 132.648 130.078 133.188 130.078 133.884C130.078 134.284 130.006 134.648 129.862 134.976C129.726 135.296 129.522 135.576 129.25 135.816C128.986 136.048 128.658 136.228 128.266 136.356C127.882 136.484 127.438 136.548 126.934 136.548ZM134.117 136.548C133.397 136.548 132.785 136.42 132.281 136.164C131.785 135.908 131.357 135.572 130.997 135.156L132.065 134.124C132.353 134.46 132.673 134.716 133.025 134.892C133.385 135.068 133.781 135.156 134.213 135.156C134.701 135.156 135.069 135.052 135.317 134.844C135.565 134.628 135.689 134.34 135.689 133.98C135.689 133.7 135.609 133.472 135.449 133.296C135.289 133.12 134.989 132.992 134.549 132.912L133.757 132.792C132.085 132.528 131.249 131.716 131.249 130.356C131.249 129.98 131.317 129.64 131.453 129.336C131.597 129.032 131.801 128.772 132.065 128.556C132.329 128.34 132.645 128.176 133.013 128.064C133.389 127.944 133.813 127.884 134.285 127.884C134.917 127.884 135.469 127.988 135.941 128.196C136.413 128.404 136.817 128.712 137.153 129.12L136.073 130.14C135.865 129.884 135.613 129.676 135.317 129.516C135.021 129.356 134.649 129.276 134.201 129.276C133.745 129.276 133.401 129.364 133.169 129.54C132.945 129.708 132.833 129.948 132.833 130.26C132.833 130.58 132.925 130.816 133.109 130.968C133.293 131.12 133.589 131.232 133.997 131.304L134.777 131.448C135.625 131.6 136.249 131.872 136.649 132.264C137.057 132.648 137.261 133.188 137.261 133.884C137.261 134.284 137.189 134.648 137.045 134.976C136.909 135.296 136.705 135.576 136.433 135.816C136.169 136.048 135.841 136.228 135.449 136.356C135.065 136.484 134.621 136.548 134.117 136.548ZM144.033 136.404L143.361 134.268H140.385L139.725 136.404H138.117L140.925 128.028H142.893L145.677 136.404H144.033ZM141.897 129.468H141.837L140.769 132.912H142.977L141.897 129.468ZM146.564 136.404V135.132H147.668V129.3H146.564V128.028H150.368V129.3H149.252V135.132H150.368V136.404H146.564Z" fill="#41637D"/>
<line x1="175.637" y1="7.59868e-09" x2="175.637" y2="190" stroke="#41637D"/>
<line x1="284.066" y1="7.59868e-09" x2="284.066" y2="190" stroke="#41637D"/>
<line x1="392.502" y1="7.59868e-09" x2="392.502" y2="190" stroke="#41637D"/>
</svg>
