<svg width="336" height="216" viewBox="0 0 336 216" fill="none" xmlns="http://www.w3.org/2000/svg">
<path d="M228.901 212.144C228.365 212.144 227.901 212.048 227.509 211.856C227.117 211.656 226.793 211.372 226.537 211.004C226.281 210.636 226.089 210.184 225.961 209.648C225.841 209.112 225.781 208.5 225.781 207.812C225.781 207.132 225.841 206.524 225.961 205.988C226.089 205.444 226.281 204.988 226.537 204.62C226.793 204.252 227.117 203.972 227.509 203.78C227.901 203.58 228.365 203.48 228.901 203.48C229.965 203.48 230.749 203.86 231.253 204.62C231.765 205.38 232.021 206.444 232.021 207.812C232.021 209.18 231.765 210.244 231.253 211.004C230.749 211.764 229.965 212.144 228.901 212.144ZM228.901 210.812C229.437 210.812 229.809 210.612 230.017 210.212C230.233 209.804 230.341 209.256 230.341 208.568V207.056C230.341 206.368 230.233 205.824 230.017 205.424C229.809 205.016 229.437 204.812 228.901 204.812C228.365 204.812 227.989 205.016 227.773 205.424C227.565 205.824 227.461 206.368 227.461 207.056V208.568C227.461 209.256 227.565 209.804 227.773 210.212C227.989 210.612 228.365 210.812 228.901 210.812ZM234.656 212L240.464 203.624H241.856L236.048 212H234.656ZM235.232 208.232C234.552 208.232 234.032 208.032 233.672 207.632C233.32 207.224 233.144 206.632 233.144 205.856C233.144 205.08 233.32 204.492 233.672 204.092C234.032 203.684 234.552 203.48 235.232 203.48C235.912 203.48 236.428 203.684 236.78 204.092C237.132 204.492 237.308 205.08 237.308 205.856C237.308 206.632 237.132 207.224 236.78 207.632C236.428 208.032 235.912 208.232 235.232 208.232ZM235.232 207.32C235.728 207.32 235.976 206.94 235.976 206.18V205.532C235.976 204.772 235.728 204.392 235.232 204.392C234.736 204.392 234.488 204.772 234.488 205.532V206.18C234.488 206.94 234.736 207.32 235.232 207.32ZM241.28 212.144C240.608 212.144 240.092 211.944 239.732 211.544C239.38 211.136 239.204 210.544 239.204 209.768C239.204 208.992 239.38 208.404 239.732 208.004C240.092 207.596 240.608 207.392 241.28 207.392C241.96 207.392 242.476 207.596 242.828 208.004C243.188 208.404 243.368 208.992 243.368 209.768C243.368 210.544 243.188 211.136 242.828 211.544C242.476 211.944 241.96 212.144 241.28 212.144ZM241.28 211.232C241.776 211.232 242.024 210.852 242.024 210.092V209.444C242.024 208.684 241.776 208.304 241.28 208.304C240.784 208.304 240.536 208.684 240.536 209.444V210.092C240.536 210.852 240.784 211.232 241.28 211.232Z" fill="#41637D"/>
<path d="M269.276 204.992H265.508L265.316 207.8H265.4C265.488 207.624 265.584 207.46 265.688 207.308C265.792 207.156 265.912 207.028 266.048 206.924C266.184 206.82 266.34 206.74 266.516 206.684C266.7 206.62 266.92 206.588 267.176 206.588C267.536 206.588 267.872 206.648 268.184 206.768C268.496 206.888 268.764 207.064 268.988 207.296C269.22 207.52 269.4 207.796 269.528 208.124C269.664 208.452 269.732 208.824 269.732 209.24C269.732 209.664 269.664 210.052 269.528 210.404C269.392 210.756 269.192 211.064 268.928 211.328C268.664 211.584 268.34 211.784 267.956 211.928C267.572 212.072 267.132 212.144 266.636 212.144C266.252 212.144 265.908 212.1 265.604 212.012C265.3 211.932 265.032 211.82 264.8 211.676C264.568 211.532 264.368 211.368 264.2 211.184C264.032 210.992 263.884 210.792 263.756 210.584L264.908 209.696C265.004 209.856 265.104 210.008 265.208 210.152C265.312 210.288 265.432 210.408 265.568 210.512C265.712 210.616 265.868 210.7 266.036 210.764C266.212 210.82 266.416 210.848 266.648 210.848C267.12 210.848 267.476 210.716 267.716 210.452C267.964 210.188 268.088 209.828 268.088 209.372V209.276C268.088 208.844 267.964 208.504 267.716 208.256C267.468 208.008 267.124 207.884 266.684 207.884C266.34 207.884 266.06 207.952 265.844 208.088C265.628 208.216 265.456 208.356 265.328 208.508L264.032 208.328L264.344 203.624H269.276V204.992ZM273.891 212.144C273.355 212.144 272.891 212.048 272.499 211.856C272.107 211.656 271.783 211.372 271.527 211.004C271.271 210.636 271.079 210.184 270.951 209.648C270.831 209.112 270.771 208.5 270.771 207.812C270.771 207.132 270.831 206.524 270.951 205.988C271.079 205.444 271.271 204.988 271.527 204.62C271.783 204.252 272.107 203.972 272.499 203.78C272.891 203.58 273.355 203.48 273.891 203.48C274.955 203.48 275.739 203.86 276.243 204.62C276.755 205.38 277.011 206.444 277.011 207.812C277.011 209.18 276.755 210.244 276.243 211.004C275.739 211.764 274.955 212.144 273.891 212.144ZM273.891 210.812C274.427 210.812 274.799 210.612 275.007 210.212C275.223 209.804 275.331 209.256 275.331 208.568V207.056C275.331 206.368 275.223 205.824 275.007 205.424C274.799 205.016 274.427 204.812 273.891 204.812C273.355 204.812 272.979 205.016 272.763 205.424C272.555 205.824 272.451 206.368 272.451 207.056V208.568C272.451 209.256 272.555 209.804 272.763 210.212C272.979 210.612 273.355 210.812 273.891 210.812ZM279.646 212L285.454 203.624H286.846L281.038 212H279.646ZM280.222 208.232C279.542 208.232 279.022 208.032 278.662 207.632C278.31 207.224 278.134 206.632 278.134 205.856C278.134 205.08 278.31 204.492 278.662 204.092C279.022 203.684 279.542 203.48 280.222 203.48C280.902 203.48 281.418 203.684 281.77 204.092C282.122 204.492 282.298 205.08 282.298 205.856C282.298 206.632 282.122 207.224 281.77 207.632C281.418 208.032 280.902 208.232 280.222 208.232ZM280.222 207.32C280.718 207.32 280.966 206.94 280.966 206.18V205.532C280.966 204.772 280.718 204.392 280.222 204.392C279.726 204.392 279.478 204.772 279.478 205.532V206.18C279.478 206.94 279.726 207.32 280.222 207.32ZM286.27 212.144C285.598 212.144 285.082 211.944 284.722 211.544C284.37 211.136 284.194 210.544 284.194 209.768C284.194 208.992 284.37 208.404 284.722 208.004C285.082 207.596 285.598 207.392 286.27 207.392C286.95 207.392 287.466 207.596 287.818 208.004C288.178 208.404 288.358 208.992 288.358 209.768C288.358 210.544 288.178 211.136 287.818 211.544C287.466 211.944 286.95 212.144 286.27 212.144ZM286.27 211.232C286.766 211.232 287.014 210.852 287.014 210.092V209.444C287.014 208.684 286.766 208.304 286.27 208.304C285.774 208.304 285.526 208.684 285.526 209.444V210.092C285.526 210.852 285.774 211.232 286.27 211.232Z" fill="#41637D"/>
<path d="M302.822 212V210.716H305.126V204.764H305.018L303.194 206.924L302.21 206.096L304.286 203.624H306.674V210.716H308.594V212H302.822ZM312.526 212.144C311.99 212.144 311.526 212.048 311.134 211.856C310.742 211.656 310.418 211.372 310.162 211.004C309.906 210.636 309.714 210.184 309.586 209.648C309.466 209.112 309.406 208.5 309.406 207.812C309.406 207.132 309.466 206.524 309.586 205.988C309.714 205.444 309.906 204.988 310.162 204.62C310.418 204.252 310.742 203.972 311.134 203.78C311.526 203.58 311.99 203.48 312.526 203.48C313.59 203.48 314.374 203.86 314.878 204.62C315.39 205.38 315.646 206.444 315.646 207.812C315.646 209.18 315.39 210.244 314.878 211.004C314.374 211.764 313.59 212.144 312.526 212.144ZM312.526 210.812C313.062 210.812 313.434 210.612 313.642 210.212C313.858 209.804 313.966 209.256 313.966 208.568V207.056C313.966 206.368 313.858 205.824 313.642 205.424C313.434 205.016 313.062 204.812 312.526 204.812C311.99 204.812 311.614 205.016 311.398 205.424C311.19 205.824 311.086 206.368 311.086 207.056V208.568C311.086 209.256 311.19 209.804 311.398 210.212C311.614 210.612 311.99 210.812 312.526 210.812ZM319.721 212.144C319.185 212.144 318.721 212.048 318.329 211.856C317.937 211.656 317.613 211.372 317.357 211.004C317.101 210.636 316.909 210.184 316.781 209.648C316.661 209.112 316.601 208.5 316.601 207.812C316.601 207.132 316.661 206.524 316.781 205.988C316.909 205.444 317.101 204.988 317.357 204.62C317.613 204.252 317.937 203.972 318.329 203.78C318.721 203.58 319.185 203.48 319.721 203.48C320.785 203.48 321.569 203.86 322.073 204.62C322.585 205.38 322.841 206.444 322.841 207.812C322.841 209.18 322.585 210.244 322.073 211.004C321.569 211.764 320.785 212.144 319.721 212.144ZM319.721 210.812C320.257 210.812 320.629 210.612 320.837 210.212C321.053 209.804 321.161 209.256 321.161 208.568V207.056C321.161 206.368 321.053 205.824 320.837 205.424C320.629 205.016 320.257 204.812 319.721 204.812C319.185 204.812 318.809 205.016 318.593 205.424C318.385 205.824 318.281 206.368 318.281 207.056V208.568C318.281 209.256 318.385 209.804 318.593 210.212C318.809 210.612 319.185 210.812 319.721 210.812ZM325.476 212L331.284 203.624H332.676L326.868 212H325.476ZM326.052 208.232C325.372 208.232 324.852 208.032 324.492 207.632C324.14 207.224 323.964 206.632 323.964 205.856C323.964 205.08 324.14 204.492 324.492 204.092C324.852 203.684 325.372 203.48 326.052 203.48C326.732 203.48 327.248 203.684 327.6 204.092C327.952 204.492 328.128 205.08 328.128 205.856C328.128 206.632 327.952 207.224 327.6 207.632C327.248 208.032 326.732 208.232 326.052 208.232ZM326.052 207.32C326.548 207.32 326.796 206.94 326.796 206.18V205.532C326.796 204.772 326.548 204.392 326.052 204.392C325.556 204.392 325.308 204.772 325.308 205.532V206.18C325.308 206.94 325.556 207.32 326.052 207.32ZM332.1 212.144C331.428 212.144 330.912 211.944 330.552 211.544C330.2 211.136 330.024 210.544 330.024 209.768C330.024 208.992 330.2 208.404 330.552 208.004C330.912 207.596 331.428 207.392 332.1 207.392C332.78 207.392 333.296 207.596 333.648 208.004C334.008 208.404 334.188 208.992 334.188 209.768C334.188 210.544 334.008 211.136 333.648 211.544C333.296 211.944 332.78 212.144 332.1 212.144ZM332.1 211.232C332.596 211.232 332.844 210.852 332.844 210.092V209.444C332.844 208.684 332.596 208.304 332.1 208.304C331.604 208.304 331.356 208.684 331.356 209.444V210.092C331.356 210.852 331.604 211.232 332.1 211.232Z" fill="#41637D"/>
<line opacity="0.2" x1="243.357" y1="1.64788e-08" x2="243.357" y2="190" stroke="#41637D" stroke-width="0.839895"/>
<line opacity="0.2" x1="285.354" y1="1.64788e-08" x2="285.354" y2="190" stroke="#41637D" stroke-width="0.839895"/>
<line opacity="0.2" x1="251.758" y1="1.64788e-08" x2="251.758" y2="190" stroke="#41637D" stroke-width="0.839895"/>
<line opacity="0.2" x1="293.752" y1="1.64788e-08" x2="293.752" y2="190" stroke="#41637D" stroke-width="0.839895"/>
<line opacity="0.2" x1="260.156" y1="1.64788e-08" x2="260.156" y2="190" stroke="#41637D" stroke-width="0.839895"/>
<line opacity="0.2" x1="302.15" y1="1.64788e-08" x2="302.15" y2="190" stroke="#41637D" stroke-width="0.839895"/>
<line opacity="0.2" x1="268.555" y1="1.64788e-08" x2="268.555" y2="190" stroke="#41637D" stroke-width="0.839895"/>
<line opacity="0.2" x1="310.549" y1="1.64788e-08" x2="310.549" y2="190" stroke="#41637D" stroke-width="0.839895"/>
<rect x="234.539" width="83.9895" height="16.7979" fill="#EDEDED"/>
<rect x="235.486" width="66" height="17" fill="#1084DD"/>
<path d="M93.0758 13V4.624H98.5958V6.028H94.6598V8.056H98.1398V9.46H94.6598V11.596H98.5958V13H93.0758ZM106.931 13H105.083L103.163 9.784H103.127L101.231 13H99.5031L102.215 8.704L99.6231 4.624H101.471L103.247 7.6H103.283L105.083 4.624H106.811L104.195 8.704L106.931 13ZM111.422 6.028V13H109.838V6.028H107.462V4.624H113.798V6.028H111.422ZM116.679 13H115.095V4.624H118.875C119.259 4.624 119.603 4.684 119.907 4.804C120.211 4.924 120.467 5.1 120.675 5.332C120.891 5.556 121.055 5.828 121.167 6.148C121.287 6.468 121.347 6.824 121.347 7.216C121.347 7.792 121.215 8.288 120.951 8.704C120.695 9.12 120.307 9.416 119.787 9.592L121.503 13H119.739L118.179 9.772H116.679V13ZM118.719 8.44C119.023 8.44 119.263 8.36 119.439 8.2C119.615 8.032 119.703 7.796 119.703 7.492V6.94C119.703 6.636 119.615 6.404 119.439 6.244C119.263 6.084 119.023 6.004 118.719 6.004H116.679V8.44H118.719ZM128.248 13L127.576 10.864H124.6L123.94 13H122.332L125.14 4.624H127.108L129.892 13H128.248ZM126.112 6.064H126.052L124.984 9.508H127.192L126.112 6.064ZM134.062 13.144C133.51 13.144 133.01 13.056 132.562 12.88C132.122 12.696 131.742 12.424 131.422 12.064C131.11 11.704 130.87 11.26 130.702 10.732C130.534 10.196 130.45 9.576 130.45 8.872C130.45 8.168 130.534 7.544 130.702 7C130.87 6.448 131.11 5.988 131.422 5.62C131.742 5.244 132.122 4.96 132.562 4.768C133.01 4.576 133.51 4.48 134.062 4.48C134.814 4.48 135.438 4.64 135.934 4.96C136.43 5.28 136.826 5.764 137.122 6.412L135.766 7.132C135.646 6.756 135.45 6.456 135.178 6.232C134.906 6 134.534 5.884 134.062 5.884C133.47 5.884 132.998 6.084 132.646 6.484C132.302 6.884 132.13 7.444 132.13 8.164V9.484C132.13 10.212 132.302 10.772 132.646 11.164C132.998 11.548 133.47 11.74 134.062 11.74C134.534 11.74 134.918 11.612 135.214 11.356C135.518 11.1 135.738 10.784 135.874 10.408L137.158 11.164C136.854 11.788 136.45 12.276 135.946 12.628C135.442 12.972 134.814 13.144 134.062 13.144ZM141.797 6.028V13H140.213V6.028H137.837V4.624H144.173V6.028H141.797ZM145.064 13V11.728H146.168V5.896H145.064V4.624H148.868V5.896H147.752V11.728H148.868V13H145.064ZM153.774 13.144C153.222 13.144 152.722 13.052 152.274 12.868C151.826 12.684 151.442 12.408 151.122 12.04C150.81 11.672 150.566 11.22 150.39 10.684C150.214 10.148 150.126 9.524 150.126 8.812C150.126 8.108 150.214 7.488 150.39 6.952C150.566 6.408 150.81 5.952 151.122 5.584C151.442 5.216 151.826 4.94 152.274 4.756C152.722 4.572 153.222 4.48 153.774 4.48C154.326 4.48 154.826 4.572 155.274 4.756C155.722 4.94 156.106 5.216 156.426 5.584C156.746 5.952 156.99 6.408 157.158 6.952C157.334 7.488 157.422 8.108 157.422 8.812C157.422 9.524 157.334 10.148 157.158 10.684C156.99 11.22 156.746 11.672 156.426 12.04C156.106 12.408 155.722 12.684 155.274 12.868C154.826 13.052 154.326 13.144 153.774 13.144ZM153.774 11.74C154.374 11.74 154.85 11.54 155.202 11.14C155.562 10.74 155.742 10.18 155.742 9.46V8.164C155.742 7.444 155.562 6.884 155.202 6.484C154.85 6.084 154.374 5.884 153.774 5.884C153.174 5.884 152.694 6.084 152.334 6.484C151.982 6.884 151.806 7.444 151.806 8.164V9.46C151.806 10.18 151.982 10.74 152.334 11.14C152.694 11.54 153.174 11.74 153.774 11.74ZM161.429 8.704L160.565 6.964H160.529V13H159.029V4.624H160.769L163.289 8.92L164.153 10.66H164.189V4.624H165.689V13H163.949L161.429 8.704ZM170.49 13V4.624H174.258C174.642 4.624 174.986 4.688 175.29 4.816C175.602 4.936 175.866 5.112 176.082 5.344C176.298 5.568 176.462 5.84 176.574 6.16C176.686 6.48 176.742 6.832 176.742 7.216C176.742 7.608 176.686 7.964 176.574 8.284C176.462 8.596 176.298 8.868 176.082 9.1C175.866 9.324 175.602 9.5 175.29 9.628C174.986 9.748 174.642 9.808 174.258 9.808H172.074V13H170.49ZM172.074 8.44H174.114C174.418 8.44 174.658 8.36 174.834 8.2C175.01 8.032 175.098 7.796 175.098 7.492V6.94C175.098 6.636 175.01 6.404 174.834 6.244C174.658 6.084 174.418 6.004 174.114 6.004H172.074V8.44ZM177.829 13V11.728H178.933V5.896H177.829V4.624H181.633V5.896H180.517V11.728H181.633V13H177.829ZM183.252 13V4.624H184.836V11.596H188.136V13H183.252ZM192.352 13.144C191.8 13.144 191.3 13.052 190.852 12.868C190.404 12.684 190.02 12.408 189.7 12.04C189.388 11.672 189.144 11.22 188.968 10.684C188.792 10.148 188.704 9.524 188.704 8.812C188.704 8.108 188.792 7.488 188.968 6.952C189.144 6.408 189.388 5.952 189.7 5.584C190.02 5.216 190.404 4.94 190.852 4.756C191.3 4.572 191.8 4.48 192.352 4.48C192.904 4.48 193.404 4.572 193.852 4.756C194.3 4.94 194.684 5.216 195.004 5.584C195.324 5.952 195.568 6.408 195.736 6.952C195.912 7.488 196 8.108 196 8.812C196 9.524 195.912 10.148 195.736 10.684C195.568 11.22 195.324 11.672 195.004 12.04C194.684 12.408 194.3 12.684 193.852 12.868C193.404 13.052 192.904 13.144 192.352 13.144ZM192.352 11.74C192.952 11.74 193.428 11.54 193.78 11.14C194.14 10.74 194.32 10.18 194.32 9.46V8.164C194.32 7.444 194.14 6.884 193.78 6.484C193.428 6.084 192.952 5.884 192.352 5.884C191.752 5.884 191.272 6.084 190.912 6.484C190.56 6.884 190.384 7.444 190.384 8.164V9.46C190.384 10.18 190.56 10.74 190.912 11.14C191.272 11.54 191.752 11.74 192.352 11.74ZM200.602 6.028V13H199.018V6.028H196.642V4.624H202.978V6.028H200.602ZM204.275 13V4.624H209.795V6.028H205.859V8.056H209.339V9.46H205.859V11.596H209.795V13H204.275Z" fill="#41637D"/>
<rect x="234.539" y="41" width="83.9895" height="16.7979" fill="#EDEDED"/>
<rect x="234.486" y="41" width="69" height="17" fill="#39A4F5"/>
<rect x="234.486" y="41" width="51" height="17" fill="#1084DD"/>
<path d="M58.9274 54.0005V45.6245H62.6954C63.0794 45.6245 63.4234 45.6885 63.7274 45.8165C64.0394 45.9365 64.3034 46.1125 64.5194 46.3445C64.7354 46.5685 64.8994 46.8405 65.0114 47.1605C65.1234 47.4805 65.1794 47.8325 65.1794 48.2165C65.1794 48.6085 65.1234 48.9645 65.0114 49.2845C64.8994 49.5965 64.7354 49.8685 64.5194 50.1005C64.3034 50.3245 64.0394 50.5005 63.7274 50.6285C63.4234 50.7485 63.0794 50.8085 62.6954 50.8085H60.5114V54.0005H58.9274ZM60.5114 49.4405H62.5514C62.8554 49.4405 63.0954 49.3605 63.2714 49.2005C63.4474 49.0325 63.5354 48.7965 63.5354 48.4925V47.9405C63.5354 47.6365 63.4474 47.4045 63.2714 47.2445C63.0954 47.0845 62.8554 47.0045 62.5514 47.0045H60.5114V49.4405ZM69.9029 54.1445C69.3509 54.1445 68.8509 54.0525 68.4029 53.8685C67.9549 53.6845 67.5709 53.4085 67.2509 53.0405C66.9389 52.6725 66.6949 52.2205 66.5189 51.6845C66.3429 51.1485 66.2549 50.5245 66.2549 49.8125C66.2549 49.1085 66.3429 48.4885 66.5189 47.9525C66.6949 47.4085 66.9389 46.9525 67.2509 46.5845C67.5709 46.2165 67.9549 45.9405 68.4029 45.7565C68.8509 45.5725 69.3509 45.4805 69.9029 45.4805C70.4549 45.4805 70.9549 45.5725 71.4029 45.7565C71.8509 45.9405 72.2349 46.2165 72.5549 46.5845C72.8749 46.9525 73.1189 47.4085 73.2869 47.9525C73.4629 48.4885 73.5509 49.1085 73.5509 49.8125C73.5509 50.5245 73.4629 51.1485 73.2869 51.6845C73.1189 52.2205 72.8749 52.6725 72.5549 53.0405C72.2349 53.4085 71.8509 53.6845 71.4029 53.8685C70.9549 54.0525 70.4549 54.1445 69.9029 54.1445ZM69.9029 52.7405C70.5029 52.7405 70.9789 52.5405 71.3309 52.1405C71.6909 51.7405 71.8709 51.1805 71.8709 50.4605V49.1645C71.8709 48.4445 71.6909 47.8845 71.3309 47.4845C70.9789 47.0845 70.5029 46.8845 69.9029 46.8845C69.3029 46.8845 68.8229 47.0845 68.4629 47.4845C68.1109 47.8845 67.9349 48.4445 67.9349 49.1645V50.4605C67.9349 51.1805 68.1109 51.7405 68.4629 52.1405C68.8229 52.5405 69.3029 52.7405 69.9029 52.7405ZM77.7267 54.1445C77.0067 54.1445 76.3947 54.0165 75.8907 53.7605C75.3947 53.5045 74.9667 53.1685 74.6067 52.7525L75.6747 51.7205C75.9627 52.0565 76.2827 52.3125 76.6347 52.4885C76.9947 52.6645 77.3907 52.7525 77.8227 52.7525C78.3107 52.7525 78.6787 52.6485 78.9267 52.4405C79.1747 52.2245 79.2987 51.9365 79.2987 51.5765C79.2987 51.2965 79.2187 51.0685 79.0587 50.8925C78.8987 50.7165 78.5987 50.5885 78.1587 50.5085L77.3667 50.3885C75.6947 50.1245 74.8587 49.3125 74.8587 47.9525C74.8587 47.5765 74.9267 47.2365 75.0627 46.9325C75.2067 46.6285 75.4107 46.3685 75.6747 46.1525C75.9387 45.9365 76.2547 45.7725 76.6227 45.6605C76.9987 45.5405 77.4227 45.4805 77.8947 45.4805C78.5267 45.4805 79.0787 45.5845 79.5507 45.7925C80.0227 46.0005 80.4267 46.3085 80.7627 46.7165L79.6827 47.7365C79.4747 47.4805 79.2227 47.2725 78.9267 47.1125C78.6307 46.9525 78.2587 46.8725 77.8107 46.8725C77.3547 46.8725 77.0107 46.9605 76.7787 47.1365C76.5547 47.3045 76.4427 47.5445 76.4427 47.8565C76.4427 48.1765 76.5347 48.4125 76.7187 48.5645C76.9027 48.7165 77.1987 48.8285 77.6067 48.9005L78.3867 49.0445C79.2347 49.1965 79.8587 49.4685 80.2587 49.8605C80.6667 50.2445 80.8707 50.7845 80.8707 51.4805C80.8707 51.8805 80.7987 52.2445 80.6547 52.5725C80.5187 52.8925 80.3147 53.1725 80.0427 53.4125C79.7787 53.6445 79.4507 53.8245 79.0587 53.9525C78.6747 54.0805 78.2307 54.1445 77.7267 54.1445ZM85.5122 47.0285V54.0005H83.9282V47.0285H81.5522V45.6245H87.8882V47.0285H85.5122ZM88.3464 51.1085V49.5845H91.7784V51.1085H88.3464ZM96.1997 47.0285V54.0005H94.6157V47.0285H92.2397V45.6245H98.5757V47.0285H96.1997ZM101.457 54.0005H99.8727V45.6245H103.653C104.037 45.6245 104.381 45.6845 104.685 45.8045C104.989 45.9245 105.245 46.1005 105.453 46.3325C105.669 46.5565 105.833 46.8285 105.945 47.1485C106.065 47.4685 106.125 47.8245 106.125 48.2165C106.125 48.7925 105.993 49.2885 105.729 49.7045C105.473 50.1205 105.085 50.4165 104.565 50.5925L106.281 54.0005H104.517L102.957 50.7725H101.457V54.0005ZM103.497 49.4405C103.801 49.4405 104.041 49.3605 104.217 49.2005C104.393 49.0325 104.481 48.7965 104.481 48.4925V47.9405C104.481 47.6365 104.393 47.4045 104.217 47.2445C104.041 47.0845 103.801 47.0045 103.497 47.0045H101.457V49.4405H103.497ZM113.025 54.0005L112.353 51.8645H109.377L108.717 54.0005H107.109L109.917 45.6245H111.885L114.669 54.0005H113.025ZM110.889 47.0645H110.829L109.761 50.5085H111.969L110.889 47.0645ZM115.556 54.0005V52.7285H116.66V46.8965H115.556V45.6245H119.36V46.8965H118.244V52.7285H119.36V54.0005H115.556ZM124.208 47.0285V54.0005H122.624V47.0285H120.248V45.6245H126.584V47.0285H124.208ZM127.88 54.0005V45.6245H133.4V47.0285H129.464V49.0565H132.944V50.4605H129.464V52.5965H133.4V54.0005H127.88ZM141.4 47.9885H141.352L140.704 49.3205L138.988 52.4885L137.272 49.3205L136.624 47.9885H136.576V54.0005H135.076V45.6245H136.864L139.012 49.7165H139.06L141.184 45.6245H142.9V54.0005H141.4V47.9885ZM144.873 54.0005V45.6245H150.393V47.0285H146.457V49.0565H149.937V50.4605H146.457V52.5965H150.393V54.0005H144.873ZM154.468 49.7045L153.604 47.9645H153.568V54.0005H152.068V45.6245H153.808L156.328 49.9205L157.192 51.6605H157.228V45.6245H158.728V54.0005H156.988L154.468 49.7045ZM163.981 47.0285V54.0005H162.397V47.0285H160.021V45.6245H166.357V47.0285H163.981ZM170.49 54.0005V45.6245H174.258C174.642 45.6245 174.986 45.6885 175.29 45.8165C175.602 45.9365 175.866 46.1125 176.082 46.3445C176.298 46.5685 176.462 46.8405 176.574 47.1605C176.686 47.4805 176.742 47.8325 176.742 48.2165C176.742 48.6085 176.686 48.9645 176.574 49.2845C176.462 49.5965 176.298 49.8685 176.082 50.1005C175.866 50.3245 175.602 50.5005 175.29 50.6285C174.986 50.7485 174.642 50.8085 174.258 50.8085H172.074V54.0005H170.49ZM172.074 49.4405H174.114C174.418 49.4405 174.658 49.3605 174.834 49.2005C175.01 49.0325 175.098 48.7965 175.098 48.4925V47.9405C175.098 47.6365 175.01 47.4045 174.834 47.2445C174.658 47.0845 174.418 47.0045 174.114 47.0045H172.074V49.4405ZM177.829 54.0005V52.7285H178.933V46.8965H177.829V45.6245H181.633V46.8965H180.517V52.7285H181.633V54.0005H177.829ZM183.252 54.0005V45.6245H184.836V52.5965H188.136V54.0005H183.252ZM192.352 54.1445C191.8 54.1445 191.3 54.0525 190.852 53.8685C190.404 53.6845 190.02 53.4085 189.7 53.0405C189.388 52.6725 189.144 52.2205 188.968 51.6845C188.792 51.1485 188.704 50.5245 188.704 49.8125C188.704 49.1085 188.792 48.4885 188.968 47.9525C189.144 47.4085 189.388 46.9525 189.7 46.5845C190.02 46.2165 190.404 45.9405 190.852 45.7565C191.3 45.5725 191.8 45.4805 192.352 45.4805C192.904 45.4805 193.404 45.5725 193.852 45.7565C194.3 45.9405 194.684 46.2165 195.004 46.5845C195.324 46.9525 195.568 47.4085 195.736 47.9525C195.912 48.4885 196 49.1085 196 49.8125C196 50.5245 195.912 51.1485 195.736 51.6845C195.568 52.2205 195.324 52.6725 195.004 53.0405C194.684 53.4085 194.3 53.6845 193.852 53.8685C193.404 54.0525 192.904 54.1445 192.352 54.1445ZM192.352 52.7405C192.952 52.7405 193.428 52.5405 193.78 52.1405C194.14 51.7405 194.32 51.1805 194.32 50.4605V49.1645C194.32 48.4445 194.14 47.8845 193.78 47.4845C193.428 47.0845 192.952 46.8845 192.352 46.8845C191.752 46.8845 191.272 47.0845 190.912 47.4845C190.56 47.8845 190.384 48.4445 190.384 49.1645V50.4605C190.384 51.1805 190.56 51.7405 190.912 52.1405C191.272 52.5405 191.752 52.7405 192.352 52.7405ZM200.602 47.0285V54.0005H199.018V47.0285H196.642V45.6245H202.978V47.0285H200.602ZM204.275 54.0005V45.6245H209.795V47.0285H205.859V49.0565H209.339V50.4605H205.859V52.5965H209.795V54.0005H204.275Z" fill="#41637D"/>
<rect x="234.539" y="82" width="83.9895" height="16.7979" fill="#39A4F5"/>
<rect x="234.486" y="82" width="51" height="17" fill="#1084DD"/>
<path d="M49.2735 95.144C48.5535 95.144 47.9415 95.016 47.4375 94.76C46.9415 94.504 46.5135 94.168 46.1535 93.752L47.2215 92.72C47.5095 93.056 47.8295 93.312 48.1815 93.488C48.5415 93.664 48.9375 93.752 49.3695 93.752C49.8575 93.752 50.2255 93.648 50.4735 93.44C50.7215 93.224 50.8455 92.936 50.8455 92.576C50.8455 92.296 50.7655 92.068 50.6055 91.892C50.4455 91.716 50.1455 91.588 49.7055 91.508L48.9135 91.388C47.2415 91.124 46.4055 90.312 46.4055 88.952C46.4055 88.576 46.4735 88.236 46.6095 87.932C46.7535 87.628 46.9575 87.368 47.2215 87.152C47.4855 86.936 47.8015 86.772 48.1695 86.66C48.5455 86.54 48.9695 86.48 49.4415 86.48C50.0735 86.48 50.6255 86.584 51.0975 86.792C51.5695 87 51.9735 87.308 52.3095 87.716L51.2295 88.736C51.0215 88.48 50.7695 88.272 50.4735 88.112C50.1775 87.952 49.8055 87.872 49.3575 87.872C48.9015 87.872 48.5575 87.96 48.3255 88.136C48.1015 88.304 47.9895 88.544 47.9895 88.856C47.9895 89.176 48.0815 89.412 48.2655 89.564C48.4495 89.716 48.7455 89.828 49.1535 89.9L49.9335 90.044C50.7815 90.196 51.4055 90.468 51.8055 90.86C52.2135 91.244 52.4175 91.784 52.4175 92.48C52.4175 92.88 52.3455 93.244 52.2015 93.572C52.0655 93.892 51.8615 94.172 51.5895 94.412C51.3255 94.644 50.9975 94.824 50.6055 94.952C50.2215 95.08 49.7775 95.144 49.2735 95.144ZM57.2575 95.144C56.7055 95.144 56.2055 95.056 55.7575 94.88C55.3175 94.696 54.9375 94.424 54.6175 94.064C54.3055 93.704 54.0655 93.26 53.8975 92.732C53.7295 92.196 53.6455 91.576 53.6455 90.872C53.6455 90.168 53.7295 89.544 53.8975 89C54.0655 88.448 54.3055 87.988 54.6175 87.62C54.9375 87.244 55.3175 86.96 55.7575 86.768C56.2055 86.576 56.7055 86.48 57.2575 86.48C58.0095 86.48 58.6335 86.64 59.1295 86.96C59.6255 87.28 60.0215 87.764 60.3175 88.412L58.9615 89.132C58.8415 88.756 58.6455 88.456 58.3735 88.232C58.1015 88 57.7295 87.884 57.2575 87.884C56.6655 87.884 56.1935 88.084 55.8415 88.484C55.4975 88.884 55.3255 89.444 55.3255 90.164V91.484C55.3255 92.212 55.4975 92.772 55.8415 93.164C56.1935 93.548 56.6655 93.74 57.2575 93.74C57.7295 93.74 58.1135 93.612 58.4095 93.356C58.7135 93.1 58.9335 92.784 59.0695 92.408L60.3535 93.164C60.0495 93.788 59.6455 94.276 59.1415 94.628C58.6375 94.972 58.0095 95.144 57.2575 95.144ZM66.8184 95L66.1464 92.864H63.1704L62.5104 95H60.9024L63.7104 86.624H65.6784L68.4624 95H66.8184ZM64.6824 88.064H64.6224L63.5544 91.508H65.7624L64.6824 88.064ZM69.6969 95V86.624H71.2809V93.596H74.5809V95H69.6969ZM75.9547 95V86.624H81.4747V88.028H77.5387V90.056H81.0187V91.46H77.5387V93.596H81.4747V95H75.9547ZM82.862 92.108V90.584H86.294V92.108H82.862ZM89.4781 86.624V91.772C89.4781 92.428 89.6021 92.92 89.8501 93.248C90.1061 93.576 90.5341 93.74 91.1341 93.74C91.7341 93.74 92.1581 93.576 92.4061 93.248C92.6621 92.92 92.7901 92.428 92.7901 91.772V86.624H94.3501V91.568C94.3501 92.184 94.2901 92.716 94.1701 93.164C94.0581 93.612 93.8741 93.984 93.6181 94.28C93.3621 94.576 93.0261 94.796 92.6101 94.94C92.2021 95.076 91.7061 95.144 91.1221 95.144C90.5301 95.144 90.0301 95.076 89.6221 94.94C89.2221 94.796 88.8941 94.576 88.6381 94.28C88.3821 93.984 88.1981 93.612 88.0861 93.164C87.9741 92.716 87.9181 92.184 87.9181 91.568V86.624H89.4781ZM96.2633 95V86.624H100.031C100.415 86.624 100.759 86.688 101.063 86.816C101.375 86.936 101.639 87.112 101.855 87.344C102.071 87.568 102.235 87.84 102.347 88.16C102.459 88.48 102.515 88.832 102.515 89.216C102.515 89.608 102.459 89.964 102.347 90.284C102.235 90.596 102.071 90.868 101.855 91.1C101.639 91.324 101.375 91.5 101.063 91.628C100.759 91.748 100.415 91.808 100.031 91.808H97.8473V95H96.2633ZM97.8473 90.44H99.8873C100.191 90.44 100.431 90.36 100.607 90.2C100.783 90.032 100.871 89.796 100.871 89.492V88.94C100.871 88.636 100.783 88.404 100.607 88.244C100.431 88.084 100.191 88.004 99.8873 88.004H97.8473V90.44ZM106.787 95V86.624H108.371V93.596H111.671V95H106.787ZM118.439 95L117.767 92.864H114.791L114.131 95H112.523L115.331 86.624H117.299L120.083 95H118.439ZM116.303 88.064H116.243L115.175 91.508H117.383L116.303 88.064ZM121.318 86.624H125.194C125.538 86.624 125.846 86.676 126.118 86.78C126.398 86.884 126.634 87.028 126.826 87.212C127.018 87.396 127.162 87.624 127.258 87.896C127.362 88.16 127.414 88.452 127.414 88.772C127.414 89.092 127.37 89.364 127.282 89.588C127.202 89.804 127.09 89.984 126.946 90.128C126.81 90.272 126.65 90.38 126.466 90.452C126.29 90.524 126.106 90.564 125.914 90.572V90.644C126.098 90.644 126.294 90.68 126.502 90.752C126.718 90.824 126.914 90.94 127.09 91.1C127.274 91.252 127.426 91.452 127.546 91.7C127.666 91.94 127.726 92.24 127.726 92.6C127.726 92.936 127.67 93.252 127.558 93.548C127.454 93.836 127.306 94.088 127.114 94.304C126.922 94.52 126.694 94.692 126.43 94.82C126.166 94.94 125.878 95 125.566 95H121.318V86.624ZM122.902 93.656H125.11C125.414 93.656 125.65 93.58 125.818 93.428C125.986 93.268 126.07 93.04 126.07 92.744V92.336C126.07 92.04 125.986 91.812 125.818 91.652C125.65 91.492 125.414 91.412 125.11 91.412H122.902V93.656ZM122.902 90.116H124.858C125.146 90.116 125.37 90.04 125.53 89.888C125.69 89.728 125.77 89.508 125.77 89.228V88.856C125.77 88.576 125.69 88.36 125.53 88.208C125.37 88.048 125.146 87.968 124.858 87.968H122.902V90.116ZM132.563 95.144C132.011 95.144 131.511 95.052 131.063 94.868C130.615 94.684 130.231 94.408 129.911 94.04C129.599 93.672 129.355 93.22 129.179 92.684C129.003 92.148 128.915 91.524 128.915 90.812C128.915 90.108 129.003 89.488 129.179 88.952C129.355 88.408 129.599 87.952 129.911 87.584C130.231 87.216 130.615 86.94 131.063 86.756C131.511 86.572 132.011 86.48 132.563 86.48C133.115 86.48 133.615 86.572 134.063 86.756C134.511 86.94 134.895 87.216 135.215 87.584C135.535 87.952 135.779 88.408 135.947 88.952C136.123 89.488 136.211 90.108 136.211 90.812C136.211 91.524 136.123 92.148 135.947 92.684C135.779 93.22 135.535 93.672 135.215 94.04C134.895 94.408 134.511 94.684 134.063 94.868C133.615 95.052 133.115 95.144 132.563 95.144ZM132.563 93.74C133.163 93.74 133.639 93.54 133.991 93.14C134.351 92.74 134.531 92.18 134.531 91.46V90.164C134.531 89.444 134.351 88.884 133.991 88.484C133.639 88.084 133.163 87.884 132.563 87.884C131.963 87.884 131.483 88.084 131.123 88.484C130.771 88.884 130.595 89.444 130.595 90.164V91.46C130.595 92.18 130.771 92.74 131.123 93.14C131.483 93.54 131.963 93.74 132.563 93.74ZM140.306 95V93.728H141.41V87.896H140.306V86.624H144.11V87.896H142.994V93.728H144.11V95H140.306ZM148.128 90.704L147.264 88.964H147.228V95H145.728V86.624H147.468L149.988 90.92L150.852 92.66H150.888V86.624H152.388V95H150.648L148.128 90.704ZM154.353 86.624H157.401C157.945 86.624 158.437 86.712 158.877 86.888C159.325 87.064 159.705 87.328 160.017 87.68C160.337 88.024 160.581 88.46 160.749 88.988C160.925 89.508 161.013 90.116 161.013 90.812C161.013 91.508 160.925 92.12 160.749 92.648C160.581 93.168 160.337 93.604 160.017 93.956C159.705 94.3 159.325 94.56 158.877 94.736C158.437 94.912 157.945 95 157.401 95H154.353V86.624ZM157.401 93.596C157.993 93.596 158.461 93.424 158.805 93.08C159.157 92.728 159.333 92.192 159.333 91.472V90.152C159.333 89.432 159.157 88.9 158.805 88.556C158.461 88.204 157.993 88.028 157.401 88.028H155.937V93.596H157.401ZM164.127 86.624V91.772C164.127 92.428 164.251 92.92 164.499 93.248C164.755 93.576 165.183 93.74 165.783 93.74C166.383 93.74 166.807 93.576 167.055 93.248C167.311 92.92 167.439 92.428 167.439 91.772V86.624H168.999V91.568C168.999 92.184 168.939 92.716 168.819 93.164C168.707 93.612 168.523 93.984 168.267 94.28C168.011 94.576 167.675 94.796 167.259 94.94C166.851 95.076 166.355 95.144 165.771 95.144C165.179 95.144 164.679 95.076 164.271 94.94C163.871 94.796 163.543 94.576 163.287 94.28C163.031 93.984 162.847 93.612 162.735 93.164C162.623 92.716 162.567 92.184 162.567 91.568V86.624H164.127ZM173.516 95.144C172.796 95.144 172.184 95.016 171.68 94.76C171.184 94.504 170.756 94.168 170.396 93.752L171.464 92.72C171.752 93.056 172.072 93.312 172.424 93.488C172.784 93.664 173.18 93.752 173.612 93.752C174.1 93.752 174.468 93.648 174.716 93.44C174.964 93.224 175.088 92.936 175.088 92.576C175.088 92.296 175.008 92.068 174.848 91.892C174.688 91.716 174.388 91.588 173.948 91.508L173.156 91.388C171.484 91.124 170.648 90.312 170.648 88.952C170.648 88.576 170.716 88.236 170.852 87.932C170.996 87.628 171.2 87.368 171.464 87.152C171.728 86.936 172.044 86.772 172.412 86.66C172.788 86.54 173.212 86.48 173.684 86.48C174.316 86.48 174.868 86.584 175.34 86.792C175.812 87 176.216 87.308 176.552 87.716L175.472 88.736C175.264 88.48 175.012 88.272 174.716 88.112C174.42 87.952 174.048 87.872 173.6 87.872C173.144 87.872 172.8 87.96 172.568 88.136C172.344 88.304 172.232 88.544 172.232 88.856C172.232 89.176 172.324 89.412 172.508 89.564C172.692 89.716 172.988 89.828 173.396 89.9L174.176 90.044C175.024 90.196 175.648 90.468 176.048 90.86C176.456 91.244 176.66 91.784 176.66 92.48C176.66 92.88 176.588 93.244 176.444 93.572C176.308 93.892 176.104 94.172 175.832 94.412C175.568 94.644 175.24 94.824 174.848 94.952C174.464 95.08 174.02 95.144 173.516 95.144ZM181.301 88.028V95H179.717V88.028H177.341V86.624H183.677V88.028H181.301ZM186.558 95H184.974V86.624H188.754C189.138 86.624 189.482 86.684 189.786 86.804C190.09 86.924 190.346 87.1 190.554 87.332C190.77 87.556 190.934 87.828 191.046 88.148C191.166 88.468 191.226 88.824 191.226 89.216C191.226 89.792 191.094 90.288 190.83 90.704C190.574 91.12 190.186 91.416 189.666 91.592L191.382 95H189.618L188.058 91.772H186.558V95ZM188.598 90.44C188.902 90.44 189.142 90.36 189.318 90.2C189.494 90.032 189.582 89.796 189.582 89.492V88.94C189.582 88.636 189.494 88.404 189.318 88.244C189.142 88.084 188.902 88.004 188.598 88.004H186.558V90.44H188.598ZM192.595 95V93.728H193.699V87.896H192.595V86.624H196.399V87.896H195.283V93.728H196.399V95H192.595ZM198.017 95V86.624H203.537V88.028H199.601V90.056H203.081V91.46H199.601V93.596H203.537V95H198.017ZM205.213 95V86.624H206.797V93.596H210.097V95H205.213Z" fill="#41637D"/>
<rect x="234.539" y="164" width="83.9895" height="16.7979" fill="#EDEDED"/>
<rect x="234.486" y="164.202" width="18" height="17" fill="#39A4F5"/>
<rect x="234.486" y="164.202" width="10" height="17" fill="#1084DD"/>
<path d="M42.3707 177V168.624H47.7587V170.028H43.9547V172.056H47.2667V173.46H43.9547V177H42.3707ZM52.2681 177.144C51.7161 177.144 51.2161 177.052 50.7681 176.868C50.3201 176.684 49.9361 176.408 49.6161 176.04C49.3041 175.672 49.0601 175.22 48.8841 174.684C48.7081 174.148 48.6201 173.524 48.6201 172.812C48.6201 172.108 48.7081 171.488 48.8841 170.952C49.0601 170.408 49.3041 169.952 49.6161 169.584C49.9361 169.216 50.3201 168.94 50.7681 168.756C51.2161 168.572 51.7161 168.48 52.2681 168.48C52.8201 168.48 53.3201 168.572 53.7681 168.756C54.2161 168.94 54.6001 169.216 54.9201 169.584C55.2401 169.952 55.4841 170.408 55.6521 170.952C55.8281 171.488 55.9161 172.108 55.9161 172.812C55.9161 173.524 55.8281 174.148 55.6521 174.684C55.4841 175.22 55.2401 175.672 54.9201 176.04C54.6001 176.408 54.2161 176.684 53.7681 176.868C53.3201 177.052 52.8201 177.144 52.2681 177.144ZM52.2681 175.74C52.8681 175.74 53.3441 175.54 53.6961 175.14C54.0561 174.74 54.2361 174.18 54.2361 173.46V172.164C54.2361 171.444 54.0561 170.884 53.6961 170.484C53.3441 170.084 52.8681 169.884 52.2681 169.884C51.6681 169.884 51.1881 170.084 50.8281 170.484C50.4761 170.884 50.3001 171.444 50.3001 172.164V173.46C50.3001 174.18 50.4761 174.74 50.8281 175.14C51.1881 175.54 51.6681 175.74 52.2681 175.74ZM59.1071 177H57.5231V168.624H61.3031C61.6871 168.624 62.0311 168.684 62.3351 168.804C62.6391 168.924 62.8951 169.1 63.1031 169.332C63.3191 169.556 63.4831 169.828 63.5951 170.148C63.7151 170.468 63.7751 170.824 63.7751 171.216C63.7751 171.792 63.6431 172.288 63.3791 172.704C63.1231 173.12 62.7351 173.416 62.2151 173.592L63.9311 177H62.1671L60.6071 173.772H59.1071V177ZM61.1471 172.44C61.4511 172.44 61.6911 172.36 61.8671 172.2C62.0431 172.032 62.1311 171.796 62.1311 171.492V170.94C62.1311 170.636 62.0431 170.404 61.8671 170.244C61.6911 170.084 61.4511 170.004 61.1471 170.004H59.1071V172.44H61.1471ZM71.8158 170.988H71.7678L71.1198 172.32L69.4038 175.488L67.6878 172.32L67.0398 170.988H66.9918V177H65.4918V168.624H67.2798L69.4278 172.716H69.4758L71.5998 168.624H73.3158V177H71.8158V170.988ZM76.7887 168.624V173.772C76.7887 174.428 76.9127 174.92 77.1607 175.248C77.4167 175.576 77.8447 175.74 78.4447 175.74C79.0447 175.74 79.4687 175.576 79.7167 175.248C79.9727 174.92 80.1007 174.428 80.1007 173.772V168.624H81.6607V173.568C81.6607 174.184 81.6007 174.716 81.4807 175.164C81.3687 175.612 81.1847 175.984 80.9287 176.28C80.6727 176.576 80.3367 176.796 79.9207 176.94C79.5127 177.076 79.0167 177.144 78.4327 177.144C77.8407 177.144 77.3407 177.076 76.9327 176.94C76.5327 176.796 76.2047 176.576 75.9487 176.28C75.6927 175.984 75.5087 175.612 75.3967 175.164C75.2847 174.716 75.2287 174.184 75.2287 173.568V168.624H76.7887ZM83.5738 177V168.624H85.1578V175.596H88.4578V177H83.5738ZM95.2266 177L94.5546 174.864H91.5786L90.9186 177H89.3106L92.1186 168.624H94.0866L96.8706 177H95.2266ZM93.0906 170.064H93.0306L91.9626 173.508H94.1706L93.0906 170.064ZM100.608 170.028V177H99.0239V170.028H96.6479V168.624H102.984V170.028H100.608ZM103.874 177V175.728H104.978V169.896H103.874V168.624H107.678V169.896H106.562V175.728H107.678V177H103.874ZM112.585 177.144C112.033 177.144 111.533 177.052 111.085 176.868C110.637 176.684 110.253 176.408 109.933 176.04C109.621 175.672 109.377 175.22 109.201 174.684C109.025 174.148 108.937 173.524 108.937 172.812C108.937 172.108 109.025 171.488 109.201 170.952C109.377 170.408 109.621 169.952 109.933 169.584C110.253 169.216 110.637 168.94 111.085 168.756C111.533 168.572 112.033 168.48 112.585 168.48C113.137 168.48 113.637 168.572 114.085 168.756C114.533 168.94 114.917 169.216 115.237 169.584C115.557 169.952 115.801 170.408 115.969 170.952C116.145 171.488 116.233 172.108 116.233 172.812C116.233 173.524 116.145 174.148 115.969 174.684C115.801 175.22 115.557 175.672 115.237 176.04C114.917 176.408 114.533 176.684 114.085 176.868C113.637 177.052 113.137 177.144 112.585 177.144ZM112.585 175.74C113.185 175.74 113.661 175.54 114.013 175.14C114.373 174.74 114.553 174.18 114.553 173.46V172.164C114.553 171.444 114.373 170.884 114.013 170.484C113.661 170.084 113.185 169.884 112.585 169.884C111.985 169.884 111.505 170.084 111.145 170.484C110.793 170.884 110.617 171.444 110.617 172.164V173.46C110.617 174.18 110.793 174.74 111.145 175.14C111.505 175.54 111.985 175.74 112.585 175.74ZM120.239 172.704L119.375 170.964H119.339V177H117.839V168.624H119.579L122.099 172.92L122.963 174.66H122.999V168.624H124.499V177H122.759L120.239 172.704ZM134.172 176.232C134.052 176.336 133.916 176.444 133.764 176.556C133.612 176.66 133.436 176.756 133.236 176.844C133.044 176.932 132.824 177.004 132.576 177.06C132.336 177.116 132.064 177.144 131.76 177.144C131.312 177.144 130.912 177.084 130.56 176.964C130.216 176.844 129.928 176.68 129.696 176.472C129.464 176.264 129.288 176.02 129.168 175.74C129.048 175.452 128.988 175.144 128.988 174.816C128.988 174.52 129.032 174.26 129.12 174.036C129.208 173.804 129.328 173.596 129.48 173.412C129.632 173.22 129.812 173.052 130.02 172.908C130.228 172.756 130.448 172.612 130.68 172.476C130.432 172.196 130.212 171.892 130.02 171.564C129.836 171.228 129.744 170.868 129.744 170.484C129.744 170.212 129.8 169.956 129.912 169.716C130.024 169.468 130.184 169.252 130.392 169.068C130.608 168.884 130.864 168.74 131.16 168.636C131.456 168.532 131.788 168.48 132.156 168.48C132.484 168.48 132.788 168.524 133.068 168.612C133.348 168.7 133.588 168.824 133.788 168.984C133.996 169.144 134.156 169.34 134.268 169.572C134.388 169.804 134.448 170.068 134.448 170.364C134.448 170.628 134.4 170.872 134.304 171.096C134.216 171.312 134.092 171.512 133.932 171.696C133.772 171.872 133.588 172.04 133.38 172.2C133.172 172.352 132.948 172.496 132.708 172.632L134.172 174.216C134.284 173.944 134.368 173.656 134.424 173.352C134.488 173.048 134.528 172.744 134.544 172.44H136.428V173.724H135.648C135.528 174.268 135.344 174.764 135.096 175.212L136.752 177H134.868L134.172 176.232ZM132.108 169.668C131.852 169.668 131.64 169.744 131.472 169.896C131.304 170.04 131.22 170.236 131.22 170.484V170.568C131.22 170.752 131.276 170.936 131.388 171.12C131.508 171.296 131.692 171.524 131.94 171.804C132.244 171.62 132.492 171.428 132.684 171.228C132.884 171.028 132.984 170.796 132.984 170.532V170.46C132.984 170.204 132.896 170.008 132.72 169.872C132.552 169.736 132.348 169.668 132.108 169.668ZM131.964 175.86C132.252 175.86 132.512 175.816 132.744 175.728C132.976 175.64 133.18 175.52 133.356 175.368L131.448 173.304C131.168 173.472 130.948 173.652 130.788 173.844C130.636 174.028 130.56 174.264 130.56 174.552V174.684C130.56 175.036 130.68 175.32 130.92 175.536C131.16 175.752 131.508 175.86 131.964 175.86ZM142.635 177L139.899 168.624H141.519L142.803 172.704L143.547 175.488H143.583L144.315 172.704L145.599 168.624H147.171L144.435 177H142.635ZM152.93 177L152.258 174.864H149.282L148.622 177H147.014L149.822 168.624H151.79L154.574 177H152.93ZM150.794 170.064H150.734L149.666 173.508H151.874L150.794 170.064ZM155.808 177V168.624H157.392V175.596H160.692V177H155.808ZM161.718 177V175.728H162.822V169.896H161.718V168.624H165.522V169.896H164.406V175.728H165.522V177H161.718ZM167.14 168.624H170.188C170.732 168.624 171.224 168.712 171.664 168.888C172.112 169.064 172.492 169.328 172.804 169.68C173.124 170.024 173.368 170.46 173.536 170.988C173.712 171.508 173.8 172.116 173.8 172.812C173.8 173.508 173.712 174.12 173.536 174.648C173.368 175.168 173.124 175.604 172.804 175.956C172.492 176.3 172.112 176.56 171.664 176.736C171.224 176.912 170.732 177 170.188 177H167.14V168.624ZM170.188 175.596C170.78 175.596 171.248 175.424 171.592 175.08C171.944 174.728 172.12 174.192 172.12 173.472V172.152C172.12 171.432 171.944 170.9 171.592 170.556C171.248 170.204 170.78 170.028 170.188 170.028H168.724V175.596H170.188ZM180.234 177L179.562 174.864H176.586L175.926 177H174.318L177.126 168.624H179.094L181.878 177H180.234ZM178.098 170.064H178.038L176.97 173.508H179.178L178.098 170.064ZM185.616 170.028V177H184.032V170.028H181.656V168.624H187.992V170.028H185.616ZM188.882 177V175.728H189.986V169.896H188.882V168.624H192.686V169.896H191.57V175.728H192.686V177H188.882ZM197.592 177.144C197.04 177.144 196.54 177.052 196.092 176.868C195.644 176.684 195.26 176.408 194.94 176.04C194.628 175.672 194.384 175.22 194.208 174.684C194.032 174.148 193.944 173.524 193.944 172.812C193.944 172.108 194.032 171.488 194.208 170.952C194.384 170.408 194.628 169.952 194.94 169.584C195.26 169.216 195.644 168.94 196.092 168.756C196.54 168.572 197.04 168.48 197.592 168.48C198.144 168.48 198.644 168.572 199.092 168.756C199.54 168.94 199.924 169.216 200.244 169.584C200.564 169.952 200.808 170.408 200.976 170.952C201.152 171.488 201.24 172.108 201.24 172.812C201.24 173.524 201.152 174.148 200.976 174.684C200.808 175.22 200.564 175.672 200.244 176.04C199.924 176.408 199.54 176.684 199.092 176.868C198.644 177.052 198.144 177.144 197.592 177.144ZM197.592 175.74C198.192 175.74 198.668 175.54 199.02 175.14C199.38 174.74 199.56 174.18 199.56 173.46V172.164C199.56 171.444 199.38 170.884 199.02 170.484C198.668 170.084 198.192 169.884 197.592 169.884C196.992 169.884 196.512 170.084 196.152 170.484C195.8 170.884 195.624 171.444 195.624 172.164V173.46C195.624 174.18 195.8 174.74 196.152 175.14C196.512 175.54 196.992 175.74 197.592 175.74ZM205.247 172.704L204.383 170.964H204.347V177H202.847V168.624H204.587L207.107 172.92L207.971 174.66H208.007V168.624H209.507V177H207.767L205.247 172.704Z" fill="#F6851E"/>
<rect x="234.539" y="123" width="83.9895" height="16.7979" fill="#EDEDED"/>
<rect x="234.486" y="123" width="64" height="17" fill="#39A4F5"/>
<rect x="234.486" y="123" width="18" height="17" fill="#1084DD"/>
<path d="M98.4024 136.404L97.7304 134.268H94.7544L94.0944 136.404H92.4864L95.2944 128.028H97.2624L100.046 136.404H98.4024ZM96.2664 129.468H96.2064L95.1384 132.912H97.3464L96.2664 129.468ZM103.681 132.108L102.817 130.368H102.781V136.404H101.281V128.028H103.021L105.541 132.324L106.405 134.064H106.441V128.028H107.941V136.404H106.201L103.681 132.108ZM115.09 136.404L114.418 134.268H111.442L110.782 136.404H109.174L111.982 128.028H113.95L116.734 136.404H115.09ZM112.954 129.468H112.894L111.826 132.912H114.034L112.954 129.468ZM117.968 136.404V128.028H119.552V135H122.852V136.404H117.968ZM125.211 136.404V133.116L122.343 128.028H124.119L126.051 131.568H126.075L127.959 128.028H129.687L126.807 133.104V136.404H125.211ZM132.936 136.548C132.216 136.548 131.604 136.42 131.1 136.164C130.604 135.908 130.176 135.572 129.816 135.156L130.884 134.124C131.172 134.46 131.492 134.716 131.844 134.892C132.204 135.068 132.6 135.156 133.032 135.156C133.52 135.156 133.888 135.052 134.136 134.844C134.384 134.628 134.508 134.34 134.508 133.98C134.508 133.7 134.428 133.472 134.268 133.296C134.108 133.12 133.808 132.992 133.368 132.912L132.576 132.792C130.904 132.528 130.068 131.716 130.068 130.356C130.068 129.98 130.136 129.64 130.272 129.336C130.416 129.032 130.62 128.772 130.884 128.556C131.148 128.34 131.464 128.176 131.832 128.064C132.208 127.944 132.632 127.884 133.104 127.884C133.736 127.884 134.288 127.988 134.76 128.196C135.232 128.404 135.636 128.712 135.972 129.12L134.892 130.14C134.684 129.884 134.432 129.676 134.136 129.516C133.84 129.356 133.468 129.276 133.02 129.276C132.564 129.276 132.22 129.364 131.988 129.54C131.764 129.708 131.652 129.948 131.652 130.26C131.652 130.58 131.744 130.816 131.928 130.968C132.112 131.12 132.408 131.232 132.816 131.304L133.596 131.448C134.444 131.6 135.068 131.872 135.468 132.264C135.876 132.648 136.08 133.188 136.08 133.884C136.08 134.284 136.008 134.648 135.864 134.976C135.728 135.296 135.524 135.576 135.252 135.816C134.988 136.048 134.66 136.228 134.268 136.356C133.884 136.484 133.44 136.548 132.936 136.548ZM137.668 136.404V128.028H143.188V129.432H139.252V131.46H142.732V132.864H139.252V135H143.188V136.404H137.668ZM149.283 136.404H147.699V128.028H151.479C151.863 128.028 152.207 128.088 152.511 128.208C152.815 128.328 153.071 128.504 153.279 128.736C153.495 128.96 153.659 129.232 153.771 129.552C153.891 129.872 153.951 130.228 153.951 130.62C153.951 131.196 153.819 131.692 153.555 132.108C153.299 132.524 152.911 132.82 152.391 132.996L154.107 136.404H152.343L150.783 133.176H149.283V136.404ZM151.323 131.844C151.627 131.844 151.867 131.764 152.043 131.604C152.219 131.436 152.307 131.2 152.307 130.896V130.344C152.307 130.04 152.219 129.808 152.043 129.648C151.867 129.488 151.627 129.408 151.323 129.408H149.283V131.844H151.323ZM155.668 136.404V128.028H161.188V129.432H157.252V131.46H160.732V132.864H157.252V135H161.188V136.404H155.668ZM158.584 127.476L157.66 127.02L158.8 124.776L160.096 125.424L158.584 127.476ZM165.467 136.548C164.747 136.548 164.135 136.42 163.631 136.164C163.135 135.908 162.707 135.572 162.347 135.156L163.415 134.124C163.703 134.46 164.023 134.716 164.375 134.892C164.735 135.068 165.131 135.156 165.563 135.156C166.051 135.156 166.419 135.052 166.667 134.844C166.915 134.628 167.039 134.34 167.039 133.98C167.039 133.7 166.959 133.472 166.799 133.296C166.639 133.12 166.339 132.992 165.899 132.912L165.107 132.792C163.435 132.528 162.599 131.716 162.599 130.356C162.599 129.98 162.667 129.64 162.803 129.336C162.947 129.032 163.151 128.772 163.415 128.556C163.679 128.34 163.995 128.176 164.363 128.064C164.739 127.944 165.163 127.884 165.635 127.884C166.267 127.884 166.819 127.988 167.291 128.196C167.763 128.404 168.167 128.712 168.503 129.12L167.423 130.14C167.215 129.884 166.963 129.676 166.667 129.516C166.371 129.356 165.999 129.276 165.551 129.276C165.095 129.276 164.751 129.364 164.519 129.54C164.295 129.708 164.183 129.948 164.183 130.26C164.183 130.58 164.275 130.816 164.459 130.968C164.643 131.12 164.939 131.232 165.347 131.304L166.127 131.448C166.975 131.6 167.599 131.872 167.999 132.264C168.407 132.648 168.611 133.188 168.611 133.884C168.611 134.284 168.539 134.648 168.395 134.976C168.259 135.296 168.055 135.576 167.783 135.816C167.519 136.048 167.191 136.228 166.799 136.356C166.415 136.484 165.971 136.548 165.467 136.548ZM171.699 128.028V133.176C171.699 133.832 171.823 134.324 172.071 134.652C172.327 134.98 172.755 135.144 173.355 135.144C173.955 135.144 174.379 134.98 174.627 134.652C174.883 134.324 175.011 133.832 175.011 133.176V128.028H176.571V132.972C176.571 133.588 176.511 134.12 176.391 134.568C176.279 135.016 176.095 135.388 175.839 135.684C175.583 135.98 175.247 136.2 174.831 136.344C174.423 136.48 173.927 136.548 173.343 136.548C172.751 136.548 172.251 136.48 171.843 136.344C171.443 136.2 171.115 135.98 170.859 135.684C170.603 135.388 170.419 135.016 170.307 134.568C170.195 134.12 170.139 133.588 170.139 132.972V128.028H171.699ZM178.484 136.404V128.028H180.068V135H183.368V136.404H178.484ZM187.151 129.432V136.404H185.567V129.432H183.191V128.028H189.527V129.432H187.151ZM195.223 136.404L194.551 134.268H191.575L190.915 136.404H189.307L192.115 128.028H194.083L196.867 136.404H195.223ZM193.087 129.468H193.027L191.959 132.912H194.167L193.087 129.468ZM200.604 129.432V136.404H199.02V129.432H196.644V128.028H202.98V129.432H200.604ZM206.74 136.548C206.02 136.548 205.408 136.42 204.904 136.164C204.408 135.908 203.98 135.572 203.62 135.156L204.688 134.124C204.976 134.46 205.296 134.716 205.648 134.892C206.008 135.068 206.404 135.156 206.836 135.156C207.324 135.156 207.692 135.052 207.94 134.844C208.188 134.628 208.312 134.34 208.312 133.98C208.312 133.7 208.232 133.472 208.072 133.296C207.912 133.12 207.612 132.992 207.172 132.912L206.38 132.792C204.708 132.528 203.872 131.716 203.872 130.356C203.872 129.98 203.94 129.64 204.076 129.336C204.22 129.032 204.424 128.772 204.688 128.556C204.952 128.34 205.268 128.176 205.636 128.064C206.012 127.944 206.436 127.884 206.908 127.884C207.54 127.884 208.092 127.988 208.564 128.196C209.036 128.404 209.44 128.712 209.776 129.12L208.696 130.14C208.488 129.884 208.236 129.676 207.94 129.516C207.644 129.356 207.272 129.276 206.824 129.276C206.368 129.276 206.024 129.364 205.792 129.54C205.568 129.708 205.456 129.948 205.456 130.26C205.456 130.58 205.548 130.816 205.732 130.968C205.916 131.12 206.212 131.232 206.62 131.304L207.4 131.448C208.248 131.6 208.872 131.872 209.272 132.264C209.68 132.648 209.884 133.188 209.884 133.884C209.884 134.284 209.812 134.648 209.668 134.976C209.532 135.296 209.328 135.576 209.056 135.816C208.792 136.048 208.464 136.228 208.072 136.356C207.688 136.484 207.244 136.548 206.74 136.548Z" fill="#F6851E"/>
<line x1="234.959" y1="1.64788e-08" x2="234.959" y2="190" stroke="#41637D" stroke-width="0.839895"/>
<line x1="276.953" y1="1.64788e-08" x2="276.953" y2="190" stroke="#41637D" stroke-width="0.839895"/>
<line x1="318.949" y1="1.64788e-08" x2="318.949" y2="190" stroke="#41637D" stroke-width="0.839895"/>
<path d="M68 116C60.7629 116 54.875 121.888 54.875 129.125C54.875 134.96 58.72 140.076 64.2776 141.714L67.1614 147.482C67.3203 147.799 67.6448 148 68 148C68.355 148 68.6797 147.799 68.8384 147.482L71.7222 141.714C77.28 140.076 81.125 134.96 81.125 129.125C81.125 121.888 75.2371 116 68 116V116ZM70.8347 140.015C70.5725 140.083 70.3528 140.261 70.2317 140.503L68 144.966L65.7683 140.503C65.6472 140.261 65.4275 140.083 65.1653 140.015C60.2104 138.729 56.75 134.251 56.75 129.125C56.75 122.922 61.7966 117.875 68 117.875C74.2034 117.875 79.25 122.922 79.25 129.125C79.25 134.251 75.7896 138.729 70.8347 140.015Z" fill="#F6851E"/>
<path d="M68 125.375C65.9321 125.375 64.25 127.057 64.25 129.125C64.25 131.193 65.9321 132.875 68 132.875C70.0679 132.875 71.75 131.193 71.75 129.125C71.75 127.057 70.0679 125.375 68 125.375ZM68 131C66.9661 131 66.125 130.159 66.125 129.125C66.125 128.091 66.9661 127.25 68 127.25C69.0339 127.25 69.875 128.091 69.875 129.125C69.875 130.159 69.0339 131 68 131Z" fill="#F6851E"/>
<path d="M16 157C8.76294 157 2.875 162.888 2.875 170.125C2.875 175.96 6.71997 181.076 12.2776 182.714L15.1614 188.482C15.3203 188.799 15.6448 189 16 189C16.355 189 16.6797 188.799 16.8384 188.482L19.7222 182.714C25.28 181.076 29.125 175.96 29.125 170.125C29.125 162.888 23.2371 157 16 157V157ZM18.8347 181.015C18.5725 181.083 18.3528 181.261 18.2317 181.503L16 185.966L13.7683 181.503C13.6472 181.261 13.4275 181.083 13.1653 181.015C8.21045 179.729 4.75 175.251 4.75 170.125C4.75 163.922 9.79663 158.875 16 158.875C22.2034 158.875 27.25 163.922 27.25 170.125C27.25 175.251 23.7896 179.729 18.8347 181.015Z" fill="#F6851E"/>
<path d="M16 166.375C13.9321 166.375 12.25 168.057 12.25 170.125C12.25 172.193 13.9321 173.875 16 173.875C18.0679 173.875 19.75 172.193 19.75 170.125C19.75 168.057 18.0679 166.375 16 166.375ZM16 172C14.9661 172 14.125 171.159 14.125 170.125C14.125 169.091 14.9661 168.25 16 168.25C17.0339 168.25 17.875 169.091 17.875 170.125C17.875 171.159 17.0339 172 16 172Z" fill="#F6851E"/>
</svg>
