<svg width="327" height="216" viewBox="0 0 327 216" fill="none" xmlns="http://www.w3.org/2000/svg">
<path d="M219.413 212.144C218.877 212.144 218.413 212.048 218.021 211.856C217.629 211.656 217.305 211.372 217.049 211.004C216.793 210.636 216.601 210.184 216.473 209.648C216.353 209.112 216.293 208.5 216.293 207.812C216.293 207.132 216.353 206.524 216.473 205.988C216.601 205.444 216.793 204.988 217.049 204.62C217.305 204.252 217.629 203.972 218.021 203.78C218.413 203.58 218.877 203.48 219.413 203.48C220.477 203.48 221.261 203.86 221.765 204.62C222.277 205.38 222.533 206.444 222.533 207.812C222.533 209.18 222.277 210.244 221.765 211.004C221.261 211.764 220.477 212.144 219.413 212.144ZM219.413 210.812C219.949 210.812 220.321 210.612 220.529 210.212C220.745 209.804 220.853 209.256 220.853 208.568V207.056C220.853 206.368 220.745 205.824 220.529 205.424C220.321 205.016 219.949 204.812 219.413 204.812C218.877 204.812 218.501 205.016 218.285 205.424C218.077 205.824 217.973 206.368 217.973 207.056V208.568C217.973 209.256 218.077 209.804 218.285 210.212C218.501 210.612 218.877 210.812 219.413 210.812ZM225.168 212L230.976 203.624H232.368L226.56 212H225.168ZM225.744 208.232C225.064 208.232 224.544 208.032 224.184 207.632C223.832 207.224 223.656 206.632 223.656 205.856C223.656 205.08 223.832 204.492 224.184 204.092C224.544 203.684 225.064 203.48 225.744 203.48C226.424 203.48 226.94 203.684 227.292 204.092C227.644 204.492 227.82 205.08 227.82 205.856C227.82 206.632 227.644 207.224 227.292 207.632C226.94 208.032 226.424 208.232 225.744 208.232ZM225.744 207.32C226.24 207.32 226.488 206.94 226.488 206.18V205.532C226.488 204.772 226.24 204.392 225.744 204.392C225.248 204.392 225 204.772 225 205.532V206.18C225 206.94 225.248 207.32 225.744 207.32ZM231.792 212.144C231.12 212.144 230.604 211.944 230.244 211.544C229.892 211.136 229.716 210.544 229.716 209.768C229.716 208.992 229.892 208.404 230.244 208.004C230.604 207.596 231.12 207.392 231.792 207.392C232.472 207.392 232.988 207.596 233.34 208.004C233.7 208.404 233.88 208.992 233.88 209.768C233.88 210.544 233.7 211.136 233.34 211.544C232.988 211.944 232.472 212.144 231.792 212.144ZM231.792 211.232C232.288 211.232 232.536 210.852 232.536 210.092V209.444C232.536 208.684 232.288 208.304 231.792 208.304C231.296 208.304 231.048 208.684 231.048 209.444V210.092C231.048 210.852 231.296 211.232 231.792 211.232Z" fill="#41637D"/>
<path d="M259.787 204.992H256.019L255.827 207.8H255.911C255.999 207.624 256.095 207.46 256.199 207.308C256.303 207.156 256.423 207.028 256.559 206.924C256.695 206.82 256.851 206.74 257.027 206.684C257.211 206.62 257.431 206.588 257.687 206.588C258.047 206.588 258.383 206.648 258.695 206.768C259.007 206.888 259.275 207.064 259.499 207.296C259.731 207.52 259.911 207.796 260.039 208.124C260.175 208.452 260.243 208.824 260.243 209.24C260.243 209.664 260.175 210.052 260.039 210.404C259.903 210.756 259.703 211.064 259.439 211.328C259.175 211.584 258.851 211.784 258.467 211.928C258.083 212.072 257.643 212.144 257.147 212.144C256.763 212.144 256.419 212.1 256.115 212.012C255.811 211.932 255.543 211.82 255.311 211.676C255.079 211.532 254.879 211.368 254.711 211.184C254.543 210.992 254.395 210.792 254.267 210.584L255.419 209.696C255.515 209.856 255.615 210.008 255.719 210.152C255.823 210.288 255.943 210.408 256.079 210.512C256.223 210.616 256.379 210.7 256.547 210.764C256.723 210.82 256.927 210.848 257.159 210.848C257.631 210.848 257.987 210.716 258.227 210.452C258.475 210.188 258.599 209.828 258.599 209.372V209.276C258.599 208.844 258.475 208.504 258.227 208.256C257.979 208.008 257.635 207.884 257.195 207.884C256.851 207.884 256.571 207.952 256.355 208.088C256.139 208.216 255.967 208.356 255.839 208.508L254.543 208.328L254.855 203.624H259.787V204.992ZM264.403 212.144C263.867 212.144 263.403 212.048 263.011 211.856C262.619 211.656 262.295 211.372 262.039 211.004C261.783 210.636 261.591 210.184 261.463 209.648C261.343 209.112 261.283 208.5 261.283 207.812C261.283 207.132 261.343 206.524 261.463 205.988C261.591 205.444 261.783 204.988 262.039 204.62C262.295 204.252 262.619 203.972 263.011 203.78C263.403 203.58 263.867 203.48 264.403 203.48C265.467 203.48 266.251 203.86 266.755 204.62C267.267 205.38 267.523 206.444 267.523 207.812C267.523 209.18 267.267 210.244 266.755 211.004C266.251 211.764 265.467 212.144 264.403 212.144ZM264.403 210.812C264.939 210.812 265.311 210.612 265.519 210.212C265.735 209.804 265.843 209.256 265.843 208.568V207.056C265.843 206.368 265.735 205.824 265.519 205.424C265.311 205.016 264.939 204.812 264.403 204.812C263.867 204.812 263.491 205.016 263.275 205.424C263.067 205.824 262.963 206.368 262.963 207.056V208.568C262.963 209.256 263.067 209.804 263.275 210.212C263.491 210.612 263.867 210.812 264.403 210.812ZM270.158 212L275.966 203.624H277.358L271.55 212H270.158ZM270.734 208.232C270.054 208.232 269.534 208.032 269.174 207.632C268.822 207.224 268.646 206.632 268.646 205.856C268.646 205.08 268.822 204.492 269.174 204.092C269.534 203.684 270.054 203.48 270.734 203.48C271.414 203.48 271.93 203.684 272.282 204.092C272.634 204.492 272.81 205.08 272.81 205.856C272.81 206.632 272.634 207.224 272.282 207.632C271.93 208.032 271.414 208.232 270.734 208.232ZM270.734 207.32C271.23 207.32 271.478 206.94 271.478 206.18V205.532C271.478 204.772 271.23 204.392 270.734 204.392C270.238 204.392 269.99 204.772 269.99 205.532V206.18C269.99 206.94 270.238 207.32 270.734 207.32ZM276.782 212.144C276.11 212.144 275.594 211.944 275.234 211.544C274.882 211.136 274.706 210.544 274.706 209.768C274.706 208.992 274.882 208.404 275.234 208.004C275.594 207.596 276.11 207.392 276.782 207.392C277.462 207.392 277.978 207.596 278.33 208.004C278.69 208.404 278.87 208.992 278.87 209.768C278.87 210.544 278.69 211.136 278.33 211.544C277.978 211.944 277.462 212.144 276.782 212.144ZM276.782 211.232C277.278 211.232 277.526 210.852 277.526 210.092V209.444C277.526 208.684 277.278 208.304 276.782 208.304C276.286 208.304 276.038 208.684 276.038 209.444V210.092C276.038 210.852 276.286 211.232 276.782 211.232Z" fill="#41637D"/>
<path d="M293.334 212V210.716H295.638V204.764H295.53L293.706 206.924L292.722 206.096L294.798 203.624H297.186V210.716H299.106V212H293.334ZM303.038 212.144C302.502 212.144 302.038 212.048 301.646 211.856C301.254 211.656 300.93 211.372 300.674 211.004C300.418 210.636 300.226 210.184 300.098 209.648C299.978 209.112 299.918 208.5 299.918 207.812C299.918 207.132 299.978 206.524 300.098 205.988C300.226 205.444 300.418 204.988 300.674 204.62C300.93 204.252 301.254 203.972 301.646 203.78C302.038 203.58 302.502 203.48 303.038 203.48C304.102 203.48 304.886 203.86 305.39 204.62C305.902 205.38 306.158 206.444 306.158 207.812C306.158 209.18 305.902 210.244 305.39 211.004C304.886 211.764 304.102 212.144 303.038 212.144ZM303.038 210.812C303.574 210.812 303.946 210.612 304.154 210.212C304.37 209.804 304.478 209.256 304.478 208.568V207.056C304.478 206.368 304.37 205.824 304.154 205.424C303.946 205.016 303.574 204.812 303.038 204.812C302.502 204.812 302.126 205.016 301.91 205.424C301.702 205.824 301.598 206.368 301.598 207.056V208.568C301.598 209.256 301.702 209.804 301.91 210.212C302.126 210.612 302.502 210.812 303.038 210.812ZM310.233 212.144C309.697 212.144 309.233 212.048 308.841 211.856C308.449 211.656 308.125 211.372 307.869 211.004C307.613 210.636 307.421 210.184 307.293 209.648C307.173 209.112 307.113 208.5 307.113 207.812C307.113 207.132 307.173 206.524 307.293 205.988C307.421 205.444 307.613 204.988 307.869 204.62C308.125 204.252 308.449 203.972 308.841 203.78C309.233 203.58 309.697 203.48 310.233 203.48C311.297 203.48 312.081 203.86 312.585 204.62C313.097 205.38 313.353 206.444 313.353 207.812C313.353 209.18 313.097 210.244 312.585 211.004C312.081 211.764 311.297 212.144 310.233 212.144ZM310.233 210.812C310.769 210.812 311.141 210.612 311.349 210.212C311.565 209.804 311.673 209.256 311.673 208.568V207.056C311.673 206.368 311.565 205.824 311.349 205.424C311.141 205.016 310.769 204.812 310.233 204.812C309.697 204.812 309.321 205.016 309.105 205.424C308.897 205.824 308.793 206.368 308.793 207.056V208.568C308.793 209.256 308.897 209.804 309.105 210.212C309.321 210.612 309.697 210.812 310.233 210.812ZM315.988 212L321.796 203.624H323.188L317.38 212H315.988ZM316.564 208.232C315.884 208.232 315.364 208.032 315.004 207.632C314.652 207.224 314.476 206.632 314.476 205.856C314.476 205.08 314.652 204.492 315.004 204.092C315.364 203.684 315.884 203.48 316.564 203.48C317.244 203.48 317.76 203.684 318.112 204.092C318.464 204.492 318.64 205.08 318.64 205.856C318.64 206.632 318.464 207.224 318.112 207.632C317.76 208.032 317.244 208.232 316.564 208.232ZM316.564 207.32C317.06 207.32 317.308 206.94 317.308 206.18V205.532C317.308 204.772 317.06 204.392 316.564 204.392C316.068 204.392 315.82 204.772 315.82 205.532V206.18C315.82 206.94 316.068 207.32 316.564 207.32ZM322.612 212.144C321.94 212.144 321.424 211.944 321.064 211.544C320.712 211.136 320.536 210.544 320.536 209.768C320.536 208.992 320.712 208.404 321.064 208.004C321.424 207.596 321.94 207.392 322.612 207.392C323.292 207.392 323.808 207.596 324.16 208.004C324.52 208.404 324.7 208.992 324.7 209.768C324.7 210.544 324.52 211.136 324.16 211.544C323.808 211.944 323.292 212.144 322.612 212.144ZM322.612 211.232C323.108 211.232 323.356 210.852 323.356 210.092V209.444C323.356 208.684 323.108 208.304 322.612 208.304C322.116 208.304 321.868 208.684 321.868 209.444V210.092C321.868 210.852 322.116 211.232 322.612 211.232Z" fill="#41637D"/>
<line opacity="0.2" x1="233.869" y1="1.64788e-08" x2="233.869" y2="190" stroke="#41637D" stroke-width="0.839895"/>
<line opacity="0.2" x1="275.865" y1="1.64788e-08" x2="275.865" y2="190" stroke="#41637D" stroke-width="0.839895"/>
<line opacity="0.2" x1="242.27" y1="1.64788e-08" x2="242.27" y2="190" stroke="#41637D" stroke-width="0.839895"/>
<line opacity="0.2" x1="284.264" y1="1.64788e-08" x2="284.264" y2="190" stroke="#41637D" stroke-width="0.839895"/>
<line opacity="0.2" x1="250.668" y1="1.64788e-08" x2="250.668" y2="190" stroke="#41637D" stroke-width="0.839895"/>
<line opacity="0.2" x1="292.662" y1="1.64788e-08" x2="292.662" y2="190" stroke="#41637D" stroke-width="0.839895"/>
<line opacity="0.2" x1="259.066" y1="1.64788e-08" x2="259.066" y2="190" stroke="#41637D" stroke-width="0.839895"/>
<line opacity="0.2" x1="301.061" y1="1.64788e-08" x2="301.061" y2="190" stroke="#41637D" stroke-width="0.839895"/>
<rect x="225.051" width="83.9895" height="16.7979" fill="#EDEDED"/>
<rect x="225.051" width="21.8373" height="16.7979" fill="#39A4F5"/>
<path d="M161.119 4.624H164.995C165.339 4.624 165.647 4.676 165.919 4.78C166.199 4.884 166.435 5.028 166.627 5.212C166.819 5.396 166.963 5.624 167.059 5.896C167.163 6.16 167.215 6.452 167.215 6.772C167.215 7.092 167.171 7.364 167.083 7.588C167.003 7.804 166.891 7.984 166.747 8.128C166.611 8.272 166.451 8.38 166.267 8.452C166.091 8.524 165.907 8.564 165.715 8.572V8.644C165.899 8.644 166.095 8.68 166.303 8.752C166.519 8.824 166.715 8.94 166.891 9.1C167.075 9.252 167.227 9.452 167.347 9.7C167.467 9.94 167.527 10.24 167.527 10.6C167.527 10.936 167.471 11.252 167.359 11.548C167.255 11.836 167.107 12.088 166.915 12.304C166.723 12.52 166.495 12.692 166.231 12.82C165.967 12.94 165.679 13 165.367 13H161.119V4.624ZM162.703 11.656H164.911C165.215 11.656 165.451 11.58 165.619 11.428C165.787 11.268 165.871 11.04 165.871 10.744V10.336C165.871 10.04 165.787 9.812 165.619 9.652C165.451 9.492 165.215 9.412 164.911 9.412H162.703V11.656ZM162.703 8.116H164.659C164.947 8.116 165.171 8.04 165.331 7.888C165.491 7.728 165.571 7.508 165.571 7.228V6.856C165.571 6.576 165.491 6.36 165.331 6.208C165.171 6.048 164.947 5.968 164.659 5.968H162.703V8.116ZM168.728 13V11.728H169.832V5.896H168.728V4.624H172.532V5.896H171.416V11.728H172.532V13H168.728ZM174.15 4.624H178.026C178.37 4.624 178.678 4.676 178.95 4.78C179.23 4.884 179.466 5.028 179.658 5.212C179.85 5.396 179.994 5.624 180.09 5.896C180.194 6.16 180.246 6.452 180.246 6.772C180.246 7.092 180.202 7.364 180.114 7.588C180.034 7.804 179.922 7.984 179.778 8.128C179.642 8.272 179.482 8.38 179.298 8.452C179.122 8.524 178.938 8.564 178.746 8.572V8.644C178.93 8.644 179.126 8.68 179.334 8.752C179.55 8.824 179.746 8.94 179.922 9.1C180.106 9.252 180.258 9.452 180.378 9.7C180.498 9.94 180.558 10.24 180.558 10.6C180.558 10.936 180.502 11.252 180.39 11.548C180.286 11.836 180.138 12.088 179.946 12.304C179.754 12.52 179.526 12.692 179.262 12.82C178.998 12.94 178.71 13 178.398 13H174.15V4.624ZM175.734 11.656H177.942C178.246 11.656 178.482 11.58 178.65 11.428C178.818 11.268 178.902 11.04 178.902 10.744V10.336C178.902 10.04 178.818 9.812 178.65 9.652C178.482 9.492 178.246 9.412 177.942 9.412H175.734V11.656ZM175.734 8.116H177.69C177.978 8.116 178.202 8.04 178.362 7.888C178.522 7.728 178.602 7.508 178.602 7.228V6.856C178.602 6.576 178.522 6.36 178.362 6.208C178.202 6.048 177.978 5.968 177.69 5.968H175.734V8.116ZM182.107 13V4.624H183.691V11.596H186.991V13H182.107ZM188.017 13V11.728H189.121V5.896H188.017V4.624H191.821V5.896H190.705V11.728H191.821V13H188.017ZM196.727 13.144C196.175 13.144 195.675 13.052 195.227 12.868C194.779 12.684 194.395 12.408 194.075 12.04C193.763 11.672 193.519 11.22 193.343 10.684C193.167 10.148 193.079 9.524 193.079 8.812C193.079 8.108 193.167 7.488 193.343 6.952C193.519 6.408 193.763 5.952 194.075 5.584C194.395 5.216 194.779 4.94 195.227 4.756C195.675 4.572 196.175 4.48 196.727 4.48C197.279 4.48 197.779 4.572 198.227 4.756C198.675 4.94 199.059 5.216 199.379 5.584C199.699 5.952 199.943 6.408 200.111 6.952C200.287 7.488 200.375 8.108 200.375 8.812C200.375 9.524 200.287 10.148 200.111 10.684C199.943 11.22 199.699 11.672 199.379 12.04C199.059 12.408 198.675 12.684 198.227 12.868C197.779 13.052 197.279 13.144 196.727 13.144ZM196.727 11.74C197.327 11.74 197.803 11.54 198.155 11.14C198.515 10.74 198.695 10.18 198.695 9.46V8.164C198.695 7.444 198.515 6.884 198.155 6.484C197.803 6.084 197.327 5.884 196.727 5.884C196.127 5.884 195.647 6.084 195.287 6.484C194.935 6.884 194.759 7.444 194.759 8.164V9.46C194.759 10.18 194.935 10.74 195.287 11.14C195.647 11.54 196.127 11.74 196.727 11.74Z" fill="#41637D"/>
<rect x="225.053" y="42" width="83.9895" height="16.7979" fill="#EDEDED"/>
<rect x="225.053" y="42" width="34.4357" height="16.7979" fill="#39A4F5"/>
<path d="M93.7028 55.0005V46.6245H99.2228V48.0285H95.2868V50.0565H98.7668V51.4605H95.2868V53.5965H99.2228V55.0005H93.7028ZM96.6188 46.0725L95.6948 45.6165L96.8348 43.3725L98.1308 44.0205L96.6188 46.0725ZM104.186 48.0285V55.0005H102.602V48.0285H100.226V46.6245H106.562V48.0285H104.186ZM109.359 46.6245V51.7725C109.359 52.4285 109.483 52.9205 109.731 53.2485C109.987 53.5765 110.415 53.7405 111.015 53.7405C111.615 53.7405 112.039 53.5765 112.287 53.2485C112.543 52.9205 112.671 52.4285 112.671 51.7725V46.6245H114.231V51.5685C114.231 52.1845 114.171 52.7165 114.051 53.1645C113.939 53.6125 113.755 53.9845 113.499 54.2805C113.243 54.5765 112.907 54.7965 112.491 54.9405C112.083 55.0765 111.587 55.1445 111.003 55.1445C110.411 55.1445 109.911 55.0765 109.503 54.9405C109.103 54.7965 108.775 54.5765 108.519 54.2805C108.263 53.9845 108.079 53.6125 107.967 53.1645C107.855 52.7165 107.799 52.1845 107.799 51.5685V46.6245H109.359ZM116.144 46.6245H119.192C119.736 46.6245 120.228 46.7125 120.668 46.8885C121.116 47.0645 121.496 47.3285 121.808 47.6805C122.128 48.0245 122.372 48.4605 122.54 48.9885C122.716 49.5085 122.804 50.1165 122.804 50.8125C122.804 51.5085 122.716 52.1205 122.54 52.6485C122.372 53.1685 122.128 53.6045 121.808 53.9565C121.496 54.3005 121.116 54.5605 120.668 54.7365C120.228 54.9125 119.736 55.0005 119.192 55.0005H116.144V46.6245ZM119.192 53.5965C119.784 53.5965 120.252 53.4245 120.596 53.0805C120.948 52.7285 121.124 52.1925 121.124 51.4725V50.1525C121.124 49.4325 120.948 48.9005 120.596 48.5565C120.252 48.2045 119.784 48.0285 119.192 48.0285H117.728V53.5965H119.192ZM124.418 55.0005V46.6245H129.938V48.0285H126.002V50.0565H129.482V51.4605H126.002V53.5965H129.938V55.0005H124.418ZM134.449 46.6245H137.497C138.041 46.6245 138.533 46.7125 138.973 46.8885C139.421 47.0645 139.801 47.3285 140.113 47.6805C140.433 48.0245 140.677 48.4605 140.845 48.9885C141.021 49.5085 141.109 50.1165 141.109 50.8125C141.109 51.5085 141.021 52.1205 140.845 52.6485C140.677 53.1685 140.433 53.6045 140.113 53.9565C139.801 54.3005 139.421 54.5605 138.973 54.7365C138.533 54.9125 138.041 55.0005 137.497 55.0005H134.449V46.6245ZM137.497 53.5965C138.089 53.5965 138.557 53.4245 138.901 53.0805C139.253 52.7285 139.429 52.1925 139.429 51.4725V50.1525C139.429 49.4325 139.253 48.9005 138.901 48.5565C138.557 48.2045 138.089 48.0285 137.497 48.0285H136.033V53.5965H137.497ZM142.722 55.0005V46.6245H148.242V48.0285H144.306V50.0565H147.786V51.4605H144.306V53.5965H148.242V55.0005H142.722ZM159.078 48.9885H159.03L158.382 50.3205L156.666 53.4885L154.95 50.3205L154.302 48.9885H154.254V55.0005H152.754V46.6245H154.542L156.69 50.7165H156.738L158.862 46.6245H160.578V55.0005H159.078V48.9885ZM167.734 55.0005L167.062 52.8645H164.086L163.426 55.0005H161.818L164.626 46.6245H166.594L169.378 55.0005H167.734ZM165.598 48.0645H165.538L164.47 51.5085H166.678L165.598 48.0645ZM172.197 55.0005H170.613V46.6245H174.393C174.777 46.6245 175.121 46.6845 175.425 46.8045C175.729 46.9245 175.985 47.1005 176.193 47.3325C176.409 47.5565 176.573 47.8285 176.685 48.1485C176.805 48.4685 176.865 48.8245 176.865 49.2165C176.865 49.7925 176.733 50.2885 176.469 50.7045C176.213 51.1205 175.825 51.4165 175.305 51.5925L177.021 55.0005H175.257L173.697 51.7725H172.197V55.0005ZM174.237 50.4405C174.541 50.4405 174.781 50.3605 174.957 50.2005C175.133 50.0325 175.221 49.7965 175.221 49.4925V48.9405C175.221 48.6365 175.133 48.4045 174.957 48.2445C174.781 48.0845 174.541 48.0045 174.237 48.0045H172.197V50.4405H174.237ZM181.716 55.1445C181.164 55.1445 180.664 55.0565 180.216 54.8805C179.776 54.6965 179.396 54.4245 179.076 54.0645C178.764 53.7045 178.524 53.2605 178.356 52.7325C178.188 52.1965 178.104 51.5765 178.104 50.8725C178.104 50.1685 178.188 49.5445 178.356 49.0005C178.524 48.4485 178.764 47.9885 179.076 47.6205C179.396 47.2445 179.776 46.9605 180.216 46.7685C180.664 46.5765 181.164 46.4805 181.716 46.4805C182.468 46.4805 183.092 46.6405 183.588 46.9605C184.084 47.2805 184.48 47.7645 184.776 48.4125L183.42 49.1325C183.3 48.7565 183.104 48.4565 182.832 48.2325C182.56 48.0005 182.188 47.8845 181.716 47.8845C181.124 47.8845 180.652 48.0845 180.3 48.4845C179.956 48.8845 179.784 49.4445 179.784 50.1645V51.4845C179.784 52.2125 179.956 52.7725 180.3 53.1645C180.652 53.5485 181.124 53.7405 181.716 53.7405C182.188 53.7405 182.572 53.6125 182.868 53.3565C183.172 53.1005 183.392 52.7845 183.528 52.4085L184.812 53.1645C184.508 53.7885 184.104 54.2765 183.6 54.6285C183.096 54.9725 182.468 55.1445 181.716 55.1445ZM191.24 51.4605H187.748V55.0005H186.164V46.6245H187.748V50.0565H191.24V46.6245H192.824V55.0005H191.24V51.4605ZM194.789 55.0005V46.6245H200.309V48.0285H196.373V50.0565H199.853V51.4605H196.373V53.5965H200.309V55.0005H194.789ZM197.705 46.0725L196.781 45.6165L197.921 43.3725L199.217 44.0205L197.705 46.0725Z" fill="#41637D"/>
<rect x="225.051" y="82" width="83.9895" height="16.7979" fill="#EDEDED"/>
<rect x="225.051" y="82" width="17.6378" height="16.7979" fill="#39A4F5"/>
<path d="M59.1212 95.144C58.4012 95.144 57.7892 95.016 57.2852 94.76C56.7892 94.504 56.3612 94.168 56.0012 93.752L57.0692 92.72C57.3572 93.056 57.6772 93.312 58.0292 93.488C58.3892 93.664 58.7852 93.752 59.2172 93.752C59.7052 93.752 60.0732 93.648 60.3212 93.44C60.5692 93.224 60.6932 92.936 60.6932 92.576C60.6932 92.296 60.6132 92.068 60.4532 91.892C60.2932 91.716 59.9932 91.588 59.5532 91.508L58.7612 91.388C57.0892 91.124 56.2532 90.312 56.2532 88.952C56.2532 88.576 56.3212 88.236 56.4572 87.932C56.6012 87.628 56.8052 87.368 57.0692 87.152C57.3332 86.936 57.6492 86.772 58.0172 86.66C58.3932 86.54 58.8172 86.48 59.2892 86.48C59.9212 86.48 60.4732 86.584 60.9452 86.792C61.4172 87 61.8212 87.308 62.1572 87.716L61.0772 88.736C60.8692 88.48 60.6172 88.272 60.3212 88.112C60.0252 87.952 59.6532 87.872 59.2052 87.872C58.7492 87.872 58.4052 87.96 58.1732 88.136C57.9492 88.304 57.8372 88.544 57.8372 88.856C57.8372 89.176 57.9292 89.412 58.1132 89.564C58.2972 89.716 58.5932 89.828 59.0012 89.9L59.7812 90.044C60.6292 90.196 61.2532 90.468 61.6532 90.86C62.0612 91.244 62.2652 91.784 62.2652 92.48C62.2652 92.88 62.1932 93.244 62.0492 93.572C61.9132 93.892 61.7092 94.172 61.4372 94.412C61.1732 94.644 60.8452 94.824 60.4532 94.952C60.0692 95.08 59.6252 95.144 59.1212 95.144ZM67.1411 95.144C66.5891 95.144 66.0891 95.052 65.6411 94.868C65.1931 94.684 64.8091 94.408 64.4891 94.04C64.1771 93.672 63.9331 93.22 63.7571 92.684C63.5811 92.148 63.4931 91.524 63.4931 90.812C63.4931 90.108 63.5811 89.488 63.7571 88.952C63.9331 88.408 64.1771 87.952 64.4891 87.584C64.8091 87.216 65.1931 86.94 65.6411 86.756C66.0891 86.572 66.5891 86.48 67.1411 86.48C67.6931 86.48 68.1931 86.572 68.6411 86.756C69.0891 86.94 69.4731 87.216 69.7931 87.584C70.1131 87.952 70.3571 88.408 70.5251 88.952C70.7011 89.488 70.7891 90.108 70.7891 90.812C70.7891 91.524 70.7011 92.148 70.5251 92.684C70.3571 93.22 70.1131 93.672 69.7931 94.04C69.4731 94.408 69.0891 94.684 68.6411 94.868C68.1931 95.052 67.6931 95.144 67.1411 95.144ZM67.1411 93.74C67.7411 93.74 68.2171 93.54 68.5691 93.14C68.9291 92.74 69.1091 92.18 69.1091 91.46V90.164C69.1091 89.444 68.9291 88.884 68.5691 88.484C68.2171 88.084 67.7411 87.884 67.1411 87.884C66.5411 87.884 66.0611 88.084 65.7011 88.484C65.3491 88.884 65.1731 89.444 65.1731 90.164V91.46C65.1731 92.18 65.3491 92.74 65.7011 93.14C66.0611 93.54 66.5411 93.74 67.1411 93.74ZM73.8961 86.624V91.772C73.8961 92.428 74.0201 92.92 74.2681 93.248C74.5241 93.576 74.9521 93.74 75.5521 93.74C76.1521 93.74 76.5761 93.576 76.8241 93.248C77.0801 92.92 77.2081 92.428 77.2081 91.772V86.624H78.7681V91.568C78.7681 92.184 78.7081 92.716 78.5881 93.164C78.4761 93.612 78.2921 93.984 78.0361 94.28C77.7801 94.576 77.4441 94.796 77.0281 94.94C76.6201 95.076 76.1241 95.144 75.5401 95.144C74.9481 95.144 74.4481 95.076 74.0401 94.94C73.6401 94.796 73.3121 94.576 73.0561 94.28C72.8001 93.984 72.6161 93.612 72.5041 93.164C72.3921 92.716 72.3361 92.184 72.3361 91.568V86.624H73.8961ZM82.2653 95H80.6813V86.624H84.4613C84.8453 86.624 85.1893 86.684 85.4933 86.804C85.7973 86.924 86.0533 87.1 86.2613 87.332C86.4773 87.556 86.6413 87.828 86.7533 88.148C86.8733 88.468 86.9333 88.824 86.9333 89.216C86.9333 89.792 86.8013 90.288 86.5373 90.704C86.2813 91.12 85.8933 91.416 85.3733 91.592L87.0893 95H85.3253L83.7653 91.772H82.2653V95ZM84.3053 90.44C84.6093 90.44 84.8493 90.36 85.0253 90.2C85.2013 90.032 85.2893 89.796 85.2893 89.492V88.94C85.2893 88.636 85.2013 88.404 85.0253 88.244C84.8493 88.084 84.6093 88.004 84.3053 88.004H82.2653V90.44H84.3053ZM91.7848 95.144C91.2328 95.144 90.7328 95.056 90.2848 94.88C89.8448 94.696 89.4648 94.424 89.1448 94.064C88.8328 93.704 88.5928 93.26 88.4248 92.732C88.2568 92.196 88.1728 91.576 88.1728 90.872C88.1728 90.168 88.2568 89.544 88.4248 89C88.5928 88.448 88.8328 87.988 89.1448 87.62C89.4648 87.244 89.8448 86.96 90.2848 86.768C90.7328 86.576 91.2328 86.48 91.7848 86.48C92.5368 86.48 93.1608 86.64 93.6568 86.96C94.1528 87.28 94.5488 87.764 94.8448 88.412L93.4888 89.132C93.3688 88.756 93.1728 88.456 92.9008 88.232C92.6288 88 92.2568 87.884 91.7848 87.884C91.1928 87.884 90.7208 88.084 90.3688 88.484C90.0248 88.884 89.8528 89.444 89.8528 90.164V91.484C89.8528 92.212 90.0248 92.772 90.3688 93.164C90.7208 93.548 91.1928 93.74 91.7848 93.74C92.2568 93.74 92.6408 93.612 92.9368 93.356C93.2408 93.1 93.4608 92.784 93.5968 92.408L94.8808 93.164C94.5768 93.788 94.1728 94.276 93.6688 94.628C93.1648 94.972 92.5368 95.144 91.7848 95.144ZM95.884 95V93.728H96.988V87.896H95.884V86.624H99.688V87.896H98.572V93.728H99.688V95H95.884ZM103.706 90.704L102.842 88.964H102.806V95H101.306V86.624H103.046L105.566 90.92L106.43 92.66H106.466V86.624H107.966V95H106.226L103.706 90.704ZM115.271 93.704H115.223C115.151 94.112 114.923 94.456 114.539 94.736C114.163 95.008 113.659 95.144 113.027 95.144C112.531 95.144 112.071 95.052 111.647 94.868C111.231 94.684 110.867 94.412 110.555 94.052C110.251 93.684 110.011 93.232 109.835 92.696C109.659 92.16 109.571 91.54 109.571 90.836C109.571 90.132 109.659 89.512 109.835 88.976C110.019 88.432 110.275 87.976 110.603 87.608C110.931 87.24 111.323 86.96 111.779 86.768C112.235 86.576 112.743 86.48 113.303 86.48C114.055 86.48 114.695 86.644 115.223 86.972C115.751 87.3 116.167 87.772 116.471 88.388L115.187 89.144C115.035 88.784 114.807 88.484 114.503 88.244C114.207 88.004 113.807 87.884 113.303 87.884C112.679 87.884 112.179 88.076 111.803 88.46C111.435 88.836 111.251 89.396 111.251 90.14V91.484C111.251 92.22 111.439 92.78 111.815 93.164C112.191 93.548 112.695 93.74 113.327 93.74C113.575 93.74 113.807 93.712 114.023 93.656C114.239 93.592 114.427 93.5 114.587 93.38C114.747 93.26 114.875 93.112 114.971 92.936C115.067 92.76 115.115 92.552 115.115 92.312V91.772H113.471V90.44H116.639V95H115.271V93.704ZM121.31 86.624H124.358C124.902 86.624 125.394 86.712 125.834 86.888C126.282 87.064 126.662 87.328 126.974 87.68C127.294 88.024 127.538 88.46 127.706 88.988C127.882 89.508 127.97 90.116 127.97 90.812C127.97 91.508 127.882 92.12 127.706 92.648C127.538 93.168 127.294 93.604 126.974 93.956C126.662 94.3 126.282 94.56 125.834 94.736C125.394 94.912 124.902 95 124.358 95H121.31V86.624ZM124.358 93.596C124.95 93.596 125.418 93.424 125.762 93.08C126.114 92.728 126.29 92.192 126.29 91.472V90.152C126.29 89.432 126.114 88.9 125.762 88.556C125.418 88.204 124.95 88.028 124.358 88.028H122.894V93.596H124.358ZM129.584 95V86.624H135.104V88.028H131.168V90.056H134.648V91.46H131.168V93.596H135.104V95H129.584ZM139.615 95V86.624H141.199V93.596H144.499V95H139.615ZM151.268 95L150.596 92.864H147.62L146.96 95H145.352L148.16 86.624H150.128L152.912 95H151.268ZM149.132 88.064H149.072L148.004 91.508H150.212L149.132 88.064ZM156.982 95V86.624H160.75C161.134 86.624 161.478 86.688 161.782 86.816C162.094 86.936 162.358 87.112 162.574 87.344C162.79 87.568 162.954 87.84 163.066 88.16C163.178 88.48 163.234 88.832 163.234 89.216C163.234 89.608 163.178 89.964 163.066 90.284C162.954 90.596 162.79 90.868 162.574 91.1C162.358 91.324 162.094 91.5 161.782 91.628C161.478 91.748 161.134 91.808 160.75 91.808H158.566V95H156.982ZM158.566 90.44H160.606C160.91 90.44 161.15 90.36 161.326 90.2C161.502 90.032 161.59 89.796 161.59 89.492V88.94C161.59 88.636 161.502 88.404 161.326 88.244C161.15 88.084 160.91 88.004 160.606 88.004H158.566V90.44ZM164.67 95V86.624H166.254V93.596H169.554V95H164.67ZM176.322 95L175.65 92.864H172.674L172.014 95H170.406L173.214 86.624H175.182L177.966 95H176.322ZM174.186 88.064H174.126L173.058 91.508H175.266L174.186 88.064ZM181.601 90.704L180.737 88.964H180.701V95H179.201V86.624H180.941L183.461 90.92L184.325 92.66H184.361V86.624H185.861V95H184.121L181.601 90.704ZM191.114 88.028V95H189.53V88.028H187.154V86.624H193.49V88.028H191.114ZM194.787 95V86.624H200.307V88.028H196.371V90.056H199.851V91.46H196.371V93.596H200.307V95H194.787Z" fill="#41637D"/>
<rect x="225.051" y="164" width="83.9895" height="16.7979" fill="#EDEDED"/>
<rect x="225.051" y="164" width="13.4383" height="16.7979" fill="#39A4F5"/>
<path d="M5.04459 177.144C4.49259 177.144 3.99259 177.056 3.54459 176.88C3.10459 176.696 2.72459 176.424 2.40459 176.064C2.09259 175.704 1.85259 175.26 1.68459 174.732C1.51659 174.196 1.43259 173.576 1.43259 172.872C1.43259 172.168 1.51659 171.544 1.68459 171C1.85259 170.448 2.09259 169.988 2.40459 169.62C2.72459 169.244 3.10459 168.96 3.54459 168.768C3.99259 168.576 4.49259 168.48 5.04459 168.48C5.79659 168.48 6.42059 168.64 6.91659 168.96C7.41259 169.28 7.80859 169.764 8.10459 170.412L6.74859 171.132C6.62859 170.756 6.43259 170.456 6.16059 170.232C5.88859 170 5.51659 169.884 5.04459 169.884C4.45259 169.884 3.98059 170.084 3.62859 170.484C3.28459 170.884 3.11259 171.444 3.11259 172.164V173.484C3.11259 174.212 3.28459 174.772 3.62859 175.164C3.98059 175.548 4.45259 175.74 5.04459 175.74C5.51659 175.74 5.90059 175.612 6.19659 175.356C6.50059 175.1 6.72059 174.784 6.85659 174.408L8.14059 175.164C7.83659 175.788 7.43259 176.276 6.92859 176.628C6.42459 176.972 5.79659 177.144 5.04459 177.144ZM12.6275 177.144C12.0755 177.144 11.5755 177.052 11.1275 176.868C10.6795 176.684 10.2955 176.408 9.97547 176.04C9.66347 175.672 9.41947 175.22 9.24347 174.684C9.06747 174.148 8.97947 173.524 8.97947 172.812C8.97947 172.108 9.06747 171.488 9.24347 170.952C9.41947 170.408 9.66347 169.952 9.97547 169.584C10.2955 169.216 10.6795 168.94 11.1275 168.756C11.5755 168.572 12.0755 168.48 12.6275 168.48C13.1795 168.48 13.6795 168.572 14.1275 168.756C14.5755 168.94 14.9595 169.216 15.2795 169.584C15.5995 169.952 15.8435 170.408 16.0115 170.952C16.1875 171.488 16.2755 172.108 16.2755 172.812C16.2755 173.524 16.1875 174.148 16.0115 174.684C15.8435 175.22 15.5995 175.672 15.2795 176.04C14.9595 176.408 14.5755 176.684 14.1275 176.868C13.6795 177.052 13.1795 177.144 12.6275 177.144ZM12.6275 175.74C13.2275 175.74 13.7035 175.54 14.0555 175.14C14.4155 174.74 14.5955 174.18 14.5955 173.46V172.164C14.5955 171.444 14.4155 170.884 14.0555 170.484C13.7035 170.084 13.2275 169.884 12.6275 169.884C12.0275 169.884 11.5475 170.084 11.1875 170.484C10.8355 170.884 10.6595 171.444 10.6595 172.164V173.46C10.6595 174.18 10.8355 174.74 11.1875 175.14C11.5475 175.54 12.0275 175.74 12.6275 175.74ZM20.2824 172.704L19.4184 170.964H19.3824V177H17.8824V168.624H19.6224L22.1424 172.92L23.0064 174.66H23.0424V168.624H24.5424V177H22.8024L20.2824 172.704ZM29.7954 170.028V177H28.2114V170.028H25.8354V168.624H32.1714V170.028H29.7954ZM35.0524 177H33.4684V168.624H37.2484C37.6324 168.624 37.9764 168.684 38.2804 168.804C38.5844 168.924 38.8404 169.1 39.0484 169.332C39.2644 169.556 39.4284 169.828 39.5404 170.148C39.6604 170.468 39.7204 170.824 39.7204 171.216C39.7204 171.792 39.5884 172.288 39.3244 172.704C39.0684 173.12 38.6804 173.416 38.1604 173.592L39.8764 177H38.1124L36.5524 173.772H35.0524V177ZM37.0924 172.44C37.3964 172.44 37.6364 172.36 37.8124 172.2C37.9884 172.032 38.0764 171.796 38.0764 171.492V170.94C38.0764 170.636 37.9884 170.404 37.8124 170.244C37.6364 170.084 37.3964 170.004 37.0924 170.004H35.0524V172.44H37.0924ZM46.6211 177L45.9491 174.864H42.9731L42.3131 177H40.7051L43.5131 168.624H45.4811L48.2651 177H46.6211ZM44.4851 170.064H44.4251L43.3571 173.508H45.5651L44.4851 170.064ZM49.1516 177V175.728H50.2556V169.896H49.1516V168.624H52.9556V169.896H51.8396V175.728H52.9556V177H49.1516ZM56.9738 172.704L56.1098 170.964H56.0738V177H54.5738V168.624H56.3138L58.8338 172.92L59.6978 174.66H59.7338V168.624H61.2338V177H59.4938L56.9738 172.704ZM66.4868 170.028V177H64.9028V170.028H62.5268V168.624H68.8628V170.028H66.4868ZM70.1598 177V168.624H75.6798V170.028H71.7438V172.056H75.2238V173.46H71.7438V175.596H75.6798V177H70.1598ZM79.9591 177.144C79.2391 177.144 78.6271 177.016 78.1231 176.76C77.6271 176.504 77.1991 176.168 76.8391 175.752L77.9071 174.72C78.1951 175.056 78.5151 175.312 78.8671 175.488C79.2271 175.664 79.6231 175.752 80.0551 175.752C80.5431 175.752 80.9111 175.648 81.1591 175.44C81.4071 175.224 81.5311 174.936 81.5311 174.576C81.5311 174.296 81.4511 174.068 81.2911 173.892C81.1311 173.716 80.8311 173.588 80.3911 173.508L79.5991 173.388C77.9271 173.124 77.0911 172.312 77.0911 170.952C77.0911 170.576 77.1591 170.236 77.2951 169.932C77.4391 169.628 77.6431 169.368 77.9071 169.152C78.1711 168.936 78.4871 168.772 78.8551 168.66C79.2311 168.54 79.6551 168.48 80.1271 168.48C80.7591 168.48 81.3111 168.584 81.7831 168.792C82.2551 169 82.6591 169.308 82.9951 169.716L81.9151 170.736C81.7071 170.48 81.4551 170.272 81.1591 170.112C80.8631 169.952 80.4911 169.872 80.0431 169.872C79.5871 169.872 79.2431 169.96 79.0111 170.136C78.7871 170.304 78.6751 170.544 78.6751 170.856C78.6751 171.176 78.7671 171.412 78.9511 171.564C79.1351 171.716 79.4311 171.828 79.8391 171.9L80.6191 172.044C81.4671 172.196 82.0911 172.468 82.4911 172.86C82.8991 173.244 83.1031 173.784 83.1031 174.48C83.1031 174.88 83.0311 175.244 82.8871 175.572C82.7511 175.892 82.5471 176.172 82.2751 176.412C82.0111 176.644 81.6831 176.824 81.2911 176.952C80.9071 177.08 80.4631 177.144 79.9591 177.144ZM90.779 177.144C90.227 177.144 89.727 177.056 89.279 176.88C88.839 176.696 88.459 176.424 88.139 176.064C87.827 175.704 87.587 175.26 87.419 174.732C87.251 174.196 87.167 173.576 87.167 172.872C87.167 172.168 87.251 171.544 87.419 171C87.587 170.448 87.827 169.988 88.139 169.62C88.459 169.244 88.839 168.96 89.279 168.768C89.727 168.576 90.227 168.48 90.779 168.48C91.531 168.48 92.155 168.64 92.651 168.96C93.147 169.28 93.543 169.764 93.839 170.412L92.483 171.132C92.363 170.756 92.167 170.456 91.895 170.232C91.623 170 91.251 169.884 90.779 169.884C90.187 169.884 89.715 170.084 89.363 170.484C89.019 170.884 88.847 171.444 88.847 172.164V173.484C88.847 174.212 89.019 174.772 89.363 175.164C89.715 175.548 90.187 175.74 90.779 175.74C91.251 175.74 91.635 175.612 91.931 175.356C92.235 175.1 92.455 174.784 92.591 174.408L93.875 175.164C93.571 175.788 93.167 176.276 92.663 176.628C92.159 176.972 91.531 177.144 90.779 177.144ZM98.3618 177.144C97.8098 177.144 97.3098 177.052 96.8618 176.868C96.4138 176.684 96.0298 176.408 95.7098 176.04C95.3978 175.672 95.1538 175.22 94.9778 174.684C94.8018 174.148 94.7138 173.524 94.7138 172.812C94.7138 172.108 94.8018 171.488 94.9778 170.952C95.1538 170.408 95.3978 169.952 95.7098 169.584C96.0298 169.216 96.4138 168.94 96.8618 168.756C97.3098 168.572 97.8098 168.48 98.3618 168.48C98.9138 168.48 99.4138 168.572 99.8618 168.756C100.31 168.94 100.694 169.216 101.014 169.584C101.334 169.952 101.578 170.408 101.746 170.952C101.922 171.488 102.01 172.108 102.01 172.812C102.01 173.524 101.922 174.148 101.746 174.684C101.578 175.22 101.334 175.672 101.014 176.04C100.694 176.408 100.31 176.684 99.8618 176.868C99.4138 177.052 98.9138 177.144 98.3618 177.144ZM98.3618 175.74C98.9618 175.74 99.4378 175.54 99.7898 175.14C100.15 174.74 100.33 174.18 100.33 173.46V172.164C100.33 171.444 100.15 170.884 99.7898 170.484C99.4378 170.084 98.9618 169.884 98.3618 169.884C97.7618 169.884 97.2818 170.084 96.9218 170.484C96.5698 170.884 96.3938 171.444 96.3938 172.164V173.46C96.3938 174.18 96.5698 174.74 96.9218 175.14C97.2818 175.54 97.7618 175.74 98.3618 175.74ZM109.941 170.988H109.893L109.245 172.32L107.529 175.488L105.813 172.32L105.165 170.988H105.117V177H103.617V168.624H105.405L107.553 172.716H107.601L109.725 168.624H111.441V177H109.941V170.988ZM113.414 177V168.624H117.182C117.566 168.624 117.91 168.688 118.214 168.816C118.526 168.936 118.79 169.112 119.006 169.344C119.222 169.568 119.386 169.84 119.498 170.16C119.61 170.48 119.666 170.832 119.666 171.216C119.666 171.608 119.61 171.964 119.498 172.284C119.386 172.596 119.222 172.868 119.006 173.1C118.79 173.324 118.526 173.5 118.214 173.628C117.91 173.748 117.566 173.808 117.182 173.808H114.998V177H113.414ZM114.998 172.44H117.038C117.342 172.44 117.582 172.36 117.758 172.2C117.934 172.032 118.022 171.796 118.022 171.492V170.94C118.022 170.636 117.934 170.404 117.758 170.244C117.582 170.084 117.342 170.004 117.038 170.004H114.998V172.44ZM121.101 177V168.624H122.685V175.596H125.985V177H121.101ZM127.359 177V168.624H132.879V170.028H128.943V172.056H132.423V173.46H128.943V175.596H132.879V177H127.359ZM130.275 168.072L129.351 167.616L130.491 165.372L131.787 166.02L130.275 168.072ZM140.878 170.988H140.83L140.182 172.32L138.466 175.488L136.75 172.32L136.102 170.988H136.054V177H134.554V168.624H136.342L138.49 172.716H138.538L140.662 168.624H142.378V177H140.878V170.988ZM144.351 177V168.624H149.871V170.028H145.935V172.056H149.415V173.46H145.935V175.596H149.871V177H144.351ZM153.947 172.704L153.083 170.964H153.047V177H151.547V168.624H153.287L155.807 172.92L156.671 174.66H156.707V168.624H158.207V177H156.467L153.947 172.704ZM163.46 170.028V177H161.876V170.028H159.5V168.624H165.836V170.028H163.46ZM171.531 177L170.859 174.864H167.883L167.223 177H165.615L168.423 168.624H170.391L173.175 177H171.531ZM169.395 170.064H169.335L168.267 173.508H170.475L169.395 170.064ZM174.062 177V175.728H175.166V169.896H174.062V168.624H177.866V169.896H176.75V175.728H177.866V177H174.062ZM181.068 177H179.484V168.624H183.264C183.648 168.624 183.992 168.684 184.296 168.804C184.6 168.924 184.856 169.1 185.064 169.332C185.28 169.556 185.444 169.828 185.556 170.148C185.676 170.468 185.736 170.824 185.736 171.216C185.736 171.792 185.604 172.288 185.34 172.704C185.084 173.12 184.696 173.416 184.176 173.592L185.892 177H184.128L182.568 173.772H181.068V177ZM183.108 172.44C183.412 172.44 183.652 172.36 183.828 172.2C184.004 172.032 184.092 171.796 184.092 171.492V170.94C184.092 170.636 184.004 170.404 183.828 170.244C183.652 170.084 183.412 170.004 183.108 170.004H181.068V172.44H183.108ZM187.453 177V168.624H192.973V170.028H189.037V172.056H192.517V173.46H189.037V175.596H192.973V177H187.453ZM197.252 177.144C196.532 177.144 195.92 177.016 195.416 176.76C194.92 176.504 194.492 176.168 194.132 175.752L195.2 174.72C195.488 175.056 195.808 175.312 196.16 175.488C196.52 175.664 196.916 175.752 197.348 175.752C197.836 175.752 198.204 175.648 198.452 175.44C198.7 175.224 198.824 174.936 198.824 174.576C198.824 174.296 198.744 174.068 198.584 173.892C198.424 173.716 198.124 173.588 197.684 173.508L196.892 173.388C195.22 173.124 194.384 172.312 194.384 170.952C194.384 170.576 194.452 170.236 194.588 169.932C194.732 169.628 194.936 169.368 195.2 169.152C195.464 168.936 195.78 168.772 196.148 168.66C196.524 168.54 196.948 168.48 197.42 168.48C198.052 168.48 198.604 168.584 199.076 168.792C199.548 169 199.952 169.308 200.288 169.716L199.208 170.736C199 170.48 198.748 170.272 198.452 170.112C198.156 169.952 197.784 169.872 197.336 169.872C196.88 169.872 196.536 169.96 196.304 170.136C196.08 170.304 195.968 170.544 195.968 170.856C195.968 171.176 196.06 171.412 196.244 171.564C196.428 171.716 196.724 171.828 197.132 171.9L197.912 172.044C198.76 172.196 199.384 172.468 199.784 172.86C200.192 173.244 200.396 173.784 200.396 174.48C200.396 174.88 200.324 175.244 200.18 175.572C200.044 175.892 199.84 176.172 199.568 176.412C199.304 176.644 198.976 176.824 198.584 176.952C198.2 177.08 197.756 177.144 197.252 177.144Z" fill="#41637D"/>
<rect x="225.051" y="123.798" width="83.9895" height="16.7979" fill="#EDEDED"/>
<rect x="225.051" y="123.798" width="9.23884" height="16.7979" fill="#39A4F5"/>
<path d="M71.3903 111.624H75.2663C75.6103 111.624 75.9183 111.676 76.1903 111.78C76.4703 111.884 76.7063 112.028 76.8983 112.212C77.0903 112.396 77.2343 112.624 77.3303 112.896C77.4343 113.16 77.4863 113.452 77.4863 113.772C77.4863 114.092 77.4423 114.364 77.3543 114.588C77.2743 114.804 77.1623 114.984 77.0182 115.128C76.8823 115.272 76.7223 115.38 76.5383 115.452C76.3623 115.524 76.1783 115.564 75.9863 115.572V115.644C76.1703 115.644 76.3663 115.68 76.5742 115.752C76.7903 115.824 76.9863 115.94 77.1623 116.1C77.3463 116.252 77.4983 116.452 77.6183 116.7C77.7383 116.94 77.7983 117.24 77.7983 117.6C77.7983 117.936 77.7423 118.252 77.6303 118.548C77.5263 118.836 77.3783 119.088 77.1862 119.304C76.9943 119.52 76.7663 119.692 76.5023 119.82C76.2383 119.94 75.9503 120 75.6383 120H71.3903V111.624ZM72.9743 118.656H75.1823C75.4863 118.656 75.7223 118.58 75.8903 118.428C76.0583 118.268 76.1423 118.04 76.1423 117.744V117.336C76.1423 117.04 76.0583 116.812 75.8903 116.652C75.7223 116.492 75.4863 116.412 75.1823 116.412H72.9743V118.656ZM72.9743 115.116H74.9303C75.2183 115.116 75.4423 115.04 75.6023 114.888C75.7623 114.728 75.8423 114.508 75.8423 114.228V113.856C75.8423 113.576 75.7623 113.36 75.6023 113.208C75.4423 113.048 75.2183 112.968 74.9303 112.968H72.9743V115.116ZM80.9313 120H79.3473V111.624H83.1273C83.5113 111.624 83.8553 111.684 84.1593 111.804C84.4633 111.924 84.7193 112.1 84.9273 112.332C85.1433 112.556 85.3073 112.828 85.4193 113.148C85.5393 113.468 85.5993 113.824 85.5993 114.216C85.5993 114.792 85.4673 115.288 85.2033 115.704C84.9473 116.12 84.5593 116.416 84.0393 116.592L85.7553 120H83.9913L82.4313 116.772H80.9313V120ZM82.9713 115.44C83.2753 115.44 83.5153 115.36 83.6913 115.2C83.8673 115.032 83.9553 114.796 83.9553 114.492V113.94C83.9553 113.636 83.8673 113.404 83.6913 113.244C83.5153 113.084 83.2753 113.004 82.9713 113.004H80.9313V115.44H82.9713ZM87.316 120V111.624H92.836V113.028H88.9V115.056H92.38V116.46H88.9V118.596H92.836V120H87.316ZM96.4202 120L93.6842 111.624H95.3042L96.5882 115.704L97.3322 118.488H97.3682L98.1002 115.704L99.3842 111.624H100.956L98.2202 120H96.4202ZM102.129 120V111.624H107.649V113.028H103.713V115.056H107.193V116.46H103.713V118.596H107.649V120H102.129ZM112.612 113.028V120H111.028V113.028H108.652V111.624H114.988V113.028H112.612ZM118.197 121.812L121.641 111.12H122.925L119.481 121.812H118.197ZM127.195 120V111.624H130.963C131.347 111.624 131.691 111.688 131.995 111.816C132.307 111.936 132.571 112.112 132.787 112.344C133.003 112.568 133.167 112.84 133.279 113.16C133.391 113.48 133.447 113.832 133.447 114.216C133.447 114.608 133.391 114.964 133.279 115.284C133.167 115.596 133.003 115.868 132.787 116.1C132.571 116.324 132.307 116.5 131.995 116.628C131.691 116.748 131.347 116.808 130.963 116.808H128.779V120H127.195ZM128.779 115.44H130.819C131.123 115.44 131.363 115.36 131.539 115.2C131.715 115.032 131.803 114.796 131.803 114.492V113.94C131.803 113.636 131.715 113.404 131.539 113.244C131.363 113.084 131.123 113.004 130.819 113.004H128.779V115.44ZM136.466 120H134.882V111.624H138.662C139.046 111.624 139.39 111.684 139.694 111.804C139.998 111.924 140.254 112.1 140.462 112.332C140.678 112.556 140.842 112.828 140.954 113.148C141.074 113.468 141.134 113.824 141.134 114.216C141.134 114.792 141.002 115.288 140.738 115.704C140.482 116.12 140.094 116.416 139.574 116.592L141.29 120H139.526L137.966 116.772H136.466V120ZM138.506 115.44C138.81 115.44 139.05 115.36 139.226 115.2C139.402 115.032 139.49 114.796 139.49 114.492V113.94C139.49 113.636 139.402 113.404 139.226 113.244C139.05 113.084 138.81 113.004 138.506 113.004H136.466V115.44H138.506ZM146.022 120.144C145.47 120.144 144.97 120.052 144.522 119.868C144.074 119.684 143.69 119.408 143.37 119.04C143.058 118.672 142.814 118.22 142.638 117.684C142.462 117.148 142.374 116.524 142.374 115.812C142.374 115.108 142.462 114.488 142.638 113.952C142.814 113.408 143.058 112.952 143.37 112.584C143.69 112.216 144.074 111.94 144.522 111.756C144.97 111.572 145.47 111.48 146.022 111.48C146.574 111.48 147.074 111.572 147.522 111.756C147.97 111.94 148.354 112.216 148.674 112.584C148.994 112.952 149.238 113.408 149.406 113.952C149.582 114.488 149.67 115.108 149.67 115.812C149.67 116.524 149.582 117.148 149.406 117.684C149.238 118.22 148.994 118.672 148.674 119.04C148.354 119.408 147.97 119.684 147.522 119.868C147.074 120.052 146.574 120.144 146.022 120.144ZM146.022 118.74C146.622 118.74 147.098 118.54 147.45 118.14C147.81 117.74 147.99 117.18 147.99 116.46V115.164C147.99 114.444 147.81 113.884 147.45 113.484C147.098 113.084 146.622 112.884 146.022 112.884C145.422 112.884 144.942 113.084 144.582 113.484C144.23 113.884 144.054 114.444 144.054 115.164V116.46C144.054 117.18 144.23 117.74 144.582 118.14C144.942 118.54 145.422 118.74 146.022 118.74ZM154.272 113.028V120H152.688V113.028H150.312V111.624H156.648V113.028H154.272ZM157.945 120V111.624H163.465V113.028H159.529V115.056H163.009V116.46H159.529V118.596H163.465V120H157.945ZM168.392 120.144C167.84 120.144 167.34 120.056 166.892 119.88C166.452 119.696 166.072 119.424 165.752 119.064C165.44 118.704 165.2 118.26 165.032 117.732C164.864 117.196 164.78 116.576 164.78 115.872C164.78 115.168 164.864 114.544 165.032 114C165.2 113.448 165.44 112.988 165.752 112.62C166.072 112.244 166.452 111.96 166.892 111.768C167.34 111.576 167.84 111.48 168.392 111.48C169.144 111.48 169.768 111.64 170.264 111.96C170.76 112.28 171.156 112.764 171.452 113.412L170.096 114.132C169.976 113.756 169.78 113.456 169.508 113.232C169.236 113 168.864 112.884 168.392 112.884C167.8 112.884 167.328 113.084 166.976 113.484C166.632 113.884 166.46 114.444 166.46 115.164V116.484C166.46 117.212 166.632 117.772 166.976 118.164C167.328 118.548 167.8 118.74 168.392 118.74C168.864 118.74 169.248 118.612 169.544 118.356C169.848 118.1 170.068 117.784 170.204 117.408L171.488 118.164C171.184 118.788 170.78 119.276 170.276 119.628C169.772 119.972 169.144 120.144 168.392 120.144ZM176.127 113.028V120H174.543V113.028H172.167V111.624H178.503V113.028H176.127ZM179.394 120V118.728H180.498V112.896H179.394V111.624H183.198V112.896H182.082V118.728H183.198V120H179.394ZM188.104 120.144C187.552 120.144 187.052 120.052 186.604 119.868C186.156 119.684 185.772 119.408 185.452 119.04C185.14 118.672 184.896 118.22 184.72 117.684C184.544 117.148 184.456 116.524 184.456 115.812C184.456 115.108 184.544 114.488 184.72 113.952C184.896 113.408 185.14 112.952 185.452 112.584C185.772 112.216 186.156 111.94 186.604 111.756C187.052 111.572 187.552 111.48 188.104 111.48C188.656 111.48 189.156 111.572 189.604 111.756C190.052 111.94 190.436 112.216 190.756 112.584C191.076 112.952 191.32 113.408 191.488 113.952C191.664 114.488 191.752 115.108 191.752 115.812C191.752 116.524 191.664 117.148 191.488 117.684C191.32 118.22 191.076 118.672 190.756 119.04C190.436 119.408 190.052 119.684 189.604 119.868C189.156 120.052 188.656 120.144 188.104 120.144ZM188.104 118.74C188.704 118.74 189.18 118.54 189.532 118.14C189.892 117.74 190.072 117.18 190.072 116.46V115.164C190.072 114.444 189.892 113.884 189.532 113.484C189.18 113.084 188.704 112.884 188.104 112.884C187.504 112.884 187.024 113.084 186.664 113.484C186.312 113.884 186.136 114.444 186.136 115.164V116.46C186.136 117.18 186.312 117.74 186.664 118.14C187.024 118.54 187.504 118.74 188.104 118.74ZM195.759 115.704L194.895 113.964H194.859V120H193.359V111.624H195.099L197.619 115.92L198.483 117.66H198.519V111.624H200.019V120H198.279L195.759 115.704ZM37.4263 135.232C37.3063 135.336 37.1703 135.444 37.0183 135.556C36.8663 135.66 36.6903 135.756 36.4903 135.844C36.2983 135.932 36.0783 136.004 35.8303 136.06C35.5903 136.116 35.3183 136.144 35.0143 136.144C34.5663 136.144 34.1663 136.084 33.8143 135.964C33.4703 135.844 33.1823 135.68 32.9503 135.472C32.7183 135.264 32.5423 135.02 32.4223 134.74C32.3023 134.452 32.2423 134.144 32.2423 133.816C32.2423 133.52 32.2863 133.26 32.3743 133.036C32.4623 132.804 32.5823 132.596 32.7343 132.412C32.8863 132.22 33.0663 132.052 33.2743 131.908C33.4823 131.756 33.7023 131.612 33.9343 131.476C33.6863 131.196 33.4663 130.892 33.2743 130.564C33.0903 130.228 32.9983 129.868 32.9983 129.484C32.9983 129.212 33.0543 128.956 33.1663 128.716C33.2783 128.468 33.4383 128.252 33.6463 128.068C33.8623 127.884 34.1183 127.74 34.4143 127.636C34.7103 127.532 35.0423 127.48 35.4103 127.48C35.7383 127.48 36.0423 127.524 36.3223 127.612C36.6023 127.7 36.8423 127.824 37.0423 127.984C37.2503 128.144 37.4103 128.34 37.5223 128.572C37.6423 128.804 37.7023 129.068 37.7023 129.364C37.7023 129.628 37.6543 129.872 37.5583 130.096C37.4703 130.312 37.3463 130.512 37.1863 130.696C37.0263 130.872 36.8423 131.04 36.6343 131.2C36.4263 131.352 36.2023 131.496 35.9623 131.632L37.4263 133.216C37.5383 132.944 37.6223 132.656 37.6783 132.352C37.7423 132.048 37.7823 131.744 37.7983 131.44H39.6823V132.724H38.9023C38.7823 133.268 38.5983 133.764 38.3503 134.212L40.0063 136H38.1223L37.4263 135.232ZM35.3623 128.668C35.1063 128.668 34.8943 128.744 34.7263 128.896C34.5583 129.04 34.4743 129.236 34.4743 129.484V129.568C34.4743 129.752 34.5303 129.936 34.6423 130.12C34.7623 130.296 34.9463 130.524 35.1943 130.804C35.4983 130.62 35.7463 130.428 35.9383 130.228C36.1383 130.028 36.2383 129.796 36.2383 129.532V129.46C36.2383 129.204 36.1503 129.008 35.9743 128.872C35.8063 128.736 35.6023 128.668 35.3623 128.668ZM35.2183 134.86C35.5063 134.86 35.7663 134.816 35.9983 134.728C36.2303 134.64 36.4343 134.52 36.6103 134.368L34.7023 132.304C34.4223 132.472 34.2023 132.652 34.0423 132.844C33.8903 133.028 33.8143 133.264 33.8143 133.552V133.684C33.8143 134.036 33.9343 134.32 34.1743 134.536C34.4143 134.752 34.7623 134.86 35.2183 134.86ZM47.2329 136.144C46.6809 136.144 46.1809 136.052 45.7329 135.868C45.2849 135.684 44.9009 135.408 44.5809 135.04C44.2689 134.672 44.0249 134.22 43.8489 133.684C43.6729 133.148 43.5849 132.524 43.5849 131.812C43.5849 131.108 43.6729 130.488 43.8489 129.952C44.0249 129.408 44.2689 128.952 44.5809 128.584C44.9009 128.216 45.2849 127.94 45.7329 127.756C46.1809 127.572 46.6809 127.48 47.2329 127.48C47.7849 127.48 48.2849 127.572 48.7329 127.756C49.1809 127.94 49.5649 128.216 49.8849 128.584C50.2049 128.952 50.4489 129.408 50.6169 129.952C50.7929 130.488 50.8809 131.108 50.8809 131.812C50.8809 132.524 50.7929 133.148 50.6169 133.684C50.4489 134.22 50.2049 134.672 49.8849 135.04C49.5649 135.408 49.1809 135.684 48.7329 135.868C48.2849 136.052 47.7849 136.144 47.2329 136.144ZM47.2329 134.74C47.8329 134.74 48.3089 134.54 48.6609 134.14C49.0209 133.74 49.2009 133.18 49.2009 132.46V131.164C49.2009 130.444 49.0209 129.884 48.6609 129.484C48.3089 129.084 47.8329 128.884 47.2329 128.884C46.6329 128.884 46.1529 129.084 45.7929 129.484C45.4409 129.884 45.2649 130.444 45.2649 131.164V132.46C45.2649 133.18 45.4409 133.74 45.7929 134.14C46.1529 134.54 46.6329 134.74 47.2329 134.74ZM52.4879 136V127.624H56.2559C56.6399 127.624 56.9839 127.688 57.2879 127.816C57.5999 127.936 57.8639 128.112 58.0799 128.344C58.2959 128.568 58.4599 128.84 58.5719 129.16C58.6839 129.48 58.7399 129.832 58.7399 130.216C58.7399 130.608 58.6839 130.964 58.5719 131.284C58.4599 131.596 58.2959 131.868 58.0799 132.1C57.8639 132.324 57.5999 132.5 57.2879 132.628C56.9839 132.748 56.6399 132.808 56.2559 132.808H54.0719V136H52.4879ZM54.0719 131.44H56.1119C56.4159 131.44 56.6559 131.36 56.8319 131.2C57.0079 131.032 57.0959 130.796 57.0959 130.492V129.94C57.0959 129.636 57.0079 129.404 56.8319 129.244C56.6559 129.084 56.4159 129.004 56.1119 129.004H54.0719V131.44ZM60.1754 136V127.624H63.9434C64.3274 127.624 64.6714 127.688 64.9754 127.816C65.2874 127.936 65.5514 128.112 65.7674 128.344C65.9834 128.568 66.1474 128.84 66.2594 129.16C66.3714 129.48 66.4274 129.832 66.4274 130.216C66.4274 130.608 66.3714 130.964 66.2594 131.284C66.1474 131.596 65.9834 131.868 65.7674 132.1C65.5514 132.324 65.2874 132.5 64.9754 132.628C64.6714 132.748 64.3274 132.808 63.9434 132.808H61.7594V136H60.1754ZM61.7594 131.44H63.7994C64.1034 131.44 64.3434 131.36 64.5194 131.2C64.6954 131.032 64.7834 130.796 64.7834 130.492V129.94C64.7834 129.636 64.6954 129.404 64.5194 129.244C64.3434 129.084 64.1034 129.004 63.7994 129.004H61.7594V131.44ZM71.1509 136.144C70.5989 136.144 70.0989 136.052 69.6509 135.868C69.2029 135.684 68.8189 135.408 68.4989 135.04C68.1869 134.672 67.9429 134.22 67.7669 133.684C67.5909 133.148 67.5029 132.524 67.5029 131.812C67.5029 131.108 67.5909 130.488 67.7669 129.952C67.9429 129.408 68.1869 128.952 68.4989 128.584C68.8189 128.216 69.2029 127.94 69.6509 127.756C70.0989 127.572 70.5989 127.48 71.1509 127.48C71.7029 127.48 72.2029 127.572 72.6509 127.756C73.0989 127.94 73.4829 128.216 73.8029 128.584C74.1229 128.952 74.3669 129.408 74.5349 129.952C74.7109 130.488 74.7989 131.108 74.7989 131.812C74.7989 132.524 74.7109 133.148 74.5349 133.684C74.3669 134.22 74.1229 134.672 73.8029 135.04C73.4829 135.408 73.0989 135.684 72.6509 135.868C72.2029 136.052 71.7029 136.144 71.1509 136.144ZM71.1509 134.74C71.7509 134.74 72.2269 134.54 72.5789 134.14C72.9389 133.74 73.1189 133.18 73.1189 132.46V131.164C73.1189 130.444 72.9389 129.884 72.5789 129.484C72.2269 129.084 71.7509 128.884 71.1509 128.884C70.5509 128.884 70.0709 129.084 69.7109 129.484C69.3589 129.884 69.1829 130.444 69.1829 131.164V132.46C69.1829 133.18 69.3589 133.74 69.7109 134.14C70.0709 134.54 70.5509 134.74 71.1509 134.74ZM77.9899 136H76.4059V127.624H80.1859C80.5699 127.624 80.9139 127.684 81.2179 127.804C81.5219 127.924 81.7779 128.1 81.9859 128.332C82.2019 128.556 82.3659 128.828 82.4779 129.148C82.5979 129.468 82.6579 129.824 82.6579 130.216C82.6579 130.792 82.5259 131.288 82.2619 131.704C82.0059 132.12 81.6179 132.416 81.0979 132.592L82.8139 136H81.0499L79.4899 132.772H77.9899V136ZM80.0299 131.44C80.3339 131.44 80.5739 131.36 80.7499 131.2C80.9259 131.032 81.0139 130.796 81.0139 130.492V129.94C81.0139 129.636 80.9259 129.404 80.7499 129.244C80.5739 129.084 80.3339 129.004 80.0299 129.004H77.9899V131.44H80.0299ZM87.3697 129.028V136H85.7857V129.028H83.4097V127.624H89.7457V129.028H87.3697ZM92.5426 127.624V132.772C92.5426 133.428 92.6666 133.92 92.9146 134.248C93.1706 134.576 93.5986 134.74 94.1986 134.74C94.7986 134.74 95.2226 134.576 95.4706 134.248C95.7266 133.92 95.8546 133.428 95.8546 132.772V127.624H97.4146V132.568C97.4146 133.184 97.3546 133.716 97.2346 134.164C97.1226 134.612 96.9386 134.984 96.6826 135.28C96.4266 135.576 96.0906 135.796 95.6746 135.94C95.2666 136.076 94.7706 136.144 94.1866 136.144C93.5946 136.144 93.0946 136.076 92.6866 135.94C92.2866 135.796 91.9586 135.576 91.7026 135.28C91.4466 134.984 91.2626 134.612 91.1506 134.164C91.0386 133.716 90.9826 133.184 90.9826 132.568V127.624H92.5426ZM101.728 131.704L100.864 129.964H100.828V136H99.3278V127.624H101.068L103.588 131.92L104.452 133.66H104.488V127.624H105.988V136H104.248L101.728 131.704ZM107.605 136V134.728H108.709V128.896H107.605V127.624H111.409V128.896H110.293V134.728H111.409V136H107.605ZM116.256 129.028V136H114.672V129.028H112.296V127.624H118.632V129.028H116.256ZM119.929 136V127.624H125.449V129.028H121.513V131.056H124.993V132.46H121.513V134.596H125.449V136H119.929ZM122.845 127.072L121.921 126.616L123.061 124.372L124.357 125.02L122.845 127.072ZM129.961 127.624H133.009C133.553 127.624 134.045 127.712 134.485 127.888C134.933 128.064 135.313 128.328 135.625 128.68C135.945 129.024 136.189 129.46 136.357 129.988C136.533 130.508 136.621 131.116 136.621 131.812C136.621 132.508 136.533 133.12 136.357 133.648C136.189 134.168 135.945 134.604 135.625 134.956C135.313 135.3 134.933 135.56 134.485 135.736C134.045 135.912 133.553 136 133.009 136H129.961V127.624ZM133.009 134.596C133.601 134.596 134.069 134.424 134.413 134.08C134.765 133.728 134.941 133.192 134.941 132.472V131.152C134.941 130.432 134.765 129.9 134.413 129.556C134.069 129.204 133.601 129.028 133.009 129.028H131.545V134.596H133.009ZM137.886 136V134.728H138.99V128.896H137.886V127.624H141.69V128.896H140.574V134.728H141.69V136H137.886ZM145.912 136.144C145.192 136.144 144.58 136.016 144.076 135.76C143.58 135.504 143.152 135.168 142.792 134.752L143.86 133.72C144.148 134.056 144.468 134.312 144.82 134.488C145.18 134.664 145.576 134.752 146.008 134.752C146.496 134.752 146.864 134.648 147.112 134.44C147.36 134.224 147.484 133.936 147.484 133.576C147.484 133.296 147.404 133.068 147.244 132.892C147.084 132.716 146.784 132.588 146.344 132.508L145.552 132.388C143.88 132.124 143.044 131.312 143.044 129.952C143.044 129.576 143.112 129.236 143.248 128.932C143.392 128.628 143.596 128.368 143.86 128.152C144.124 127.936 144.44 127.772 144.808 127.66C145.184 127.54 145.608 127.48 146.08 127.48C146.712 127.48 147.264 127.584 147.736 127.792C148.208 128 148.612 128.308 148.948 128.716L147.868 129.736C147.66 129.48 147.408 129.272 147.112 129.112C146.816 128.952 146.444 128.872 145.996 128.872C145.54 128.872 145.196 128.96 144.964 129.136C144.74 129.304 144.628 129.544 144.628 129.856C144.628 130.176 144.72 130.412 144.904 130.564C145.088 130.716 145.384 130.828 145.792 130.9L146.572 131.044C147.42 131.196 148.044 131.468 148.444 131.86C148.852 132.244 149.056 132.784 149.056 133.48C149.056 133.88 148.984 134.244 148.84 134.572C148.704 134.892 148.5 135.172 148.228 135.412C147.964 135.644 147.636 135.824 147.244 135.952C146.86 136.08 146.416 136.144 145.912 136.144ZM150.644 136V127.624H154.412C154.796 127.624 155.14 127.688 155.444 127.816C155.756 127.936 156.02 128.112 156.236 128.344C156.452 128.568 156.616 128.84 156.728 129.16C156.84 129.48 156.896 129.832 156.896 130.216C156.896 130.608 156.84 130.964 156.728 131.284C156.616 131.596 156.452 131.868 156.236 132.1C156.02 132.324 155.756 132.5 155.444 132.628C155.14 132.748 154.796 132.808 154.412 132.808H152.228V136H150.644ZM152.228 131.44H154.268C154.572 131.44 154.812 131.36 154.988 131.2C155.164 131.032 155.252 130.796 155.252 130.492V129.94C155.252 129.636 155.164 129.404 154.988 129.244C154.812 129.084 154.572 129.004 154.268 129.004H152.228V131.44ZM161.62 136.144C161.068 136.144 160.568 136.052 160.12 135.868C159.672 135.684 159.288 135.408 158.968 135.04C158.656 134.672 158.412 134.22 158.236 133.684C158.06 133.148 157.972 132.524 157.972 131.812C157.972 131.108 158.06 130.488 158.236 129.952C158.412 129.408 158.656 128.952 158.968 128.584C159.288 128.216 159.672 127.94 160.12 127.756C160.568 127.572 161.068 127.48 161.62 127.48C162.172 127.48 162.672 127.572 163.12 127.756C163.568 127.94 163.952 128.216 164.272 128.584C164.592 128.952 164.836 129.408 165.004 129.952C165.18 130.488 165.268 131.108 165.268 131.812C165.268 132.524 165.18 133.148 165.004 133.684C164.836 134.22 164.592 134.672 164.272 135.04C163.952 135.408 163.568 135.684 163.12 135.868C162.672 136.052 162.172 136.144 161.62 136.144ZM161.62 134.74C162.22 134.74 162.696 134.54 163.048 134.14C163.408 133.74 163.588 133.18 163.588 132.46V131.164C163.588 130.444 163.408 129.884 163.048 129.484C162.696 129.084 162.22 128.884 161.62 128.884C161.02 128.884 160.54 129.084 160.18 129.484C159.828 129.884 159.652 130.444 159.652 131.164V132.46C159.652 133.18 159.828 133.74 160.18 134.14C160.54 134.54 161.02 134.74 161.62 134.74ZM169.275 131.704L168.411 129.964H168.375V136H166.875V127.624H168.615L171.135 131.92L171.999 133.66H172.035V127.624H173.535V136H171.795L169.275 131.704ZM175.152 136V134.728H176.256V128.896H175.152V127.624H178.956V128.896H177.84V134.728H178.956V136H175.152ZM180.574 127.624H184.45C184.794 127.624 185.102 127.676 185.374 127.78C185.654 127.884 185.89 128.028 186.082 128.212C186.274 128.396 186.418 128.624 186.514 128.896C186.618 129.16 186.67 129.452 186.67 129.772C186.67 130.092 186.626 130.364 186.538 130.588C186.458 130.804 186.346 130.984 186.202 131.128C186.066 131.272 185.906 131.38 185.722 131.452C185.546 131.524 185.362 131.564 185.17 131.572V131.644C185.354 131.644 185.55 131.68 185.758 131.752C185.974 131.824 186.17 131.94 186.346 132.1C186.53 132.252 186.682 132.452 186.802 132.7C186.922 132.94 186.982 133.24 186.982 133.6C186.982 133.936 186.926 134.252 186.814 134.548C186.71 134.836 186.562 135.088 186.37 135.304C186.178 135.52 185.95 135.692 185.686 135.82C185.422 135.94 185.134 136 184.822 136H180.574V127.624ZM182.158 134.656H184.366C184.67 134.656 184.906 134.58 185.074 134.428C185.242 134.268 185.326 134.04 185.326 133.744V133.336C185.326 133.04 185.242 132.812 185.074 132.652C184.906 132.492 184.67 132.412 184.366 132.412H182.158V134.656ZM182.158 131.116H184.114C184.402 131.116 184.626 131.04 184.786 130.888C184.946 130.728 185.026 130.508 185.026 130.228V129.856C185.026 129.576 184.946 129.36 184.786 129.208C184.626 129.048 184.402 128.968 184.114 128.968H182.158V131.116ZM188.531 136V127.624H190.115V134.596H193.415V136H188.531ZM194.789 136V127.624H200.309V129.028H196.373V131.056H199.853V132.46H196.373V134.596H200.309V136H194.789ZM112.643 152.144C111.923 152.144 111.311 152.016 110.807 151.76C110.311 151.504 109.883 151.168 109.523 150.752L110.591 149.72C110.879 150.056 111.199 150.312 111.551 150.488C111.911 150.664 112.307 150.752 112.739 150.752C113.227 150.752 113.595 150.648 113.843 150.44C114.091 150.224 114.215 149.936 114.215 149.576C114.215 149.296 114.135 149.068 113.975 148.892C113.815 148.716 113.515 148.588 113.075 148.508L112.283 148.388C110.611 148.124 109.775 147.312 109.775 145.952C109.775 145.576 109.843 145.236 109.979 144.932C110.123 144.628 110.327 144.368 110.591 144.152C110.855 143.936 111.171 143.772 111.539 143.66C111.915 143.54 112.339 143.48 112.811 143.48C113.443 143.48 113.995 143.584 114.467 143.792C114.939 144 115.343 144.308 115.679 144.716L114.599 145.736C114.391 145.48 114.139 145.272 113.843 145.112C113.547 144.952 113.175 144.872 112.727 144.872C112.271 144.872 111.927 144.96 111.695 145.136C111.471 145.304 111.359 145.544 111.359 145.856C111.359 146.176 111.451 146.412 111.635 146.564C111.819 146.716 112.115 146.828 112.523 146.9L113.303 147.044C114.151 147.196 114.775 147.468 115.175 147.86C115.583 148.244 115.787 148.784 115.787 149.48C115.787 149.88 115.715 150.244 115.571 150.572C115.435 150.892 115.231 151.172 114.959 151.412C114.695 151.644 114.367 151.824 113.975 151.952C113.591 152.08 113.147 152.144 112.643 152.144ZM118.875 143.624V148.772C118.875 149.428 118.999 149.92 119.247 150.248C119.503 150.576 119.931 150.74 120.531 150.74C121.131 150.74 121.555 150.576 121.803 150.248C122.059 149.92 122.187 149.428 122.187 148.772V143.624H123.747V148.568C123.747 149.184 123.687 149.716 123.567 150.164C123.455 150.612 123.271 150.984 123.015 151.28C122.759 151.576 122.423 151.796 122.007 151.94C121.599 152.076 121.103 152.144 120.519 152.144C119.927 152.144 119.427 152.076 119.019 151.94C118.619 151.796 118.291 151.576 118.035 151.28C117.779 150.984 117.595 150.612 117.483 150.164C117.371 149.716 117.315 149.184 117.315 148.568V143.624H118.875ZM127.244 152H125.66V143.624H129.44C129.824 143.624 130.168 143.684 130.472 143.804C130.776 143.924 131.032 144.1 131.24 144.332C131.456 144.556 131.62 144.828 131.732 145.148C131.852 145.468 131.912 145.824 131.912 146.216C131.912 146.792 131.78 147.288 131.516 147.704C131.26 148.12 130.872 148.416 130.352 148.592L132.068 152H130.304L128.744 148.772H127.244V152ZM129.284 147.44C129.588 147.44 129.828 147.36 130.004 147.2C130.18 147.032 130.268 146.796 130.268 146.492V145.94C130.268 145.636 130.18 145.404 130.004 145.244C129.828 145.084 129.588 145.004 129.284 145.004H127.244V147.44H129.284ZM136.464 152V143.624H138.048V150.596H141.348V152H136.464ZM142.722 152V143.624H148.242V145.028H144.306V147.056H147.786V148.46H144.306V150.596H148.242V152H142.722ZM159.078 145.988H159.03L158.382 147.32L156.666 150.488L154.95 147.32L154.302 145.988H154.254V152H152.754V143.624H154.542L156.69 147.716H156.738L158.862 143.624H160.578V152H159.078V145.988ZM167.734 152L167.062 149.864H164.086L163.426 152H161.818L164.626 143.624H166.594L169.378 152H167.734ZM165.598 145.064H165.538L164.47 148.508H166.678L165.598 145.064ZM172.197 152H170.613V143.624H174.393C174.777 143.624 175.121 143.684 175.425 143.804C175.729 143.924 175.985 144.1 176.193 144.332C176.409 144.556 176.573 144.828 176.685 145.148C176.805 145.468 176.865 145.824 176.865 146.216C176.865 146.792 176.733 147.288 176.469 147.704C176.213 148.12 175.825 148.416 175.305 148.592L177.021 152H175.257L173.697 148.772H172.197V152ZM174.237 147.44C174.541 147.44 174.781 147.36 174.957 147.2C175.133 147.032 175.221 146.796 175.221 146.492V145.94C175.221 145.636 175.133 145.404 174.957 145.244C174.781 145.084 174.541 145.004 174.237 145.004H172.197V147.44H174.237ZM181.716 152.144C181.164 152.144 180.664 152.056 180.216 151.88C179.776 151.696 179.396 151.424 179.076 151.064C178.764 150.704 178.524 150.26 178.356 149.732C178.188 149.196 178.104 148.576 178.104 147.872C178.104 147.168 178.188 146.544 178.356 146C178.524 145.448 178.764 144.988 179.076 144.62C179.396 144.244 179.776 143.96 180.216 143.768C180.664 143.576 181.164 143.48 181.716 143.48C182.468 143.48 183.092 143.64 183.588 143.96C184.084 144.28 184.48 144.764 184.776 145.412L183.42 146.132C183.3 145.756 183.104 145.456 182.832 145.232C182.56 145 182.188 144.884 181.716 144.884C181.124 144.884 180.652 145.084 180.3 145.484C179.956 145.884 179.784 146.444 179.784 147.164V148.484C179.784 149.212 179.956 149.772 180.3 150.164C180.652 150.548 181.124 150.74 181.716 150.74C182.188 150.74 182.572 150.612 182.868 150.356C183.172 150.1 183.392 149.784 183.528 149.408L184.812 150.164C184.508 150.788 184.104 151.276 183.6 151.628C183.096 151.972 182.468 152.144 181.716 152.144ZM191.24 148.46H187.748V152H186.164V143.624H187.748V147.056H191.24V143.624H192.824V152H191.24V148.46ZM194.789 152V143.624H200.309V145.028H196.373V147.056H199.853V148.46H196.373V150.596H200.309V152H194.789ZM197.705 143.072L196.781 142.616L197.921 140.372L199.217 141.02L197.705 143.072Z" fill="#41637D"/>
<line x1="225.471" y1="1.64788e-08" x2="225.471" y2="190" stroke="#41637D" stroke-width="0.839895"/>
<line x1="267.465" y1="1.64788e-08" x2="267.465" y2="190" stroke="#41637D" stroke-width="0.839895"/>
<line x1="309.461" y1="1.64788e-08" x2="309.461" y2="190" stroke="#41637D" stroke-width="0.839895"/>
</svg>
