<svg width="308" height="216" viewBox="0 0 308 216" fill="none" xmlns="http://www.w3.org/2000/svg">
<path d="M200.658 212.144C200.122 212.144 199.658 212.048 199.266 211.856C198.874 211.656 198.55 211.372 198.294 211.004C198.038 210.636 197.846 210.184 197.718 209.648C197.598 209.112 197.538 208.5 197.538 207.812C197.538 207.132 197.598 206.524 197.718 205.988C197.846 205.444 198.038 204.988 198.294 204.62C198.55 204.252 198.874 203.972 199.266 203.78C199.658 203.58 200.122 203.48 200.658 203.48C201.722 203.48 202.506 203.86 203.01 204.62C203.522 205.38 203.778 206.444 203.778 207.812C203.778 209.18 203.522 210.244 203.01 211.004C202.506 211.764 201.722 212.144 200.658 212.144ZM200.658 210.812C201.194 210.812 201.566 210.612 201.774 210.212C201.99 209.804 202.098 209.256 202.098 208.568V207.056C202.098 206.368 201.99 205.824 201.774 205.424C201.566 205.016 201.194 204.812 200.658 204.812C200.122 204.812 199.746 205.016 199.53 205.424C199.322 205.824 199.218 206.368 199.218 207.056V208.568C199.218 209.256 199.322 209.804 199.53 210.212C199.746 210.612 200.122 210.812 200.658 210.812ZM206.413 212L212.221 203.624H213.613L207.805 212H206.413ZM206.989 208.232C206.309 208.232 205.789 208.032 205.429 207.632C205.077 207.224 204.901 206.632 204.901 205.856C204.901 205.08 205.077 204.492 205.429 204.092C205.789 203.684 206.309 203.48 206.989 203.48C207.669 203.48 208.185 203.684 208.537 204.092C208.889 204.492 209.065 205.08 209.065 205.856C209.065 206.632 208.889 207.224 208.537 207.632C208.185 208.032 207.669 208.232 206.989 208.232ZM206.989 207.32C207.485 207.32 207.733 206.94 207.733 206.18V205.532C207.733 204.772 207.485 204.392 206.989 204.392C206.493 204.392 206.245 204.772 206.245 205.532V206.18C206.245 206.94 206.493 207.32 206.989 207.32ZM213.037 212.144C212.365 212.144 211.849 211.944 211.489 211.544C211.137 211.136 210.961 210.544 210.961 209.768C210.961 208.992 211.137 208.404 211.489 208.004C211.849 207.596 212.365 207.392 213.037 207.392C213.717 207.392 214.233 207.596 214.585 208.004C214.945 208.404 215.125 208.992 215.125 209.768C215.125 210.544 214.945 211.136 214.585 211.544C214.233 211.944 213.717 212.144 213.037 212.144ZM213.037 211.232C213.533 211.232 213.781 210.852 213.781 210.092V209.444C213.781 208.684 213.533 208.304 213.037 208.304C212.541 208.304 212.293 208.684 212.293 209.444V210.092C212.293 210.852 212.541 211.232 213.037 211.232Z" fill="#41637D"/>
<path d="M241.033 204.992H237.265L237.073 207.8H237.157C237.245 207.624 237.341 207.46 237.445 207.308C237.549 207.156 237.669 207.028 237.805 206.924C237.941 206.82 238.097 206.74 238.273 206.684C238.457 206.62 238.677 206.588 238.933 206.588C239.293 206.588 239.629 206.648 239.941 206.768C240.253 206.888 240.521 207.064 240.745 207.296C240.977 207.52 241.157 207.796 241.285 208.124C241.421 208.452 241.489 208.824 241.489 209.24C241.489 209.664 241.421 210.052 241.285 210.404C241.149 210.756 240.949 211.064 240.685 211.328C240.421 211.584 240.097 211.784 239.713 211.928C239.329 212.072 238.889 212.144 238.393 212.144C238.009 212.144 237.665 212.1 237.361 212.012C237.057 211.932 236.789 211.82 236.557 211.676C236.325 211.532 236.125 211.368 235.957 211.184C235.789 210.992 235.641 210.792 235.513 210.584L236.665 209.696C236.761 209.856 236.861 210.008 236.965 210.152C237.069 210.288 237.189 210.408 237.325 210.512C237.469 210.616 237.625 210.7 237.793 210.764C237.969 210.82 238.173 210.848 238.405 210.848C238.877 210.848 239.233 210.716 239.473 210.452C239.721 210.188 239.845 209.828 239.845 209.372V209.276C239.845 208.844 239.721 208.504 239.473 208.256C239.225 208.008 238.881 207.884 238.441 207.884C238.097 207.884 237.817 207.952 237.601 208.088C237.385 208.216 237.213 208.356 237.085 208.508L235.789 208.328L236.101 203.624H241.033V204.992ZM245.648 212.144C245.112 212.144 244.648 212.048 244.256 211.856C243.864 211.656 243.54 211.372 243.284 211.004C243.028 210.636 242.836 210.184 242.708 209.648C242.588 209.112 242.528 208.5 242.528 207.812C242.528 207.132 242.588 206.524 242.708 205.988C242.836 205.444 243.028 204.988 243.284 204.62C243.54 204.252 243.864 203.972 244.256 203.78C244.648 203.58 245.112 203.48 245.648 203.48C246.712 203.48 247.496 203.86 248 204.62C248.512 205.38 248.768 206.444 248.768 207.812C248.768 209.18 248.512 210.244 248 211.004C247.496 211.764 246.712 212.144 245.648 212.144ZM245.648 210.812C246.184 210.812 246.556 210.612 246.764 210.212C246.98 209.804 247.088 209.256 247.088 208.568V207.056C247.088 206.368 246.98 205.824 246.764 205.424C246.556 205.016 246.184 204.812 245.648 204.812C245.112 204.812 244.736 205.016 244.52 205.424C244.312 205.824 244.208 206.368 244.208 207.056V208.568C244.208 209.256 244.312 209.804 244.52 210.212C244.736 210.612 245.112 210.812 245.648 210.812ZM251.403 212L257.211 203.624H258.603L252.795 212H251.403ZM251.979 208.232C251.299 208.232 250.779 208.032 250.419 207.632C250.067 207.224 249.891 206.632 249.891 205.856C249.891 205.08 250.067 204.492 250.419 204.092C250.779 203.684 251.299 203.48 251.979 203.48C252.659 203.48 253.175 203.684 253.527 204.092C253.879 204.492 254.055 205.08 254.055 205.856C254.055 206.632 253.879 207.224 253.527 207.632C253.175 208.032 252.659 208.232 251.979 208.232ZM251.979 207.32C252.475 207.32 252.723 206.94 252.723 206.18V205.532C252.723 204.772 252.475 204.392 251.979 204.392C251.483 204.392 251.235 204.772 251.235 205.532V206.18C251.235 206.94 251.483 207.32 251.979 207.32ZM258.027 212.144C257.355 212.144 256.839 211.944 256.479 211.544C256.127 211.136 255.951 210.544 255.951 209.768C255.951 208.992 256.127 208.404 256.479 208.004C256.839 207.596 257.355 207.392 258.027 207.392C258.707 207.392 259.223 207.596 259.575 208.004C259.935 208.404 260.115 208.992 260.115 209.768C260.115 210.544 259.935 211.136 259.575 211.544C259.223 211.944 258.707 212.144 258.027 212.144ZM258.027 211.232C258.523 211.232 258.771 210.852 258.771 210.092V209.444C258.771 208.684 258.523 208.304 258.027 208.304C257.531 208.304 257.283 208.684 257.283 209.444V210.092C257.283 210.852 257.531 211.232 258.027 211.232Z" fill="#41637D"/>
<path d="M274.58 212V210.716H276.884V204.764H276.776L274.952 206.924L273.968 206.096L276.044 203.624H278.432V210.716H280.352V212H274.58ZM284.284 212.144C283.748 212.144 283.284 212.048 282.892 211.856C282.5 211.656 282.176 211.372 281.92 211.004C281.664 210.636 281.472 210.184 281.344 209.648C281.224 209.112 281.164 208.5 281.164 207.812C281.164 207.132 281.224 206.524 281.344 205.988C281.472 205.444 281.664 204.988 281.92 204.62C282.176 204.252 282.5 203.972 282.892 203.78C283.284 203.58 283.748 203.48 284.284 203.48C285.348 203.48 286.132 203.86 286.636 204.62C287.148 205.38 287.404 206.444 287.404 207.812C287.404 209.18 287.148 210.244 286.636 211.004C286.132 211.764 285.348 212.144 284.284 212.144ZM284.284 210.812C284.82 210.812 285.192 210.612 285.4 210.212C285.616 209.804 285.724 209.256 285.724 208.568V207.056C285.724 206.368 285.616 205.824 285.4 205.424C285.192 205.016 284.82 204.812 284.284 204.812C283.748 204.812 283.372 205.016 283.156 205.424C282.948 205.824 282.844 206.368 282.844 207.056V208.568C282.844 209.256 282.948 209.804 283.156 210.212C283.372 210.612 283.748 210.812 284.284 210.812ZM291.479 212.144C290.943 212.144 290.479 212.048 290.087 211.856C289.695 211.656 289.371 211.372 289.115 211.004C288.859 210.636 288.667 210.184 288.539 209.648C288.419 209.112 288.359 208.5 288.359 207.812C288.359 207.132 288.419 206.524 288.539 205.988C288.667 205.444 288.859 204.988 289.115 204.62C289.371 204.252 289.695 203.972 290.087 203.78C290.479 203.58 290.943 203.48 291.479 203.48C292.543 203.48 293.327 203.86 293.831 204.62C294.343 205.38 294.599 206.444 294.599 207.812C294.599 209.18 294.343 210.244 293.831 211.004C293.327 211.764 292.543 212.144 291.479 212.144ZM291.479 210.812C292.015 210.812 292.387 210.612 292.595 210.212C292.811 209.804 292.919 209.256 292.919 208.568V207.056C292.919 206.368 292.811 205.824 292.595 205.424C292.387 205.016 292.015 204.812 291.479 204.812C290.943 204.812 290.567 205.016 290.351 205.424C290.143 205.824 290.039 206.368 290.039 207.056V208.568C290.039 209.256 290.143 209.804 290.351 210.212C290.567 210.612 290.943 210.812 291.479 210.812ZM297.234 212L303.042 203.624H304.434L298.626 212H297.234ZM297.81 208.232C297.13 208.232 296.61 208.032 296.25 207.632C295.898 207.224 295.722 206.632 295.722 205.856C295.722 205.08 295.898 204.492 296.25 204.092C296.61 203.684 297.13 203.48 297.81 203.48C298.49 203.48 299.006 203.684 299.358 204.092C299.71 204.492 299.886 205.08 299.886 205.856C299.886 206.632 299.71 207.224 299.358 207.632C299.006 208.032 298.49 208.232 297.81 208.232ZM297.81 207.32C298.306 207.32 298.554 206.94 298.554 206.18V205.532C298.554 204.772 298.306 204.392 297.81 204.392C297.314 204.392 297.066 204.772 297.066 205.532V206.18C297.066 206.94 297.314 207.32 297.81 207.32ZM303.858 212.144C303.186 212.144 302.67 211.944 302.31 211.544C301.958 211.136 301.782 210.544 301.782 209.768C301.782 208.992 301.958 208.404 302.31 208.004C302.67 207.596 303.186 207.392 303.858 207.392C304.538 207.392 305.054 207.596 305.406 208.004C305.766 208.404 305.946 208.992 305.946 209.768C305.946 210.544 305.766 211.136 305.406 211.544C305.054 211.944 304.538 212.144 303.858 212.144ZM303.858 211.232C304.354 211.232 304.602 210.852 304.602 210.092V209.444C304.602 208.684 304.354 208.304 303.858 208.304C303.362 208.304 303.114 208.684 303.114 209.444V210.092C303.114 210.852 303.362 211.232 303.858 211.232Z" fill="#41637D"/>
<line opacity="0.2" x1="215.115" y1="1.64788e-08" x2="215.115" y2="190" stroke="#41637D" stroke-width="0.839895"/>
<line opacity="0.2" x1="257.11" y1="1.64788e-08" x2="257.11" y2="190" stroke="#41637D" stroke-width="0.839895"/>
<line opacity="0.2" x1="223.515" y1="1.64788e-08" x2="223.515" y2="190" stroke="#41637D" stroke-width="0.839895"/>
<line opacity="0.2" x1="265.509" y1="1.64788e-08" x2="265.509" y2="190" stroke="#41637D" stroke-width="0.839895"/>
<line opacity="0.2" x1="231.913" y1="1.64788e-08" x2="231.913" y2="190" stroke="#41637D" stroke-width="0.839895"/>
<line opacity="0.2" x1="273.908" y1="1.64788e-08" x2="273.908" y2="190" stroke="#41637D" stroke-width="0.839895"/>
<line opacity="0.2" x1="240.313" y1="1.64788e-08" x2="240.313" y2="190" stroke="#41637D" stroke-width="0.839895"/>
<line opacity="0.2" x1="282.307" y1="1.64788e-08" x2="282.307" y2="190" stroke="#41637D" stroke-width="0.839895"/>
<rect x="206.296" width="83.9895" height="16.7979" fill="#EDEDED"/>
<rect x="206.243" width="28" height="17" fill="#39A4F5"/>
<rect x="207.243" width="12" height="17" fill="#1084DD"/>
<path d="M42.1686 4.624H45.2166C45.7606 4.624 46.2526 4.712 46.6926 4.888C47.1406 5.064 47.5206 5.328 47.8326 5.68C48.1526 6.024 48.3966 6.46 48.5646 6.988C48.7406 7.508 48.8286 8.116 48.8286 8.812C48.8286 9.508 48.7406 10.12 48.5646 10.648C48.3966 11.168 48.1526 11.604 47.8326 11.956C47.5206 12.3 47.1406 12.56 46.6926 12.736C46.2526 12.912 45.7606 13 45.2166 13H42.1686V4.624ZM45.2166 11.596C45.8086 11.596 46.2766 11.424 46.6206 11.08C46.9726 10.728 47.1486 10.192 47.1486 9.472V8.152C47.1486 7.432 46.9726 6.9 46.6206 6.556C46.2766 6.204 45.8086 6.028 45.2166 6.028H43.7526V11.596H45.2166ZM50.442 13V4.624H55.962V6.028H52.026V8.056H55.506V9.46H52.026V11.596H55.962V13H50.442ZM60.2413 13.144C59.5213 13.144 58.9093 13.016 58.4053 12.76C57.9093 12.504 57.4813 12.168 57.1213 11.752L58.1893 10.72C58.4773 11.056 58.7973 11.312 59.1493 11.488C59.5093 11.664 59.9053 11.752 60.3373 11.752C60.8253 11.752 61.1933 11.648 61.4413 11.44C61.6893 11.224 61.8133 10.936 61.8133 10.576C61.8133 10.296 61.7333 10.068 61.5733 9.892C61.4133 9.716 61.1133 9.588 60.6733 9.508L59.8813 9.388C58.2093 9.124 57.3733 8.312 57.3733 6.952C57.3733 6.576 57.4413 6.236 57.5773 5.932C57.7213 5.628 57.9253 5.368 58.1893 5.152C58.4533 4.936 58.7693 4.772 59.1373 4.66C59.5133 4.54 59.9373 4.48 60.4093 4.48C61.0413 4.48 61.5933 4.584 62.0653 4.792C62.5373 5 62.9413 5.308 63.2773 5.716L62.1973 6.736C61.9893 6.48 61.7373 6.272 61.4413 6.112C61.1453 5.952 60.7733 5.872 60.3253 5.872C59.8693 5.872 59.5253 5.96 59.2933 6.136C59.0693 6.304 58.9573 6.544 58.9573 6.856C58.9573 7.176 59.0493 7.412 59.2333 7.564C59.4173 7.716 59.7133 7.828 60.1213 7.9L60.9013 8.044C61.7493 8.196 62.3733 8.468 62.7733 8.86C63.1813 9.244 63.3853 9.784 63.3853 10.48C63.3853 10.88 63.3133 11.244 63.1693 11.572C63.0333 11.892 62.8293 12.172 62.5573 12.412C62.2933 12.644 61.9653 12.824 61.5733 12.952C61.1893 13.08 60.7453 13.144 60.2413 13.144ZM64.6253 13V11.728H65.7293V5.896H64.6253V4.624H68.4293V5.896H67.3133V11.728H68.4293V13H64.6253ZM75.3875 11.704H75.3395C75.2675 12.112 75.0395 12.456 74.6555 12.736C74.2795 13.008 73.7755 13.144 73.1435 13.144C72.6475 13.144 72.1875 13.052 71.7635 12.868C71.3475 12.684 70.9835 12.412 70.6715 12.052C70.3675 11.684 70.1275 11.232 69.9515 10.696C69.7755 10.16 69.6875 9.54 69.6875 8.836C69.6875 8.132 69.7755 7.512 69.9515 6.976C70.1355 6.432 70.3915 5.976 70.7195 5.608C71.0475 5.24 71.4395 4.96 71.8955 4.768C72.3515 4.576 72.8595 4.48 73.4195 4.48C74.1715 4.48 74.8115 4.644 75.3395 4.972C75.8675 5.3 76.2835 5.772 76.5875 6.388L75.3035 7.144C75.1515 6.784 74.9235 6.484 74.6195 6.244C74.3235 6.004 73.9235 5.884 73.4195 5.884C72.7955 5.884 72.2955 6.076 71.9195 6.46C71.5515 6.836 71.3675 7.396 71.3675 8.14V9.484C71.3675 10.22 71.5555 10.78 71.9315 11.164C72.3075 11.548 72.8115 11.74 73.4435 11.74C73.6915 11.74 73.9235 11.712 74.1395 11.656C74.3555 11.592 74.5435 11.5 74.7035 11.38C74.8635 11.26 74.9915 11.112 75.0875 10.936C75.1835 10.76 75.2315 10.552 75.2315 10.312V9.772H73.5875V8.44H76.7555V13H75.3875V11.704ZM80.9904 8.704L80.1264 6.964H80.0904V13H78.5904V4.624H80.3304L82.8504 8.92L83.7144 10.66H83.7504V4.624H85.2504V13H83.5104L80.9904 8.704ZM90.0514 4.624H93.0994C93.6434 4.624 94.1354 4.712 94.5754 4.888C95.0234 5.064 95.4034 5.328 95.7154 5.68C96.0354 6.024 96.2794 6.46 96.4474 6.988C96.6234 7.508 96.7114 8.116 96.7114 8.812C96.7114 9.508 96.6234 10.12 96.4474 10.648C96.2794 11.168 96.0354 11.604 95.7154 11.956C95.4034 12.3 95.0234 12.56 94.5754 12.736C94.1354 12.912 93.6434 13 93.0994 13H90.0514V4.624ZM93.0994 11.596C93.6914 11.596 94.1594 11.424 94.5034 11.08C94.8554 10.728 95.0314 10.192 95.0314 9.472V8.152C95.0314 7.432 94.8554 6.9 94.5034 6.556C94.1594 6.204 93.6914 6.028 93.0994 6.028H91.6354V11.596H93.0994ZM99.8248 4.624V9.772C99.8248 10.428 99.9488 10.92 100.197 11.248C100.453 11.576 100.881 11.74 101.481 11.74C102.081 11.74 102.505 11.576 102.753 11.248C103.009 10.92 103.137 10.428 103.137 9.772V4.624H104.697V9.568C104.697 10.184 104.637 10.716 104.517 11.164C104.405 11.612 104.221 11.984 103.965 12.28C103.709 12.576 103.373 12.796 102.957 12.94C102.549 13.076 102.053 13.144 101.469 13.144C100.877 13.144 100.377 13.076 99.9688 12.94C99.5688 12.796 99.2408 12.576 98.9848 12.28C98.7288 11.984 98.5448 11.612 98.4328 11.164C98.3208 10.716 98.2648 10.184 98.2648 9.568V4.624H99.8248ZM109.446 13V4.624H113.214C113.598 4.624 113.942 4.688 114.246 4.816C114.558 4.936 114.822 5.112 115.038 5.344C115.254 5.568 115.418 5.84 115.53 6.16C115.642 6.48 115.698 6.832 115.698 7.216C115.698 7.608 115.642 7.964 115.53 8.284C115.418 8.596 115.254 8.868 115.038 9.1C114.822 9.324 114.558 9.5 114.246 9.628C113.942 9.748 113.598 9.808 113.214 9.808H111.03V13H109.446ZM111.03 8.44H113.07C113.374 8.44 113.614 8.36 113.79 8.2C113.966 8.032 114.054 7.796 114.054 7.492V6.94C114.054 6.636 113.966 6.404 113.79 6.244C113.614 6.084 113.374 6.004 113.07 6.004H111.03V8.44ZM118.717 13H117.133V4.624H120.913C121.297 4.624 121.641 4.684 121.945 4.804C122.249 4.924 122.505 5.1 122.713 5.332C122.929 5.556 123.093 5.828 123.205 6.148C123.325 6.468 123.385 6.824 123.385 7.216C123.385 7.792 123.253 8.288 122.989 8.704C122.733 9.12 122.345 9.416 121.825 9.592L123.541 13H121.777L120.217 9.772H118.717V13ZM120.757 8.44C121.061 8.44 121.301 8.36 121.477 8.2C121.653 8.032 121.741 7.796 121.741 7.492V6.94C121.741 6.636 121.653 6.404 121.477 6.244C121.301 6.084 121.061 6.004 120.757 6.004H118.717V8.44H120.757ZM128.273 13.144C127.721 13.144 127.221 13.052 126.773 12.868C126.325 12.684 125.941 12.408 125.621 12.04C125.309 11.672 125.065 11.22 124.889 10.684C124.713 10.148 124.625 9.524 124.625 8.812C124.625 8.108 124.713 7.488 124.889 6.952C125.065 6.408 125.309 5.952 125.621 5.584C125.941 5.216 126.325 4.94 126.773 4.756C127.221 4.572 127.721 4.48 128.273 4.48C128.825 4.48 129.325 4.572 129.773 4.756C130.221 4.94 130.605 5.216 130.925 5.584C131.245 5.952 131.489 6.408 131.657 6.952C131.833 7.488 131.921 8.108 131.921 8.812C131.921 9.524 131.833 10.148 131.657 10.684C131.489 11.22 131.245 11.672 130.925 12.04C130.605 12.408 130.221 12.684 129.773 12.868C129.325 13.052 128.825 13.144 128.273 13.144ZM128.273 11.74C128.873 11.74 129.349 11.54 129.701 11.14C130.061 10.74 130.241 10.18 130.241 9.46V8.164C130.241 7.444 130.061 6.884 129.701 6.484C129.349 6.084 128.873 5.884 128.273 5.884C127.673 5.884 127.193 6.084 126.833 6.484C126.481 6.884 126.305 7.444 126.305 8.164V9.46C126.305 10.18 126.481 10.74 126.833 11.14C127.193 11.54 127.673 11.74 128.273 11.74ZM136.523 6.028V13H134.939V6.028H132.563V4.624H138.899V6.028H136.523ZM143.191 13.144C142.639 13.144 142.139 13.052 141.691 12.868C141.243 12.684 140.859 12.408 140.539 12.04C140.227 11.672 139.983 11.22 139.807 10.684C139.631 10.148 139.543 9.524 139.543 8.812C139.543 8.108 139.631 7.488 139.807 6.952C139.983 6.408 140.227 5.952 140.539 5.584C140.859 5.216 141.243 4.94 141.691 4.756C142.139 4.572 142.639 4.48 143.191 4.48C143.743 4.48 144.243 4.572 144.691 4.756C145.139 4.94 145.523 5.216 145.843 5.584C146.163 5.952 146.407 6.408 146.575 6.952C146.751 7.488 146.839 8.108 146.839 8.812C146.839 9.524 146.751 10.148 146.575 10.684C146.407 11.22 146.163 11.672 145.843 12.04C145.523 12.408 145.139 12.684 144.691 12.868C144.243 13.052 143.743 13.144 143.191 13.144ZM143.191 11.74C143.791 11.74 144.267 11.54 144.619 11.14C144.979 10.74 145.159 10.18 145.159 9.46V8.164C145.159 7.444 144.979 6.884 144.619 6.484C144.267 6.084 143.791 5.884 143.191 5.884C142.591 5.884 142.111 6.084 141.751 6.484C141.399 6.884 141.223 7.444 141.223 8.164V9.46C141.223 10.18 141.399 10.74 141.751 11.14C142.111 11.54 142.591 11.74 143.191 11.74ZM151.698 13.144C151.146 13.144 150.646 13.056 150.198 12.88C149.758 12.696 149.378 12.424 149.058 12.064C148.746 11.704 148.506 11.26 148.338 10.732C148.17 10.196 148.086 9.576 148.086 8.872C148.086 8.168 148.17 7.544 148.338 7C148.506 6.448 148.746 5.988 149.058 5.62C149.378 5.244 149.758 4.96 150.198 4.768C150.646 4.576 151.146 4.48 151.698 4.48C152.45 4.48 153.074 4.64 153.57 4.96C154.066 5.28 154.462 5.764 154.758 6.412L153.402 7.132C153.282 6.756 153.086 6.456 152.814 6.232C152.542 6 152.17 5.884 151.698 5.884C151.106 5.884 150.634 6.084 150.282 6.484C149.938 6.884 149.766 7.444 149.766 8.164V9.484C149.766 10.212 149.938 10.772 150.282 11.164C150.634 11.548 151.106 11.74 151.698 11.74C152.17 11.74 152.554 11.612 152.85 11.356C153.154 11.1 153.374 10.784 153.51 10.408L154.794 11.164C154.49 11.788 154.086 12.276 153.582 12.628C153.078 12.972 152.45 13.144 151.698 13.144ZM159.281 13.144C158.729 13.144 158.229 13.052 157.781 12.868C157.333 12.684 156.949 12.408 156.629 12.04C156.317 11.672 156.073 11.22 155.897 10.684C155.721 10.148 155.633 9.524 155.633 8.812C155.633 8.108 155.721 7.488 155.897 6.952C156.073 6.408 156.317 5.952 156.629 5.584C156.949 5.216 157.333 4.94 157.781 4.756C158.229 4.572 158.729 4.48 159.281 4.48C159.833 4.48 160.333 4.572 160.781 4.756C161.229 4.94 161.613 5.216 161.933 5.584C162.253 5.952 162.497 6.408 162.665 6.952C162.841 7.488 162.929 8.108 162.929 8.812C162.929 9.524 162.841 10.148 162.665 10.684C162.497 11.22 162.253 11.672 161.933 12.04C161.613 12.408 161.229 12.684 160.781 12.868C160.333 13.052 159.833 13.144 159.281 13.144ZM159.281 11.74C159.881 11.74 160.357 11.54 160.709 11.14C161.069 10.74 161.249 10.18 161.249 9.46V8.164C161.249 7.444 161.069 6.884 160.709 6.484C160.357 6.084 159.881 5.884 159.281 5.884C158.681 5.884 158.201 6.084 157.841 6.484C157.489 6.884 157.313 7.444 157.313 8.164V9.46C157.313 10.18 157.489 10.74 157.841 11.14C158.201 11.54 158.681 11.74 159.281 11.74ZM164.536 13V4.624H166.12V11.596H169.42V13H164.536ZM170.794 13V4.624H176.314V6.028H172.378V8.056H175.858V9.46H172.378V11.596H176.314V13H170.794ZM177.065 14.812L180.509 4.12H181.793L178.349 14.812H177.065ZM98.1901 29.144C97.6381 29.144 97.1381 29.056 96.6901 28.88C96.2501 28.696 95.8701 28.424 95.5501 28.064C95.2381 27.704 94.9981 27.26 94.8301 26.732C94.6621 26.196 94.5781 25.576 94.5781 24.872C94.5781 24.168 94.6621 23.544 94.8301 23C94.9981 22.448 95.2381 21.988 95.5501 21.62C95.8701 21.244 96.2501 20.96 96.6901 20.768C97.1381 20.576 97.6381 20.48 98.1901 20.48C98.9421 20.48 99.5661 20.64 100.062 20.96C100.558 21.28 100.954 21.764 101.25 22.412L99.8941 23.132C99.7741 22.756 99.5781 22.456 99.3061 22.232C99.0341 22 98.6621 21.884 98.1901 21.884C97.5981 21.884 97.1261 22.084 96.7741 22.484C96.4301 22.884 96.2581 23.444 96.2581 24.164V25.484C96.2581 26.212 96.4301 26.772 96.7741 27.164C97.1261 27.548 97.5981 27.74 98.1901 27.74C98.6621 27.74 99.0461 27.612 99.3421 27.356C99.6461 27.1 99.8661 26.784 100.002 26.408L101.286 27.164C100.982 27.788 100.578 28.276 100.074 28.628C99.5701 28.972 98.9421 29.144 98.1901 29.144ZM107.713 25.46H104.221V29H102.637V20.624H104.221V24.056H107.713V20.624H109.297V29H107.713V25.46ZM114.55 29.144C113.998 29.144 113.498 29.052 113.05 28.868C112.602 28.684 112.218 28.408 111.898 28.04C111.586 27.672 111.342 27.22 111.166 26.684C110.99 26.148 110.902 25.524 110.902 24.812C110.902 24.108 110.99 23.488 111.166 22.952C111.342 22.408 111.586 21.952 111.898 21.584C112.218 21.216 112.602 20.94 113.05 20.756C113.498 20.572 113.998 20.48 114.55 20.48C115.102 20.48 115.602 20.572 116.05 20.756C116.498 20.94 116.882 21.216 117.202 21.584C117.522 21.952 117.766 22.408 117.934 22.952C118.11 23.488 118.198 24.108 118.198 24.812C118.198 25.524 118.11 26.148 117.934 26.684C117.766 27.22 117.522 27.672 117.202 28.04C116.882 28.408 116.498 28.684 116.05 28.868C115.602 29.052 115.102 29.144 114.55 29.144ZM114.55 27.74C115.15 27.74 115.626 27.54 115.978 27.14C116.338 26.74 116.518 26.18 116.518 25.46V24.164C116.518 23.444 116.338 22.884 115.978 22.484C115.626 22.084 115.15 21.884 114.55 21.884C113.95 21.884 113.47 22.084 113.11 22.484C112.758 22.884 112.582 23.444 112.582 24.164V25.46C112.582 26.18 112.758 26.74 113.11 27.14C113.47 27.54 113.95 27.74 114.55 27.74ZM119.457 29V27.728H120.561V21.896H119.457V20.624H123.261V21.896H122.145V27.728H123.261V29H119.457ZM131.54 29H129.692L127.772 25.784H127.736L125.84 29H124.112L126.824 24.704L124.232 20.624H126.08L127.856 23.6H127.892L129.692 20.624H131.42L128.804 24.704L131.54 29ZM138.867 22.028V29H137.283V22.028H134.907V20.624H141.243V22.028H138.867ZM142.54 29V20.624H148.06V22.028H144.124V24.056H147.604V25.46H144.124V27.596H148.06V29H142.54ZM152.987 29.144C152.435 29.144 151.935 29.056 151.487 28.88C151.047 28.696 150.667 28.424 150.347 28.064C150.035 27.704 149.795 27.26 149.627 26.732C149.459 26.196 149.375 25.576 149.375 24.872C149.375 24.168 149.459 23.544 149.627 23C149.795 22.448 150.035 21.988 150.347 21.62C150.667 21.244 151.047 20.96 151.487 20.768C151.935 20.576 152.435 20.48 152.987 20.48C153.739 20.48 154.363 20.64 154.859 20.96C155.355 21.28 155.751 21.764 156.047 22.412L154.691 23.132C154.571 22.756 154.375 22.456 154.103 22.232C153.831 22 153.459 21.884 152.987 21.884C152.395 21.884 151.923 22.084 151.571 22.484C151.227 22.884 151.055 23.444 151.055 24.164V25.484C151.055 26.212 151.227 26.772 151.571 27.164C151.923 27.548 152.395 27.74 152.987 27.74C153.459 27.74 153.843 27.612 154.139 27.356C154.443 27.1 154.663 26.784 154.799 26.408L156.083 27.164C155.779 27.788 155.375 28.276 154.871 28.628C154.367 28.972 153.739 29.144 152.987 29.144ZM162.51 25.46H159.018V29H157.434V20.624H159.018V24.056H162.51V20.624H164.094V29H162.51V25.46ZM168.459 24.704L167.595 22.964H167.559V29H166.059V20.624H167.799L170.319 24.92L171.183 26.66H171.219V20.624H172.719V29H170.979L168.459 24.704ZM177.972 29.144C177.42 29.144 176.92 29.052 176.472 28.868C176.024 28.684 175.64 28.408 175.32 28.04C175.008 27.672 174.764 27.22 174.588 26.684C174.412 26.148 174.324 25.524 174.324 24.812C174.324 24.108 174.412 23.488 174.588 22.952C174.764 22.408 175.008 21.952 175.32 21.584C175.64 21.216 176.024 20.94 176.472 20.756C176.92 20.572 177.42 20.48 177.972 20.48C178.524 20.48 179.024 20.572 179.472 20.756C179.92 20.94 180.304 21.216 180.624 21.584C180.944 21.952 181.188 22.408 181.356 22.952C181.532 23.488 181.62 24.108 181.62 24.812C181.62 25.524 181.532 26.148 181.356 26.684C181.188 27.22 180.944 27.672 180.624 28.04C180.304 28.408 179.92 28.684 179.472 28.868C179.024 29.052 178.524 29.144 177.972 29.144ZM177.972 27.74C178.572 27.74 179.048 27.54 179.4 27.14C179.76 26.74 179.94 26.18 179.94 25.46V24.164C179.94 23.444 179.76 22.884 179.4 22.484C179.048 22.084 178.572 21.884 177.972 21.884C177.372 21.884 176.892 22.084 176.532 22.484C176.18 22.884 176.004 23.444 176.004 24.164V25.46C176.004 26.18 176.18 26.74 176.532 27.14C176.892 27.54 177.372 27.74 177.972 27.74Z" fill="#F6851E"/>
<rect x="206.296" y="41.9995" width="83.9895" height="16.7979" fill="#EDEDED"/>
<rect x="206.243" y="41.9995" width="20" height="17" fill="#39A4F5"/>
<rect x="206.243" y="41.9995" width="11" height="17" fill="#1084DD"/>
<path d="M63.9303 47V38.624H69.4503V40.028H65.5143V42.056H68.9943V43.46H65.5143V45.596H69.4503V47H63.9303ZM77.7856 47H75.9376L74.0176 43.784H73.9816L72.0856 47H70.3576L73.0696 42.704L70.4776 38.624H72.3256L74.1016 41.6H74.1376L75.9376 38.624H77.6656L75.0496 42.704L77.7856 47ZM82.2769 40.028V47H80.6929V40.028H78.3169V38.624H84.6529V40.028H82.2769ZM87.5338 47H85.9498V38.624H89.7298C90.1138 38.624 90.4578 38.684 90.7618 38.804C91.0658 38.924 91.3218 39.1 91.5298 39.332C91.7458 39.556 91.9098 39.828 92.0218 40.148C92.1418 40.468 92.2018 40.824 92.2018 41.216C92.2018 41.792 92.0698 42.288 91.8058 42.704C91.5498 43.12 91.1618 43.416 90.6418 43.592L92.3578 47H90.5938L89.0338 43.772H87.5338V47ZM89.5738 42.44C89.8778 42.44 90.1178 42.36 90.2938 42.2C90.4698 42.032 90.5578 41.796 90.5578 41.492V40.94C90.5578 40.636 90.4698 40.404 90.2938 40.244C90.1178 40.084 89.8778 40.004 89.5738 40.004H87.5338V42.44H89.5738ZM99.1026 47L98.4306 44.864H95.4546L94.7946 47H93.1866L95.9946 38.624H97.9626L100.747 47H99.1026ZM96.9666 40.064H96.9066L95.8386 43.508H98.0466L96.9666 40.064ZM101.633 47V45.728H102.737V39.896H101.633V38.624H105.437V39.896H104.321V45.728H105.437V47H101.633ZM110.285 40.028V47H108.701V40.028H106.325V38.624H112.661V40.028H110.285ZM116.794 47V38.624H118.378V45.596H121.678V47H116.794ZM128.446 47L127.774 44.864H124.798L124.138 47H122.53L125.338 38.624H127.306L130.09 47H128.446ZM126.31 40.064H126.25L125.182 43.508H127.39L126.31 40.064ZM131.325 38.624H135.201C135.545 38.624 135.853 38.676 136.125 38.78C136.405 38.884 136.641 39.028 136.833 39.212C137.025 39.396 137.169 39.624 137.265 39.896C137.369 40.16 137.421 40.452 137.421 40.772C137.421 41.092 137.377 41.364 137.289 41.588C137.209 41.804 137.097 41.984 136.953 42.128C136.817 42.272 136.657 42.38 136.473 42.452C136.297 42.524 136.113 42.564 135.921 42.572V42.644C136.105 42.644 136.301 42.68 136.509 42.752C136.725 42.824 136.921 42.94 137.097 43.1C137.281 43.252 137.433 43.452 137.553 43.7C137.673 43.94 137.733 44.24 137.733 44.6C137.733 44.936 137.677 45.252 137.565 45.548C137.461 45.836 137.313 46.088 137.121 46.304C136.929 46.52 136.701 46.692 136.437 46.82C136.173 46.94 135.885 47 135.573 47H131.325V38.624ZM132.909 45.656H135.117C135.421 45.656 135.657 45.58 135.825 45.428C135.993 45.268 136.077 45.04 136.077 44.744V44.336C136.077 44.04 135.993 43.812 135.825 43.652C135.657 43.492 135.421 43.412 135.117 43.412H132.909V45.656ZM132.909 42.116H134.865C135.153 42.116 135.377 42.04 135.537 41.888C135.697 41.728 135.777 41.508 135.777 41.228V40.856C135.777 40.576 135.697 40.36 135.537 40.208C135.377 40.048 135.153 39.968 134.865 39.968H132.909V42.116ZM142.57 47.144C142.018 47.144 141.518 47.052 141.07 46.868C140.622 46.684 140.238 46.408 139.918 46.04C139.606 45.672 139.362 45.22 139.186 44.684C139.01 44.148 138.922 43.524 138.922 42.812C138.922 42.108 139.01 41.488 139.186 40.952C139.362 40.408 139.606 39.952 139.918 39.584C140.238 39.216 140.622 38.94 141.07 38.756C141.518 38.572 142.018 38.48 142.57 38.48C143.122 38.48 143.622 38.572 144.07 38.756C144.518 38.94 144.902 39.216 145.222 39.584C145.542 39.952 145.786 40.408 145.954 40.952C146.13 41.488 146.218 42.108 146.218 42.812C146.218 43.524 146.13 44.148 145.954 44.684C145.786 45.22 145.542 45.672 145.222 46.04C144.902 46.408 144.518 46.684 144.07 46.868C143.622 47.052 143.122 47.144 142.57 47.144ZM142.57 45.74C143.17 45.74 143.646 45.54 143.998 45.14C144.358 44.74 144.538 44.18 144.538 43.46V42.164C144.538 41.444 144.358 40.884 143.998 40.484C143.646 40.084 143.17 39.884 142.57 39.884C141.97 39.884 141.49 40.084 141.13 40.484C140.778 40.884 140.602 41.444 140.602 42.164V43.46C140.602 44.18 140.778 44.74 141.13 45.14C141.49 45.54 141.97 45.74 142.57 45.74ZM149.737 48.812L153.181 38.12H154.465L151.021 48.812H149.737ZM160.319 47H158.735V38.624H162.515C162.899 38.624 163.243 38.684 163.547 38.804C163.851 38.924 164.107 39.1 164.315 39.332C164.531 39.556 164.695 39.828 164.807 40.148C164.927 40.468 164.987 40.824 164.987 41.216C164.987 41.792 164.855 42.288 164.591 42.704C164.335 43.12 163.947 43.416 163.427 43.592L165.143 47H163.379L161.819 43.772H160.319V47ZM162.359 42.44C162.663 42.44 162.903 42.36 163.079 42.2C163.255 42.032 163.343 41.796 163.343 41.492V40.94C163.343 40.636 163.255 40.404 163.079 40.244C162.903 40.084 162.663 40.004 162.359 40.004H160.319V42.44H162.359ZM171.271 46.232C171.151 46.336 171.015 46.444 170.863 46.556C170.711 46.66 170.535 46.756 170.335 46.844C170.143 46.932 169.923 47.004 169.675 47.06C169.435 47.116 169.163 47.144 168.859 47.144C168.411 47.144 168.011 47.084 167.659 46.964C167.315 46.844 167.027 46.68 166.795 46.472C166.563 46.264 166.387 46.02 166.267 45.74C166.147 45.452 166.087 45.144 166.087 44.816C166.087 44.52 166.131 44.26 166.219 44.036C166.307 43.804 166.427 43.596 166.579 43.412C166.731 43.22 166.911 43.052 167.119 42.908C167.327 42.756 167.547 42.612 167.779 42.476C167.531 42.196 167.311 41.892 167.119 41.564C166.935 41.228 166.843 40.868 166.843 40.484C166.843 40.212 166.899 39.956 167.011 39.716C167.123 39.468 167.283 39.252 167.491 39.068C167.707 38.884 167.963 38.74 168.259 38.636C168.555 38.532 168.887 38.48 169.255 38.48C169.583 38.48 169.887 38.524 170.167 38.612C170.447 38.7 170.687 38.824 170.887 38.984C171.095 39.144 171.255 39.34 171.367 39.572C171.487 39.804 171.547 40.068 171.547 40.364C171.547 40.628 171.499 40.872 171.403 41.096C171.315 41.312 171.191 41.512 171.031 41.696C170.871 41.872 170.687 42.04 170.479 42.2C170.271 42.352 170.047 42.496 169.807 42.632L171.271 44.216C171.383 43.944 171.467 43.656 171.523 43.352C171.587 43.048 171.627 42.744 171.643 42.44H173.527V43.724H172.747C172.627 44.268 172.443 44.764 172.195 45.212L173.851 47H171.967L171.271 46.232ZM169.207 39.668C168.951 39.668 168.739 39.744 168.571 39.896C168.403 40.04 168.319 40.236 168.319 40.484V40.568C168.319 40.752 168.375 40.936 168.487 41.12C168.607 41.296 168.791 41.524 169.039 41.804C169.343 41.62 169.591 41.428 169.783 41.228C169.983 41.028 170.083 40.796 170.083 40.532V40.46C170.083 40.204 169.995 40.008 169.819 39.872C169.651 39.736 169.447 39.668 169.207 39.668ZM169.063 45.86C169.351 45.86 169.611 45.816 169.843 45.728C170.075 45.64 170.279 45.52 170.455 45.368L168.547 43.304C168.267 43.472 168.047 43.652 167.887 43.844C167.735 44.028 167.659 44.264 167.659 44.552V44.684C167.659 45.036 167.779 45.32 168.019 45.536C168.259 45.752 168.607 45.86 169.063 45.86ZM174.954 38.624H178.002C178.546 38.624 179.038 38.712 179.478 38.888C179.926 39.064 180.306 39.328 180.618 39.68C180.938 40.024 181.182 40.46 181.35 40.988C181.526 41.508 181.614 42.116 181.614 42.812C181.614 43.508 181.526 44.12 181.35 44.648C181.182 45.168 180.938 45.604 180.618 45.956C180.306 46.3 179.926 46.56 179.478 46.736C179.038 46.912 178.546 47 178.002 47H174.954V38.624ZM178.002 45.596C178.594 45.596 179.062 45.424 179.406 45.08C179.758 44.728 179.934 44.192 179.934 43.472V42.152C179.934 41.432 179.758 40.9 179.406 40.556C179.062 40.204 178.594 40.028 178.002 40.028H176.538V45.596H178.002ZM65.7836 64.812L69.2276 54.12H70.5116L67.0676 64.812H65.7836ZM74.7819 63V54.624H80.3019V56.028H76.3659V58.056H79.8459V59.46H76.3659V61.596H80.3019V63H74.7819ZM88.6372 63H86.7892L84.8692 59.784H84.8332L82.9372 63H81.2092L83.9212 58.704L81.3292 54.624H83.1772L84.9532 57.6H84.9892L86.7892 54.624H88.5172L85.9012 58.704L88.6372 63ZM93.1284 56.028V63H91.5444V56.028H89.1684V54.624H95.5044V56.028H93.1284ZM98.3854 63H96.8014V54.624H100.581C100.965 54.624 101.309 54.684 101.613 54.804C101.917 54.924 102.173 55.1 102.381 55.332C102.597 55.556 102.761 55.828 102.873 56.148C102.993 56.468 103.053 56.824 103.053 57.216C103.053 57.792 102.921 58.288 102.657 58.704C102.401 59.12 102.013 59.416 101.493 59.592L103.209 63H101.445L99.8854 59.772H98.3854V63ZM100.425 58.44C100.729 58.44 100.969 58.36 101.145 58.2C101.321 58.032 101.409 57.796 101.409 57.492V56.94C101.409 56.636 101.321 56.404 101.145 56.244C100.969 56.084 100.729 56.004 100.425 56.004H98.3854V58.44H100.425ZM109.954 63L109.282 60.864H106.306L105.646 63H104.038L106.846 54.624H108.814L111.598 63H109.954ZM107.818 56.064H107.758L106.69 59.508H108.898L107.818 56.064ZM115.768 63.144C115.216 63.144 114.716 63.056 114.268 62.88C113.828 62.696 113.448 62.424 113.128 62.064C112.816 61.704 112.576 61.26 112.408 60.732C112.24 60.196 112.156 59.576 112.156 58.872C112.156 58.168 112.24 57.544 112.408 57C112.576 56.448 112.816 55.988 113.128 55.62C113.448 55.244 113.828 54.96 114.268 54.768C114.716 54.576 115.216 54.48 115.768 54.48C116.52 54.48 117.144 54.64 117.64 54.96C118.136 55.28 118.532 55.764 118.828 56.412L117.472 57.132C117.352 56.756 117.156 56.456 116.884 56.232C116.612 56 116.24 55.884 115.768 55.884C115.176 55.884 114.704 56.084 114.352 56.484C114.008 56.884 113.836 57.444 113.836 58.164V59.484C113.836 60.212 114.008 60.772 114.352 61.164C114.704 61.548 115.176 61.74 115.768 61.74C116.24 61.74 116.624 61.612 116.92 61.356C117.224 61.1 117.444 60.784 117.58 60.408L118.864 61.164C118.56 61.788 118.156 62.276 117.652 62.628C117.148 62.972 116.52 63.144 115.768 63.144ZM123.503 56.028V63H121.919V56.028H119.543V54.624H125.879V56.028H123.503ZM126.77 63V61.728H127.874V55.896H126.77V54.624H130.574V55.896H129.458V61.728H130.574V63H126.77ZM135.48 63.144C134.928 63.144 134.428 63.052 133.98 62.868C133.532 62.684 133.148 62.408 132.828 62.04C132.516 61.672 132.272 61.22 132.096 60.684C131.92 60.148 131.832 59.524 131.832 58.812C131.832 58.108 131.92 57.488 132.096 56.952C132.272 56.408 132.516 55.952 132.828 55.584C133.148 55.216 133.532 54.94 133.98 54.756C134.428 54.572 134.928 54.48 135.48 54.48C136.032 54.48 136.532 54.572 136.98 54.756C137.428 54.94 137.812 55.216 138.132 55.584C138.452 55.952 138.696 56.408 138.864 56.952C139.04 57.488 139.128 58.108 139.128 58.812C139.128 59.524 139.04 60.148 138.864 60.684C138.696 61.22 138.452 61.672 138.132 62.04C137.812 62.408 137.428 62.684 136.98 62.868C136.532 63.052 136.032 63.144 135.48 63.144ZM135.48 61.74C136.08 61.74 136.556 61.54 136.908 61.14C137.268 60.74 137.448 60.18 137.448 59.46V58.164C137.448 57.444 137.268 56.884 136.908 56.484C136.556 56.084 136.08 55.884 135.48 55.884C134.88 55.884 134.4 56.084 134.04 56.484C133.688 56.884 133.512 57.444 133.512 58.164V59.46C133.512 60.18 133.688 60.74 134.04 61.14C134.4 61.54 134.88 61.74 135.48 61.74ZM143.135 58.704L142.271 56.964H142.235V63H140.735V54.624H142.475L144.995 58.92L145.859 60.66H145.895V54.624H147.395V63H145.655L143.135 58.704ZM152.196 63V54.624H153.78V61.596H157.08V63H152.196ZM163.849 63L163.177 60.864H160.201L159.541 63H157.933L160.741 54.624H162.709L165.493 63H163.849ZM161.713 56.064H161.653L160.585 59.508H162.793L161.713 56.064ZM166.727 54.624H170.603C170.947 54.624 171.255 54.676 171.527 54.78C171.807 54.884 172.043 55.028 172.235 55.212C172.427 55.396 172.571 55.624 172.667 55.896C172.771 56.16 172.823 56.452 172.823 56.772C172.823 57.092 172.779 57.364 172.691 57.588C172.611 57.804 172.499 57.984 172.355 58.128C172.219 58.272 172.059 58.38 171.875 58.452C171.699 58.524 171.515 58.564 171.323 58.572V58.644C171.507 58.644 171.703 58.68 171.911 58.752C172.127 58.824 172.323 58.94 172.499 59.1C172.683 59.252 172.835 59.452 172.955 59.7C173.075 59.94 173.135 60.24 173.135 60.6C173.135 60.936 173.079 61.252 172.967 61.548C172.863 61.836 172.715 62.088 172.523 62.304C172.331 62.52 172.103 62.692 171.839 62.82C171.575 62.94 171.287 63 170.975 63H166.727V54.624ZM168.311 61.656H170.519C170.823 61.656 171.059 61.58 171.227 61.428C171.395 61.268 171.479 61.04 171.479 60.744V60.336C171.479 60.04 171.395 59.812 171.227 59.652C171.059 59.492 170.823 59.412 170.519 59.412H168.311V61.656ZM168.311 58.116H170.267C170.555 58.116 170.779 58.04 170.939 57.888C171.099 57.728 171.179 57.508 171.179 57.228V56.856C171.179 56.576 171.099 56.36 170.939 56.208C170.779 56.048 170.555 55.968 170.267 55.968H168.311V58.116ZM177.972 63.144C177.42 63.144 176.92 63.052 176.472 62.868C176.024 62.684 175.64 62.408 175.32 62.04C175.008 61.672 174.764 61.22 174.588 60.684C174.412 60.148 174.324 59.524 174.324 58.812C174.324 58.108 174.412 57.488 174.588 56.952C174.764 56.408 175.008 55.952 175.32 55.584C175.64 55.216 176.024 54.94 176.472 54.756C176.92 54.572 177.42 54.48 177.972 54.48C178.524 54.48 179.024 54.572 179.472 54.756C179.92 54.94 180.304 55.216 180.624 55.584C180.944 55.952 181.188 56.408 181.356 56.952C181.532 57.488 181.62 58.108 181.62 58.812C181.62 59.524 181.532 60.148 181.356 60.684C181.188 61.22 180.944 61.672 180.624 62.04C180.304 62.408 179.92 62.684 179.472 62.868C179.024 63.052 178.524 63.144 177.972 63.144ZM177.972 61.74C178.572 61.74 179.048 61.54 179.4 61.14C179.76 60.74 179.94 60.18 179.94 59.46V58.164C179.94 57.444 179.76 56.884 179.4 56.484C179.048 56.084 178.572 55.884 177.972 55.884C177.372 55.884 176.892 56.084 176.532 56.484C176.18 56.884 176.004 57.444 176.004 58.164V59.46C176.004 60.18 176.18 60.74 176.532 61.14C176.892 61.54 177.372 61.74 177.972 61.74Z" fill="#F6851E"/>
<rect x="206.297" y="82" width="83.9895" height="16.7979" fill="#EDEDED"/>
<rect x="206.297" y="82" width="17.6378" height="16.7979" fill="#39A4F5"/>
<rect x="206.243" y="82" width="9" height="17" fill="#1084DD"/>
<path d="M32.5592 95V86.624H36.3272C36.7112 86.624 37.0552 86.688 37.3592 86.816C37.6712 86.936 37.9352 87.112 38.1512 87.344C38.3672 87.568 38.5312 87.84 38.6432 88.16C38.7552 88.48 38.8112 88.832 38.8112 89.216C38.8112 89.608 38.7552 89.964 38.6432 90.284C38.5312 90.596 38.3672 90.868 38.1512 91.1C37.9352 91.324 37.6712 91.5 37.3592 91.628C37.0552 91.748 36.7112 91.808 36.3272 91.808H34.1432V95H32.5592ZM34.1432 90.44H36.1832C36.4872 90.44 36.7272 90.36 36.9032 90.2C37.0792 90.032 37.1672 89.796 37.1672 89.492V88.94C37.1672 88.636 37.0792 88.404 36.9032 88.244C36.7272 88.084 36.4872 88.004 36.1832 88.004H34.1432V90.44ZM43.5347 95.144C42.9827 95.144 42.4827 95.052 42.0347 94.868C41.5867 94.684 41.2027 94.408 40.8827 94.04C40.5707 93.672 40.3267 93.22 40.1507 92.684C39.9747 92.148 39.8867 91.524 39.8867 90.812C39.8867 90.108 39.9747 89.488 40.1507 88.952C40.3267 88.408 40.5707 87.952 40.8827 87.584C41.2027 87.216 41.5867 86.94 42.0347 86.756C42.4827 86.572 42.9827 86.48 43.5347 86.48C44.0867 86.48 44.5867 86.572 45.0347 86.756C45.4827 86.94 45.8667 87.216 46.1867 87.584C46.5067 87.952 46.7507 88.408 46.9187 88.952C47.0947 89.488 47.1827 90.108 47.1827 90.812C47.1827 91.524 47.0947 92.148 46.9187 92.684C46.7507 93.22 46.5067 93.672 46.1867 94.04C45.8667 94.408 45.4827 94.684 45.0347 94.868C44.5867 95.052 44.0867 95.144 43.5347 95.144ZM43.5347 93.74C44.1347 93.74 44.6107 93.54 44.9627 93.14C45.3227 92.74 45.5027 92.18 45.5027 91.46V90.164C45.5027 89.444 45.3227 88.884 44.9627 88.484C44.6107 88.084 44.1347 87.884 43.5347 87.884C42.9347 87.884 42.4547 88.084 42.0947 88.484C41.7427 88.884 41.5667 89.444 41.5667 90.164V91.46C41.5667 92.18 41.7427 92.74 42.0947 93.14C42.4547 93.54 42.9347 93.74 43.5347 93.74ZM51.3585 95.144C50.6385 95.144 50.0265 95.016 49.5225 94.76C49.0265 94.504 48.5985 94.168 48.2385 93.752L49.3065 92.72C49.5945 93.056 49.9145 93.312 50.2665 93.488C50.6265 93.664 51.0225 93.752 51.4545 93.752C51.9425 93.752 52.3105 93.648 52.5585 93.44C52.8065 93.224 52.9305 92.936 52.9305 92.576C52.9305 92.296 52.8505 92.068 52.6905 91.892C52.5305 91.716 52.2305 91.588 51.7905 91.508L50.9985 91.388C49.3265 91.124 48.4905 90.312 48.4905 88.952C48.4905 88.576 48.5585 88.236 48.6945 87.932C48.8385 87.628 49.0425 87.368 49.3065 87.152C49.5705 86.936 49.8865 86.772 50.2545 86.66C50.6305 86.54 51.0545 86.48 51.5265 86.48C52.1585 86.48 52.7105 86.584 53.1825 86.792C53.6545 87 54.0585 87.308 54.3945 87.716L53.3145 88.736C53.1065 88.48 52.8545 88.272 52.5585 88.112C52.2625 87.952 51.8905 87.872 51.4425 87.872C50.9865 87.872 50.6425 87.96 50.4105 88.136C50.1865 88.304 50.0745 88.544 50.0745 88.856C50.0745 89.176 50.1665 89.412 50.3505 89.564C50.5345 89.716 50.8305 89.828 51.2385 89.9L52.0185 90.044C52.8665 90.196 53.4905 90.468 53.8905 90.86C54.2985 91.244 54.5025 91.784 54.5025 92.48C54.5025 92.88 54.4305 93.244 54.2865 93.572C54.1505 93.892 53.9465 94.172 53.6745 94.412C53.4105 94.644 53.0825 94.824 52.6905 94.952C52.3065 95.08 51.8625 95.144 51.3585 95.144ZM59.1441 88.028V95H57.5601V88.028H55.1841V86.624H61.5201V88.028H59.1441ZM61.9782 92.108V90.584H65.4102V92.108H61.9782ZM69.8316 88.028V95H68.2476V88.028H65.8716V86.624H72.2076V88.028H69.8316ZM75.0885 95H73.5045V86.624H77.2845C77.6685 86.624 78.0125 86.684 78.3165 86.804C78.6205 86.924 78.8765 87.1 79.0845 87.332C79.3005 87.556 79.4645 87.828 79.5765 88.148C79.6965 88.468 79.7565 88.824 79.7565 89.216C79.7565 89.792 79.6245 90.288 79.3605 90.704C79.1045 91.12 78.7165 91.416 78.1965 91.592L79.9125 95H78.1485L76.5885 91.772H75.0885V95ZM77.1285 90.44C77.4325 90.44 77.6725 90.36 77.8485 90.2C78.0245 90.032 78.1125 89.796 78.1125 89.492V88.94C78.1125 88.636 78.0245 88.404 77.8485 88.244C77.6725 88.084 77.4325 88.004 77.1285 88.004H75.0885V90.44H77.1285ZM86.6573 95L85.9853 92.864H83.0093L82.3493 95H80.7413L83.5493 86.624H85.5173L88.3013 95H86.6573ZM84.5213 88.064H84.4613L83.3933 91.508H85.6013L84.5213 88.064ZM89.1878 95V93.728H90.2918V87.896H89.1878V86.624H92.9918V87.896H91.8758V93.728H92.9918V95H89.1878ZM97.8394 88.028V95H96.2554V88.028H93.8794V86.624H100.215V88.028H97.8394ZM101.512 95V86.624H107.032V88.028H103.096V90.056H106.576V91.46H103.096V93.596H107.032V95H101.512ZM115.032 88.988H114.984L114.336 90.32L112.62 93.488L110.904 90.32L110.256 88.988H110.208V95H108.708V86.624H110.496L112.644 90.716H112.692L114.816 86.624H116.532V95H115.032V88.988ZM118.505 95V86.624H124.025V88.028H120.089V90.056H123.569V91.46H120.089V93.596H124.025V95H118.505ZM128.1 90.704L127.236 88.964H127.2V95H125.7V86.624H127.44L129.96 90.92L130.824 92.66H130.86V86.624H132.36V95H130.62L128.1 90.704ZM137.613 88.028V95H136.029V88.028H133.653V86.624H139.989V88.028H137.613ZM143.198 96.812L146.642 86.12H147.926L144.482 96.812H143.198ZM152.196 95V86.624H153.78V93.596H157.08V95H152.196ZM163.849 95L163.177 92.864H160.201L159.541 95H157.933L160.741 86.624H162.709L165.493 95H163.849ZM161.713 88.064H161.653L160.585 91.508H162.793L161.713 88.064ZM166.727 86.624H170.603C170.947 86.624 171.255 86.676 171.527 86.78C171.807 86.884 172.043 87.028 172.235 87.212C172.427 87.396 172.571 87.624 172.667 87.896C172.771 88.16 172.823 88.452 172.823 88.772C172.823 89.092 172.779 89.364 172.691 89.588C172.611 89.804 172.499 89.984 172.355 90.128C172.219 90.272 172.059 90.38 171.875 90.452C171.699 90.524 171.515 90.564 171.323 90.572V90.644C171.507 90.644 171.703 90.68 171.911 90.752C172.127 90.824 172.323 90.94 172.499 91.1C172.683 91.252 172.835 91.452 172.955 91.7C173.075 91.94 173.135 92.24 173.135 92.6C173.135 92.936 173.079 93.252 172.967 93.548C172.863 93.836 172.715 94.088 172.523 94.304C172.331 94.52 172.103 94.692 171.839 94.82C171.575 94.94 171.287 95 170.975 95H166.727V86.624ZM168.311 93.656H170.519C170.823 93.656 171.059 93.58 171.227 93.428C171.395 93.268 171.479 93.04 171.479 92.744V92.336C171.479 92.04 171.395 91.812 171.227 91.652C171.059 91.492 170.823 91.412 170.519 91.412H168.311V93.656ZM168.311 90.116H170.267C170.555 90.116 170.779 90.04 170.939 89.888C171.099 89.728 171.179 89.508 171.179 89.228V88.856C171.179 88.576 171.099 88.36 170.939 88.208C170.779 88.048 170.555 87.968 170.267 87.968H168.311V90.116ZM177.972 95.144C177.42 95.144 176.92 95.052 176.472 94.868C176.024 94.684 175.64 94.408 175.32 94.04C175.008 93.672 174.764 93.22 174.588 92.684C174.412 92.148 174.324 91.524 174.324 90.812C174.324 90.108 174.412 89.488 174.588 88.952C174.764 88.408 175.008 87.952 175.32 87.584C175.64 87.216 176.024 86.94 176.472 86.756C176.92 86.572 177.42 86.48 177.972 86.48C178.524 86.48 179.024 86.572 179.472 86.756C179.92 86.94 180.304 87.216 180.624 87.584C180.944 87.952 181.188 88.408 181.356 88.952C181.532 89.488 181.62 90.108 181.62 90.812C181.62 91.524 181.532 92.148 181.356 92.684C181.188 93.22 180.944 93.672 180.624 94.04C180.304 94.408 179.92 94.684 179.472 94.868C179.024 95.052 178.524 95.144 177.972 95.144ZM177.972 93.74C178.572 93.74 179.048 93.54 179.4 93.14C179.76 92.74 179.94 92.18 179.94 91.46V90.164C179.94 89.444 179.76 88.884 179.4 88.484C179.048 88.084 178.572 87.884 177.972 87.884C177.372 87.884 176.892 88.084 176.532 88.484C176.18 88.884 176.004 89.444 176.004 90.164V91.46C176.004 92.18 176.18 92.74 176.532 93.14C176.892 93.54 177.372 93.74 177.972 93.74Z" fill="#41637D"/>
<rect x="206.297" y="164" width="83.9895" height="16.7979" fill="#EDEDED"/>
<rect x="206.243" y="164.202" width="22" height="17" fill="#39A4F5"/>
<path d="M75.5874 170.028V177H74.0034V170.028H71.6274V168.624H77.9634V170.028H75.5874ZM79.2604 177V168.624H84.7804V170.028H80.8444V172.056H84.3244V173.46H80.8444V175.596H84.7804V177H79.2604ZM89.0597 177.144C88.3397 177.144 87.7277 177.016 87.2237 176.76C86.7277 176.504 86.2997 176.168 85.9397 175.752L87.0077 174.72C87.2957 175.056 87.6157 175.312 87.9677 175.488C88.3277 175.664 88.7237 175.752 89.1557 175.752C89.6437 175.752 90.0117 175.648 90.2597 175.44C90.5077 175.224 90.6317 174.936 90.6317 174.576C90.6317 174.296 90.5517 174.068 90.3917 173.892C90.2317 173.716 89.9317 173.588 89.4917 173.508L88.6997 173.388C87.0277 173.124 86.1917 172.312 86.1917 170.952C86.1917 170.576 86.2597 170.236 86.3957 169.932C86.5397 169.628 86.7437 169.368 87.0077 169.152C87.2717 168.936 87.5877 168.772 87.9557 168.66C88.3317 168.54 88.7557 168.48 89.2277 168.48C89.8597 168.48 90.4117 168.584 90.8837 168.792C91.3557 169 91.7597 169.308 92.0957 169.716L91.0157 170.736C90.8077 170.48 90.5557 170.272 90.2597 170.112C89.9637 169.952 89.5917 169.872 89.1437 169.872C88.6877 169.872 88.3437 169.96 88.1117 170.136C87.8877 170.304 87.7757 170.544 87.7757 170.856C87.7757 171.176 87.8677 171.412 88.0517 171.564C88.2357 171.716 88.5317 171.828 88.9397 171.9L89.7197 172.044C90.5677 172.196 91.1917 172.468 91.5917 172.86C91.9997 173.244 92.2037 173.784 92.2037 174.48C92.2037 174.88 92.1317 175.244 91.9877 175.572C91.8517 175.892 91.6477 176.172 91.3757 176.412C91.1117 176.644 90.7837 176.824 90.3917 176.952C90.0077 177.08 89.5637 177.144 89.0597 177.144ZM96.8452 170.028V177H95.2612V170.028H92.8852V168.624H99.2212V170.028H96.8452ZM103.354 168.624H106.402C106.946 168.624 107.438 168.712 107.878 168.888C108.326 169.064 108.706 169.328 109.018 169.68C109.338 170.024 109.582 170.46 109.75 170.988C109.926 171.508 110.014 172.116 110.014 172.812C110.014 173.508 109.926 174.12 109.75 174.648C109.582 175.168 109.338 175.604 109.018 175.956C108.706 176.3 108.326 176.56 107.878 176.736C107.438 176.912 106.946 177 106.402 177H103.354V168.624ZM106.402 175.596C106.994 175.596 107.462 175.424 107.806 175.08C108.158 174.728 108.334 174.192 108.334 173.472V172.152C108.334 171.432 108.158 170.9 107.806 170.556C107.462 170.204 106.994 170.028 106.402 170.028H104.938V175.596H106.402ZM112.162 168C112.49 168 112.726 168.08 112.87 168.24C113.022 168.392 113.098 168.584 113.098 168.816V169.044C113.098 169.26 113.066 169.48 113.002 169.704C112.946 169.92 112.862 170.132 112.75 170.34C112.638 170.548 112.506 170.744 112.354 170.928C112.202 171.112 112.038 171.276 111.862 171.42H110.83C111.086 171.18 111.302 170.94 111.478 170.7C111.654 170.452 111.786 170.18 111.874 169.884C111.642 169.844 111.474 169.752 111.37 169.608C111.266 169.456 111.214 169.28 111.214 169.08V168.816C111.214 168.584 111.286 168.392 111.43 168.24C111.582 168.08 111.826 168 112.162 168ZM114.862 177V168.624H120.382V170.028H116.446V172.056H119.926V173.46H116.446V175.596H120.382V177H114.862ZM122.057 177V168.624H127.445V170.028H123.641V172.056H126.953V173.46H123.641V177H122.057ZM128.983 177V168.624H134.371V170.028H130.567V172.056H133.879V173.46H130.567V177H128.983ZM135.561 177V175.728H136.665V169.896H135.561V168.624H139.365V169.896H138.249V175.728H139.365V177H135.561ZM144.235 177.144C143.683 177.144 143.183 177.056 142.735 176.88C142.295 176.696 141.915 176.424 141.595 176.064C141.283 175.704 141.043 175.26 140.875 174.732C140.707 174.196 140.623 173.576 140.623 172.872C140.623 172.168 140.707 171.544 140.875 171C141.043 170.448 141.283 169.988 141.595 169.62C141.915 169.244 142.295 168.96 142.735 168.768C143.183 168.576 143.683 168.48 144.235 168.48C144.987 168.48 145.611 168.64 146.107 168.96C146.603 169.28 146.999 169.764 147.295 170.412L145.939 171.132C145.819 170.756 145.623 170.456 145.351 170.232C145.079 170 144.707 169.884 144.235 169.884C143.643 169.884 143.171 170.084 142.819 170.484C142.475 170.884 142.303 171.444 142.303 172.164V173.484C142.303 174.212 142.475 174.772 142.819 175.164C143.171 175.548 143.643 175.74 144.235 175.74C144.707 175.74 145.091 175.612 145.387 175.356C145.691 175.1 145.911 174.784 146.047 174.408L147.331 175.164C147.027 175.788 146.623 176.276 146.119 176.628C145.615 176.972 144.987 177.144 144.235 177.144ZM153.796 177L153.124 174.864H150.148L149.488 177H147.88L150.688 168.624H152.656L155.44 177H153.796ZM151.66 170.064H151.6L150.532 173.508H152.74L151.66 170.064ZM159.61 177.144C159.058 177.144 158.558 177.056 158.11 176.88C157.67 176.696 157.29 176.424 156.97 176.064C156.658 175.704 156.418 175.26 156.25 174.732C156.082 174.196 155.998 173.576 155.998 172.872C155.998 172.168 156.082 171.544 156.25 171C156.418 170.448 156.658 169.988 156.97 169.62C157.29 169.244 157.67 168.96 158.11 168.768C158.558 168.576 159.058 168.48 159.61 168.48C160.362 168.48 160.986 168.64 161.482 168.96C161.978 169.28 162.374 169.764 162.67 170.412L161.314 171.132C161.194 170.756 160.998 170.456 160.726 170.232C160.454 170 160.082 169.884 159.61 169.884C159.018 169.884 158.546 170.084 158.194 170.484C157.85 170.884 157.678 171.444 157.678 172.164V173.484C157.678 174.212 157.85 174.772 158.194 175.164C158.546 175.548 159.018 175.74 159.61 175.74C160.082 175.74 160.466 175.612 160.762 175.356C161.066 175.1 161.286 174.784 161.422 174.408L162.706 175.164C162.402 175.788 161.998 176.276 161.494 176.628C160.99 176.972 160.362 177.144 159.61 177.144ZM163.709 177V175.728H164.813V169.896H163.709V168.624H167.513V169.896H166.397V175.728H167.513V177H163.709ZM172.361 170.028V177H170.777V170.028H168.401V168.624H174.737V170.028H172.361ZM176.034 177V168.624H181.554V170.028H177.618V172.056H181.098V173.46H177.618V175.596H181.554V177H176.034ZM178.95 168.072L178.026 167.616L179.166 165.372L180.462 166.02L178.95 168.072Z" fill="#F6851E"/>
<rect x="206.297" y="123" width="83.9895" height="16.7979" fill="#EDEDED"/>
<rect x="206.243" y="123" width="18" height="17" fill="#39A4F5"/>
<path d="M51.153 136.548C50.601 136.548 50.101 136.46 49.653 136.284C49.213 136.1 48.833 135.828 48.513 135.468C48.201 135.108 47.961 134.664 47.793 134.136C47.625 133.6 47.541 132.98 47.541 132.276C47.541 131.572 47.625 130.948 47.793 130.404C47.961 129.852 48.201 129.392 48.513 129.024C48.833 128.648 49.213 128.364 49.653 128.172C50.101 127.98 50.601 127.884 51.153 127.884C51.905 127.884 52.529 128.044 53.025 128.364C53.521 128.684 53.917 129.168 54.213 129.816L52.857 130.536C52.737 130.16 52.541 129.86 52.269 129.636C51.997 129.404 51.625 129.288 51.153 129.288C50.561 129.288 50.089 129.488 49.737 129.888C49.393 130.288 49.221 130.848 49.221 131.568V132.888C49.221 133.616 49.393 134.176 49.737 134.568C50.089 134.952 50.561 135.144 51.153 135.144C51.625 135.144 52.009 135.016 52.305 134.76C52.609 134.504 52.829 134.188 52.965 133.812L54.249 134.568C53.945 135.192 53.541 135.68 53.037 136.032C52.533 136.376 51.905 136.548 51.153 136.548ZM60.7139 136.404L60.0419 134.268H57.0659L56.4059 136.404H54.7979L57.6059 128.028H59.5739L62.3579 136.404H60.7139ZM58.5779 129.468H58.5179L57.4499 132.912H59.6579L58.5779 129.468ZM65.1764 136.404H63.5924V128.028H67.3724C67.7564 128.028 68.1004 128.088 68.4044 128.208C68.7084 128.328 68.9644 128.504 69.1724 128.736C69.3884 128.96 69.5524 129.232 69.6644 129.552C69.7844 129.872 69.8444 130.228 69.8444 130.62C69.8444 131.196 69.7124 131.692 69.4484 132.108C69.1924 132.524 68.8044 132.82 68.2844 132.996L70.0004 136.404H68.2364L66.6764 133.176H65.1764V136.404ZM67.2164 131.844C67.5204 131.844 67.7604 131.764 67.9364 131.604C68.1124 131.436 68.2004 131.2 68.2004 130.896V130.344C68.2004 130.04 68.1124 129.808 67.9364 129.648C67.7604 129.488 67.5204 129.408 67.2164 129.408H65.1764V131.844H67.2164ZM76.7451 136.404L76.0731 134.268H73.0971L72.4371 136.404H70.8291L73.6371 128.028H75.6051L78.3891 136.404H76.7451ZM74.6091 129.468H74.5491L73.4811 132.912H75.6891L74.6091 129.468ZM82.5592 136.548C82.0072 136.548 81.5072 136.46 81.0592 136.284C80.6192 136.1 80.2392 135.828 79.9192 135.468C79.6072 135.108 79.3672 134.664 79.1992 134.136C79.0312 133.6 78.9472 132.98 78.9472 132.276C78.9472 131.572 79.0312 130.948 79.1992 130.404C79.3672 129.852 79.6072 129.392 79.9192 129.024C80.2392 128.648 80.6192 128.364 81.0592 128.172C81.5072 127.98 82.0072 127.884 82.5592 127.884C83.3112 127.884 83.9352 128.044 84.4312 128.364C84.9272 128.684 85.3232 129.168 85.6192 129.816L84.2632 130.536C84.1432 130.16 83.9472 129.86 83.6752 129.636C83.4032 129.404 83.0312 129.288 82.5592 129.288C81.9672 129.288 81.4952 129.488 81.1432 129.888C80.7992 130.288 80.6272 130.848 80.6272 131.568V132.888C80.6272 133.616 80.7992 134.176 81.1432 134.568C81.4952 134.952 81.9672 135.144 82.5592 135.144C83.0312 135.144 83.4152 135.016 83.7112 134.76C84.0152 134.504 84.2352 134.188 84.3712 133.812L85.6552 134.568C85.3512 135.192 84.9472 135.68 84.4432 136.032C83.9392 136.376 83.3112 136.548 82.5592 136.548ZM90.2945 129.432V136.404H88.7105V129.432H86.3345V128.028H92.6705V129.432H90.2945ZM93.9674 136.404V128.028H99.4874V129.432H95.5514V131.46H99.0314V132.864H95.5514V135H99.4874V136.404H93.9674ZM96.8834 127.476L95.9594 127.02L97.0994 124.776L98.3954 125.424L96.8834 127.476ZM102.747 136.404H101.163V128.028H104.943C105.327 128.028 105.671 128.088 105.975 128.208C106.279 128.328 106.535 128.504 106.743 128.736C106.959 128.96 107.123 129.232 107.235 129.552C107.355 129.872 107.415 130.228 107.415 130.62C107.415 131.196 107.283 131.692 107.019 132.108C106.763 132.524 106.375 132.82 105.855 132.996L107.571 136.404H105.807L104.247 133.176H102.747V136.404ZM104.787 131.844C105.091 131.844 105.331 131.764 105.507 131.604C105.683 131.436 105.771 131.2 105.771 130.896V130.344C105.771 130.04 105.683 129.808 105.507 129.648C105.331 129.488 105.091 129.408 104.787 129.408H102.747V131.844H104.787ZM108.783 136.404V135.132H109.887V129.3H108.783V128.028H112.587V129.3H111.471V135.132H112.587V136.404H108.783ZM116.81 136.548C116.09 136.548 115.478 136.42 114.974 136.164C114.478 135.908 114.05 135.572 113.69 135.156L114.758 134.124C115.046 134.46 115.366 134.716 115.718 134.892C116.078 135.068 116.474 135.156 116.906 135.156C117.394 135.156 117.762 135.052 118.01 134.844C118.258 134.628 118.382 134.34 118.382 133.98C118.382 133.7 118.302 133.472 118.142 133.296C117.982 133.12 117.682 132.992 117.242 132.912L116.45 132.792C114.778 132.528 113.942 131.716 113.942 130.356C113.942 129.98 114.01 129.64 114.146 129.336C114.29 129.032 114.494 128.772 114.758 128.556C115.022 128.34 115.338 128.176 115.706 128.064C116.082 127.944 116.506 127.884 116.978 127.884C117.61 127.884 118.162 127.988 118.634 128.196C119.106 128.404 119.51 128.712 119.846 129.12L118.766 130.14C118.558 129.884 118.306 129.676 118.01 129.516C117.714 129.356 117.342 129.276 116.894 129.276C116.438 129.276 116.094 129.364 115.862 129.54C115.638 129.708 115.526 129.948 115.526 130.26C115.526 130.58 115.618 130.816 115.802 130.968C115.986 131.12 116.282 131.232 116.69 131.304L117.47 131.448C118.318 131.6 118.942 131.872 119.342 132.264C119.75 132.648 119.954 133.188 119.954 133.884C119.954 134.284 119.882 134.648 119.738 134.976C119.602 135.296 119.398 135.576 119.126 135.816C118.862 136.048 118.534 136.228 118.142 136.356C117.758 136.484 117.314 136.548 116.81 136.548ZM121.542 136.404V128.028H127.062V129.432H123.126V131.46H126.606V132.864H123.126V135H127.062V136.404H121.542ZM130.321 136.404H128.737V128.028H132.517C132.901 128.028 133.245 128.088 133.549 128.208C133.853 128.328 134.109 128.504 134.317 128.736C134.533 128.96 134.697 129.232 134.809 129.552C134.929 129.872 134.989 130.228 134.989 130.62C134.989 131.196 134.857 131.692 134.593 132.108C134.337 132.524 133.949 132.82 133.429 132.996L135.145 136.404H133.381L131.821 133.176H130.321V136.404ZM132.361 131.844C132.665 131.844 132.905 131.764 133.081 131.604C133.257 131.436 133.345 131.2 133.345 130.896V130.344C133.345 130.04 133.257 129.808 133.081 129.648C132.905 129.488 132.665 129.408 132.361 129.408H130.321V131.844H132.361ZM139.542 136.404V128.028H141.126V135H144.426V136.404H139.542ZM145.678 127.404C146.006 127.404 146.242 127.484 146.386 127.644C146.538 127.796 146.614 127.988 146.614 128.22V128.448C146.614 128.664 146.582 128.884 146.518 129.108C146.462 129.324 146.378 129.536 146.266 129.744C146.154 129.952 146.022 130.148 145.87 130.332C145.718 130.516 145.554 130.68 145.378 130.824H144.346C144.602 130.584 144.818 130.344 144.994 130.104C145.17 129.856 145.302 129.584 145.39 129.288C145.158 129.248 144.99 129.156 144.886 129.012C144.782 128.86 144.73 128.684 144.73 128.484V128.22C144.73 127.988 144.802 127.796 144.946 127.644C145.098 127.484 145.342 127.404 145.678 127.404ZM148.378 136.404V128.028H153.898V129.432H149.962V131.46H153.442V132.864H149.962V135H153.898V136.404H148.378ZM158.177 136.548C157.457 136.548 156.845 136.42 156.341 136.164C155.845 135.908 155.417 135.572 155.057 135.156L156.125 134.124C156.413 134.46 156.733 134.716 157.085 134.892C157.445 135.068 157.841 135.156 158.273 135.156C158.761 135.156 159.129 135.052 159.377 134.844C159.625 134.628 159.749 134.34 159.749 133.98C159.749 133.7 159.669 133.472 159.509 133.296C159.349 133.12 159.049 132.992 158.609 132.912L157.817 132.792C156.145 132.528 155.309 131.716 155.309 130.356C155.309 129.98 155.377 129.64 155.513 129.336C155.657 129.032 155.861 128.772 156.125 128.556C156.389 128.34 156.705 128.176 157.073 128.064C157.449 127.944 157.873 127.884 158.345 127.884C158.977 127.884 159.529 127.988 160.001 128.196C160.473 128.404 160.877 128.712 161.213 129.12L160.133 130.14C159.925 129.884 159.673 129.676 159.377 129.516C159.081 129.356 158.709 129.276 158.261 129.276C157.805 129.276 157.461 129.364 157.229 129.54C157.005 129.708 156.893 129.948 156.893 130.26C156.893 130.58 156.985 130.816 157.169 130.968C157.353 131.12 157.649 131.232 158.057 131.304L158.837 131.448C159.685 131.6 160.309 131.872 160.709 132.264C161.117 132.648 161.321 133.188 161.321 133.884C161.321 134.284 161.249 134.648 161.105 134.976C160.969 135.296 160.765 135.576 160.493 135.816C160.229 136.048 159.901 136.228 159.509 136.356C159.125 136.484 158.681 136.548 158.177 136.548ZM165.36 136.548C164.64 136.548 164.028 136.42 163.524 136.164C163.028 135.908 162.6 135.572 162.24 135.156L163.308 134.124C163.596 134.46 163.916 134.716 164.268 134.892C164.628 135.068 165.024 135.156 165.456 135.156C165.944 135.156 166.312 135.052 166.56 134.844C166.808 134.628 166.932 134.34 166.932 133.98C166.932 133.7 166.852 133.472 166.692 133.296C166.532 133.12 166.232 132.992 165.792 132.912L165 132.792C163.328 132.528 162.492 131.716 162.492 130.356C162.492 129.98 162.56 129.64 162.696 129.336C162.84 129.032 163.044 128.772 163.308 128.556C163.572 128.34 163.888 128.176 164.256 128.064C164.632 127.944 165.056 127.884 165.528 127.884C166.16 127.884 166.712 127.988 167.184 128.196C167.656 128.404 168.06 128.712 168.396 129.12L167.316 130.14C167.108 129.884 166.856 129.676 166.56 129.516C166.264 129.356 165.892 129.276 165.444 129.276C164.988 129.276 164.644 129.364 164.412 129.54C164.188 129.708 164.076 129.948 164.076 130.26C164.076 130.58 164.168 130.816 164.352 130.968C164.536 131.12 164.832 131.232 165.24 131.304L166.02 131.448C166.868 131.6 167.492 131.872 167.892 132.264C168.3 132.648 168.504 133.188 168.504 133.884C168.504 134.284 168.432 134.648 168.288 134.976C168.152 135.296 167.948 135.576 167.676 135.816C167.412 136.048 167.084 136.228 166.692 136.356C166.308 136.484 165.864 136.548 165.36 136.548ZM175.276 136.404L174.604 134.268H171.628L170.968 136.404H169.36L172.168 128.028H174.136L176.92 136.404H175.276ZM173.14 129.468H173.08L172.012 132.912H174.22L173.14 129.468ZM177.807 136.404V135.132H178.911V129.3H177.807V128.028H181.611V129.3H180.495V135.132H181.611V136.404H177.807Z" fill="#F6851E"/>
<line x1="206.716" y1="1.64788e-08" x2="206.716" y2="190" stroke="#41637D" stroke-width="0.839895"/>
<line x1="248.71" y1="1.64788e-08" x2="248.71" y2="190" stroke="#41637D" stroke-width="0.839895"/>
<line x1="290.705" y1="1.64788e-08" x2="290.705" y2="190" stroke="#41637D" stroke-width="0.839895"/>
<path d="M37 34C29.7629 34 23.875 39.8879 23.875 47.125C23.875 52.96 27.72 58.0757 33.2776 59.7141L36.1614 65.4817C36.3203 65.7993 36.6448 66 37 66C37.355 66 37.6797 65.7993 37.8384 65.4817L40.7222 59.7144C46.28 58.0759 50.125 52.9602 50.125 47.125C50.125 39.8879 44.2371 34 37 34V34ZM39.8347 58.0149C39.5725 58.0828 39.3528 58.2607 39.2317 58.5029L37 62.9663L34.7683 58.5029C34.6472 58.2607 34.4275 58.0828 34.1653 58.0146C29.2104 56.729 25.75 52.251 25.75 47.125C25.75 40.9216 30.7966 35.875 37 35.875C43.2034 35.875 48.25 40.9216 48.25 47.125C48.25 52.251 44.7896 56.729 39.8347 58.0149Z" fill="#F6851E"/>
<path d="M37 43.375C34.9321 43.375 33.25 45.0571 33.25 47.125C33.25 49.1929 34.9321 50.875 37 50.875C39.0679 50.875 40.75 49.1929 40.75 47.125C40.75 45.0571 39.0679 43.375 37 43.375ZM37 49C35.9661 49 35.125 48.1589 35.125 47.125C35.125 46.0911 35.9661 45.25 37 45.25C38.0339 45.25 38.875 46.0911 38.875 47.125C38.875 48.1589 38.0339 49 37 49Z" fill="#F6851E"/>
<path d="M22 116C14.7629 116 8.875 121.888 8.875 129.125C8.875 134.96 12.72 140.076 18.2776 141.714L21.1614 147.482C21.3203 147.799 21.6448 148 22 148C22.355 148 22.6797 147.799 22.8384 147.482L25.7222 141.714C31.28 140.076 35.125 134.96 35.125 129.125C35.125 121.888 29.2371 116 22 116V116ZM24.8347 140.015C24.5725 140.083 24.3528 140.261 24.2317 140.503L22 144.966L19.7683 140.503C19.6472 140.261 19.4275 140.083 19.1653 140.015C14.2104 138.729 10.75 134.251 10.75 129.125C10.75 122.922 15.7966 117.875 22 117.875C28.2034 117.875 33.25 122.922 33.25 129.125C33.25 134.251 29.7896 138.729 24.8347 140.015Z" fill="#F6851E"/>
<path d="M22 125.375C19.9321 125.375 18.25 127.057 18.25 129.125C18.25 131.193 19.9321 132.875 22 132.875C24.0679 132.875 25.75 131.193 25.75 129.125C25.75 127.057 24.0679 125.375 22 125.375ZM22 131C20.9661 131 20.125 130.159 20.125 129.125C20.125 128.091 20.9661 127.25 22 127.25C23.0339 127.25 23.875 128.091 23.875 129.125C23.875 130.159 23.0339 131 22 131Z" fill="#F6851E"/>
<path d="M47 157C39.7629 157 33.875 162.888 33.875 170.125C33.875 175.96 37.72 181.076 43.2776 182.714L46.1614 188.482C46.3203 188.799 46.6448 189 47 189C47.355 189 47.6797 188.799 47.8384 188.482L50.7222 182.714C56.28 181.076 60.125 175.96 60.125 170.125C60.125 162.888 54.2371 157 47 157V157ZM49.8347 181.015C49.5725 181.083 49.3528 181.261 49.2317 181.503L47 185.966L44.7683 181.503C44.6472 181.261 44.4275 181.083 44.1653 181.015C39.2104 179.729 35.75 175.251 35.75 170.125C35.75 163.922 40.7966 158.875 47 158.875C53.2034 158.875 58.25 163.922 58.25 170.125C58.25 175.251 54.7896 179.729 49.8347 181.015Z" fill="#F6851E"/>
<path d="M47 166.375C44.9321 166.375 43.25 168.057 43.25 170.125C43.25 172.193 44.9321 173.875 47 173.875C49.0679 173.875 50.75 172.193 50.75 170.125C50.75 168.057 49.0679 166.375 47 166.375ZM47 172C45.9661 172 45.125 171.159 45.125 170.125C45.125 169.091 45.9661 168.25 47 168.25C48.0339 168.25 48.875 169.091 48.875 170.125C48.875 171.159 48.0339 172 47 172Z" fill="#F6851E"/>
<path d="M16 0C8.76294 0 2.875 5.88794 2.875 13.125C2.875 18.96 6.71997 24.0757 12.2776 25.7141L15.1614 31.4817C15.3203 31.7993 15.6448 32 16 32C16.355 32 16.6797 31.7993 16.8384 31.4817L19.7222 25.7144C25.28 24.0759 29.125 18.9602 29.125 13.125C29.125 5.88794 23.2371 0 16 0V0ZM18.8347 24.0149C18.5725 24.0828 18.3528 24.2607 18.2317 24.5029L16 28.9663L13.7683 24.5029C13.6472 24.2607 13.4275 24.0828 13.1653 24.0146C8.21045 22.729 4.75 18.251 4.75 13.125C4.75 6.92163 9.79663 1.875 16 1.875C22.2034 1.875 27.25 6.92163 27.25 13.125C27.25 18.251 23.7896 22.729 18.8347 24.0149Z" fill="#F6851E"/>
<path d="M16 9.375C13.9321 9.375 12.25 11.0571 12.25 13.125C12.25 15.1929 13.9321 16.875 16 16.875C18.0679 16.875 19.75 15.1929 19.75 13.125C19.75 11.0571 18.0679 9.375 16 9.375ZM16 15C14.9661 15 14.125 14.1589 14.125 13.125C14.125 12.0911 14.9661 11.25 16 11.25C17.0339 11.25 17.875 12.0911 17.875 13.125C17.875 14.1589 17.0339 15 16 15Z" fill="#F6851E"/>
</svg>
