<svg width="296" height="224" viewBox="0 0 296 224" fill="none" xmlns="http://www.w3.org/2000/svg">
<path d="M188.901 220.144C188.365 220.144 187.901 220.048 187.509 219.856C187.117 219.656 186.793 219.372 186.537 219.004C186.281 218.636 186.089 218.184 185.961 217.648C185.841 217.112 185.781 216.5 185.781 215.812C185.781 215.132 185.841 214.524 185.961 213.988C186.089 213.444 186.281 212.988 186.537 212.62C186.793 212.252 187.117 211.972 187.509 211.78C187.901 211.58 188.365 211.48 188.901 211.48C189.965 211.48 190.749 211.86 191.253 212.62C191.765 213.38 192.021 214.444 192.021 215.812C192.021 217.18 191.765 218.244 191.253 219.004C190.749 219.764 189.965 220.144 188.901 220.144ZM188.901 218.812C189.437 218.812 189.809 218.612 190.017 218.212C190.233 217.804 190.341 217.256 190.341 216.568V215.056C190.341 214.368 190.233 213.824 190.017 213.424C189.809 213.016 189.437 212.812 188.901 212.812C188.365 212.812 187.989 213.016 187.773 213.424C187.565 213.824 187.461 214.368 187.461 215.056V216.568C187.461 217.256 187.565 217.804 187.773 218.212C187.989 218.612 188.365 218.812 188.901 218.812ZM194.656 220L200.464 211.624H201.856L196.048 220H194.656ZM195.232 216.232C194.552 216.232 194.032 216.032 193.672 215.632C193.32 215.224 193.144 214.632 193.144 213.856C193.144 213.08 193.32 212.492 193.672 212.092C194.032 211.684 194.552 211.48 195.232 211.48C195.912 211.48 196.428 211.684 196.78 212.092C197.132 212.492 197.308 213.08 197.308 213.856C197.308 214.632 197.132 215.224 196.78 215.632C196.428 216.032 195.912 216.232 195.232 216.232ZM195.232 215.32C195.728 215.32 195.976 214.94 195.976 214.18V213.532C195.976 212.772 195.728 212.392 195.232 212.392C194.736 212.392 194.488 212.772 194.488 213.532V214.18C194.488 214.94 194.736 215.32 195.232 215.32ZM201.28 220.144C200.608 220.144 200.092 219.944 199.732 219.544C199.38 219.136 199.204 218.544 199.204 217.768C199.204 216.992 199.38 216.404 199.732 216.004C200.092 215.596 200.608 215.392 201.28 215.392C201.96 215.392 202.476 215.596 202.828 216.004C203.188 216.404 203.368 216.992 203.368 217.768C203.368 218.544 203.188 219.136 202.828 219.544C202.476 219.944 201.96 220.144 201.28 220.144ZM201.28 219.232C201.776 219.232 202.024 218.852 202.024 218.092V217.444C202.024 216.684 201.776 216.304 201.28 216.304C200.784 216.304 200.536 216.684 200.536 217.444V218.092C200.536 218.852 200.784 219.232 201.28 219.232Z" fill="#41637D"/>
<path d="M229.276 212.992H225.508L225.316 215.8H225.4C225.488 215.624 225.584 215.46 225.688 215.308C225.792 215.156 225.912 215.028 226.048 214.924C226.184 214.82 226.34 214.74 226.516 214.684C226.7 214.62 226.92 214.588 227.176 214.588C227.536 214.588 227.872 214.648 228.184 214.768C228.496 214.888 228.764 215.064 228.988 215.296C229.22 215.52 229.4 215.796 229.528 216.124C229.664 216.452 229.732 216.824 229.732 217.24C229.732 217.664 229.664 218.052 229.528 218.404C229.392 218.756 229.192 219.064 228.928 219.328C228.664 219.584 228.34 219.784 227.956 219.928C227.572 220.072 227.132 220.144 226.636 220.144C226.252 220.144 225.908 220.1 225.604 220.012C225.3 219.932 225.032 219.82 224.8 219.676C224.568 219.532 224.368 219.368 224.2 219.184C224.032 218.992 223.884 218.792 223.756 218.584L224.908 217.696C225.004 217.856 225.104 218.008 225.208 218.152C225.312 218.288 225.432 218.408 225.568 218.512C225.712 218.616 225.868 218.7 226.036 218.764C226.212 218.82 226.416 218.848 226.648 218.848C227.12 218.848 227.476 218.716 227.716 218.452C227.964 218.188 228.088 217.828 228.088 217.372V217.276C228.088 216.844 227.964 216.504 227.716 216.256C227.468 216.008 227.124 215.884 226.684 215.884C226.34 215.884 226.06 215.952 225.844 216.088C225.628 216.216 225.456 216.356 225.328 216.508L224.032 216.328L224.344 211.624H229.276V212.992ZM233.891 220.144C233.355 220.144 232.891 220.048 232.499 219.856C232.107 219.656 231.783 219.372 231.527 219.004C231.271 218.636 231.079 218.184 230.951 217.648C230.831 217.112 230.771 216.5 230.771 215.812C230.771 215.132 230.831 214.524 230.951 213.988C231.079 213.444 231.271 212.988 231.527 212.62C231.783 212.252 232.107 211.972 232.499 211.78C232.891 211.58 233.355 211.48 233.891 211.48C234.955 211.48 235.739 211.86 236.243 212.62C236.755 213.38 237.011 214.444 237.011 215.812C237.011 217.18 236.755 218.244 236.243 219.004C235.739 219.764 234.955 220.144 233.891 220.144ZM233.891 218.812C234.427 218.812 234.799 218.612 235.007 218.212C235.223 217.804 235.331 217.256 235.331 216.568V215.056C235.331 214.368 235.223 213.824 235.007 213.424C234.799 213.016 234.427 212.812 233.891 212.812C233.355 212.812 232.979 213.016 232.763 213.424C232.555 213.824 232.451 214.368 232.451 215.056V216.568C232.451 217.256 232.555 217.804 232.763 218.212C232.979 218.612 233.355 218.812 233.891 218.812ZM239.646 220L245.454 211.624H246.846L241.038 220H239.646ZM240.222 216.232C239.542 216.232 239.022 216.032 238.662 215.632C238.31 215.224 238.134 214.632 238.134 213.856C238.134 213.08 238.31 212.492 238.662 212.092C239.022 211.684 239.542 211.48 240.222 211.48C240.902 211.48 241.418 211.684 241.77 212.092C242.122 212.492 242.298 213.08 242.298 213.856C242.298 214.632 242.122 215.224 241.77 215.632C241.418 216.032 240.902 216.232 240.222 216.232ZM240.222 215.32C240.718 215.32 240.966 214.94 240.966 214.18V213.532C240.966 212.772 240.718 212.392 240.222 212.392C239.726 212.392 239.478 212.772 239.478 213.532V214.18C239.478 214.94 239.726 215.32 240.222 215.32ZM246.27 220.144C245.598 220.144 245.082 219.944 244.722 219.544C244.37 219.136 244.194 218.544 244.194 217.768C244.194 216.992 244.37 216.404 244.722 216.004C245.082 215.596 245.598 215.392 246.27 215.392C246.95 215.392 247.466 215.596 247.818 216.004C248.178 216.404 248.358 216.992 248.358 217.768C248.358 218.544 248.178 219.136 247.818 219.544C247.466 219.944 246.95 220.144 246.27 220.144ZM246.27 219.232C246.766 219.232 247.014 218.852 247.014 218.092V217.444C247.014 216.684 246.766 216.304 246.27 216.304C245.774 216.304 245.526 216.684 245.526 217.444V218.092C245.526 218.852 245.774 219.232 246.27 219.232Z" fill="#41637D"/>
<path d="M262.823 220V218.716H265.127V212.764H265.019L263.195 214.924L262.211 214.096L264.287 211.624H266.675V218.716H268.595V220H262.823ZM272.527 220.144C271.991 220.144 271.527 220.048 271.135 219.856C270.743 219.656 270.419 219.372 270.163 219.004C269.907 218.636 269.715 218.184 269.587 217.648C269.467 217.112 269.407 216.5 269.407 215.812C269.407 215.132 269.467 214.524 269.587 213.988C269.715 213.444 269.907 212.988 270.163 212.62C270.419 212.252 270.743 211.972 271.135 211.78C271.527 211.58 271.991 211.48 272.527 211.48C273.591 211.48 274.375 211.86 274.879 212.62C275.391 213.38 275.647 214.444 275.647 215.812C275.647 217.18 275.391 218.244 274.879 219.004C274.375 219.764 273.591 220.144 272.527 220.144ZM272.527 218.812C273.063 218.812 273.435 218.612 273.643 218.212C273.859 217.804 273.967 217.256 273.967 216.568V215.056C273.967 214.368 273.859 213.824 273.643 213.424C273.435 213.016 273.063 212.812 272.527 212.812C271.991 212.812 271.615 213.016 271.399 213.424C271.191 213.824 271.087 214.368 271.087 215.056V216.568C271.087 217.256 271.191 217.804 271.399 218.212C271.615 218.612 271.991 218.812 272.527 218.812ZM279.722 220.144C279.186 220.144 278.722 220.048 278.33 219.856C277.938 219.656 277.614 219.372 277.358 219.004C277.102 218.636 276.91 218.184 276.782 217.648C276.662 217.112 276.602 216.5 276.602 215.812C276.602 215.132 276.662 214.524 276.782 213.988C276.91 213.444 277.102 212.988 277.358 212.62C277.614 212.252 277.938 211.972 278.33 211.78C278.722 211.58 279.186 211.48 279.722 211.48C280.786 211.48 281.57 211.86 282.074 212.62C282.586 213.38 282.842 214.444 282.842 215.812C282.842 217.18 282.586 218.244 282.074 219.004C281.57 219.764 280.786 220.144 279.722 220.144ZM279.722 218.812C280.258 218.812 280.63 218.612 280.838 218.212C281.054 217.804 281.162 217.256 281.162 216.568V215.056C281.162 214.368 281.054 213.824 280.838 213.424C280.63 213.016 280.258 212.812 279.722 212.812C279.186 212.812 278.81 213.016 278.594 213.424C278.386 213.824 278.282 214.368 278.282 215.056V216.568C278.282 217.256 278.386 217.804 278.594 218.212C278.81 218.612 279.186 218.812 279.722 218.812ZM285.477 220L291.285 211.624H292.677L286.869 220H285.477ZM286.053 216.232C285.373 216.232 284.853 216.032 284.493 215.632C284.141 215.224 283.965 214.632 283.965 213.856C283.965 213.08 284.141 212.492 284.493 212.092C284.853 211.684 285.373 211.48 286.053 211.48C286.733 211.48 287.249 211.684 287.601 212.092C287.953 212.492 288.129 213.08 288.129 213.856C288.129 214.632 287.953 215.224 287.601 215.632C287.249 216.032 286.733 216.232 286.053 216.232ZM286.053 215.32C286.549 215.32 286.797 214.94 286.797 214.18V213.532C286.797 212.772 286.549 212.392 286.053 212.392C285.557 212.392 285.309 212.772 285.309 213.532V214.18C285.309 214.94 285.557 215.32 286.053 215.32ZM292.101 220.144C291.429 220.144 290.913 219.944 290.553 219.544C290.201 219.136 290.025 218.544 290.025 217.768C290.025 216.992 290.201 216.404 290.553 216.004C290.913 215.596 291.429 215.392 292.101 215.392C292.781 215.392 293.297 215.596 293.649 216.004C294.009 216.404 294.189 216.992 294.189 217.768C294.189 218.544 294.009 219.136 293.649 219.544C293.297 219.944 292.781 220.144 292.101 220.144ZM292.101 219.232C292.597 219.232 292.845 218.852 292.845 218.092V217.444C292.845 216.684 292.597 216.304 292.101 216.304C291.605 216.304 291.357 216.684 291.357 217.444V218.092C291.357 218.852 291.605 219.232 292.101 219.232Z" fill="#41637D"/>
<line opacity="0.2" x1="203.358" y1="8" x2="203.358" y2="198" stroke="#41637D" stroke-width="0.839895"/>
<line opacity="0.2" x1="245.354" y1="8" x2="245.354" y2="198" stroke="#41637D" stroke-width="0.839895"/>
<line opacity="0.2" x1="211.758" y1="8" x2="211.758" y2="198" stroke="#41637D" stroke-width="0.839895"/>
<line opacity="0.2" x1="253.752" y1="8" x2="253.752" y2="198" stroke="#41637D" stroke-width="0.839895"/>
<line opacity="0.2" x1="220.156" y1="8" x2="220.156" y2="198" stroke="#41637D" stroke-width="0.839895"/>
<line opacity="0.2" x1="262.151" y1="8" x2="262.151" y2="198" stroke="#41637D" stroke-width="0.839895"/>
<line opacity="0.2" x1="228.556" y1="8" x2="228.556" y2="198" stroke="#41637D" stroke-width="0.839895"/>
<line opacity="0.2" x1="270.55" y1="8" x2="270.55" y2="198" stroke="#41637D" stroke-width="0.839895"/>
<rect x="194.539" y="8" width="83.9895" height="16.7979" fill="#EDEDED"/>
<rect x="195.486" y="8" width="66" height="17" fill="#1084DD"/>
<path d="M53.0758 21V12.624H58.5958V14.028H54.6598V16.056H58.1398V17.46H54.6598V19.596H58.5958V21H53.0758ZM66.9311 21H65.0831L63.1631 17.784H63.1271L61.2311 21H59.5031L62.2151 16.704L59.6231 12.624H61.4711L63.2471 15.6H63.2831L65.0831 12.624H66.8111L64.1951 16.704L66.9311 21ZM71.4224 14.028V21H69.8384V14.028H67.4624V12.624H73.7984V14.028H71.4224ZM76.6793 21H75.0953V12.624H78.8753C79.2593 12.624 79.6033 12.684 79.9073 12.804C80.2113 12.924 80.4673 13.1 80.6753 13.332C80.8913 13.556 81.0553 13.828 81.1673 14.148C81.2873 14.468 81.3473 14.824 81.3473 15.216C81.3473 15.792 81.2153 16.288 80.9513 16.704C80.6953 17.12 80.3073 17.416 79.7873 17.592L81.5033 21H79.7393L78.1793 17.772H76.6793V21ZM78.7193 16.44C79.0233 16.44 79.2633 16.36 79.4393 16.2C79.6153 16.032 79.7033 15.796 79.7033 15.492V14.94C79.7033 14.636 79.6153 14.404 79.4393 14.244C79.2633 14.084 79.0233 14.004 78.7193 14.004H76.6793V16.44H78.7193ZM88.2481 21L87.5761 18.864H84.6001L83.9401 21H82.3321L85.1401 12.624H87.1081L89.8921 21H88.2481ZM86.1121 14.064H86.0521L84.9841 17.508H87.1921L86.1121 14.064ZM94.0622 21.144C93.5102 21.144 93.0102 21.056 92.5622 20.88C92.1222 20.696 91.7422 20.424 91.4222 20.064C91.1102 19.704 90.8702 19.26 90.7022 18.732C90.5342 18.196 90.4502 17.576 90.4502 16.872C90.4502 16.168 90.5342 15.544 90.7022 15C90.8702 14.448 91.1102 13.988 91.4222 13.62C91.7422 13.244 92.1222 12.96 92.5622 12.768C93.0102 12.576 93.5102 12.48 94.0622 12.48C94.8142 12.48 95.4382 12.64 95.9342 12.96C96.4302 13.28 96.8262 13.764 97.1222 14.412L95.7662 15.132C95.6462 14.756 95.4502 14.456 95.1782 14.232C94.9062 14 94.5342 13.884 94.0622 13.884C93.4702 13.884 92.9982 14.084 92.6462 14.484C92.3022 14.884 92.1302 15.444 92.1302 16.164V17.484C92.1302 18.212 92.3022 18.772 92.6462 19.164C92.9982 19.548 93.4702 19.74 94.0622 19.74C94.5342 19.74 94.9182 19.612 95.2142 19.356C95.5182 19.1 95.7382 18.784 95.8742 18.408L97.1582 19.164C96.8542 19.788 96.4502 20.276 95.9462 20.628C95.4422 20.972 94.8142 21.144 94.0622 21.144ZM101.797 14.028V21H100.213V14.028H97.8374V12.624H104.173V14.028H101.797ZM105.064 21V19.728H106.168V13.896H105.064V12.624H108.868V13.896H107.752V19.728H108.868V21H105.064ZM113.774 21.144C113.222 21.144 112.722 21.052 112.274 20.868C111.826 20.684 111.442 20.408 111.122 20.04C110.81 19.672 110.566 19.22 110.39 18.684C110.214 18.148 110.126 17.524 110.126 16.812C110.126 16.108 110.214 15.488 110.39 14.952C110.566 14.408 110.81 13.952 111.122 13.584C111.442 13.216 111.826 12.94 112.274 12.756C112.722 12.572 113.222 12.48 113.774 12.48C114.326 12.48 114.826 12.572 115.274 12.756C115.722 12.94 116.106 13.216 116.426 13.584C116.746 13.952 116.99 14.408 117.158 14.952C117.334 15.488 117.422 16.108 117.422 16.812C117.422 17.524 117.334 18.148 117.158 18.684C116.99 19.22 116.746 19.672 116.426 20.04C116.106 20.408 115.722 20.684 115.274 20.868C114.826 21.052 114.326 21.144 113.774 21.144ZM113.774 19.74C114.374 19.74 114.85 19.54 115.202 19.14C115.562 18.74 115.742 18.18 115.742 17.46V16.164C115.742 15.444 115.562 14.884 115.202 14.484C114.85 14.084 114.374 13.884 113.774 13.884C113.174 13.884 112.694 14.084 112.334 14.484C111.982 14.884 111.806 15.444 111.806 16.164V17.46C111.806 18.18 111.982 18.74 112.334 19.14C112.694 19.54 113.174 19.74 113.774 19.74ZM121.429 16.704L120.565 14.964H120.529V21H119.029V12.624H120.769L123.289 16.92L124.153 18.66H124.189V12.624H125.689V21H123.949L121.429 16.704ZM130.49 21V12.624H134.258C134.642 12.624 134.986 12.688 135.29 12.816C135.602 12.936 135.866 13.112 136.082 13.344C136.298 13.568 136.462 13.84 136.574 14.16C136.686 14.48 136.742 14.832 136.742 15.216C136.742 15.608 136.686 15.964 136.574 16.284C136.462 16.596 136.298 16.868 136.082 17.1C135.866 17.324 135.602 17.5 135.29 17.628C134.986 17.748 134.642 17.808 134.258 17.808H132.074V21H130.49ZM132.074 16.44H134.114C134.418 16.44 134.658 16.36 134.834 16.2C135.01 16.032 135.098 15.796 135.098 15.492V14.94C135.098 14.636 135.01 14.404 134.834 14.244C134.658 14.084 134.418 14.004 134.114 14.004H132.074V16.44ZM137.829 21V19.728H138.933V13.896H137.829V12.624H141.633V13.896H140.517V19.728H141.633V21H137.829ZM143.252 21V12.624H144.836V19.596H148.136V21H143.252ZM152.352 21.144C151.8 21.144 151.3 21.052 150.852 20.868C150.404 20.684 150.02 20.408 149.7 20.04C149.388 19.672 149.144 19.22 148.968 18.684C148.792 18.148 148.704 17.524 148.704 16.812C148.704 16.108 148.792 15.488 148.968 14.952C149.144 14.408 149.388 13.952 149.7 13.584C150.02 13.216 150.404 12.94 150.852 12.756C151.3 12.572 151.8 12.48 152.352 12.48C152.904 12.48 153.404 12.572 153.852 12.756C154.3 12.94 154.684 13.216 155.004 13.584C155.324 13.952 155.568 14.408 155.736 14.952C155.912 15.488 156 16.108 156 16.812C156 17.524 155.912 18.148 155.736 18.684C155.568 19.22 155.324 19.672 155.004 20.04C154.684 20.408 154.3 20.684 153.852 20.868C153.404 21.052 152.904 21.144 152.352 21.144ZM152.352 19.74C152.952 19.74 153.428 19.54 153.78 19.14C154.14 18.74 154.32 18.18 154.32 17.46V16.164C154.32 15.444 154.14 14.884 153.78 14.484C153.428 14.084 152.952 13.884 152.352 13.884C151.752 13.884 151.272 14.084 150.912 14.484C150.56 14.884 150.384 15.444 150.384 16.164V17.46C150.384 18.18 150.56 18.74 150.912 19.14C151.272 19.54 151.752 19.74 152.352 19.74ZM160.602 14.028V21H159.018V14.028H156.642V12.624H162.978V14.028H160.602ZM164.275 21V12.624H169.795V14.028H165.859V16.056H169.339V17.46H165.859V19.596H169.795V21H164.275Z" fill="#F6851E"/>
<path d="M27 0C19.7629 0 13.875 5.88794 13.875 13.125C13.875 18.96 17.72 24.0757 23.2776 25.7141L26.1614 31.4817C26.3203 31.7993 26.6448 32 27 32C27.355 32 27.6797 31.7993 27.8384 31.4817L30.7222 25.7144C36.28 24.0759 40.125 18.9602 40.125 13.125C40.125 5.88794 34.2371 0 27 0V0ZM29.8347 24.0149C29.5725 24.0828 29.3528 24.2607 29.2317 24.5029L27 28.9663L24.7683 24.5029C24.6472 24.2607 24.4275 24.0828 24.1653 24.0146C19.2104 22.729 15.75 18.251 15.75 13.125C15.75 6.92163 20.7966 1.875 27 1.875C33.2034 1.875 38.25 6.92163 38.25 13.125C38.25 18.251 34.7896 22.729 29.8347 24.0149Z" fill="#F6851E"/>
<path d="M27 9.375C24.9321 9.375 23.25 11.0571 23.25 13.125C23.25 15.1929 24.9321 16.875 27 16.875C29.0679 16.875 30.75 15.1929 30.75 13.125C30.75 11.0571 29.0679 9.375 27 9.375ZM27 15C25.9661 15 25.125 14.1589 25.125 13.125C25.125 12.0911 25.9661 11.25 27 11.25C28.0339 11.25 28.875 12.0911 28.875 13.125C28.875 14.1589 28.0339 15 27 15Z" fill="#F6851E"/>
<rect x="194.539" y="49" width="83.9895" height="16.7979" fill="#EDEDED"/>
<rect x="194.486" y="49" width="69" height="17" fill="#39A4F5"/>
<rect x="194.486" y="49" width="51" height="17" fill="#1084DD"/>
<path d="M18.9274 62.0005V53.6245H22.6954C23.0794 53.6245 23.4234 53.6885 23.7274 53.8165C24.0394 53.9365 24.3034 54.1125 24.5194 54.3445C24.7354 54.5685 24.8994 54.8405 25.0114 55.1605C25.1234 55.4805 25.1794 55.8325 25.1794 56.2165C25.1794 56.6085 25.1234 56.9645 25.0114 57.2845C24.8994 57.5965 24.7354 57.8685 24.5194 58.1005C24.3034 58.3245 24.0394 58.5005 23.7274 58.6285C23.4234 58.7485 23.0794 58.8085 22.6954 58.8085H20.5114V62.0005H18.9274ZM20.5114 57.4405H22.5514C22.8554 57.4405 23.0954 57.3605 23.2714 57.2005C23.4474 57.0325 23.5354 56.7965 23.5354 56.4925V55.9405C23.5354 55.6365 23.4474 55.4045 23.2714 55.2445C23.0954 55.0845 22.8554 55.0045 22.5514 55.0045H20.5114V57.4405ZM29.9029 62.1445C29.3509 62.1445 28.8509 62.0525 28.4029 61.8685C27.9549 61.6845 27.5709 61.4085 27.2509 61.0405C26.9389 60.6725 26.6949 60.2205 26.5189 59.6845C26.3429 59.1485 26.2549 58.5245 26.2549 57.8125C26.2549 57.1085 26.3429 56.4885 26.5189 55.9525C26.6949 55.4085 26.9389 54.9525 27.2509 54.5845C27.5709 54.2165 27.9549 53.9405 28.4029 53.7565C28.8509 53.5725 29.3509 53.4805 29.9029 53.4805C30.4549 53.4805 30.9549 53.5725 31.4029 53.7565C31.8509 53.9405 32.2349 54.2165 32.5549 54.5845C32.8749 54.9525 33.1189 55.4085 33.2869 55.9525C33.4629 56.4885 33.5509 57.1085 33.5509 57.8125C33.5509 58.5245 33.4629 59.1485 33.2869 59.6845C33.1189 60.2205 32.8749 60.6725 32.5549 61.0405C32.2349 61.4085 31.8509 61.6845 31.4029 61.8685C30.9549 62.0525 30.4549 62.1445 29.9029 62.1445ZM29.9029 60.7405C30.5029 60.7405 30.9789 60.5405 31.3309 60.1405C31.6909 59.7405 31.8709 59.1805 31.8709 58.4605V57.1645C31.8709 56.4445 31.6909 55.8845 31.3309 55.4845C30.9789 55.0845 30.5029 54.8845 29.9029 54.8845C29.3029 54.8845 28.8229 55.0845 28.4629 55.4845C28.1109 55.8845 27.9349 56.4445 27.9349 57.1645V58.4605C27.9349 59.1805 28.1109 59.7405 28.4629 60.1405C28.8229 60.5405 29.3029 60.7405 29.9029 60.7405ZM37.7267 62.1445C37.0067 62.1445 36.3947 62.0165 35.8907 61.7605C35.3947 61.5045 34.9667 61.1685 34.6067 60.7525L35.6747 59.7205C35.9627 60.0565 36.2827 60.3125 36.6347 60.4885C36.9947 60.6645 37.3907 60.7525 37.8227 60.7525C38.3107 60.7525 38.6787 60.6485 38.9267 60.4405C39.1747 60.2245 39.2987 59.9365 39.2987 59.5765C39.2987 59.2965 39.2187 59.0685 39.0587 58.8925C38.8987 58.7165 38.5987 58.5885 38.1587 58.5085L37.3667 58.3885C35.6947 58.1245 34.8587 57.3125 34.8587 55.9525C34.8587 55.5765 34.9267 55.2365 35.0627 54.9325C35.2067 54.6285 35.4107 54.3685 35.6747 54.1525C35.9387 53.9365 36.2547 53.7725 36.6227 53.6605C36.9987 53.5405 37.4227 53.4805 37.8947 53.4805C38.5267 53.4805 39.0787 53.5845 39.5507 53.7925C40.0227 54.0005 40.4267 54.3085 40.7627 54.7165L39.6827 55.7365C39.4747 55.4805 39.2227 55.2725 38.9267 55.1125C38.6307 54.9525 38.2587 54.8725 37.8107 54.8725C37.3547 54.8725 37.0107 54.9605 36.7787 55.1365C36.5547 55.3045 36.4427 55.5445 36.4427 55.8565C36.4427 56.1765 36.5347 56.4125 36.7187 56.5645C36.9027 56.7165 37.1987 56.8285 37.6067 56.9005L38.3867 57.0445C39.2347 57.1965 39.8587 57.4685 40.2587 57.8605C40.6667 58.2445 40.8707 58.7845 40.8707 59.4805C40.8707 59.8805 40.7987 60.2445 40.6547 60.5725C40.5187 60.8925 40.3147 61.1725 40.0427 61.4125C39.7787 61.6445 39.4507 61.8245 39.0587 61.9525C38.6747 62.0805 38.2307 62.1445 37.7267 62.1445ZM45.5122 55.0285V62.0005H43.9282V55.0285H41.5522V53.6245H47.8882V55.0285H45.5122ZM48.3464 59.1085V57.5845H51.7784V59.1085H48.3464ZM56.1997 55.0285V62.0005H54.6157V55.0285H52.2397V53.6245H58.5757V55.0285H56.1997ZM61.4567 62.0005H59.8727V53.6245H63.6527C64.0367 53.6245 64.3807 53.6845 64.6847 53.8045C64.9887 53.9245 65.2447 54.1005 65.4527 54.3325C65.6687 54.5565 65.8327 54.8285 65.9447 55.1485C66.0647 55.4685 66.1247 55.8245 66.1247 56.2165C66.1247 56.7925 65.9927 57.2885 65.7287 57.7045C65.4727 58.1205 65.0847 58.4165 64.5647 58.5925L66.2807 62.0005H64.5167L62.9567 58.7725H61.4567V62.0005ZM63.4967 57.4405C63.8007 57.4405 64.0407 57.3605 64.2167 57.2005C64.3927 57.0325 64.4807 56.7965 64.4807 56.4925V55.9405C64.4807 55.6365 64.3927 55.4045 64.2167 55.2445C64.0407 55.0845 63.8007 55.0045 63.4967 55.0045H61.4567V57.4405H63.4967ZM73.0254 62.0005L72.3534 59.8645H69.3774L68.7174 62.0005H67.1094L69.9174 53.6245H71.8854L74.6694 62.0005H73.0254ZM70.8894 55.0645H70.8294L69.7614 58.5085H71.9694L70.8894 55.0645ZM75.5559 62.0005V60.7285H76.6599V54.8965H75.5559V53.6245H79.3599V54.8965H78.2439V60.7285H79.3599V62.0005H75.5559ZM84.2075 55.0285V62.0005H82.6235V55.0285H80.2475V53.6245H86.5835V55.0285H84.2075ZM87.8805 62.0005V53.6245H93.4005V55.0285H89.4645V57.0565H92.9445V58.4605H89.4645V60.5965H93.4005V62.0005H87.8805ZM101.4 55.9885H101.352L100.704 57.3205L98.9878 60.4885L97.2718 57.3205L96.6238 55.9885H96.5758V62.0005H95.0758V53.6245H96.8638L99.0118 57.7165H99.0598L101.184 53.6245H102.9V62.0005H101.4V55.9885ZM104.873 62.0005V53.6245H110.393V55.0285H106.457V57.0565H109.937V58.4605H106.457V60.5965H110.393V62.0005H104.873ZM114.468 57.7045L113.604 55.9645H113.568V62.0005H112.068V53.6245H113.808L116.328 57.9205L117.192 59.6605H117.228V53.6245H118.728V62.0005H116.988L114.468 57.7045ZM123.981 55.0285V62.0005H122.397V55.0285H120.021V53.6245H126.357V55.0285H123.981ZM130.49 62.0005V53.6245H134.258C134.642 53.6245 134.986 53.6885 135.29 53.8165C135.602 53.9365 135.866 54.1125 136.082 54.3445C136.298 54.5685 136.462 54.8405 136.574 55.1605C136.686 55.4805 136.742 55.8325 136.742 56.2165C136.742 56.6085 136.686 56.9645 136.574 57.2845C136.462 57.5965 136.298 57.8685 136.082 58.1005C135.866 58.3245 135.602 58.5005 135.29 58.6285C134.986 58.7485 134.642 58.8085 134.258 58.8085H132.074V62.0005H130.49ZM132.074 57.4405H134.114C134.418 57.4405 134.658 57.3605 134.834 57.2005C135.01 57.0325 135.098 56.7965 135.098 56.4925V55.9405C135.098 55.6365 135.01 55.4045 134.834 55.2445C134.658 55.0845 134.418 55.0045 134.114 55.0045H132.074V57.4405ZM137.829 62.0005V60.7285H138.933V54.8965H137.829V53.6245H141.633V54.8965H140.517V60.7285H141.633V62.0005H137.829ZM143.252 62.0005V53.6245H144.836V60.5965H148.136V62.0005H143.252ZM152.352 62.1445C151.8 62.1445 151.3 62.0525 150.852 61.8685C150.404 61.6845 150.02 61.4085 149.7 61.0405C149.388 60.6725 149.144 60.2205 148.968 59.6845C148.792 59.1485 148.704 58.5245 148.704 57.8125C148.704 57.1085 148.792 56.4885 148.968 55.9525C149.144 55.4085 149.388 54.9525 149.7 54.5845C150.02 54.2165 150.404 53.9405 150.852 53.7565C151.3 53.5725 151.8 53.4805 152.352 53.4805C152.904 53.4805 153.404 53.5725 153.852 53.7565C154.3 53.9405 154.684 54.2165 155.004 54.5845C155.324 54.9525 155.568 55.4085 155.736 55.9525C155.912 56.4885 156 57.1085 156 57.8125C156 58.5245 155.912 59.1485 155.736 59.6845C155.568 60.2205 155.324 60.6725 155.004 61.0405C154.684 61.4085 154.3 61.6845 153.852 61.8685C153.404 62.0525 152.904 62.1445 152.352 62.1445ZM152.352 60.7405C152.952 60.7405 153.428 60.5405 153.78 60.1405C154.14 59.7405 154.32 59.1805 154.32 58.4605V57.1645C154.32 56.4445 154.14 55.8845 153.78 55.4845C153.428 55.0845 152.952 54.8845 152.352 54.8845C151.752 54.8845 151.272 55.0845 150.912 55.4845C150.56 55.8845 150.384 56.4445 150.384 57.1645V58.4605C150.384 59.1805 150.56 59.7405 150.912 60.1405C151.272 60.5405 151.752 60.7405 152.352 60.7405ZM160.602 55.0285V62.0005H159.018V55.0285H156.642V53.6245H162.978V55.0285H160.602ZM164.275 62.0005V53.6245H169.795V55.0285H165.859V57.0565H169.339V58.4605H165.859V60.5965H169.795V62.0005H164.275Z" fill="#41637D"/>
<rect x="194.54" y="90" width="83.9895" height="16.7979" fill="#39A4F5"/>
<rect x="194.486" y="90" width="51" height="17" fill="#1084DD"/>
<path d="M9.27355 103.144C8.55355 103.144 7.94155 103.016 7.43755 102.76C6.94155 102.504 6.51355 102.168 6.15355 101.752L7.22155 100.72C7.50955 101.056 7.82955 101.312 8.18155 101.488C8.54155 101.664 8.93755 101.752 9.36955 101.752C9.85755 101.752 10.2255 101.648 10.4735 101.44C10.7215 101.224 10.8455 100.936 10.8455 100.576C10.8455 100.296 10.7655 100.068 10.6055 99.892C10.4455 99.716 10.1455 99.588 9.70555 99.508L8.91355 99.388C7.24155 99.124 6.40555 98.312 6.40555 96.952C6.40555 96.576 6.47355 96.236 6.60955 95.932C6.75355 95.628 6.95755 95.368 7.22155 95.152C7.48555 94.936 7.80155 94.772 8.16955 94.66C8.54555 94.54 8.96955 94.48 9.44155 94.48C10.0735 94.48 10.6255 94.584 11.0975 94.792C11.5695 95 11.9735 95.308 12.3095 95.716L11.2295 96.736C11.0215 96.48 10.7695 96.272 10.4735 96.112C10.1775 95.952 9.80555 95.872 9.35755 95.872C8.90155 95.872 8.55755 95.96 8.32555 96.136C8.10155 96.304 7.98955 96.544 7.98955 96.856C7.98955 97.176 8.08155 97.412 8.26555 97.564C8.44955 97.716 8.74555 97.828 9.15355 97.9L9.93355 98.044C10.7815 98.196 11.4055 98.468 11.8055 98.86C12.2135 99.244 12.4175 99.784 12.4175 100.48C12.4175 100.88 12.3455 101.244 12.2015 101.572C12.0655 101.892 11.8615 102.172 11.5895 102.412C11.3255 102.644 10.9975 102.824 10.6055 102.952C10.2215 103.08 9.77755 103.144 9.27355 103.144ZM17.2575 103.144C16.7055 103.144 16.2055 103.056 15.7575 102.88C15.3175 102.696 14.9375 102.424 14.6175 102.064C14.3055 101.704 14.0655 101.26 13.8975 100.732C13.7295 100.196 13.6455 99.576 13.6455 98.872C13.6455 98.168 13.7295 97.544 13.8975 97C14.0655 96.448 14.3055 95.988 14.6175 95.62C14.9375 95.244 15.3175 94.96 15.7575 94.768C16.2055 94.576 16.7055 94.48 17.2575 94.48C18.0095 94.48 18.6335 94.64 19.1295 94.96C19.6255 95.28 20.0215 95.764 20.3175 96.412L18.9615 97.132C18.8415 96.756 18.6455 96.456 18.3735 96.232C18.1015 96 17.7295 95.884 17.2575 95.884C16.6655 95.884 16.1935 96.084 15.8415 96.484C15.4975 96.884 15.3255 97.444 15.3255 98.164V99.484C15.3255 100.212 15.4975 100.772 15.8415 101.164C16.1935 101.548 16.6655 101.74 17.2575 101.74C17.7295 101.74 18.1135 101.612 18.4095 101.356C18.7135 101.1 18.9335 100.784 19.0695 100.408L20.3535 101.164C20.0495 101.788 19.6455 102.276 19.1415 102.628C18.6375 102.972 18.0095 103.144 17.2575 103.144ZM26.8184 103L26.1464 100.864H23.1704L22.5104 103H20.9024L23.7104 94.624H25.6784L28.4624 103H26.8184ZM24.6824 96.064H24.6224L23.5544 99.508H25.7624L24.6824 96.064ZM29.6969 103V94.624H31.2809V101.596H34.5809V103H29.6969ZM35.9547 103V94.624H41.4747V96.028H37.5387V98.056H41.0187V99.46H37.5387V101.596H41.4747V103H35.9547ZM42.862 100.108V98.584H46.294V100.108H42.862ZM49.4781 94.624V99.772C49.4781 100.428 49.6021 100.92 49.8501 101.248C50.1061 101.576 50.5341 101.74 51.1341 101.74C51.7341 101.74 52.1581 101.576 52.4061 101.248C52.6621 100.92 52.7901 100.428 52.7901 99.772V94.624H54.3501V99.568C54.3501 100.184 54.2901 100.716 54.1701 101.164C54.0581 101.612 53.8741 101.984 53.6181 102.28C53.3621 102.576 53.0261 102.796 52.6101 102.94C52.2021 103.076 51.7061 103.144 51.1221 103.144C50.5301 103.144 50.0301 103.076 49.6221 102.94C49.2221 102.796 48.8941 102.576 48.6381 102.28C48.3821 101.984 48.1981 101.612 48.0861 101.164C47.9741 100.716 47.9181 100.184 47.9181 99.568V94.624H49.4781ZM56.2633 103V94.624H60.0313C60.4153 94.624 60.7593 94.688 61.0633 94.816C61.3753 94.936 61.6393 95.112 61.8553 95.344C62.0713 95.568 62.2353 95.84 62.3473 96.16C62.4593 96.48 62.5153 96.832 62.5153 97.216C62.5153 97.608 62.4593 97.964 62.3473 98.284C62.2353 98.596 62.0713 98.868 61.8553 99.1C61.6393 99.324 61.3753 99.5 61.0633 99.628C60.7593 99.748 60.4153 99.808 60.0313 99.808H57.8473V103H56.2633ZM57.8473 98.44H59.8873C60.1913 98.44 60.4313 98.36 60.6073 98.2C60.7833 98.032 60.8713 97.796 60.8713 97.492V96.94C60.8713 96.636 60.7833 96.404 60.6073 96.244C60.4313 96.084 60.1913 96.004 59.8873 96.004H57.8473V98.44ZM66.7867 103V94.624H68.3707V101.596H71.6707V103H66.7867ZM78.4395 103L77.7675 100.864H74.7915L74.1315 103H72.5235L75.3315 94.624H77.2995L80.0835 103H78.4395ZM76.3035 96.064H76.2435L75.1755 99.508H77.3835L76.3035 96.064ZM81.318 94.624H85.194C85.538 94.624 85.846 94.676 86.118 94.78C86.398 94.884 86.634 95.028 86.826 95.212C87.018 95.396 87.162 95.624 87.258 95.896C87.362 96.16 87.414 96.452 87.414 96.772C87.414 97.092 87.37 97.364 87.282 97.588C87.202 97.804 87.09 97.984 86.946 98.128C86.81 98.272 86.65 98.38 86.466 98.452C86.29 98.524 86.106 98.564 85.914 98.572V98.644C86.098 98.644 86.294 98.68 86.502 98.752C86.718 98.824 86.914 98.94 87.09 99.1C87.274 99.252 87.426 99.452 87.546 99.7C87.666 99.94 87.726 100.24 87.726 100.6C87.726 100.936 87.67 101.252 87.558 101.548C87.454 101.836 87.306 102.088 87.114 102.304C86.922 102.52 86.694 102.692 86.43 102.82C86.166 102.94 85.878 103 85.566 103H81.318V94.624ZM82.902 101.656H85.11C85.414 101.656 85.65 101.58 85.818 101.428C85.986 101.268 86.07 101.04 86.07 100.744V100.336C86.07 100.04 85.986 99.812 85.818 99.652C85.65 99.492 85.414 99.412 85.11 99.412H82.902V101.656ZM82.902 98.116H84.858C85.146 98.116 85.37 98.04 85.53 97.888C85.69 97.728 85.77 97.508 85.77 97.228V96.856C85.77 96.576 85.69 96.36 85.53 96.208C85.37 96.048 85.146 95.968 84.858 95.968H82.902V98.116ZM92.563 103.144C92.011 103.144 91.511 103.052 91.063 102.868C90.615 102.684 90.231 102.408 89.911 102.04C89.599 101.672 89.355 101.22 89.179 100.684C89.003 100.148 88.915 99.524 88.915 98.812C88.915 98.108 89.003 97.488 89.179 96.952C89.355 96.408 89.599 95.952 89.911 95.584C90.231 95.216 90.615 94.94 91.063 94.756C91.511 94.572 92.011 94.48 92.563 94.48C93.115 94.48 93.615 94.572 94.063 94.756C94.511 94.94 94.895 95.216 95.215 95.584C95.535 95.952 95.779 96.408 95.947 96.952C96.123 97.488 96.211 98.108 96.211 98.812C96.211 99.524 96.123 100.148 95.947 100.684C95.779 101.22 95.535 101.672 95.215 102.04C94.895 102.408 94.511 102.684 94.063 102.868C93.615 103.052 93.115 103.144 92.563 103.144ZM92.563 101.74C93.163 101.74 93.639 101.54 93.991 101.14C94.351 100.74 94.531 100.18 94.531 99.46V98.164C94.531 97.444 94.351 96.884 93.991 96.484C93.639 96.084 93.163 95.884 92.563 95.884C91.963 95.884 91.483 96.084 91.123 96.484C90.771 96.884 90.595 97.444 90.595 98.164V99.46C90.595 100.18 90.771 100.74 91.123 101.14C91.483 101.54 91.963 101.74 92.563 101.74ZM100.306 103V101.728H101.41V95.896H100.306V94.624H104.11V95.896H102.994V101.728H104.11V103H100.306ZM108.128 98.704L107.264 96.964H107.228V103H105.728V94.624H107.468L109.988 98.92L110.852 100.66H110.888V94.624H112.388V103H110.648L108.128 98.704ZM114.353 94.624H117.401C117.945 94.624 118.437 94.712 118.877 94.888C119.325 95.064 119.705 95.328 120.017 95.68C120.337 96.024 120.581 96.46 120.749 96.988C120.925 97.508 121.013 98.116 121.013 98.812C121.013 99.508 120.925 100.12 120.749 100.648C120.581 101.168 120.337 101.604 120.017 101.956C119.705 102.3 119.325 102.56 118.877 102.736C118.437 102.912 117.945 103 117.401 103H114.353V94.624ZM117.401 101.596C117.993 101.596 118.461 101.424 118.805 101.08C119.157 100.728 119.333 100.192 119.333 99.472V98.152C119.333 97.432 119.157 96.9 118.805 96.556C118.461 96.204 117.993 96.028 117.401 96.028H115.937V101.596H117.401ZM124.127 94.624V99.772C124.127 100.428 124.251 100.92 124.499 101.248C124.755 101.576 125.183 101.74 125.783 101.74C126.383 101.74 126.807 101.576 127.055 101.248C127.311 100.92 127.439 100.428 127.439 99.772V94.624H128.999V99.568C128.999 100.184 128.939 100.716 128.819 101.164C128.707 101.612 128.523 101.984 128.267 102.28C128.011 102.576 127.675 102.796 127.259 102.94C126.851 103.076 126.355 103.144 125.771 103.144C125.179 103.144 124.679 103.076 124.271 102.94C123.871 102.796 123.543 102.576 123.287 102.28C123.031 101.984 122.847 101.612 122.735 101.164C122.623 100.716 122.567 100.184 122.567 99.568V94.624H124.127ZM133.516 103.144C132.796 103.144 132.184 103.016 131.68 102.76C131.184 102.504 130.756 102.168 130.396 101.752L131.464 100.72C131.752 101.056 132.072 101.312 132.424 101.488C132.784 101.664 133.18 101.752 133.612 101.752C134.1 101.752 134.468 101.648 134.716 101.44C134.964 101.224 135.088 100.936 135.088 100.576C135.088 100.296 135.008 100.068 134.848 99.892C134.688 99.716 134.388 99.588 133.948 99.508L133.156 99.388C131.484 99.124 130.648 98.312 130.648 96.952C130.648 96.576 130.716 96.236 130.852 95.932C130.996 95.628 131.2 95.368 131.464 95.152C131.728 94.936 132.044 94.772 132.412 94.66C132.788 94.54 133.212 94.48 133.684 94.48C134.316 94.48 134.868 94.584 135.34 94.792C135.812 95 136.216 95.308 136.552 95.716L135.472 96.736C135.264 96.48 135.012 96.272 134.716 96.112C134.42 95.952 134.048 95.872 133.6 95.872C133.144 95.872 132.8 95.96 132.568 96.136C132.344 96.304 132.232 96.544 132.232 96.856C132.232 97.176 132.324 97.412 132.508 97.564C132.692 97.716 132.988 97.828 133.396 97.9L134.176 98.044C135.024 98.196 135.648 98.468 136.048 98.86C136.456 99.244 136.66 99.784 136.66 100.48C136.66 100.88 136.588 101.244 136.444 101.572C136.308 101.892 136.104 102.172 135.832 102.412C135.568 102.644 135.24 102.824 134.848 102.952C134.464 103.08 134.02 103.144 133.516 103.144ZM141.301 96.028V103H139.717V96.028H137.341V94.624H143.677V96.028H141.301ZM146.558 103H144.974V94.624H148.754C149.138 94.624 149.482 94.684 149.786 94.804C150.09 94.924 150.346 95.1 150.554 95.332C150.77 95.556 150.934 95.828 151.046 96.148C151.166 96.468 151.226 96.824 151.226 97.216C151.226 97.792 151.094 98.288 150.83 98.704C150.574 99.12 150.186 99.416 149.666 99.592L151.382 103H149.618L148.058 99.772H146.558V103ZM148.598 98.44C148.902 98.44 149.142 98.36 149.318 98.2C149.494 98.032 149.582 97.796 149.582 97.492V96.94C149.582 96.636 149.494 96.404 149.318 96.244C149.142 96.084 148.902 96.004 148.598 96.004H146.558V98.44H148.598ZM152.595 103V101.728H153.699V95.896H152.595V94.624H156.399V95.896H155.283V101.728H156.399V103H152.595ZM158.017 103V94.624H163.537V96.028H159.601V98.056H163.081V99.46H159.601V101.596H163.537V103H158.017ZM165.213 103V94.624H166.797V101.596H170.097V103H165.213Z" fill="#41637D"/>
<rect x="194.54" y="172" width="83.9895" height="16.7979" fill="#EDEDED"/>
<rect x="194.486" y="172.202" width="18" height="17" fill="#39A4F5"/>
<rect x="194.486" y="172.202" width="10" height="17" fill="#1084DD"/>
<path d="M2.37072 185V176.624H7.75872V178.028H3.95472V180.056H7.26672V181.46H3.95472V185H2.37072ZM12.2681 185.144C11.7161 185.144 11.2161 185.052 10.7681 184.868C10.3201 184.684 9.93609 184.408 9.61609 184.04C9.30409 183.672 9.06009 183.22 8.88409 182.684C8.70809 182.148 8.62009 181.524 8.62009 180.812C8.62009 180.108 8.70809 179.488 8.88409 178.952C9.06009 178.408 9.30409 177.952 9.61609 177.584C9.93609 177.216 10.3201 176.94 10.7681 176.756C11.2161 176.572 11.7161 176.48 12.2681 176.48C12.8201 176.48 13.3201 176.572 13.7681 176.756C14.2161 176.94 14.6001 177.216 14.9201 177.584C15.2401 177.952 15.4841 178.408 15.6521 178.952C15.8281 179.488 15.9161 180.108 15.9161 180.812C15.9161 181.524 15.8281 182.148 15.6521 182.684C15.4841 183.22 15.2401 183.672 14.9201 184.04C14.6001 184.408 14.2161 184.684 13.7681 184.868C13.3201 185.052 12.8201 185.144 12.2681 185.144ZM12.2681 183.74C12.8681 183.74 13.3441 183.54 13.6961 183.14C14.0561 182.74 14.2361 182.18 14.2361 181.46V180.164C14.2361 179.444 14.0561 178.884 13.6961 178.484C13.3441 178.084 12.8681 177.884 12.2681 177.884C11.6681 177.884 11.1881 178.084 10.8281 178.484C10.4761 178.884 10.3001 179.444 10.3001 180.164V181.46C10.3001 182.18 10.4761 182.74 10.8281 183.14C11.1881 183.54 11.6681 183.74 12.2681 183.74ZM19.1071 185H17.5231V176.624H21.3031C21.6871 176.624 22.0311 176.684 22.3351 176.804C22.6391 176.924 22.8951 177.1 23.1031 177.332C23.3191 177.556 23.4831 177.828 23.5951 178.148C23.7151 178.468 23.7751 178.824 23.7751 179.216C23.7751 179.792 23.6431 180.288 23.3791 180.704C23.1231 181.12 22.7351 181.416 22.2151 181.592L23.9311 185H22.1671L20.6071 181.772H19.1071V185ZM21.1471 180.44C21.4511 180.44 21.6911 180.36 21.8671 180.2C22.0431 180.032 22.1311 179.796 22.1311 179.492V178.94C22.1311 178.636 22.0431 178.404 21.8671 178.244C21.6911 178.084 21.4511 178.004 21.1471 178.004H19.1071V180.44H21.1471ZM31.8158 178.988H31.7678L31.1198 180.32L29.4038 183.488L27.6878 180.32L27.0398 178.988H26.9918V185H25.4918V176.624H27.2798L29.4278 180.716H29.4758L31.5998 176.624H33.3158V185H31.8158V178.988ZM36.7887 176.624V181.772C36.7887 182.428 36.9127 182.92 37.1607 183.248C37.4167 183.576 37.8447 183.74 38.4447 183.74C39.0447 183.74 39.4687 183.576 39.7167 183.248C39.9727 182.92 40.1007 182.428 40.1007 181.772V176.624H41.6607V181.568C41.6607 182.184 41.6007 182.716 41.4807 183.164C41.3687 183.612 41.1847 183.984 40.9287 184.28C40.6727 184.576 40.3367 184.796 39.9207 184.94C39.5127 185.076 39.0167 185.144 38.4327 185.144C37.8407 185.144 37.3407 185.076 36.9327 184.94C36.5327 184.796 36.2047 184.576 35.9487 184.28C35.6927 183.984 35.5087 183.612 35.3967 183.164C35.2847 182.716 35.2287 182.184 35.2287 181.568V176.624H36.7887ZM43.5738 185V176.624H45.1578V183.596H48.4578V185H43.5738ZM55.2266 185L54.5546 182.864H51.5786L50.9186 185H49.3106L52.1186 176.624H54.0866L56.8706 185H55.2266ZM53.0906 178.064H53.0306L51.9626 181.508H54.1706L53.0906 178.064ZM60.6079 178.028V185H59.0239V178.028H56.6479V176.624H62.9839V178.028H60.6079ZM63.8743 185V183.728H64.9783V177.896H63.8743V176.624H67.6783V177.896H66.5623V183.728H67.6783V185H63.8743ZM72.5845 185.144C72.0325 185.144 71.5325 185.052 71.0845 184.868C70.6365 184.684 70.2525 184.408 69.9325 184.04C69.6205 183.672 69.3765 183.22 69.2005 182.684C69.0245 182.148 68.9365 181.524 68.9365 180.812C68.9365 180.108 69.0245 179.488 69.2005 178.952C69.3765 178.408 69.6205 177.952 69.9325 177.584C70.2525 177.216 70.6365 176.94 71.0845 176.756C71.5325 176.572 72.0325 176.48 72.5845 176.48C73.1365 176.48 73.6365 176.572 74.0845 176.756C74.5325 176.94 74.9165 177.216 75.2365 177.584C75.5565 177.952 75.8005 178.408 75.9685 178.952C76.1445 179.488 76.2325 180.108 76.2325 180.812C76.2325 181.524 76.1445 182.148 75.9685 182.684C75.8005 183.22 75.5565 183.672 75.2365 184.04C74.9165 184.408 74.5325 184.684 74.0845 184.868C73.6365 185.052 73.1365 185.144 72.5845 185.144ZM72.5845 183.74C73.1845 183.74 73.6605 183.54 74.0125 183.14C74.3725 182.74 74.5525 182.18 74.5525 181.46V180.164C74.5525 179.444 74.3725 178.884 74.0125 178.484C73.6605 178.084 73.1845 177.884 72.5845 177.884C71.9845 177.884 71.5045 178.084 71.1445 178.484C70.7925 178.884 70.6165 179.444 70.6165 180.164V181.46C70.6165 182.18 70.7925 182.74 71.1445 183.14C71.5045 183.54 71.9845 183.74 72.5845 183.74ZM80.2395 180.704L79.3755 178.964H79.3395V185H77.8395V176.624H79.5795L82.0995 180.92L82.9635 182.66H82.9995V176.624H84.4995V185H82.7595L80.2395 180.704ZM94.1724 184.232C94.0524 184.336 93.9164 184.444 93.7644 184.556C93.6124 184.66 93.4364 184.756 93.2364 184.844C93.0444 184.932 92.8244 185.004 92.5764 185.06C92.3364 185.116 92.0644 185.144 91.7604 185.144C91.3124 185.144 90.9124 185.084 90.5604 184.964C90.2164 184.844 89.9284 184.68 89.6964 184.472C89.4644 184.264 89.2884 184.02 89.1684 183.74C89.0484 183.452 88.9884 183.144 88.9884 182.816C88.9884 182.52 89.0324 182.26 89.1204 182.036C89.2084 181.804 89.3284 181.596 89.4804 181.412C89.6324 181.22 89.8124 181.052 90.0204 180.908C90.2284 180.756 90.4484 180.612 90.6804 180.476C90.4324 180.196 90.2124 179.892 90.0204 179.564C89.8364 179.228 89.7444 178.868 89.7444 178.484C89.7444 178.212 89.8004 177.956 89.9124 177.716C90.0244 177.468 90.1844 177.252 90.3924 177.068C90.6084 176.884 90.8644 176.74 91.1604 176.636C91.4564 176.532 91.7884 176.48 92.1564 176.48C92.4844 176.48 92.7884 176.524 93.0684 176.612C93.3484 176.7 93.5884 176.824 93.7884 176.984C93.9964 177.144 94.1564 177.34 94.2684 177.572C94.3884 177.804 94.4484 178.068 94.4484 178.364C94.4484 178.628 94.4004 178.872 94.3044 179.096C94.2164 179.312 94.0924 179.512 93.9324 179.696C93.7724 179.872 93.5884 180.04 93.3804 180.2C93.1724 180.352 92.9484 180.496 92.7084 180.632L94.1724 182.216C94.2844 181.944 94.3684 181.656 94.4244 181.352C94.4884 181.048 94.5284 180.744 94.5444 180.44H96.4284V181.724H95.6484C95.5284 182.268 95.3444 182.764 95.0964 183.212L96.7524 185H94.8684L94.1724 184.232ZM92.1084 177.668C91.8524 177.668 91.6404 177.744 91.4724 177.896C91.3044 178.04 91.2204 178.236 91.2204 178.484V178.568C91.2204 178.752 91.2764 178.936 91.3884 179.12C91.5084 179.296 91.6924 179.524 91.9404 179.804C92.2444 179.62 92.4924 179.428 92.6844 179.228C92.8844 179.028 92.9844 178.796 92.9844 178.532V178.46C92.9844 178.204 92.8964 178.008 92.7204 177.872C92.5524 177.736 92.3484 177.668 92.1084 177.668ZM91.9644 183.86C92.2524 183.86 92.5124 183.816 92.7444 183.728C92.9764 183.64 93.1804 183.52 93.3564 183.368L91.4484 181.304C91.1684 181.472 90.9484 181.652 90.7884 181.844C90.6364 182.028 90.5604 182.264 90.5604 182.552V182.684C90.5604 183.036 90.6804 183.32 90.9204 183.536C91.1604 183.752 91.5084 183.86 91.9644 183.86ZM102.635 185L99.899 176.624H101.519L102.803 180.704L103.547 183.488H103.583L104.315 180.704L105.599 176.624H107.171L104.435 185H102.635ZM112.93 185L112.258 182.864H109.282L108.622 185H107.014L109.822 176.624H111.79L114.574 185H112.93ZM110.794 178.064H110.734L109.666 181.508H111.874L110.794 178.064ZM115.808 185V176.624H117.392V183.596H120.692V185H115.808ZM121.718 185V183.728H122.822V177.896H121.718V176.624H125.522V177.896H124.406V183.728H125.522V185H121.718ZM127.14 176.624H130.188C130.732 176.624 131.224 176.712 131.664 176.888C132.112 177.064 132.492 177.328 132.804 177.68C133.124 178.024 133.368 178.46 133.536 178.988C133.712 179.508 133.8 180.116 133.8 180.812C133.8 181.508 133.712 182.12 133.536 182.648C133.368 183.168 133.124 183.604 132.804 183.956C132.492 184.3 132.112 184.56 131.664 184.736C131.224 184.912 130.732 185 130.188 185H127.14V176.624ZM130.188 183.596C130.78 183.596 131.248 183.424 131.592 183.08C131.944 182.728 132.12 182.192 132.12 181.472V180.152C132.12 179.432 131.944 178.9 131.592 178.556C131.248 178.204 130.78 178.028 130.188 178.028H128.724V183.596H130.188ZM140.234 185L139.562 182.864H136.586L135.926 185H134.318L137.126 176.624H139.094L141.878 185H140.234ZM138.098 178.064H138.038L136.97 181.508H139.178L138.098 178.064ZM145.616 178.028V185H144.032V178.028H141.656V176.624H147.992V178.028H145.616ZM148.882 185V183.728H149.986V177.896H148.882V176.624H152.686V177.896H151.57V183.728H152.686V185H148.882ZM157.592 185.144C157.04 185.144 156.54 185.052 156.092 184.868C155.644 184.684 155.26 184.408 154.94 184.04C154.628 183.672 154.384 183.22 154.208 182.684C154.032 182.148 153.944 181.524 153.944 180.812C153.944 180.108 154.032 179.488 154.208 178.952C154.384 178.408 154.628 177.952 154.94 177.584C155.26 177.216 155.644 176.94 156.092 176.756C156.54 176.572 157.04 176.48 157.592 176.48C158.144 176.48 158.644 176.572 159.092 176.756C159.54 176.94 159.924 177.216 160.244 177.584C160.564 177.952 160.808 178.408 160.976 178.952C161.152 179.488 161.24 180.108 161.24 180.812C161.24 181.524 161.152 182.148 160.976 182.684C160.808 183.22 160.564 183.672 160.244 184.04C159.924 184.408 159.54 184.684 159.092 184.868C158.644 185.052 158.144 185.144 157.592 185.144ZM157.592 183.74C158.192 183.74 158.668 183.54 159.02 183.14C159.38 182.74 159.56 182.18 159.56 181.46V180.164C159.56 179.444 159.38 178.884 159.02 178.484C158.668 178.084 158.192 177.884 157.592 177.884C156.992 177.884 156.512 178.084 156.152 178.484C155.8 178.884 155.624 179.444 155.624 180.164V181.46C155.624 182.18 155.8 182.74 156.152 183.14C156.512 183.54 156.992 183.74 157.592 183.74ZM165.247 180.704L164.383 178.964H164.347V185H162.847V176.624H164.587L167.107 180.92L167.971 182.66H168.007V176.624H169.507V185H167.767L165.247 180.704Z" fill="#41637D"/>
<rect x="194.54" y="131" width="83.9895" height="16.7979" fill="#EDEDED"/>
<rect x="194.486" y="131" width="64" height="17" fill="#39A4F5"/>
<rect x="194.486" y="131" width="18" height="17" fill="#1084DD"/>
<path d="M58.4024 144.404L57.7304 142.268H54.7544L54.0944 144.404H52.4864L55.2944 136.028H57.2624L60.0464 144.404H58.4024ZM56.2664 137.468H56.2064L55.1384 140.912H57.3464L56.2664 137.468ZM63.6809 140.108L62.8169 138.368H62.7809V144.404H61.2809V136.028H63.0209L65.5409 140.324L66.4049 142.064H66.4409V136.028H67.9409V144.404H66.2009L63.6809 140.108ZM75.0899 144.404L74.4179 142.268H71.4419L70.7819 144.404H69.1739L71.9819 136.028H73.9499L76.7339 144.404H75.0899ZM72.9539 137.468H72.8939L71.8259 140.912H74.0339L72.9539 137.468ZM77.9684 144.404V136.028H79.5524V143H82.8524V144.404H77.9684ZM85.2107 144.404V141.116L82.3427 136.028H84.1187L86.0507 139.568H86.0747L87.9587 136.028H89.6867L86.8067 141.104V144.404H85.2107ZM92.9357 144.548C92.2157 144.548 91.6037 144.42 91.0997 144.164C90.6037 143.908 90.1757 143.572 89.8157 143.156L90.8837 142.124C91.1717 142.46 91.4917 142.716 91.8437 142.892C92.2037 143.068 92.5997 143.156 93.0317 143.156C93.5197 143.156 93.8877 143.052 94.1357 142.844C94.3837 142.628 94.5077 142.34 94.5077 141.98C94.5077 141.7 94.4277 141.472 94.2677 141.296C94.1077 141.12 93.8077 140.992 93.3677 140.912L92.5757 140.792C90.9037 140.528 90.0677 139.716 90.0677 138.356C90.0677 137.98 90.1357 137.64 90.2717 137.336C90.4157 137.032 90.6197 136.772 90.8837 136.556C91.1477 136.34 91.4637 136.176 91.8317 136.064C92.2077 135.944 92.6317 135.884 93.1037 135.884C93.7357 135.884 94.2877 135.988 94.7597 136.196C95.2317 136.404 95.6357 136.712 95.9717 137.12L94.8917 138.14C94.6837 137.884 94.4317 137.676 94.1357 137.516C93.8397 137.356 93.4677 137.276 93.0197 137.276C92.5637 137.276 92.2197 137.364 91.9877 137.54C91.7637 137.708 91.6517 137.948 91.6517 138.26C91.6517 138.58 91.7437 138.816 91.9277 138.968C92.1117 139.12 92.4077 139.232 92.8157 139.304L93.5957 139.448C94.4437 139.6 95.0677 139.872 95.4677 140.264C95.8757 140.648 96.0797 141.188 96.0797 141.884C96.0797 142.284 96.0077 142.648 95.8637 142.976C95.7277 143.296 95.5237 143.576 95.2517 143.816C94.9877 144.048 94.6597 144.228 94.2677 144.356C93.8837 144.484 93.4397 144.548 92.9357 144.548ZM97.6676 144.404V136.028H103.188V137.432H99.2516V139.46H102.732V140.864H99.2516V143H103.188V144.404H97.6676ZM109.283 144.404H107.699V136.028H111.479C111.863 136.028 112.207 136.088 112.511 136.208C112.815 136.328 113.071 136.504 113.279 136.736C113.495 136.96 113.659 137.232 113.771 137.552C113.891 137.872 113.951 138.228 113.951 138.62C113.951 139.196 113.819 139.692 113.555 140.108C113.299 140.524 112.911 140.82 112.391 140.996L114.107 144.404H112.343L110.783 141.176H109.283V144.404ZM111.323 139.844C111.627 139.844 111.867 139.764 112.043 139.604C112.219 139.436 112.307 139.2 112.307 138.896V138.344C112.307 138.04 112.219 137.808 112.043 137.648C111.867 137.488 111.627 137.408 111.323 137.408H109.283V139.844H111.323ZM115.668 144.404V136.028H121.188V137.432H117.252V139.46H120.732V140.864H117.252V143H121.188V144.404H115.668ZM118.584 135.476L117.66 135.02L118.8 132.776L120.096 133.424L118.584 135.476ZM125.467 144.548C124.747 144.548 124.135 144.42 123.631 144.164C123.135 143.908 122.707 143.572 122.347 143.156L123.415 142.124C123.703 142.46 124.023 142.716 124.375 142.892C124.735 143.068 125.131 143.156 125.563 143.156C126.051 143.156 126.419 143.052 126.667 142.844C126.915 142.628 127.039 142.34 127.039 141.98C127.039 141.7 126.959 141.472 126.799 141.296C126.639 141.12 126.339 140.992 125.899 140.912L125.107 140.792C123.435 140.528 122.599 139.716 122.599 138.356C122.599 137.98 122.667 137.64 122.803 137.336C122.947 137.032 123.151 136.772 123.415 136.556C123.679 136.34 123.995 136.176 124.363 136.064C124.739 135.944 125.163 135.884 125.635 135.884C126.267 135.884 126.819 135.988 127.291 136.196C127.763 136.404 128.167 136.712 128.503 137.12L127.423 138.14C127.215 137.884 126.963 137.676 126.667 137.516C126.371 137.356 125.999 137.276 125.551 137.276C125.095 137.276 124.751 137.364 124.519 137.54C124.295 137.708 124.183 137.948 124.183 138.26C124.183 138.58 124.275 138.816 124.459 138.968C124.643 139.12 124.939 139.232 125.347 139.304L126.127 139.448C126.975 139.6 127.599 139.872 127.999 140.264C128.407 140.648 128.611 141.188 128.611 141.884C128.611 142.284 128.539 142.648 128.395 142.976C128.259 143.296 128.055 143.576 127.783 143.816C127.519 144.048 127.191 144.228 126.799 144.356C126.415 144.484 125.971 144.548 125.467 144.548ZM131.699 136.028V141.176C131.699 141.832 131.823 142.324 132.071 142.652C132.327 142.98 132.755 143.144 133.355 143.144C133.955 143.144 134.379 142.98 134.627 142.652C134.883 142.324 135.011 141.832 135.011 141.176V136.028H136.571V140.972C136.571 141.588 136.511 142.12 136.391 142.568C136.279 143.016 136.095 143.388 135.839 143.684C135.583 143.98 135.247 144.2 134.831 144.344C134.423 144.48 133.927 144.548 133.343 144.548C132.751 144.548 132.251 144.48 131.843 144.344C131.443 144.2 131.115 143.98 130.859 143.684C130.603 143.388 130.419 143.016 130.307 142.568C130.195 142.12 130.139 141.588 130.139 140.972V136.028H131.699ZM138.484 144.404V136.028H140.068V143H143.368V144.404H138.484ZM147.151 137.432V144.404H145.567V137.432H143.191V136.028H149.527V137.432H147.151ZM155.223 144.404L154.551 142.268H151.575L150.915 144.404H149.307L152.115 136.028H154.083L156.867 144.404H155.223ZM153.087 137.468H153.027L151.959 140.912H154.167L153.087 137.468ZM160.604 137.432V144.404H159.02V137.432H156.644V136.028H162.98V137.432H160.604ZM166.74 144.548C166.02 144.548 165.408 144.42 164.904 144.164C164.408 143.908 163.98 143.572 163.62 143.156L164.688 142.124C164.976 142.46 165.296 142.716 165.648 142.892C166.008 143.068 166.404 143.156 166.836 143.156C167.324 143.156 167.692 143.052 167.94 142.844C168.188 142.628 168.312 142.34 168.312 141.98C168.312 141.7 168.232 141.472 168.072 141.296C167.912 141.12 167.612 140.992 167.172 140.912L166.38 140.792C164.708 140.528 163.872 139.716 163.872 138.356C163.872 137.98 163.94 137.64 164.076 137.336C164.22 137.032 164.424 136.772 164.688 136.556C164.952 136.34 165.268 136.176 165.636 136.064C166.012 135.944 166.436 135.884 166.908 135.884C167.54 135.884 168.092 135.988 168.564 136.196C169.036 136.404 169.44 136.712 169.776 137.12L168.696 138.14C168.488 137.884 168.236 137.676 167.94 137.516C167.644 137.356 167.272 137.276 166.824 137.276C166.368 137.276 166.024 137.364 165.792 137.54C165.568 137.708 165.456 137.948 165.456 138.26C165.456 138.58 165.548 138.816 165.732 138.968C165.916 139.12 166.212 139.232 166.62 139.304L167.4 139.448C168.248 139.6 168.872 139.872 169.272 140.264C169.68 140.648 169.884 141.188 169.884 141.884C169.884 142.284 169.812 142.648 169.668 142.976C169.532 143.296 169.328 143.576 169.056 143.816C168.792 144.048 168.464 144.228 168.072 144.356C167.688 144.484 167.244 144.548 166.74 144.548Z" fill="#41637D"/>
<line x1="194.959" y1="8" x2="194.959" y2="198" stroke="#41637D" stroke-width="0.839895"/>
<line x1="236.953" y1="8" x2="236.953" y2="198" stroke="#41637D" stroke-width="0.839895"/>
<line x1="278.948" y1="8" x2="278.948" y2="198" stroke="#41637D" stroke-width="0.839895"/>
</svg>
