<svg width="287" height="216" viewBox="0 0 287 216" fill="none" xmlns="http://www.w3.org/2000/svg">
<path d="M179.658 212.144C179.122 212.144 178.658 212.048 178.266 211.856C177.874 211.656 177.55 211.372 177.294 211.004C177.038 210.636 176.846 210.184 176.718 209.648C176.598 209.112 176.538 208.5 176.538 207.812C176.538 207.132 176.598 206.524 176.718 205.988C176.846 205.444 177.038 204.988 177.294 204.62C177.55 204.252 177.874 203.972 178.266 203.78C178.658 203.58 179.122 203.48 179.658 203.48C180.722 203.48 181.506 203.86 182.01 204.62C182.522 205.38 182.778 206.444 182.778 207.812C182.778 209.18 182.522 210.244 182.01 211.004C181.506 211.764 180.722 212.144 179.658 212.144ZM179.658 210.812C180.194 210.812 180.566 210.612 180.774 210.212C180.99 209.804 181.098 209.256 181.098 208.568V207.056C181.098 206.368 180.99 205.824 180.774 205.424C180.566 205.016 180.194 204.812 179.658 204.812C179.122 204.812 178.746 205.016 178.53 205.424C178.322 205.824 178.218 206.368 178.218 207.056V208.568C178.218 209.256 178.322 209.804 178.53 210.212C178.746 210.612 179.122 210.812 179.658 210.812ZM185.413 212L191.221 203.624H192.613L186.805 212H185.413ZM185.989 208.232C185.309 208.232 184.789 208.032 184.429 207.632C184.077 207.224 183.901 206.632 183.901 205.856C183.901 205.08 184.077 204.492 184.429 204.092C184.789 203.684 185.309 203.48 185.989 203.48C186.669 203.48 187.185 203.684 187.537 204.092C187.889 204.492 188.065 205.08 188.065 205.856C188.065 206.632 187.889 207.224 187.537 207.632C187.185 208.032 186.669 208.232 185.989 208.232ZM185.989 207.32C186.485 207.32 186.733 206.94 186.733 206.18V205.532C186.733 204.772 186.485 204.392 185.989 204.392C185.493 204.392 185.245 204.772 185.245 205.532V206.18C185.245 206.94 185.493 207.32 185.989 207.32ZM192.037 212.144C191.365 212.144 190.849 211.944 190.489 211.544C190.137 211.136 189.961 210.544 189.961 209.768C189.961 208.992 190.137 208.404 190.489 208.004C190.849 207.596 191.365 207.392 192.037 207.392C192.717 207.392 193.233 207.596 193.585 208.004C193.945 208.404 194.125 208.992 194.125 209.768C194.125 210.544 193.945 211.136 193.585 211.544C193.233 211.944 192.717 212.144 192.037 212.144ZM192.037 211.232C192.533 211.232 192.781 210.852 192.781 210.092V209.444C192.781 208.684 192.533 208.304 192.037 208.304C191.541 208.304 191.293 208.684 191.293 209.444V210.092C191.293 210.852 191.541 211.232 192.037 211.232Z" fill="#41637D"/>
<path d="M220.033 204.992H216.265L216.073 207.8H216.157C216.245 207.624 216.341 207.46 216.445 207.308C216.549 207.156 216.669 207.028 216.805 206.924C216.941 206.82 217.097 206.74 217.273 206.684C217.457 206.62 217.677 206.588 217.933 206.588C218.293 206.588 218.629 206.648 218.941 206.768C219.253 206.888 219.521 207.064 219.745 207.296C219.977 207.52 220.157 207.796 220.285 208.124C220.421 208.452 220.489 208.824 220.489 209.24C220.489 209.664 220.421 210.052 220.285 210.404C220.149 210.756 219.949 211.064 219.685 211.328C219.421 211.584 219.097 211.784 218.713 211.928C218.329 212.072 217.889 212.144 217.393 212.144C217.009 212.144 216.665 212.1 216.361 212.012C216.057 211.932 215.789 211.82 215.557 211.676C215.325 211.532 215.125 211.368 214.957 211.184C214.789 210.992 214.641 210.792 214.513 210.584L215.665 209.696C215.761 209.856 215.861 210.008 215.965 210.152C216.069 210.288 216.189 210.408 216.325 210.512C216.469 210.616 216.625 210.7 216.793 210.764C216.969 210.82 217.173 210.848 217.405 210.848C217.877 210.848 218.233 210.716 218.473 210.452C218.721 210.188 218.845 209.828 218.845 209.372V209.276C218.845 208.844 218.721 208.504 218.473 208.256C218.225 208.008 217.881 207.884 217.441 207.884C217.097 207.884 216.817 207.952 216.601 208.088C216.385 208.216 216.213 208.356 216.085 208.508L214.789 208.328L215.101 203.624H220.033V204.992ZM224.648 212.144C224.112 212.144 223.648 212.048 223.256 211.856C222.864 211.656 222.54 211.372 222.284 211.004C222.028 210.636 221.836 210.184 221.708 209.648C221.588 209.112 221.528 208.5 221.528 207.812C221.528 207.132 221.588 206.524 221.708 205.988C221.836 205.444 222.028 204.988 222.284 204.62C222.54 204.252 222.864 203.972 223.256 203.78C223.648 203.58 224.112 203.48 224.648 203.48C225.712 203.48 226.496 203.86 227 204.62C227.512 205.38 227.768 206.444 227.768 207.812C227.768 209.18 227.512 210.244 227 211.004C226.496 211.764 225.712 212.144 224.648 212.144ZM224.648 210.812C225.184 210.812 225.556 210.612 225.764 210.212C225.98 209.804 226.088 209.256 226.088 208.568V207.056C226.088 206.368 225.98 205.824 225.764 205.424C225.556 205.016 225.184 204.812 224.648 204.812C224.112 204.812 223.736 205.016 223.52 205.424C223.312 205.824 223.208 206.368 223.208 207.056V208.568C223.208 209.256 223.312 209.804 223.52 210.212C223.736 210.612 224.112 210.812 224.648 210.812ZM230.403 212L236.211 203.624H237.603L231.795 212H230.403ZM230.979 208.232C230.299 208.232 229.779 208.032 229.419 207.632C229.067 207.224 228.891 206.632 228.891 205.856C228.891 205.08 229.067 204.492 229.419 204.092C229.779 203.684 230.299 203.48 230.979 203.48C231.659 203.48 232.175 203.684 232.527 204.092C232.879 204.492 233.055 205.08 233.055 205.856C233.055 206.632 232.879 207.224 232.527 207.632C232.175 208.032 231.659 208.232 230.979 208.232ZM230.979 207.32C231.475 207.32 231.723 206.94 231.723 206.18V205.532C231.723 204.772 231.475 204.392 230.979 204.392C230.483 204.392 230.235 204.772 230.235 205.532V206.18C230.235 206.94 230.483 207.32 230.979 207.32ZM237.027 212.144C236.355 212.144 235.839 211.944 235.479 211.544C235.127 211.136 234.951 210.544 234.951 209.768C234.951 208.992 235.127 208.404 235.479 208.004C235.839 207.596 236.355 207.392 237.027 207.392C237.707 207.392 238.223 207.596 238.575 208.004C238.935 208.404 239.115 208.992 239.115 209.768C239.115 210.544 238.935 211.136 238.575 211.544C238.223 211.944 237.707 212.144 237.027 212.144ZM237.027 211.232C237.523 211.232 237.771 210.852 237.771 210.092V209.444C237.771 208.684 237.523 208.304 237.027 208.304C236.531 208.304 236.283 208.684 236.283 209.444V210.092C236.283 210.852 236.531 211.232 237.027 211.232Z" fill="#41637D"/>
<path d="M253.58 212V210.716H255.884V204.764H255.776L253.952 206.924L252.968 206.096L255.044 203.624H257.432V210.716H259.352V212H253.58ZM263.284 212.144C262.748 212.144 262.284 212.048 261.892 211.856C261.5 211.656 261.176 211.372 260.92 211.004C260.664 210.636 260.472 210.184 260.344 209.648C260.224 209.112 260.164 208.5 260.164 207.812C260.164 207.132 260.224 206.524 260.344 205.988C260.472 205.444 260.664 204.988 260.92 204.62C261.176 204.252 261.5 203.972 261.892 203.78C262.284 203.58 262.748 203.48 263.284 203.48C264.348 203.48 265.132 203.86 265.636 204.62C266.148 205.38 266.404 206.444 266.404 207.812C266.404 209.18 266.148 210.244 265.636 211.004C265.132 211.764 264.348 212.144 263.284 212.144ZM263.284 210.812C263.82 210.812 264.192 210.612 264.4 210.212C264.616 209.804 264.724 209.256 264.724 208.568V207.056C264.724 206.368 264.616 205.824 264.4 205.424C264.192 205.016 263.82 204.812 263.284 204.812C262.748 204.812 262.372 205.016 262.156 205.424C261.948 205.824 261.844 206.368 261.844 207.056V208.568C261.844 209.256 261.948 209.804 262.156 210.212C262.372 210.612 262.748 210.812 263.284 210.812ZM270.479 212.144C269.943 212.144 269.479 212.048 269.087 211.856C268.695 211.656 268.371 211.372 268.115 211.004C267.859 210.636 267.667 210.184 267.539 209.648C267.419 209.112 267.359 208.5 267.359 207.812C267.359 207.132 267.419 206.524 267.539 205.988C267.667 205.444 267.859 204.988 268.115 204.62C268.371 204.252 268.695 203.972 269.087 203.78C269.479 203.58 269.943 203.48 270.479 203.48C271.543 203.48 272.327 203.86 272.831 204.62C273.343 205.38 273.599 206.444 273.599 207.812C273.599 209.18 273.343 210.244 272.831 211.004C272.327 211.764 271.543 212.144 270.479 212.144ZM270.479 210.812C271.015 210.812 271.387 210.612 271.595 210.212C271.811 209.804 271.919 209.256 271.919 208.568V207.056C271.919 206.368 271.811 205.824 271.595 205.424C271.387 205.016 271.015 204.812 270.479 204.812C269.943 204.812 269.567 205.016 269.351 205.424C269.143 205.824 269.039 206.368 269.039 207.056V208.568C269.039 209.256 269.143 209.804 269.351 210.212C269.567 210.612 269.943 210.812 270.479 210.812ZM276.234 212L282.042 203.624H283.434L277.626 212H276.234ZM276.81 208.232C276.13 208.232 275.61 208.032 275.25 207.632C274.898 207.224 274.722 206.632 274.722 205.856C274.722 205.08 274.898 204.492 275.25 204.092C275.61 203.684 276.13 203.48 276.81 203.48C277.49 203.48 278.006 203.684 278.358 204.092C278.71 204.492 278.886 205.08 278.886 205.856C278.886 206.632 278.71 207.224 278.358 207.632C278.006 208.032 277.49 208.232 276.81 208.232ZM276.81 207.32C277.306 207.32 277.554 206.94 277.554 206.18V205.532C277.554 204.772 277.306 204.392 276.81 204.392C276.314 204.392 276.066 204.772 276.066 205.532V206.18C276.066 206.94 276.314 207.32 276.81 207.32ZM282.858 212.144C282.186 212.144 281.67 211.944 281.31 211.544C280.958 211.136 280.782 210.544 280.782 209.768C280.782 208.992 280.958 208.404 281.31 208.004C281.67 207.596 282.186 207.392 282.858 207.392C283.538 207.392 284.054 207.596 284.406 208.004C284.766 208.404 284.946 208.992 284.946 209.768C284.946 210.544 284.766 211.136 284.406 211.544C284.054 211.944 283.538 212.144 282.858 212.144ZM282.858 211.232C283.354 211.232 283.602 210.852 283.602 210.092V209.444C283.602 208.684 283.354 208.304 282.858 208.304C282.362 208.304 282.114 208.684 282.114 209.444V210.092C282.114 210.852 282.362 211.232 282.858 211.232Z" fill="#41637D"/>
<line opacity="0.2" x1="194.115" y1="1.64788e-08" x2="194.115" y2="190" stroke="#41637D" stroke-width="0.839895"/>
<line opacity="0.2" x1="236.11" y1="1.64788e-08" x2="236.11" y2="190" stroke="#41637D" stroke-width="0.839895"/>
<line opacity="0.2" x1="202.515" y1="1.64788e-08" x2="202.515" y2="190" stroke="#41637D" stroke-width="0.839895"/>
<line opacity="0.2" x1="244.509" y1="1.64788e-08" x2="244.509" y2="190" stroke="#41637D" stroke-width="0.839895"/>
<line opacity="0.2" x1="210.913" y1="1.64788e-08" x2="210.913" y2="190" stroke="#41637D" stroke-width="0.839895"/>
<line opacity="0.2" x1="252.908" y1="1.64788e-08" x2="252.908" y2="190" stroke="#41637D" stroke-width="0.839895"/>
<line opacity="0.2" x1="219.313" y1="1.64788e-08" x2="219.313" y2="190" stroke="#41637D" stroke-width="0.839895"/>
<line opacity="0.2" x1="261.307" y1="1.64788e-08" x2="261.307" y2="190" stroke="#41637D" stroke-width="0.839895"/>
<rect x="185.296" width="83.9895" height="16.7979" fill="#EDEDED"/>
<rect x="185.243" width="28" height="17" fill="#39A4F5"/>
<rect x="186.243" width="12" height="17" fill="#1084DD"/>
<path d="M21.1686 4.624H24.2166C24.7606 4.624 25.2526 4.712 25.6926 4.888C26.1406 5.064 26.5206 5.328 26.8326 5.68C27.1526 6.024 27.3966 6.46 27.5646 6.988C27.7406 7.508 27.8286 8.116 27.8286 8.812C27.8286 9.508 27.7406 10.12 27.5646 10.648C27.3966 11.168 27.1526 11.604 26.8326 11.956C26.5206 12.3 26.1406 12.56 25.6926 12.736C25.2526 12.912 24.7606 13 24.2166 13H21.1686V4.624ZM24.2166 11.596C24.8086 11.596 25.2766 11.424 25.6206 11.08C25.9726 10.728 26.1486 10.192 26.1486 9.472V8.152C26.1486 7.432 25.9726 6.9 25.6206 6.556C25.2766 6.204 24.8086 6.028 24.2166 6.028H22.7526V11.596H24.2166ZM29.442 13V4.624H34.962V6.028H31.026V8.056H34.506V9.46H31.026V11.596H34.962V13H29.442ZM39.2413 13.144C38.5213 13.144 37.9093 13.016 37.4053 12.76C36.9093 12.504 36.4813 12.168 36.1213 11.752L37.1893 10.72C37.4773 11.056 37.7973 11.312 38.1493 11.488C38.5093 11.664 38.9053 11.752 39.3373 11.752C39.8253 11.752 40.1933 11.648 40.4413 11.44C40.6893 11.224 40.8133 10.936 40.8133 10.576C40.8133 10.296 40.7333 10.068 40.5733 9.892C40.4133 9.716 40.1133 9.588 39.6733 9.508L38.8813 9.388C37.2093 9.124 36.3733 8.312 36.3733 6.952C36.3733 6.576 36.4413 6.236 36.5773 5.932C36.7213 5.628 36.9253 5.368 37.1893 5.152C37.4533 4.936 37.7693 4.772 38.1373 4.66C38.5133 4.54 38.9373 4.48 39.4093 4.48C40.0413 4.48 40.5933 4.584 41.0653 4.792C41.5373 5 41.9413 5.308 42.2773 5.716L41.1973 6.736C40.9893 6.48 40.7373 6.272 40.4413 6.112C40.1453 5.952 39.7733 5.872 39.3253 5.872C38.8693 5.872 38.5253 5.96 38.2933 6.136C38.0693 6.304 37.9573 6.544 37.9573 6.856C37.9573 7.176 38.0493 7.412 38.2333 7.564C38.4173 7.716 38.7133 7.828 39.1213 7.9L39.9013 8.044C40.7493 8.196 41.3733 8.468 41.7733 8.86C42.1813 9.244 42.3853 9.784 42.3853 10.48C42.3853 10.88 42.3133 11.244 42.1693 11.572C42.0333 11.892 41.8293 12.172 41.5573 12.412C41.2933 12.644 40.9653 12.824 40.5733 12.952C40.1893 13.08 39.7453 13.144 39.2413 13.144ZM43.6253 13V11.728H44.7293V5.896H43.6253V4.624H47.4293V5.896H46.3133V11.728H47.4293V13H43.6253ZM54.3875 11.704H54.3395C54.2675 12.112 54.0395 12.456 53.6555 12.736C53.2795 13.008 52.7755 13.144 52.1435 13.144C51.6475 13.144 51.1875 13.052 50.7635 12.868C50.3475 12.684 49.9835 12.412 49.6715 12.052C49.3675 11.684 49.1275 11.232 48.9515 10.696C48.7755 10.16 48.6875 9.54 48.6875 8.836C48.6875 8.132 48.7755 7.512 48.9515 6.976C49.1355 6.432 49.3915 5.976 49.7195 5.608C50.0475 5.24 50.4395 4.96 50.8955 4.768C51.3515 4.576 51.8595 4.48 52.4195 4.48C53.1715 4.48 53.8115 4.644 54.3395 4.972C54.8675 5.3 55.2835 5.772 55.5875 6.388L54.3035 7.144C54.1515 6.784 53.9235 6.484 53.6195 6.244C53.3235 6.004 52.9235 5.884 52.4195 5.884C51.7955 5.884 51.2955 6.076 50.9195 6.46C50.5515 6.836 50.3675 7.396 50.3675 8.14V9.484C50.3675 10.22 50.5555 10.78 50.9315 11.164C51.3075 11.548 51.8115 11.74 52.4435 11.74C52.6915 11.74 52.9235 11.712 53.1395 11.656C53.3555 11.592 53.5435 11.5 53.7035 11.38C53.8635 11.26 53.9915 11.112 54.0875 10.936C54.1835 10.76 54.2315 10.552 54.2315 10.312V9.772H52.5875V8.44H55.7555V13H54.3875V11.704ZM59.9904 8.704L59.1264 6.964H59.0904V13H57.5904V4.624H59.3304L61.8504 8.92L62.7144 10.66H62.7504V4.624H64.2504V13H62.5104L59.9904 8.704ZM69.0514 4.624H72.0994C72.6434 4.624 73.1354 4.712 73.5754 4.888C74.0234 5.064 74.4034 5.328 74.7154 5.68C75.0354 6.024 75.2794 6.46 75.4474 6.988C75.6234 7.508 75.7114 8.116 75.7114 8.812C75.7114 9.508 75.6234 10.12 75.4474 10.648C75.2794 11.168 75.0354 11.604 74.7154 11.956C74.4034 12.3 74.0234 12.56 73.5754 12.736C73.1354 12.912 72.6434 13 72.0994 13H69.0514V4.624ZM72.0994 11.596C72.6914 11.596 73.1594 11.424 73.5034 11.08C73.8554 10.728 74.0314 10.192 74.0314 9.472V8.152C74.0314 7.432 73.8554 6.9 73.5034 6.556C73.1594 6.204 72.6914 6.028 72.0994 6.028H70.6354V11.596H72.0994ZM78.8248 4.624V9.772C78.8248 10.428 78.9488 10.92 79.1968 11.248C79.4528 11.576 79.8808 11.74 80.4808 11.74C81.0808 11.74 81.5048 11.576 81.7528 11.248C82.0088 10.92 82.1368 10.428 82.1368 9.772V4.624H83.6968V9.568C83.6968 10.184 83.6368 10.716 83.5168 11.164C83.4048 11.612 83.2208 11.984 82.9648 12.28C82.7088 12.576 82.3728 12.796 81.9568 12.94C81.5488 13.076 81.0528 13.144 80.4688 13.144C79.8768 13.144 79.3768 13.076 78.9688 12.94C78.5688 12.796 78.2408 12.576 77.9848 12.28C77.7288 11.984 77.5448 11.612 77.4328 11.164C77.3208 10.716 77.2648 10.184 77.2648 9.568V4.624H78.8248ZM88.4459 13V4.624H92.2139C92.5979 4.624 92.9419 4.688 93.2459 4.816C93.5579 4.936 93.8219 5.112 94.0379 5.344C94.2539 5.568 94.4179 5.84 94.5299 6.16C94.6419 6.48 94.6979 6.832 94.6979 7.216C94.6979 7.608 94.6419 7.964 94.5299 8.284C94.4179 8.596 94.2539 8.868 94.0379 9.1C93.8219 9.324 93.5579 9.5 93.2459 9.628C92.9419 9.748 92.5979 9.808 92.2139 9.808H90.0299V13H88.4459ZM90.0299 8.44H92.0699C92.3739 8.44 92.6139 8.36 92.7899 8.2C92.9659 8.032 93.0539 7.796 93.0539 7.492V6.94C93.0539 6.636 92.9659 6.404 92.7899 6.244C92.6139 6.084 92.3739 6.004 92.0699 6.004H90.0299V8.44ZM97.7174 13H96.1334V4.624H99.9134C100.297 4.624 100.641 4.684 100.945 4.804C101.249 4.924 101.505 5.1 101.713 5.332C101.929 5.556 102.093 5.828 102.205 6.148C102.325 6.468 102.385 6.824 102.385 7.216C102.385 7.792 102.253 8.288 101.989 8.704C101.733 9.12 101.345 9.416 100.825 9.592L102.541 13H100.777L99.2174 9.772H97.7174V13ZM99.7574 8.44C100.061 8.44 100.301 8.36 100.477 8.2C100.653 8.032 100.741 7.796 100.741 7.492V6.94C100.741 6.636 100.653 6.404 100.477 6.244C100.301 6.084 100.061 6.004 99.7574 6.004H97.7174V8.44H99.7574ZM107.273 13.144C106.721 13.144 106.221 13.052 105.773 12.868C105.325 12.684 104.941 12.408 104.621 12.04C104.309 11.672 104.065 11.22 103.889 10.684C103.713 10.148 103.625 9.524 103.625 8.812C103.625 8.108 103.713 7.488 103.889 6.952C104.065 6.408 104.309 5.952 104.621 5.584C104.941 5.216 105.325 4.94 105.773 4.756C106.221 4.572 106.721 4.48 107.273 4.48C107.825 4.48 108.325 4.572 108.773 4.756C109.221 4.94 109.605 5.216 109.925 5.584C110.245 5.952 110.489 6.408 110.657 6.952C110.833 7.488 110.921 8.108 110.921 8.812C110.921 9.524 110.833 10.148 110.657 10.684C110.489 11.22 110.245 11.672 109.925 12.04C109.605 12.408 109.221 12.684 108.773 12.868C108.325 13.052 107.825 13.144 107.273 13.144ZM107.273 11.74C107.873 11.74 108.349 11.54 108.701 11.14C109.061 10.74 109.241 10.18 109.241 9.46V8.164C109.241 7.444 109.061 6.884 108.701 6.484C108.349 6.084 107.873 5.884 107.273 5.884C106.673 5.884 106.193 6.084 105.833 6.484C105.481 6.884 105.305 7.444 105.305 8.164V9.46C105.305 10.18 105.481 10.74 105.833 11.14C106.193 11.54 106.673 11.74 107.273 11.74ZM115.523 6.028V13H113.939V6.028H111.563V4.624H117.899V6.028H115.523ZM122.191 13.144C121.639 13.144 121.139 13.052 120.691 12.868C120.243 12.684 119.859 12.408 119.539 12.04C119.227 11.672 118.983 11.22 118.807 10.684C118.631 10.148 118.543 9.524 118.543 8.812C118.543 8.108 118.631 7.488 118.807 6.952C118.983 6.408 119.227 5.952 119.539 5.584C119.859 5.216 120.243 4.94 120.691 4.756C121.139 4.572 121.639 4.48 122.191 4.48C122.743 4.48 123.243 4.572 123.691 4.756C124.139 4.94 124.523 5.216 124.843 5.584C125.163 5.952 125.407 6.408 125.575 6.952C125.751 7.488 125.839 8.108 125.839 8.812C125.839 9.524 125.751 10.148 125.575 10.684C125.407 11.22 125.163 11.672 124.843 12.04C124.523 12.408 124.139 12.684 123.691 12.868C123.243 13.052 122.743 13.144 122.191 13.144ZM122.191 11.74C122.791 11.74 123.267 11.54 123.619 11.14C123.979 10.74 124.159 10.18 124.159 9.46V8.164C124.159 7.444 123.979 6.884 123.619 6.484C123.267 6.084 122.791 5.884 122.191 5.884C121.591 5.884 121.111 6.084 120.751 6.484C120.399 6.884 120.223 7.444 120.223 8.164V9.46C120.223 10.18 120.399 10.74 120.751 11.14C121.111 11.54 121.591 11.74 122.191 11.74ZM130.698 13.144C130.146 13.144 129.646 13.056 129.198 12.88C128.758 12.696 128.378 12.424 128.058 12.064C127.746 11.704 127.506 11.26 127.338 10.732C127.17 10.196 127.086 9.576 127.086 8.872C127.086 8.168 127.17 7.544 127.338 7C127.506 6.448 127.746 5.988 128.058 5.62C128.378 5.244 128.758 4.96 129.198 4.768C129.646 4.576 130.146 4.48 130.698 4.48C131.45 4.48 132.074 4.64 132.57 4.96C133.066 5.28 133.462 5.764 133.758 6.412L132.402 7.132C132.282 6.756 132.086 6.456 131.814 6.232C131.542 6 131.17 5.884 130.698 5.884C130.106 5.884 129.634 6.084 129.282 6.484C128.938 6.884 128.766 7.444 128.766 8.164V9.484C128.766 10.212 128.938 10.772 129.282 11.164C129.634 11.548 130.106 11.74 130.698 11.74C131.17 11.74 131.554 11.612 131.85 11.356C132.154 11.1 132.374 10.784 132.51 10.408L133.794 11.164C133.49 11.788 133.086 12.276 132.582 12.628C132.078 12.972 131.45 13.144 130.698 13.144ZM138.281 13.144C137.729 13.144 137.229 13.052 136.781 12.868C136.333 12.684 135.949 12.408 135.629 12.04C135.317 11.672 135.073 11.22 134.897 10.684C134.721 10.148 134.633 9.524 134.633 8.812C134.633 8.108 134.721 7.488 134.897 6.952C135.073 6.408 135.317 5.952 135.629 5.584C135.949 5.216 136.333 4.94 136.781 4.756C137.229 4.572 137.729 4.48 138.281 4.48C138.833 4.48 139.333 4.572 139.781 4.756C140.229 4.94 140.613 5.216 140.933 5.584C141.253 5.952 141.497 6.408 141.665 6.952C141.841 7.488 141.929 8.108 141.929 8.812C141.929 9.524 141.841 10.148 141.665 10.684C141.497 11.22 141.253 11.672 140.933 12.04C140.613 12.408 140.229 12.684 139.781 12.868C139.333 13.052 138.833 13.144 138.281 13.144ZM138.281 11.74C138.881 11.74 139.357 11.54 139.709 11.14C140.069 10.74 140.249 10.18 140.249 9.46V8.164C140.249 7.444 140.069 6.884 139.709 6.484C139.357 6.084 138.881 5.884 138.281 5.884C137.681 5.884 137.201 6.084 136.841 6.484C136.489 6.884 136.313 7.444 136.313 8.164V9.46C136.313 10.18 136.489 10.74 136.841 11.14C137.201 11.54 137.681 11.74 138.281 11.74ZM143.536 13V4.624H145.12V11.596H148.42V13H143.536ZM149.794 13V4.624H155.314V6.028H151.378V8.056H154.858V9.46H151.378V11.596H155.314V13H149.794ZM156.065 14.812L159.509 4.12H160.793L157.349 14.812H156.065ZM77.1901 29.144C76.6381 29.144 76.1381 29.056 75.6901 28.88C75.2501 28.696 74.8701 28.424 74.5501 28.064C74.2381 27.704 73.9981 27.26 73.8301 26.732C73.6621 26.196 73.5781 25.576 73.5781 24.872C73.5781 24.168 73.6621 23.544 73.8301 23C73.9981 22.448 74.2381 21.988 74.5501 21.62C74.8701 21.244 75.2501 20.96 75.6901 20.768C76.1381 20.576 76.6381 20.48 77.1901 20.48C77.9421 20.48 78.5661 20.64 79.0621 20.96C79.5581 21.28 79.9541 21.764 80.2501 22.412L78.8941 23.132C78.7741 22.756 78.5781 22.456 78.3061 22.232C78.0341 22 77.6621 21.884 77.1901 21.884C76.5981 21.884 76.1261 22.084 75.7741 22.484C75.4301 22.884 75.2581 23.444 75.2581 24.164V25.484C75.2581 26.212 75.4301 26.772 75.7741 27.164C76.1261 27.548 76.5981 27.74 77.1901 27.74C77.6621 27.74 78.0461 27.612 78.3421 27.356C78.6461 27.1 78.8661 26.784 79.0021 26.408L80.2861 27.164C79.9821 27.788 79.5781 28.276 79.0741 28.628C78.5701 28.972 77.9421 29.144 77.1901 29.144ZM86.7133 25.46H83.2213V29H81.6373V20.624H83.2213V24.056H86.7133V20.624H88.2973V29H86.7133V25.46ZM93.5503 29.144C92.9983 29.144 92.4983 29.052 92.0503 28.868C91.6023 28.684 91.2183 28.408 90.8983 28.04C90.5863 27.672 90.3423 27.22 90.1663 26.684C89.9903 26.148 89.9023 25.524 89.9023 24.812C89.9023 24.108 89.9903 23.488 90.1663 22.952C90.3423 22.408 90.5863 21.952 90.8983 21.584C91.2183 21.216 91.6023 20.94 92.0503 20.756C92.4983 20.572 92.9983 20.48 93.5503 20.48C94.1023 20.48 94.6023 20.572 95.0503 20.756C95.4983 20.94 95.8823 21.216 96.2023 21.584C96.5223 21.952 96.7663 22.408 96.9343 22.952C97.1103 23.488 97.1983 24.108 97.1983 24.812C97.1983 25.524 97.1103 26.148 96.9343 26.684C96.7663 27.22 96.5223 27.672 96.2023 28.04C95.8823 28.408 95.4983 28.684 95.0503 28.868C94.6023 29.052 94.1023 29.144 93.5503 29.144ZM93.5503 27.74C94.1503 27.74 94.6263 27.54 94.9783 27.14C95.3383 26.74 95.5183 26.18 95.5183 25.46V24.164C95.5183 23.444 95.3383 22.884 94.9783 22.484C94.6263 22.084 94.1503 21.884 93.5503 21.884C92.9503 21.884 92.4703 22.084 92.1103 22.484C91.7583 22.884 91.5823 23.444 91.5823 24.164V25.46C91.5823 26.18 91.7583 26.74 92.1103 27.14C92.4703 27.54 92.9503 27.74 93.5503 27.74ZM98.4573 29V27.728H99.5613V21.896H98.4573V20.624H102.261V21.896H101.145V27.728H102.261V29H98.4573ZM110.54 29H108.692L106.772 25.784H106.736L104.84 29H103.112L105.824 24.704L103.232 20.624H105.08L106.856 23.6H106.892L108.692 20.624H110.42L107.804 24.704L110.54 29ZM117.867 22.028V29H116.283V22.028H113.907V20.624H120.243V22.028H117.867ZM121.54 29V20.624H127.06V22.028H123.124V24.056H126.604V25.46H123.124V27.596H127.06V29H121.54ZM131.987 29.144C131.435 29.144 130.935 29.056 130.487 28.88C130.047 28.696 129.667 28.424 129.347 28.064C129.035 27.704 128.795 27.26 128.627 26.732C128.459 26.196 128.375 25.576 128.375 24.872C128.375 24.168 128.459 23.544 128.627 23C128.795 22.448 129.035 21.988 129.347 21.62C129.667 21.244 130.047 20.96 130.487 20.768C130.935 20.576 131.435 20.48 131.987 20.48C132.739 20.48 133.363 20.64 133.859 20.96C134.355 21.28 134.751 21.764 135.047 22.412L133.691 23.132C133.571 22.756 133.375 22.456 133.103 22.232C132.831 22 132.459 21.884 131.987 21.884C131.395 21.884 130.923 22.084 130.571 22.484C130.227 22.884 130.055 23.444 130.055 24.164V25.484C130.055 26.212 130.227 26.772 130.571 27.164C130.923 27.548 131.395 27.74 131.987 27.74C132.459 27.74 132.843 27.612 133.139 27.356C133.443 27.1 133.663 26.784 133.799 26.408L135.083 27.164C134.779 27.788 134.375 28.276 133.871 28.628C133.367 28.972 132.739 29.144 131.987 29.144ZM141.51 25.46H138.018V29H136.434V20.624H138.018V24.056H141.51V20.624H143.094V29H141.51V25.46ZM147.459 24.704L146.595 22.964H146.559V29H145.059V20.624H146.799L149.319 24.92L150.183 26.66H150.219V20.624H151.719V29H149.979L147.459 24.704ZM156.972 29.144C156.42 29.144 155.92 29.052 155.472 28.868C155.024 28.684 154.64 28.408 154.32 28.04C154.008 27.672 153.764 27.22 153.588 26.684C153.412 26.148 153.324 25.524 153.324 24.812C153.324 24.108 153.412 23.488 153.588 22.952C153.764 22.408 154.008 21.952 154.32 21.584C154.64 21.216 155.024 20.94 155.472 20.756C155.92 20.572 156.42 20.48 156.972 20.48C157.524 20.48 158.024 20.572 158.472 20.756C158.92 20.94 159.304 21.216 159.624 21.584C159.944 21.952 160.188 22.408 160.356 22.952C160.532 23.488 160.62 24.108 160.62 24.812C160.62 25.524 160.532 26.148 160.356 26.684C160.188 27.22 159.944 27.672 159.624 28.04C159.304 28.408 158.92 28.684 158.472 28.868C158.024 29.052 157.524 29.144 156.972 29.144ZM156.972 27.74C157.572 27.74 158.048 27.54 158.4 27.14C158.76 26.74 158.94 26.18 158.94 25.46V24.164C158.94 23.444 158.76 22.884 158.4 22.484C158.048 22.084 157.572 21.884 156.972 21.884C156.372 21.884 155.892 22.084 155.532 22.484C155.18 22.884 155.004 23.444 155.004 24.164V25.46C155.004 26.18 155.18 26.74 155.532 27.14C155.892 27.54 156.372 27.74 156.972 27.74Z" fill="#41637D"/>
<rect x="185.296" y="41.9995" width="83.9895" height="16.7979" fill="#EDEDED"/>
<rect x="185.243" y="41.9995" width="20" height="17" fill="#39A4F5"/>
<rect x="185.243" y="41.9995" width="11" height="17" fill="#1084DD"/>
<path d="M42.9303 47V38.624H48.4503V40.028H44.5143V42.056H47.9943V43.46H44.5143V45.596H48.4503V47H42.9303ZM56.7856 47H54.9376L53.0176 43.784H52.9816L51.0856 47H49.3576L52.0696 42.704L49.4776 38.624H51.3256L53.1016 41.6H53.1376L54.9376 38.624H56.6656L54.0496 42.704L56.7856 47ZM61.2769 40.028V47H59.6929V40.028H57.3169V38.624H63.6529V40.028H61.2769ZM66.5338 47H64.9498V38.624H68.7298C69.1138 38.624 69.4578 38.684 69.7618 38.804C70.0658 38.924 70.3218 39.1 70.5298 39.332C70.7458 39.556 70.9098 39.828 71.0218 40.148C71.1418 40.468 71.2018 40.824 71.2018 41.216C71.2018 41.792 71.0698 42.288 70.8058 42.704C70.5498 43.12 70.1618 43.416 69.6418 43.592L71.3578 47H69.5938L68.0338 43.772H66.5338V47ZM68.5738 42.44C68.8778 42.44 69.1178 42.36 69.2938 42.2C69.4698 42.032 69.5578 41.796 69.5578 41.492V40.94C69.5578 40.636 69.4698 40.404 69.2938 40.244C69.1178 40.084 68.8778 40.004 68.5738 40.004H66.5338V42.44H68.5738ZM78.1026 47L77.4306 44.864H74.4546L73.7946 47H72.1866L74.9946 38.624H76.9626L79.7466 47H78.1026ZM75.9666 40.064H75.9066L74.8386 43.508H77.0466L75.9666 40.064ZM80.6331 47V45.728H81.7371V39.896H80.6331V38.624H84.4371V39.896H83.3211V45.728H84.4371V47H80.6331ZM89.2847 40.028V47H87.7007V40.028H85.3247V38.624H91.6607V40.028H89.2847ZM95.7936 47V38.624H97.3776V45.596H100.678V47H95.7936ZM107.446 47L106.774 44.864H103.798L103.138 47H101.53L104.338 38.624H106.306L109.09 47H107.446ZM105.31 40.064H105.25L104.182 43.508H106.39L105.31 40.064ZM110.325 38.624H114.201C114.545 38.624 114.853 38.676 115.125 38.78C115.405 38.884 115.641 39.028 115.833 39.212C116.025 39.396 116.169 39.624 116.265 39.896C116.369 40.16 116.421 40.452 116.421 40.772C116.421 41.092 116.377 41.364 116.289 41.588C116.209 41.804 116.097 41.984 115.953 42.128C115.817 42.272 115.657 42.38 115.473 42.452C115.297 42.524 115.113 42.564 114.921 42.572V42.644C115.105 42.644 115.301 42.68 115.509 42.752C115.725 42.824 115.921 42.94 116.097 43.1C116.281 43.252 116.433 43.452 116.553 43.7C116.673 43.94 116.733 44.24 116.733 44.6C116.733 44.936 116.677 45.252 116.565 45.548C116.461 45.836 116.313 46.088 116.121 46.304C115.929 46.52 115.701 46.692 115.437 46.82C115.173 46.94 114.885 47 114.573 47H110.325V38.624ZM111.909 45.656H114.117C114.421 45.656 114.657 45.58 114.825 45.428C114.993 45.268 115.077 45.04 115.077 44.744V44.336C115.077 44.04 114.993 43.812 114.825 43.652C114.657 43.492 114.421 43.412 114.117 43.412H111.909V45.656ZM111.909 42.116H113.865C114.153 42.116 114.377 42.04 114.537 41.888C114.697 41.728 114.777 41.508 114.777 41.228V40.856C114.777 40.576 114.697 40.36 114.537 40.208C114.377 40.048 114.153 39.968 113.865 39.968H111.909V42.116ZM121.57 47.144C121.018 47.144 120.518 47.052 120.07 46.868C119.622 46.684 119.238 46.408 118.918 46.04C118.606 45.672 118.362 45.22 118.186 44.684C118.01 44.148 117.922 43.524 117.922 42.812C117.922 42.108 118.01 41.488 118.186 40.952C118.362 40.408 118.606 39.952 118.918 39.584C119.238 39.216 119.622 38.94 120.07 38.756C120.518 38.572 121.018 38.48 121.57 38.48C122.122 38.48 122.622 38.572 123.07 38.756C123.518 38.94 123.902 39.216 124.222 39.584C124.542 39.952 124.786 40.408 124.954 40.952C125.13 41.488 125.218 42.108 125.218 42.812C125.218 43.524 125.13 44.148 124.954 44.684C124.786 45.22 124.542 45.672 124.222 46.04C123.902 46.408 123.518 46.684 123.07 46.868C122.622 47.052 122.122 47.144 121.57 47.144ZM121.57 45.74C122.17 45.74 122.646 45.54 122.998 45.14C123.358 44.74 123.538 44.18 123.538 43.46V42.164C123.538 41.444 123.358 40.884 122.998 40.484C122.646 40.084 122.17 39.884 121.57 39.884C120.97 39.884 120.49 40.084 120.13 40.484C119.778 40.884 119.602 41.444 119.602 42.164V43.46C119.602 44.18 119.778 44.74 120.13 45.14C120.49 45.54 120.97 45.74 121.57 45.74ZM128.737 48.812L132.181 38.12H133.465L130.021 48.812H128.737ZM139.319 47H137.735V38.624H141.515C141.899 38.624 142.243 38.684 142.547 38.804C142.851 38.924 143.107 39.1 143.315 39.332C143.531 39.556 143.695 39.828 143.807 40.148C143.927 40.468 143.987 40.824 143.987 41.216C143.987 41.792 143.855 42.288 143.591 42.704C143.335 43.12 142.947 43.416 142.427 43.592L144.143 47H142.379L140.819 43.772H139.319V47ZM141.359 42.44C141.663 42.44 141.903 42.36 142.079 42.2C142.255 42.032 142.343 41.796 142.343 41.492V40.94C142.343 40.636 142.255 40.404 142.079 40.244C141.903 40.084 141.663 40.004 141.359 40.004H139.319V42.44H141.359ZM150.271 46.232C150.151 46.336 150.015 46.444 149.863 46.556C149.711 46.66 149.535 46.756 149.335 46.844C149.143 46.932 148.923 47.004 148.675 47.06C148.435 47.116 148.163 47.144 147.859 47.144C147.411 47.144 147.011 47.084 146.659 46.964C146.315 46.844 146.027 46.68 145.795 46.472C145.563 46.264 145.387 46.02 145.267 45.74C145.147 45.452 145.087 45.144 145.087 44.816C145.087 44.52 145.131 44.26 145.219 44.036C145.307 43.804 145.427 43.596 145.579 43.412C145.731 43.22 145.911 43.052 146.119 42.908C146.327 42.756 146.547 42.612 146.779 42.476C146.531 42.196 146.311 41.892 146.119 41.564C145.935 41.228 145.843 40.868 145.843 40.484C145.843 40.212 145.899 39.956 146.011 39.716C146.123 39.468 146.283 39.252 146.491 39.068C146.707 38.884 146.963 38.74 147.259 38.636C147.555 38.532 147.887 38.48 148.255 38.48C148.583 38.48 148.887 38.524 149.167 38.612C149.447 38.7 149.687 38.824 149.887 38.984C150.095 39.144 150.255 39.34 150.367 39.572C150.487 39.804 150.547 40.068 150.547 40.364C150.547 40.628 150.499 40.872 150.403 41.096C150.315 41.312 150.191 41.512 150.031 41.696C149.871 41.872 149.687 42.04 149.479 42.2C149.271 42.352 149.047 42.496 148.807 42.632L150.271 44.216C150.383 43.944 150.467 43.656 150.523 43.352C150.587 43.048 150.627 42.744 150.643 42.44H152.527V43.724H151.747C151.627 44.268 151.443 44.764 151.195 45.212L152.851 47H150.967L150.271 46.232ZM148.207 39.668C147.951 39.668 147.739 39.744 147.571 39.896C147.403 40.04 147.319 40.236 147.319 40.484V40.568C147.319 40.752 147.375 40.936 147.487 41.12C147.607 41.296 147.791 41.524 148.039 41.804C148.343 41.62 148.591 41.428 148.783 41.228C148.983 41.028 149.083 40.796 149.083 40.532V40.46C149.083 40.204 148.995 40.008 148.819 39.872C148.651 39.736 148.447 39.668 148.207 39.668ZM148.063 45.86C148.351 45.86 148.611 45.816 148.843 45.728C149.075 45.64 149.279 45.52 149.455 45.368L147.547 43.304C147.267 43.472 147.047 43.652 146.887 43.844C146.735 44.028 146.659 44.264 146.659 44.552V44.684C146.659 45.036 146.779 45.32 147.019 45.536C147.259 45.752 147.607 45.86 148.063 45.86ZM153.954 38.624H157.002C157.546 38.624 158.038 38.712 158.478 38.888C158.926 39.064 159.306 39.328 159.618 39.68C159.938 40.024 160.182 40.46 160.35 40.988C160.526 41.508 160.614 42.116 160.614 42.812C160.614 43.508 160.526 44.12 160.35 44.648C160.182 45.168 159.938 45.604 159.618 45.956C159.306 46.3 158.926 46.56 158.478 46.736C158.038 46.912 157.546 47 157.002 47H153.954V38.624ZM157.002 45.596C157.594 45.596 158.062 45.424 158.406 45.08C158.758 44.728 158.934 44.192 158.934 43.472V42.152C158.934 41.432 158.758 40.9 158.406 40.556C158.062 40.204 157.594 40.028 157.002 40.028H155.538V45.596H157.002ZM44.7836 64.812L48.2276 54.12H49.5116L46.0676 64.812H44.7836ZM53.7819 63V54.624H59.3019V56.028H55.3659V58.056H58.8459V59.46H55.3659V61.596H59.3019V63H53.7819ZM67.6372 63H65.7892L63.8692 59.784H63.8332L61.9372 63H60.2092L62.9212 58.704L60.3292 54.624H62.1772L63.9532 57.6H63.9892L65.7892 54.624H67.5172L64.9012 58.704L67.6372 63ZM72.1284 56.028V63H70.5444V56.028H68.1684V54.624H74.5044V56.028H72.1284ZM77.3854 63H75.8014V54.624H79.5814C79.9654 54.624 80.3094 54.684 80.6134 54.804C80.9174 54.924 81.1734 55.1 81.3814 55.332C81.5974 55.556 81.7614 55.828 81.8734 56.148C81.9934 56.468 82.0534 56.824 82.0534 57.216C82.0534 57.792 81.9214 58.288 81.6574 58.704C81.4014 59.12 81.0134 59.416 80.4934 59.592L82.2094 63H80.4454L78.8854 59.772H77.3854V63ZM79.4254 58.44C79.7294 58.44 79.9694 58.36 80.1454 58.2C80.3214 58.032 80.4094 57.796 80.4094 57.492V56.94C80.4094 56.636 80.3214 56.404 80.1454 56.244C79.9694 56.084 79.7294 56.004 79.4254 56.004H77.3854V58.44H79.4254ZM88.9541 63L88.2821 60.864H85.3061L84.6461 63H83.0381L85.8461 54.624H87.8141L90.5981 63H88.9541ZM86.8181 56.064H86.7581L85.6901 59.508H87.8981L86.8181 56.064ZM94.7682 63.144C94.2162 63.144 93.7162 63.056 93.2682 62.88C92.8282 62.696 92.4482 62.424 92.1282 62.064C91.8162 61.704 91.5762 61.26 91.4082 60.732C91.2402 60.196 91.1562 59.576 91.1562 58.872C91.1562 58.168 91.2402 57.544 91.4082 57C91.5762 56.448 91.8162 55.988 92.1282 55.62C92.4482 55.244 92.8282 54.96 93.2682 54.768C93.7162 54.576 94.2162 54.48 94.7682 54.48C95.5202 54.48 96.1442 54.64 96.6402 54.96C97.1362 55.28 97.5322 55.764 97.8282 56.412L96.4722 57.132C96.3522 56.756 96.1562 56.456 95.8842 56.232C95.6122 56 95.2402 55.884 94.7682 55.884C94.1762 55.884 93.7042 56.084 93.3522 56.484C93.0082 56.884 92.8362 57.444 92.8362 58.164V59.484C92.8362 60.212 93.0082 60.772 93.3522 61.164C93.7042 61.548 94.1762 61.74 94.7682 61.74C95.2402 61.74 95.6242 61.612 95.9202 61.356C96.2242 61.1 96.4442 60.784 96.5802 60.408L97.8642 61.164C97.5602 61.788 97.1562 62.276 96.6522 62.628C96.1482 62.972 95.5202 63.144 94.7682 63.144ZM102.503 56.028V63H100.919V56.028H98.5434V54.624H104.879V56.028H102.503ZM105.77 63V61.728H106.874V55.896H105.77V54.624H109.574V55.896H108.458V61.728H109.574V63H105.77ZM114.48 63.144C113.928 63.144 113.428 63.052 112.98 62.868C112.532 62.684 112.148 62.408 111.828 62.04C111.516 61.672 111.272 61.22 111.096 60.684C110.92 60.148 110.832 59.524 110.832 58.812C110.832 58.108 110.92 57.488 111.096 56.952C111.272 56.408 111.516 55.952 111.828 55.584C112.148 55.216 112.532 54.94 112.98 54.756C113.428 54.572 113.928 54.48 114.48 54.48C115.032 54.48 115.532 54.572 115.98 54.756C116.428 54.94 116.812 55.216 117.132 55.584C117.452 55.952 117.696 56.408 117.864 56.952C118.04 57.488 118.128 58.108 118.128 58.812C118.128 59.524 118.04 60.148 117.864 60.684C117.696 61.22 117.452 61.672 117.132 62.04C116.812 62.408 116.428 62.684 115.98 62.868C115.532 63.052 115.032 63.144 114.48 63.144ZM114.48 61.74C115.08 61.74 115.556 61.54 115.908 61.14C116.268 60.74 116.448 60.18 116.448 59.46V58.164C116.448 57.444 116.268 56.884 115.908 56.484C115.556 56.084 115.08 55.884 114.48 55.884C113.88 55.884 113.4 56.084 113.04 56.484C112.688 56.884 112.512 57.444 112.512 58.164V59.46C112.512 60.18 112.688 60.74 113.04 61.14C113.4 61.54 113.88 61.74 114.48 61.74ZM122.135 58.704L121.271 56.964H121.235V63H119.735V54.624H121.475L123.995 58.92L124.859 60.66H124.895V54.624H126.395V63H124.655L122.135 58.704ZM131.196 63V54.624H132.78V61.596H136.08V63H131.196ZM142.849 63L142.177 60.864H139.201L138.541 63H136.933L139.741 54.624H141.709L144.493 63H142.849ZM140.713 56.064H140.653L139.585 59.508H141.793L140.713 56.064ZM145.727 54.624H149.603C149.947 54.624 150.255 54.676 150.527 54.78C150.807 54.884 151.043 55.028 151.235 55.212C151.427 55.396 151.571 55.624 151.667 55.896C151.771 56.16 151.823 56.452 151.823 56.772C151.823 57.092 151.779 57.364 151.691 57.588C151.611 57.804 151.499 57.984 151.355 58.128C151.219 58.272 151.059 58.38 150.875 58.452C150.699 58.524 150.515 58.564 150.323 58.572V58.644C150.507 58.644 150.703 58.68 150.911 58.752C151.127 58.824 151.323 58.94 151.499 59.1C151.683 59.252 151.835 59.452 151.955 59.7C152.075 59.94 152.135 60.24 152.135 60.6C152.135 60.936 152.079 61.252 151.967 61.548C151.863 61.836 151.715 62.088 151.523 62.304C151.331 62.52 151.103 62.692 150.839 62.82C150.575 62.94 150.287 63 149.975 63H145.727V54.624ZM147.311 61.656H149.519C149.823 61.656 150.059 61.58 150.227 61.428C150.395 61.268 150.479 61.04 150.479 60.744V60.336C150.479 60.04 150.395 59.812 150.227 59.652C150.059 59.492 149.823 59.412 149.519 59.412H147.311V61.656ZM147.311 58.116H149.267C149.555 58.116 149.779 58.04 149.939 57.888C150.099 57.728 150.179 57.508 150.179 57.228V56.856C150.179 56.576 150.099 56.36 149.939 56.208C149.779 56.048 149.555 55.968 149.267 55.968H147.311V58.116ZM156.972 63.144C156.42 63.144 155.92 63.052 155.472 62.868C155.024 62.684 154.64 62.408 154.32 62.04C154.008 61.672 153.764 61.22 153.588 60.684C153.412 60.148 153.324 59.524 153.324 58.812C153.324 58.108 153.412 57.488 153.588 56.952C153.764 56.408 154.008 55.952 154.32 55.584C154.64 55.216 155.024 54.94 155.472 54.756C155.92 54.572 156.42 54.48 156.972 54.48C157.524 54.48 158.024 54.572 158.472 54.756C158.92 54.94 159.304 55.216 159.624 55.584C159.944 55.952 160.188 56.408 160.356 56.952C160.532 57.488 160.62 58.108 160.62 58.812C160.62 59.524 160.532 60.148 160.356 60.684C160.188 61.22 159.944 61.672 159.624 62.04C159.304 62.408 158.92 62.684 158.472 62.868C158.024 63.052 157.524 63.144 156.972 63.144ZM156.972 61.74C157.572 61.74 158.048 61.54 158.4 61.14C158.76 60.74 158.94 60.18 158.94 59.46V58.164C158.94 57.444 158.76 56.884 158.4 56.484C158.048 56.084 157.572 55.884 156.972 55.884C156.372 55.884 155.892 56.084 155.532 56.484C155.18 56.884 155.004 57.444 155.004 58.164V59.46C155.004 60.18 155.18 60.74 155.532 61.14C155.892 61.54 156.372 61.74 156.972 61.74Z" fill="#F6851E"/>
<rect x="185.297" y="82" width="83.9895" height="16.7979" fill="#EDEDED"/>
<rect x="185.297" y="82" width="17.6378" height="16.7979" fill="#39A4F5"/>
<rect x="185.243" y="82" width="9" height="17" fill="#1084DD"/>
<path d="M11.5592 95V86.624H15.3272C15.7112 86.624 16.0552 86.688 16.3592 86.816C16.6712 86.936 16.9352 87.112 17.1512 87.344C17.3672 87.568 17.5312 87.84 17.6432 88.16C17.7552 88.48 17.8112 88.832 17.8112 89.216C17.8112 89.608 17.7552 89.964 17.6432 90.284C17.5312 90.596 17.3672 90.868 17.1512 91.1C16.9352 91.324 16.6712 91.5 16.3592 91.628C16.0552 91.748 15.7112 91.808 15.3272 91.808H13.1432V95H11.5592ZM13.1432 90.44H15.1832C15.4872 90.44 15.7272 90.36 15.9032 90.2C16.0792 90.032 16.1672 89.796 16.1672 89.492V88.94C16.1672 88.636 16.0792 88.404 15.9032 88.244C15.7272 88.084 15.4872 88.004 15.1832 88.004H13.1432V90.44ZM22.5347 95.144C21.9827 95.144 21.4827 95.052 21.0347 94.868C20.5867 94.684 20.2027 94.408 19.8827 94.04C19.5707 93.672 19.3267 93.22 19.1507 92.684C18.9747 92.148 18.8867 91.524 18.8867 90.812C18.8867 90.108 18.9747 89.488 19.1507 88.952C19.3267 88.408 19.5707 87.952 19.8827 87.584C20.2027 87.216 20.5867 86.94 21.0347 86.756C21.4827 86.572 21.9827 86.48 22.5347 86.48C23.0867 86.48 23.5867 86.572 24.0347 86.756C24.4827 86.94 24.8667 87.216 25.1867 87.584C25.5067 87.952 25.7507 88.408 25.9187 88.952C26.0947 89.488 26.1827 90.108 26.1827 90.812C26.1827 91.524 26.0947 92.148 25.9187 92.684C25.7507 93.22 25.5067 93.672 25.1867 94.04C24.8667 94.408 24.4827 94.684 24.0347 94.868C23.5867 95.052 23.0867 95.144 22.5347 95.144ZM22.5347 93.74C23.1347 93.74 23.6107 93.54 23.9627 93.14C24.3227 92.74 24.5027 92.18 24.5027 91.46V90.164C24.5027 89.444 24.3227 88.884 23.9627 88.484C23.6107 88.084 23.1347 87.884 22.5347 87.884C21.9347 87.884 21.4547 88.084 21.0947 88.484C20.7427 88.884 20.5667 89.444 20.5667 90.164V91.46C20.5667 92.18 20.7427 92.74 21.0947 93.14C21.4547 93.54 21.9347 93.74 22.5347 93.74ZM30.3585 95.144C29.6385 95.144 29.0265 95.016 28.5225 94.76C28.0265 94.504 27.5985 94.168 27.2385 93.752L28.3065 92.72C28.5945 93.056 28.9145 93.312 29.2665 93.488C29.6265 93.664 30.0225 93.752 30.4545 93.752C30.9425 93.752 31.3105 93.648 31.5585 93.44C31.8065 93.224 31.9305 92.936 31.9305 92.576C31.9305 92.296 31.8505 92.068 31.6905 91.892C31.5305 91.716 31.2305 91.588 30.7905 91.508L29.9985 91.388C28.3265 91.124 27.4905 90.312 27.4905 88.952C27.4905 88.576 27.5585 88.236 27.6945 87.932C27.8385 87.628 28.0425 87.368 28.3065 87.152C28.5705 86.936 28.8865 86.772 29.2545 86.66C29.6305 86.54 30.0545 86.48 30.5265 86.48C31.1585 86.48 31.7105 86.584 32.1825 86.792C32.6545 87 33.0585 87.308 33.3945 87.716L32.3145 88.736C32.1065 88.48 31.8545 88.272 31.5585 88.112C31.2625 87.952 30.8905 87.872 30.4425 87.872C29.9865 87.872 29.6425 87.96 29.4105 88.136C29.1865 88.304 29.0745 88.544 29.0745 88.856C29.0745 89.176 29.1665 89.412 29.3505 89.564C29.5345 89.716 29.8305 89.828 30.2385 89.9L31.0185 90.044C31.8665 90.196 32.4905 90.468 32.8905 90.86C33.2985 91.244 33.5025 91.784 33.5025 92.48C33.5025 92.88 33.4305 93.244 33.2865 93.572C33.1505 93.892 32.9465 94.172 32.6745 94.412C32.4105 94.644 32.0825 94.824 31.6905 94.952C31.3065 95.08 30.8625 95.144 30.3585 95.144ZM38.1441 88.028V95H36.5601V88.028H34.1841V86.624H40.5201V88.028H38.1441ZM40.9782 92.108V90.584H44.4102V92.108H40.9782ZM48.8316 88.028V95H47.2476V88.028H44.8716V86.624H51.2076V88.028H48.8316ZM54.0885 95H52.5045V86.624H56.2845C56.6685 86.624 57.0125 86.684 57.3165 86.804C57.6205 86.924 57.8765 87.1 58.0845 87.332C58.3005 87.556 58.4645 87.828 58.5765 88.148C58.6965 88.468 58.7565 88.824 58.7565 89.216C58.7565 89.792 58.6245 90.288 58.3605 90.704C58.1045 91.12 57.7165 91.416 57.1965 91.592L58.9125 95H57.1485L55.5885 91.772H54.0885V95ZM56.1285 90.44C56.4325 90.44 56.6725 90.36 56.8485 90.2C57.0245 90.032 57.1125 89.796 57.1125 89.492V88.94C57.1125 88.636 57.0245 88.404 56.8485 88.244C56.6725 88.084 56.4325 88.004 56.1285 88.004H54.0885V90.44H56.1285ZM65.6573 95L64.9853 92.864H62.0093L61.3493 95H59.7413L62.5493 86.624H64.5173L67.3013 95H65.6573ZM63.5213 88.064H63.4613L62.3933 91.508H64.6013L63.5213 88.064ZM68.1878 95V93.728H69.2918V87.896H68.1878V86.624H71.9918V87.896H70.8758V93.728H71.9918V95H68.1878ZM76.8394 88.028V95H75.2554V88.028H72.8794V86.624H79.2154V88.028H76.8394ZM80.5123 95V86.624H86.0323V88.028H82.0963V90.056H85.5763V91.46H82.0963V93.596H86.0323V95H80.5123ZM94.0316 88.988H93.9836L93.3356 90.32L91.6196 93.488L89.9036 90.32L89.2556 88.988H89.2076V95H87.7076V86.624H89.4956L91.6436 90.716H91.6916L93.8156 86.624H95.5316V95H94.0316V88.988ZM97.5045 95V86.624H103.025V88.028H99.0885V90.056H102.569V91.46H99.0885V93.596H103.025V95H97.5045ZM107.1 90.704L106.236 88.964H106.2V95H104.7V86.624H106.44L108.96 90.92L109.824 92.66H109.86V86.624H111.36V95H109.62L107.1 90.704ZM116.613 88.028V95H115.029V88.028H112.653V86.624H118.989V88.028H116.613ZM122.198 96.812L125.642 86.12H126.926L123.482 96.812H122.198ZM131.196 95V86.624H132.78V93.596H136.08V95H131.196ZM142.849 95L142.177 92.864H139.201L138.541 95H136.933L139.741 86.624H141.709L144.493 95H142.849ZM140.713 88.064H140.653L139.585 91.508H141.793L140.713 88.064ZM145.727 86.624H149.603C149.947 86.624 150.255 86.676 150.527 86.78C150.807 86.884 151.043 87.028 151.235 87.212C151.427 87.396 151.571 87.624 151.667 87.896C151.771 88.16 151.823 88.452 151.823 88.772C151.823 89.092 151.779 89.364 151.691 89.588C151.611 89.804 151.499 89.984 151.355 90.128C151.219 90.272 151.059 90.38 150.875 90.452C150.699 90.524 150.515 90.564 150.323 90.572V90.644C150.507 90.644 150.703 90.68 150.911 90.752C151.127 90.824 151.323 90.94 151.499 91.1C151.683 91.252 151.835 91.452 151.955 91.7C152.075 91.94 152.135 92.24 152.135 92.6C152.135 92.936 152.079 93.252 151.967 93.548C151.863 93.836 151.715 94.088 151.523 94.304C151.331 94.52 151.103 94.692 150.839 94.82C150.575 94.94 150.287 95 149.975 95H145.727V86.624ZM147.311 93.656H149.519C149.823 93.656 150.059 93.58 150.227 93.428C150.395 93.268 150.479 93.04 150.479 92.744V92.336C150.479 92.04 150.395 91.812 150.227 91.652C150.059 91.492 149.823 91.412 149.519 91.412H147.311V93.656ZM147.311 90.116H149.267C149.555 90.116 149.779 90.04 149.939 89.888C150.099 89.728 150.179 89.508 150.179 89.228V88.856C150.179 88.576 150.099 88.36 149.939 88.208C149.779 88.048 149.555 87.968 149.267 87.968H147.311V90.116ZM156.972 95.144C156.42 95.144 155.92 95.052 155.472 94.868C155.024 94.684 154.64 94.408 154.32 94.04C154.008 93.672 153.764 93.22 153.588 92.684C153.412 92.148 153.324 91.524 153.324 90.812C153.324 90.108 153.412 89.488 153.588 88.952C153.764 88.408 154.008 87.952 154.32 87.584C154.64 87.216 155.024 86.94 155.472 86.756C155.92 86.572 156.42 86.48 156.972 86.48C157.524 86.48 158.024 86.572 158.472 86.756C158.92 86.94 159.304 87.216 159.624 87.584C159.944 87.952 160.188 88.408 160.356 88.952C160.532 89.488 160.62 90.108 160.62 90.812C160.62 91.524 160.532 92.148 160.356 92.684C160.188 93.22 159.944 93.672 159.624 94.04C159.304 94.408 158.92 94.684 158.472 94.868C158.024 95.052 157.524 95.144 156.972 95.144ZM156.972 93.74C157.572 93.74 158.048 93.54 158.4 93.14C158.76 92.74 158.94 92.18 158.94 91.46V90.164C158.94 89.444 158.76 88.884 158.4 88.484C158.048 88.084 157.572 87.884 156.972 87.884C156.372 87.884 155.892 88.084 155.532 88.484C155.18 88.884 155.004 89.444 155.004 90.164V91.46C155.004 92.18 155.18 92.74 155.532 93.14C155.892 93.54 156.372 93.74 156.972 93.74Z" fill="#41637D"/>
<rect x="185.297" y="164" width="83.9895" height="16.7979" fill="#EDEDED"/>
<rect x="185.243" y="164.202" width="22" height="17" fill="#39A4F5"/>
<path d="M54.5874 170.028V177H53.0034V170.028H50.6274V168.624H56.9634V170.028H54.5874ZM58.2604 177V168.624H63.7804V170.028H59.8444V172.056H63.3244V173.46H59.8444V175.596H63.7804V177H58.2604ZM68.0597 177.144C67.3397 177.144 66.7277 177.016 66.2237 176.76C65.7277 176.504 65.2997 176.168 64.9397 175.752L66.0077 174.72C66.2957 175.056 66.6157 175.312 66.9677 175.488C67.3277 175.664 67.7237 175.752 68.1557 175.752C68.6437 175.752 69.0117 175.648 69.2597 175.44C69.5077 175.224 69.6317 174.936 69.6317 174.576C69.6317 174.296 69.5517 174.068 69.3917 173.892C69.2317 173.716 68.9317 173.588 68.4917 173.508L67.6997 173.388C66.0277 173.124 65.1917 172.312 65.1917 170.952C65.1917 170.576 65.2597 170.236 65.3957 169.932C65.5397 169.628 65.7437 169.368 66.0077 169.152C66.2717 168.936 66.5877 168.772 66.9557 168.66C67.3317 168.54 67.7557 168.48 68.2277 168.48C68.8597 168.48 69.4117 168.584 69.8837 168.792C70.3557 169 70.7597 169.308 71.0957 169.716L70.0157 170.736C69.8077 170.48 69.5557 170.272 69.2597 170.112C68.9637 169.952 68.5917 169.872 68.1437 169.872C67.6877 169.872 67.3437 169.96 67.1117 170.136C66.8877 170.304 66.7757 170.544 66.7757 170.856C66.7757 171.176 66.8677 171.412 67.0517 171.564C67.2357 171.716 67.5317 171.828 67.9397 171.9L68.7197 172.044C69.5677 172.196 70.1917 172.468 70.5917 172.86C70.9997 173.244 71.2037 173.784 71.2037 174.48C71.2037 174.88 71.1317 175.244 70.9877 175.572C70.8517 175.892 70.6477 176.172 70.3757 176.412C70.1117 176.644 69.7837 176.824 69.3917 176.952C69.0077 177.08 68.5637 177.144 68.0597 177.144ZM75.8452 170.028V177H74.2612V170.028H71.8852V168.624H78.2212V170.028H75.8452ZM82.3541 168.624H85.4021C85.9461 168.624 86.4381 168.712 86.8781 168.888C87.3261 169.064 87.7061 169.328 88.0181 169.68C88.3381 170.024 88.5821 170.46 88.7501 170.988C88.9261 171.508 89.0141 172.116 89.0141 172.812C89.0141 173.508 88.9261 174.12 88.7501 174.648C88.5821 175.168 88.3381 175.604 88.0181 175.956C87.7061 176.3 87.3261 176.56 86.8781 176.736C86.4381 176.912 85.9461 177 85.4021 177H82.3541V168.624ZM85.4021 175.596C85.9941 175.596 86.4621 175.424 86.8061 175.08C87.1581 174.728 87.3341 174.192 87.3341 173.472V172.152C87.3341 171.432 87.1581 170.9 86.8061 170.556C86.4621 170.204 85.9941 170.028 85.4021 170.028H83.9381V175.596H85.4021ZM91.162 168C91.49 168 91.726 168.08 91.87 168.24C92.022 168.392 92.098 168.584 92.098 168.816V169.044C92.098 169.26 92.066 169.48 92.002 169.704C91.946 169.92 91.862 170.132 91.75 170.34C91.638 170.548 91.506 170.744 91.354 170.928C91.202 171.112 91.038 171.276 90.862 171.42H89.83C90.086 171.18 90.302 170.94 90.478 170.7C90.654 170.452 90.786 170.18 90.874 169.884C90.642 169.844 90.474 169.752 90.37 169.608C90.266 169.456 90.214 169.28 90.214 169.08V168.816C90.214 168.584 90.286 168.392 90.43 168.24C90.582 168.08 90.826 168 91.162 168ZM93.8619 177V168.624H99.3819V170.028H95.4459V172.056H98.9259V173.46H95.4459V175.596H99.3819V177H93.8619ZM101.057 177V168.624H106.445V170.028H102.641V172.056H105.953V173.46H102.641V177H101.057ZM107.983 177V168.624H113.371V170.028H109.567V172.056H112.879V173.46H109.567V177H107.983ZM114.561 177V175.728H115.665V169.896H114.561V168.624H118.365V169.896H117.249V175.728H118.365V177H114.561ZM123.235 177.144C122.683 177.144 122.183 177.056 121.735 176.88C121.295 176.696 120.915 176.424 120.595 176.064C120.283 175.704 120.043 175.26 119.875 174.732C119.707 174.196 119.623 173.576 119.623 172.872C119.623 172.168 119.707 171.544 119.875 171C120.043 170.448 120.283 169.988 120.595 169.62C120.915 169.244 121.295 168.96 121.735 168.768C122.183 168.576 122.683 168.48 123.235 168.48C123.987 168.48 124.611 168.64 125.107 168.96C125.603 169.28 125.999 169.764 126.295 170.412L124.939 171.132C124.819 170.756 124.623 170.456 124.351 170.232C124.079 170 123.707 169.884 123.235 169.884C122.643 169.884 122.171 170.084 121.819 170.484C121.475 170.884 121.303 171.444 121.303 172.164V173.484C121.303 174.212 121.475 174.772 121.819 175.164C122.171 175.548 122.643 175.74 123.235 175.74C123.707 175.74 124.091 175.612 124.387 175.356C124.691 175.1 124.911 174.784 125.047 174.408L126.331 175.164C126.027 175.788 125.623 176.276 125.119 176.628C124.615 176.972 123.987 177.144 123.235 177.144ZM132.796 177L132.124 174.864H129.148L128.488 177H126.88L129.688 168.624H131.656L134.44 177H132.796ZM130.66 170.064H130.6L129.532 173.508H131.74L130.66 170.064ZM138.61 177.144C138.058 177.144 137.558 177.056 137.11 176.88C136.67 176.696 136.29 176.424 135.97 176.064C135.658 175.704 135.418 175.26 135.25 174.732C135.082 174.196 134.998 173.576 134.998 172.872C134.998 172.168 135.082 171.544 135.25 171C135.418 170.448 135.658 169.988 135.97 169.62C136.29 169.244 136.67 168.96 137.11 168.768C137.558 168.576 138.058 168.48 138.61 168.48C139.362 168.48 139.986 168.64 140.482 168.96C140.978 169.28 141.374 169.764 141.67 170.412L140.314 171.132C140.194 170.756 139.998 170.456 139.726 170.232C139.454 170 139.082 169.884 138.61 169.884C138.018 169.884 137.546 170.084 137.194 170.484C136.85 170.884 136.678 171.444 136.678 172.164V173.484C136.678 174.212 136.85 174.772 137.194 175.164C137.546 175.548 138.018 175.74 138.61 175.74C139.082 175.74 139.466 175.612 139.762 175.356C140.066 175.1 140.286 174.784 140.422 174.408L141.706 175.164C141.402 175.788 140.998 176.276 140.494 176.628C139.99 176.972 139.362 177.144 138.61 177.144ZM142.709 177V175.728H143.813V169.896H142.709V168.624H146.513V169.896H145.397V175.728H146.513V177H142.709ZM151.361 170.028V177H149.777V170.028H147.401V168.624H153.737V170.028H151.361ZM155.034 177V168.624H160.554V170.028H156.618V172.056H160.098V173.46H156.618V175.596H160.554V177H155.034ZM157.95 168.072L157.026 167.616L158.166 165.372L159.462 166.02L157.95 168.072Z" fill="#41637D"/>
<rect x="185.297" y="123" width="83.9895" height="16.7979" fill="#EDEDED"/>
<rect x="185.243" y="123" width="18" height="17" fill="#39A4F5"/>
<path d="M30.153 136.548C29.601 136.548 29.101 136.46 28.653 136.284C28.213 136.1 27.833 135.828 27.513 135.468C27.201 135.108 26.961 134.664 26.793 134.136C26.625 133.6 26.541 132.98 26.541 132.276C26.541 131.572 26.625 130.948 26.793 130.404C26.961 129.852 27.201 129.392 27.513 129.024C27.833 128.648 28.213 128.364 28.653 128.172C29.101 127.98 29.601 127.884 30.153 127.884C30.905 127.884 31.529 128.044 32.025 128.364C32.521 128.684 32.917 129.168 33.213 129.816L31.857 130.536C31.737 130.16 31.541 129.86 31.269 129.636C30.997 129.404 30.625 129.288 30.153 129.288C29.561 129.288 29.089 129.488 28.737 129.888C28.393 130.288 28.221 130.848 28.221 131.568V132.888C28.221 133.616 28.393 134.176 28.737 134.568C29.089 134.952 29.561 135.144 30.153 135.144C30.625 135.144 31.009 135.016 31.305 134.76C31.609 134.504 31.829 134.188 31.965 133.812L33.249 134.568C32.945 135.192 32.541 135.68 32.037 136.032C31.533 136.376 30.905 136.548 30.153 136.548ZM39.7139 136.404L39.0419 134.268H36.0659L35.4059 136.404H33.7979L36.6059 128.028H38.5739L41.3579 136.404H39.7139ZM37.5779 129.468H37.5179L36.4499 132.912H38.6579L37.5779 129.468ZM44.1764 136.404H42.5924V128.028H46.3724C46.7564 128.028 47.1004 128.088 47.4044 128.208C47.7084 128.328 47.9644 128.504 48.1724 128.736C48.3884 128.96 48.5524 129.232 48.6644 129.552C48.7844 129.872 48.8444 130.228 48.8444 130.62C48.8444 131.196 48.7124 131.692 48.4484 132.108C48.1924 132.524 47.8044 132.82 47.2844 132.996L49.0004 136.404H47.2364L45.6764 133.176H44.1764V136.404ZM46.2164 131.844C46.5204 131.844 46.7604 131.764 46.9364 131.604C47.1124 131.436 47.2004 131.2 47.2004 130.896V130.344C47.2004 130.04 47.1124 129.808 46.9364 129.648C46.7604 129.488 46.5204 129.408 46.2164 129.408H44.1764V131.844H46.2164ZM55.7451 136.404L55.0731 134.268H52.0971L51.4371 136.404H49.8291L52.6371 128.028H54.6051L57.3891 136.404H55.7451ZM53.6091 129.468H53.5491L52.4811 132.912H54.6891L53.6091 129.468ZM61.5592 136.548C61.0072 136.548 60.5072 136.46 60.0592 136.284C59.6192 136.1 59.2392 135.828 58.9192 135.468C58.6072 135.108 58.3672 134.664 58.1992 134.136C58.0312 133.6 57.9472 132.98 57.9472 132.276C57.9472 131.572 58.0312 130.948 58.1992 130.404C58.3672 129.852 58.6072 129.392 58.9192 129.024C59.2392 128.648 59.6192 128.364 60.0592 128.172C60.5072 127.98 61.0072 127.884 61.5592 127.884C62.3112 127.884 62.9352 128.044 63.4312 128.364C63.9272 128.684 64.3232 129.168 64.6192 129.816L63.2632 130.536C63.1432 130.16 62.9472 129.86 62.6752 129.636C62.4032 129.404 62.0312 129.288 61.5592 129.288C60.9672 129.288 60.4952 129.488 60.1432 129.888C59.7992 130.288 59.6272 130.848 59.6272 131.568V132.888C59.6272 133.616 59.7992 134.176 60.1432 134.568C60.4952 134.952 60.9672 135.144 61.5592 135.144C62.0312 135.144 62.4152 135.016 62.7112 134.76C63.0152 134.504 63.2352 134.188 63.3712 133.812L64.6552 134.568C64.3512 135.192 63.9472 135.68 63.4432 136.032C62.9392 136.376 62.3112 136.548 61.5592 136.548ZM69.2945 129.432V136.404H67.7105V129.432H65.3345V128.028H71.6705V129.432H69.2945ZM72.9674 136.404V128.028H78.4874V129.432H74.5514V131.46H78.0314V132.864H74.5514V135H78.4874V136.404H72.9674ZM75.8834 127.476L74.9594 127.02L76.0994 124.776L77.3954 125.424L75.8834 127.476ZM81.7467 136.404H80.1627V128.028H83.9427C84.3267 128.028 84.6707 128.088 84.9747 128.208C85.2787 128.328 85.5347 128.504 85.7427 128.736C85.9587 128.96 86.1227 129.232 86.2347 129.552C86.3547 129.872 86.4147 130.228 86.4147 130.62C86.4147 131.196 86.2827 131.692 86.0187 132.108C85.7627 132.524 85.3747 132.82 84.8547 132.996L86.5707 136.404H84.8067L83.2467 133.176H81.7467V136.404ZM83.7867 131.844C84.0907 131.844 84.3307 131.764 84.5067 131.604C84.6827 131.436 84.7707 131.2 84.7707 130.896V130.344C84.7707 130.04 84.6827 129.808 84.5067 129.648C84.3307 129.488 84.0907 129.408 83.7867 129.408H81.7467V131.844H83.7867ZM87.7835 136.404V135.132H88.8875V129.3H87.7835V128.028H91.5875V129.3H90.4715V135.132H91.5875V136.404H87.7835ZM95.8097 136.548C95.0897 136.548 94.4777 136.42 93.9737 136.164C93.4777 135.908 93.0497 135.572 92.6897 135.156L93.7577 134.124C94.0457 134.46 94.3657 134.716 94.7177 134.892C95.0777 135.068 95.4737 135.156 95.9057 135.156C96.3937 135.156 96.7617 135.052 97.0097 134.844C97.2577 134.628 97.3817 134.34 97.3817 133.98C97.3817 133.7 97.3017 133.472 97.1417 133.296C96.9817 133.12 96.6817 132.992 96.2417 132.912L95.4497 132.792C93.7777 132.528 92.9417 131.716 92.9417 130.356C92.9417 129.98 93.0097 129.64 93.1457 129.336C93.2897 129.032 93.4937 128.772 93.7577 128.556C94.0217 128.34 94.3377 128.176 94.7057 128.064C95.0817 127.944 95.5057 127.884 95.9777 127.884C96.6097 127.884 97.1617 127.988 97.6337 128.196C98.1057 128.404 98.5097 128.712 98.8457 129.12L97.7657 130.14C97.5577 129.884 97.3057 129.676 97.0097 129.516C96.7137 129.356 96.3417 129.276 95.8937 129.276C95.4377 129.276 95.0937 129.364 94.8617 129.54C94.6377 129.708 94.5257 129.948 94.5257 130.26C94.5257 130.58 94.6177 130.816 94.8017 130.968C94.9857 131.12 95.2817 131.232 95.6897 131.304L96.4697 131.448C97.3177 131.6 97.9417 131.872 98.3417 132.264C98.7497 132.648 98.9537 133.188 98.9537 133.884C98.9537 134.284 98.8817 134.648 98.7377 134.976C98.6017 135.296 98.3977 135.576 98.1257 135.816C97.8617 136.048 97.5337 136.228 97.1417 136.356C96.7577 136.484 96.3137 136.548 95.8097 136.548ZM100.542 136.404V128.028H106.062V129.432H102.126V131.46H105.606V132.864H102.126V135H106.062V136.404H100.542ZM109.321 136.404H107.737V128.028H111.517C111.901 128.028 112.245 128.088 112.549 128.208C112.853 128.328 113.109 128.504 113.317 128.736C113.533 128.96 113.697 129.232 113.809 129.552C113.929 129.872 113.989 130.228 113.989 130.62C113.989 131.196 113.857 131.692 113.593 132.108C113.337 132.524 112.949 132.82 112.429 132.996L114.145 136.404H112.381L110.821 133.176H109.321V136.404ZM111.361 131.844C111.665 131.844 111.905 131.764 112.081 131.604C112.257 131.436 112.345 131.2 112.345 130.896V130.344C112.345 130.04 112.257 129.808 112.081 129.648C111.905 129.488 111.665 129.408 111.361 129.408H109.321V131.844H111.361ZM118.542 136.404V128.028H120.126V135H123.426V136.404H118.542ZM124.678 127.404C125.006 127.404 125.242 127.484 125.386 127.644C125.538 127.796 125.614 127.988 125.614 128.22V128.448C125.614 128.664 125.582 128.884 125.518 129.108C125.462 129.324 125.378 129.536 125.266 129.744C125.154 129.952 125.022 130.148 124.87 130.332C124.718 130.516 124.554 130.68 124.378 130.824H123.346C123.602 130.584 123.818 130.344 123.994 130.104C124.17 129.856 124.302 129.584 124.39 129.288C124.158 129.248 123.99 129.156 123.886 129.012C123.782 128.86 123.73 128.684 123.73 128.484V128.22C123.73 127.988 123.802 127.796 123.946 127.644C124.098 127.484 124.342 127.404 124.678 127.404ZM127.378 136.404V128.028H132.898V129.432H128.962V131.46H132.442V132.864H128.962V135H132.898V136.404H127.378ZM137.177 136.548C136.457 136.548 135.845 136.42 135.341 136.164C134.845 135.908 134.417 135.572 134.057 135.156L135.125 134.124C135.413 134.46 135.733 134.716 136.085 134.892C136.445 135.068 136.841 135.156 137.273 135.156C137.761 135.156 138.129 135.052 138.377 134.844C138.625 134.628 138.749 134.34 138.749 133.98C138.749 133.7 138.669 133.472 138.509 133.296C138.349 133.12 138.049 132.992 137.609 132.912L136.817 132.792C135.145 132.528 134.309 131.716 134.309 130.356C134.309 129.98 134.377 129.64 134.513 129.336C134.657 129.032 134.861 128.772 135.125 128.556C135.389 128.34 135.705 128.176 136.073 128.064C136.449 127.944 136.873 127.884 137.345 127.884C137.977 127.884 138.529 127.988 139.001 128.196C139.473 128.404 139.877 128.712 140.213 129.12L139.133 130.14C138.925 129.884 138.673 129.676 138.377 129.516C138.081 129.356 137.709 129.276 137.261 129.276C136.805 129.276 136.461 129.364 136.229 129.54C136.005 129.708 135.893 129.948 135.893 130.26C135.893 130.58 135.985 130.816 136.169 130.968C136.353 131.12 136.649 131.232 137.057 131.304L137.837 131.448C138.685 131.6 139.309 131.872 139.709 132.264C140.117 132.648 140.321 133.188 140.321 133.884C140.321 134.284 140.249 134.648 140.105 134.976C139.969 135.296 139.765 135.576 139.493 135.816C139.229 136.048 138.901 136.228 138.509 136.356C138.125 136.484 137.681 136.548 137.177 136.548ZM144.36 136.548C143.64 136.548 143.028 136.42 142.524 136.164C142.028 135.908 141.6 135.572 141.24 135.156L142.308 134.124C142.596 134.46 142.916 134.716 143.268 134.892C143.628 135.068 144.024 135.156 144.456 135.156C144.944 135.156 145.312 135.052 145.56 134.844C145.808 134.628 145.932 134.34 145.932 133.98C145.932 133.7 145.852 133.472 145.692 133.296C145.532 133.12 145.232 132.992 144.792 132.912L144 132.792C142.328 132.528 141.492 131.716 141.492 130.356C141.492 129.98 141.56 129.64 141.696 129.336C141.84 129.032 142.044 128.772 142.308 128.556C142.572 128.34 142.888 128.176 143.256 128.064C143.632 127.944 144.056 127.884 144.528 127.884C145.16 127.884 145.712 127.988 146.184 128.196C146.656 128.404 147.06 128.712 147.396 129.12L146.316 130.14C146.108 129.884 145.856 129.676 145.56 129.516C145.264 129.356 144.892 129.276 144.444 129.276C143.988 129.276 143.644 129.364 143.412 129.54C143.188 129.708 143.076 129.948 143.076 130.26C143.076 130.58 143.168 130.816 143.352 130.968C143.536 131.12 143.832 131.232 144.24 131.304L145.02 131.448C145.868 131.6 146.492 131.872 146.892 132.264C147.3 132.648 147.504 133.188 147.504 133.884C147.504 134.284 147.432 134.648 147.288 134.976C147.152 135.296 146.948 135.576 146.676 135.816C146.412 136.048 146.084 136.228 145.692 136.356C145.308 136.484 144.864 136.548 144.36 136.548ZM154.276 136.404L153.604 134.268H150.628L149.968 136.404H148.36L151.168 128.028H153.136L155.92 136.404H154.276ZM152.14 129.468H152.08L151.012 132.912H153.22L152.14 129.468ZM156.807 136.404V135.132H157.911V129.3H156.807V128.028H160.611V129.3H159.495V135.132H160.611V136.404H156.807Z" fill="#41637D"/>
<line x1="185.716" y1="1.64788e-08" x2="185.716" y2="190" stroke="#41637D" stroke-width="0.839895"/>
<line x1="227.71" y1="1.64788e-08" x2="227.71" y2="190" stroke="#41637D" stroke-width="0.839895"/>
<line x1="269.705" y1="1.64788e-08" x2="269.705" y2="190" stroke="#41637D" stroke-width="0.839895"/>
<path d="M16.998 32C9.76099 32 3.87305 37.8879 3.87305 45.125C3.87305 50.96 7.71802 56.0757 13.2756 57.7141L16.1594 63.4817C16.3184 63.7993 16.6428 64 16.998 64C17.353 64 17.6777 63.7993 17.8364 63.4817L20.7202 57.7144C26.2781 56.0759 30.123 50.9602 30.123 45.125C30.123 37.8879 24.2351 32 16.998 32V32ZM19.8328 56.0149C19.5706 56.0828 19.3508 56.2607 19.2297 56.5029L16.998 60.9663L14.7664 56.5029C14.6453 56.2607 14.4255 56.0828 14.1633 56.0146C9.2085 54.729 5.74805 50.251 5.74805 45.125C5.74805 38.9216 10.7947 33.875 16.998 33.875C23.2014 33.875 28.248 38.9216 28.248 45.125C28.248 50.251 24.7876 54.729 19.8328 56.0149Z" fill="#F6851E"/>
<path d="M16.998 41.375C14.9302 41.375 13.248 43.0571 13.248 45.125C13.248 47.1929 14.9302 48.875 16.998 48.875C19.0659 48.875 20.748 47.1929 20.748 45.125C20.748 43.0571 19.0659 41.375 16.998 41.375ZM16.998 47C15.9641 47 15.123 46.1589 15.123 45.125C15.123 44.0911 15.9641 43.25 16.998 43.25C18.032 43.25 18.873 44.0911 18.873 45.125C18.873 46.1589 18.032 47 16.998 47Z" fill="#F6851E"/>
</svg>
