<svg width="236" height="216" viewBox="0 0 236 216" fill="none" xmlns="http://www.w3.org/2000/svg">
<path d="M129.143 212.144C128.607 212.144 128.143 212.048 127.751 211.856C127.359 211.656 127.035 211.372 126.779 211.004C126.523 210.636 126.331 210.184 126.203 209.648C126.083 209.112 126.023 208.5 126.023 207.812C126.023 207.132 126.083 206.524 126.203 205.988C126.331 205.444 126.523 204.988 126.779 204.62C127.035 204.252 127.359 203.972 127.751 203.78C128.143 203.58 128.607 203.48 129.143 203.48C130.207 203.48 130.991 203.86 131.495 204.62C132.007 205.38 132.263 206.444 132.263 207.812C132.263 209.18 132.007 210.244 131.495 211.004C130.991 211.764 130.207 212.144 129.143 212.144ZM129.143 210.812C129.679 210.812 130.051 210.612 130.259 210.212C130.475 209.804 130.583 209.256 130.583 208.568V207.056C130.583 206.368 130.475 205.824 130.259 205.424C130.051 205.016 129.679 204.812 129.143 204.812C128.607 204.812 128.231 205.016 128.015 205.424C127.807 205.824 127.703 206.368 127.703 207.056V208.568C127.703 209.256 127.807 209.804 128.015 210.212C128.231 210.612 128.607 210.812 129.143 210.812ZM134.898 212L140.706 203.624H142.098L136.29 212H134.898ZM135.474 208.232C134.794 208.232 134.274 208.032 133.914 207.632C133.562 207.224 133.386 206.632 133.386 205.856C133.386 205.08 133.562 204.492 133.914 204.092C134.274 203.684 134.794 203.48 135.474 203.48C136.154 203.48 136.67 203.684 137.022 204.092C137.374 204.492 137.55 205.08 137.55 205.856C137.55 206.632 137.374 207.224 137.022 207.632C136.67 208.032 136.154 208.232 135.474 208.232ZM135.474 207.32C135.97 207.32 136.218 206.94 136.218 206.18V205.532C136.218 204.772 135.97 204.392 135.474 204.392C134.978 204.392 134.73 204.772 134.73 205.532V206.18C134.73 206.94 134.978 207.32 135.474 207.32ZM141.522 212.144C140.85 212.144 140.334 211.944 139.974 211.544C139.622 211.136 139.446 210.544 139.446 209.768C139.446 208.992 139.622 208.404 139.974 208.004C140.334 207.596 140.85 207.392 141.522 207.392C142.202 207.392 142.718 207.596 143.07 208.004C143.43 208.404 143.61 208.992 143.61 209.768C143.61 210.544 143.43 211.136 143.07 211.544C142.718 211.944 142.202 212.144 141.522 212.144ZM141.522 211.232C142.018 211.232 142.266 210.852 142.266 210.092V209.444C142.266 208.684 142.018 208.304 141.522 208.304C141.026 208.304 140.778 208.684 140.778 209.444V210.092C140.778 210.852 141.026 211.232 141.522 211.232Z" fill="#41637D"/>
<path d="M169.518 204.992H165.75L165.558 207.8H165.642C165.73 207.624 165.826 207.46 165.93 207.308C166.034 207.156 166.154 207.028 166.29 206.924C166.426 206.82 166.582 206.74 166.758 206.684C166.942 206.62 167.162 206.588 167.418 206.588C167.778 206.588 168.114 206.648 168.426 206.768C168.738 206.888 169.006 207.064 169.23 207.296C169.462 207.52 169.642 207.796 169.77 208.124C169.906 208.452 169.974 208.824 169.974 209.24C169.974 209.664 169.906 210.052 169.77 210.404C169.634 210.756 169.434 211.064 169.17 211.328C168.906 211.584 168.582 211.784 168.198 211.928C167.814 212.072 167.374 212.144 166.878 212.144C166.494 212.144 166.15 212.1 165.846 212.012C165.542 211.932 165.274 211.82 165.042 211.676C164.81 211.532 164.61 211.368 164.442 211.184C164.274 210.992 164.126 210.792 163.998 210.584L165.15 209.696C165.246 209.856 165.346 210.008 165.45 210.152C165.554 210.288 165.674 210.408 165.81 210.512C165.954 210.616 166.11 210.7 166.278 210.764C166.454 210.82 166.658 210.848 166.89 210.848C167.362 210.848 167.718 210.716 167.958 210.452C168.206 210.188 168.33 209.828 168.33 209.372V209.276C168.33 208.844 168.206 208.504 167.958 208.256C167.71 208.008 167.366 207.884 166.926 207.884C166.582 207.884 166.302 207.952 166.086 208.088C165.87 208.216 165.698 208.356 165.57 208.508L164.274 208.328L164.586 203.624H169.518V204.992ZM174.133 212.144C173.597 212.144 173.133 212.048 172.741 211.856C172.349 211.656 172.025 211.372 171.769 211.004C171.513 210.636 171.321 210.184 171.193 209.648C171.073 209.112 171.013 208.5 171.013 207.812C171.013 207.132 171.073 206.524 171.193 205.988C171.321 205.444 171.513 204.988 171.769 204.62C172.025 204.252 172.349 203.972 172.741 203.78C173.133 203.58 173.597 203.48 174.133 203.48C175.197 203.48 175.981 203.86 176.485 204.62C176.997 205.38 177.253 206.444 177.253 207.812C177.253 209.18 176.997 210.244 176.485 211.004C175.981 211.764 175.197 212.144 174.133 212.144ZM174.133 210.812C174.669 210.812 175.041 210.612 175.249 210.212C175.465 209.804 175.573 209.256 175.573 208.568V207.056C175.573 206.368 175.465 205.824 175.249 205.424C175.041 205.016 174.669 204.812 174.133 204.812C173.597 204.812 173.221 205.016 173.005 205.424C172.797 205.824 172.693 206.368 172.693 207.056V208.568C172.693 209.256 172.797 209.804 173.005 210.212C173.221 210.612 173.597 210.812 174.133 210.812ZM179.889 212L185.697 203.624H187.089L181.281 212H179.889ZM180.465 208.232C179.785 208.232 179.265 208.032 178.905 207.632C178.553 207.224 178.377 206.632 178.377 205.856C178.377 205.08 178.553 204.492 178.905 204.092C179.265 203.684 179.785 203.48 180.465 203.48C181.145 203.48 181.661 203.684 182.013 204.092C182.365 204.492 182.541 205.08 182.541 205.856C182.541 206.632 182.365 207.224 182.013 207.632C181.661 208.032 181.145 208.232 180.465 208.232ZM180.465 207.32C180.961 207.32 181.209 206.94 181.209 206.18V205.532C181.209 204.772 180.961 204.392 180.465 204.392C179.969 204.392 179.721 204.772 179.721 205.532V206.18C179.721 206.94 179.969 207.32 180.465 207.32ZM186.513 212.144C185.841 212.144 185.325 211.944 184.965 211.544C184.613 211.136 184.437 210.544 184.437 209.768C184.437 208.992 184.613 208.404 184.965 208.004C185.325 207.596 185.841 207.392 186.513 207.392C187.193 207.392 187.709 207.596 188.061 208.004C188.421 208.404 188.601 208.992 188.601 209.768C188.601 210.544 188.421 211.136 188.061 211.544C187.709 211.944 187.193 212.144 186.513 212.144ZM186.513 211.232C187.009 211.232 187.257 210.852 187.257 210.092V209.444C187.257 208.684 187.009 208.304 186.513 208.304C186.017 208.304 185.769 208.684 185.769 209.444V210.092C185.769 210.852 186.017 211.232 186.513 211.232Z" fill="#41637D"/>
<path d="M203.065 212V210.716H205.369V204.764H205.261L203.437 206.924L202.453 206.096L204.529 203.624H206.917V210.716H208.837V212H203.065ZM212.768 212.144C212.232 212.144 211.768 212.048 211.376 211.856C210.984 211.656 210.66 211.372 210.404 211.004C210.148 210.636 209.956 210.184 209.828 209.648C209.708 209.112 209.648 208.5 209.648 207.812C209.648 207.132 209.708 206.524 209.828 205.988C209.956 205.444 210.148 204.988 210.404 204.62C210.66 204.252 210.984 203.972 211.376 203.78C211.768 203.58 212.232 203.48 212.768 203.48C213.832 203.48 214.616 203.86 215.12 204.62C215.632 205.38 215.888 206.444 215.888 207.812C215.888 209.18 215.632 210.244 215.12 211.004C214.616 211.764 213.832 212.144 212.768 212.144ZM212.768 210.812C213.304 210.812 213.676 210.612 213.884 210.212C214.1 209.804 214.208 209.256 214.208 208.568V207.056C214.208 206.368 214.1 205.824 213.884 205.424C213.676 205.016 213.304 204.812 212.768 204.812C212.232 204.812 211.856 205.016 211.64 205.424C211.432 205.824 211.328 206.368 211.328 207.056V208.568C211.328 209.256 211.432 209.804 211.64 210.212C211.856 210.612 212.232 210.812 212.768 210.812ZM219.963 212.144C219.427 212.144 218.963 212.048 218.571 211.856C218.179 211.656 217.855 211.372 217.599 211.004C217.343 210.636 217.151 210.184 217.023 209.648C216.903 209.112 216.843 208.5 216.843 207.812C216.843 207.132 216.903 206.524 217.023 205.988C217.151 205.444 217.343 204.988 217.599 204.62C217.855 204.252 218.179 203.972 218.571 203.78C218.963 203.58 219.427 203.48 219.963 203.48C221.027 203.48 221.811 203.86 222.315 204.62C222.827 205.38 223.083 206.444 223.083 207.812C223.083 209.18 222.827 210.244 222.315 211.004C221.811 211.764 221.027 212.144 219.963 212.144ZM219.963 210.812C220.499 210.812 220.871 210.612 221.079 210.212C221.295 209.804 221.403 209.256 221.403 208.568V207.056C221.403 206.368 221.295 205.824 221.079 205.424C220.871 205.016 220.499 204.812 219.963 204.812C219.427 204.812 219.051 205.016 218.835 205.424C218.627 205.824 218.523 206.368 218.523 207.056V208.568C218.523 209.256 218.627 209.804 218.835 210.212C219.051 210.612 219.427 210.812 219.963 210.812ZM225.719 212L231.527 203.624H232.919L227.111 212H225.719ZM226.295 208.232C225.615 208.232 225.095 208.032 224.735 207.632C224.383 207.224 224.207 206.632 224.207 205.856C224.207 205.08 224.383 204.492 224.735 204.092C225.095 203.684 225.615 203.48 226.295 203.48C226.975 203.48 227.491 203.684 227.843 204.092C228.195 204.492 228.371 205.08 228.371 205.856C228.371 206.632 228.195 207.224 227.843 207.632C227.491 208.032 226.975 208.232 226.295 208.232ZM226.295 207.32C226.791 207.32 227.039 206.94 227.039 206.18V205.532C227.039 204.772 226.791 204.392 226.295 204.392C225.799 204.392 225.551 204.772 225.551 205.532V206.18C225.551 206.94 225.799 207.32 226.295 207.32ZM232.343 212.144C231.671 212.144 231.155 211.944 230.795 211.544C230.443 211.136 230.267 210.544 230.267 209.768C230.267 208.992 230.443 208.404 230.795 208.004C231.155 207.596 231.671 207.392 232.343 207.392C233.023 207.392 233.539 207.596 233.891 208.004C234.251 208.404 234.431 208.992 234.431 209.768C234.431 210.544 234.251 211.136 233.891 211.544C233.539 211.944 233.023 212.144 232.343 212.144ZM232.343 211.232C232.839 211.232 233.087 210.852 233.087 210.092V209.444C233.087 208.684 232.839 208.304 232.343 208.304C231.847 208.304 231.599 208.684 231.599 209.444V210.092C231.599 210.852 231.847 211.232 232.343 211.232Z" fill="#41637D"/>
<line opacity="0.2" x1="143.6" y1="1.64788e-08" x2="143.6" y2="190" stroke="#41637D" stroke-width="0.839895"/>
<line opacity="0.2" x1="185.596" y1="1.64788e-08" x2="185.596" y2="190" stroke="#41637D" stroke-width="0.839895"/>
<line opacity="0.2" x1="152" y1="1.64788e-08" x2="152" y2="190" stroke="#41637D" stroke-width="0.839895"/>
<line opacity="0.2" x1="193.994" y1="1.64788e-08" x2="193.994" y2="190" stroke="#41637D" stroke-width="0.839895"/>
<line opacity="0.2" x1="160.398" y1="1.64788e-08" x2="160.398" y2="190" stroke="#41637D" stroke-width="0.839895"/>
<line opacity="0.2" x1="202.393" y1="1.64788e-08" x2="202.393" y2="190" stroke="#41637D" stroke-width="0.839895"/>
<line opacity="0.2" x1="168.797" y1="1.64788e-08" x2="168.797" y2="190" stroke="#41637D" stroke-width="0.839895"/>
<line opacity="0.2" x1="210.791" y1="1.64788e-08" x2="210.791" y2="190" stroke="#41637D" stroke-width="0.839895"/>
<rect x="134.781" width="83.9895" height="16.7979" fill="#39A4F5"/>
<rect x="135.73" width="62" height="17" fill="#1084DD"/>
<path d="M72.8082 13V4.624H76.5762C76.9602 4.624 77.3042 4.688 77.6082 4.816C77.9202 4.936 78.1842 5.112 78.4002 5.344C78.6162 5.568 78.7802 5.84 78.8922 6.16C79.0042 6.48 79.0602 6.832 79.0602 7.216C79.0602 7.608 79.0042 7.964 78.8922 8.284C78.7802 8.596 78.6162 8.868 78.4002 9.1C78.1842 9.324 77.9202 9.5 77.6082 9.628C77.3042 9.748 76.9602 9.808 76.5762 9.808H74.3922V13H72.8082ZM74.3922 8.44H76.4322C76.7362 8.44 76.9762 8.36 77.1522 8.2C77.3282 8.032 77.4162 7.796 77.4162 7.492V6.94C77.4162 6.636 77.3282 6.404 77.1522 6.244C76.9762 6.084 76.7362 6.004 76.4322 6.004H74.3922V8.44ZM85.5717 9.46H82.0797V13H80.4957V4.624H82.0797V8.056H85.5717V4.624H87.1557V13H85.5717V9.46ZM94.3047 13L93.6327 10.864H90.6567L89.9967 13H88.3887L91.1967 4.624H93.1647L95.9487 13H94.3047ZM92.1687 6.064H92.1087L91.0407 9.508H93.2487L92.1687 6.064ZM99.7872 13.144C99.0672 13.144 98.4552 13.016 97.9512 12.76C97.4552 12.504 97.0272 12.168 96.6672 11.752L97.7352 10.72C98.0232 11.056 98.3432 11.312 98.6952 11.488C99.0552 11.664 99.4512 11.752 99.8832 11.752C100.371 11.752 100.739 11.648 100.987 11.44C101.235 11.224 101.359 10.936 101.359 10.576C101.359 10.296 101.279 10.068 101.119 9.892C100.959 9.716 100.659 9.588 100.219 9.508L99.4272 9.388C97.7552 9.124 96.9192 8.312 96.9192 6.952C96.9192 6.576 96.9872 6.236 97.1232 5.932C97.2672 5.628 97.4712 5.368 97.7352 5.152C97.9992 4.936 98.3152 4.772 98.6832 4.66C99.0592 4.54 99.4832 4.48 99.9552 4.48C100.587 4.48 101.139 4.584 101.611 4.792C102.083 5 102.487 5.308 102.823 5.716L101.743 6.736C101.535 6.48 101.283 6.272 100.987 6.112C100.691 5.952 100.319 5.872 99.8712 5.872C99.4152 5.872 99.0712 5.96 98.8392 6.136C98.6152 6.304 98.5032 6.544 98.5032 6.856C98.5032 7.176 98.5952 7.412 98.7792 7.564C98.9632 7.716 99.2592 7.828 99.6672 7.9L100.447 8.044C101.295 8.196 101.919 8.468 102.319 8.86C102.727 9.244 102.931 9.784 102.931 10.48C102.931 10.88 102.859 11.244 102.715 11.572C102.579 11.892 102.375 12.172 102.103 12.412C101.839 12.644 101.511 12.824 101.119 12.952C100.735 13.08 100.291 13.144 99.7872 13.144ZM104.519 13V4.624H110.039V6.028H106.103V8.056H109.583V9.46H106.103V11.596H110.039V13H104.519ZM29.0973 29V20.624H34.6173V22.028H30.6813V24.056H34.1613V25.46H30.6813V27.596H34.6173V29H29.0973ZM32.0133 20.072L31.0893 19.616L32.2293 17.372L33.5253 18.02L32.0133 20.072ZM36.2926 29V20.624H37.8766V27.596H41.1766V29H36.2926ZM47.9453 29L47.2733 26.864H44.2973L43.6373 29H42.0293L44.8373 20.624H46.8053L49.5893 29H47.9453ZM45.8093 22.064H45.7493L44.6813 25.508H46.8893L45.8093 22.064ZM50.8238 20.624H54.6998C55.0438 20.624 55.3518 20.676 55.6238 20.78C55.9038 20.884 56.1398 21.028 56.3318 21.212C56.5238 21.396 56.6678 21.624 56.7638 21.896C56.8678 22.16 56.9198 22.452 56.9198 22.772C56.9198 23.092 56.8758 23.364 56.7878 23.588C56.7078 23.804 56.5958 23.984 56.4518 24.128C56.3158 24.272 56.1558 24.38 55.9718 24.452C55.7958 24.524 55.6118 24.564 55.4198 24.572V24.644C55.6038 24.644 55.7998 24.68 56.0078 24.752C56.2238 24.824 56.4198 24.94 56.5958 25.1C56.7798 25.252 56.9318 25.452 57.0518 25.7C57.1718 25.94 57.2318 26.24 57.2318 26.6C57.2318 26.936 57.1758 27.252 57.0638 27.548C56.9598 27.836 56.8118 28.088 56.6198 28.304C56.4278 28.52 56.1998 28.692 55.9358 28.82C55.6718 28.94 55.3838 29 55.0718 29H50.8238V20.624ZM52.4078 27.656H54.6158C54.9198 27.656 55.1558 27.58 55.3238 27.428C55.4918 27.268 55.5758 27.04 55.5758 26.744V26.336C55.5758 26.04 55.4918 25.812 55.3238 25.652C55.1558 25.492 54.9198 25.412 54.6158 25.412H52.4078V27.656ZM52.4078 24.116H54.3638C54.6518 24.116 54.8758 24.04 55.0358 23.888C55.1958 23.728 55.2758 23.508 55.2758 23.228V22.856C55.2758 22.576 55.1958 22.36 55.0358 22.208C54.8758 22.048 54.6518 21.968 54.3638 21.968H52.4078V24.116ZM62.0689 29.144C61.5169 29.144 61.0169 29.052 60.5689 28.868C60.1209 28.684 59.7369 28.408 59.4169 28.04C59.1049 27.672 58.8609 27.22 58.6849 26.684C58.5089 26.148 58.4209 25.524 58.4209 24.812C58.4209 24.108 58.5089 23.488 58.6849 22.952C58.8609 22.408 59.1049 21.952 59.4169 21.584C59.7369 21.216 60.1209 20.94 60.5689 20.756C61.0169 20.572 61.5169 20.48 62.0689 20.48C62.6209 20.48 63.1209 20.572 63.5689 20.756C64.0169 20.94 64.4009 21.216 64.7209 21.584C65.0409 21.952 65.2849 22.408 65.4529 22.952C65.6289 23.488 65.7169 24.108 65.7169 24.812C65.7169 25.524 65.6289 26.148 65.4529 26.684C65.2849 27.22 65.0409 27.672 64.7209 28.04C64.4009 28.408 64.0169 28.684 63.5689 28.868C63.1209 29.052 62.6209 29.144 62.0689 29.144ZM62.0689 27.74C62.6689 27.74 63.1449 27.54 63.4969 27.14C63.8569 26.74 64.0369 26.18 64.0369 25.46V24.164C64.0369 23.444 63.8569 22.884 63.4969 22.484C63.1449 22.084 62.6689 21.884 62.0689 21.884C61.4689 21.884 60.9889 22.084 60.6289 22.484C60.2769 22.884 60.1009 23.444 60.1009 24.164V25.46C60.1009 26.18 60.2769 26.74 60.6289 27.14C60.9889 27.54 61.4689 27.74 62.0689 27.74ZM68.9078 29H67.3238V20.624H71.1038C71.4878 20.624 71.8318 20.684 72.1358 20.804C72.4398 20.924 72.6958 21.1 72.9038 21.332C73.1198 21.556 73.2838 21.828 73.3958 22.148C73.5158 22.468 73.5758 22.824 73.5758 23.216C73.5758 23.792 73.4438 24.288 73.1798 24.704C72.9238 25.12 72.5358 25.416 72.0158 25.592L73.7318 29H71.9678L70.4078 25.772H68.9078V29ZM70.9478 24.44C71.2518 24.44 71.4918 24.36 71.6678 24.2C71.8438 24.032 71.9318 23.796 71.9318 23.492V22.94C71.9318 22.636 71.8438 22.404 71.6678 22.244C71.4918 22.084 71.2518 22.004 70.9478 22.004H68.9078V24.44H70.9478ZM80.4766 29L79.8046 26.864H76.8286L76.1686 29H74.5606L77.3686 20.624H79.3366L82.1206 29H80.4766ZM78.3406 22.064H78.2806L77.2126 25.508H79.4206L78.3406 22.064ZM85.8579 22.028V29H84.2739V22.028H81.8979V20.624H88.2339V22.028H85.8579ZM89.1243 29V27.728H90.2283V21.896H89.1243V20.624H92.9283V21.896H91.8123V27.728H92.9283V29H89.1243ZM97.8345 29.144C97.2825 29.144 96.7825 29.052 96.3345 28.868C95.8865 28.684 95.5025 28.408 95.1825 28.04C94.8705 27.672 94.6265 27.22 94.4505 26.684C94.2745 26.148 94.1865 25.524 94.1865 24.812C94.1865 24.108 94.2745 23.488 94.4505 22.952C94.6265 22.408 94.8705 21.952 95.1825 21.584C95.5025 21.216 95.8865 20.94 96.3345 20.756C96.7825 20.572 97.2825 20.48 97.8345 20.48C98.3865 20.48 98.8865 20.572 99.3345 20.756C99.7825 20.94 100.167 21.216 100.487 21.584C100.807 21.952 101.051 22.408 101.219 22.952C101.395 23.488 101.483 24.108 101.483 24.812C101.483 25.524 101.395 26.148 101.219 26.684C101.051 27.22 100.807 27.672 100.487 28.04C100.167 28.408 99.7825 28.684 99.3345 28.868C98.8865 29.052 98.3865 29.144 97.8345 29.144ZM97.8345 27.74C98.4345 27.74 98.9105 27.54 99.2625 27.14C99.6225 26.74 99.8025 26.18 99.8025 25.46V24.164C99.8025 23.444 99.6225 22.884 99.2625 22.484C98.9105 22.084 98.4345 21.884 97.8345 21.884C97.2345 21.884 96.7545 22.084 96.3945 22.484C96.0425 22.884 95.8665 23.444 95.8665 24.164V25.46C95.8665 26.18 96.0425 26.74 96.3945 27.14C96.7545 27.54 97.2345 27.74 97.8345 27.74ZM105.489 24.704L104.625 22.964H104.589V29H103.089V20.624H104.829L107.349 24.92L108.213 26.66H108.249V20.624H109.749V29H108.009L105.489 24.704ZM55.1388 45.144C54.4188 45.144 53.8068 45.016 53.3028 44.76C52.8068 44.504 52.3788 44.168 52.0188 43.752L53.0868 42.72C53.3748 43.056 53.6948 43.312 54.0468 43.488C54.4068 43.664 54.8028 43.752 55.2348 43.752C55.7228 43.752 56.0908 43.648 56.3388 43.44C56.5868 43.224 56.7108 42.936 56.7108 42.576C56.7108 42.296 56.6308 42.068 56.4708 41.892C56.3108 41.716 56.0108 41.588 55.5708 41.508L54.7788 41.388C53.1068 41.124 52.2708 40.312 52.2708 38.952C52.2708 38.576 52.3388 38.236 52.4748 37.932C52.6188 37.628 52.8228 37.368 53.0868 37.152C53.3508 36.936 53.6668 36.772 54.0348 36.66C54.4108 36.54 54.8348 36.48 55.3068 36.48C55.9388 36.48 56.4908 36.584 56.9628 36.792C57.4348 37 57.8388 37.308 58.1748 37.716L57.0948 38.736C56.8868 38.48 56.6348 38.272 56.3388 38.112C56.0428 37.952 55.6708 37.872 55.2228 37.872C54.7668 37.872 54.4228 37.96 54.1908 38.136C53.9668 38.304 53.8548 38.544 53.8548 38.856C53.8548 39.176 53.9468 39.412 54.1308 39.564C54.3148 39.716 54.6108 39.828 55.0188 39.9L55.7988 40.044C56.6468 40.196 57.2708 40.468 57.6708 40.86C58.0788 41.244 58.2828 41.784 58.2828 42.48C58.2828 42.88 58.2108 43.244 58.0668 43.572C57.9308 43.892 57.7268 44.172 57.4548 44.412C57.1908 44.644 56.8628 44.824 56.4708 44.952C56.0868 45.08 55.6428 45.144 55.1388 45.144ZM63.1587 45.144C62.6067 45.144 62.1067 45.052 61.6587 44.868C61.2107 44.684 60.8267 44.408 60.5067 44.04C60.1947 43.672 59.9507 43.22 59.7747 42.684C59.5987 42.148 59.5107 41.524 59.5107 40.812C59.5107 40.108 59.5987 39.488 59.7747 38.952C59.9507 38.408 60.1947 37.952 60.5067 37.584C60.8267 37.216 61.2107 36.94 61.6587 36.756C62.1067 36.572 62.6067 36.48 63.1587 36.48C63.7107 36.48 64.2107 36.572 64.6587 36.756C65.1067 36.94 65.4907 37.216 65.8107 37.584C66.1307 37.952 66.3747 38.408 66.5427 38.952C66.7187 39.488 66.8067 40.108 66.8067 40.812C66.8067 41.524 66.7187 42.148 66.5427 42.684C66.3747 43.22 66.1307 43.672 65.8107 44.04C65.4907 44.408 65.1067 44.684 64.6587 44.868C64.2107 45.052 63.7107 45.144 63.1587 45.144ZM63.1587 43.74C63.7587 43.74 64.2347 43.54 64.5867 43.14C64.9467 42.74 65.1267 42.18 65.1267 41.46V40.164C65.1267 39.444 64.9467 38.884 64.5867 38.484C64.2347 38.084 63.7587 37.884 63.1587 37.884C62.5587 37.884 62.0787 38.084 61.7187 38.484C61.3667 38.884 61.1907 39.444 61.1907 40.164V41.46C61.1907 42.18 61.3667 42.74 61.7187 43.14C62.0787 43.54 62.5587 43.74 63.1587 43.74ZM68.4137 45V36.624H69.9977V43.596H73.2977V45H68.4137ZM75.7848 36.624V41.772C75.7848 42.428 75.9088 42.92 76.1568 43.248C76.4128 43.576 76.8408 43.74 77.4408 43.74C78.0408 43.74 78.4648 43.576 78.7128 43.248C78.9688 42.92 79.0968 42.428 79.0968 41.772V36.624H80.6568V41.568C80.6568 42.184 80.5968 42.716 80.4768 43.164C80.3648 43.612 80.1808 43.984 79.9248 44.28C79.6688 44.576 79.3328 44.796 78.9168 44.94C78.5088 45.076 78.0128 45.144 77.4288 45.144C76.8368 45.144 76.3368 45.076 75.9288 44.94C75.5288 44.796 75.2008 44.576 74.9448 44.28C74.6888 43.984 74.5048 43.612 74.3928 43.164C74.2808 42.716 74.2248 42.184 74.2248 41.568V36.624H75.7848ZM85.8579 38.028V45H84.2739V38.028H81.8979V36.624H88.2339V38.028H85.8579ZM89.1243 45V43.728H90.2283V37.896H89.1243V36.624H92.9283V37.896H91.8123V43.728H92.9283V45H89.1243ZM97.8345 45.144C97.2825 45.144 96.7825 45.052 96.3345 44.868C95.8865 44.684 95.5025 44.408 95.1825 44.04C94.8705 43.672 94.6265 43.22 94.4505 42.684C94.2745 42.148 94.1865 41.524 94.1865 40.812C94.1865 40.108 94.2745 39.488 94.4505 38.952C94.6265 38.408 94.8705 37.952 95.1825 37.584C95.5025 37.216 95.8865 36.94 96.3345 36.756C96.7825 36.572 97.2825 36.48 97.8345 36.48C98.3865 36.48 98.8865 36.572 99.3345 36.756C99.7825 36.94 100.167 37.216 100.487 37.584C100.807 37.952 101.051 38.408 101.219 38.952C101.395 39.488 101.483 40.108 101.483 40.812C101.483 41.524 101.395 42.148 101.219 42.684C101.051 43.22 100.807 43.672 100.487 44.04C100.167 44.408 99.7825 44.684 99.3345 44.868C98.8865 45.052 98.3865 45.144 97.8345 45.144ZM97.8345 43.74C98.4345 43.74 98.9105 43.54 99.2625 43.14C99.6225 42.74 99.8025 42.18 99.8025 41.46V40.164C99.8025 39.444 99.6225 38.884 99.2625 38.484C98.9105 38.084 98.4345 37.884 97.8345 37.884C97.2345 37.884 96.7545 38.084 96.3945 38.484C96.0425 38.884 95.8665 39.444 95.8665 40.164V41.46C95.8665 42.18 96.0425 42.74 96.3945 43.14C96.7545 43.54 97.2345 43.74 97.8345 43.74ZM105.489 40.704L104.625 38.964H104.589V45H103.089V36.624H104.829L107.349 40.92L108.213 42.66H108.249V36.624H109.749V45H108.009L105.489 40.704ZM27.0969 61V59.728H28.2009V53.896H27.0969V52.624H30.9009V53.896H29.7849V59.728H30.9009V61H27.0969ZM34.9192 56.704L34.0552 54.964H34.0192V61H32.5192V52.624H34.2592L36.7792 56.92L37.6432 58.66H37.6792V52.624H39.1792V61H37.4392L34.9192 56.704ZM41.1442 52.624H44.1922C44.7362 52.624 45.2282 52.712 45.6682 52.888C46.1162 53.064 46.4962 53.328 46.8082 53.68C47.1282 54.024 47.3722 54.46 47.5402 54.988C47.7162 55.508 47.8042 56.116 47.8042 56.812C47.8042 57.508 47.7162 58.12 47.5402 58.648C47.3722 59.168 47.1282 59.604 46.8082 59.956C46.4962 60.3 46.1162 60.56 45.6682 60.736C45.2282 60.912 44.7362 61 44.1922 61H41.1442V52.624ZM44.1922 59.596C44.7842 59.596 45.2522 59.424 45.5962 59.08C45.9482 58.728 46.1242 58.192 46.1242 57.472V56.152C46.1242 55.432 45.9482 54.9 45.5962 54.556C45.2522 54.204 44.7842 54.028 44.1922 54.028H42.7282V59.596H44.1922ZM50.9176 52.624V57.772C50.9176 58.428 51.0416 58.92 51.2896 59.248C51.5456 59.576 51.9736 59.74 52.5736 59.74C53.1736 59.74 53.5976 59.576 53.8456 59.248C54.1016 58.92 54.2296 58.428 54.2296 57.772V52.624H55.7896V57.568C55.7896 58.184 55.7296 58.716 55.6096 59.164C55.4976 59.612 55.3136 59.984 55.0576 60.28C54.8016 60.576 54.4656 60.796 54.0496 60.94C53.6416 61.076 53.1456 61.144 52.5616 61.144C51.9696 61.144 51.4696 61.076 51.0616 60.94C50.6616 60.796 50.3336 60.576 50.0776 60.28C49.8216 59.984 49.6376 59.612 49.5256 59.164C49.4136 58.716 49.3576 58.184 49.3576 57.568V52.624H50.9176ZM60.3068 61.144C59.5868 61.144 58.9748 61.016 58.4708 60.76C57.9748 60.504 57.5468 60.168 57.1868 59.752L58.2548 58.72C58.5428 59.056 58.8628 59.312 59.2148 59.488C59.5748 59.664 59.9708 59.752 60.4028 59.752C60.8908 59.752 61.2588 59.648 61.5068 59.44C61.7548 59.224 61.8788 58.936 61.8788 58.576C61.8788 58.296 61.7988 58.068 61.6388 57.892C61.4788 57.716 61.1788 57.588 60.7388 57.508L59.9468 57.388C58.2748 57.124 57.4388 56.312 57.4388 54.952C57.4388 54.576 57.5068 54.236 57.6428 53.932C57.7868 53.628 57.9908 53.368 58.2548 53.152C58.5188 52.936 58.8348 52.772 59.2028 52.66C59.5788 52.54 60.0028 52.48 60.4748 52.48C61.1068 52.48 61.6588 52.584 62.1308 52.792C62.6028 53 63.0068 53.308 63.3428 53.716L62.2628 54.736C62.0548 54.48 61.8028 54.272 61.5068 54.112C61.2108 53.952 60.8388 53.872 60.3908 53.872C59.9348 53.872 59.5908 53.96 59.3588 54.136C59.1348 54.304 59.0228 54.544 59.0228 54.856C59.0228 55.176 59.1148 55.412 59.2988 55.564C59.4828 55.716 59.7788 55.828 60.1868 55.9L60.9668 56.044C61.8148 56.196 62.4388 56.468 62.8388 56.86C63.2468 57.244 63.4508 57.784 63.4508 58.48C63.4508 58.88 63.3788 59.244 63.2348 59.572C63.0988 59.892 62.8948 60.172 62.6228 60.412C62.3588 60.644 62.0308 60.824 61.6388 60.952C61.2548 61.08 60.8108 61.144 60.3068 61.144ZM68.0923 54.028V61H66.5083V54.028H64.1323V52.624H70.4683V54.028H68.0923ZM73.3493 61H71.7653V52.624H75.5453C75.9293 52.624 76.2733 52.684 76.5773 52.804C76.8813 52.924 77.1373 53.1 77.3453 53.332C77.5613 53.556 77.7253 53.828 77.8372 54.148C77.9573 54.468 78.0173 54.824 78.0173 55.216C78.0173 55.792 77.8853 56.288 77.6213 56.704C77.3653 57.12 76.9773 57.416 76.4573 57.592L78.1733 61H76.4093L74.8493 57.772H73.3493V61ZM75.3893 56.44C75.6933 56.44 75.9333 56.36 76.1093 56.2C76.2853 56.032 76.3733 55.796 76.3733 55.492V54.94C76.3733 54.636 76.2853 54.404 76.1093 54.244C75.9333 54.084 75.6933 54.004 75.3893 54.004H73.3493V56.44H75.3893ZM79.386 61V59.728H80.49V53.896H79.386V52.624H83.19V53.896H82.074V59.728H83.19V61H79.386ZM84.8082 61V52.624H90.3282V54.028H86.3922V56.056H89.8722V57.46H86.3922V59.596H90.3282V61H84.8082ZM92.0035 61V52.624H93.5875V59.596H96.8875V61H92.0035ZM98.2613 61V52.624H99.8453V59.596H103.145V61H98.2613ZM104.519 61V52.624H110.039V54.028H106.103V56.056H109.583V57.46H106.103V59.596H110.039V61H104.519Z" fill="#41637D"/>
<line x1="135.201" y1="1.64788e-08" x2="135.201" y2="190" stroke="#41637D" stroke-width="0.839895"/>
<line x1="177.195" y1="1.64788e-08" x2="177.195" y2="190" stroke="#41637D" stroke-width="0.839895"/>
<line x1="219.191" y1="1.64788e-08" x2="219.191" y2="190" stroke="#41637D" stroke-width="0.839895"/>
</svg>
