<svg width="367" height="224" viewBox="0 0 367 224" fill="none" xmlns="http://www.w3.org/2000/svg">
<path d="M259.413 220.144C258.877 220.144 258.413 220.048 258.021 219.856C257.629 219.656 257.305 219.372 257.049 219.004C256.793 218.636 256.601 218.184 256.473 217.648C256.353 217.112 256.293 216.5 256.293 215.812C256.293 215.132 256.353 214.524 256.473 213.988C256.601 213.444 256.793 212.988 257.049 212.62C257.305 212.252 257.629 211.972 258.021 211.78C258.413 211.58 258.877 211.48 259.413 211.48C260.477 211.48 261.261 211.86 261.765 212.62C262.277 213.38 262.533 214.444 262.533 215.812C262.533 217.18 262.277 218.244 261.765 219.004C261.261 219.764 260.477 220.144 259.413 220.144ZM259.413 218.812C259.949 218.812 260.321 218.612 260.529 218.212C260.745 217.804 260.853 217.256 260.853 216.568V215.056C260.853 214.368 260.745 213.824 260.529 213.424C260.321 213.016 259.949 212.812 259.413 212.812C258.877 212.812 258.501 213.016 258.285 213.424C258.077 213.824 257.973 214.368 257.973 215.056V216.568C257.973 217.256 258.077 217.804 258.285 218.212C258.501 218.612 258.877 218.812 259.413 218.812ZM265.168 220L270.976 211.624H272.368L266.56 220H265.168ZM265.744 216.232C265.064 216.232 264.544 216.032 264.184 215.632C263.832 215.224 263.656 214.632 263.656 213.856C263.656 213.08 263.832 212.492 264.184 212.092C264.544 211.684 265.064 211.48 265.744 211.48C266.424 211.48 266.94 211.684 267.292 212.092C267.644 212.492 267.82 213.08 267.82 213.856C267.82 214.632 267.644 215.224 267.292 215.632C266.94 216.032 266.424 216.232 265.744 216.232ZM265.744 215.32C266.24 215.32 266.488 214.94 266.488 214.18V213.532C266.488 212.772 266.24 212.392 265.744 212.392C265.248 212.392 265 212.772 265 213.532V214.18C265 214.94 265.248 215.32 265.744 215.32ZM271.792 220.144C271.12 220.144 270.604 219.944 270.244 219.544C269.892 219.136 269.716 218.544 269.716 217.768C269.716 216.992 269.892 216.404 270.244 216.004C270.604 215.596 271.12 215.392 271.792 215.392C272.472 215.392 272.988 215.596 273.34 216.004C273.7 216.404 273.88 216.992 273.88 217.768C273.88 218.544 273.7 219.136 273.34 219.544C272.988 219.944 272.472 220.144 271.792 220.144ZM271.792 219.232C272.288 219.232 272.536 218.852 272.536 218.092V217.444C272.536 216.684 272.288 216.304 271.792 216.304C271.296 216.304 271.048 216.684 271.048 217.444V218.092C271.048 218.852 271.296 219.232 271.792 219.232Z" fill="#41637D"/>
<path d="M299.787 212.992H296.019L295.827 215.8H295.911C295.999 215.624 296.095 215.46 296.199 215.308C296.303 215.156 296.423 215.028 296.559 214.924C296.695 214.82 296.851 214.74 297.027 214.684C297.211 214.62 297.431 214.588 297.687 214.588C298.047 214.588 298.383 214.648 298.695 214.768C299.007 214.888 299.275 215.064 299.499 215.296C299.731 215.52 299.911 215.796 300.039 216.124C300.175 216.452 300.243 216.824 300.243 217.24C300.243 217.664 300.175 218.052 300.039 218.404C299.903 218.756 299.703 219.064 299.439 219.328C299.175 219.584 298.851 219.784 298.467 219.928C298.083 220.072 297.643 220.144 297.147 220.144C296.763 220.144 296.419 220.1 296.115 220.012C295.811 219.932 295.543 219.82 295.311 219.676C295.079 219.532 294.879 219.368 294.711 219.184C294.543 218.992 294.395 218.792 294.267 218.584L295.419 217.696C295.515 217.856 295.615 218.008 295.719 218.152C295.823 218.288 295.943 218.408 296.079 218.512C296.223 218.616 296.379 218.7 296.547 218.764C296.723 218.82 296.927 218.848 297.159 218.848C297.631 218.848 297.987 218.716 298.227 218.452C298.475 218.188 298.599 217.828 298.599 217.372V217.276C298.599 216.844 298.475 216.504 298.227 216.256C297.979 216.008 297.635 215.884 297.195 215.884C296.851 215.884 296.571 215.952 296.355 216.088C296.139 216.216 295.967 216.356 295.839 216.508L294.543 216.328L294.855 211.624H299.787V212.992ZM304.403 220.144C303.867 220.144 303.403 220.048 303.011 219.856C302.619 219.656 302.295 219.372 302.039 219.004C301.783 218.636 301.591 218.184 301.463 217.648C301.343 217.112 301.283 216.5 301.283 215.812C301.283 215.132 301.343 214.524 301.463 213.988C301.591 213.444 301.783 212.988 302.039 212.62C302.295 212.252 302.619 211.972 303.011 211.78C303.403 211.58 303.867 211.48 304.403 211.48C305.467 211.48 306.251 211.86 306.755 212.62C307.267 213.38 307.523 214.444 307.523 215.812C307.523 217.18 307.267 218.244 306.755 219.004C306.251 219.764 305.467 220.144 304.403 220.144ZM304.403 218.812C304.939 218.812 305.311 218.612 305.519 218.212C305.735 217.804 305.843 217.256 305.843 216.568V215.056C305.843 214.368 305.735 213.824 305.519 213.424C305.311 213.016 304.939 212.812 304.403 212.812C303.867 212.812 303.491 213.016 303.275 213.424C303.067 213.824 302.963 214.368 302.963 215.056V216.568C302.963 217.256 303.067 217.804 303.275 218.212C303.491 218.612 303.867 218.812 304.403 218.812ZM310.158 220L315.966 211.624H317.358L311.55 220H310.158ZM310.734 216.232C310.054 216.232 309.534 216.032 309.174 215.632C308.822 215.224 308.646 214.632 308.646 213.856C308.646 213.08 308.822 212.492 309.174 212.092C309.534 211.684 310.054 211.48 310.734 211.48C311.414 211.48 311.93 211.684 312.282 212.092C312.634 212.492 312.81 213.08 312.81 213.856C312.81 214.632 312.634 215.224 312.282 215.632C311.93 216.032 311.414 216.232 310.734 216.232ZM310.734 215.32C311.23 215.32 311.478 214.94 311.478 214.18V213.532C311.478 212.772 311.23 212.392 310.734 212.392C310.238 212.392 309.99 212.772 309.99 213.532V214.18C309.99 214.94 310.238 215.32 310.734 215.32ZM316.782 220.144C316.11 220.144 315.594 219.944 315.234 219.544C314.882 219.136 314.706 218.544 314.706 217.768C314.706 216.992 314.882 216.404 315.234 216.004C315.594 215.596 316.11 215.392 316.782 215.392C317.462 215.392 317.978 215.596 318.33 216.004C318.69 216.404 318.87 216.992 318.87 217.768C318.87 218.544 318.69 219.136 318.33 219.544C317.978 219.944 317.462 220.144 316.782 220.144ZM316.782 219.232C317.278 219.232 317.526 218.852 317.526 218.092V217.444C317.526 216.684 317.278 216.304 316.782 216.304C316.286 216.304 316.038 216.684 316.038 217.444V218.092C316.038 218.852 316.286 219.232 316.782 219.232Z" fill="#41637D"/>
<path d="M333.335 220V218.716H335.639V212.764H335.531L333.707 214.924L332.723 214.096L334.799 211.624H337.187V218.716H339.107V220H333.335ZM343.038 220.144C342.502 220.144 342.038 220.048 341.646 219.856C341.254 219.656 340.93 219.372 340.674 219.004C340.418 218.636 340.226 218.184 340.098 217.648C339.978 217.112 339.918 216.5 339.918 215.812C339.918 215.132 339.978 214.524 340.098 213.988C340.226 213.444 340.418 212.988 340.674 212.62C340.93 212.252 341.254 211.972 341.646 211.78C342.038 211.58 342.502 211.48 343.038 211.48C344.102 211.48 344.886 211.86 345.39 212.62C345.902 213.38 346.158 214.444 346.158 215.812C346.158 217.18 345.902 218.244 345.39 219.004C344.886 219.764 344.102 220.144 343.038 220.144ZM343.038 218.812C343.574 218.812 343.946 218.612 344.154 218.212C344.37 217.804 344.478 217.256 344.478 216.568V215.056C344.478 214.368 344.37 213.824 344.154 213.424C343.946 213.016 343.574 212.812 343.038 212.812C342.502 212.812 342.126 213.016 341.91 213.424C341.702 213.824 341.598 214.368 341.598 215.056V216.568C341.598 217.256 341.702 217.804 341.91 218.212C342.126 218.612 342.502 218.812 343.038 218.812ZM350.234 220.144C349.698 220.144 349.234 220.048 348.842 219.856C348.45 219.656 348.126 219.372 347.87 219.004C347.614 218.636 347.422 218.184 347.294 217.648C347.174 217.112 347.114 216.5 347.114 215.812C347.114 215.132 347.174 214.524 347.294 213.988C347.422 213.444 347.614 212.988 347.87 212.62C348.126 212.252 348.45 211.972 348.842 211.78C349.234 211.58 349.698 211.48 350.234 211.48C351.298 211.48 352.082 211.86 352.586 212.62C353.098 213.38 353.354 214.444 353.354 215.812C353.354 217.18 353.098 218.244 352.586 219.004C352.082 219.764 351.298 220.144 350.234 220.144ZM350.234 218.812C350.77 218.812 351.142 218.612 351.35 218.212C351.566 217.804 351.674 217.256 351.674 216.568V215.056C351.674 214.368 351.566 213.824 351.35 213.424C351.142 213.016 350.77 212.812 350.234 212.812C349.698 212.812 349.322 213.016 349.106 213.424C348.898 213.824 348.794 214.368 348.794 215.056V216.568C348.794 217.256 348.898 217.804 349.106 218.212C349.322 218.612 349.698 218.812 350.234 218.812ZM355.989 220L361.797 211.624H363.189L357.381 220H355.989ZM356.565 216.232C355.885 216.232 355.365 216.032 355.005 215.632C354.653 215.224 354.477 214.632 354.477 213.856C354.477 213.08 354.653 212.492 355.005 212.092C355.365 211.684 355.885 211.48 356.565 211.48C357.245 211.48 357.761 211.684 358.113 212.092C358.465 212.492 358.641 213.08 358.641 213.856C358.641 214.632 358.465 215.224 358.113 215.632C357.761 216.032 357.245 216.232 356.565 216.232ZM356.565 215.32C357.061 215.32 357.309 214.94 357.309 214.18V213.532C357.309 212.772 357.061 212.392 356.565 212.392C356.069 212.392 355.821 212.772 355.821 213.532V214.18C355.821 214.94 356.069 215.32 356.565 215.32ZM362.613 220.144C361.941 220.144 361.425 219.944 361.065 219.544C360.713 219.136 360.537 218.544 360.537 217.768C360.537 216.992 360.713 216.404 361.065 216.004C361.425 215.596 361.941 215.392 362.613 215.392C363.293 215.392 363.809 215.596 364.161 216.004C364.521 216.404 364.701 216.992 364.701 217.768C364.701 218.544 364.521 219.136 364.161 219.544C363.809 219.944 363.293 220.144 362.613 220.144ZM362.613 219.232C363.109 219.232 363.357 218.852 363.357 218.092V217.444C363.357 216.684 363.109 216.304 362.613 216.304C362.117 216.304 361.869 216.684 361.869 217.444V218.092C361.869 218.852 362.117 219.232 362.613 219.232Z" fill="#41637D"/>
<line opacity="0.2" x1="273.87" y1="8" x2="273.87" y2="198" stroke="#41637D" stroke-width="0.839895"/>
<line opacity="0.2" x1="315.865" y1="8" x2="315.865" y2="198" stroke="#41637D" stroke-width="0.839895"/>
<line opacity="0.2" x1="282.27" y1="8" x2="282.27" y2="198" stroke="#41637D" stroke-width="0.839895"/>
<line opacity="0.2" x1="324.264" y1="8" x2="324.264" y2="198" stroke="#41637D" stroke-width="0.839895"/>
<line opacity="0.2" x1="290.668" y1="8" x2="290.668" y2="198" stroke="#41637D" stroke-width="0.839895"/>
<line opacity="0.2" x1="332.663" y1="8" x2="332.663" y2="198" stroke="#41637D" stroke-width="0.839895"/>
<line opacity="0.2" x1="299.067" y1="8" x2="299.067" y2="198" stroke="#41637D" stroke-width="0.839895"/>
<line opacity="0.2" x1="341.062" y1="8" x2="341.062" y2="198" stroke="#41637D" stroke-width="0.839895"/>
<rect x="265.052" y="8" width="83.9895" height="16.7979" fill="#EDEDED"/>
<rect x="265.052" y="8" width="21.8373" height="16.7979" fill="#39A4F5"/>
<path d="M201.12 12.624H204.996C205.34 12.624 205.648 12.676 205.92 12.78C206.2 12.884 206.436 13.028 206.628 13.212C206.82 13.396 206.964 13.624 207.06 13.896C207.164 14.16 207.216 14.452 207.216 14.772C207.216 15.092 207.172 15.364 207.084 15.588C207.004 15.804 206.892 15.984 206.748 16.128C206.612 16.272 206.452 16.38 206.268 16.452C206.092 16.524 205.908 16.564 205.716 16.572V16.644C205.9 16.644 206.096 16.68 206.304 16.752C206.52 16.824 206.716 16.94 206.892 17.1C207.076 17.252 207.228 17.452 207.348 17.7C207.468 17.94 207.528 18.24 207.528 18.6C207.528 18.936 207.472 19.252 207.36 19.548C207.256 19.836 207.108 20.088 206.916 20.304C206.724 20.52 206.496 20.692 206.232 20.82C205.968 20.94 205.68 21 205.368 21H201.12V12.624ZM202.704 19.656H204.912C205.216 19.656 205.452 19.58 205.62 19.428C205.788 19.268 205.872 19.04 205.872 18.744V18.336C205.872 18.04 205.788 17.812 205.62 17.652C205.452 17.492 205.216 17.412 204.912 17.412H202.704V19.656ZM202.704 16.116H204.66C204.948 16.116 205.172 16.04 205.332 15.888C205.492 15.728 205.572 15.508 205.572 15.228V14.856C205.572 14.576 205.492 14.36 205.332 14.208C205.172 14.048 204.948 13.968 204.66 13.968H202.704V16.116ZM208.729 21V19.728H209.833V13.896H208.729V12.624H212.533V13.896H211.417V19.728H212.533V21H208.729ZM214.151 12.624H218.027C218.371 12.624 218.679 12.676 218.951 12.78C219.231 12.884 219.467 13.028 219.659 13.212C219.851 13.396 219.995 13.624 220.091 13.896C220.195 14.16 220.247 14.452 220.247 14.772C220.247 15.092 220.203 15.364 220.115 15.588C220.035 15.804 219.923 15.984 219.779 16.128C219.643 16.272 219.483 16.38 219.299 16.452C219.123 16.524 218.939 16.564 218.747 16.572V16.644C218.931 16.644 219.127 16.68 219.335 16.752C219.551 16.824 219.747 16.94 219.923 17.1C220.107 17.252 220.259 17.452 220.379 17.7C220.499 17.94 220.559 18.24 220.559 18.6C220.559 18.936 220.503 19.252 220.391 19.548C220.287 19.836 220.139 20.088 219.947 20.304C219.755 20.52 219.527 20.692 219.263 20.82C218.999 20.94 218.711 21 218.399 21H214.151V12.624ZM215.735 19.656H217.943C218.247 19.656 218.483 19.58 218.651 19.428C218.819 19.268 218.903 19.04 218.903 18.744V18.336C218.903 18.04 218.819 17.812 218.651 17.652C218.483 17.492 218.247 17.412 217.943 17.412H215.735V19.656ZM215.735 16.116H217.691C217.979 16.116 218.203 16.04 218.363 15.888C218.523 15.728 218.603 15.508 218.603 15.228V14.856C218.603 14.576 218.523 14.36 218.363 14.208C218.203 14.048 217.979 13.968 217.691 13.968H215.735V16.116ZM222.108 21V12.624H223.692V19.596H226.992V21H222.108ZM228.018 21V19.728H229.122V13.896H228.018V12.624H231.822V13.896H230.706V19.728H231.822V21H228.018ZM236.728 21.144C236.176 21.144 235.676 21.052 235.228 20.868C234.78 20.684 234.396 20.408 234.076 20.04C233.764 19.672 233.52 19.22 233.344 18.684C233.168 18.148 233.08 17.524 233.08 16.812C233.08 16.108 233.168 15.488 233.344 14.952C233.52 14.408 233.764 13.952 234.076 13.584C234.396 13.216 234.78 12.94 235.228 12.756C235.676 12.572 236.176 12.48 236.728 12.48C237.28 12.48 237.78 12.572 238.228 12.756C238.676 12.94 239.06 13.216 239.38 13.584C239.7 13.952 239.944 14.408 240.112 14.952C240.288 15.488 240.376 16.108 240.376 16.812C240.376 17.524 240.288 18.148 240.112 18.684C239.944 19.22 239.7 19.672 239.38 20.04C239.06 20.408 238.676 20.684 238.228 20.868C237.78 21.052 237.28 21.144 236.728 21.144ZM236.728 19.74C237.328 19.74 237.804 19.54 238.156 19.14C238.516 18.74 238.696 18.18 238.696 17.46V16.164C238.696 15.444 238.516 14.884 238.156 14.484C237.804 14.084 237.328 13.884 236.728 13.884C236.128 13.884 235.648 14.084 235.288 14.484C234.936 14.884 234.76 15.444 234.76 16.164V17.46C234.76 18.18 234.936 18.74 235.288 19.14C235.648 19.54 236.128 19.74 236.728 19.74Z" fill="#F6851E"/>
<rect x="265.052" y="50" width="83.9895" height="16.7979" fill="#EDEDED"/>
<rect x="265.052" y="50" width="34.4357" height="16.7979" fill="#39A4F5"/>
<path d="M133.702 63.0005V54.6245H139.222V56.0285H135.286V58.0565H138.766V59.4605H135.286V61.5965H139.222V63.0005H133.702ZM136.618 54.0725L135.694 53.6165L136.834 51.3725L138.13 52.0205L136.618 54.0725ZM144.185 56.0285V63.0005H142.601V56.0285H140.225V54.6245H146.561V56.0285H144.185ZM149.358 54.6245V59.7725C149.358 60.4285 149.482 60.9205 149.73 61.2485C149.986 61.5765 150.414 61.7405 151.014 61.7405C151.614 61.7405 152.038 61.5765 152.286 61.2485C152.542 60.9205 152.67 60.4285 152.67 59.7725V54.6245H154.23V59.5685C154.23 60.1845 154.17 60.7165 154.05 61.1645C153.938 61.6125 153.754 61.9845 153.498 62.2805C153.242 62.5765 152.906 62.7965 152.49 62.9405C152.082 63.0765 151.586 63.1445 151.002 63.1445C150.41 63.1445 149.91 63.0765 149.502 62.9405C149.102 62.7965 148.774 62.5765 148.518 62.2805C148.262 61.9845 148.078 61.6125 147.966 61.1645C147.854 60.7165 147.798 60.1845 147.798 59.5685V54.6245H149.358ZM156.143 54.6245H159.191C159.735 54.6245 160.227 54.7125 160.667 54.8885C161.115 55.0645 161.495 55.3285 161.807 55.6805C162.127 56.0245 162.371 56.4605 162.539 56.9885C162.715 57.5085 162.803 58.1165 162.803 58.8125C162.803 59.5085 162.715 60.1205 162.539 60.6485C162.371 61.1685 162.127 61.6045 161.807 61.9565C161.495 62.3005 161.115 62.5605 160.667 62.7365C160.227 62.9125 159.735 63.0005 159.191 63.0005H156.143V54.6245ZM159.191 61.5965C159.783 61.5965 160.251 61.4245 160.595 61.0805C160.947 60.7285 161.123 60.1925 161.123 59.4725V58.1525C161.123 57.4325 160.947 56.9005 160.595 56.5565C160.251 56.2045 159.783 56.0285 159.191 56.0285H157.727V61.5965H159.191ZM164.417 63.0005V54.6245H169.937V56.0285H166.001V58.0565H169.481V59.4605H166.001V61.5965H169.937V63.0005H164.417ZM174.448 54.6245H177.496C178.04 54.6245 178.532 54.7125 178.972 54.8885C179.42 55.0645 179.8 55.3285 180.112 55.6805C180.432 56.0245 180.676 56.4605 180.844 56.9885C181.02 57.5085 181.108 58.1165 181.108 58.8125C181.108 59.5085 181.02 60.1205 180.844 60.6485C180.676 61.1685 180.432 61.6045 180.112 61.9565C179.8 62.3005 179.42 62.5605 178.972 62.7365C178.532 62.9125 178.04 63.0005 177.496 63.0005H174.448V54.6245ZM177.496 61.5965C178.088 61.5965 178.556 61.4245 178.9 61.0805C179.252 60.7285 179.428 60.1925 179.428 59.4725V58.1525C179.428 57.4325 179.252 56.9005 178.9 56.5565C178.556 56.2045 178.088 56.0285 177.496 56.0285H176.032V61.5965H177.496ZM182.721 63.0005V54.6245H188.241V56.0285H184.305V58.0565H187.785V59.4605H184.305V61.5965H188.241V63.0005H182.721ZM199.077 56.9885H199.029L198.381 58.3205L196.665 61.4885L194.949 58.3205L194.301 56.9885H194.253V63.0005H192.753V54.6245H194.541L196.689 58.7165H196.737L198.861 54.6245H200.577V63.0005H199.077V56.9885ZM207.733 63.0005L207.061 60.8645H204.085L203.425 63.0005H201.817L204.625 54.6245H206.593L209.377 63.0005H207.733ZM205.597 56.0645H205.537L204.469 59.5085H206.677L205.597 56.0645ZM212.196 63.0005H210.612V54.6245H214.392C214.776 54.6245 215.12 54.6845 215.424 54.8045C215.728 54.9245 215.984 55.1005 216.192 55.3325C216.408 55.5565 216.572 55.8285 216.684 56.1485C216.804 56.4685 216.864 56.8245 216.864 57.2165C216.864 57.7925 216.732 58.2885 216.468 58.7045C216.212 59.1205 215.824 59.4165 215.304 59.5925L217.02 63.0005H215.256L213.696 59.7725H212.196V63.0005ZM214.236 58.4405C214.54 58.4405 214.78 58.3605 214.956 58.2005C215.132 58.0325 215.22 57.7965 215.22 57.4925V56.9405C215.22 56.6365 215.132 56.4045 214.956 56.2445C214.78 56.0845 214.54 56.0045 214.236 56.0045H212.196V58.4405H214.236ZM221.715 63.1445C221.163 63.1445 220.663 63.0565 220.215 62.8805C219.775 62.6965 219.395 62.4245 219.075 62.0645C218.763 61.7045 218.523 61.2605 218.355 60.7325C218.187 60.1965 218.103 59.5765 218.103 58.8725C218.103 58.1685 218.187 57.5445 218.355 57.0005C218.523 56.4485 218.763 55.9885 219.075 55.6205C219.395 55.2445 219.775 54.9605 220.215 54.7685C220.663 54.5765 221.163 54.4805 221.715 54.4805C222.467 54.4805 223.091 54.6405 223.587 54.9605C224.083 55.2805 224.479 55.7645 224.775 56.4125L223.419 57.1325C223.299 56.7565 223.103 56.4565 222.831 56.2325C222.559 56.0005 222.187 55.8845 221.715 55.8845C221.123 55.8845 220.651 56.0845 220.299 56.4845C219.955 56.8845 219.783 57.4445 219.783 58.1645V59.4845C219.783 60.2125 219.955 60.7725 220.299 61.1645C220.651 61.5485 221.123 61.7405 221.715 61.7405C222.187 61.7405 222.571 61.6125 222.867 61.3565C223.171 61.1005 223.391 60.7845 223.527 60.4085L224.811 61.1645C224.507 61.7885 224.103 62.2765 223.599 62.6285C223.095 62.9725 222.467 63.1445 221.715 63.1445ZM231.239 59.4605H227.747V63.0005H226.163V54.6245H227.747V58.0565H231.239V54.6245H232.823V63.0005H231.239V59.4605ZM234.788 63.0005V54.6245H240.308V56.0285H236.372V58.0565H239.852V59.4605H236.372V61.5965H240.308V63.0005H234.788ZM237.704 54.0725L236.78 53.6165L237.92 51.3725L239.216 52.0205L237.704 54.0725Z" fill="#41637D"/>
<rect x="265.052" y="90" width="83.9895" height="16.7979" fill="#EDEDED"/>
<rect x="265.052" y="90" width="17.6378" height="16.7979" fill="#39A4F5"/>
<path d="M99.1212 103.144C98.4012 103.144 97.7892 103.016 97.2852 102.76C96.7892 102.504 96.3612 102.168 96.0012 101.752L97.0692 100.72C97.3572 101.056 97.6772 101.312 98.0292 101.488C98.3892 101.664 98.7852 101.752 99.2172 101.752C99.7052 101.752 100.073 101.648 100.321 101.44C100.569 101.224 100.693 100.936 100.693 100.576C100.693 100.296 100.613 100.068 100.453 99.892C100.293 99.716 99.9932 99.588 99.5532 99.508L98.7612 99.388C97.0892 99.124 96.2532 98.312 96.2532 96.952C96.2532 96.576 96.3212 96.236 96.4572 95.932C96.6012 95.628 96.8052 95.368 97.0692 95.152C97.3332 94.936 97.6492 94.772 98.0172 94.66C98.3932 94.54 98.8172 94.48 99.2892 94.48C99.9212 94.48 100.473 94.584 100.945 94.792C101.417 95 101.821 95.308 102.157 95.716L101.077 96.736C100.869 96.48 100.617 96.272 100.321 96.112C100.025 95.952 99.6532 95.872 99.2052 95.872C98.7492 95.872 98.4052 95.96 98.1732 96.136C97.9492 96.304 97.8372 96.544 97.8372 96.856C97.8372 97.176 97.9292 97.412 98.1132 97.564C98.2972 97.716 98.5932 97.828 99.0012 97.9L99.7812 98.044C100.629 98.196 101.253 98.468 101.653 98.86C102.061 99.244 102.265 99.784 102.265 100.48C102.265 100.88 102.193 101.244 102.049 101.572C101.913 101.892 101.709 102.172 101.437 102.412C101.173 102.644 100.845 102.824 100.453 102.952C100.069 103.08 99.6252 103.144 99.1212 103.144ZM107.141 103.144C106.589 103.144 106.089 103.052 105.641 102.868C105.193 102.684 104.809 102.408 104.489 102.04C104.177 101.672 103.933 101.22 103.757 100.684C103.581 100.148 103.493 99.524 103.493 98.812C103.493 98.108 103.581 97.488 103.757 96.952C103.933 96.408 104.177 95.952 104.489 95.584C104.809 95.216 105.193 94.94 105.641 94.756C106.089 94.572 106.589 94.48 107.141 94.48C107.693 94.48 108.193 94.572 108.641 94.756C109.089 94.94 109.473 95.216 109.793 95.584C110.113 95.952 110.357 96.408 110.525 96.952C110.701 97.488 110.789 98.108 110.789 98.812C110.789 99.524 110.701 100.148 110.525 100.684C110.357 101.22 110.113 101.672 109.793 102.04C109.473 102.408 109.089 102.684 108.641 102.868C108.193 103.052 107.693 103.144 107.141 103.144ZM107.141 101.74C107.741 101.74 108.217 101.54 108.569 101.14C108.929 100.74 109.109 100.18 109.109 99.46V98.164C109.109 97.444 108.929 96.884 108.569 96.484C108.217 96.084 107.741 95.884 107.141 95.884C106.541 95.884 106.061 96.084 105.701 96.484C105.349 96.884 105.173 97.444 105.173 98.164V99.46C105.173 100.18 105.349 100.74 105.701 101.14C106.061 101.54 106.541 101.74 107.141 101.74ZM113.896 94.624V99.772C113.896 100.428 114.02 100.92 114.268 101.248C114.524 101.576 114.952 101.74 115.552 101.74C116.152 101.74 116.576 101.576 116.824 101.248C117.08 100.92 117.208 100.428 117.208 99.772V94.624H118.768V99.568C118.768 100.184 118.708 100.716 118.588 101.164C118.476 101.612 118.292 101.984 118.036 102.28C117.78 102.576 117.444 102.796 117.028 102.94C116.62 103.076 116.124 103.144 115.54 103.144C114.948 103.144 114.448 103.076 114.04 102.94C113.64 102.796 113.312 102.576 113.056 102.28C112.8 101.984 112.616 101.612 112.504 101.164C112.392 100.716 112.336 100.184 112.336 99.568V94.624H113.896ZM122.265 103H120.681V94.624H124.461C124.845 94.624 125.189 94.684 125.493 94.804C125.797 94.924 126.053 95.1 126.261 95.332C126.477 95.556 126.641 95.828 126.753 96.148C126.873 96.468 126.933 96.824 126.933 97.216C126.933 97.792 126.801 98.288 126.537 98.704C126.281 99.12 125.893 99.416 125.373 99.592L127.089 103H125.325L123.765 99.772H122.265V103ZM124.305 98.44C124.609 98.44 124.849 98.36 125.025 98.2C125.201 98.032 125.289 97.796 125.289 97.492V96.94C125.289 96.636 125.201 96.404 125.025 96.244C124.849 96.084 124.609 96.004 124.305 96.004H122.265V98.44H124.305ZM131.785 103.144C131.233 103.144 130.733 103.056 130.285 102.88C129.845 102.696 129.465 102.424 129.145 102.064C128.833 101.704 128.593 101.26 128.425 100.732C128.257 100.196 128.173 99.576 128.173 98.872C128.173 98.168 128.257 97.544 128.425 97C128.593 96.448 128.833 95.988 129.145 95.62C129.465 95.244 129.845 94.96 130.285 94.768C130.733 94.576 131.233 94.48 131.785 94.48C132.537 94.48 133.161 94.64 133.657 94.96C134.153 95.28 134.549 95.764 134.845 96.412L133.489 97.132C133.369 96.756 133.173 96.456 132.901 96.232C132.629 96 132.257 95.884 131.785 95.884C131.193 95.884 130.721 96.084 130.369 96.484C130.025 96.884 129.853 97.444 129.853 98.164V99.484C129.853 100.212 130.025 100.772 130.369 101.164C130.721 101.548 131.193 101.74 131.785 101.74C132.257 101.74 132.641 101.612 132.937 101.356C133.241 101.1 133.461 100.784 133.597 100.408L134.881 101.164C134.577 101.788 134.173 102.276 133.669 102.628C133.165 102.972 132.537 103.144 131.785 103.144ZM135.884 103V101.728H136.988V95.896H135.884V94.624H139.688V95.896H138.572V101.728H139.688V103H135.884ZM143.706 98.704L142.842 96.964H142.806V103H141.306V94.624H143.046L145.566 98.92L146.43 100.66H146.466V94.624H147.966V103H146.226L143.706 98.704ZM155.271 101.704H155.223C155.151 102.112 154.923 102.456 154.539 102.736C154.163 103.008 153.659 103.144 153.027 103.144C152.531 103.144 152.071 103.052 151.647 102.868C151.231 102.684 150.867 102.412 150.555 102.052C150.251 101.684 150.011 101.232 149.835 100.696C149.659 100.16 149.571 99.54 149.571 98.836C149.571 98.132 149.659 97.512 149.835 96.976C150.019 96.432 150.275 95.976 150.603 95.608C150.931 95.24 151.323 94.96 151.779 94.768C152.235 94.576 152.743 94.48 153.303 94.48C154.055 94.48 154.695 94.644 155.223 94.972C155.751 95.3 156.167 95.772 156.471 96.388L155.187 97.144C155.035 96.784 154.807 96.484 154.503 96.244C154.207 96.004 153.807 95.884 153.303 95.884C152.679 95.884 152.179 96.076 151.803 96.46C151.435 96.836 151.251 97.396 151.251 98.14V99.484C151.251 100.22 151.439 100.78 151.815 101.164C152.191 101.548 152.695 101.74 153.327 101.74C153.575 101.74 153.807 101.712 154.023 101.656C154.239 101.592 154.427 101.5 154.587 101.38C154.747 101.26 154.875 101.112 154.971 100.936C155.067 100.76 155.115 100.552 155.115 100.312V99.772H153.471V98.44H156.639V103H155.271V101.704ZM161.31 94.624H164.358C164.902 94.624 165.394 94.712 165.834 94.888C166.282 95.064 166.662 95.328 166.974 95.68C167.294 96.024 167.538 96.46 167.706 96.988C167.882 97.508 167.97 98.116 167.97 98.812C167.97 99.508 167.882 100.12 167.706 100.648C167.538 101.168 167.294 101.604 166.974 101.956C166.662 102.3 166.282 102.56 165.834 102.736C165.394 102.912 164.902 103 164.358 103H161.31V94.624ZM164.358 101.596C164.95 101.596 165.418 101.424 165.762 101.08C166.114 100.728 166.29 100.192 166.29 99.472V98.152C166.29 97.432 166.114 96.9 165.762 96.556C165.418 96.204 164.95 96.028 164.358 96.028H162.894V101.596H164.358ZM169.584 103V94.624H175.104V96.028H171.168V98.056H174.648V99.46H171.168V101.596H175.104V103H169.584ZM179.615 103V94.624H181.199V101.596H184.499V103H179.615ZM191.268 103L190.596 100.864H187.62L186.96 103H185.352L188.16 94.624H190.128L192.912 103H191.268ZM189.132 96.064H189.072L188.004 99.508H190.212L189.132 96.064ZM196.982 103V94.624H200.75C201.134 94.624 201.478 94.688 201.782 94.816C202.094 94.936 202.358 95.112 202.574 95.344C202.79 95.568 202.954 95.84 203.066 96.16C203.178 96.48 203.234 96.832 203.234 97.216C203.234 97.608 203.178 97.964 203.066 98.284C202.954 98.596 202.79 98.868 202.574 99.1C202.358 99.324 202.094 99.5 201.782 99.628C201.478 99.748 201.134 99.808 200.75 99.808H198.566V103H196.982ZM198.566 98.44H200.606C200.91 98.44 201.15 98.36 201.326 98.2C201.502 98.032 201.59 97.796 201.59 97.492V96.94C201.59 96.636 201.502 96.404 201.326 96.244C201.15 96.084 200.91 96.004 200.606 96.004H198.566V98.44ZM204.67 103V94.624H206.254V101.596H209.554V103H204.67ZM216.322 103L215.65 100.864H212.674L212.014 103H210.406L213.214 94.624H215.182L217.966 103H216.322ZM214.186 96.064H214.126L213.058 99.508H215.266L214.186 96.064ZM221.601 98.704L220.737 96.964H220.701V103H219.201V94.624H220.941L223.461 98.92L224.325 100.66H224.361V94.624H225.861V103H224.121L221.601 98.704ZM231.114 96.028V103H229.53V96.028H227.154V94.624H233.49V96.028H231.114ZM234.787 103V94.624H240.307V96.028H236.371V98.056H239.851V99.46H236.371V101.596H240.307V103H234.787Z" fill="#41637D"/>
<rect x="265.052" y="172" width="83.9895" height="16.7979" fill="#EDEDED"/>
<rect x="265.052" y="172" width="13.4383" height="16.7979" fill="#39A4F5"/>
<path d="M45.0446 185.144C44.4926 185.144 43.9926 185.056 43.5446 184.88C43.1046 184.696 42.7246 184.424 42.4046 184.064C42.0926 183.704 41.8526 183.26 41.6846 182.732C41.5166 182.196 41.4326 181.576 41.4326 180.872C41.4326 180.168 41.5166 179.544 41.6846 179C41.8526 178.448 42.0926 177.988 42.4046 177.62C42.7246 177.244 43.1046 176.96 43.5446 176.768C43.9926 176.576 44.4926 176.48 45.0446 176.48C45.7966 176.48 46.4206 176.64 46.9166 176.96C47.4126 177.28 47.8086 177.764 48.1046 178.412L46.7486 179.132C46.6286 178.756 46.4326 178.456 46.1606 178.232C45.8886 178 45.5166 177.884 45.0446 177.884C44.4526 177.884 43.9806 178.084 43.6286 178.484C43.2846 178.884 43.1126 179.444 43.1126 180.164V181.484C43.1126 182.212 43.2846 182.772 43.6286 183.164C43.9806 183.548 44.4526 183.74 45.0446 183.74C45.5166 183.74 45.9006 183.612 46.1966 183.356C46.5006 183.1 46.7206 182.784 46.8566 182.408L48.1406 183.164C47.8366 183.788 47.4326 184.276 46.9286 184.628C46.4246 184.972 45.7966 185.144 45.0446 185.144ZM52.6275 185.144C52.0755 185.144 51.5755 185.052 51.1275 184.868C50.6795 184.684 50.2955 184.408 49.9755 184.04C49.6635 183.672 49.4195 183.22 49.2435 182.684C49.0675 182.148 48.9795 181.524 48.9795 180.812C48.9795 180.108 49.0675 179.488 49.2435 178.952C49.4195 178.408 49.6635 177.952 49.9755 177.584C50.2955 177.216 50.6795 176.94 51.1275 176.756C51.5755 176.572 52.0755 176.48 52.6275 176.48C53.1795 176.48 53.6795 176.572 54.1275 176.756C54.5755 176.94 54.9595 177.216 55.2795 177.584C55.5995 177.952 55.8435 178.408 56.0115 178.952C56.1875 179.488 56.2755 180.108 56.2755 180.812C56.2755 181.524 56.1875 182.148 56.0115 182.684C55.8435 183.22 55.5995 183.672 55.2795 184.04C54.9595 184.408 54.5755 184.684 54.1275 184.868C53.6795 185.052 53.1795 185.144 52.6275 185.144ZM52.6275 183.74C53.2275 183.74 53.7035 183.54 54.0555 183.14C54.4155 182.74 54.5955 182.18 54.5955 181.46V180.164C54.5955 179.444 54.4155 178.884 54.0555 178.484C53.7035 178.084 53.2275 177.884 52.6275 177.884C52.0275 177.884 51.5475 178.084 51.1875 178.484C50.8355 178.884 50.6595 179.444 50.6595 180.164V181.46C50.6595 182.18 50.8355 182.74 51.1875 183.14C51.5475 183.54 52.0275 183.74 52.6275 183.74ZM60.2824 180.704L59.4184 178.964H59.3824V185H57.8824V176.624H59.6224L62.1424 180.92L63.0064 182.66H63.0424V176.624H64.5424V185H62.8024L60.2824 180.704ZM69.7954 178.028V185H68.2114V178.028H65.8354V176.624H72.1714V178.028H69.7954ZM75.0524 185H73.4684V176.624H77.2484C77.6324 176.624 77.9764 176.684 78.2804 176.804C78.5844 176.924 78.8404 177.1 79.0484 177.332C79.2644 177.556 79.4284 177.828 79.5404 178.148C79.6604 178.468 79.7204 178.824 79.7204 179.216C79.7204 179.792 79.5884 180.288 79.3244 180.704C79.0684 181.12 78.6804 181.416 78.1604 181.592L79.8764 185H78.1124L76.5524 181.772H75.0524V185ZM77.0924 180.44C77.3964 180.44 77.6364 180.36 77.8124 180.2C77.9884 180.032 78.0764 179.796 78.0764 179.492V178.94C78.0764 178.636 77.9884 178.404 77.8124 178.244C77.6364 178.084 77.3964 178.004 77.0924 178.004H75.0524V180.44H77.0924ZM86.6211 185L85.9491 182.864H82.9731L82.3131 185H80.7051L83.5131 176.624H85.4811L88.2651 185H86.6211ZM84.4851 178.064H84.4251L83.3571 181.508H85.5651L84.4851 178.064ZM89.1516 185V183.728H90.2556V177.896H89.1516V176.624H92.9556V177.896H91.8396V183.728H92.9556V185H89.1516ZM96.9738 180.704L96.1098 178.964H96.0738V185H94.5738V176.624H96.3138L98.8338 180.92L99.6978 182.66H99.7338V176.624H101.234V185H99.4938L96.9738 180.704ZM106.487 178.028V185H104.903V178.028H102.527V176.624H108.863V178.028H106.487ZM110.16 185V176.624H115.68V178.028H111.744V180.056H115.224V181.46H111.744V183.596H115.68V185H110.16ZM119.959 185.144C119.239 185.144 118.627 185.016 118.123 184.76C117.627 184.504 117.199 184.168 116.839 183.752L117.907 182.72C118.195 183.056 118.515 183.312 118.867 183.488C119.227 183.664 119.623 183.752 120.055 183.752C120.543 183.752 120.911 183.648 121.159 183.44C121.407 183.224 121.531 182.936 121.531 182.576C121.531 182.296 121.451 182.068 121.291 181.892C121.131 181.716 120.831 181.588 120.391 181.508L119.599 181.388C117.927 181.124 117.091 180.312 117.091 178.952C117.091 178.576 117.159 178.236 117.295 177.932C117.439 177.628 117.643 177.368 117.907 177.152C118.171 176.936 118.487 176.772 118.855 176.66C119.231 176.54 119.655 176.48 120.127 176.48C120.759 176.48 121.311 176.584 121.783 176.792C122.255 177 122.659 177.308 122.995 177.716L121.915 178.736C121.707 178.48 121.455 178.272 121.159 178.112C120.863 177.952 120.491 177.872 120.043 177.872C119.587 177.872 119.243 177.96 119.011 178.136C118.787 178.304 118.675 178.544 118.675 178.856C118.675 179.176 118.767 179.412 118.951 179.564C119.135 179.716 119.431 179.828 119.839 179.9L120.619 180.044C121.467 180.196 122.091 180.468 122.491 180.86C122.899 181.244 123.103 181.784 123.103 182.48C123.103 182.88 123.031 183.244 122.887 183.572C122.751 183.892 122.547 184.172 122.275 184.412C122.011 184.644 121.683 184.824 121.291 184.952C120.907 185.08 120.463 185.144 119.959 185.144ZM130.779 185.144C130.227 185.144 129.727 185.056 129.279 184.88C128.839 184.696 128.459 184.424 128.139 184.064C127.827 183.704 127.587 183.26 127.419 182.732C127.251 182.196 127.167 181.576 127.167 180.872C127.167 180.168 127.251 179.544 127.419 179C127.587 178.448 127.827 177.988 128.139 177.62C128.459 177.244 128.839 176.96 129.279 176.768C129.727 176.576 130.227 176.48 130.779 176.48C131.531 176.48 132.155 176.64 132.651 176.96C133.147 177.28 133.543 177.764 133.839 178.412L132.483 179.132C132.363 178.756 132.167 178.456 131.895 178.232C131.623 178 131.251 177.884 130.779 177.884C130.187 177.884 129.715 178.084 129.363 178.484C129.019 178.884 128.847 179.444 128.847 180.164V181.484C128.847 182.212 129.019 182.772 129.363 183.164C129.715 183.548 130.187 183.74 130.779 183.74C131.251 183.74 131.635 183.612 131.931 183.356C132.235 183.1 132.455 182.784 132.591 182.408L133.875 183.164C133.571 183.788 133.167 184.276 132.663 184.628C132.159 184.972 131.531 185.144 130.779 185.144ZM138.362 185.144C137.81 185.144 137.31 185.052 136.862 184.868C136.414 184.684 136.03 184.408 135.71 184.04C135.398 183.672 135.154 183.22 134.978 182.684C134.802 182.148 134.714 181.524 134.714 180.812C134.714 180.108 134.802 179.488 134.978 178.952C135.154 178.408 135.398 177.952 135.71 177.584C136.03 177.216 136.414 176.94 136.862 176.756C137.31 176.572 137.81 176.48 138.362 176.48C138.914 176.48 139.414 176.572 139.862 176.756C140.31 176.94 140.694 177.216 141.014 177.584C141.334 177.952 141.578 178.408 141.746 178.952C141.922 179.488 142.01 180.108 142.01 180.812C142.01 181.524 141.922 182.148 141.746 182.684C141.578 183.22 141.334 183.672 141.014 184.04C140.694 184.408 140.31 184.684 139.862 184.868C139.414 185.052 138.914 185.144 138.362 185.144ZM138.362 183.74C138.962 183.74 139.438 183.54 139.79 183.14C140.15 182.74 140.33 182.18 140.33 181.46V180.164C140.33 179.444 140.15 178.884 139.79 178.484C139.438 178.084 138.962 177.884 138.362 177.884C137.762 177.884 137.282 178.084 136.922 178.484C136.57 178.884 136.394 179.444 136.394 180.164V181.46C136.394 182.18 136.57 182.74 136.922 183.14C137.282 183.54 137.762 183.74 138.362 183.74ZM149.941 178.988H149.893L149.245 180.32L147.529 183.488L145.813 180.32L145.165 178.988H145.117V185H143.617V176.624H145.405L147.553 180.716H147.601L149.725 176.624H151.441V185H149.941V178.988ZM153.414 185V176.624H157.182C157.566 176.624 157.91 176.688 158.214 176.816C158.526 176.936 158.79 177.112 159.006 177.344C159.222 177.568 159.386 177.84 159.498 178.16C159.61 178.48 159.666 178.832 159.666 179.216C159.666 179.608 159.61 179.964 159.498 180.284C159.386 180.596 159.222 180.868 159.006 181.1C158.79 181.324 158.526 181.5 158.214 181.628C157.91 181.748 157.566 181.808 157.182 181.808H154.998V185H153.414ZM154.998 180.44H157.038C157.342 180.44 157.582 180.36 157.758 180.2C157.934 180.032 158.022 179.796 158.022 179.492V178.94C158.022 178.636 157.934 178.404 157.758 178.244C157.582 178.084 157.342 178.004 157.038 178.004H154.998V180.44ZM161.101 185V176.624H162.685V183.596H165.985V185H161.101ZM167.359 185V176.624H172.879V178.028H168.943V180.056H172.423V181.46H168.943V183.596H172.879V185H167.359ZM170.275 176.072L169.351 175.616L170.491 173.372L171.787 174.02L170.275 176.072ZM180.878 178.988H180.83L180.182 180.32L178.466 183.488L176.75 180.32L176.102 178.988H176.054V185H174.554V176.624H176.342L178.49 180.716H178.538L180.662 176.624H182.378V185H180.878V178.988ZM184.351 185V176.624H189.871V178.028H185.935V180.056H189.415V181.46H185.935V183.596H189.871V185H184.351ZM193.947 180.704L193.083 178.964H193.047V185H191.547V176.624H193.287L195.807 180.92L196.671 182.66H196.707V176.624H198.207V185H196.467L193.947 180.704ZM203.46 178.028V185H201.876V178.028H199.5V176.624H205.836V178.028H203.46ZM211.531 185L210.859 182.864H207.883L207.223 185H205.615L208.423 176.624H210.391L213.175 185H211.531ZM209.395 178.064H209.335L208.267 181.508H210.475L209.395 178.064ZM214.062 185V183.728H215.166V177.896H214.062V176.624H217.866V177.896H216.75V183.728H217.866V185H214.062ZM221.068 185H219.484V176.624H223.264C223.648 176.624 223.992 176.684 224.296 176.804C224.6 176.924 224.856 177.1 225.064 177.332C225.28 177.556 225.444 177.828 225.556 178.148C225.676 178.468 225.736 178.824 225.736 179.216C225.736 179.792 225.604 180.288 225.34 180.704C225.084 181.12 224.696 181.416 224.176 181.592L225.892 185H224.128L222.568 181.772H221.068V185ZM223.108 180.44C223.412 180.44 223.652 180.36 223.828 180.2C224.004 180.032 224.092 179.796 224.092 179.492V178.94C224.092 178.636 224.004 178.404 223.828 178.244C223.652 178.084 223.412 178.004 223.108 178.004H221.068V180.44H223.108ZM227.453 185V176.624H232.973V178.028H229.037V180.056H232.517V181.46H229.037V183.596H232.973V185H227.453ZM237.252 185.144C236.532 185.144 235.92 185.016 235.416 184.76C234.92 184.504 234.492 184.168 234.132 183.752L235.2 182.72C235.488 183.056 235.808 183.312 236.16 183.488C236.52 183.664 236.916 183.752 237.348 183.752C237.836 183.752 238.204 183.648 238.452 183.44C238.7 183.224 238.824 182.936 238.824 182.576C238.824 182.296 238.744 182.068 238.584 181.892C238.424 181.716 238.124 181.588 237.684 181.508L236.892 181.388C235.22 181.124 234.384 180.312 234.384 178.952C234.384 178.576 234.452 178.236 234.588 177.932C234.732 177.628 234.936 177.368 235.2 177.152C235.464 176.936 235.78 176.772 236.148 176.66C236.524 176.54 236.948 176.48 237.42 176.48C238.052 176.48 238.604 176.584 239.076 176.792C239.548 177 239.952 177.308 240.288 177.716L239.208 178.736C239 178.48 238.748 178.272 238.452 178.112C238.156 177.952 237.784 177.872 237.336 177.872C236.88 177.872 236.536 177.96 236.304 178.136C236.08 178.304 235.968 178.544 235.968 178.856C235.968 179.176 236.06 179.412 236.244 179.564C236.428 179.716 236.724 179.828 237.132 179.9L237.912 180.044C238.76 180.196 239.384 180.468 239.784 180.86C240.192 181.244 240.396 181.784 240.396 182.48C240.396 182.88 240.324 183.244 240.18 183.572C240.044 183.892 239.84 184.172 239.568 184.412C239.304 184.644 238.976 184.824 238.584 184.952C238.2 185.08 237.756 185.144 237.252 185.144Z" fill="#F6851E"/>
<rect x="265.052" y="131.798" width="83.9895" height="16.7979" fill="#EDEDED"/>
<rect x="265.052" y="131.798" width="9.23884" height="16.7979" fill="#39A4F5"/>
<path d="M111.39 119.624H115.266C115.61 119.624 115.918 119.676 116.19 119.78C116.47 119.884 116.706 120.028 116.898 120.212C117.09 120.396 117.234 120.624 117.33 120.896C117.434 121.16 117.486 121.452 117.486 121.772C117.486 122.092 117.442 122.364 117.354 122.588C117.274 122.804 117.162 122.984 117.018 123.128C116.882 123.272 116.722 123.38 116.538 123.452C116.362 123.524 116.178 123.564 115.986 123.572V123.644C116.17 123.644 116.366 123.68 116.574 123.752C116.79 123.824 116.986 123.94 117.162 124.1C117.346 124.252 117.498 124.452 117.618 124.7C117.738 124.94 117.798 125.24 117.798 125.6C117.798 125.936 117.742 126.252 117.63 126.548C117.526 126.836 117.378 127.088 117.186 127.304C116.994 127.52 116.766 127.692 116.502 127.82C116.238 127.94 115.95 128 115.638 128H111.39V119.624ZM112.974 126.656H115.182C115.486 126.656 115.722 126.58 115.89 126.428C116.058 126.268 116.142 126.04 116.142 125.744V125.336C116.142 125.04 116.058 124.812 115.89 124.652C115.722 124.492 115.486 124.412 115.182 124.412H112.974V126.656ZM112.974 123.116H114.93C115.218 123.116 115.442 123.04 115.602 122.888C115.762 122.728 115.842 122.508 115.842 122.228V121.856C115.842 121.576 115.762 121.36 115.602 121.208C115.442 121.048 115.218 120.968 114.93 120.968H112.974V123.116ZM120.931 128H119.347V119.624H123.127C123.511 119.624 123.855 119.684 124.159 119.804C124.463 119.924 124.719 120.1 124.927 120.332C125.143 120.556 125.307 120.828 125.419 121.148C125.539 121.468 125.599 121.824 125.599 122.216C125.599 122.792 125.467 123.288 125.203 123.704C124.947 124.12 124.559 124.416 124.039 124.592L125.755 128H123.991L122.431 124.772H120.931V128ZM122.971 123.44C123.275 123.44 123.515 123.36 123.691 123.2C123.867 123.032 123.955 122.796 123.955 122.492V121.94C123.955 121.636 123.867 121.404 123.691 121.244C123.515 121.084 123.275 121.004 122.971 121.004H120.931V123.44H122.971ZM127.316 128V119.624H132.836V121.028H128.9V123.056H132.38V124.46H128.9V126.596H132.836V128H127.316ZM136.42 128L133.684 119.624H135.304L136.588 123.704L137.332 126.488H137.368L138.1 123.704L139.384 119.624H140.956L138.22 128H136.42ZM142.129 128V119.624H147.649V121.028H143.713V123.056H147.193V124.46H143.713V126.596H147.649V128H142.129ZM152.612 121.028V128H151.028V121.028H148.652V119.624H154.988V121.028H152.612ZM158.197 129.812L161.641 119.12H162.925L159.481 129.812H158.197ZM167.195 128V119.624H170.963C171.347 119.624 171.691 119.688 171.995 119.816C172.307 119.936 172.571 120.112 172.787 120.344C173.003 120.568 173.167 120.84 173.279 121.16C173.391 121.48 173.447 121.832 173.447 122.216C173.447 122.608 173.391 122.964 173.279 123.284C173.167 123.596 173.003 123.868 172.787 124.1C172.571 124.324 172.307 124.5 171.995 124.628C171.691 124.748 171.347 124.808 170.963 124.808H168.779V128H167.195ZM168.779 123.44H170.819C171.123 123.44 171.363 123.36 171.539 123.2C171.715 123.032 171.803 122.796 171.803 122.492V121.94C171.803 121.636 171.715 121.404 171.539 121.244C171.363 121.084 171.123 121.004 170.819 121.004H168.779V123.44ZM176.466 128H174.882V119.624H178.662C179.046 119.624 179.39 119.684 179.694 119.804C179.998 119.924 180.254 120.1 180.462 120.332C180.678 120.556 180.842 120.828 180.954 121.148C181.074 121.468 181.134 121.824 181.134 122.216C181.134 122.792 181.002 123.288 180.738 123.704C180.482 124.12 180.094 124.416 179.574 124.592L181.29 128H179.526L177.966 124.772H176.466V128ZM178.506 123.44C178.81 123.44 179.05 123.36 179.226 123.2C179.402 123.032 179.49 122.796 179.49 122.492V121.94C179.49 121.636 179.402 121.404 179.226 121.244C179.05 121.084 178.81 121.004 178.506 121.004H176.466V123.44H178.506ZM186.022 128.144C185.47 128.144 184.97 128.052 184.522 127.868C184.074 127.684 183.69 127.408 183.37 127.04C183.058 126.672 182.814 126.22 182.638 125.684C182.462 125.148 182.374 124.524 182.374 123.812C182.374 123.108 182.462 122.488 182.638 121.952C182.814 121.408 183.058 120.952 183.37 120.584C183.69 120.216 184.074 119.94 184.522 119.756C184.97 119.572 185.47 119.48 186.022 119.48C186.574 119.48 187.074 119.572 187.522 119.756C187.97 119.94 188.354 120.216 188.674 120.584C188.994 120.952 189.238 121.408 189.406 121.952C189.582 122.488 189.67 123.108 189.67 123.812C189.67 124.524 189.582 125.148 189.406 125.684C189.238 126.22 188.994 126.672 188.674 127.04C188.354 127.408 187.97 127.684 187.522 127.868C187.074 128.052 186.574 128.144 186.022 128.144ZM186.022 126.74C186.622 126.74 187.098 126.54 187.45 126.14C187.81 125.74 187.99 125.18 187.99 124.46V123.164C187.99 122.444 187.81 121.884 187.45 121.484C187.098 121.084 186.622 120.884 186.022 120.884C185.422 120.884 184.942 121.084 184.582 121.484C184.23 121.884 184.054 122.444 184.054 123.164V124.46C184.054 125.18 184.23 125.74 184.582 126.14C184.942 126.54 185.422 126.74 186.022 126.74ZM194.272 121.028V128H192.688V121.028H190.312V119.624H196.648V121.028H194.272ZM197.945 128V119.624H203.465V121.028H199.529V123.056H203.009V124.46H199.529V126.596H203.465V128H197.945ZM208.392 128.144C207.84 128.144 207.34 128.056 206.892 127.88C206.452 127.696 206.072 127.424 205.752 127.064C205.44 126.704 205.2 126.26 205.032 125.732C204.864 125.196 204.78 124.576 204.78 123.872C204.78 123.168 204.864 122.544 205.032 122C205.2 121.448 205.44 120.988 205.752 120.62C206.072 120.244 206.452 119.96 206.892 119.768C207.34 119.576 207.84 119.48 208.392 119.48C209.144 119.48 209.768 119.64 210.264 119.96C210.76 120.28 211.156 120.764 211.452 121.412L210.096 122.132C209.976 121.756 209.78 121.456 209.508 121.232C209.236 121 208.864 120.884 208.392 120.884C207.8 120.884 207.328 121.084 206.976 121.484C206.632 121.884 206.46 122.444 206.46 123.164V124.484C206.46 125.212 206.632 125.772 206.976 126.164C207.328 126.548 207.8 126.74 208.392 126.74C208.864 126.74 209.248 126.612 209.544 126.356C209.848 126.1 210.068 125.784 210.204 125.408L211.488 126.164C211.184 126.788 210.78 127.276 210.276 127.628C209.772 127.972 209.144 128.144 208.392 128.144ZM216.127 121.028V128H214.543V121.028H212.167V119.624H218.503V121.028H216.127ZM219.394 128V126.728H220.498V120.896H219.394V119.624H223.198V120.896H222.082V126.728H223.198V128H219.394ZM228.104 128.144C227.552 128.144 227.052 128.052 226.604 127.868C226.156 127.684 225.772 127.408 225.452 127.04C225.14 126.672 224.896 126.22 224.72 125.684C224.544 125.148 224.456 124.524 224.456 123.812C224.456 123.108 224.544 122.488 224.72 121.952C224.896 121.408 225.14 120.952 225.452 120.584C225.772 120.216 226.156 119.94 226.604 119.756C227.052 119.572 227.552 119.48 228.104 119.48C228.656 119.48 229.156 119.572 229.604 119.756C230.052 119.94 230.436 120.216 230.756 120.584C231.076 120.952 231.32 121.408 231.488 121.952C231.664 122.488 231.752 123.108 231.752 123.812C231.752 124.524 231.664 125.148 231.488 125.684C231.32 126.22 231.076 126.672 230.756 127.04C230.436 127.408 230.052 127.684 229.604 127.868C229.156 128.052 228.656 128.144 228.104 128.144ZM228.104 126.74C228.704 126.74 229.18 126.54 229.532 126.14C229.892 125.74 230.072 125.18 230.072 124.46V123.164C230.072 122.444 229.892 121.884 229.532 121.484C229.18 121.084 228.704 120.884 228.104 120.884C227.504 120.884 227.024 121.084 226.664 121.484C226.312 121.884 226.136 122.444 226.136 123.164V124.46C226.136 125.18 226.312 125.74 226.664 126.14C227.024 126.54 227.504 126.74 228.104 126.74ZM235.759 123.704L234.895 121.964H234.859V128H233.359V119.624H235.099L237.619 123.92L238.483 125.66H238.519V119.624H240.019V128H238.279L235.759 123.704ZM77.4263 143.232C77.3063 143.336 77.1703 143.444 77.0183 143.556C76.8663 143.66 76.6903 143.756 76.4903 143.844C76.2983 143.932 76.0783 144.004 75.8303 144.06C75.5903 144.116 75.3183 144.144 75.0143 144.144C74.5663 144.144 74.1663 144.084 73.8143 143.964C73.4703 143.844 73.1823 143.68 72.9503 143.472C72.7183 143.264 72.5423 143.02 72.4223 142.74C72.3023 142.452 72.2423 142.144 72.2423 141.816C72.2423 141.52 72.2863 141.26 72.3743 141.036C72.4623 140.804 72.5823 140.596 72.7343 140.412C72.8863 140.22 73.0663 140.052 73.2743 139.908C73.4823 139.756 73.7023 139.612 73.9343 139.476C73.6863 139.196 73.4663 138.892 73.2743 138.564C73.0903 138.228 72.9983 137.868 72.9983 137.484C72.9983 137.212 73.0543 136.956 73.1663 136.716C73.2783 136.468 73.4383 136.252 73.6463 136.068C73.8623 135.884 74.1183 135.74 74.4143 135.636C74.7103 135.532 75.0423 135.48 75.4103 135.48C75.7383 135.48 76.0423 135.524 76.3223 135.612C76.6023 135.7 76.8423 135.824 77.0423 135.984C77.2503 136.144 77.4103 136.34 77.5223 136.572C77.6423 136.804 77.7023 137.068 77.7023 137.364C77.7023 137.628 77.6543 137.872 77.5583 138.096C77.4703 138.312 77.3463 138.512 77.1863 138.696C77.0263 138.872 76.8423 139.04 76.6343 139.2C76.4263 139.352 76.2023 139.496 75.9623 139.632L77.4263 141.216C77.5383 140.944 77.6223 140.656 77.6783 140.352C77.7423 140.048 77.7823 139.744 77.7983 139.44H79.6823V140.724H78.9023C78.7823 141.268 78.5983 141.764 78.3503 142.212L80.0063 144H78.1223L77.4263 143.232ZM75.3623 136.668C75.1063 136.668 74.8943 136.744 74.7263 136.896C74.5583 137.04 74.4743 137.236 74.4743 137.484V137.568C74.4743 137.752 74.5303 137.936 74.6423 138.12C74.7623 138.296 74.9463 138.524 75.1943 138.804C75.4983 138.62 75.7463 138.428 75.9383 138.228C76.1383 138.028 76.2383 137.796 76.2383 137.532V137.46C76.2383 137.204 76.1503 137.008 75.9743 136.872C75.8063 136.736 75.6023 136.668 75.3623 136.668ZM75.2183 142.86C75.5063 142.86 75.7663 142.816 75.9983 142.728C76.2303 142.64 76.4343 142.52 76.6103 142.368L74.7023 140.304C74.4223 140.472 74.2023 140.652 74.0423 140.844C73.8903 141.028 73.8143 141.264 73.8143 141.552V141.684C73.8143 142.036 73.9343 142.32 74.1743 142.536C74.4143 142.752 74.7623 142.86 75.2183 142.86ZM87.2329 144.144C86.6809 144.144 86.1809 144.052 85.7329 143.868C85.2849 143.684 84.9009 143.408 84.5809 143.04C84.2689 142.672 84.0249 142.22 83.8489 141.684C83.6729 141.148 83.5849 140.524 83.5849 139.812C83.5849 139.108 83.6729 138.488 83.8489 137.952C84.0249 137.408 84.2689 136.952 84.5809 136.584C84.9009 136.216 85.2849 135.94 85.7329 135.756C86.1809 135.572 86.6809 135.48 87.2329 135.48C87.7849 135.48 88.2849 135.572 88.7329 135.756C89.1809 135.94 89.5649 136.216 89.8849 136.584C90.2049 136.952 90.4489 137.408 90.6169 137.952C90.7929 138.488 90.8809 139.108 90.8809 139.812C90.8809 140.524 90.7929 141.148 90.6169 141.684C90.4489 142.22 90.2049 142.672 89.8849 143.04C89.5649 143.408 89.1809 143.684 88.7329 143.868C88.2849 144.052 87.7849 144.144 87.2329 144.144ZM87.2329 142.74C87.8329 142.74 88.3089 142.54 88.6609 142.14C89.0209 141.74 89.2009 141.18 89.2009 140.46V139.164C89.2009 138.444 89.0209 137.884 88.6609 137.484C88.3089 137.084 87.8329 136.884 87.2329 136.884C86.6329 136.884 86.1529 137.084 85.7929 137.484C85.4409 137.884 85.2649 138.444 85.2649 139.164V140.46C85.2649 141.18 85.4409 141.74 85.7929 142.14C86.1529 142.54 86.6329 142.74 87.2329 142.74ZM92.4879 144V135.624H96.2559C96.6399 135.624 96.9839 135.688 97.2879 135.816C97.5999 135.936 97.8639 136.112 98.0799 136.344C98.2959 136.568 98.4599 136.84 98.5719 137.16C98.6839 137.48 98.7399 137.832 98.7399 138.216C98.7399 138.608 98.6839 138.964 98.5719 139.284C98.4599 139.596 98.2959 139.868 98.0799 140.1C97.8639 140.324 97.5999 140.5 97.2879 140.628C96.9839 140.748 96.6399 140.808 96.2559 140.808H94.0719V144H92.4879ZM94.0719 139.44H96.1119C96.4159 139.44 96.6559 139.36 96.8319 139.2C97.0079 139.032 97.0959 138.796 97.0959 138.492V137.94C97.0959 137.636 97.0079 137.404 96.8319 137.244C96.6559 137.084 96.4159 137.004 96.1119 137.004H94.0719V139.44ZM100.175 144V135.624H103.943C104.327 135.624 104.671 135.688 104.975 135.816C105.287 135.936 105.551 136.112 105.767 136.344C105.983 136.568 106.147 136.84 106.259 137.16C106.371 137.48 106.427 137.832 106.427 138.216C106.427 138.608 106.371 138.964 106.259 139.284C106.147 139.596 105.983 139.868 105.767 140.1C105.551 140.324 105.287 140.5 104.975 140.628C104.671 140.748 104.327 140.808 103.943 140.808H101.759V144H100.175ZM101.759 139.44H103.799C104.103 139.44 104.343 139.36 104.519 139.2C104.695 139.032 104.783 138.796 104.783 138.492V137.94C104.783 137.636 104.695 137.404 104.519 137.244C104.343 137.084 104.103 137.004 103.799 137.004H101.759V139.44ZM111.151 144.144C110.599 144.144 110.099 144.052 109.651 143.868C109.203 143.684 108.819 143.408 108.499 143.04C108.187 142.672 107.943 142.22 107.767 141.684C107.591 141.148 107.503 140.524 107.503 139.812C107.503 139.108 107.591 138.488 107.767 137.952C107.943 137.408 108.187 136.952 108.499 136.584C108.819 136.216 109.203 135.94 109.651 135.756C110.099 135.572 110.599 135.48 111.151 135.48C111.703 135.48 112.203 135.572 112.651 135.756C113.099 135.94 113.483 136.216 113.803 136.584C114.123 136.952 114.367 137.408 114.535 137.952C114.711 138.488 114.799 139.108 114.799 139.812C114.799 140.524 114.711 141.148 114.535 141.684C114.367 142.22 114.123 142.672 113.803 143.04C113.483 143.408 113.099 143.684 112.651 143.868C112.203 144.052 111.703 144.144 111.151 144.144ZM111.151 142.74C111.751 142.74 112.227 142.54 112.579 142.14C112.939 141.74 113.119 141.18 113.119 140.46V139.164C113.119 138.444 112.939 137.884 112.579 137.484C112.227 137.084 111.751 136.884 111.151 136.884C110.551 136.884 110.071 137.084 109.711 137.484C109.359 137.884 109.183 138.444 109.183 139.164V140.46C109.183 141.18 109.359 141.74 109.711 142.14C110.071 142.54 110.551 142.74 111.151 142.74ZM117.99 144H116.406V135.624H120.186C120.57 135.624 120.914 135.684 121.218 135.804C121.522 135.924 121.778 136.1 121.986 136.332C122.202 136.556 122.366 136.828 122.478 137.148C122.598 137.468 122.658 137.824 122.658 138.216C122.658 138.792 122.526 139.288 122.262 139.704C122.006 140.12 121.618 140.416 121.098 140.592L122.814 144H121.05L119.49 140.772H117.99V144ZM120.03 139.44C120.334 139.44 120.574 139.36 120.75 139.2C120.926 139.032 121.014 138.796 121.014 138.492V137.94C121.014 137.636 120.926 137.404 120.75 137.244C120.574 137.084 120.334 137.004 120.03 137.004H117.99V139.44H120.03ZM127.37 137.028V144H125.786V137.028H123.41V135.624H129.746V137.028H127.37ZM132.543 135.624V140.772C132.543 141.428 132.667 141.92 132.915 142.248C133.171 142.576 133.599 142.74 134.199 142.74C134.799 142.74 135.223 142.576 135.471 142.248C135.727 141.92 135.855 141.428 135.855 140.772V135.624H137.415V140.568C137.415 141.184 137.355 141.716 137.235 142.164C137.123 142.612 136.939 142.984 136.683 143.28C136.427 143.576 136.091 143.796 135.675 143.94C135.267 144.076 134.771 144.144 134.187 144.144C133.595 144.144 133.095 144.076 132.687 143.94C132.287 143.796 131.959 143.576 131.703 143.28C131.447 142.984 131.263 142.612 131.151 142.164C131.039 141.716 130.983 141.184 130.983 140.568V135.624H132.543ZM141.728 139.704L140.864 137.964H140.828V144H139.328V135.624H141.068L143.588 139.92L144.452 141.66H144.488V135.624H145.988V144H144.248L141.728 139.704ZM147.605 144V142.728H148.709V136.896H147.605V135.624H151.409V136.896H150.293V142.728H151.409V144H147.605ZM156.256 137.028V144H154.672V137.028H152.296V135.624H158.632V137.028H156.256ZM159.929 144V135.624H165.449V137.028H161.513V139.056H164.993V140.46H161.513V142.596H165.449V144H159.929ZM162.845 135.072L161.921 134.616L163.061 132.372L164.357 133.02L162.845 135.072ZM169.961 135.624H173.009C173.553 135.624 174.045 135.712 174.485 135.888C174.933 136.064 175.313 136.328 175.625 136.68C175.945 137.024 176.189 137.46 176.357 137.988C176.533 138.508 176.621 139.116 176.621 139.812C176.621 140.508 176.533 141.12 176.357 141.648C176.189 142.168 175.945 142.604 175.625 142.956C175.313 143.3 174.933 143.56 174.485 143.736C174.045 143.912 173.553 144 173.009 144H169.961V135.624ZM173.009 142.596C173.601 142.596 174.069 142.424 174.413 142.08C174.765 141.728 174.941 141.192 174.941 140.472V139.152C174.941 138.432 174.765 137.9 174.413 137.556C174.069 137.204 173.601 137.028 173.009 137.028H171.545V142.596H173.009ZM177.886 144V142.728H178.99V136.896H177.886V135.624H181.69V136.896H180.574V142.728H181.69V144H177.886ZM185.912 144.144C185.192 144.144 184.58 144.016 184.076 143.76C183.58 143.504 183.152 143.168 182.792 142.752L183.86 141.72C184.148 142.056 184.468 142.312 184.82 142.488C185.18 142.664 185.576 142.752 186.008 142.752C186.496 142.752 186.864 142.648 187.112 142.44C187.36 142.224 187.484 141.936 187.484 141.576C187.484 141.296 187.404 141.068 187.244 140.892C187.084 140.716 186.784 140.588 186.344 140.508L185.552 140.388C183.88 140.124 183.044 139.312 183.044 137.952C183.044 137.576 183.112 137.236 183.248 136.932C183.392 136.628 183.596 136.368 183.86 136.152C184.124 135.936 184.44 135.772 184.808 135.66C185.184 135.54 185.608 135.48 186.08 135.48C186.712 135.48 187.264 135.584 187.736 135.792C188.208 136 188.612 136.308 188.948 136.716L187.868 137.736C187.66 137.48 187.408 137.272 187.112 137.112C186.816 136.952 186.444 136.872 185.996 136.872C185.54 136.872 185.196 136.96 184.964 137.136C184.74 137.304 184.628 137.544 184.628 137.856C184.628 138.176 184.72 138.412 184.904 138.564C185.088 138.716 185.384 138.828 185.792 138.9L186.572 139.044C187.42 139.196 188.044 139.468 188.444 139.86C188.852 140.244 189.056 140.784 189.056 141.48C189.056 141.88 188.984 142.244 188.84 142.572C188.704 142.892 188.5 143.172 188.228 143.412C187.964 143.644 187.636 143.824 187.244 143.952C186.86 144.08 186.416 144.144 185.912 144.144ZM190.644 144V135.624H194.412C194.796 135.624 195.14 135.688 195.444 135.816C195.756 135.936 196.02 136.112 196.236 136.344C196.452 136.568 196.616 136.84 196.728 137.16C196.84 137.48 196.896 137.832 196.896 138.216C196.896 138.608 196.84 138.964 196.728 139.284C196.616 139.596 196.452 139.868 196.236 140.1C196.02 140.324 195.756 140.5 195.444 140.628C195.14 140.748 194.796 140.808 194.412 140.808H192.228V144H190.644ZM192.228 139.44H194.268C194.572 139.44 194.812 139.36 194.988 139.2C195.164 139.032 195.252 138.796 195.252 138.492V137.94C195.252 137.636 195.164 137.404 194.988 137.244C194.812 137.084 194.572 137.004 194.268 137.004H192.228V139.44ZM201.62 144.144C201.068 144.144 200.568 144.052 200.12 143.868C199.672 143.684 199.288 143.408 198.968 143.04C198.656 142.672 198.412 142.22 198.236 141.684C198.06 141.148 197.972 140.524 197.972 139.812C197.972 139.108 198.06 138.488 198.236 137.952C198.412 137.408 198.656 136.952 198.968 136.584C199.288 136.216 199.672 135.94 200.12 135.756C200.568 135.572 201.068 135.48 201.62 135.48C202.172 135.48 202.672 135.572 203.12 135.756C203.568 135.94 203.952 136.216 204.272 136.584C204.592 136.952 204.836 137.408 205.004 137.952C205.18 138.488 205.268 139.108 205.268 139.812C205.268 140.524 205.18 141.148 205.004 141.684C204.836 142.22 204.592 142.672 204.272 143.04C203.952 143.408 203.568 143.684 203.12 143.868C202.672 144.052 202.172 144.144 201.62 144.144ZM201.62 142.74C202.22 142.74 202.696 142.54 203.048 142.14C203.408 141.74 203.588 141.18 203.588 140.46V139.164C203.588 138.444 203.408 137.884 203.048 137.484C202.696 137.084 202.22 136.884 201.62 136.884C201.02 136.884 200.54 137.084 200.18 137.484C199.828 137.884 199.652 138.444 199.652 139.164V140.46C199.652 141.18 199.828 141.74 200.18 142.14C200.54 142.54 201.02 142.74 201.62 142.74ZM209.275 139.704L208.411 137.964H208.375V144H206.875V135.624H208.615L211.135 139.92L211.999 141.66H212.035V135.624H213.535V144H211.795L209.275 139.704ZM215.152 144V142.728H216.256V136.896H215.152V135.624H218.956V136.896H217.84V142.728H218.956V144H215.152ZM220.574 135.624H224.45C224.794 135.624 225.102 135.676 225.374 135.78C225.654 135.884 225.89 136.028 226.082 136.212C226.274 136.396 226.418 136.624 226.514 136.896C226.618 137.16 226.67 137.452 226.67 137.772C226.67 138.092 226.626 138.364 226.538 138.588C226.458 138.804 226.346 138.984 226.202 139.128C226.066 139.272 225.906 139.38 225.722 139.452C225.546 139.524 225.362 139.564 225.17 139.572V139.644C225.354 139.644 225.55 139.68 225.758 139.752C225.974 139.824 226.17 139.94 226.346 140.1C226.53 140.252 226.682 140.452 226.802 140.7C226.922 140.94 226.982 141.24 226.982 141.6C226.982 141.936 226.926 142.252 226.814 142.548C226.71 142.836 226.562 143.088 226.37 143.304C226.178 143.52 225.95 143.692 225.686 143.82C225.422 143.94 225.134 144 224.822 144H220.574V135.624ZM222.158 142.656H224.366C224.67 142.656 224.906 142.58 225.074 142.428C225.242 142.268 225.326 142.04 225.326 141.744V141.336C225.326 141.04 225.242 140.812 225.074 140.652C224.906 140.492 224.67 140.412 224.366 140.412H222.158V142.656ZM222.158 139.116H224.114C224.402 139.116 224.626 139.04 224.786 138.888C224.946 138.728 225.026 138.508 225.026 138.228V137.856C225.026 137.576 224.946 137.36 224.786 137.208C224.626 137.048 224.402 136.968 224.114 136.968H222.158V139.116ZM228.531 144V135.624H230.115V142.596H233.415V144H228.531ZM234.789 144V135.624H240.309V137.028H236.373V139.056H239.853V140.46H236.373V142.596H240.309V144H234.789ZM152.643 160.144C151.923 160.144 151.311 160.016 150.807 159.76C150.311 159.504 149.883 159.168 149.523 158.752L150.591 157.72C150.879 158.056 151.199 158.312 151.551 158.488C151.911 158.664 152.307 158.752 152.739 158.752C153.227 158.752 153.595 158.648 153.843 158.44C154.091 158.224 154.215 157.936 154.215 157.576C154.215 157.296 154.135 157.068 153.975 156.892C153.815 156.716 153.515 156.588 153.075 156.508L152.283 156.388C150.611 156.124 149.775 155.312 149.775 153.952C149.775 153.576 149.843 153.236 149.979 152.932C150.123 152.628 150.327 152.368 150.591 152.152C150.855 151.936 151.171 151.772 151.539 151.66C151.915 151.54 152.339 151.48 152.811 151.48C153.443 151.48 153.995 151.584 154.467 151.792C154.939 152 155.343 152.308 155.679 152.716L154.599 153.736C154.391 153.48 154.139 153.272 153.843 153.112C153.547 152.952 153.175 152.872 152.727 152.872C152.271 152.872 151.927 152.96 151.695 153.136C151.471 153.304 151.359 153.544 151.359 153.856C151.359 154.176 151.451 154.412 151.635 154.564C151.819 154.716 152.115 154.828 152.523 154.9L153.303 155.044C154.151 155.196 154.775 155.468 155.175 155.86C155.583 156.244 155.787 156.784 155.787 157.48C155.787 157.88 155.715 158.244 155.571 158.572C155.435 158.892 155.231 159.172 154.959 159.412C154.695 159.644 154.367 159.824 153.975 159.952C153.591 160.08 153.147 160.144 152.643 160.144ZM158.875 151.624V156.772C158.875 157.428 158.999 157.92 159.247 158.248C159.503 158.576 159.931 158.74 160.531 158.74C161.131 158.74 161.555 158.576 161.803 158.248C162.059 157.92 162.187 157.428 162.187 156.772V151.624H163.747V156.568C163.747 157.184 163.687 157.716 163.567 158.164C163.455 158.612 163.271 158.984 163.015 159.28C162.759 159.576 162.423 159.796 162.007 159.94C161.599 160.076 161.103 160.144 160.519 160.144C159.927 160.144 159.427 160.076 159.019 159.94C158.619 159.796 158.291 159.576 158.035 159.28C157.779 158.984 157.595 158.612 157.483 158.164C157.371 157.716 157.315 157.184 157.315 156.568V151.624H158.875ZM167.244 160H165.66V151.624H169.44C169.824 151.624 170.168 151.684 170.472 151.804C170.776 151.924 171.032 152.1 171.24 152.332C171.456 152.556 171.62 152.828 171.732 153.148C171.852 153.468 171.912 153.824 171.912 154.216C171.912 154.792 171.78 155.288 171.516 155.704C171.26 156.12 170.872 156.416 170.352 156.592L172.068 160H170.304L168.744 156.772H167.244V160ZM169.284 155.44C169.588 155.44 169.828 155.36 170.004 155.2C170.18 155.032 170.268 154.796 170.268 154.492V153.94C170.268 153.636 170.18 153.404 170.004 153.244C169.828 153.084 169.588 153.004 169.284 153.004H167.244V155.44H169.284ZM176.464 160V151.624H178.048V158.596H181.348V160H176.464ZM182.722 160V151.624H188.242V153.028H184.306V155.056H187.786V156.46H184.306V158.596H188.242V160H182.722ZM199.078 153.988H199.03L198.382 155.32L196.666 158.488L194.95 155.32L194.302 153.988H194.254V160H192.754V151.624H194.542L196.69 155.716H196.738L198.862 151.624H200.578V160H199.078V153.988ZM207.734 160L207.062 157.864H204.086L203.426 160H201.818L204.626 151.624H206.594L209.378 160H207.734ZM205.598 153.064H205.538L204.47 156.508H206.678L205.598 153.064ZM212.197 160H210.613V151.624H214.393C214.777 151.624 215.121 151.684 215.425 151.804C215.729 151.924 215.985 152.1 216.193 152.332C216.409 152.556 216.573 152.828 216.685 153.148C216.805 153.468 216.865 153.824 216.865 154.216C216.865 154.792 216.733 155.288 216.469 155.704C216.213 156.12 215.825 156.416 215.305 156.592L217.021 160H215.257L213.697 156.772H212.197V160ZM214.237 155.44C214.541 155.44 214.781 155.36 214.957 155.2C215.133 155.032 215.221 154.796 215.221 154.492V153.94C215.221 153.636 215.133 153.404 214.957 153.244C214.781 153.084 214.541 153.004 214.237 153.004H212.197V155.44H214.237ZM221.716 160.144C221.164 160.144 220.664 160.056 220.216 159.88C219.776 159.696 219.396 159.424 219.076 159.064C218.764 158.704 218.524 158.26 218.356 157.732C218.188 157.196 218.104 156.576 218.104 155.872C218.104 155.168 218.188 154.544 218.356 154C218.524 153.448 218.764 152.988 219.076 152.62C219.396 152.244 219.776 151.96 220.216 151.768C220.664 151.576 221.164 151.48 221.716 151.48C222.468 151.48 223.092 151.64 223.588 151.96C224.084 152.28 224.48 152.764 224.776 153.412L223.42 154.132C223.3 153.756 223.104 153.456 222.832 153.232C222.56 153 222.188 152.884 221.716 152.884C221.124 152.884 220.652 153.084 220.3 153.484C219.956 153.884 219.784 154.444 219.784 155.164V156.484C219.784 157.212 219.956 157.772 220.3 158.164C220.652 158.548 221.124 158.74 221.716 158.74C222.188 158.74 222.572 158.612 222.868 158.356C223.172 158.1 223.392 157.784 223.528 157.408L224.812 158.164C224.508 158.788 224.104 159.276 223.6 159.628C223.096 159.972 222.468 160.144 221.716 160.144ZM231.24 156.46H227.748V160H226.164V151.624H227.748V155.056H231.24V151.624H232.824V160H231.24V156.46ZM234.789 160V151.624H240.309V153.028H236.373V155.056H239.853V156.46H236.373V158.596H240.309V160H234.789ZM237.705 151.072L236.781 150.616L237.921 148.372L239.217 149.02L237.705 151.072Z" fill="#41637D"/>
<line x1="265.472" y1="8" x2="265.472" y2="198" stroke="#41637D" stroke-width="0.839895"/>
<line x1="307.466" y1="8" x2="307.466" y2="198" stroke="#41637D" stroke-width="0.839895"/>
<line x1="349.461" y1="8" x2="349.461" y2="198" stroke="#41637D" stroke-width="0.839895"/>
<path d="M176 0C168.763 0 162.875 5.88794 162.875 13.125C162.875 18.96 166.72 24.0757 172.278 25.7141L175.161 31.4817C175.32 31.7993 175.645 32 176 32C176.355 32 176.68 31.7993 176.838 31.4817L179.722 25.7144C185.28 24.0759 189.125 18.9602 189.125 13.125C189.125 5.88794 183.237 0 176 0V0ZM178.835 24.0149C178.573 24.0828 178.353 24.2607 178.232 24.5029L176 28.9663L173.768 24.5029C173.647 24.2607 173.427 24.0828 173.165 24.0146C168.21 22.729 164.75 18.251 164.75 13.125C164.75 6.92163 169.797 1.875 176 1.875C182.203 1.875 187.25 6.92163 187.25 13.125C187.25 18.251 183.79 22.729 178.835 24.0149Z" fill="#F6851E"/>
<path d="M176 9.375C173.932 9.375 172.25 11.0571 172.25 13.125C172.25 15.1929 173.932 16.875 176 16.875C178.068 16.875 179.75 15.1929 179.75 13.125C179.75 11.0571 178.068 9.375 176 9.375ZM176 15C174.966 15 174.125 14.1589 174.125 13.125C174.125 12.0911 174.966 11.25 176 11.25C177.034 11.25 177.875 12.0911 177.875 13.125C177.875 14.1589 177.034 15 176 15Z" fill="#F6851E"/>
<path d="M16 164C8.76294 164 2.875 169.888 2.875 177.125C2.875 182.96 6.71997 188.076 12.2776 189.714L15.1614 195.482C15.3203 195.799 15.6448 196 16 196C16.355 196 16.6797 195.799 16.8384 195.482L19.7222 189.714C25.28 188.076 29.125 182.96 29.125 177.125C29.125 169.888 23.2371 164 16 164V164ZM18.8347 188.015C18.5725 188.083 18.3528 188.261 18.2317 188.503L16 192.966L13.7683 188.503C13.6472 188.261 13.4275 188.083 13.1653 188.015C8.21045 186.729 4.75 182.251 4.75 177.125C4.75 170.922 9.79663 165.875 16 165.875C22.2034 165.875 27.25 170.922 27.25 177.125C27.25 182.251 23.7896 186.729 18.8347 188.015Z" fill="#F6851E"/>
<path d="M16 173.375C13.9321 173.375 12.25 175.057 12.25 177.125C12.25 179.193 13.9321 180.875 16 180.875C18.0679 180.875 19.75 179.193 19.75 177.125C19.75 175.057 18.0679 173.375 16 173.375ZM16 179C14.9661 179 14.125 178.159 14.125 177.125C14.125 176.091 14.9661 175.25 16 175.25C17.0339 175.25 17.875 176.091 17.875 177.125C17.875 178.159 17.0339 179 16 179Z" fill="#F6851E"/>
</svg>
