<svg width="48" height="48" viewBox="0 0 48 48" fill="none" xmlns="http://www.w3.org/2000/svg">
<g clip-path="url(#clip0)">
<path d="M47.9438 3.58342C47.8398 1.67674 46.3234 0.160517 44.4167 0.0564543C40.5694 -0.153733 33.0409 0.0507357 25.842 3.7742C22.1722 5.67245 18.2909 8.8908 15.1935 12.604C15.1554 12.6498 15.1182 12.6958 15.0804 12.7417L8.05099 13.2847C6.89393 13.3741 5.86334 13.9806 5.2234 14.9485L0.427711 22.2021C-0.0576328 22.9361 -0.134789 23.8548 0.22118 24.6595C0.577242 25.4642 1.30887 26.025 2.1784 26.1597L8.10068 27.077C8.07977 27.1921 8.05877 27.3071 8.03955 27.4223C7.8424 28.6016 8.23315 29.8142 9.08496 30.6659L17.3342 38.9153C18.0404 39.6215 18.9947 40.0108 19.9725 40.0108C20.1739 40.0108 20.3764 39.9942 20.578 39.9606C20.6931 39.9414 20.8081 39.9204 20.9232 39.8995L21.8405 45.8218C21.9752 46.6914 22.536 47.4231 23.3406 47.779C23.6754 47.9272 24.0296 48.0003 24.3823 48.0003C24.8776 48.0002 25.3694 47.856 25.7981 47.5726L33.0517 42.7768C34.0196 42.1368 34.626 41.1062 34.7153 39.9492L35.2583 32.92C35.3041 32.8821 35.3502 32.845 35.396 32.8068C39.1093 29.7094 42.3278 25.8281 44.2259 22.1582C47.9496 14.959 48.1537 7.43045 47.9438 3.58342ZM31.5006 40.4306L24.5621 45.0181L23.6681 39.2464C26.6006 38.3842 29.5015 37.0032 32.2651 35.1533L31.9114 39.7325C31.8894 40.0181 31.7396 40.2727 31.5006 40.4306ZM19.3229 36.9265L11.0736 28.6772C10.8631 28.4666 10.7658 28.1709 10.8135 27.886C11.0588 26.4194 11.4399 25.0234 11.9116 23.7083L24.2892 36.0859C22.7097 36.6517 21.295 36.9892 20.1142 37.1866C19.8288 37.234 19.5334 37.137 19.3229 36.9265ZM8.26765 16.0888L12.8468 15.7351C10.9967 18.4988 9.61577 21.3997 8.75356 24.3322L2.98193 23.4383L7.56949 16.4996C7.72755 16.2606 7.98209 16.1109 8.26765 16.0888ZM33.5947 30.6469C31.3228 32.5419 29.1176 33.9125 27.0849 34.9043L13.0954 20.9148C14.3946 18.2613 15.9802 16.0517 17.3532 14.4056C20.2196 10.9692 23.7847 8.00477 27.1343 6.27227C33.7412 2.8548 40.7022 2.67077 44.2636 2.86464C44.735 2.89033 45.1099 3.26524 45.1356 3.7367C45.3297 7.29808 45.1453 14.259 41.7279 20.866C39.9955 24.2155 37.031 27.7805 33.5947 30.6469Z" fill="white"/>
<path d="M32.8807 22.1478C34.6809 22.1476 36.4818 21.4623 37.8523 20.0918C39.1804 18.7638 39.9116 16.9981 39.9116 15.1201C39.9116 13.2421 39.1803 11.4764 37.8523 10.1484C35.1109 7.40691 30.6503 7.4071 27.909 10.1484C26.581 11.4764 25.8496 13.2421 25.8496 15.1201C25.8496 16.9981 26.581 18.7638 27.909 20.0918C29.2798 21.4626 31.0798 22.148 32.8807 22.1478ZM29.8975 12.1371C30.7199 11.3146 31.8002 10.9034 32.8805 10.9034C33.9609 10.9034 35.0411 11.3146 35.8635 12.1371C36.6603 12.9338 37.099 13.9932 37.099 15.12C37.099 16.2468 36.6603 17.3063 35.8635 18.103C34.2188 19.7479 31.5423 19.7478 29.8975 18.103C29.1007 17.3063 28.6618 16.2469 28.6618 15.1201C28.6618 13.9933 29.1008 12.9338 29.8975 12.1371Z" fill="white"/>
<path d="M1.4355 39.5567C1.79541 39.5567 2.15531 39.4194 2.42981 39.1448L7.02103 34.5535C7.57022 34.0043 7.57022 33.114 7.02103 32.5648C6.47194 32.0156 5.5815 32.0156 5.03231 32.5648L0.441188 37.156C-0.108 37.7052 -0.108 38.5956 0.441188 39.1448C0.715688 39.4194 1.07559 39.5567 1.4355 39.5567Z" fill="white"/>
<path d="M11.2285 36.7724C10.6794 36.2232 9.78899 36.2232 9.23981 36.7724L0.412867 45.5994C-0.13632 46.1486 -0.13632 47.039 0.412867 47.5882C0.687461 47.8628 1.04727 48 1.40718 48C1.76709 48 2.12699 47.8628 2.40149 47.5881L11.2284 38.7611C11.7777 38.2119 11.7777 37.3216 11.2285 36.7724Z" fill="white"/>
<path d="M13.4465 40.98L8.85525 45.5712C8.30606 46.1204 8.30606 47.0108 8.85525 47.5599C9.12984 47.8345 9.48975 47.9719 9.84956 47.9719C10.2094 47.9719 10.5694 47.8346 10.8439 47.5599L15.4351 42.9687C15.9843 42.4195 15.9843 41.5292 15.4351 40.98C14.886 40.4308 13.9956 40.4308 13.4465 40.98Z" fill="white"/>
</g>
<defs>
<clipPath id="clip0">
<rect width="48" height="48" fill="white"/>
</clipPath>
</defs>
</svg>
