<svg width="48" height="48" viewBox="0 0 48 48" fill="none" xmlns="http://www.w3.org/2000/svg">
<path d="M39.6438 14.7543L41.5258 12.8723C42.2571 12.141 42.2571 10.9552 41.5258 10.2242C40.7944 9.49292 39.609 9.49292 38.8777 10.2242L36.9957 12.1062C33.8383 9.47534 30.0015 7.88599 25.9087 7.51392V3.74524H27.7189C28.7531 3.74524 29.5913 2.90662 29.5913 1.87244C29.5913 0.838257 28.7531 0 27.7189 0H20.3533C19.3191 0 18.4808 0.838257 18.4808 1.87244C18.4808 2.90662 19.3191 3.74524 20.3533 3.74524H22.1635V7.51392C11.9183 8.44556 3.75 17.0522 3.75 27.7137C3.75 38.9257 12.8229 48 24.0363 48C35.2478 48 44.3221 38.9271 44.3221 27.7137C44.3221 22.9244 42.6727 18.3889 39.6438 14.7543ZM24.0359 44.2548C14.9154 44.2548 7.49487 36.8346 7.49487 27.7137C7.49487 18.5933 14.9154 11.1731 24.0359 11.1731C33.1567 11.1731 40.5769 18.5933 40.5769 27.7137C40.5769 36.8346 33.1567 44.2548 24.0359 44.2548ZM32.714 19.036C33.4453 19.7673 33.4453 20.9531 32.714 21.6841L25.3601 29.038C24.6288 29.7693 23.443 29.7693 22.712 29.038C21.9807 28.3066 21.9807 27.1208 22.712 26.3899L30.0656 19.036C30.7969 18.3047 31.9827 18.3047 32.714 19.036Z" fill="white"/>
</svg>
