<svg width="42" height="48" viewBox="0 0 42 48" fill="none" xmlns="http://www.w3.org/2000/svg">
<path d="M40.8321 14.9227L39.8289 9.90839L37.0355 11.0267C34.5845 12.0078 31.9705 12.9268 29.248 13.765C28.0456 10.4925 26.2287 7.23985 23.8351 4.07743L20.749 0L18.721 2.22284C15.4884 5.76608 11.8405 9.21031 7.56896 12.7523C4.19766 15.5478 1.81085 19.4538 0.848116 23.7508C-0.144335 28.1807 0.377859 32.687 2.35836 36.7824L7.78318 47.9999H13.7167C18.9035 47.9999 23.4916 47.2045 27.3533 45.6357C31.0147 44.1482 34.0446 41.9626 36.359 39.1395C41.189 33.2475 42.7775 24.6471 40.8321 14.9227ZM36.044 14.4237C34.1938 18.1525 31.8793 21.852 29.1337 25.4586C26.3114 29.1658 23.0326 32.7833 19.3882 36.2107C15.5868 39.7857 12.1686 42.4108 10.0715 43.9204V35.0153C10.0715 31.1075 11.3524 27.428 13.7759 24.3744C16.1283 21.4103 19.4344 19.2819 23.0853 18.3813C24.5663 18.016 26.0218 17.6312 27.4296 17.2335L27.432 17.2411L28.7177 16.8621C28.7299 16.8585 28.7422 16.855 28.7544 16.8514V16.8513C31.2777 16.1071 33.7197 15.2927 36.044 14.4237ZM3.59259 24.3657C4.41985 20.673 6.46963 17.3176 9.3642 14.9174C13.627 11.3827 17.2886 7.93689 20.5469 4.39337L21.5926 5.7748C23.7755 8.65887 25.4358 11.6083 26.5426 14.5614C25.2031 14.9383 23.8194 15.3034 22.4116 15.6507C18.1596 16.6995 14.3102 19.1768 11.5728 22.626C8.7506 26.1821 7.25892 30.4662 7.25892 35.0154V40.4558L4.8903 35.558C3.18899 32.0401 2.7403 28.1698 3.59259 24.3657ZM34.1838 37.3565C32.1704 39.8125 29.5162 41.7214 26.2947 43.0301C22.7707 44.4616 18.5389 45.1875 13.7167 45.1875H13.1027C15.2281 43.5903 18.101 41.2781 21.2656 38.3061C25.0314 34.7694 28.4231 31.0312 31.3463 27.1955C34.0508 23.6466 36.3572 20.0052 38.2354 16.3271C39.7592 24.8538 38.3319 32.2964 34.1838 37.3565Z" fill="white"/>
</svg>
