<svg width="48" height="48" viewBox="0 0 48 48" fill="none" xmlns="http://www.w3.org/2000/svg">
<g clip-path="url(#clip0)">
<path d="M10.7434 47.0294C10.2175 47.0294 9.6953 46.8654 9.24961 46.5431C8.41939 45.9414 8.03156 44.9072 8.25752 43.9092L11.3455 30.3067L0.87305 21.1226C0.103254 20.4506 -0.19082 19.3864 0.125228 18.4126C0.441276 17.4407 1.30116 16.7525 2.31925 16.6584L16.1756 15.4005L21.6539 2.58018C22.0578 1.63826 22.9777 1.02997 23.9999 1.02997C25.022 1.02997 25.9419 1.63826 26.3459 2.57798L31.8242 15.4005L45.6783 16.6584C46.6986 16.7503 47.5585 17.4407 47.8745 18.4126C48.1906 19.3846 47.8983 20.4506 47.1285 21.1226L36.6561 30.3049L39.744 43.907C39.9704 44.9072 39.5822 45.9414 38.7523 46.5413C37.9243 47.1411 36.8201 47.1873 35.9482 46.6632L23.9999 39.523L12.0516 46.6672C11.6476 46.9071 11.1975 47.0294 10.7434 47.0294ZM23.9999 36.4471C24.454 36.4471 24.9037 36.5691 25.308 36.809L36.5843 43.5533L33.6699 30.7147C33.4619 29.801 33.7721 28.847 34.4782 28.2288L44.3665 19.5567L31.284 18.3687C30.3421 18.2826 29.532 17.6904 29.1639 16.8225L23.9999 4.72403L18.8296 16.8243C18.4655 17.6864 17.6555 18.2786 16.7157 18.3646L3.63142 19.5527L13.5194 28.2248C14.2276 28.8448 14.5375 29.7969 14.3276 30.7129L11.4154 43.5511L22.6917 36.809C23.0957 36.5691 23.5458 36.4471 23.9999 36.4471ZM16.0697 15.6484C16.0697 15.6484 16.0697 15.6506 16.0675 15.6524L16.0697 15.6484ZM31.926 15.6425L31.9282 15.6466C31.9282 15.6444 31.9282 15.6444 31.926 15.6425Z" fill="white"/>
</g>
<defs>
<clipPath id="clip0">
<rect width="48" height="48" fill="white"/>
</clipPath>
</defs>
</svg>
