<svg width="34" height="49" viewBox="0 0 34 49" fill="none" xmlns="http://www.w3.org/2000/svg">
<path d="M13.3752 0.979271C7.02179 2.31029 1.87023 7.42573 0.514699 13.8352C-0.629894 19.2474 0.780574 24.6811 4.38442 28.743C6.14607 30.7284 7.15632 33.3492 7.15632 35.9406V38.7604C7.15632 40.6365 8.38136 42.2303 10.0713 42.7823C10.627 46.0744 13.477 48.7235 17.0001 48.7235C20.5222 48.7235 23.3729 46.0752 23.9289 42.7823C25.6188 42.2303 26.8438 40.6365 26.8438 38.7603V35.9405C26.8438 33.344 27.8574 30.7547 29.6978 28.6496C32.3916 25.5686 33.8751 21.6153 33.8751 17.5181C33.8751 6.84392 24.1299 -1.27335 13.3752 0.979271ZM17.0001 45.9038C15.1924 45.9038 13.6074 44.6567 13.0222 42.9806H20.9779C20.3927 44.6567 18.8078 45.9038 17.0001 45.9038ZM24.0313 38.7604C24.0313 39.5378 23.4005 40.1703 22.6251 40.1703H11.3751C10.5997 40.1703 9.96882 39.5378 9.96882 38.7604V37.3505H24.0313V38.7604ZM27.5828 26.7911C25.6215 29.0345 24.4149 31.7395 24.1087 34.5307H9.89176C9.58595 31.738 8.38239 29.0063 6.48601 26.8689C3.48245 23.4836 2.30879 18.9462 3.26607 14.4201C4.38348 9.13639 8.67723 4.84423 13.9506 3.73954C22.9528 1.8534 31.0626 8.63137 31.0626 17.5181C31.0626 20.9312 29.8268 24.2244 27.5828 26.7911Z" fill="white"/>
</svg>
