<svg width="48" height="48" viewBox="0 0 48 48" fill="none" xmlns="http://www.w3.org/2000/svg">
<path d="M44.4763 11.4785L46.8043 9.15088C47.191 8.76379 47.3185 8.18738 47.1306 7.67358C46.9427 7.15942 46.4736 6.80127 45.928 6.75513L41.6093 6.39075L41.2449 2.07202C41.1991 1.52673 40.8406 1.05762 40.3268 0.869751C39.813 0.681518 39.2366 0.80896 38.8495 1.19604L36.5215 3.52368C32.7568 1.21545 28.4524 0 24 0C17.5895 0 11.5624 2.49646 7.02942 7.02942C2.49646 11.5624 0 17.5895 0 24C0 30.4105 2.49646 36.4376 7.02942 40.9706C11.5624 45.5035 17.5895 48 24 48C30.4105 48 36.4376 45.5035 40.9706 40.9706C45.5035 36.4376 48 30.4105 48 24C48 19.5476 46.7845 15.2435 44.4763 11.4785ZM38.9062 7.81055C38.9641 8.4939 39.5061 9.03589 40.1895 9.09375L42.6742 9.30322L39.3109 12.6665L35.6429 12.3571L35.3335 8.68909L38.6968 5.32581L38.9062 7.81055ZM28.7812 24C28.7812 26.6364 26.6364 28.7812 24 28.7812C21.3636 28.7812 19.2188 26.6364 19.2188 24C19.2188 21.3636 21.3636 19.2188 24 19.2188C24.8075 19.2188 25.5681 19.4205 26.2357 19.7754L23.0057 23.0057C22.4564 23.5547 22.4564 24.4449 23.0057 24.9943C23.28 25.2689 23.64 25.4062 24 25.4062C24.36 25.4062 24.72 25.2689 24.9943 24.9943L28.2246 21.7643C28.5795 22.4319 28.7812 23.1925 28.7812 24ZM28.2799 17.7312C27.0604 16.8962 25.5864 16.4062 24 16.4062C19.8127 16.4062 16.4062 19.8127 16.4062 24C16.4062 28.1873 19.8127 31.5938 24 31.5938C28.1873 31.5938 31.5938 28.1873 31.5938 24C31.5938 22.4136 31.1038 20.9396 30.2688 19.7201L34.2839 15.705C36.1183 17.9747 37.2188 20.8612 37.2188 24C37.2188 31.2887 31.2887 37.2188 24 37.2188C16.7113 37.2188 10.7812 31.2887 10.7812 24C10.7812 16.7113 16.7113 10.7812 24 10.7812C27.1388 10.7812 30.0253 11.8817 32.295 13.7161L28.2799 17.7312ZM38.9817 38.9817C34.9801 42.9836 29.6594 45.1875 24 45.1875C18.3406 45.1875 13.0199 42.9836 9.01831 38.9817C5.01636 34.9801 2.8125 29.6594 2.8125 24C2.8125 18.3406 5.01636 13.0199 9.01831 9.01831C13.0199 5.01636 18.3406 2.8125 24 2.8125C27.7024 2.8125 31.2887 3.76355 34.4692 5.57593L32.8832 7.16199C32.6268 7.41833 32.4807 7.76184 32.4716 8.12036C32.4705 8.17163 32.4719 8.2229 32.476 8.27454L32.6653 10.5183C30.1652 8.90552 27.1901 7.96875 24 7.96875C15.1604 7.96875 7.96875 15.1604 7.96875 24C7.96875 32.8396 15.1604 40.0312 24 40.0312C32.8396 40.0312 40.0312 32.8396 40.0312 24C40.0312 20.8099 39.0945 17.8348 37.4817 15.3347L39.7255 15.524C39.765 15.527 39.8046 15.5288 39.8438 15.5288C39.8503 15.5288 39.8573 15.5281 39.8639 15.5277C39.8826 15.5277 39.9009 15.5262 39.9196 15.5251C39.95 15.5233 39.9807 15.5215 40.0107 15.5178C40.0294 15.5153 40.0481 15.5123 40.0668 15.5094C40.0964 15.5046 40.1257 15.4991 40.155 15.4926C40.1737 15.4882 40.192 15.4834 40.2103 15.4786C40.2389 15.4709 40.2671 15.4622 40.2953 15.4526C40.3136 15.4464 40.3315 15.4402 40.3495 15.4332C40.377 15.4226 40.4041 15.4109 40.4312 15.3981C40.4484 15.3904 40.4656 15.3827 40.4828 15.3739C40.5099 15.36 40.5363 15.3446 40.5623 15.3292C40.578 15.3197 40.5938 15.3109 40.6091 15.3014C40.637 15.2831 40.6637 15.2633 40.6904 15.2432C40.7029 15.2336 40.7157 15.2252 40.7278 15.2153C40.7659 15.1846 40.8029 15.152 40.838 15.1168L42.4241 13.5308C44.2365 16.7113 45.1875 20.2976 45.1875 24C45.1875 29.6594 42.9836 34.9801 38.9817 38.9817Z" fill="white"/>
</svg>
