<svg width="48" height="48" viewBox="0 0 48 48" fill="none" xmlns="http://www.w3.org/2000/svg">
<g clip-path="url(#clip0)">
<path d="M38.4335 11.7776C38.2272 11.5197 37.8662 11.4166 37.5052 11.5713L36.1643 12.087L32.0386 2.95889C31.8839 2.64946 31.6261 2.49475 31.3166 2.49475H17.9081C17.6502 2.49475 17.4439 2.59789 17.2892 2.80418L9.70823 11.8807C9.55352 12.0354 9.50195 12.2933 9.55352 12.4996C9.60509 12.7059 9.70823 12.9122 9.86295 13.0669L17.4439 18.6881C17.8049 18.946 18.3206 18.8944 18.5785 18.5334L23.5294 11.8292L25.9016 16.058L24.4061 16.8316C24.0966 16.9863 23.9419 17.2957 23.9935 17.6051C24.0451 17.9146 24.2514 18.224 24.6124 18.2756L33.0701 20.3384C33.1216 20.3384 33.1732 20.3384 33.2763 20.3384C33.5342 20.3384 33.792 20.1837 33.9468 19.9774L38.485 12.7059C38.6913 12.3964 38.6398 12.0354 38.4335 11.7776ZM17.7534 16.8831L11.5132 12.2417L18.3206 4.09346H19.4036L22.7558 10.3336L17.7534 16.8831ZM32.8122 18.6881L27.0878 17.2957L27.3972 17.141C27.6035 17.0379 27.7582 16.8831 27.8098 16.6769C27.8613 16.4706 27.8613 16.2643 27.7582 16.058L24.3545 9.97259L21.1571 4.04189H30.7493L34.9782 13.4279C35.1329 13.7373 35.4939 13.9436 35.8033 13.892L32.8122 18.6881Z" fill="white"/>
<path d="M20.5898 32.6124L12.2353 32.2514L14.4013 27.9194L15.8453 28.7445C16.1547 28.8993 16.5157 28.8993 16.7736 28.6414C17.0314 28.4351 17.1346 28.0741 16.9799 27.7647L13.9371 19.6164C13.834 19.307 13.5246 19.1007 13.1636 19.1007L4.55117 19.4101C4.19017 19.4101 3.93231 19.668 3.82917 19.9774C3.72603 20.2868 3.88074 20.6478 4.1386 20.8541L5.32474 21.6793L0.116035 30.2401C-0.0386785 30.498 -0.0386785 30.859 0.116035 31.1168L5.89202 39.6261L8.10959 42.9782C8.2643 43.1845 8.52216 43.3392 8.78002 43.3392H20.5383C21.0024 43.3392 21.3634 42.9782 21.3634 42.5141V33.4375C21.3634 33.025 21.0024 32.664 20.5898 32.6124ZM7.12973 38.5947L1.76632 30.6527L7.18131 21.8856C7.38759 21.5761 7.33602 21.2151 7.07816 20.9573L12.6994 20.6994L14.7623 26.2691L14.4529 26.1144C14.2466 26.0113 14.0403 25.9597 13.834 26.0628C13.6277 26.1144 13.473 26.2691 13.3699 26.4754L10.2756 32.664L7.12973 38.5947ZM19.7131 41.7405H9.19259L8.16116 40.1418L11.4617 33.8501L19.7131 34.2111V41.7405Z" fill="white"/>
<path d="M47.9224 29.9307L42.7652 19.307C42.6621 19.1007 42.5074 18.946 42.3011 18.8944C42.0948 18.8429 41.8885 18.8429 41.6822 18.9976L33.4308 23.5874C33.0698 23.7937 32.9151 24.3094 33.1214 24.6704L37.1439 31.942L32.2962 32.3545L32.2447 30.7043C32.2447 30.3433 31.9868 30.0854 31.6774 29.9823C31.3679 29.8791 31.0069 29.9823 30.8007 30.2401L25.4372 37.0991C25.231 37.357 25.231 37.7695 25.3857 38.0274L30.1818 45.1442C30.3365 45.3505 30.5944 45.5052 30.8522 45.5052C30.9038 45.5052 31.0069 45.5052 31.0585 45.4537C31.3679 45.3505 31.6258 45.0411 31.6258 44.7317L31.6774 43.2877H41.6822C41.9916 43.2877 42.3011 43.0814 42.4042 42.8235L47.9224 30.6011C48.0255 30.3948 48.0255 30.137 47.9224 29.9307ZM41.2696 41.7405H31.0069C30.6459 41.7405 30.3365 41.9984 30.2334 42.3078L27.0875 37.6148L30.7491 32.9218V33.2828C30.7491 33.4891 30.8522 33.6954 31.0069 33.8501C31.1617 34.0048 31.3679 34.0564 31.6258 34.0564L38.5364 33.4375L45.2406 32.9734L41.2696 41.7405ZM45.9111 31.2716L38.8458 31.7873L34.8748 24.5673L41.6822 20.751L46.3752 30.2917L45.9111 31.2716Z" fill="white"/>
</g>
<defs>
<clipPath id="clip0">
<rect width="48" height="48" fill="white"/>
</clipPath>
</defs>
</svg>
