<svg width="48" height="48" viewBox="0 0 48 48" fill="none" xmlns="http://www.w3.org/2000/svg">
<path d="M41.9753 1.40625C41.9753 0.629625 41.3442 0 40.5675 0C33.1267 0 26.7277 4.54509 24.0004 11.0048C21.2729 4.54509 14.8736 0 7.43164 0C6.65502 0 6.02539 0.629625 6.02539 1.40625C6.02539 10.8444 13.3374 18.6068 22.5941 19.3265V28.5188C22.5941 29.2954 23.2237 29.925 24.0004 29.925C24.777 29.925 25.4066 29.2954 25.4066 28.5188V19.3265C34.6633 18.6068 41.9753 10.8444 41.9753 1.40625ZM8.90923 2.88375C16.0931 3.58116 21.8254 9.31341 22.5228 16.4973C15.3395 15.7993 9.6073 10.0672 8.90923 2.88375ZM25.4779 16.4974C26.1753 9.31397 31.9071 3.58191 39.0915 2.88394C38.3933 10.0673 32.6613 15.7993 25.4779 16.4974Z" fill="white"/>
<path d="M15.2037 28.2774C13.4422 26.516 10.634 26.4888 8.83753 28.142V22.4921C8.83753 18.397 5.50547 15.0624 1.40784 15.0624H1.40625C0.629625 15.0624 0 15.6921 0 16.4687V34.5437C0 34.9166 0.148219 35.2743 0.411937 35.538L9.0375 44.1637V46.5937C9.0375 47.3704 9.66712 48 10.4437 48H20.9875C21.7642 48 22.3938 47.3704 22.3938 46.5937V38.5459C22.3938 36.5607 21.6208 34.6945 20.2174 33.2911L15.2037 28.2774ZM19.5813 45.1875H11.85V43.5813C11.85 43.2083 11.7018 42.8507 11.4381 42.587L2.8125 33.9612V18.0964C5.46956 18.9492 6.02503 21.4113 6.02503 22.4922V31.5313C6.02503 31.9043 6.17325 32.2619 6.43697 32.5256L12.462 38.5507C13.0112 39.0998 13.9016 39.0998 14.4507 38.5507C14.9999 38.0016 14.9999 37.1111 14.4507 36.5619L10.6851 32.7963C9.98606 32.0972 9.9855 30.9659 10.6851 30.2662C11.3845 29.5669 12.5153 29.5666 13.2151 30.2662L18.2287 35.2799C19.101 36.1522 19.5814 37.312 19.5814 38.5459V45.1875H19.5813Z" fill="white"/>
<path d="M46.5939 15.0626H46.5924C42.4948 15.0626 39.1627 18.3972 39.1627 22.4922V28.1421C37.3663 26.4889 34.5581 26.5161 32.7965 28.2776L27.7829 33.2912C26.3794 34.6947 25.6064 36.5608 25.6064 38.546V46.5938C25.6064 47.3704 26.2361 48 27.0127 48H37.5564C38.333 48 38.9626 47.3704 38.9626 46.5938V44.1638L47.5882 35.5381C47.8519 35.2744 48.0001 34.9167 48.0001 34.5438V16.4688C48.0001 15.6921 47.3705 15.0626 46.5939 15.0626ZM45.1876 33.9612L36.5621 42.5869C36.2984 42.8506 36.1501 43.2083 36.1501 43.5812V45.1875H28.4189V38.5459C28.4189 37.3121 28.8992 36.1522 29.7716 35.2799L34.7851 30.2663C35.4849 29.5666 36.6158 29.5669 37.3152 30.2663C38.0147 30.9659 38.0142 32.0972 37.3152 32.7963L33.5495 36.562C33.0004 37.1112 33.0004 38.0015 33.5495 38.5507C34.0986 39.0999 34.989 39.0998 35.5382 38.5507L41.5633 32.5257C41.827 32.2619 41.9752 31.9043 41.9752 31.5313V22.4922C41.9752 21.4113 42.5307 18.9492 45.1877 18.0964V33.9612H45.1876Z" fill="white"/>
</svg>
