<svg width="465" height="222" viewBox="0 0 465 222" fill="none" xmlns="http://www.w3.org/2000/svg">
<path d="M225.413 218.144C224.877 218.144 224.413 218.048 224.021 217.856C223.629 217.656 223.305 217.372 223.049 217.004C222.793 216.636 222.601 216.184 222.473 215.648C222.353 215.112 222.293 214.5 222.293 213.812C222.293 213.132 222.353 212.524 222.473 211.988C222.601 211.444 222.793 210.988 223.049 210.62C223.305 210.252 223.629 209.972 224.021 209.78C224.413 209.58 224.877 209.48 225.413 209.48C226.477 209.48 227.261 209.86 227.765 210.62C228.277 211.38 228.533 212.444 228.533 213.812C228.533 215.18 228.277 216.244 227.765 217.004C227.261 217.764 226.477 218.144 225.413 218.144ZM225.413 216.812C225.949 216.812 226.321 216.612 226.529 216.212C226.745 215.804 226.853 215.256 226.853 214.568V213.056C226.853 212.368 226.745 211.824 226.529 211.424C226.321 211.016 225.949 210.812 225.413 210.812C224.877 210.812 224.501 211.016 224.285 211.424C224.077 211.824 223.973 212.368 223.973 213.056V214.568C223.973 215.256 224.077 215.804 224.285 216.212C224.501 216.612 224.877 216.812 225.413 216.812ZM231.168 218L236.976 209.624H238.368L232.56 218H231.168ZM231.744 214.232C231.064 214.232 230.544 214.032 230.184 213.632C229.832 213.224 229.656 212.632 229.656 211.856C229.656 211.08 229.832 210.492 230.184 210.092C230.544 209.684 231.064 209.48 231.744 209.48C232.424 209.48 232.94 209.684 233.292 210.092C233.644 210.492 233.82 211.08 233.82 211.856C233.82 212.632 233.644 213.224 233.292 213.632C232.94 214.032 232.424 214.232 231.744 214.232ZM231.744 213.32C232.24 213.32 232.488 212.94 232.488 212.18V211.532C232.488 210.772 232.24 210.392 231.744 210.392C231.248 210.392 231 210.772 231 211.532V212.18C231 212.94 231.248 213.32 231.744 213.32ZM237.792 218.144C237.12 218.144 236.604 217.944 236.244 217.544C235.892 217.136 235.716 216.544 235.716 215.768C235.716 214.992 235.892 214.404 236.244 214.004C236.604 213.596 237.12 213.392 237.792 213.392C238.472 213.392 238.988 213.596 239.34 214.004C239.7 214.404 239.88 214.992 239.88 215.768C239.88 216.544 239.7 217.136 239.34 217.544C238.988 217.944 238.472 218.144 237.792 218.144ZM237.792 217.232C238.288 217.232 238.536 216.852 238.536 216.092V215.444C238.536 214.684 238.288 214.304 237.792 214.304C237.296 214.304 237.048 214.684 237.048 215.444V216.092C237.048 216.852 237.296 217.232 237.792 217.232Z" fill="#41637D"/>
<path d="M333.18 210.992H329.412L329.22 213.8H329.304C329.392 213.624 329.488 213.46 329.592 213.308C329.696 213.156 329.816 213.028 329.952 212.924C330.088 212.82 330.244 212.74 330.42 212.684C330.604 212.62 330.824 212.588 331.08 212.588C331.44 212.588 331.776 212.648 332.088 212.768C332.4 212.888 332.668 213.064 332.892 213.296C333.124 213.52 333.304 213.796 333.432 214.124C333.568 214.452 333.636 214.824 333.636 215.24C333.636 215.664 333.568 216.052 333.432 216.404C333.296 216.756 333.096 217.064 332.832 217.328C332.568 217.584 332.244 217.784 331.86 217.928C331.476 218.072 331.036 218.144 330.54 218.144C330.156 218.144 329.812 218.1 329.508 218.012C329.204 217.932 328.936 217.82 328.704 217.676C328.472 217.532 328.272 217.368 328.104 217.184C327.936 216.992 327.788 216.792 327.66 216.584L328.812 215.696C328.908 215.856 329.008 216.008 329.112 216.152C329.216 216.288 329.336 216.408 329.472 216.512C329.616 216.616 329.772 216.7 329.94 216.764C330.116 216.82 330.32 216.848 330.552 216.848C331.024 216.848 331.38 216.716 331.62 216.452C331.868 216.188 331.992 215.828 331.992 215.372V215.276C331.992 214.844 331.868 214.504 331.62 214.256C331.372 214.008 331.028 213.884 330.588 213.884C330.244 213.884 329.964 213.952 329.748 214.088C329.532 214.216 329.36 214.356 329.232 214.508L327.936 214.328L328.248 209.624H333.18V210.992ZM337.795 218.144C337.259 218.144 336.795 218.048 336.403 217.856C336.011 217.656 335.687 217.372 335.431 217.004C335.175 216.636 334.983 216.184 334.855 215.648C334.735 215.112 334.675 214.5 334.675 213.812C334.675 213.132 334.735 212.524 334.855 211.988C334.983 211.444 335.175 210.988 335.431 210.62C335.687 210.252 336.011 209.972 336.403 209.78C336.795 209.58 337.259 209.48 337.795 209.48C338.859 209.48 339.643 209.86 340.147 210.62C340.659 211.38 340.915 212.444 340.915 213.812C340.915 215.18 340.659 216.244 340.147 217.004C339.643 217.764 338.859 218.144 337.795 218.144ZM337.795 216.812C338.331 216.812 338.703 216.612 338.911 216.212C339.127 215.804 339.235 215.256 339.235 214.568V213.056C339.235 212.368 339.127 211.824 338.911 211.424C338.703 211.016 338.331 210.812 337.795 210.812C337.259 210.812 336.883 211.016 336.667 211.424C336.459 211.824 336.355 212.368 336.355 213.056V214.568C336.355 215.256 336.459 215.804 336.667 216.212C336.883 216.612 337.259 216.812 337.795 216.812ZM343.551 218L349.359 209.624H350.751L344.943 218H343.551ZM344.127 214.232C343.447 214.232 342.927 214.032 342.567 213.632C342.215 213.224 342.039 212.632 342.039 211.856C342.039 211.08 342.215 210.492 342.567 210.092C342.927 209.684 343.447 209.48 344.127 209.48C344.807 209.48 345.323 209.684 345.675 210.092C346.027 210.492 346.203 211.08 346.203 211.856C346.203 212.632 346.027 213.224 345.675 213.632C345.323 214.032 344.807 214.232 344.127 214.232ZM344.127 213.32C344.623 213.32 344.871 212.94 344.871 212.18V211.532C344.871 210.772 344.623 210.392 344.127 210.392C343.631 210.392 343.383 210.772 343.383 211.532V212.18C343.383 212.94 343.631 213.32 344.127 213.32ZM350.175 218.144C349.503 218.144 348.987 217.944 348.627 217.544C348.275 217.136 348.099 216.544 348.099 215.768C348.099 214.992 348.275 214.404 348.627 214.004C348.987 213.596 349.503 213.392 350.175 213.392C350.855 213.392 351.371 213.596 351.723 214.004C352.083 214.404 352.263 214.992 352.263 215.768C352.263 216.544 352.083 217.136 351.723 217.544C351.371 217.944 350.855 218.144 350.175 218.144ZM350.175 217.232C350.671 217.232 350.919 216.852 350.919 216.092V215.444C350.919 214.684 350.671 214.304 350.175 214.304C349.679 214.304 349.431 214.684 349.431 215.444V216.092C349.431 216.852 349.679 217.232 350.175 217.232Z" fill="#41637D"/>
<path d="M432.092 218V216.716H434.396V210.764H434.288L432.464 212.924L431.48 212.096L433.556 209.624H435.944V216.716H437.864V218H432.092ZM441.795 218.144C441.259 218.144 440.795 218.048 440.403 217.856C440.011 217.656 439.687 217.372 439.431 217.004C439.175 216.636 438.983 216.184 438.855 215.648C438.735 215.112 438.675 214.5 438.675 213.812C438.675 213.132 438.735 212.524 438.855 211.988C438.983 211.444 439.175 210.988 439.431 210.62C439.687 210.252 440.011 209.972 440.403 209.78C440.795 209.58 441.259 209.48 441.795 209.48C442.859 209.48 443.643 209.86 444.147 210.62C444.659 211.38 444.915 212.444 444.915 213.812C444.915 215.18 444.659 216.244 444.147 217.004C443.643 217.764 442.859 218.144 441.795 218.144ZM441.795 216.812C442.331 216.812 442.703 216.612 442.911 216.212C443.127 215.804 443.235 215.256 443.235 214.568V213.056C443.235 212.368 443.127 211.824 442.911 211.424C442.703 211.016 442.331 210.812 441.795 210.812C441.259 210.812 440.883 211.016 440.667 211.424C440.459 211.824 440.355 212.368 440.355 213.056V214.568C440.355 215.256 440.459 215.804 440.667 216.212C440.883 216.612 441.259 216.812 441.795 216.812ZM448.991 218.144C448.455 218.144 447.991 218.048 447.599 217.856C447.207 217.656 446.883 217.372 446.627 217.004C446.371 216.636 446.179 216.184 446.051 215.648C445.931 215.112 445.871 214.5 445.871 213.812C445.871 213.132 445.931 212.524 446.051 211.988C446.179 211.444 446.371 210.988 446.627 210.62C446.883 210.252 447.207 209.972 447.599 209.78C447.991 209.58 448.455 209.48 448.991 209.48C450.055 209.48 450.839 209.86 451.343 210.62C451.855 211.38 452.111 212.444 452.111 213.812C452.111 215.18 451.855 216.244 451.343 217.004C450.839 217.764 450.055 218.144 448.991 218.144ZM448.991 216.812C449.527 216.812 449.899 216.612 450.107 216.212C450.323 215.804 450.431 215.256 450.431 214.568V213.056C450.431 212.368 450.323 211.824 450.107 211.424C449.899 211.016 449.527 210.812 448.991 210.812C448.455 210.812 448.079 211.016 447.863 211.424C447.655 211.824 447.551 212.368 447.551 213.056V214.568C447.551 215.256 447.655 215.804 447.863 216.212C448.079 216.612 448.455 216.812 448.991 216.812ZM454.746 218L460.554 209.624H461.946L456.138 218H454.746ZM455.322 214.232C454.642 214.232 454.122 214.032 453.762 213.632C453.41 213.224 453.234 212.632 453.234 211.856C453.234 211.08 453.41 210.492 453.762 210.092C454.122 209.684 454.642 209.48 455.322 209.48C456.002 209.48 456.518 209.684 456.87 210.092C457.222 210.492 457.398 211.08 457.398 211.856C457.398 212.632 457.222 213.224 456.87 213.632C456.518 214.032 456.002 214.232 455.322 214.232ZM455.322 213.32C455.818 213.32 456.066 212.94 456.066 212.18V211.532C456.066 210.772 455.818 210.392 455.322 210.392C454.826 210.392 454.578 210.772 454.578 211.532V212.18C454.578 212.94 454.826 213.32 455.322 213.32ZM461.37 218.144C460.698 218.144 460.182 217.944 459.822 217.544C459.47 217.136 459.294 216.544 459.294 215.768C459.294 214.992 459.47 214.404 459.822 214.004C460.182 213.596 460.698 213.392 461.37 213.392C462.05 213.392 462.566 213.596 462.918 214.004C463.278 214.404 463.458 214.992 463.458 215.768C463.458 216.544 463.278 217.136 462.918 217.544C462.566 217.944 462.05 218.144 461.37 218.144ZM461.37 217.232C461.866 217.232 462.114 216.852 462.114 216.092V215.444C462.114 214.684 461.866 214.304 461.37 214.304C460.874 214.304 460.626 214.684 460.626 215.444V216.092C460.626 216.852 460.874 217.232 461.37 217.232Z" fill="#41637D"/>
<line opacity="0.2" x1="253.164" y1="6" x2="253.164" y2="196" stroke="#41637D" stroke-width="0.839895"/>
<line opacity="0.2" x1="361.643" y1="6" x2="361.643" y2="196" stroke="#41637D" stroke-width="0.839895"/>
<line opacity="0.2" x1="274.863" y1="6" x2="274.863" y2="196" stroke="#41637D" stroke-width="0.839895"/>
<line opacity="0.2" x1="383.336" y1="6" x2="383.336" y2="196" stroke="#41637D" stroke-width="0.839895"/>
<line opacity="0.2" x1="296.557" y1="6" x2="296.557" y2="196" stroke="#41637D" stroke-width="0.839895"/>
<line opacity="0.2" x1="405.029" y1="6" x2="405.029" y2="196" stroke="#41637D" stroke-width="0.839895"/>
<line opacity="0.2" x1="318.25" y1="6" x2="318.25" y2="196" stroke="#41637D" stroke-width="0.839895"/>
<line opacity="0.2" x1="426.723" y1="6" x2="426.723" y2="196" stroke="#41637D" stroke-width="0.839895"/>
<rect x="231" y="6" width="217" height="17" fill="#39A4F5"/>
<rect x="232" y="6" width="162" height="17" fill="#1084DD"/>
<path d="M63.0621 69V59.228H67.4581C67.9061 59.228 68.3074 59.3027 68.6621 59.452C69.0261 59.592 69.3341 59.7973 69.5861 60.068C69.8381 60.3293 70.0294 60.6467 70.1601 61.02C70.2907 61.3933 70.3561 61.804 70.3561 62.252C70.3561 62.7093 70.2907 63.1247 70.1601 63.498C70.0294 63.862 69.8381 64.1793 69.5861 64.45C69.3341 64.7113 69.0261 64.9167 68.6621 65.066C68.3074 65.206 67.9061 65.276 67.4581 65.276H64.9101V69H63.0621ZM64.9101 63.68H67.2901C67.6447 63.68 67.9247 63.5867 68.1301 63.4C68.3354 63.204 68.4381 62.9287 68.4381 62.574V61.93C68.4381 61.5753 68.3354 61.3047 68.1301 61.118C67.9247 60.9313 67.6447 60.838 67.2901 60.838H64.9101V63.68ZM77.9528 64.87H73.8788V69H72.0308V59.228H73.8788V63.232H77.9528V59.228H79.8008V69H77.9528V64.87ZM88.1413 69L87.3573 66.508H83.8853L83.1153 69H81.2393L84.5153 59.228H86.8113L90.0593 69H88.1413ZM85.6493 60.908H85.5793L84.3333 64.926H86.9093L85.6493 60.908ZM94.5376 69.168C93.6976 69.168 92.9836 69.0187 92.3956 68.72C91.8169 68.4213 91.3176 68.0293 90.8976 67.544L92.1436 66.34C92.4796 66.732 92.8529 67.0307 93.2636 67.236C93.6836 67.4413 94.1456 67.544 94.6496 67.544C95.2189 67.544 95.6482 67.4227 95.9376 67.18C96.2269 66.928 96.3716 66.592 96.3716 66.172C96.3716 65.8453 96.2782 65.5793 96.0916 65.374C95.9049 65.1687 95.5549 65.0193 95.0416 64.926L94.1176 64.786C92.1669 64.478 91.1916 63.5307 91.1916 61.944C91.1916 61.5053 91.2709 61.1087 91.4296 60.754C91.5976 60.3993 91.8356 60.096 92.1436 59.844C92.4516 59.592 92.8202 59.4007 93.2496 59.27C93.6882 59.13 94.1829 59.06 94.7336 59.06C95.4709 59.06 96.1149 59.1813 96.6656 59.424C97.2162 59.6667 97.6876 60.026 98.0796 60.502L96.8196 61.692C96.5769 61.3933 96.2829 61.1507 95.9376 60.964C95.5922 60.7773 95.1582 60.684 94.6356 60.684C94.1036 60.684 93.7022 60.7867 93.4316 60.992C93.1702 61.188 93.0396 61.468 93.0396 61.832C93.0396 62.2053 93.1469 62.4807 93.3616 62.658C93.5762 62.8353 93.9216 62.966 94.3976 63.05L95.3076 63.218C96.2969 63.3953 97.0249 63.7127 97.4916 64.17C97.9676 64.618 98.2056 65.248 98.2056 66.06C98.2056 66.5267 98.1216 66.9513 97.9536 67.334C97.7949 67.7073 97.5569 68.034 97.2396 68.314C96.9316 68.5847 96.5489 68.7947 96.0916 68.944C95.6436 69.0933 95.1256 69.168 94.5376 69.168ZM100.058 69V59.228H106.498V60.866H101.906V63.232H105.966V64.87H101.906V67.362H106.498V69H100.058ZM111.761 69V59.228H118.201V60.866H113.609V63.232H117.669V64.87H113.609V67.362H118.201V69H111.761ZM115.163 58.584L114.085 58.052L115.415 55.434L116.927 56.19L115.163 58.584ZM120.156 69V59.228H122.004V67.362H125.854V69H120.156ZM133.751 69L132.967 66.508H129.495L128.725 69H126.849L130.125 59.228H132.421L135.669 69H133.751ZM131.259 60.908H131.189L129.943 64.926H132.519L131.259 60.908ZM137.109 59.228H141.631C142.032 59.228 142.392 59.2887 142.709 59.41C143.036 59.5313 143.311 59.6993 143.535 59.914C143.759 60.1287 143.927 60.3947 144.039 60.712C144.16 61.02 144.221 61.3607 144.221 61.734C144.221 62.1073 144.17 62.4247 144.067 62.686C143.974 62.938 143.843 63.148 143.675 63.316C143.516 63.484 143.33 63.61 143.115 63.694C142.91 63.778 142.695 63.8247 142.471 63.834V63.918C142.686 63.918 142.914 63.96 143.157 64.044C143.409 64.128 143.638 64.2633 143.843 64.45C144.058 64.6273 144.235 64.8607 144.375 65.15C144.515 65.43 144.585 65.78 144.585 66.2C144.585 66.592 144.52 66.9607 144.389 67.306C144.268 67.642 144.095 67.936 143.871 68.188C143.647 68.44 143.381 68.6407 143.073 68.79C142.765 68.93 142.429 69 142.065 69H137.109V59.228ZM138.957 67.432H141.533C141.888 67.432 142.163 67.3433 142.359 67.166C142.555 66.9793 142.653 66.7133 142.653 66.368V65.892C142.653 65.5467 142.555 65.2807 142.359 65.094C142.163 64.9073 141.888 64.814 141.533 64.814H138.957V67.432ZM138.957 63.302H141.239C141.575 63.302 141.836 63.2133 142.023 63.036C142.21 62.8493 142.303 62.5927 142.303 62.266V61.832C142.303 61.5053 142.21 61.2533 142.023 61.076C141.836 60.8893 141.575 60.796 141.239 60.796H138.957V63.302ZM150.228 69.168C149.584 69.168 149.001 69.0607 148.478 68.846C147.955 68.6313 147.507 68.3093 147.134 67.88C146.77 67.4507 146.485 66.9233 146.28 66.298C146.075 65.6727 145.972 64.9447 145.972 64.114C145.972 63.2927 146.075 62.5693 146.28 61.944C146.485 61.3093 146.77 60.7773 147.134 60.348C147.507 59.9187 147.955 59.5967 148.478 59.382C149.001 59.1673 149.584 59.06 150.228 59.06C150.872 59.06 151.455 59.1673 151.978 59.382C152.501 59.5967 152.949 59.9187 153.322 60.348C153.695 60.7773 153.98 61.3093 154.176 61.944C154.381 62.5693 154.484 63.2927 154.484 64.114C154.484 64.9447 154.381 65.6727 154.176 66.298C153.98 66.9233 153.695 67.4507 153.322 67.88C152.949 68.3093 152.501 68.6313 151.978 68.846C151.455 69.0607 150.872 69.168 150.228 69.168ZM150.228 67.53C150.928 67.53 151.483 67.2967 151.894 66.83C152.314 66.3633 152.524 65.71 152.524 64.87V63.358C152.524 62.518 152.314 61.8647 151.894 61.398C151.483 60.9313 150.928 60.698 150.228 60.698C149.528 60.698 148.968 60.9313 148.548 61.398C148.137 61.8647 147.932 62.518 147.932 63.358V64.87C147.932 65.71 148.137 66.3633 148.548 66.83C148.968 67.2967 149.528 67.53 150.228 67.53ZM158.207 69H156.359V59.228H160.769C161.217 59.228 161.618 59.298 161.973 59.438C162.328 59.578 162.626 59.7833 162.869 60.054C163.121 60.3153 163.312 60.6327 163.443 61.006C163.583 61.3793 163.653 61.7947 163.653 62.252C163.653 62.924 163.499 63.5027 163.191 63.988C162.892 64.4733 162.44 64.8187 161.833 65.024L163.835 69H161.777L159.957 65.234H158.207V69ZM160.587 63.68C160.942 63.68 161.222 63.5867 161.427 63.4C161.632 63.204 161.735 62.9287 161.735 62.574V61.93C161.735 61.5753 161.632 61.3047 161.427 61.118C161.222 60.9313 160.942 60.838 160.587 60.838H158.207V63.68H160.587ZM171.704 69L170.92 66.508H167.448L166.678 69H164.802L168.078 59.228H170.374L173.622 69H171.704ZM169.212 60.908H169.142L167.896 64.926H170.472L169.212 60.908ZM177.982 60.866V69H176.134V60.866H173.362V59.228H180.754V60.866H177.982ZM181.793 69V67.516H183.081V60.712H181.793V59.228H186.231V60.712H184.929V67.516H186.231V69H181.793ZM191.955 69.168C191.311 69.168 190.727 69.0607 190.205 68.846C189.682 68.6313 189.234 68.3093 188.861 67.88C188.497 67.4507 188.212 66.9233 188.007 66.298C187.801 65.6727 187.699 64.9447 187.699 64.114C187.699 63.2927 187.801 62.5693 188.007 61.944C188.212 61.3093 188.497 60.7773 188.861 60.348C189.234 59.9187 189.682 59.5967 190.205 59.382C190.727 59.1673 191.311 59.06 191.955 59.06C192.599 59.06 193.182 59.1673 193.705 59.382C194.227 59.5967 194.675 59.9187 195.049 60.348C195.422 60.7773 195.707 61.3093 195.903 61.944C196.108 62.5693 196.211 63.2927 196.211 64.114C196.211 64.9447 196.108 65.6727 195.903 66.298C195.707 66.9233 195.422 67.4507 195.049 67.88C194.675 68.3093 194.227 68.6313 193.705 68.846C193.182 69.0607 192.599 69.168 191.955 69.168ZM191.955 67.53C192.655 67.53 193.21 67.2967 193.621 66.83C194.041 66.3633 194.251 65.71 194.251 64.87V63.358C194.251 62.518 194.041 61.8647 193.621 61.398C193.21 60.9313 192.655 60.698 191.955 60.698C191.255 60.698 190.695 60.9313 190.275 61.398C189.864 61.8647 189.659 62.518 189.659 63.358V64.87C189.659 65.71 189.864 66.3633 190.275 66.83C190.695 67.2967 191.255 67.53 191.955 67.53ZM200.886 63.988L199.878 61.958H199.836V69H198.086V59.228H200.116L203.056 64.24L204.064 66.27H204.106V59.228H205.856V69H203.826L200.886 63.988ZM40.52 85.168C39.68 85.168 38.966 85.0187 38.378 84.72C37.7993 84.4213 37.3 84.0293 36.88 83.544L38.126 82.34C38.462 82.732 38.8353 83.0307 39.246 83.236C39.666 83.4413 40.128 83.544 40.632 83.544C41.2013 83.544 41.6307 83.4227 41.92 83.18C42.2093 82.928 42.354 82.592 42.354 82.172C42.354 81.8453 42.2607 81.5793 42.074 81.374C41.8873 81.1687 41.5373 81.0193 41.024 80.926L40.1 80.786C38.1493 80.478 37.174 79.5307 37.174 77.944C37.174 77.5053 37.2533 77.1087 37.412 76.754C37.58 76.3993 37.818 76.096 38.126 75.844C38.434 75.592 38.8027 75.4007 39.232 75.27C39.6707 75.13 40.1653 75.06 40.716 75.06C41.4533 75.06 42.0973 75.1813 42.648 75.424C43.1987 75.6667 43.67 76.026 44.062 76.502L42.802 77.692C42.5593 77.3933 42.2653 77.1507 41.92 76.964C41.5747 76.7773 41.1407 76.684 40.618 76.684C40.086 76.684 39.6847 76.7867 39.414 76.992C39.1527 77.188 39.022 77.468 39.022 77.832C39.022 78.2053 39.1293 78.4807 39.344 78.658C39.5587 78.8353 39.904 78.966 40.38 79.05L41.29 79.218C42.2793 79.3953 43.0073 79.7127 43.474 80.17C43.95 80.618 44.188 81.248 44.188 82.06C44.188 82.5267 44.104 82.9513 43.936 83.334C43.7773 83.7073 43.5393 84.034 43.222 84.314C42.914 84.5847 42.5313 84.7947 42.074 84.944C41.626 85.0933 41.108 85.168 40.52 85.168ZM49.8766 85.168C49.2326 85.168 48.6492 85.0607 48.1266 84.846C47.6039 84.6313 47.1559 84.3093 46.7826 83.88C46.4186 83.4507 46.1339 82.9233 45.9286 82.298C45.7232 81.6727 45.6206 80.9447 45.6206 80.114C45.6206 79.2927 45.7232 78.5693 45.9286 77.944C46.1339 77.3093 46.4186 76.7773 46.7826 76.348C47.1559 75.9187 47.6039 75.5967 48.1266 75.382C48.6492 75.1673 49.2326 75.06 49.8766 75.06C50.5206 75.06 51.1039 75.1673 51.6266 75.382C52.1492 75.5967 52.5972 75.9187 52.9706 76.348C53.3439 76.7773 53.6286 77.3093 53.8246 77.944C54.0299 78.5693 54.1326 79.2927 54.1326 80.114C54.1326 80.9447 54.0299 81.6727 53.8246 82.298C53.6286 82.9233 53.3439 83.4507 52.9706 83.88C52.5972 84.3093 52.1492 84.6313 51.6266 84.846C51.1039 85.0607 50.5206 85.168 49.8766 85.168ZM49.8766 83.53C50.5766 83.53 51.1319 83.2967 51.5426 82.83C51.9626 82.3633 52.1726 81.71 52.1726 80.87V79.358C52.1726 78.518 51.9626 77.8647 51.5426 77.398C51.1319 76.9313 50.5766 76.698 49.8766 76.698C49.1766 76.698 48.6166 76.9313 48.1966 77.398C47.7859 77.8647 47.5806 78.518 47.5806 79.358V80.87C47.5806 81.71 47.7859 82.3633 48.1966 82.83C48.6166 83.2967 49.1766 83.53 49.8766 83.53ZM56.0074 85V75.228H57.8554V83.362H61.7054V85H56.0074ZM64.607 75.228V81.234C64.607 81.9993 64.7517 82.5733 65.041 82.956C65.3397 83.3387 65.839 83.53 66.539 83.53C67.239 83.53 67.7337 83.3387 68.023 82.956C68.3217 82.5733 68.471 81.9993 68.471 81.234V75.228H70.291V80.996C70.291 81.7147 70.221 82.3353 70.081 82.858C69.9503 83.3807 69.7357 83.8147 69.437 84.16C69.1383 84.5053 68.7463 84.762 68.261 84.93C67.785 85.0887 67.2063 85.168 66.525 85.168C65.8343 85.168 65.251 85.0887 64.775 84.93C64.3083 84.762 63.9257 84.5053 63.627 84.16C63.3283 83.8147 63.1137 83.3807 62.983 82.858C62.8523 82.3353 62.787 81.7147 62.787 80.996V75.228H64.607ZM76.359 76.866V85H74.511V76.866H71.739V75.228H79.131V76.866H76.359ZM80.1697 85V83.516H81.4577V76.712H80.1697V75.228H84.6077V76.712H83.3057V83.516H84.6077V85H80.1697ZM90.3317 85.168C89.6877 85.168 89.1043 85.0607 88.5817 84.846C88.059 84.6313 87.611 84.3093 87.2377 83.88C86.8737 83.4507 86.589 82.9233 86.3837 82.298C86.1783 81.6727 86.0757 80.9447 86.0757 80.114C86.0757 79.2927 86.1783 78.5693 86.3837 77.944C86.589 77.3093 86.8737 76.7773 87.2377 76.348C87.611 75.9187 88.059 75.5967 88.5817 75.382C89.1043 75.1673 89.6877 75.06 90.3317 75.06C90.9757 75.06 91.559 75.1673 92.0817 75.382C92.6043 75.5967 93.0523 75.9187 93.4257 76.348C93.799 76.7773 94.0837 77.3093 94.2797 77.944C94.485 78.5693 94.5877 79.2927 94.5877 80.114C94.5877 80.9447 94.485 81.6727 94.2797 82.298C94.0837 82.9233 93.799 83.4507 93.4257 83.88C93.0523 84.3093 92.6043 84.6313 92.0817 84.846C91.559 85.0607 90.9757 85.168 90.3317 85.168ZM90.3317 83.53C91.0317 83.53 91.587 83.2967 91.9977 82.83C92.4177 82.3633 92.6277 81.71 92.6277 80.87V79.358C92.6277 78.518 92.4177 77.8647 91.9977 77.398C91.587 76.9313 91.0317 76.698 90.3317 76.698C89.6317 76.698 89.0717 76.9313 88.6517 77.398C88.241 77.8647 88.0357 78.518 88.0357 79.358V80.87C88.0357 81.71 88.241 82.3633 88.6517 82.83C89.0717 83.2967 89.6317 83.53 90.3317 83.53ZM99.2625 79.988L98.2545 77.958H98.2125V85H96.4625V75.228H98.4925L101.432 80.24L102.44 82.27H102.482V75.228H104.232V85H102.202L99.2625 79.988ZM109.428 85V83.516H110.716V76.712H109.428V75.228H113.866V76.712H112.564V83.516H113.866V85H109.428ZM118.553 79.988L117.545 77.958H117.503V85H115.753V75.228H117.783L120.723 80.24L121.731 82.27H121.773V75.228H123.523V85H121.493L118.553 79.988ZM125.816 75.228H129.372C130.007 75.228 130.581 75.3307 131.094 75.536C131.617 75.7413 132.06 76.0493 132.424 76.46C132.797 76.8613 133.082 77.37 133.278 77.986C133.483 78.5927 133.586 79.302 133.586 80.114C133.586 80.926 133.483 81.64 133.278 82.256C133.082 82.8627 132.797 83.3713 132.424 83.782C132.06 84.1833 131.617 84.4867 131.094 84.692C130.581 84.8973 130.007 85 129.372 85H125.816V75.228ZM129.372 83.362C130.063 83.362 130.609 83.1613 131.01 82.76C131.421 82.3493 131.626 81.724 131.626 80.884V79.344C131.626 78.504 131.421 77.8833 131.01 77.482C130.609 77.0713 130.063 76.866 129.372 76.866H127.664V83.362H129.372ZM137.218 75.228V81.234C137.218 81.9993 137.363 82.5733 137.652 82.956C137.951 83.3387 138.45 83.53 139.15 83.53C139.85 83.53 140.345 83.3387 140.634 82.956C140.933 82.5733 141.082 81.9993 141.082 81.234V75.228H142.902V80.996C142.902 81.7147 142.832 82.3353 142.692 82.858C142.562 83.3807 142.347 83.8147 142.048 84.16C141.75 84.5053 141.358 84.762 140.872 84.93C140.396 85.0887 139.818 85.168 139.136 85.168C138.446 85.168 137.862 85.0887 137.386 84.93C136.92 84.762 136.537 84.5053 136.238 84.16C135.94 83.8147 135.725 83.3807 135.594 82.858C135.464 82.3353 135.398 81.7147 135.398 80.996V75.228H137.218ZM148.172 85.168C147.332 85.168 146.618 85.0187 146.03 84.72C145.452 84.4213 144.952 84.0293 144.532 83.544L145.778 82.34C146.114 82.732 146.488 83.0307 146.898 83.236C147.318 83.4413 147.78 83.544 148.284 83.544C148.854 83.544 149.283 83.4227 149.572 83.18C149.862 82.928 150.006 82.592 150.006 82.172C150.006 81.8453 149.913 81.5793 149.726 81.374C149.54 81.1687 149.19 81.0193 148.676 80.926L147.752 80.786C145.802 80.478 144.826 79.5307 144.826 77.944C144.826 77.5053 144.906 77.1087 145.064 76.754C145.232 76.3993 145.47 76.096 145.778 75.844C146.086 75.592 146.455 75.4007 146.884 75.27C147.323 75.13 147.818 75.06 148.368 75.06C149.106 75.06 149.75 75.1813 150.3 75.424C150.851 75.6667 151.322 76.026 151.714 76.502L150.454 77.692C150.212 77.3933 149.918 77.1507 149.572 76.964C149.227 76.7773 148.793 76.684 148.27 76.684C147.738 76.684 147.337 76.7867 147.066 76.992C146.805 77.188 146.674 77.468 146.674 77.832C146.674 78.2053 146.782 78.4807 146.996 78.658C147.211 78.8353 147.556 78.966 148.032 79.05L148.942 79.218C149.932 79.3953 150.66 79.7127 151.126 80.17C151.602 80.618 151.84 81.248 151.84 82.06C151.84 82.5267 151.756 82.9513 151.588 83.334C151.43 83.7073 151.192 84.034 150.874 84.314C150.566 84.5847 150.184 84.7947 149.726 84.944C149.278 85.0933 148.76 85.168 148.172 85.168ZM157.255 76.866V85H155.407V76.866H152.635V75.228H160.027V76.866H157.255ZM163.389 85H161.541V75.228H165.951C166.399 75.228 166.8 75.298 167.155 75.438C167.509 75.578 167.808 75.7833 168.051 76.054C168.303 76.3153 168.494 76.6327 168.625 77.006C168.765 77.3793 168.835 77.7947 168.835 78.252C168.835 78.924 168.681 79.5027 168.373 79.988C168.074 80.4733 167.621 80.8187 167.015 81.024L169.017 85H166.959L165.139 81.234H163.389V85ZM165.769 79.68C166.123 79.68 166.403 79.5867 166.609 79.4C166.814 79.204 166.917 78.9287 166.917 78.574V77.93C166.917 77.5753 166.814 77.3047 166.609 77.118C166.403 76.9313 166.123 76.838 165.769 76.838H163.389V79.68H165.769ZM170.431 85V83.516H171.719V76.712H170.431V75.228H174.869V76.712H173.567V83.516H174.869V85H170.431ZM176.757 85V75.228H183.197V76.866H178.605V79.232H182.665V80.87H178.605V83.362H183.197V85H176.757ZM185.152 85V75.228H187V83.362H190.85V85H185.152ZM192.453 85V75.228H194.301V83.362H198.151V85H192.453ZM199.753 85V75.228H206.193V76.866H201.601V79.232H205.661V80.87H201.601V83.362H206.193V85H199.753Z" fill="#F6851E"/>
<line x1="231.471" y1="6" x2="231.471" y2="196" stroke="#41637D" stroke-width="0.839895"/>
<line x1="339.943" y1="6" x2="339.943" y2="196" stroke="#41637D" stroke-width="0.839895"/>
<line x1="448.422" y1="6" x2="448.422" y2="196" stroke="#41637D" stroke-width="0.839895"/>
<path d="M187.266 0C176.41 0 167.578 8.83191 167.578 19.6875C167.578 28.4399 173.346 36.1135 181.682 38.5712L186.008 47.2225C186.246 47.699 186.733 48 187.266 48C187.798 48 188.285 47.699 188.523 47.2225L192.849 38.5715C201.186 36.1139 206.953 28.4403 206.953 19.6875C206.953 8.83191 198.121 0 187.266 0V0ZM191.518 36.0223C191.124 36.1241 190.795 36.3911 190.613 36.7544L187.266 43.4495L183.918 36.7544C183.736 36.3911 183.407 36.1241 183.014 36.022C175.581 34.0935 170.391 27.3765 170.391 19.6875C170.391 10.3824 177.961 2.8125 187.266 2.8125C196.571 2.8125 204.141 10.3824 204.141 19.6875C204.141 27.3765 198.95 34.0935 191.518 36.0223Z" fill="#F6851E"/>
<path d="M187.266 14.0625C184.164 14.0625 181.641 16.5857 181.641 19.6875C181.641 22.7893 184.164 25.3125 187.266 25.3125C190.367 25.3125 192.891 22.7893 192.891 19.6875C192.891 16.5857 190.367 14.0625 187.266 14.0625ZM187.266 22.5C185.715 22.5 184.453 21.2384 184.453 19.6875C184.453 18.1366 185.715 16.875 187.266 16.875C188.817 16.875 190.078 18.1366 190.078 19.6875C190.078 21.2384 188.817 22.5 187.266 22.5Z" fill="#F6851E"/>
</svg>
