<svg width="236" height="216" viewBox="0 0 236 216" fill="none" xmlns="http://www.w3.org/2000/svg">
<path d="M129.144 212.144C128.608 212.144 128.144 212.048 127.752 211.856C127.36 211.656 127.036 211.372 126.78 211.004C126.524 210.636 126.332 210.184 126.204 209.648C126.084 209.112 126.024 208.5 126.024 207.812C126.024 207.132 126.084 206.524 126.204 205.988C126.332 205.444 126.524 204.988 126.78 204.62C127.036 204.252 127.36 203.972 127.752 203.78C128.144 203.58 128.608 203.48 129.144 203.48C130.208 203.48 130.992 203.86 131.496 204.62C132.008 205.38 132.264 206.444 132.264 207.812C132.264 209.18 132.008 210.244 131.496 211.004C130.992 211.764 130.208 212.144 129.144 212.144ZM129.144 210.812C129.68 210.812 130.052 210.612 130.26 210.212C130.476 209.804 130.584 209.256 130.584 208.568V207.056C130.584 206.368 130.476 205.824 130.26 205.424C130.052 205.016 129.68 204.812 129.144 204.812C128.608 204.812 128.232 205.016 128.016 205.424C127.808 205.824 127.704 206.368 127.704 207.056V208.568C127.704 209.256 127.808 209.804 128.016 210.212C128.232 210.612 128.608 210.812 129.144 210.812ZM134.899 212L140.707 203.624H142.099L136.291 212H134.899ZM135.475 208.232C134.795 208.232 134.275 208.032 133.915 207.632C133.563 207.224 133.387 206.632 133.387 205.856C133.387 205.08 133.563 204.492 133.915 204.092C134.275 203.684 134.795 203.48 135.475 203.48C136.155 203.48 136.671 203.684 137.023 204.092C137.375 204.492 137.551 205.08 137.551 205.856C137.551 206.632 137.375 207.224 137.023 207.632C136.671 208.032 136.155 208.232 135.475 208.232ZM135.475 207.32C135.971 207.32 136.219 206.94 136.219 206.18V205.532C136.219 204.772 135.971 204.392 135.475 204.392C134.979 204.392 134.731 204.772 134.731 205.532V206.18C134.731 206.94 134.979 207.32 135.475 207.32ZM141.523 212.144C140.851 212.144 140.335 211.944 139.975 211.544C139.623 211.136 139.447 210.544 139.447 209.768C139.447 208.992 139.623 208.404 139.975 208.004C140.335 207.596 140.851 207.392 141.523 207.392C142.203 207.392 142.719 207.596 143.071 208.004C143.431 208.404 143.611 208.992 143.611 209.768C143.611 210.544 143.431 211.136 143.071 211.544C142.719 211.944 142.203 212.144 141.523 212.144ZM141.523 211.232C142.019 211.232 142.267 210.852 142.267 210.092V209.444C142.267 208.684 142.019 208.304 141.523 208.304C141.027 208.304 140.779 208.684 140.779 209.444V210.092C140.779 210.852 141.027 211.232 141.523 211.232Z" fill="#41637D"/>
<path d="M169.519 204.992H165.751L165.559 207.8H165.643C165.731 207.624 165.827 207.46 165.931 207.308C166.035 207.156 166.155 207.028 166.291 206.924C166.427 206.82 166.583 206.74 166.759 206.684C166.943 206.62 167.163 206.588 167.419 206.588C167.779 206.588 168.115 206.648 168.427 206.768C168.739 206.888 169.007 207.064 169.231 207.296C169.463 207.52 169.643 207.796 169.771 208.124C169.907 208.452 169.975 208.824 169.975 209.24C169.975 209.664 169.907 210.052 169.771 210.404C169.635 210.756 169.435 211.064 169.171 211.328C168.907 211.584 168.583 211.784 168.199 211.928C167.815 212.072 167.375 212.144 166.879 212.144C166.495 212.144 166.151 212.1 165.847 212.012C165.543 211.932 165.275 211.82 165.043 211.676C164.811 211.532 164.611 211.368 164.443 211.184C164.275 210.992 164.127 210.792 163.999 210.584L165.151 209.696C165.247 209.856 165.347 210.008 165.451 210.152C165.555 210.288 165.675 210.408 165.811 210.512C165.955 210.616 166.111 210.7 166.279 210.764C166.455 210.82 166.659 210.848 166.891 210.848C167.363 210.848 167.719 210.716 167.959 210.452C168.207 210.188 168.331 209.828 168.331 209.372V209.276C168.331 208.844 168.207 208.504 167.959 208.256C167.711 208.008 167.367 207.884 166.927 207.884C166.583 207.884 166.303 207.952 166.087 208.088C165.871 208.216 165.699 208.356 165.571 208.508L164.275 208.328L164.587 203.624H169.519V204.992ZM174.134 212.144C173.598 212.144 173.134 212.048 172.742 211.856C172.35 211.656 172.026 211.372 171.77 211.004C171.514 210.636 171.322 210.184 171.194 209.648C171.074 209.112 171.014 208.5 171.014 207.812C171.014 207.132 171.074 206.524 171.194 205.988C171.322 205.444 171.514 204.988 171.77 204.62C172.026 204.252 172.35 203.972 172.742 203.78C173.134 203.58 173.598 203.48 174.134 203.48C175.198 203.48 175.982 203.86 176.486 204.62C176.998 205.38 177.254 206.444 177.254 207.812C177.254 209.18 176.998 210.244 176.486 211.004C175.982 211.764 175.198 212.144 174.134 212.144ZM174.134 210.812C174.67 210.812 175.042 210.612 175.25 210.212C175.466 209.804 175.574 209.256 175.574 208.568V207.056C175.574 206.368 175.466 205.824 175.25 205.424C175.042 205.016 174.67 204.812 174.134 204.812C173.598 204.812 173.222 205.016 173.006 205.424C172.798 205.824 172.694 206.368 172.694 207.056V208.568C172.694 209.256 172.798 209.804 173.006 210.212C173.222 210.612 173.598 210.812 174.134 210.812ZM179.889 212L185.697 203.624H187.089L181.281 212H179.889ZM180.465 208.232C179.785 208.232 179.265 208.032 178.905 207.632C178.553 207.224 178.377 206.632 178.377 205.856C178.377 205.08 178.553 204.492 178.905 204.092C179.265 203.684 179.785 203.48 180.465 203.48C181.145 203.48 181.661 203.684 182.013 204.092C182.365 204.492 182.541 205.08 182.541 205.856C182.541 206.632 182.365 207.224 182.013 207.632C181.661 208.032 181.145 208.232 180.465 208.232ZM180.465 207.32C180.961 207.32 181.209 206.94 181.209 206.18V205.532C181.209 204.772 180.961 204.392 180.465 204.392C179.969 204.392 179.721 204.772 179.721 205.532V206.18C179.721 206.94 179.969 207.32 180.465 207.32ZM186.513 212.144C185.841 212.144 185.325 211.944 184.965 211.544C184.613 211.136 184.437 210.544 184.437 209.768C184.437 208.992 184.613 208.404 184.965 208.004C185.325 207.596 185.841 207.392 186.513 207.392C187.193 207.392 187.709 207.596 188.061 208.004C188.421 208.404 188.601 208.992 188.601 209.768C188.601 210.544 188.421 211.136 188.061 211.544C187.709 211.944 187.193 212.144 186.513 212.144ZM186.513 211.232C187.009 211.232 187.257 210.852 187.257 210.092V209.444C187.257 208.684 187.009 208.304 186.513 208.304C186.017 208.304 185.769 208.684 185.769 209.444V210.092C185.769 210.852 186.017 211.232 186.513 211.232Z" fill="#41637D"/>
<path d="M203.067 212V210.716H205.371V204.764H205.263L203.439 206.924L202.455 206.096L204.531 203.624H206.919V210.716H208.839V212H203.067ZM212.77 212.144C212.234 212.144 211.77 212.048 211.378 211.856C210.986 211.656 210.662 211.372 210.406 211.004C210.15 210.636 209.958 210.184 209.83 209.648C209.71 209.112 209.65 208.5 209.65 207.812C209.65 207.132 209.71 206.524 209.83 205.988C209.958 205.444 210.15 204.988 210.406 204.62C210.662 204.252 210.986 203.972 211.378 203.78C211.77 203.58 212.234 203.48 212.77 203.48C213.834 203.48 214.618 203.86 215.122 204.62C215.634 205.38 215.89 206.444 215.89 207.812C215.89 209.18 215.634 210.244 215.122 211.004C214.618 211.764 213.834 212.144 212.77 212.144ZM212.77 210.812C213.306 210.812 213.678 210.612 213.886 210.212C214.102 209.804 214.21 209.256 214.21 208.568V207.056C214.21 206.368 214.102 205.824 213.886 205.424C213.678 205.016 213.306 204.812 212.77 204.812C212.234 204.812 211.858 205.016 211.642 205.424C211.434 205.824 211.33 206.368 211.33 207.056V208.568C211.33 209.256 211.434 209.804 211.642 210.212C211.858 210.612 212.234 210.812 212.77 210.812ZM219.965 212.144C219.429 212.144 218.965 212.048 218.573 211.856C218.181 211.656 217.857 211.372 217.601 211.004C217.345 210.636 217.153 210.184 217.025 209.648C216.905 209.112 216.845 208.5 216.845 207.812C216.845 207.132 216.905 206.524 217.025 205.988C217.153 205.444 217.345 204.988 217.601 204.62C217.857 204.252 218.181 203.972 218.573 203.78C218.965 203.58 219.429 203.48 219.965 203.48C221.029 203.48 221.813 203.86 222.317 204.62C222.829 205.38 223.085 206.444 223.085 207.812C223.085 209.18 222.829 210.244 222.317 211.004C221.813 211.764 221.029 212.144 219.965 212.144ZM219.965 210.812C220.501 210.812 220.873 210.612 221.081 210.212C221.297 209.804 221.405 209.256 221.405 208.568V207.056C221.405 206.368 221.297 205.824 221.081 205.424C220.873 205.016 220.501 204.812 219.965 204.812C219.429 204.812 219.053 205.016 218.837 205.424C218.629 205.824 218.525 206.368 218.525 207.056V208.568C218.525 209.256 218.629 209.804 218.837 210.212C219.053 210.612 219.429 210.812 219.965 210.812ZM225.721 212L231.529 203.624H232.921L227.113 212H225.721ZM226.297 208.232C225.617 208.232 225.097 208.032 224.737 207.632C224.385 207.224 224.209 206.632 224.209 205.856C224.209 205.08 224.385 204.492 224.737 204.092C225.097 203.684 225.617 203.48 226.297 203.48C226.977 203.48 227.493 203.684 227.845 204.092C228.197 204.492 228.373 205.08 228.373 205.856C228.373 206.632 228.197 207.224 227.845 207.632C227.493 208.032 226.977 208.232 226.297 208.232ZM226.297 207.32C226.793 207.32 227.041 206.94 227.041 206.18V205.532C227.041 204.772 226.793 204.392 226.297 204.392C225.801 204.392 225.553 204.772 225.553 205.532V206.18C225.553 206.94 225.801 207.32 226.297 207.32ZM232.345 212.144C231.673 212.144 231.157 211.944 230.797 211.544C230.445 211.136 230.269 210.544 230.269 209.768C230.269 208.992 230.445 208.404 230.797 208.004C231.157 207.596 231.673 207.392 232.345 207.392C233.025 207.392 233.541 207.596 233.893 208.004C234.253 208.404 234.433 208.992 234.433 209.768C234.433 210.544 234.253 211.136 233.893 211.544C233.541 211.944 233.025 212.144 232.345 212.144ZM232.345 211.232C232.841 211.232 233.089 210.852 233.089 210.092V209.444C233.089 208.684 232.841 208.304 232.345 208.304C231.849 208.304 231.601 208.684 231.601 209.444V210.092C231.601 210.852 231.849 211.232 232.345 211.232Z" fill="#41637D"/>
<line opacity="0.2" x1="143.602" y1="1.64788e-08" x2="143.602" y2="190" stroke="#41637D" stroke-width="0.839895"/>
<line opacity="0.2" x1="185.597" y1="1.64788e-08" x2="185.597" y2="190" stroke="#41637D" stroke-width="0.839895"/>
<line opacity="0.2" x1="152.001" y1="1.64788e-08" x2="152.001" y2="190" stroke="#41637D" stroke-width="0.839895"/>
<line opacity="0.2" x1="193.995" y1="1.64788e-08" x2="193.995" y2="190" stroke="#41637D" stroke-width="0.839895"/>
<line opacity="0.2" x1="160.399" y1="1.64788e-08" x2="160.399" y2="190" stroke="#41637D" stroke-width="0.839895"/>
<line opacity="0.2" x1="202.395" y1="1.64788e-08" x2="202.395" y2="190" stroke="#41637D" stroke-width="0.839895"/>
<line opacity="0.2" x1="168.799" y1="1.64788e-08" x2="168.799" y2="190" stroke="#41637D" stroke-width="0.839895"/>
<line opacity="0.2" x1="210.793" y1="1.64788e-08" x2="210.793" y2="190" stroke="#41637D" stroke-width="0.839895"/>
<rect x="134.782" width="83.9895" height="16.7979" fill="#39A4F5"/>
<rect x="135.731" width="62" height="17" fill="#1084DD"/>
<path d="M72.8092 13V4.624H76.5772C76.9612 4.624 77.3052 4.688 77.6092 4.816C77.9212 4.936 78.1852 5.112 78.4012 5.344C78.6172 5.568 78.7812 5.84 78.8932 6.16C79.0052 6.48 79.0612 6.832 79.0612 7.216C79.0612 7.608 79.0052 7.964 78.8932 8.284C78.7812 8.596 78.6172 8.868 78.4012 9.1C78.1852 9.324 77.9212 9.5 77.6092 9.628C77.3052 9.748 76.9612 9.808 76.5772 9.808H74.3932V13H72.8092ZM74.3932 8.44H76.4332C76.7372 8.44 76.9772 8.36 77.1532 8.2C77.3292 8.032 77.4172 7.796 77.4172 7.492V6.94C77.4172 6.636 77.3292 6.404 77.1532 6.244C76.9772 6.084 76.7372 6.004 76.4332 6.004H74.3932V8.44ZM85.5727 9.46H82.0807V13H80.4967V4.624H82.0807V8.056H85.5727V4.624H87.1567V13H85.5727V9.46ZM94.3057 13L93.6337 10.864H90.6577L89.9977 13H88.3897L91.1977 4.624H93.1657L95.9497 13H94.3057ZM92.1697 6.064H92.1097L91.0417 9.508H93.2497L92.1697 6.064ZM99.7882 13.144C99.0682 13.144 98.4562 13.016 97.9522 12.76C97.4562 12.504 97.0282 12.168 96.6682 11.752L97.7362 10.72C98.0242 11.056 98.3442 11.312 98.6962 11.488C99.0562 11.664 99.4522 11.752 99.8842 11.752C100.372 11.752 100.74 11.648 100.988 11.44C101.236 11.224 101.36 10.936 101.36 10.576C101.36 10.296 101.28 10.068 101.12 9.892C100.96 9.716 100.66 9.588 100.22 9.508L99.4282 9.388C97.7562 9.124 96.9202 8.312 96.9202 6.952C96.9202 6.576 96.9882 6.236 97.1242 5.932C97.2682 5.628 97.4722 5.368 97.7362 5.152C98.0002 4.936 98.3162 4.772 98.6842 4.66C99.0602 4.54 99.4842 4.48 99.9562 4.48C100.588 4.48 101.14 4.584 101.612 4.792C102.084 5 102.488 5.308 102.824 5.716L101.744 6.736C101.536 6.48 101.284 6.272 100.988 6.112C100.692 5.952 100.32 5.872 99.8722 5.872C99.4162 5.872 99.0722 5.96 98.8402 6.136C98.6162 6.304 98.5042 6.544 98.5042 6.856C98.5042 7.176 98.5962 7.412 98.7802 7.564C98.9642 7.716 99.2602 7.828 99.6682 7.9L100.448 8.044C101.296 8.196 101.92 8.468 102.32 8.86C102.728 9.244 102.932 9.784 102.932 10.48C102.932 10.88 102.86 11.244 102.716 11.572C102.58 11.892 102.376 12.172 102.104 12.412C101.84 12.644 101.512 12.824 101.12 12.952C100.736 13.08 100.292 13.144 99.7882 13.144ZM104.52 13V4.624H110.04V6.028H106.104V8.056H109.584V9.46H106.104V11.596H110.04V13H104.52ZM29.0983 29V20.624H34.6183V22.028H30.6823V24.056H34.1623V25.46H30.6823V27.596H34.6183V29H29.0983ZM32.0143 20.072L31.0903 19.616L32.2303 17.372L33.5263 18.02L32.0143 20.072ZM36.2936 29V20.624H37.8776V27.596H41.1776V29H36.2936ZM47.9463 29L47.2743 26.864H44.2983L43.6383 29H42.0303L44.8383 20.624H46.8063L49.5903 29H47.9463ZM45.8103 22.064H45.7503L44.6823 25.508H46.8903L45.8103 22.064ZM50.8248 20.624H54.7008C55.0448 20.624 55.3528 20.676 55.6248 20.78C55.9048 20.884 56.1408 21.028 56.3328 21.212C56.5248 21.396 56.6688 21.624 56.7648 21.896C56.8688 22.16 56.9208 22.452 56.9208 22.772C56.9208 23.092 56.8768 23.364 56.7888 23.588C56.7088 23.804 56.5968 23.984 56.4528 24.128C56.3168 24.272 56.1568 24.38 55.9728 24.452C55.7968 24.524 55.6128 24.564 55.4208 24.572V24.644C55.6048 24.644 55.8008 24.68 56.0088 24.752C56.2248 24.824 56.4208 24.94 56.5968 25.1C56.7808 25.252 56.9328 25.452 57.0528 25.7C57.1728 25.94 57.2328 26.24 57.2328 26.6C57.2328 26.936 57.1768 27.252 57.0648 27.548C56.9608 27.836 56.8128 28.088 56.6208 28.304C56.4288 28.52 56.2008 28.692 55.9368 28.82C55.6728 28.94 55.3848 29 55.0728 29H50.8248V20.624ZM52.4088 27.656H54.6168C54.9208 27.656 55.1568 27.58 55.3248 27.428C55.4928 27.268 55.5768 27.04 55.5768 26.744V26.336C55.5768 26.04 55.4928 25.812 55.3248 25.652C55.1568 25.492 54.9208 25.412 54.6168 25.412H52.4088V27.656ZM52.4088 24.116H54.3648C54.6528 24.116 54.8768 24.04 55.0368 23.888C55.1968 23.728 55.2768 23.508 55.2768 23.228V22.856C55.2768 22.576 55.1968 22.36 55.0368 22.208C54.8768 22.048 54.6528 21.968 54.3648 21.968H52.4088V24.116ZM62.0699 29.144C61.5179 29.144 61.0179 29.052 60.5699 28.868C60.1219 28.684 59.7379 28.408 59.4179 28.04C59.1059 27.672 58.8619 27.22 58.6859 26.684C58.5099 26.148 58.4219 25.524 58.4219 24.812C58.4219 24.108 58.5099 23.488 58.6859 22.952C58.8619 22.408 59.1059 21.952 59.4179 21.584C59.7379 21.216 60.1219 20.94 60.5699 20.756C61.0179 20.572 61.5179 20.48 62.0699 20.48C62.6219 20.48 63.1219 20.572 63.5699 20.756C64.0179 20.94 64.4019 21.216 64.7219 21.584C65.0419 21.952 65.2859 22.408 65.4539 22.952C65.6299 23.488 65.7179 24.108 65.7179 24.812C65.7179 25.524 65.6299 26.148 65.4539 26.684C65.2859 27.22 65.0419 27.672 64.7219 28.04C64.4019 28.408 64.0179 28.684 63.5699 28.868C63.1219 29.052 62.6219 29.144 62.0699 29.144ZM62.0699 27.74C62.6699 27.74 63.1459 27.54 63.4979 27.14C63.8579 26.74 64.0379 26.18 64.0379 25.46V24.164C64.0379 23.444 63.8579 22.884 63.4979 22.484C63.1459 22.084 62.6699 21.884 62.0699 21.884C61.4699 21.884 60.9899 22.084 60.6299 22.484C60.2779 22.884 60.1019 23.444 60.1019 24.164V25.46C60.1019 26.18 60.2779 26.74 60.6299 27.14C60.9899 27.54 61.4699 27.74 62.0699 27.74ZM68.9088 29H67.3248V20.624H71.1048C71.4888 20.624 71.8328 20.684 72.1368 20.804C72.4408 20.924 72.6968 21.1 72.9048 21.332C73.1208 21.556 73.2848 21.828 73.3968 22.148C73.5168 22.468 73.5768 22.824 73.5768 23.216C73.5768 23.792 73.4448 24.288 73.1808 24.704C72.9248 25.12 72.5368 25.416 72.0168 25.592L73.7328 29H71.9688L70.4088 25.772H68.9088V29ZM70.9488 24.44C71.2528 24.44 71.4928 24.36 71.6688 24.2C71.8448 24.032 71.9328 23.796 71.9328 23.492V22.94C71.9328 22.636 71.8448 22.404 71.6688 22.244C71.4928 22.084 71.2528 22.004 70.9488 22.004H68.9088V24.44H70.9488ZM80.4776 29L79.8056 26.864H76.8296L76.1696 29H74.5616L77.3696 20.624H79.3376L82.1216 29H80.4776ZM78.3416 22.064H78.2816L77.2136 25.508H79.4216L78.3416 22.064ZM85.8589 22.028V29H84.2749V22.028H81.8989V20.624H88.2349V22.028H85.8589ZM89.1253 29V27.728H90.2293V21.896H89.1253V20.624H92.9293V21.896H91.8133V27.728H92.9293V29H89.1253ZM97.8355 29.144C97.2835 29.144 96.7835 29.052 96.3355 28.868C95.8875 28.684 95.5035 28.408 95.1835 28.04C94.8715 27.672 94.6275 27.22 94.4515 26.684C94.2755 26.148 94.1875 25.524 94.1875 24.812C94.1875 24.108 94.2755 23.488 94.4515 22.952C94.6275 22.408 94.8715 21.952 95.1835 21.584C95.5035 21.216 95.8875 20.94 96.3355 20.756C96.7835 20.572 97.2835 20.48 97.8355 20.48C98.3875 20.48 98.8875 20.572 99.3355 20.756C99.7835 20.94 100.167 21.216 100.487 21.584C100.807 21.952 101.051 22.408 101.219 22.952C101.395 23.488 101.483 24.108 101.483 24.812C101.483 25.524 101.395 26.148 101.219 26.684C101.051 27.22 100.807 27.672 100.487 28.04C100.167 28.408 99.7835 28.684 99.3355 28.868C98.8875 29.052 98.3875 29.144 97.8355 29.144ZM97.8355 27.74C98.4355 27.74 98.9115 27.54 99.2635 27.14C99.6235 26.74 99.8035 26.18 99.8035 25.46V24.164C99.8035 23.444 99.6235 22.884 99.2635 22.484C98.9115 22.084 98.4355 21.884 97.8355 21.884C97.2355 21.884 96.7555 22.084 96.3955 22.484C96.0435 22.884 95.8675 23.444 95.8675 24.164V25.46C95.8675 26.18 96.0435 26.74 96.3955 27.14C96.7555 27.54 97.2355 27.74 97.8355 27.74ZM105.49 24.704L104.626 22.964H104.59V29H103.09V20.624H104.83L107.35 24.92L108.214 26.66H108.25V20.624H109.75V29H108.01L105.49 24.704ZM55.1398 45.144C54.4198 45.144 53.8078 45.016 53.3038 44.76C52.8078 44.504 52.3798 44.168 52.0198 43.752L53.0878 42.72C53.3758 43.056 53.6958 43.312 54.0478 43.488C54.4078 43.664 54.8038 43.752 55.2358 43.752C55.7238 43.752 56.0918 43.648 56.3398 43.44C56.5878 43.224 56.7118 42.936 56.7118 42.576C56.7118 42.296 56.6318 42.068 56.4718 41.892C56.3118 41.716 56.0118 41.588 55.5718 41.508L54.7798 41.388C53.1078 41.124 52.2718 40.312 52.2718 38.952C52.2718 38.576 52.3398 38.236 52.4758 37.932C52.6198 37.628 52.8238 37.368 53.0878 37.152C53.3518 36.936 53.6678 36.772 54.0358 36.66C54.4118 36.54 54.8358 36.48 55.3078 36.48C55.9398 36.48 56.4918 36.584 56.9638 36.792C57.4358 37 57.8398 37.308 58.1758 37.716L57.0958 38.736C56.8878 38.48 56.6358 38.272 56.3398 38.112C56.0438 37.952 55.6718 37.872 55.2238 37.872C54.7678 37.872 54.4238 37.96 54.1918 38.136C53.9678 38.304 53.8558 38.544 53.8558 38.856C53.8558 39.176 53.9478 39.412 54.1318 39.564C54.3158 39.716 54.6118 39.828 55.0198 39.9L55.7998 40.044C56.6478 40.196 57.2718 40.468 57.6718 40.86C58.0798 41.244 58.2838 41.784 58.2838 42.48C58.2838 42.88 58.2118 43.244 58.0678 43.572C57.9318 43.892 57.7278 44.172 57.4558 44.412C57.1918 44.644 56.8638 44.824 56.4718 44.952C56.0878 45.08 55.6438 45.144 55.1398 45.144ZM63.1597 45.144C62.6077 45.144 62.1077 45.052 61.6597 44.868C61.2117 44.684 60.8277 44.408 60.5077 44.04C60.1957 43.672 59.9517 43.22 59.7757 42.684C59.5997 42.148 59.5117 41.524 59.5117 40.812C59.5117 40.108 59.5997 39.488 59.7757 38.952C59.9517 38.408 60.1957 37.952 60.5077 37.584C60.8277 37.216 61.2117 36.94 61.6597 36.756C62.1077 36.572 62.6077 36.48 63.1597 36.48C63.7117 36.48 64.2117 36.572 64.6597 36.756C65.1077 36.94 65.4917 37.216 65.8117 37.584C66.1317 37.952 66.3757 38.408 66.5437 38.952C66.7197 39.488 66.8077 40.108 66.8077 40.812C66.8077 41.524 66.7197 42.148 66.5437 42.684C66.3757 43.22 66.1317 43.672 65.8117 44.04C65.4917 44.408 65.1077 44.684 64.6597 44.868C64.2117 45.052 63.7117 45.144 63.1597 45.144ZM63.1597 43.74C63.7597 43.74 64.2357 43.54 64.5877 43.14C64.9477 42.74 65.1277 42.18 65.1277 41.46V40.164C65.1277 39.444 64.9477 38.884 64.5877 38.484C64.2357 38.084 63.7597 37.884 63.1597 37.884C62.5597 37.884 62.0797 38.084 61.7197 38.484C61.3677 38.884 61.1917 39.444 61.1917 40.164V41.46C61.1917 42.18 61.3677 42.74 61.7197 43.14C62.0797 43.54 62.5597 43.74 63.1597 43.74ZM68.4147 45V36.624H69.9987V43.596H73.2987V45H68.4147ZM75.7858 36.624V41.772C75.7858 42.428 75.9098 42.92 76.1578 43.248C76.4138 43.576 76.8418 43.74 77.4418 43.74C78.0418 43.74 78.4658 43.576 78.7138 43.248C78.9698 42.92 79.0978 42.428 79.0978 41.772V36.624H80.6578V41.568C80.6578 42.184 80.5978 42.716 80.4778 43.164C80.3658 43.612 80.1818 43.984 79.9258 44.28C79.6698 44.576 79.3338 44.796 78.9178 44.94C78.5098 45.076 78.0138 45.144 77.4298 45.144C76.8378 45.144 76.3378 45.076 75.9298 44.94C75.5298 44.796 75.2018 44.576 74.9458 44.28C74.6898 43.984 74.5058 43.612 74.3938 43.164C74.2818 42.716 74.2258 42.184 74.2258 41.568V36.624H75.7858ZM85.8589 38.028V45H84.2749V38.028H81.8989V36.624H88.2349V38.028H85.8589ZM89.1253 45V43.728H90.2293V37.896H89.1253V36.624H92.9293V37.896H91.8133V43.728H92.9293V45H89.1253ZM97.8355 45.144C97.2835 45.144 96.7835 45.052 96.3355 44.868C95.8875 44.684 95.5035 44.408 95.1835 44.04C94.8715 43.672 94.6275 43.22 94.4515 42.684C94.2755 42.148 94.1875 41.524 94.1875 40.812C94.1875 40.108 94.2755 39.488 94.4515 38.952C94.6275 38.408 94.8715 37.952 95.1835 37.584C95.5035 37.216 95.8875 36.94 96.3355 36.756C96.7835 36.572 97.2835 36.48 97.8355 36.48C98.3875 36.48 98.8875 36.572 99.3355 36.756C99.7835 36.94 100.167 37.216 100.487 37.584C100.807 37.952 101.051 38.408 101.219 38.952C101.395 39.488 101.483 40.108 101.483 40.812C101.483 41.524 101.395 42.148 101.219 42.684C101.051 43.22 100.807 43.672 100.487 44.04C100.167 44.408 99.7835 44.684 99.3355 44.868C98.8875 45.052 98.3875 45.144 97.8355 45.144ZM97.8355 43.74C98.4355 43.74 98.9115 43.54 99.2635 43.14C99.6235 42.74 99.8035 42.18 99.8035 41.46V40.164C99.8035 39.444 99.6235 38.884 99.2635 38.484C98.9115 38.084 98.4355 37.884 97.8355 37.884C97.2355 37.884 96.7555 38.084 96.3955 38.484C96.0435 38.884 95.8675 39.444 95.8675 40.164V41.46C95.8675 42.18 96.0435 42.74 96.3955 43.14C96.7555 43.54 97.2355 43.74 97.8355 43.74ZM105.49 40.704L104.626 38.964H104.59V45H103.09V36.624H104.83L107.35 40.92L108.214 42.66H108.25V36.624H109.75V45H108.01L105.49 40.704ZM27.0979 61V59.728H28.2019V53.896H27.0979V52.624H30.9019V53.896H29.7859V59.728H30.9019V61H27.0979ZM34.9201 56.704L34.0561 54.964H34.0201V61H32.5201V52.624H34.2601L36.7801 56.92L37.6441 58.66H37.6801V52.624H39.1801V61H37.4401L34.9201 56.704ZM41.1451 52.624H44.1931C44.7371 52.624 45.2291 52.712 45.6691 52.888C46.1171 53.064 46.4971 53.328 46.8091 53.68C47.1291 54.024 47.3731 54.46 47.5411 54.988C47.7171 55.508 47.8051 56.116 47.8051 56.812C47.8051 57.508 47.7171 58.12 47.5411 58.648C47.3731 59.168 47.1291 59.604 46.8091 59.956C46.4971 60.3 46.1171 60.56 45.6691 60.736C45.2291 60.912 44.7371 61 44.1931 61H41.1451V52.624ZM44.1931 59.596C44.7851 59.596 45.2531 59.424 45.5971 59.08C45.9491 58.728 46.1251 58.192 46.1251 57.472V56.152C46.1251 55.432 45.9491 54.9 45.5971 54.556C45.2531 54.204 44.7851 54.028 44.1931 54.028H42.7291V59.596H44.1931ZM50.9186 52.624V57.772C50.9186 58.428 51.0426 58.92 51.2906 59.248C51.5466 59.576 51.9746 59.74 52.5746 59.74C53.1746 59.74 53.5986 59.576 53.8466 59.248C54.1026 58.92 54.2306 58.428 54.2306 57.772V52.624H55.7906V57.568C55.7906 58.184 55.7306 58.716 55.6106 59.164C55.4986 59.612 55.3146 59.984 55.0586 60.28C54.8026 60.576 54.4666 60.796 54.0506 60.94C53.6426 61.076 53.1466 61.144 52.5626 61.144C51.9706 61.144 51.4706 61.076 51.0626 60.94C50.6626 60.796 50.3346 60.576 50.0786 60.28C49.8226 59.984 49.6386 59.612 49.5266 59.164C49.4146 58.716 49.3586 58.184 49.3586 57.568V52.624H50.9186ZM60.3077 61.144C59.5877 61.144 58.9757 61.016 58.4717 60.76C57.9757 60.504 57.5477 60.168 57.1877 59.752L58.2557 58.72C58.5437 59.056 58.8637 59.312 59.2157 59.488C59.5757 59.664 59.9717 59.752 60.4037 59.752C60.8917 59.752 61.2597 59.648 61.5077 59.44C61.7557 59.224 61.8797 58.936 61.8797 58.576C61.8797 58.296 61.7997 58.068 61.6397 57.892C61.4797 57.716 61.1797 57.588 60.7397 57.508L59.9477 57.388C58.2757 57.124 57.4397 56.312 57.4397 54.952C57.4397 54.576 57.5077 54.236 57.6437 53.932C57.7877 53.628 57.9917 53.368 58.2557 53.152C58.5197 52.936 58.8357 52.772 59.2037 52.66C59.5797 52.54 60.0037 52.48 60.4757 52.48C61.1077 52.48 61.6597 52.584 62.1317 52.792C62.6037 53 63.0077 53.308 63.3437 53.716L62.2637 54.736C62.0557 54.48 61.8037 54.272 61.5077 54.112C61.2117 53.952 60.8397 53.872 60.3917 53.872C59.9357 53.872 59.5917 53.96 59.3597 54.136C59.1357 54.304 59.0237 54.544 59.0237 54.856C59.0237 55.176 59.1157 55.412 59.2997 55.564C59.4837 55.716 59.7797 55.828 60.1877 55.9L60.9677 56.044C61.8157 56.196 62.4397 56.468 62.8397 56.86C63.2477 57.244 63.4517 57.784 63.4517 58.48C63.4517 58.88 63.3797 59.244 63.2357 59.572C63.0997 59.892 62.8957 60.172 62.6237 60.412C62.3597 60.644 62.0317 60.824 61.6397 60.952C61.2557 61.08 60.8117 61.144 60.3077 61.144ZM68.0933 54.028V61H66.5093V54.028H64.1333V52.624H70.4693V54.028H68.0933ZM73.3502 61H71.7662V52.624H75.5462C75.9302 52.624 76.2742 52.684 76.5782 52.804C76.8822 52.924 77.1382 53.1 77.3462 53.332C77.5622 53.556 77.7262 53.828 77.8382 54.148C77.9582 54.468 78.0182 54.824 78.0182 55.216C78.0182 55.792 77.8862 56.288 77.6222 56.704C77.3662 57.12 76.9782 57.416 76.4582 57.592L78.1742 61H76.4102L74.8502 57.772H73.3502V61ZM75.3902 56.44C75.6942 56.44 75.9342 56.36 76.1102 56.2C76.2862 56.032 76.3742 55.796 76.3742 55.492V54.94C76.3742 54.636 76.2862 54.404 76.1102 54.244C75.9342 54.084 75.6942 54.004 75.3902 54.004H73.3502V56.44H75.3902ZM79.387 61V59.728H80.491V53.896H79.387V52.624H83.191V53.896H82.075V59.728H83.191V61H79.387ZM84.8092 61V52.624H90.3292V54.028H86.3932V56.056H89.8732V57.46H86.3932V59.596H90.3292V61H84.8092ZM92.0045 61V52.624H93.5885V59.596H96.8885V61H92.0045ZM98.2623 61V52.624H99.8463V59.596H103.146V61H98.2623ZM104.52 61V52.624H110.04V54.028H106.104V56.056H109.584V57.46H106.104V59.596H110.04V61H104.52Z" fill="#41637D"/>
<line x1="135.202" y1="1.64788e-08" x2="135.202" y2="190" stroke="#41637D" stroke-width="0.839895"/>
<line x1="177.196" y1="1.64788e-08" x2="177.196" y2="190" stroke="#41637D" stroke-width="0.839895"/>
<line x1="219.191" y1="1.64788e-08" x2="219.191" y2="190" stroke="#41637D" stroke-width="0.839895"/>
</svg>
