<svg width="277" height="216" viewBox="0 0 277 216" fill="none" xmlns="http://www.w3.org/2000/svg">
<path d="M169.658 212.144C169.122 212.144 168.658 212.048 168.266 211.856C167.874 211.656 167.55 211.372 167.294 211.004C167.038 210.636 166.846 210.184 166.718 209.648C166.598 209.112 166.538 208.5 166.538 207.812C166.538 207.132 166.598 206.524 166.718 205.988C166.846 205.444 167.038 204.988 167.294 204.62C167.55 204.252 167.874 203.972 168.266 203.78C168.658 203.58 169.122 203.48 169.658 203.48C170.722 203.48 171.506 203.86 172.01 204.62C172.522 205.38 172.778 206.444 172.778 207.812C172.778 209.18 172.522 210.244 172.01 211.004C171.506 211.764 170.722 212.144 169.658 212.144ZM169.658 210.812C170.194 210.812 170.566 210.612 170.774 210.212C170.99 209.804 171.098 209.256 171.098 208.568V207.056C171.098 206.368 170.99 205.824 170.774 205.424C170.566 205.016 170.194 204.812 169.658 204.812C169.122 204.812 168.746 205.016 168.53 205.424C168.322 205.824 168.218 206.368 168.218 207.056V208.568C168.218 209.256 168.322 209.804 168.53 210.212C168.746 210.612 169.122 210.812 169.658 210.812ZM175.413 212L181.221 203.624H182.613L176.805 212H175.413ZM175.989 208.232C175.309 208.232 174.789 208.032 174.429 207.632C174.077 207.224 173.901 206.632 173.901 205.856C173.901 205.08 174.077 204.492 174.429 204.092C174.789 203.684 175.309 203.48 175.989 203.48C176.669 203.48 177.185 203.684 177.537 204.092C177.889 204.492 178.065 205.08 178.065 205.856C178.065 206.632 177.889 207.224 177.537 207.632C177.185 208.032 176.669 208.232 175.989 208.232ZM175.989 207.32C176.485 207.32 176.733 206.94 176.733 206.18V205.532C176.733 204.772 176.485 204.392 175.989 204.392C175.493 204.392 175.245 204.772 175.245 205.532V206.18C175.245 206.94 175.493 207.32 175.989 207.32ZM182.037 212.144C181.365 212.144 180.849 211.944 180.489 211.544C180.137 211.136 179.961 210.544 179.961 209.768C179.961 208.992 180.137 208.404 180.489 208.004C180.849 207.596 181.365 207.392 182.037 207.392C182.717 207.392 183.233 207.596 183.585 208.004C183.945 208.404 184.125 208.992 184.125 209.768C184.125 210.544 183.945 211.136 183.585 211.544C183.233 211.944 182.717 212.144 182.037 212.144ZM182.037 211.232C182.533 211.232 182.781 210.852 182.781 210.092V209.444C182.781 208.684 182.533 208.304 182.037 208.304C181.541 208.304 181.293 208.684 181.293 209.444V210.092C181.293 210.852 181.541 211.232 182.037 211.232Z" fill="#41637D"/>
<path d="M210.033 204.992H206.265L206.073 207.8H206.157C206.245 207.624 206.341 207.46 206.445 207.308C206.549 207.156 206.669 207.028 206.805 206.924C206.941 206.82 207.097 206.74 207.273 206.684C207.457 206.62 207.677 206.588 207.933 206.588C208.293 206.588 208.629 206.648 208.941 206.768C209.253 206.888 209.521 207.064 209.745 207.296C209.977 207.52 210.157 207.796 210.285 208.124C210.421 208.452 210.489 208.824 210.489 209.24C210.489 209.664 210.421 210.052 210.285 210.404C210.149 210.756 209.949 211.064 209.685 211.328C209.421 211.584 209.097 211.784 208.713 211.928C208.329 212.072 207.889 212.144 207.393 212.144C207.009 212.144 206.665 212.1 206.361 212.012C206.057 211.932 205.789 211.82 205.557 211.676C205.325 211.532 205.125 211.368 204.957 211.184C204.789 210.992 204.641 210.792 204.513 210.584L205.665 209.696C205.761 209.856 205.861 210.008 205.965 210.152C206.069 210.288 206.189 210.408 206.325 210.512C206.469 210.616 206.625 210.7 206.793 210.764C206.969 210.82 207.173 210.848 207.405 210.848C207.877 210.848 208.233 210.716 208.473 210.452C208.721 210.188 208.845 209.828 208.845 209.372V209.276C208.845 208.844 208.721 208.504 208.473 208.256C208.225 208.008 207.881 207.884 207.441 207.884C207.097 207.884 206.817 207.952 206.601 208.088C206.385 208.216 206.213 208.356 206.085 208.508L204.789 208.328L205.101 203.624H210.033V204.992ZM214.648 212.144C214.112 212.144 213.648 212.048 213.256 211.856C212.864 211.656 212.54 211.372 212.284 211.004C212.028 210.636 211.836 210.184 211.708 209.648C211.588 209.112 211.528 208.5 211.528 207.812C211.528 207.132 211.588 206.524 211.708 205.988C211.836 205.444 212.028 204.988 212.284 204.62C212.54 204.252 212.864 203.972 213.256 203.78C213.648 203.58 214.112 203.48 214.648 203.48C215.712 203.48 216.496 203.86 217 204.62C217.512 205.38 217.768 206.444 217.768 207.812C217.768 209.18 217.512 210.244 217 211.004C216.496 211.764 215.712 212.144 214.648 212.144ZM214.648 210.812C215.184 210.812 215.556 210.612 215.764 210.212C215.98 209.804 216.088 209.256 216.088 208.568V207.056C216.088 206.368 215.98 205.824 215.764 205.424C215.556 205.016 215.184 204.812 214.648 204.812C214.112 204.812 213.736 205.016 213.52 205.424C213.312 205.824 213.208 206.368 213.208 207.056V208.568C213.208 209.256 213.312 209.804 213.52 210.212C213.736 210.612 214.112 210.812 214.648 210.812ZM220.403 212L226.211 203.624H227.603L221.795 212H220.403ZM220.979 208.232C220.299 208.232 219.779 208.032 219.419 207.632C219.067 207.224 218.891 206.632 218.891 205.856C218.891 205.08 219.067 204.492 219.419 204.092C219.779 203.684 220.299 203.48 220.979 203.48C221.659 203.48 222.175 203.684 222.527 204.092C222.879 204.492 223.055 205.08 223.055 205.856C223.055 206.632 222.879 207.224 222.527 207.632C222.175 208.032 221.659 208.232 220.979 208.232ZM220.979 207.32C221.475 207.32 221.723 206.94 221.723 206.18V205.532C221.723 204.772 221.475 204.392 220.979 204.392C220.483 204.392 220.235 204.772 220.235 205.532V206.18C220.235 206.94 220.483 207.32 220.979 207.32ZM227.027 212.144C226.355 212.144 225.839 211.944 225.479 211.544C225.127 211.136 224.951 210.544 224.951 209.768C224.951 208.992 225.127 208.404 225.479 208.004C225.839 207.596 226.355 207.392 227.027 207.392C227.707 207.392 228.223 207.596 228.575 208.004C228.935 208.404 229.115 208.992 229.115 209.768C229.115 210.544 228.935 211.136 228.575 211.544C228.223 211.944 227.707 212.144 227.027 212.144ZM227.027 211.232C227.523 211.232 227.771 210.852 227.771 210.092V209.444C227.771 208.684 227.523 208.304 227.027 208.304C226.531 208.304 226.283 208.684 226.283 209.444V210.092C226.283 210.852 226.531 211.232 227.027 211.232Z" fill="#41637D"/>
<path d="M243.58 212V210.716H245.884V204.764H245.776L243.952 206.924L242.968 206.096L245.044 203.624H247.432V210.716H249.352V212H243.58ZM253.284 212.144C252.748 212.144 252.284 212.048 251.892 211.856C251.5 211.656 251.176 211.372 250.92 211.004C250.664 210.636 250.472 210.184 250.344 209.648C250.224 209.112 250.164 208.5 250.164 207.812C250.164 207.132 250.224 206.524 250.344 205.988C250.472 205.444 250.664 204.988 250.92 204.62C251.176 204.252 251.5 203.972 251.892 203.78C252.284 203.58 252.748 203.48 253.284 203.48C254.348 203.48 255.132 203.86 255.636 204.62C256.148 205.38 256.404 206.444 256.404 207.812C256.404 209.18 256.148 210.244 255.636 211.004C255.132 211.764 254.348 212.144 253.284 212.144ZM253.284 210.812C253.82 210.812 254.192 210.612 254.4 210.212C254.616 209.804 254.724 209.256 254.724 208.568V207.056C254.724 206.368 254.616 205.824 254.4 205.424C254.192 205.016 253.82 204.812 253.284 204.812C252.748 204.812 252.372 205.016 252.156 205.424C251.948 205.824 251.844 206.368 251.844 207.056V208.568C251.844 209.256 251.948 209.804 252.156 210.212C252.372 210.612 252.748 210.812 253.284 210.812ZM260.479 212.144C259.943 212.144 259.479 212.048 259.087 211.856C258.695 211.656 258.371 211.372 258.115 211.004C257.859 210.636 257.667 210.184 257.539 209.648C257.419 209.112 257.359 208.5 257.359 207.812C257.359 207.132 257.419 206.524 257.539 205.988C257.667 205.444 257.859 204.988 258.115 204.62C258.371 204.252 258.695 203.972 259.087 203.78C259.479 203.58 259.943 203.48 260.479 203.48C261.543 203.48 262.327 203.86 262.831 204.62C263.343 205.38 263.599 206.444 263.599 207.812C263.599 209.18 263.343 210.244 262.831 211.004C262.327 211.764 261.543 212.144 260.479 212.144ZM260.479 210.812C261.015 210.812 261.387 210.612 261.595 210.212C261.811 209.804 261.919 209.256 261.919 208.568V207.056C261.919 206.368 261.811 205.824 261.595 205.424C261.387 205.016 261.015 204.812 260.479 204.812C259.943 204.812 259.567 205.016 259.351 205.424C259.143 205.824 259.039 206.368 259.039 207.056V208.568C259.039 209.256 259.143 209.804 259.351 210.212C259.567 210.612 259.943 210.812 260.479 210.812ZM266.234 212L272.042 203.624H273.434L267.626 212H266.234ZM266.81 208.232C266.13 208.232 265.61 208.032 265.25 207.632C264.898 207.224 264.722 206.632 264.722 205.856C264.722 205.08 264.898 204.492 265.25 204.092C265.61 203.684 266.13 203.48 266.81 203.48C267.49 203.48 268.006 203.684 268.358 204.092C268.71 204.492 268.886 205.08 268.886 205.856C268.886 206.632 268.71 207.224 268.358 207.632C268.006 208.032 267.49 208.232 266.81 208.232ZM266.81 207.32C267.306 207.32 267.554 206.94 267.554 206.18V205.532C267.554 204.772 267.306 204.392 266.81 204.392C266.314 204.392 266.066 204.772 266.066 205.532V206.18C266.066 206.94 266.314 207.32 266.81 207.32ZM272.858 212.144C272.186 212.144 271.67 211.944 271.31 211.544C270.958 211.136 270.782 210.544 270.782 209.768C270.782 208.992 270.958 208.404 271.31 208.004C271.67 207.596 272.186 207.392 272.858 207.392C273.538 207.392 274.054 207.596 274.406 208.004C274.766 208.404 274.946 208.992 274.946 209.768C274.946 210.544 274.766 211.136 274.406 211.544C274.054 211.944 273.538 212.144 272.858 212.144ZM272.858 211.232C273.354 211.232 273.602 210.852 273.602 210.092V209.444C273.602 208.684 273.354 208.304 272.858 208.304C272.362 208.304 272.114 208.684 272.114 209.444V210.092C272.114 210.852 272.362 211.232 272.858 211.232Z" fill="#41637D"/>
<line opacity="0.2" x1="184.115" y1="1.64788e-08" x2="184.115" y2="190" stroke="#41637D" stroke-width="0.839895"/>
<line opacity="0.2" x1="226.11" y1="1.64788e-08" x2="226.11" y2="190" stroke="#41637D" stroke-width="0.839895"/>
<line opacity="0.2" x1="192.515" y1="1.64788e-08" x2="192.515" y2="190" stroke="#41637D" stroke-width="0.839895"/>
<line opacity="0.2" x1="234.509" y1="1.64788e-08" x2="234.509" y2="190" stroke="#41637D" stroke-width="0.839895"/>
<line opacity="0.2" x1="200.913" y1="1.64788e-08" x2="200.913" y2="190" stroke="#41637D" stroke-width="0.839895"/>
<line opacity="0.2" x1="242.908" y1="1.64788e-08" x2="242.908" y2="190" stroke="#41637D" stroke-width="0.839895"/>
<line opacity="0.2" x1="209.313" y1="1.64788e-08" x2="209.313" y2="190" stroke="#41637D" stroke-width="0.839895"/>
<line opacity="0.2" x1="251.307" y1="1.64788e-08" x2="251.307" y2="190" stroke="#41637D" stroke-width="0.839895"/>
<rect x="175.296" width="83.9895" height="16.7979" fill="#EDEDED"/>
<rect x="175.243" width="28" height="17" fill="#39A4F5"/>
<rect x="176.243" width="12" height="17" fill="#1084DD"/>
<path d="M11.1686 4.624H14.2166C14.7606 4.624 15.2526 4.712 15.6926 4.888C16.1406 5.064 16.5206 5.328 16.8326 5.68C17.1526 6.024 17.3966 6.46 17.5646 6.988C17.7406 7.508 17.8286 8.116 17.8286 8.812C17.8286 9.508 17.7406 10.12 17.5646 10.648C17.3966 11.168 17.1526 11.604 16.8326 11.956C16.5206 12.3 16.1406 12.56 15.6926 12.736C15.2526 12.912 14.7606 13 14.2166 13H11.1686V4.624ZM14.2166 11.596C14.8086 11.596 15.2766 11.424 15.6206 11.08C15.9726 10.728 16.1486 10.192 16.1486 9.472V8.152C16.1486 7.432 15.9726 6.9 15.6206 6.556C15.2766 6.204 14.8086 6.028 14.2166 6.028H12.7526V11.596H14.2166ZM19.442 13V4.624H24.962V6.028H21.026V8.056H24.506V9.46H21.026V11.596H24.962V13H19.442ZM29.2413 13.144C28.5213 13.144 27.9093 13.016 27.4053 12.76C26.9093 12.504 26.4813 12.168 26.1213 11.752L27.1893 10.72C27.4773 11.056 27.7973 11.312 28.1493 11.488C28.5093 11.664 28.9053 11.752 29.3373 11.752C29.8253 11.752 30.1933 11.648 30.4413 11.44C30.6893 11.224 30.8133 10.936 30.8133 10.576C30.8133 10.296 30.7333 10.068 30.5733 9.892C30.4133 9.716 30.1133 9.588 29.6733 9.508L28.8813 9.388C27.2093 9.124 26.3733 8.312 26.3733 6.952C26.3733 6.576 26.4413 6.236 26.5773 5.932C26.7213 5.628 26.9253 5.368 27.1893 5.152C27.4533 4.936 27.7693 4.772 28.1373 4.66C28.5133 4.54 28.9373 4.48 29.4093 4.48C30.0413 4.48 30.5933 4.584 31.0653 4.792C31.5373 5 31.9413 5.308 32.2773 5.716L31.1973 6.736C30.9893 6.48 30.7373 6.272 30.4413 6.112C30.1453 5.952 29.7733 5.872 29.3253 5.872C28.8693 5.872 28.5253 5.96 28.2933 6.136C28.0693 6.304 27.9573 6.544 27.9573 6.856C27.9573 7.176 28.0493 7.412 28.2333 7.564C28.4173 7.716 28.7133 7.828 29.1213 7.9L29.9013 8.044C30.7493 8.196 31.3733 8.468 31.7733 8.86C32.1813 9.244 32.3853 9.784 32.3853 10.48C32.3853 10.88 32.3133 11.244 32.1693 11.572C32.0333 11.892 31.8293 12.172 31.5573 12.412C31.2933 12.644 30.9653 12.824 30.5733 12.952C30.1893 13.08 29.7453 13.144 29.2413 13.144ZM33.6253 13V11.728H34.7293V5.896H33.6253V4.624H37.4293V5.896H36.3133V11.728H37.4293V13H33.6253ZM44.3875 11.704H44.3395C44.2675 12.112 44.0395 12.456 43.6555 12.736C43.2795 13.008 42.7755 13.144 42.1435 13.144C41.6475 13.144 41.1875 13.052 40.7635 12.868C40.3475 12.684 39.9835 12.412 39.6715 12.052C39.3675 11.684 39.1275 11.232 38.9515 10.696C38.7755 10.16 38.6875 9.54 38.6875 8.836C38.6875 8.132 38.7755 7.512 38.9515 6.976C39.1355 6.432 39.3915 5.976 39.7195 5.608C40.0475 5.24 40.4395 4.96 40.8955 4.768C41.3515 4.576 41.8595 4.48 42.4195 4.48C43.1715 4.48 43.8115 4.644 44.3395 4.972C44.8675 5.3 45.2835 5.772 45.5875 6.388L44.3035 7.144C44.1515 6.784 43.9235 6.484 43.6195 6.244C43.3235 6.004 42.9235 5.884 42.4195 5.884C41.7955 5.884 41.2955 6.076 40.9195 6.46C40.5515 6.836 40.3675 7.396 40.3675 8.14V9.484C40.3675 10.22 40.5555 10.78 40.9315 11.164C41.3075 11.548 41.8115 11.74 42.4435 11.74C42.6915 11.74 42.9235 11.712 43.1395 11.656C43.3555 11.592 43.5435 11.5 43.7035 11.38C43.8635 11.26 43.9915 11.112 44.0875 10.936C44.1835 10.76 44.2315 10.552 44.2315 10.312V9.772H42.5875V8.44H45.7555V13H44.3875V11.704ZM49.9904 8.704L49.1264 6.964H49.0904V13H47.5904V4.624H49.3304L51.8504 8.92L52.7144 10.66H52.7504V4.624H54.2504V13H52.5104L49.9904 8.704ZM59.0514 4.624H62.0994C62.6434 4.624 63.1354 4.712 63.5754 4.888C64.0234 5.064 64.4034 5.328 64.7154 5.68C65.0354 6.024 65.2794 6.46 65.4474 6.988C65.6234 7.508 65.7114 8.116 65.7114 8.812C65.7114 9.508 65.6234 10.12 65.4474 10.648C65.2794 11.168 65.0354 11.604 64.7154 11.956C64.4034 12.3 64.0234 12.56 63.5754 12.736C63.1354 12.912 62.6434 13 62.0994 13H59.0514V4.624ZM62.0994 11.596C62.6914 11.596 63.1594 11.424 63.5034 11.08C63.8554 10.728 64.0314 10.192 64.0314 9.472V8.152C64.0314 7.432 63.8554 6.9 63.5034 6.556C63.1594 6.204 62.6914 6.028 62.0994 6.028H60.6354V11.596H62.0994ZM68.8248 4.624V9.772C68.8248 10.428 68.9488 10.92 69.1968 11.248C69.4528 11.576 69.8808 11.74 70.4808 11.74C71.0808 11.74 71.5048 11.576 71.7528 11.248C72.0088 10.92 72.1368 10.428 72.1368 9.772V4.624H73.6968V9.568C73.6968 10.184 73.6368 10.716 73.5168 11.164C73.4048 11.612 73.2208 11.984 72.9648 12.28C72.7088 12.576 72.3728 12.796 71.9568 12.94C71.5488 13.076 71.0528 13.144 70.4688 13.144C69.8768 13.144 69.3768 13.076 68.9688 12.94C68.5688 12.796 68.2408 12.576 67.9848 12.28C67.7288 11.984 67.5448 11.612 67.4328 11.164C67.3208 10.716 67.2648 10.184 67.2648 9.568V4.624H68.8248ZM78.4459 13V4.624H82.2139C82.5979 4.624 82.9419 4.688 83.2459 4.816C83.5579 4.936 83.8219 5.112 84.0379 5.344C84.2539 5.568 84.4179 5.84 84.5299 6.16C84.6419 6.48 84.6979 6.832 84.6979 7.216C84.6979 7.608 84.6419 7.964 84.5299 8.284C84.4179 8.596 84.2539 8.868 84.0379 9.1C83.8219 9.324 83.5579 9.5 83.2459 9.628C82.9419 9.748 82.5979 9.808 82.2139 9.808H80.0299V13H78.4459ZM80.0299 8.44H82.0699C82.3739 8.44 82.6139 8.36 82.7899 8.2C82.9659 8.032 83.0539 7.796 83.0539 7.492V6.94C83.0539 6.636 82.9659 6.404 82.7899 6.244C82.6139 6.084 82.3739 6.004 82.0699 6.004H80.0299V8.44ZM87.7174 13H86.1334V4.624H89.9134C90.2974 4.624 90.6414 4.684 90.9454 4.804C91.2494 4.924 91.5054 5.1 91.7134 5.332C91.9294 5.556 92.0934 5.828 92.2054 6.148C92.3254 6.468 92.3854 6.824 92.3854 7.216C92.3854 7.792 92.2534 8.288 91.9894 8.704C91.7334 9.12 91.3454 9.416 90.8254 9.592L92.5414 13H90.7774L89.2174 9.772H87.7174V13ZM89.7574 8.44C90.0614 8.44 90.3014 8.36 90.4774 8.2C90.6534 8.032 90.7414 7.796 90.7414 7.492V6.94C90.7414 6.636 90.6534 6.404 90.4774 6.244C90.3014 6.084 90.0614 6.004 89.7574 6.004H87.7174V8.44H89.7574ZM97.273 13.144C96.721 13.144 96.221 13.052 95.773 12.868C95.325 12.684 94.941 12.408 94.621 12.04C94.309 11.672 94.065 11.22 93.889 10.684C93.713 10.148 93.625 9.524 93.625 8.812C93.625 8.108 93.713 7.488 93.889 6.952C94.065 6.408 94.309 5.952 94.621 5.584C94.941 5.216 95.325 4.94 95.773 4.756C96.221 4.572 96.721 4.48 97.273 4.48C97.825 4.48 98.325 4.572 98.773 4.756C99.221 4.94 99.605 5.216 99.925 5.584C100.245 5.952 100.489 6.408 100.657 6.952C100.833 7.488 100.921 8.108 100.921 8.812C100.921 9.524 100.833 10.148 100.657 10.684C100.489 11.22 100.245 11.672 99.925 12.04C99.605 12.408 99.221 12.684 98.773 12.868C98.325 13.052 97.825 13.144 97.273 13.144ZM97.273 11.74C97.873 11.74 98.349 11.54 98.701 11.14C99.061 10.74 99.241 10.18 99.241 9.46V8.164C99.241 7.444 99.061 6.884 98.701 6.484C98.349 6.084 97.873 5.884 97.273 5.884C96.673 5.884 96.193 6.084 95.833 6.484C95.481 6.884 95.305 7.444 95.305 8.164V9.46C95.305 10.18 95.481 10.74 95.833 11.14C96.193 11.54 96.673 11.74 97.273 11.74ZM105.523 6.028V13H103.939V6.028H101.563V4.624H107.899V6.028H105.523ZM112.191 13.144C111.639 13.144 111.139 13.052 110.691 12.868C110.243 12.684 109.859 12.408 109.539 12.04C109.227 11.672 108.983 11.22 108.807 10.684C108.631 10.148 108.543 9.524 108.543 8.812C108.543 8.108 108.631 7.488 108.807 6.952C108.983 6.408 109.227 5.952 109.539 5.584C109.859 5.216 110.243 4.94 110.691 4.756C111.139 4.572 111.639 4.48 112.191 4.48C112.743 4.48 113.243 4.572 113.691 4.756C114.139 4.94 114.523 5.216 114.843 5.584C115.163 5.952 115.407 6.408 115.575 6.952C115.751 7.488 115.839 8.108 115.839 8.812C115.839 9.524 115.751 10.148 115.575 10.684C115.407 11.22 115.163 11.672 114.843 12.04C114.523 12.408 114.139 12.684 113.691 12.868C113.243 13.052 112.743 13.144 112.191 13.144ZM112.191 11.74C112.791 11.74 113.267 11.54 113.619 11.14C113.979 10.74 114.159 10.18 114.159 9.46V8.164C114.159 7.444 113.979 6.884 113.619 6.484C113.267 6.084 112.791 5.884 112.191 5.884C111.591 5.884 111.111 6.084 110.751 6.484C110.399 6.884 110.223 7.444 110.223 8.164V9.46C110.223 10.18 110.399 10.74 110.751 11.14C111.111 11.54 111.591 11.74 112.191 11.74ZM120.698 13.144C120.146 13.144 119.646 13.056 119.198 12.88C118.758 12.696 118.378 12.424 118.058 12.064C117.746 11.704 117.506 11.26 117.338 10.732C117.17 10.196 117.086 9.576 117.086 8.872C117.086 8.168 117.17 7.544 117.338 7C117.506 6.448 117.746 5.988 118.058 5.62C118.378 5.244 118.758 4.96 119.198 4.768C119.646 4.576 120.146 4.48 120.698 4.48C121.45 4.48 122.074 4.64 122.57 4.96C123.066 5.28 123.462 5.764 123.758 6.412L122.402 7.132C122.282 6.756 122.086 6.456 121.814 6.232C121.542 6 121.17 5.884 120.698 5.884C120.106 5.884 119.634 6.084 119.282 6.484C118.938 6.884 118.766 7.444 118.766 8.164V9.484C118.766 10.212 118.938 10.772 119.282 11.164C119.634 11.548 120.106 11.74 120.698 11.74C121.17 11.74 121.554 11.612 121.85 11.356C122.154 11.1 122.374 10.784 122.51 10.408L123.794 11.164C123.49 11.788 123.086 12.276 122.582 12.628C122.078 12.972 121.45 13.144 120.698 13.144ZM128.281 13.144C127.729 13.144 127.229 13.052 126.781 12.868C126.333 12.684 125.949 12.408 125.629 12.04C125.317 11.672 125.073 11.22 124.897 10.684C124.721 10.148 124.633 9.524 124.633 8.812C124.633 8.108 124.721 7.488 124.897 6.952C125.073 6.408 125.317 5.952 125.629 5.584C125.949 5.216 126.333 4.94 126.781 4.756C127.229 4.572 127.729 4.48 128.281 4.48C128.833 4.48 129.333 4.572 129.781 4.756C130.229 4.94 130.613 5.216 130.933 5.584C131.253 5.952 131.497 6.408 131.665 6.952C131.841 7.488 131.929 8.108 131.929 8.812C131.929 9.524 131.841 10.148 131.665 10.684C131.497 11.22 131.253 11.672 130.933 12.04C130.613 12.408 130.229 12.684 129.781 12.868C129.333 13.052 128.833 13.144 128.281 13.144ZM128.281 11.74C128.881 11.74 129.357 11.54 129.709 11.14C130.069 10.74 130.249 10.18 130.249 9.46V8.164C130.249 7.444 130.069 6.884 129.709 6.484C129.357 6.084 128.881 5.884 128.281 5.884C127.681 5.884 127.201 6.084 126.841 6.484C126.489 6.884 126.313 7.444 126.313 8.164V9.46C126.313 10.18 126.489 10.74 126.841 11.14C127.201 11.54 127.681 11.74 128.281 11.74ZM133.536 13V4.624H135.12V11.596H138.42V13H133.536ZM139.794 13V4.624H145.314V6.028H141.378V8.056H144.858V9.46H141.378V11.596H145.314V13H139.794ZM146.065 14.812L149.509 4.12H150.793L147.349 14.812H146.065ZM67.1901 29.144C66.6381 29.144 66.1381 29.056 65.6901 28.88C65.2501 28.696 64.8701 28.424 64.5501 28.064C64.2381 27.704 63.9981 27.26 63.8301 26.732C63.6621 26.196 63.5781 25.576 63.5781 24.872C63.5781 24.168 63.6621 23.544 63.8301 23C63.9981 22.448 64.2381 21.988 64.5501 21.62C64.8701 21.244 65.2501 20.96 65.6901 20.768C66.1381 20.576 66.6381 20.48 67.1901 20.48C67.9421 20.48 68.5661 20.64 69.0621 20.96C69.5581 21.28 69.9541 21.764 70.2501 22.412L68.8941 23.132C68.7741 22.756 68.5781 22.456 68.3061 22.232C68.0341 22 67.6621 21.884 67.1901 21.884C66.5981 21.884 66.1261 22.084 65.7741 22.484C65.4301 22.884 65.2581 23.444 65.2581 24.164V25.484C65.2581 26.212 65.4301 26.772 65.7741 27.164C66.1261 27.548 66.5981 27.74 67.1901 27.74C67.6621 27.74 68.0461 27.612 68.3421 27.356C68.6461 27.1 68.8661 26.784 69.0021 26.408L70.2861 27.164C69.9821 27.788 69.5781 28.276 69.0741 28.628C68.5701 28.972 67.9421 29.144 67.1901 29.144ZM76.7133 25.46H73.2213V29H71.6373V20.624H73.2213V24.056H76.7133V20.624H78.2973V29H76.7133V25.46ZM83.5503 29.144C82.9983 29.144 82.4983 29.052 82.0503 28.868C81.6023 28.684 81.2183 28.408 80.8983 28.04C80.5863 27.672 80.3423 27.22 80.1663 26.684C79.9903 26.148 79.9023 25.524 79.9023 24.812C79.9023 24.108 79.9903 23.488 80.1663 22.952C80.3423 22.408 80.5863 21.952 80.8983 21.584C81.2183 21.216 81.6023 20.94 82.0503 20.756C82.4983 20.572 82.9983 20.48 83.5503 20.48C84.1023 20.48 84.6023 20.572 85.0503 20.756C85.4983 20.94 85.8823 21.216 86.2023 21.584C86.5223 21.952 86.7663 22.408 86.9343 22.952C87.1103 23.488 87.1983 24.108 87.1983 24.812C87.1983 25.524 87.1103 26.148 86.9343 26.684C86.7663 27.22 86.5223 27.672 86.2023 28.04C85.8823 28.408 85.4983 28.684 85.0503 28.868C84.6023 29.052 84.1023 29.144 83.5503 29.144ZM83.5503 27.74C84.1503 27.74 84.6263 27.54 84.9783 27.14C85.3383 26.74 85.5183 26.18 85.5183 25.46V24.164C85.5183 23.444 85.3383 22.884 84.9783 22.484C84.6263 22.084 84.1503 21.884 83.5503 21.884C82.9503 21.884 82.4703 22.084 82.1103 22.484C81.7583 22.884 81.5823 23.444 81.5823 24.164V25.46C81.5823 26.18 81.7583 26.74 82.1103 27.14C82.4703 27.54 82.9503 27.74 83.5503 27.74ZM88.4573 29V27.728H89.5613V21.896H88.4573V20.624H92.2613V21.896H91.1453V27.728H92.2613V29H88.4573ZM100.54 29H98.6915L96.7715 25.784H96.7355L94.8395 29H93.1115L95.8235 24.704L93.2315 20.624H95.0795L96.8555 23.6H96.8915L98.6915 20.624H100.42L97.8035 24.704L100.54 29ZM107.867 22.028V29H106.283V22.028H103.907V20.624H110.243V22.028H107.867ZM111.54 29V20.624H117.06V22.028H113.124V24.056H116.604V25.46H113.124V27.596H117.06V29H111.54ZM121.987 29.144C121.435 29.144 120.935 29.056 120.487 28.88C120.047 28.696 119.667 28.424 119.347 28.064C119.035 27.704 118.795 27.26 118.627 26.732C118.459 26.196 118.375 25.576 118.375 24.872C118.375 24.168 118.459 23.544 118.627 23C118.795 22.448 119.035 21.988 119.347 21.62C119.667 21.244 120.047 20.96 120.487 20.768C120.935 20.576 121.435 20.48 121.987 20.48C122.739 20.48 123.363 20.64 123.859 20.96C124.355 21.28 124.751 21.764 125.047 22.412L123.691 23.132C123.571 22.756 123.375 22.456 123.103 22.232C122.831 22 122.459 21.884 121.987 21.884C121.395 21.884 120.923 22.084 120.571 22.484C120.227 22.884 120.055 23.444 120.055 24.164V25.484C120.055 26.212 120.227 26.772 120.571 27.164C120.923 27.548 121.395 27.74 121.987 27.74C122.459 27.74 122.843 27.612 123.139 27.356C123.443 27.1 123.663 26.784 123.799 26.408L125.083 27.164C124.779 27.788 124.375 28.276 123.871 28.628C123.367 28.972 122.739 29.144 121.987 29.144ZM131.51 25.46H128.018V29H126.434V20.624H128.018V24.056H131.51V20.624H133.094V29H131.51V25.46ZM137.459 24.704L136.595 22.964H136.559V29H135.059V20.624H136.799L139.319 24.92L140.183 26.66H140.219V20.624H141.719V29H139.979L137.459 24.704ZM146.972 29.144C146.42 29.144 145.92 29.052 145.472 28.868C145.024 28.684 144.64 28.408 144.32 28.04C144.008 27.672 143.764 27.22 143.588 26.684C143.412 26.148 143.324 25.524 143.324 24.812C143.324 24.108 143.412 23.488 143.588 22.952C143.764 22.408 144.008 21.952 144.32 21.584C144.64 21.216 145.024 20.94 145.472 20.756C145.92 20.572 146.42 20.48 146.972 20.48C147.524 20.48 148.024 20.572 148.472 20.756C148.92 20.94 149.304 21.216 149.624 21.584C149.944 21.952 150.188 22.408 150.356 22.952C150.532 23.488 150.62 24.108 150.62 24.812C150.62 25.524 150.532 26.148 150.356 26.684C150.188 27.22 149.944 27.672 149.624 28.04C149.304 28.408 148.92 28.684 148.472 28.868C148.024 29.052 147.524 29.144 146.972 29.144ZM146.972 27.74C147.572 27.74 148.048 27.54 148.4 27.14C148.76 26.74 148.94 26.18 148.94 25.46V24.164C148.94 23.444 148.76 22.884 148.4 22.484C148.048 22.084 147.572 21.884 146.972 21.884C146.372 21.884 145.892 22.084 145.532 22.484C145.18 22.884 145.004 23.444 145.004 24.164V25.46C145.004 26.18 145.18 26.74 145.532 27.14C145.892 27.54 146.372 27.74 146.972 27.74Z" fill="#41637D"/>
<rect x="175.296" y="41.9995" width="83.9895" height="16.7979" fill="#EDEDED"/>
<rect x="175.243" y="41.9995" width="20" height="17" fill="#39A4F5"/>
<rect x="175.243" y="41.9995" width="11" height="17" fill="#1084DD"/>
<path d="M32.9303 47V38.624H38.4503V40.028H34.5143V42.056H37.9943V43.46H34.5143V45.596H38.4503V47H32.9303ZM46.7856 47H44.9376L43.0176 43.784H42.9816L41.0856 47H39.3576L42.0696 42.704L39.4776 38.624H41.3256L43.1016 41.6H43.1376L44.9376 38.624H46.6656L44.0496 42.704L46.7856 47ZM51.2769 40.028V47H49.6929V40.028H47.3169V38.624H53.6529V40.028H51.2769ZM56.5338 47H54.9498V38.624H58.7298C59.1138 38.624 59.4578 38.684 59.7618 38.804C60.0658 38.924 60.3218 39.1 60.5298 39.332C60.7458 39.556 60.9098 39.828 61.0218 40.148C61.1418 40.468 61.2018 40.824 61.2018 41.216C61.2018 41.792 61.0698 42.288 60.8058 42.704C60.5498 43.12 60.1618 43.416 59.6418 43.592L61.3578 47H59.5938L58.0338 43.772H56.5338V47ZM58.5738 42.44C58.8778 42.44 59.1178 42.36 59.2938 42.2C59.4698 42.032 59.5578 41.796 59.5578 41.492V40.94C59.5578 40.636 59.4698 40.404 59.2938 40.244C59.1178 40.084 58.8778 40.004 58.5738 40.004H56.5338V42.44H58.5738ZM68.1026 47L67.4306 44.864H64.4546L63.7946 47H62.1866L64.9946 38.624H66.9626L69.7466 47H68.1026ZM65.9666 40.064H65.9066L64.8386 43.508H67.0466L65.9666 40.064ZM70.6331 47V45.728H71.7371V39.896H70.6331V38.624H74.4371V39.896H73.3211V45.728H74.4371V47H70.6331ZM79.2847 40.028V47H77.7007V40.028H75.3247V38.624H81.6607V40.028H79.2847ZM85.7936 47V38.624H87.3776V45.596H90.6776V47H85.7936ZM97.4463 47L96.7743 44.864H93.7983L93.1383 47H91.5303L94.3383 38.624H96.3063L99.0903 47H97.4463ZM95.3103 40.064H95.2503L94.1823 43.508H96.3903L95.3103 40.064ZM100.325 38.624H104.201C104.545 38.624 104.853 38.676 105.125 38.78C105.405 38.884 105.641 39.028 105.833 39.212C106.025 39.396 106.169 39.624 106.265 39.896C106.369 40.16 106.421 40.452 106.421 40.772C106.421 41.092 106.377 41.364 106.289 41.588C106.209 41.804 106.097 41.984 105.953 42.128C105.817 42.272 105.657 42.38 105.473 42.452C105.297 42.524 105.113 42.564 104.921 42.572V42.644C105.105 42.644 105.301 42.68 105.509 42.752C105.725 42.824 105.921 42.94 106.097 43.1C106.281 43.252 106.433 43.452 106.553 43.7C106.673 43.94 106.733 44.24 106.733 44.6C106.733 44.936 106.677 45.252 106.565 45.548C106.461 45.836 106.313 46.088 106.121 46.304C105.929 46.52 105.701 46.692 105.437 46.82C105.173 46.94 104.885 47 104.573 47H100.325V38.624ZM101.909 45.656H104.117C104.421 45.656 104.657 45.58 104.825 45.428C104.993 45.268 105.077 45.04 105.077 44.744V44.336C105.077 44.04 104.993 43.812 104.825 43.652C104.657 43.492 104.421 43.412 104.117 43.412H101.909V45.656ZM101.909 42.116H103.865C104.153 42.116 104.377 42.04 104.537 41.888C104.697 41.728 104.777 41.508 104.777 41.228V40.856C104.777 40.576 104.697 40.36 104.537 40.208C104.377 40.048 104.153 39.968 103.865 39.968H101.909V42.116ZM111.57 47.144C111.018 47.144 110.518 47.052 110.07 46.868C109.622 46.684 109.238 46.408 108.918 46.04C108.606 45.672 108.362 45.22 108.186 44.684C108.01 44.148 107.922 43.524 107.922 42.812C107.922 42.108 108.01 41.488 108.186 40.952C108.362 40.408 108.606 39.952 108.918 39.584C109.238 39.216 109.622 38.94 110.07 38.756C110.518 38.572 111.018 38.48 111.57 38.48C112.122 38.48 112.622 38.572 113.07 38.756C113.518 38.94 113.902 39.216 114.222 39.584C114.542 39.952 114.786 40.408 114.954 40.952C115.13 41.488 115.218 42.108 115.218 42.812C115.218 43.524 115.13 44.148 114.954 44.684C114.786 45.22 114.542 45.672 114.222 46.04C113.902 46.408 113.518 46.684 113.07 46.868C112.622 47.052 112.122 47.144 111.57 47.144ZM111.57 45.74C112.17 45.74 112.646 45.54 112.998 45.14C113.358 44.74 113.538 44.18 113.538 43.46V42.164C113.538 41.444 113.358 40.884 112.998 40.484C112.646 40.084 112.17 39.884 111.57 39.884C110.97 39.884 110.49 40.084 110.13 40.484C109.778 40.884 109.602 41.444 109.602 42.164V43.46C109.602 44.18 109.778 44.74 110.13 45.14C110.49 45.54 110.97 45.74 111.57 45.74ZM118.737 48.812L122.181 38.12H123.465L120.021 48.812H118.737ZM129.319 47H127.735V38.624H131.515C131.899 38.624 132.243 38.684 132.547 38.804C132.851 38.924 133.107 39.1 133.315 39.332C133.531 39.556 133.695 39.828 133.807 40.148C133.927 40.468 133.987 40.824 133.987 41.216C133.987 41.792 133.855 42.288 133.591 42.704C133.335 43.12 132.947 43.416 132.427 43.592L134.143 47H132.379L130.819 43.772H129.319V47ZM131.359 42.44C131.663 42.44 131.903 42.36 132.079 42.2C132.255 42.032 132.343 41.796 132.343 41.492V40.94C132.343 40.636 132.255 40.404 132.079 40.244C131.903 40.084 131.663 40.004 131.359 40.004H129.319V42.44H131.359ZM140.271 46.232C140.151 46.336 140.015 46.444 139.863 46.556C139.711 46.66 139.535 46.756 139.335 46.844C139.143 46.932 138.923 47.004 138.675 47.06C138.435 47.116 138.163 47.144 137.859 47.144C137.411 47.144 137.011 47.084 136.659 46.964C136.315 46.844 136.027 46.68 135.795 46.472C135.563 46.264 135.387 46.02 135.267 45.74C135.147 45.452 135.087 45.144 135.087 44.816C135.087 44.52 135.131 44.26 135.219 44.036C135.307 43.804 135.427 43.596 135.579 43.412C135.731 43.22 135.911 43.052 136.119 42.908C136.327 42.756 136.547 42.612 136.779 42.476C136.531 42.196 136.311 41.892 136.119 41.564C135.935 41.228 135.843 40.868 135.843 40.484C135.843 40.212 135.899 39.956 136.011 39.716C136.123 39.468 136.283 39.252 136.491 39.068C136.707 38.884 136.963 38.74 137.259 38.636C137.555 38.532 137.887 38.48 138.255 38.48C138.583 38.48 138.887 38.524 139.167 38.612C139.447 38.7 139.687 38.824 139.887 38.984C140.095 39.144 140.255 39.34 140.367 39.572C140.487 39.804 140.547 40.068 140.547 40.364C140.547 40.628 140.499 40.872 140.403 41.096C140.315 41.312 140.191 41.512 140.031 41.696C139.871 41.872 139.687 42.04 139.479 42.2C139.271 42.352 139.047 42.496 138.807 42.632L140.271 44.216C140.383 43.944 140.467 43.656 140.523 43.352C140.587 43.048 140.627 42.744 140.643 42.44H142.527V43.724H141.747C141.627 44.268 141.443 44.764 141.195 45.212L142.851 47H140.967L140.271 46.232ZM138.207 39.668C137.951 39.668 137.739 39.744 137.571 39.896C137.403 40.04 137.319 40.236 137.319 40.484V40.568C137.319 40.752 137.375 40.936 137.487 41.12C137.607 41.296 137.791 41.524 138.039 41.804C138.343 41.62 138.591 41.428 138.783 41.228C138.983 41.028 139.083 40.796 139.083 40.532V40.46C139.083 40.204 138.995 40.008 138.819 39.872C138.651 39.736 138.447 39.668 138.207 39.668ZM138.063 45.86C138.351 45.86 138.611 45.816 138.843 45.728C139.075 45.64 139.279 45.52 139.455 45.368L137.547 43.304C137.267 43.472 137.047 43.652 136.887 43.844C136.735 44.028 136.659 44.264 136.659 44.552V44.684C136.659 45.036 136.779 45.32 137.019 45.536C137.259 45.752 137.607 45.86 138.063 45.86ZM143.954 38.624H147.002C147.546 38.624 148.038 38.712 148.478 38.888C148.926 39.064 149.306 39.328 149.618 39.68C149.938 40.024 150.182 40.46 150.35 40.988C150.526 41.508 150.614 42.116 150.614 42.812C150.614 43.508 150.526 44.12 150.35 44.648C150.182 45.168 149.938 45.604 149.618 45.956C149.306 46.3 148.926 46.56 148.478 46.736C148.038 46.912 147.546 47 147.002 47H143.954V38.624ZM147.002 45.596C147.594 45.596 148.062 45.424 148.406 45.08C148.758 44.728 148.934 44.192 148.934 43.472V42.152C148.934 41.432 148.758 40.9 148.406 40.556C148.062 40.204 147.594 40.028 147.002 40.028H145.538V45.596H147.002ZM34.7836 64.812L38.2276 54.12H39.5116L36.0676 64.812H34.7836ZM43.7819 63V54.624H49.3019V56.028H45.3659V58.056H48.8459V59.46H45.3659V61.596H49.3019V63H43.7819ZM57.6372 63H55.7892L53.8692 59.784H53.8332L51.9372 63H50.2092L52.9212 58.704L50.3292 54.624H52.1772L53.9532 57.6H53.9892L55.7892 54.624H57.5172L54.9012 58.704L57.6372 63ZM62.1284 56.028V63H60.5444V56.028H58.1684V54.624H64.5044V56.028H62.1284ZM67.3854 63H65.8014V54.624H69.5814C69.9654 54.624 70.3094 54.684 70.6134 54.804C70.9174 54.924 71.1734 55.1 71.3814 55.332C71.5974 55.556 71.7614 55.828 71.8734 56.148C71.9934 56.468 72.0534 56.824 72.0534 57.216C72.0534 57.792 71.9214 58.288 71.6574 58.704C71.4014 59.12 71.0134 59.416 70.4934 59.592L72.2094 63H70.4454L68.8854 59.772H67.3854V63ZM69.4254 58.44C69.7294 58.44 69.9694 58.36 70.1454 58.2C70.3214 58.032 70.4094 57.796 70.4094 57.492V56.94C70.4094 56.636 70.3214 56.404 70.1454 56.244C69.9694 56.084 69.7294 56.004 69.4254 56.004H67.3854V58.44H69.4254ZM78.9541 63L78.2821 60.864H75.3061L74.6461 63H73.0381L75.8461 54.624H77.8141L80.5981 63H78.9541ZM76.8181 56.064H76.7581L75.6901 59.508H77.8981L76.8181 56.064ZM84.7682 63.144C84.2162 63.144 83.7162 63.056 83.2682 62.88C82.8282 62.696 82.4482 62.424 82.1282 62.064C81.8162 61.704 81.5762 61.26 81.4082 60.732C81.2402 60.196 81.1562 59.576 81.1562 58.872C81.1562 58.168 81.2402 57.544 81.4082 57C81.5762 56.448 81.8162 55.988 82.1282 55.62C82.4482 55.244 82.8282 54.96 83.2682 54.768C83.7162 54.576 84.2162 54.48 84.7682 54.48C85.5202 54.48 86.1442 54.64 86.6402 54.96C87.1362 55.28 87.5322 55.764 87.8282 56.412L86.4722 57.132C86.3522 56.756 86.1562 56.456 85.8842 56.232C85.6122 56 85.2402 55.884 84.7682 55.884C84.1762 55.884 83.7042 56.084 83.3522 56.484C83.0082 56.884 82.8362 57.444 82.8362 58.164V59.484C82.8362 60.212 83.0082 60.772 83.3522 61.164C83.7042 61.548 84.1762 61.74 84.7682 61.74C85.2402 61.74 85.6242 61.612 85.9202 61.356C86.2242 61.1 86.4442 60.784 86.5802 60.408L87.8642 61.164C87.5602 61.788 87.1562 62.276 86.6522 62.628C86.1482 62.972 85.5202 63.144 84.7682 63.144ZM92.5034 56.028V63H90.9194V56.028H88.5434V54.624H94.8794V56.028H92.5034ZM95.7698 63V61.728H96.8738V55.896H95.7698V54.624H99.5738V55.896H98.4578V61.728H99.5738V63H95.7698ZM104.48 63.144C103.928 63.144 103.428 63.052 102.98 62.868C102.532 62.684 102.148 62.408 101.828 62.04C101.516 61.672 101.272 61.22 101.096 60.684C100.92 60.148 100.832 59.524 100.832 58.812C100.832 58.108 100.92 57.488 101.096 56.952C101.272 56.408 101.516 55.952 101.828 55.584C102.148 55.216 102.532 54.94 102.98 54.756C103.428 54.572 103.928 54.48 104.48 54.48C105.032 54.48 105.532 54.572 105.98 54.756C106.428 54.94 106.812 55.216 107.132 55.584C107.452 55.952 107.696 56.408 107.864 56.952C108.04 57.488 108.128 58.108 108.128 58.812C108.128 59.524 108.04 60.148 107.864 60.684C107.696 61.22 107.452 61.672 107.132 62.04C106.812 62.408 106.428 62.684 105.98 62.868C105.532 63.052 105.032 63.144 104.48 63.144ZM104.48 61.74C105.08 61.74 105.556 61.54 105.908 61.14C106.268 60.74 106.448 60.18 106.448 59.46V58.164C106.448 57.444 106.268 56.884 105.908 56.484C105.556 56.084 105.08 55.884 104.48 55.884C103.88 55.884 103.4 56.084 103.04 56.484C102.688 56.884 102.512 57.444 102.512 58.164V59.46C102.512 60.18 102.688 60.74 103.04 61.14C103.4 61.54 103.88 61.74 104.48 61.74ZM112.135 58.704L111.271 56.964H111.235V63H109.735V54.624H111.475L113.995 58.92L114.859 60.66H114.895V54.624H116.395V63H114.655L112.135 58.704ZM121.196 63V54.624H122.78V61.596H126.08V63H121.196ZM132.849 63L132.177 60.864H129.201L128.541 63H126.933L129.741 54.624H131.709L134.493 63H132.849ZM130.713 56.064H130.653L129.585 59.508H131.793L130.713 56.064ZM135.727 54.624H139.603C139.947 54.624 140.255 54.676 140.527 54.78C140.807 54.884 141.043 55.028 141.235 55.212C141.427 55.396 141.571 55.624 141.667 55.896C141.771 56.16 141.823 56.452 141.823 56.772C141.823 57.092 141.779 57.364 141.691 57.588C141.611 57.804 141.499 57.984 141.355 58.128C141.219 58.272 141.059 58.38 140.875 58.452C140.699 58.524 140.515 58.564 140.323 58.572V58.644C140.507 58.644 140.703 58.68 140.911 58.752C141.127 58.824 141.323 58.94 141.499 59.1C141.683 59.252 141.835 59.452 141.955 59.7C142.075 59.94 142.135 60.24 142.135 60.6C142.135 60.936 142.079 61.252 141.967 61.548C141.863 61.836 141.715 62.088 141.523 62.304C141.331 62.52 141.103 62.692 140.839 62.82C140.575 62.94 140.287 63 139.975 63H135.727V54.624ZM137.311 61.656H139.519C139.823 61.656 140.059 61.58 140.227 61.428C140.395 61.268 140.479 61.04 140.479 60.744V60.336C140.479 60.04 140.395 59.812 140.227 59.652C140.059 59.492 139.823 59.412 139.519 59.412H137.311V61.656ZM137.311 58.116H139.267C139.555 58.116 139.779 58.04 139.939 57.888C140.099 57.728 140.179 57.508 140.179 57.228V56.856C140.179 56.576 140.099 56.36 139.939 56.208C139.779 56.048 139.555 55.968 139.267 55.968H137.311V58.116ZM146.972 63.144C146.42 63.144 145.92 63.052 145.472 62.868C145.024 62.684 144.64 62.408 144.32 62.04C144.008 61.672 143.764 61.22 143.588 60.684C143.412 60.148 143.324 59.524 143.324 58.812C143.324 58.108 143.412 57.488 143.588 56.952C143.764 56.408 144.008 55.952 144.32 55.584C144.64 55.216 145.024 54.94 145.472 54.756C145.92 54.572 146.42 54.48 146.972 54.48C147.524 54.48 148.024 54.572 148.472 54.756C148.92 54.94 149.304 55.216 149.624 55.584C149.944 55.952 150.188 56.408 150.356 56.952C150.532 57.488 150.62 58.108 150.62 58.812C150.62 59.524 150.532 60.148 150.356 60.684C150.188 61.22 149.944 61.672 149.624 62.04C149.304 62.408 148.92 62.684 148.472 62.868C148.024 63.052 147.524 63.144 146.972 63.144ZM146.972 61.74C147.572 61.74 148.048 61.54 148.4 61.14C148.76 60.74 148.94 60.18 148.94 59.46V58.164C148.94 57.444 148.76 56.884 148.4 56.484C148.048 56.084 147.572 55.884 146.972 55.884C146.372 55.884 145.892 56.084 145.532 56.484C145.18 56.884 145.004 57.444 145.004 58.164V59.46C145.004 60.18 145.18 60.74 145.532 61.14C145.892 61.54 146.372 61.74 146.972 61.74Z" fill="#41637D"/>
<rect x="175.297" y="82" width="83.9895" height="16.7979" fill="#EDEDED"/>
<rect x="175.297" y="82" width="17.6378" height="16.7979" fill="#39A4F5"/>
<rect x="175.243" y="82" width="9" height="17" fill="#1084DD"/>
<path d="M1.5592 95V86.624H5.3272C5.7112 86.624 6.0552 86.688 6.3592 86.816C6.6712 86.936 6.9352 87.112 7.1512 87.344C7.3672 87.568 7.5312 87.84 7.6432 88.16C7.7552 88.48 7.8112 88.832 7.8112 89.216C7.8112 89.608 7.7552 89.964 7.6432 90.284C7.5312 90.596 7.3672 90.868 7.1512 91.1C6.9352 91.324 6.6712 91.5 6.3592 91.628C6.0552 91.748 5.7112 91.808 5.3272 91.808H3.1432V95H1.5592ZM3.1432 90.44H5.1832C5.4872 90.44 5.7272 90.36 5.9032 90.2C6.0792 90.032 6.1672 89.796 6.1672 89.492V88.94C6.1672 88.636 6.0792 88.404 5.9032 88.244C5.7272 88.084 5.4872 88.004 5.1832 88.004H3.1432V90.44ZM12.5347 95.144C11.9827 95.144 11.4827 95.052 11.0347 94.868C10.5867 94.684 10.2027 94.408 9.8827 94.04C9.5707 93.672 9.3267 93.22 9.1507 92.684C8.9747 92.148 8.8867 91.524 8.8867 90.812C8.8867 90.108 8.9747 89.488 9.1507 88.952C9.3267 88.408 9.5707 87.952 9.8827 87.584C10.2027 87.216 10.5867 86.94 11.0347 86.756C11.4827 86.572 11.9827 86.48 12.5347 86.48C13.0867 86.48 13.5867 86.572 14.0347 86.756C14.4827 86.94 14.8667 87.216 15.1867 87.584C15.5067 87.952 15.7507 88.408 15.9187 88.952C16.0947 89.488 16.1827 90.108 16.1827 90.812C16.1827 91.524 16.0947 92.148 15.9187 92.684C15.7507 93.22 15.5067 93.672 15.1867 94.04C14.8667 94.408 14.4827 94.684 14.0347 94.868C13.5867 95.052 13.0867 95.144 12.5347 95.144ZM12.5347 93.74C13.1347 93.74 13.6107 93.54 13.9627 93.14C14.3227 92.74 14.5027 92.18 14.5027 91.46V90.164C14.5027 89.444 14.3227 88.884 13.9627 88.484C13.6107 88.084 13.1347 87.884 12.5347 87.884C11.9347 87.884 11.4547 88.084 11.0947 88.484C10.7427 88.884 10.5667 89.444 10.5667 90.164V91.46C10.5667 92.18 10.7427 92.74 11.0947 93.14C11.4547 93.54 11.9347 93.74 12.5347 93.74ZM20.3585 95.144C19.6385 95.144 19.0265 95.016 18.5225 94.76C18.0265 94.504 17.5985 94.168 17.2385 93.752L18.3065 92.72C18.5945 93.056 18.9145 93.312 19.2665 93.488C19.6265 93.664 20.0225 93.752 20.4545 93.752C20.9425 93.752 21.3105 93.648 21.5585 93.44C21.8065 93.224 21.9305 92.936 21.9305 92.576C21.9305 92.296 21.8505 92.068 21.6905 91.892C21.5305 91.716 21.2305 91.588 20.7905 91.508L19.9985 91.388C18.3265 91.124 17.4905 90.312 17.4905 88.952C17.4905 88.576 17.5585 88.236 17.6945 87.932C17.8385 87.628 18.0425 87.368 18.3065 87.152C18.5705 86.936 18.8865 86.772 19.2545 86.66C19.6305 86.54 20.0545 86.48 20.5265 86.48C21.1585 86.48 21.7105 86.584 22.1825 86.792C22.6545 87 23.0585 87.308 23.3945 87.716L22.3145 88.736C22.1065 88.48 21.8545 88.272 21.5585 88.112C21.2625 87.952 20.8905 87.872 20.4425 87.872C19.9865 87.872 19.6425 87.96 19.4105 88.136C19.1865 88.304 19.0745 88.544 19.0745 88.856C19.0745 89.176 19.1665 89.412 19.3505 89.564C19.5345 89.716 19.8305 89.828 20.2385 89.9L21.0185 90.044C21.8665 90.196 22.4905 90.468 22.8905 90.86C23.2985 91.244 23.5025 91.784 23.5025 92.48C23.5025 92.88 23.4305 93.244 23.2865 93.572C23.1505 93.892 22.9465 94.172 22.6745 94.412C22.4105 94.644 22.0825 94.824 21.6905 94.952C21.3065 95.08 20.8625 95.144 20.3585 95.144ZM28.1441 88.028V95H26.5601V88.028H24.1841V86.624H30.5201V88.028H28.1441ZM30.9782 92.108V90.584H34.4102V92.108H30.9782ZM38.8316 88.028V95H37.2476V88.028H34.8716V86.624H41.2076V88.028H38.8316ZM44.0885 95H42.5045V86.624H46.2845C46.6685 86.624 47.0125 86.684 47.3165 86.804C47.6205 86.924 47.8765 87.1 48.0845 87.332C48.3005 87.556 48.4645 87.828 48.5765 88.148C48.6965 88.468 48.7565 88.824 48.7565 89.216C48.7565 89.792 48.6245 90.288 48.3605 90.704C48.1045 91.12 47.7165 91.416 47.1965 91.592L48.9125 95H47.1485L45.5885 91.772H44.0885V95ZM46.1285 90.44C46.4325 90.44 46.6725 90.36 46.8485 90.2C47.0245 90.032 47.1125 89.796 47.1125 89.492V88.94C47.1125 88.636 47.0245 88.404 46.8485 88.244C46.6725 88.084 46.4325 88.004 46.1285 88.004H44.0885V90.44H46.1285ZM55.6573 95L54.9853 92.864H52.0093L51.3493 95H49.7413L52.5493 86.624H54.5173L57.3013 95H55.6573ZM53.5213 88.064H53.4613L52.3933 91.508H54.6013L53.5213 88.064ZM58.1878 95V93.728H59.2918V87.896H58.1878V86.624H61.9918V87.896H60.8758V93.728H61.9918V95H58.1878ZM66.8394 88.028V95H65.2554V88.028H62.8794V86.624H69.2154V88.028H66.8394ZM70.5123 95V86.624H76.0323V88.028H72.0963V90.056H75.5763V91.46H72.0963V93.596H76.0323V95H70.5123ZM84.0316 88.988H83.9836L83.3356 90.32L81.6196 93.488L79.9036 90.32L79.2556 88.988H79.2076V95H77.7076V86.624H79.4956L81.6436 90.716H81.6916L83.8156 86.624H85.5316V95H84.0316V88.988ZM87.5045 95V86.624H93.0245V88.028H89.0885V90.056H92.5685V91.46H89.0885V93.596H93.0245V95H87.5045ZM97.0998 90.704L96.2358 88.964H96.1998V95H94.6998V86.624H96.4398L98.9598 90.92L99.8238 92.66H99.8598V86.624H101.36V95H99.6198L97.0998 90.704ZM106.613 88.028V95H105.029V88.028H102.653V86.624H108.989V88.028H106.613ZM112.198 96.812L115.642 86.12H116.926L113.482 96.812H112.198ZM121.196 95V86.624H122.78V93.596H126.08V95H121.196ZM132.849 95L132.177 92.864H129.201L128.541 95H126.933L129.741 86.624H131.709L134.493 95H132.849ZM130.713 88.064H130.653L129.585 91.508H131.793L130.713 88.064ZM135.727 86.624H139.603C139.947 86.624 140.255 86.676 140.527 86.78C140.807 86.884 141.043 87.028 141.235 87.212C141.427 87.396 141.571 87.624 141.667 87.896C141.771 88.16 141.823 88.452 141.823 88.772C141.823 89.092 141.779 89.364 141.691 89.588C141.611 89.804 141.499 89.984 141.355 90.128C141.219 90.272 141.059 90.38 140.875 90.452C140.699 90.524 140.515 90.564 140.323 90.572V90.644C140.507 90.644 140.703 90.68 140.911 90.752C141.127 90.824 141.323 90.94 141.499 91.1C141.683 91.252 141.835 91.452 141.955 91.7C142.075 91.94 142.135 92.24 142.135 92.6C142.135 92.936 142.079 93.252 141.967 93.548C141.863 93.836 141.715 94.088 141.523 94.304C141.331 94.52 141.103 94.692 140.839 94.82C140.575 94.94 140.287 95 139.975 95H135.727V86.624ZM137.311 93.656H139.519C139.823 93.656 140.059 93.58 140.227 93.428C140.395 93.268 140.479 93.04 140.479 92.744V92.336C140.479 92.04 140.395 91.812 140.227 91.652C140.059 91.492 139.823 91.412 139.519 91.412H137.311V93.656ZM137.311 90.116H139.267C139.555 90.116 139.779 90.04 139.939 89.888C140.099 89.728 140.179 89.508 140.179 89.228V88.856C140.179 88.576 140.099 88.36 139.939 88.208C139.779 88.048 139.555 87.968 139.267 87.968H137.311V90.116ZM146.972 95.144C146.42 95.144 145.92 95.052 145.472 94.868C145.024 94.684 144.64 94.408 144.32 94.04C144.008 93.672 143.764 93.22 143.588 92.684C143.412 92.148 143.324 91.524 143.324 90.812C143.324 90.108 143.412 89.488 143.588 88.952C143.764 88.408 144.008 87.952 144.32 87.584C144.64 87.216 145.024 86.94 145.472 86.756C145.92 86.572 146.42 86.48 146.972 86.48C147.524 86.48 148.024 86.572 148.472 86.756C148.92 86.94 149.304 87.216 149.624 87.584C149.944 87.952 150.188 88.408 150.356 88.952C150.532 89.488 150.62 90.108 150.62 90.812C150.62 91.524 150.532 92.148 150.356 92.684C150.188 93.22 149.944 93.672 149.624 94.04C149.304 94.408 148.92 94.684 148.472 94.868C148.024 95.052 147.524 95.144 146.972 95.144ZM146.972 93.74C147.572 93.74 148.048 93.54 148.4 93.14C148.76 92.74 148.94 92.18 148.94 91.46V90.164C148.94 89.444 148.76 88.884 148.4 88.484C148.048 88.084 147.572 87.884 146.972 87.884C146.372 87.884 145.892 88.084 145.532 88.484C145.18 88.884 145.004 89.444 145.004 90.164V91.46C145.004 92.18 145.18 92.74 145.532 93.14C145.892 93.54 146.372 93.74 146.972 93.74Z" fill="#41637D"/>
<rect x="175.297" y="164" width="83.9895" height="16.7979" fill="#EDEDED"/>
<rect x="175.243" y="164.202" width="22" height="17" fill="#39A4F5"/>
<path d="M44.5874 170.028V177H43.0034V170.028H40.6274V168.624H46.9634V170.028H44.5874ZM48.2604 177V168.624H53.7804V170.028H49.8444V172.056H53.3244V173.46H49.8444V175.596H53.7804V177H48.2604ZM58.0597 177.144C57.3397 177.144 56.7277 177.016 56.2237 176.76C55.7277 176.504 55.2997 176.168 54.9397 175.752L56.0077 174.72C56.2957 175.056 56.6157 175.312 56.9677 175.488C57.3277 175.664 57.7237 175.752 58.1557 175.752C58.6437 175.752 59.0117 175.648 59.2597 175.44C59.5077 175.224 59.6317 174.936 59.6317 174.576C59.6317 174.296 59.5517 174.068 59.3917 173.892C59.2317 173.716 58.9317 173.588 58.4917 173.508L57.6997 173.388C56.0277 173.124 55.1917 172.312 55.1917 170.952C55.1917 170.576 55.2597 170.236 55.3957 169.932C55.5397 169.628 55.7437 169.368 56.0077 169.152C56.2717 168.936 56.5877 168.772 56.9557 168.66C57.3317 168.54 57.7557 168.48 58.2277 168.48C58.8597 168.48 59.4117 168.584 59.8837 168.792C60.3557 169 60.7597 169.308 61.0957 169.716L60.0157 170.736C59.8077 170.48 59.5557 170.272 59.2597 170.112C58.9637 169.952 58.5917 169.872 58.1437 169.872C57.6877 169.872 57.3437 169.96 57.1117 170.136C56.8877 170.304 56.7757 170.544 56.7757 170.856C56.7757 171.176 56.8677 171.412 57.0517 171.564C57.2357 171.716 57.5317 171.828 57.9397 171.9L58.7197 172.044C59.5677 172.196 60.1917 172.468 60.5917 172.86C60.9997 173.244 61.2037 173.784 61.2037 174.48C61.2037 174.88 61.1317 175.244 60.9877 175.572C60.8517 175.892 60.6477 176.172 60.3757 176.412C60.1117 176.644 59.7837 176.824 59.3917 176.952C59.0077 177.08 58.5637 177.144 58.0597 177.144ZM65.8452 170.028V177H64.2612V170.028H61.8852V168.624H68.2212V170.028H65.8452ZM72.3541 168.624H75.4021C75.9461 168.624 76.4381 168.712 76.8781 168.888C77.3261 169.064 77.7061 169.328 78.0181 169.68C78.3381 170.024 78.5821 170.46 78.7501 170.988C78.9261 171.508 79.0141 172.116 79.0141 172.812C79.0141 173.508 78.9261 174.12 78.7501 174.648C78.5821 175.168 78.3381 175.604 78.0181 175.956C77.7061 176.3 77.3261 176.56 76.8781 176.736C76.4381 176.912 75.9461 177 75.4021 177H72.3541V168.624ZM75.4021 175.596C75.9941 175.596 76.4621 175.424 76.8061 175.08C77.1581 174.728 77.3341 174.192 77.3341 173.472V172.152C77.3341 171.432 77.1581 170.9 76.8061 170.556C76.4621 170.204 75.9941 170.028 75.4021 170.028H73.9381V175.596H75.4021ZM81.162 168C81.49 168 81.726 168.08 81.87 168.24C82.022 168.392 82.098 168.584 82.098 168.816V169.044C82.098 169.26 82.066 169.48 82.002 169.704C81.946 169.92 81.862 170.132 81.75 170.34C81.638 170.548 81.506 170.744 81.354 170.928C81.202 171.112 81.038 171.276 80.862 171.42H79.83C80.086 171.18 80.302 170.94 80.478 170.7C80.654 170.452 80.786 170.18 80.874 169.884C80.642 169.844 80.474 169.752 80.37 169.608C80.266 169.456 80.214 169.28 80.214 169.08V168.816C80.214 168.584 80.286 168.392 80.43 168.24C80.582 168.08 80.826 168 81.162 168ZM83.8619 177V168.624H89.3819V170.028H85.4459V172.056H88.9259V173.46H85.4459V175.596H89.3819V177H83.8619ZM91.0572 177V168.624H96.4452V170.028H92.6412V172.056H95.9532V173.46H92.6412V177H91.0572ZM97.983 177V168.624H103.371V170.028H99.567V172.056H102.879V173.46H99.567V177H97.983ZM104.561 177V175.728H105.665V169.896H104.561V168.624H108.365V169.896H107.249V175.728H108.365V177H104.561ZM113.235 177.144C112.683 177.144 112.183 177.056 111.735 176.88C111.295 176.696 110.915 176.424 110.595 176.064C110.283 175.704 110.043 175.26 109.875 174.732C109.707 174.196 109.623 173.576 109.623 172.872C109.623 172.168 109.707 171.544 109.875 171C110.043 170.448 110.283 169.988 110.595 169.62C110.915 169.244 111.295 168.96 111.735 168.768C112.183 168.576 112.683 168.48 113.235 168.48C113.987 168.48 114.611 168.64 115.107 168.96C115.603 169.28 115.999 169.764 116.295 170.412L114.939 171.132C114.819 170.756 114.623 170.456 114.351 170.232C114.079 170 113.707 169.884 113.235 169.884C112.643 169.884 112.171 170.084 111.819 170.484C111.475 170.884 111.303 171.444 111.303 172.164V173.484C111.303 174.212 111.475 174.772 111.819 175.164C112.171 175.548 112.643 175.74 113.235 175.74C113.707 175.74 114.091 175.612 114.387 175.356C114.691 175.1 114.911 174.784 115.047 174.408L116.331 175.164C116.027 175.788 115.623 176.276 115.119 176.628C114.615 176.972 113.987 177.144 113.235 177.144ZM122.796 177L122.124 174.864H119.148L118.488 177H116.88L119.688 168.624H121.656L124.44 177H122.796ZM120.66 170.064H120.6L119.532 173.508H121.74L120.66 170.064ZM128.61 177.144C128.058 177.144 127.558 177.056 127.11 176.88C126.67 176.696 126.29 176.424 125.97 176.064C125.658 175.704 125.418 175.26 125.25 174.732C125.082 174.196 124.998 173.576 124.998 172.872C124.998 172.168 125.082 171.544 125.25 171C125.418 170.448 125.658 169.988 125.97 169.62C126.29 169.244 126.67 168.96 127.11 168.768C127.558 168.576 128.058 168.48 128.61 168.48C129.362 168.48 129.986 168.64 130.482 168.96C130.978 169.28 131.374 169.764 131.67 170.412L130.314 171.132C130.194 170.756 129.998 170.456 129.726 170.232C129.454 170 129.082 169.884 128.61 169.884C128.018 169.884 127.546 170.084 127.194 170.484C126.85 170.884 126.678 171.444 126.678 172.164V173.484C126.678 174.212 126.85 174.772 127.194 175.164C127.546 175.548 128.018 175.74 128.61 175.74C129.082 175.74 129.466 175.612 129.762 175.356C130.066 175.1 130.286 174.784 130.422 174.408L131.706 175.164C131.402 175.788 130.998 176.276 130.494 176.628C129.99 176.972 129.362 177.144 128.61 177.144ZM132.709 177V175.728H133.813V169.896H132.709V168.624H136.513V169.896H135.397V175.728H136.513V177H132.709ZM141.361 170.028V177H139.777V170.028H137.401V168.624H143.737V170.028H141.361ZM145.034 177V168.624H150.554V170.028H146.618V172.056H150.098V173.46H146.618V175.596H150.554V177H145.034ZM147.95 168.072L147.026 167.616L148.166 165.372L149.462 166.02L147.95 168.072Z" fill="#41637D"/>
<rect x="175.297" y="123" width="83.9895" height="16.7979" fill="#EDEDED"/>
<rect x="175.243" y="123" width="18" height="17" fill="#39A4F5"/>
<path d="M20.153 136.548C19.601 136.548 19.101 136.46 18.653 136.284C18.213 136.1 17.833 135.828 17.513 135.468C17.201 135.108 16.961 134.664 16.793 134.136C16.625 133.6 16.541 132.98 16.541 132.276C16.541 131.572 16.625 130.948 16.793 130.404C16.961 129.852 17.201 129.392 17.513 129.024C17.833 128.648 18.213 128.364 18.653 128.172C19.101 127.98 19.601 127.884 20.153 127.884C20.905 127.884 21.529 128.044 22.025 128.364C22.521 128.684 22.917 129.168 23.213 129.816L21.857 130.536C21.737 130.16 21.541 129.86 21.269 129.636C20.997 129.404 20.625 129.288 20.153 129.288C19.561 129.288 19.089 129.488 18.737 129.888C18.393 130.288 18.221 130.848 18.221 131.568V132.888C18.221 133.616 18.393 134.176 18.737 134.568C19.089 134.952 19.561 135.144 20.153 135.144C20.625 135.144 21.009 135.016 21.305 134.76C21.609 134.504 21.829 134.188 21.965 133.812L23.249 134.568C22.945 135.192 22.541 135.68 22.037 136.032C21.533 136.376 20.905 136.548 20.153 136.548ZM29.7139 136.404L29.0419 134.268H26.0659L25.4059 136.404H23.7979L26.6059 128.028H28.5739L31.3579 136.404H29.7139ZM27.5779 129.468H27.5179L26.4499 132.912H28.6579L27.5779 129.468ZM34.1764 136.404H32.5924V128.028H36.3724C36.7564 128.028 37.1004 128.088 37.4044 128.208C37.7084 128.328 37.9644 128.504 38.1724 128.736C38.3884 128.96 38.5524 129.232 38.6644 129.552C38.7844 129.872 38.8444 130.228 38.8444 130.62C38.8444 131.196 38.7124 131.692 38.4484 132.108C38.1924 132.524 37.8044 132.82 37.2844 132.996L39.0004 136.404H37.2364L35.6764 133.176H34.1764V136.404ZM36.2164 131.844C36.5204 131.844 36.7604 131.764 36.9364 131.604C37.1124 131.436 37.2004 131.2 37.2004 130.896V130.344C37.2004 130.04 37.1124 129.808 36.9364 129.648C36.7604 129.488 36.5204 129.408 36.2164 129.408H34.1764V131.844H36.2164ZM45.7451 136.404L45.0731 134.268H42.0971L41.4371 136.404H39.8291L42.6371 128.028H44.6051L47.3891 136.404H45.7451ZM43.6091 129.468H43.5491L42.4811 132.912H44.6891L43.6091 129.468ZM51.5592 136.548C51.0072 136.548 50.5072 136.46 50.0592 136.284C49.6192 136.1 49.2392 135.828 48.9192 135.468C48.6072 135.108 48.3672 134.664 48.1992 134.136C48.0312 133.6 47.9472 132.98 47.9472 132.276C47.9472 131.572 48.0312 130.948 48.1992 130.404C48.3672 129.852 48.6072 129.392 48.9192 129.024C49.2392 128.648 49.6192 128.364 50.0592 128.172C50.5072 127.98 51.0072 127.884 51.5592 127.884C52.3112 127.884 52.9352 128.044 53.4312 128.364C53.9272 128.684 54.3232 129.168 54.6192 129.816L53.2632 130.536C53.1432 130.16 52.9472 129.86 52.6752 129.636C52.4032 129.404 52.0312 129.288 51.5592 129.288C50.9672 129.288 50.4952 129.488 50.1432 129.888C49.7992 130.288 49.6272 130.848 49.6272 131.568V132.888C49.6272 133.616 49.7992 134.176 50.1432 134.568C50.4952 134.952 50.9672 135.144 51.5592 135.144C52.0312 135.144 52.4152 135.016 52.7112 134.76C53.0152 134.504 53.2352 134.188 53.3712 133.812L54.6552 134.568C54.3512 135.192 53.9472 135.68 53.4432 136.032C52.9392 136.376 52.3112 136.548 51.5592 136.548ZM59.2945 129.432V136.404H57.7105V129.432H55.3345V128.028H61.6705V129.432H59.2945ZM62.9674 136.404V128.028H68.4874V129.432H64.5514V131.46H68.0314V132.864H64.5514V135H68.4874V136.404H62.9674ZM65.8834 127.476L64.9594 127.02L66.0994 124.776L67.3954 125.424L65.8834 127.476ZM71.7467 136.404H70.1627V128.028H73.9427C74.3267 128.028 74.6707 128.088 74.9747 128.208C75.2787 128.328 75.5347 128.504 75.7427 128.736C75.9587 128.96 76.1227 129.232 76.2347 129.552C76.3547 129.872 76.4147 130.228 76.4147 130.62C76.4147 131.196 76.2827 131.692 76.0187 132.108C75.7627 132.524 75.3747 132.82 74.8547 132.996L76.5707 136.404H74.8067L73.2467 133.176H71.7467V136.404ZM73.7867 131.844C74.0907 131.844 74.3307 131.764 74.5067 131.604C74.6827 131.436 74.7707 131.2 74.7707 130.896V130.344C74.7707 130.04 74.6827 129.808 74.5067 129.648C74.3307 129.488 74.0907 129.408 73.7867 129.408H71.7467V131.844H73.7867ZM77.7835 136.404V135.132H78.8875V129.3H77.7835V128.028H81.5875V129.3H80.4715V135.132H81.5875V136.404H77.7835ZM85.8097 136.548C85.0897 136.548 84.4777 136.42 83.9737 136.164C83.4777 135.908 83.0497 135.572 82.6897 135.156L83.7577 134.124C84.0457 134.46 84.3657 134.716 84.7177 134.892C85.0777 135.068 85.4737 135.156 85.9057 135.156C86.3937 135.156 86.7617 135.052 87.0097 134.844C87.2577 134.628 87.3817 134.34 87.3817 133.98C87.3817 133.7 87.3017 133.472 87.1417 133.296C86.9817 133.12 86.6817 132.992 86.2417 132.912L85.4497 132.792C83.7777 132.528 82.9417 131.716 82.9417 130.356C82.9417 129.98 83.0097 129.64 83.1457 129.336C83.2897 129.032 83.4937 128.772 83.7577 128.556C84.0217 128.34 84.3377 128.176 84.7057 128.064C85.0817 127.944 85.5057 127.884 85.9777 127.884C86.6097 127.884 87.1617 127.988 87.6337 128.196C88.1057 128.404 88.5097 128.712 88.8457 129.12L87.7657 130.14C87.5577 129.884 87.3057 129.676 87.0097 129.516C86.7137 129.356 86.3417 129.276 85.8937 129.276C85.4377 129.276 85.0937 129.364 84.8617 129.54C84.6377 129.708 84.5257 129.948 84.5257 130.26C84.5257 130.58 84.6177 130.816 84.8017 130.968C84.9857 131.12 85.2817 131.232 85.6897 131.304L86.4697 131.448C87.3177 131.6 87.9417 131.872 88.3417 132.264C88.7497 132.648 88.9537 133.188 88.9537 133.884C88.9537 134.284 88.8817 134.648 88.7377 134.976C88.6017 135.296 88.3977 135.576 88.1257 135.816C87.8617 136.048 87.5337 136.228 87.1417 136.356C86.7577 136.484 86.3137 136.548 85.8097 136.548ZM90.5416 136.404V128.028H96.0616V129.432H92.1256V131.46H95.6056V132.864H92.1256V135H96.0616V136.404H90.5416ZM99.3209 136.404H97.7369V128.028H101.517C101.901 128.028 102.245 128.088 102.549 128.208C102.853 128.328 103.109 128.504 103.317 128.736C103.533 128.96 103.697 129.232 103.809 129.552C103.929 129.872 103.989 130.228 103.989 130.62C103.989 131.196 103.857 131.692 103.593 132.108C103.337 132.524 102.949 132.82 102.429 132.996L104.145 136.404H102.381L100.821 133.176H99.3209V136.404ZM101.361 131.844C101.665 131.844 101.905 131.764 102.081 131.604C102.257 131.436 102.345 131.2 102.345 130.896V130.344C102.345 130.04 102.257 129.808 102.081 129.648C101.905 129.488 101.665 129.408 101.361 129.408H99.3209V131.844H101.361ZM108.542 136.404V128.028H110.126V135H113.426V136.404H108.542ZM114.678 127.404C115.006 127.404 115.242 127.484 115.386 127.644C115.538 127.796 115.614 127.988 115.614 128.22V128.448C115.614 128.664 115.582 128.884 115.518 129.108C115.462 129.324 115.378 129.536 115.266 129.744C115.154 129.952 115.022 130.148 114.87 130.332C114.718 130.516 114.554 130.68 114.378 130.824H113.346C113.602 130.584 113.818 130.344 113.994 130.104C114.17 129.856 114.302 129.584 114.39 129.288C114.158 129.248 113.99 129.156 113.886 129.012C113.782 128.86 113.73 128.684 113.73 128.484V128.22C113.73 127.988 113.802 127.796 113.946 127.644C114.098 127.484 114.342 127.404 114.678 127.404ZM117.378 136.404V128.028H122.898V129.432H118.962V131.46H122.442V132.864H118.962V135H122.898V136.404H117.378ZM127.177 136.548C126.457 136.548 125.845 136.42 125.341 136.164C124.845 135.908 124.417 135.572 124.057 135.156L125.125 134.124C125.413 134.46 125.733 134.716 126.085 134.892C126.445 135.068 126.841 135.156 127.273 135.156C127.761 135.156 128.129 135.052 128.377 134.844C128.625 134.628 128.749 134.34 128.749 133.98C128.749 133.7 128.669 133.472 128.509 133.296C128.349 133.12 128.049 132.992 127.609 132.912L126.817 132.792C125.145 132.528 124.309 131.716 124.309 130.356C124.309 129.98 124.377 129.64 124.513 129.336C124.657 129.032 124.861 128.772 125.125 128.556C125.389 128.34 125.705 128.176 126.073 128.064C126.449 127.944 126.873 127.884 127.345 127.884C127.977 127.884 128.529 127.988 129.001 128.196C129.473 128.404 129.877 128.712 130.213 129.12L129.133 130.14C128.925 129.884 128.673 129.676 128.377 129.516C128.081 129.356 127.709 129.276 127.261 129.276C126.805 129.276 126.461 129.364 126.229 129.54C126.005 129.708 125.893 129.948 125.893 130.26C125.893 130.58 125.985 130.816 126.169 130.968C126.353 131.12 126.649 131.232 127.057 131.304L127.837 131.448C128.685 131.6 129.309 131.872 129.709 132.264C130.117 132.648 130.321 133.188 130.321 133.884C130.321 134.284 130.249 134.648 130.105 134.976C129.969 135.296 129.765 135.576 129.493 135.816C129.229 136.048 128.901 136.228 128.509 136.356C128.125 136.484 127.681 136.548 127.177 136.548ZM134.36 136.548C133.64 136.548 133.028 136.42 132.524 136.164C132.028 135.908 131.6 135.572 131.24 135.156L132.308 134.124C132.596 134.46 132.916 134.716 133.268 134.892C133.628 135.068 134.024 135.156 134.456 135.156C134.944 135.156 135.312 135.052 135.56 134.844C135.808 134.628 135.932 134.34 135.932 133.98C135.932 133.7 135.852 133.472 135.692 133.296C135.532 133.12 135.232 132.992 134.792 132.912L134 132.792C132.328 132.528 131.492 131.716 131.492 130.356C131.492 129.98 131.56 129.64 131.696 129.336C131.84 129.032 132.044 128.772 132.308 128.556C132.572 128.34 132.888 128.176 133.256 128.064C133.632 127.944 134.056 127.884 134.528 127.884C135.16 127.884 135.712 127.988 136.184 128.196C136.656 128.404 137.06 128.712 137.396 129.12L136.316 130.14C136.108 129.884 135.856 129.676 135.56 129.516C135.264 129.356 134.892 129.276 134.444 129.276C133.988 129.276 133.644 129.364 133.412 129.54C133.188 129.708 133.076 129.948 133.076 130.26C133.076 130.58 133.168 130.816 133.352 130.968C133.536 131.12 133.832 131.232 134.24 131.304L135.02 131.448C135.868 131.6 136.492 131.872 136.892 132.264C137.3 132.648 137.504 133.188 137.504 133.884C137.504 134.284 137.432 134.648 137.288 134.976C137.152 135.296 136.948 135.576 136.676 135.816C136.412 136.048 136.084 136.228 135.692 136.356C135.308 136.484 134.864 136.548 134.36 136.548ZM144.276 136.404L143.604 134.268H140.628L139.968 136.404H138.36L141.168 128.028H143.136L145.92 136.404H144.276ZM142.14 129.468H142.08L141.012 132.912H143.22L142.14 129.468ZM146.807 136.404V135.132H147.911V129.3H146.807V128.028H150.611V129.3H149.495V135.132H150.611V136.404H146.807Z" fill="#41637D"/>
<line x1="175.716" y1="1.64788e-08" x2="175.716" y2="190" stroke="#41637D" stroke-width="0.839895"/>
<line x1="217.71" y1="1.64788e-08" x2="217.71" y2="190" stroke="#41637D" stroke-width="0.839895"/>
<line x1="259.705" y1="1.64788e-08" x2="259.705" y2="190" stroke="#41637D" stroke-width="0.839895"/>
</svg>
