<svg width="502" height="216" viewBox="0 0 502 216" fill="none" xmlns="http://www.w3.org/2000/svg">
<path d="M260.743 213.144C260.207 213.144 259.743 213.048 259.351 212.856C258.959 212.656 258.635 212.372 258.379 212.004C258.123 211.636 257.931 211.184 257.803 210.648C257.683 210.112 257.623 209.5 257.623 208.812C257.623 208.132 257.683 207.524 257.803 206.988C257.931 206.444 258.123 205.988 258.379 205.62C258.635 205.252 258.959 204.972 259.351 204.78C259.743 204.58 260.207 204.48 260.743 204.48C261.807 204.48 262.591 204.86 263.095 205.62C263.607 206.38 263.863 207.444 263.863 208.812C263.863 210.18 263.607 211.244 263.095 212.004C262.591 212.764 261.807 213.144 260.743 213.144ZM260.743 211.812C261.279 211.812 261.651 211.612 261.859 211.212C262.075 210.804 262.183 210.256 262.183 209.568V208.056C262.183 207.368 262.075 206.824 261.859 206.424C261.651 206.016 261.279 205.812 260.743 205.812C260.207 205.812 259.831 206.016 259.615 206.424C259.407 206.824 259.303 207.368 259.303 208.056V209.568C259.303 210.256 259.407 210.804 259.615 211.212C259.831 211.612 260.207 211.812 260.743 211.812ZM266.498 213L272.306 204.624H273.698L267.89 213H266.498ZM267.074 209.232C266.394 209.232 265.874 209.032 265.514 208.632C265.162 208.224 264.986 207.632 264.986 206.856C264.986 206.08 265.162 205.492 265.514 205.092C265.874 204.684 266.394 204.48 267.074 204.48C267.754 204.48 268.27 204.684 268.622 205.092C268.974 205.492 269.15 206.08 269.15 206.856C269.15 207.632 268.974 208.224 268.622 208.632C268.27 209.032 267.754 209.232 267.074 209.232ZM267.074 208.32C267.57 208.32 267.818 207.94 267.818 207.18V206.532C267.818 205.772 267.57 205.392 267.074 205.392C266.578 205.392 266.33 205.772 266.33 206.532V207.18C266.33 207.94 266.578 208.32 267.074 208.32ZM273.122 213.144C272.45 213.144 271.934 212.944 271.574 212.544C271.222 212.136 271.046 211.544 271.046 210.768C271.046 209.992 271.222 209.404 271.574 209.004C271.934 208.596 272.45 208.392 273.122 208.392C273.802 208.392 274.318 208.596 274.67 209.004C275.03 209.404 275.21 209.992 275.21 210.768C275.21 211.544 275.03 212.136 274.67 212.544C274.318 212.944 273.802 213.144 273.122 213.144ZM273.122 212.232C273.618 212.232 273.866 211.852 273.866 211.092V210.444C273.866 209.684 273.618 209.304 273.122 209.304C272.626 209.304 272.378 209.684 272.378 210.444V211.092C272.378 211.852 272.626 212.232 273.122 212.232Z" fill="#41637D"/>
<path d="M368.225 205.992H364.457L364.265 208.8H364.349C364.437 208.624 364.533 208.46 364.637 208.308C364.741 208.156 364.861 208.028 364.997 207.924C365.133 207.82 365.289 207.74 365.465 207.684C365.649 207.62 365.869 207.588 366.125 207.588C366.485 207.588 366.821 207.648 367.133 207.768C367.445 207.888 367.713 208.064 367.937 208.296C368.169 208.52 368.349 208.796 368.477 209.124C368.613 209.452 368.681 209.824 368.681 210.24C368.681 210.664 368.613 211.052 368.477 211.404C368.341 211.756 368.141 212.064 367.877 212.328C367.613 212.584 367.289 212.784 366.905 212.928C366.521 213.072 366.081 213.144 365.585 213.144C365.201 213.144 364.857 213.1 364.553 213.012C364.249 212.932 363.981 212.82 363.749 212.676C363.517 212.532 363.317 212.368 363.149 212.184C362.981 211.992 362.833 211.792 362.705 211.584L363.857 210.696C363.953 210.856 364.053 211.008 364.157 211.152C364.261 211.288 364.381 211.408 364.517 211.512C364.661 211.616 364.817 211.7 364.985 211.764C365.161 211.82 365.365 211.848 365.597 211.848C366.069 211.848 366.425 211.716 366.665 211.452C366.913 211.188 367.037 210.828 367.037 210.372V210.276C367.037 209.844 366.913 209.504 366.665 209.256C366.417 209.008 366.073 208.884 365.633 208.884C365.289 208.884 365.009 208.952 364.793 209.088C364.577 209.216 364.405 209.356 364.277 209.508L362.981 209.328L363.293 204.624H368.225V205.992ZM372.84 213.144C372.304 213.144 371.84 213.048 371.448 212.856C371.056 212.656 370.732 212.372 370.476 212.004C370.22 211.636 370.028 211.184 369.9 210.648C369.78 210.112 369.72 209.5 369.72 208.812C369.72 208.132 369.78 207.524 369.9 206.988C370.028 206.444 370.22 205.988 370.476 205.62C370.732 205.252 371.056 204.972 371.448 204.78C371.84 204.58 372.304 204.48 372.84 204.48C373.904 204.48 374.688 204.86 375.192 205.62C375.704 206.38 375.96 207.444 375.96 208.812C375.96 210.18 375.704 211.244 375.192 212.004C374.688 212.764 373.904 213.144 372.84 213.144ZM372.84 211.812C373.376 211.812 373.748 211.612 373.956 211.212C374.172 210.804 374.28 210.256 374.28 209.568V208.056C374.28 207.368 374.172 206.824 373.956 206.424C373.748 206.016 373.376 205.812 372.84 205.812C372.304 205.812 371.928 206.016 371.712 206.424C371.504 206.824 371.4 207.368 371.4 208.056V209.568C371.4 210.256 371.504 210.804 371.712 211.212C371.928 211.612 372.304 211.812 372.84 211.812ZM378.596 213L384.404 204.624H385.796L379.988 213H378.596ZM379.172 209.232C378.492 209.232 377.972 209.032 377.612 208.632C377.26 208.224 377.084 207.632 377.084 206.856C377.084 206.08 377.26 205.492 377.612 205.092C377.972 204.684 378.492 204.48 379.172 204.48C379.852 204.48 380.368 204.684 380.72 205.092C381.072 205.492 381.248 206.08 381.248 206.856C381.248 207.632 381.072 208.224 380.72 208.632C380.368 209.032 379.852 209.232 379.172 209.232ZM379.172 208.32C379.668 208.32 379.916 207.94 379.916 207.18V206.532C379.916 205.772 379.668 205.392 379.172 205.392C378.676 205.392 378.428 205.772 378.428 206.532V207.18C378.428 207.94 378.676 208.32 379.172 208.32ZM385.22 213.144C384.548 213.144 384.032 212.944 383.672 212.544C383.32 212.136 383.144 211.544 383.144 210.768C383.144 209.992 383.32 209.404 383.672 209.004C384.032 208.596 384.548 208.392 385.22 208.392C385.9 208.392 386.416 208.596 386.768 209.004C387.128 209.404 387.308 209.992 387.308 210.768C387.308 211.544 387.128 212.136 386.768 212.544C386.416 212.944 385.9 213.144 385.22 213.144ZM385.22 212.232C385.716 212.232 385.964 211.852 385.964 211.092V210.444C385.964 209.684 385.716 209.304 385.22 209.304C384.724 209.304 384.476 209.684 384.476 210.444V211.092C384.476 211.852 384.724 212.232 385.22 212.232Z" fill="#41637D"/>
<path d="M469.539 213V211.716H471.843V205.764H471.735L469.911 207.924L468.927 207.096L471.003 204.624H473.391V211.716H475.311V213H469.539ZM479.243 213.144C478.707 213.144 478.243 213.048 477.851 212.856C477.459 212.656 477.135 212.372 476.879 212.004C476.623 211.636 476.431 211.184 476.303 210.648C476.183 210.112 476.123 209.5 476.123 208.812C476.123 208.132 476.183 207.524 476.303 206.988C476.431 206.444 476.623 205.988 476.879 205.62C477.135 205.252 477.459 204.972 477.851 204.78C478.243 204.58 478.707 204.48 479.243 204.48C480.307 204.48 481.091 204.86 481.595 205.62C482.107 206.38 482.363 207.444 482.363 208.812C482.363 210.18 482.107 211.244 481.595 212.004C481.091 212.764 480.307 213.144 479.243 213.144ZM479.243 211.812C479.779 211.812 480.151 211.612 480.359 211.212C480.575 210.804 480.683 210.256 480.683 209.568V208.056C480.683 207.368 480.575 206.824 480.359 206.424C480.151 206.016 479.779 205.812 479.243 205.812C478.707 205.812 478.331 206.016 478.115 206.424C477.907 206.824 477.803 207.368 477.803 208.056V209.568C477.803 210.256 477.907 210.804 478.115 211.212C478.331 211.612 478.707 211.812 479.243 211.812ZM486.438 213.144C485.902 213.144 485.438 213.048 485.046 212.856C484.654 212.656 484.33 212.372 484.074 212.004C483.818 211.636 483.626 211.184 483.498 210.648C483.378 210.112 483.318 209.5 483.318 208.812C483.318 208.132 483.378 207.524 483.498 206.988C483.626 206.444 483.818 205.988 484.074 205.62C484.33 205.252 484.654 204.972 485.046 204.78C485.438 204.58 485.902 204.48 486.438 204.48C487.502 204.48 488.286 204.86 488.79 205.62C489.302 206.38 489.558 207.444 489.558 208.812C489.558 210.18 489.302 211.244 488.79 212.004C488.286 212.764 487.502 213.144 486.438 213.144ZM486.438 211.812C486.974 211.812 487.346 211.612 487.554 211.212C487.77 210.804 487.878 210.256 487.878 209.568V208.056C487.878 207.368 487.77 206.824 487.554 206.424C487.346 206.016 486.974 205.812 486.438 205.812C485.902 205.812 485.526 206.016 485.31 206.424C485.102 206.824 484.998 207.368 484.998 208.056V209.568C484.998 210.256 485.102 210.804 485.31 211.212C485.526 211.612 485.902 211.812 486.438 211.812ZM492.193 213L498.001 204.624H499.393L493.585 213H492.193ZM492.769 209.232C492.089 209.232 491.569 209.032 491.209 208.632C490.857 208.224 490.681 207.632 490.681 206.856C490.681 206.08 490.857 205.492 491.209 205.092C491.569 204.684 492.089 204.48 492.769 204.48C493.449 204.48 493.965 204.684 494.317 205.092C494.669 205.492 494.845 206.08 494.845 206.856C494.845 207.632 494.669 208.224 494.317 208.632C493.965 209.032 493.449 209.232 492.769 209.232ZM492.769 208.32C493.265 208.32 493.513 207.94 493.513 207.18V206.532C493.513 205.772 493.265 205.392 492.769 205.392C492.273 205.392 492.025 205.772 492.025 206.532V207.18C492.025 207.94 492.273 208.32 492.769 208.32ZM498.817 213.144C498.145 213.144 497.629 212.944 497.269 212.544C496.917 212.136 496.741 211.544 496.741 210.768C496.741 209.992 496.917 209.404 497.269 209.004C497.629 208.596 498.145 208.392 498.817 208.392C499.497 208.392 500.013 208.596 500.365 209.004C500.725 209.404 500.905 209.992 500.905 210.768C500.905 211.544 500.725 212.136 500.365 212.544C500.013 212.944 499.497 213.144 498.817 213.144ZM498.817 212.232C499.313 212.232 499.561 211.852 499.561 211.092V210.444C499.561 209.684 499.313 209.304 498.817 209.304C498.321 209.304 498.073 209.684 498.073 210.444V211.092C498.073 211.852 498.321 212.232 498.817 212.232Z" fill="#41637D"/>
<line opacity="0.2" x1="289.078" y1="0.963867" x2="289.078" y2="190.964" stroke="#41637D"/>
<line opacity="0.2" x1="398.203" y1="0.963867" x2="398.203" y2="190.964" stroke="#41637D"/>
<line opacity="0.2" x1="310.906" y1="0.963867" x2="310.906" y2="190.964" stroke="#41637D"/>
<line opacity="0.2" x1="420.027" y1="0.963867" x2="420.027" y2="190.964" stroke="#41637D"/>
<line opacity="0.2" x1="332.729" y1="0.963867" x2="332.728" y2="190.964" stroke="#41637D"/>
<line opacity="0.2" x1="441.85" y1="0.963867" x2="441.85" y2="190.964" stroke="#41637D"/>
<line opacity="0.2" x1="354.553" y1="0.963867" x2="354.553" y2="190.964" stroke="#41637D"/>
<line opacity="0.2" x1="463.674" y1="0.963867" x2="463.674" y2="190.964" stroke="#41637D"/>
<rect x="267" y="1" width="218" height="17" fill="#EDEDED"/>
<rect x="267" y="1" width="56" height="17" fill="#39A4F5"/>
<path d="M181.474 4.228H185.996C186.398 4.228 186.757 4.28867 187.074 4.41C187.401 4.53133 187.676 4.69933 187.9 4.914C188.124 5.12867 188.292 5.39467 188.404 5.712C188.526 6.02 188.586 6.36067 188.586 6.734C188.586 7.10733 188.535 7.42467 188.432 7.686C188.339 7.938 188.208 8.148 188.04 8.316C187.882 8.484 187.695 8.61 187.48 8.694C187.275 8.778 187.06 8.82467 186.836 8.834V8.918C187.051 8.918 187.28 8.96 187.522 9.044C187.774 9.128 188.003 9.26333 188.208 9.45C188.423 9.62733 188.6 9.86067 188.74 10.15C188.88 10.43 188.95 10.78 188.95 11.2C188.95 11.592 188.885 11.9607 188.754 12.306C188.633 12.642 188.46 12.936 188.236 13.188C188.012 13.44 187.746 13.6407 187.438 13.79C187.13 13.93 186.794 14 186.43 14H181.474V4.228ZM183.322 12.432H185.898C186.253 12.432 186.528 12.3433 186.724 12.166C186.92 11.9793 187.018 11.7133 187.018 11.368V10.892C187.018 10.5467 186.92 10.2807 186.724 10.094C186.528 9.90733 186.253 9.814 185.898 9.814H183.322V12.432ZM183.322 8.302H185.604C185.94 8.302 186.202 8.21333 186.388 8.036C186.575 7.84933 186.668 7.59267 186.668 7.266V6.832C186.668 6.50533 186.575 6.25333 186.388 6.076C186.202 5.88933 185.94 5.796 185.604 5.796H183.322V8.302ZM190.351 14V12.516H191.639V5.712H190.351V4.228H194.789V5.712H193.487V12.516H194.789V14H190.351ZM196.677 4.228H201.199C201.601 4.228 201.96 4.28867 202.277 4.41C202.604 4.53133 202.879 4.69933 203.103 4.914C203.327 5.12867 203.495 5.39467 203.607 5.712C203.729 6.02 203.789 6.36067 203.789 6.734C203.789 7.10733 203.738 7.42467 203.635 7.686C203.542 7.938 203.411 8.148 203.243 8.316C203.085 8.484 202.898 8.61 202.683 8.694C202.478 8.778 202.263 8.82467 202.039 8.834V8.918C202.254 8.918 202.483 8.96 202.725 9.044C202.977 9.128 203.206 9.26333 203.411 9.45C203.626 9.62733 203.803 9.86067 203.943 10.15C204.083 10.43 204.153 10.78 204.153 11.2C204.153 11.592 204.088 11.9607 203.957 12.306C203.836 12.642 203.663 12.936 203.439 13.188C203.215 13.44 202.949 13.6407 202.641 13.79C202.333 13.93 201.997 14 201.633 14H196.677V4.228ZM198.525 12.432H201.101C201.456 12.432 201.731 12.3433 201.927 12.166C202.123 11.9793 202.221 11.7133 202.221 11.368V10.892C202.221 10.5467 202.123 10.2807 201.927 10.094C201.731 9.90733 201.456 9.814 201.101 9.814H198.525V12.432ZM198.525 8.302H200.807C201.143 8.302 201.405 8.21333 201.591 8.036C201.778 7.84933 201.871 7.59267 201.871 7.266V6.832C201.871 6.50533 201.778 6.25333 201.591 6.076C201.405 5.88933 201.143 5.796 200.807 5.796H198.525V8.302ZM205.961 14V4.228H207.809V12.362H211.659V14H205.961ZM212.855 14V12.516H214.143V5.712H212.855V4.228H217.293V5.712H215.991V12.516H217.293V14H212.855ZM223.017 14.168C222.373 14.168 221.79 14.0607 221.267 13.846C220.745 13.6313 220.297 13.3093 219.923 12.88C219.559 12.4507 219.275 11.9233 219.069 11.298C218.864 10.6727 218.761 9.94467 218.761 9.114C218.761 8.29267 218.864 7.56933 219.069 6.944C219.275 6.30933 219.559 5.77733 219.923 5.348C220.297 4.91867 220.745 4.59667 221.267 4.382C221.79 4.16733 222.373 4.06 223.017 4.06C223.661 4.06 224.245 4.16733 224.767 4.382C225.29 4.59667 225.738 4.91867 226.111 5.348C226.485 5.77733 226.769 6.30933 226.965 6.944C227.171 7.56933 227.273 8.29267 227.273 9.114C227.273 9.94467 227.171 10.6727 226.965 11.298C226.769 11.9233 226.485 12.4507 226.111 12.88C225.738 13.3093 225.29 13.6313 224.767 13.846C224.245 14.0607 223.661 14.168 223.017 14.168ZM223.017 12.53C223.717 12.53 224.273 12.2967 224.683 11.83C225.103 11.3633 225.313 10.71 225.313 9.87V8.358C225.313 7.518 225.103 6.86467 224.683 6.398C224.273 5.93133 223.717 5.698 223.017 5.698C222.317 5.698 221.757 5.93133 221.337 6.398C220.927 6.86467 220.721 7.518 220.721 8.358V9.87C220.721 10.71 220.927 11.3633 221.337 11.83C221.757 12.2967 222.317 12.53 223.017 12.53Z" fill="#41637D"/>
<rect x="267" y="43" width="218" height="17" fill="#EDEDED"/>
<rect x="267" y="43" width="89" height="17" fill="#39A4F5"/>
<path d="M102.82 56V46.228H109.26V47.866H104.668V50.232H108.728V51.87H104.668V54.362H109.26V56H102.82ZM106.222 45.584L105.144 45.052L106.474 42.434L107.986 43.19L106.222 45.584ZM115.05 47.866V56H113.202V47.866H110.43V46.228H117.822V47.866H115.05ZM121.086 46.228V52.234C121.086 52.9993 121.23 53.5733 121.52 53.956C121.818 54.3387 122.318 54.53 123.018 54.53C123.718 54.53 124.212 54.3387 124.502 53.956C124.8 53.5733 124.95 52.9993 124.95 52.234V46.228H126.77V51.996C126.77 52.7147 126.7 53.3353 126.56 53.858C126.429 54.3807 126.214 54.8147 125.916 55.16C125.617 55.5053 125.225 55.762 124.74 55.93C124.264 56.0887 123.685 56.168 123.004 56.168C122.313 56.168 121.73 56.0887 121.254 55.93C120.787 55.762 120.404 55.5053 120.106 55.16C119.807 54.8147 119.592 54.3807 119.462 53.858C119.331 53.3353 119.266 52.7147 119.266 51.996V46.228H121.086ZM129.002 46.228H132.558C133.192 46.228 133.766 46.3307 134.28 46.536C134.802 46.7413 135.246 47.0493 135.61 47.46C135.983 47.8613 136.268 48.37 136.464 48.986C136.669 49.5927 136.772 50.302 136.772 51.114C136.772 51.926 136.669 52.64 136.464 53.256C136.268 53.8627 135.983 54.3713 135.61 54.782C135.246 55.1833 134.802 55.4867 134.28 55.692C133.766 55.8973 133.192 56 132.558 56H129.002V46.228ZM132.558 54.362C133.248 54.362 133.794 54.1613 134.196 53.76C134.606 53.3493 134.812 52.724 134.812 51.884V50.344C134.812 49.504 134.606 48.8833 134.196 48.482C133.794 48.0713 133.248 47.866 132.558 47.866H130.85V54.362H132.558ZM138.654 56V46.228H145.094V47.866H140.502V50.232H144.562V51.87H140.502V54.362H145.094V56H138.654ZM150.357 46.228H153.913C154.548 46.228 155.122 46.3307 155.635 46.536C156.158 46.7413 156.601 47.0493 156.965 47.46C157.338 47.8613 157.623 48.37 157.819 48.986C158.024 49.5927 158.127 50.302 158.127 51.114C158.127 51.926 158.024 52.64 157.819 53.256C157.623 53.8627 157.338 54.3713 156.965 54.782C156.601 55.1833 156.158 55.4867 155.635 55.692C155.122 55.8973 154.548 56 153.913 56H150.357V46.228ZM153.913 54.362C154.604 54.362 155.15 54.1613 155.551 53.76C155.962 53.3493 156.167 52.724 156.167 51.884V50.344C156.167 49.504 155.962 48.8833 155.551 48.482C155.15 48.0713 154.604 47.866 153.913 47.866H152.205V54.362H153.913ZM160.009 56V46.228H166.449V47.866H161.857V50.232H165.917V51.87H161.857V54.362H166.449V56H160.009ZM179.09 48.986H179.034L178.278 50.54L176.276 54.236L174.274 50.54L173.518 48.986H173.462V56H171.712V46.228H173.798L176.304 51.002H176.36L178.838 46.228H180.84V56H179.09V48.986ZM189.19 56L188.406 53.508H184.934L184.164 56H182.288L185.564 46.228H187.86L191.108 56H189.19ZM186.698 47.908H186.628L185.382 51.926H187.958L186.698 47.908ZM194.396 56H192.548V46.228H196.958C197.406 46.228 197.808 46.298 198.162 46.438C198.517 46.578 198.816 46.7833 199.058 47.054C199.31 47.3153 199.502 47.6327 199.632 48.006C199.772 48.3793 199.842 48.7947 199.842 49.252C199.842 49.924 199.688 50.5027 199.38 50.988C199.082 51.4733 198.629 51.8187 198.022 52.024L200.024 56H197.966L196.146 52.234H194.396V56ZM196.776 50.68C197.131 50.68 197.411 50.5867 197.616 50.4C197.822 50.204 197.924 49.9287 197.924 49.574V48.93C197.924 48.5753 197.822 48.3047 197.616 48.118C197.411 47.9313 197.131 47.838 196.776 47.838H194.396V50.68H196.776ZM205.503 56.168C204.859 56.168 204.275 56.0653 203.753 55.86C203.239 55.6453 202.796 55.328 202.423 54.908C202.059 54.488 201.779 53.97 201.583 53.354C201.387 52.7287 201.289 52.0053 201.289 51.184C201.289 50.3627 201.387 49.6347 201.583 49C201.779 48.356 202.059 47.8193 202.423 47.39C202.796 46.9513 203.239 46.62 203.753 46.396C204.275 46.172 204.859 46.06 205.503 46.06C206.38 46.06 207.108 46.2467 207.687 46.62C208.265 46.9933 208.727 47.558 209.073 48.314L207.491 49.154C207.351 48.7153 207.122 48.3653 206.805 48.104C206.487 47.8333 206.053 47.698 205.503 47.698C204.812 47.698 204.261 47.9313 203.851 48.398C203.449 48.8647 203.249 49.518 203.249 50.358V51.898C203.249 52.7473 203.449 53.4007 203.851 53.858C204.261 54.306 204.812 54.53 205.503 54.53C206.053 54.53 206.501 54.3807 206.847 54.082C207.201 53.7833 207.458 53.4147 207.617 52.976L209.115 53.858C208.76 54.586 208.289 55.1553 207.701 55.566C207.113 55.9673 206.38 56.168 205.503 56.168ZM216.613 51.87H212.539V56H210.691V46.228H212.539V50.232H216.613V46.228H218.461V56H216.613V51.87ZM220.753 56V46.228H227.193V47.866H222.601V50.232H226.661V51.87H222.601V54.362H227.193V56H220.753ZM224.155 45.584L223.077 45.052L224.407 42.434L225.919 43.19L224.155 45.584Z" fill="#41637D"/>
<rect x="267" y="83" width="218" height="17" fill="#EDEDED"/>
<rect x="267" y="83" width="45" height="17" fill="#39A4F5"/>
<path d="M62.477 96.168C61.637 96.168 60.923 96.0187 60.335 95.72C59.7563 95.4213 59.257 95.0293 58.837 94.544L60.083 93.34C60.419 93.732 60.7923 94.0307 61.203 94.236C61.623 94.4413 62.085 94.544 62.589 94.544C63.1583 94.544 63.5877 94.4227 63.877 94.18C64.1663 93.928 64.311 93.592 64.311 93.172C64.311 92.8453 64.2177 92.5793 64.031 92.374C63.8443 92.1687 63.4943 92.0193 62.981 91.926L62.057 91.786C60.1063 91.478 59.131 90.5307 59.131 88.944C59.131 88.5053 59.2103 88.1087 59.369 87.754C59.537 87.3993 59.775 87.096 60.083 86.844C60.391 86.592 60.7597 86.4007 61.189 86.27C61.6277 86.13 62.1223 86.06 62.673 86.06C63.4103 86.06 64.0543 86.1813 64.605 86.424C65.1557 86.6667 65.627 87.026 66.019 87.502L64.759 88.692C64.5163 88.3933 64.2223 88.1507 63.877 87.964C63.5317 87.7773 63.0977 87.684 62.575 87.684C62.043 87.684 61.6417 87.7867 61.371 87.992C61.1097 88.188 60.979 88.468 60.979 88.832C60.979 89.2053 61.0863 89.4807 61.301 89.658C61.5157 89.8353 61.861 89.966 62.337 90.05L63.247 90.218C64.2363 90.3953 64.9643 90.7127 65.431 91.17C65.907 91.618 66.145 92.248 66.145 93.06C66.145 93.5267 66.061 93.9513 65.893 94.334C65.7343 94.7073 65.4963 95.034 65.179 95.314C64.871 95.5847 64.4883 95.7947 64.031 95.944C63.583 96.0933 63.065 96.168 62.477 96.168ZM71.8336 96.168C71.1896 96.168 70.6063 96.0607 70.0836 95.846C69.5609 95.6313 69.1129 95.3093 68.7396 94.88C68.3756 94.4507 68.0909 93.9233 67.8856 93.298C67.6803 92.6727 67.5776 91.9447 67.5776 91.114C67.5776 90.2927 67.6803 89.5693 67.8856 88.944C68.0909 88.3093 68.3756 87.7773 68.7396 87.348C69.1129 86.9187 69.5609 86.5967 70.0836 86.382C70.6063 86.1673 71.1896 86.06 71.8336 86.06C72.4776 86.06 73.0609 86.1673 73.5836 86.382C74.1063 86.5967 74.5543 86.9187 74.9276 87.348C75.3009 87.7773 75.5856 88.3093 75.7816 88.944C75.9869 89.5693 76.0896 90.2927 76.0896 91.114C76.0896 91.9447 75.9869 92.6727 75.7816 93.298C75.5856 93.9233 75.3009 94.4507 74.9276 94.88C74.5543 95.3093 74.1063 95.6313 73.5836 95.846C73.0609 96.0607 72.4776 96.168 71.8336 96.168ZM71.8336 94.53C72.5336 94.53 73.0889 94.2967 73.4996 93.83C73.9196 93.3633 74.1296 92.71 74.1296 91.87V90.358C74.1296 89.518 73.9196 88.8647 73.4996 88.398C73.0889 87.9313 72.5336 87.698 71.8336 87.698C71.1336 87.698 70.5736 87.9313 70.1536 88.398C69.7429 88.8647 69.5376 89.518 69.5376 90.358V91.87C69.5376 92.71 69.7429 93.3633 70.1536 93.83C70.5736 94.2967 71.1336 94.53 71.8336 94.53ZM79.7144 86.228V92.234C79.7144 92.9993 79.8591 93.5733 80.1484 93.956C80.4471 94.3387 80.9464 94.53 81.6464 94.53C82.3464 94.53 82.8411 94.3387 83.1304 93.956C83.4291 93.5733 83.5784 92.9993 83.5784 92.234V86.228H85.3984V91.996C85.3984 92.7147 85.3284 93.3353 85.1884 93.858C85.0577 94.3807 84.8431 94.8147 84.5444 95.16C84.2457 95.5053 83.8537 95.762 83.3684 95.93C82.8924 96.0887 82.3137 96.168 81.6324 96.168C80.9417 96.168 80.3584 96.0887 79.8824 95.93C79.4157 95.762 79.0331 95.5053 78.7344 95.16C78.4357 94.8147 78.2211 94.3807 78.0904 93.858C77.9597 93.3353 77.8944 92.7147 77.8944 91.996V86.228H79.7144ZM89.4784 96H87.6304V86.228H92.0404C92.4884 86.228 92.8898 86.298 93.2444 86.438C93.5991 86.578 93.8978 86.7833 94.1404 87.054C94.3924 87.3153 94.5838 87.6327 94.7144 88.006C94.8544 88.3793 94.9244 88.7947 94.9244 89.252C94.9244 89.924 94.7704 90.5027 94.4624 90.988C94.1638 91.4733 93.7111 91.8187 93.1044 92.024L95.1064 96H93.0484L91.2284 92.234H89.4784V96ZM91.8584 90.68C92.2131 90.68 92.4931 90.5867 92.6984 90.4C92.9038 90.204 93.0064 89.9287 93.0064 89.574V88.93C93.0064 88.5753 92.9038 88.3047 92.6984 88.118C92.4931 87.9313 92.2131 87.838 91.8584 87.838H89.4784V90.68H91.8584ZM100.585 96.168C99.9406 96.168 99.3572 96.0653 98.8346 95.86C98.3212 95.6453 97.8779 95.328 97.5046 94.908C97.1406 94.488 96.8606 93.97 96.6646 93.354C96.4686 92.7287 96.3706 92.0053 96.3706 91.184C96.3706 90.3627 96.4686 89.6347 96.6646 89C96.8606 88.356 97.1406 87.8193 97.5046 87.39C97.8779 86.9513 98.3212 86.62 98.8346 86.396C99.3572 86.172 99.9406 86.06 100.585 86.06C101.462 86.06 102.19 86.2467 102.769 86.62C103.347 86.9933 103.809 87.558 104.155 88.314L102.573 89.154C102.433 88.7153 102.204 88.3653 101.887 88.104C101.569 87.8333 101.135 87.698 100.585 87.698C99.8939 87.698 99.3432 87.9313 98.9326 88.398C98.5312 88.8647 98.3306 89.518 98.3306 90.358V91.898C98.3306 92.7473 98.5312 93.4007 98.9326 93.858C99.3432 94.306 99.8939 94.53 100.585 94.53C101.135 94.53 101.583 94.3807 101.929 94.082C102.283 93.7833 102.54 93.4147 102.699 92.976L104.197 93.858C103.842 94.586 103.371 95.1553 102.783 95.566C102.195 95.9673 101.462 96.168 100.585 96.168ZM105.367 96V94.516H106.655V87.712H105.367V86.228H109.805V87.712H108.503V94.516H109.805V96H105.367ZM114.493 90.988L113.485 88.958H113.443V96H111.693V86.228H113.723L116.663 91.24L117.671 93.27H117.713V86.228H119.463V96H117.433L114.493 90.988ZM127.985 94.488H127.929C127.845 94.964 127.579 95.3653 127.131 95.692C126.693 96.0093 126.105 96.168 125.367 96.168C124.789 96.168 124.252 96.0607 123.757 95.846C123.272 95.6313 122.847 95.314 122.483 94.894C122.129 94.4647 121.849 93.9373 121.643 93.312C121.438 92.6867 121.335 91.9633 121.335 91.142C121.335 90.3207 121.438 89.5973 121.643 88.972C121.858 88.3373 122.157 87.8053 122.539 87.376C122.922 86.9467 123.379 86.62 123.911 86.396C124.443 86.172 125.036 86.06 125.689 86.06C126.567 86.06 127.313 86.2513 127.929 86.634C128.545 87.0167 129.031 87.5673 129.385 88.286L127.887 89.168C127.71 88.748 127.444 88.398 127.089 88.118C126.744 87.838 126.277 87.698 125.689 87.698C124.961 87.698 124.378 87.922 123.939 88.37C123.51 88.8087 123.295 89.462 123.295 90.33V91.898C123.295 92.7567 123.515 93.41 123.953 93.858C124.392 94.306 124.98 94.53 125.717 94.53C126.007 94.53 126.277 94.4973 126.529 94.432C126.781 94.3573 127.001 94.25 127.187 94.11C127.374 93.97 127.523 93.7973 127.635 93.592C127.747 93.3867 127.803 93.144 127.803 92.864V92.234H125.885V90.68H129.581V96H127.985V94.488ZM135.031 86.228H138.587C139.221 86.228 139.795 86.3307 140.309 86.536C140.831 86.7413 141.275 87.0493 141.639 87.46C142.012 87.8613 142.297 88.37 142.493 88.986C142.698 89.5927 142.801 90.302 142.801 91.114C142.801 91.926 142.698 92.64 142.493 93.256C142.297 93.8627 142.012 94.3713 141.639 94.782C141.275 95.1833 140.831 95.4867 140.309 95.692C139.795 95.8973 139.221 96 138.587 96H135.031V86.228ZM138.587 94.362C139.277 94.362 139.823 94.1613 140.225 93.76C140.635 93.3493 140.841 92.724 140.841 91.884V90.344C140.841 89.504 140.635 88.8833 140.225 88.482C139.823 88.0713 139.277 87.866 138.587 87.866H136.879V94.362H138.587ZM144.683 96V86.228H151.123V87.866H146.531V90.232H150.591V91.87H146.531V94.362H151.123V96H144.683ZM156.386 96V86.228H158.234V94.362H162.084V96H156.386ZM169.981 96L169.197 93.508H165.725L164.955 96H163.079L166.355 86.228H168.651L171.899 96H169.981ZM167.489 87.908H167.419L166.173 91.926H168.749L167.489 87.908ZM176.648 96V86.228H181.044C181.492 86.228 181.893 86.3027 182.248 86.452C182.612 86.592 182.92 86.7973 183.172 87.068C183.424 87.3293 183.615 87.6467 183.746 88.02C183.877 88.3933 183.942 88.804 183.942 89.252C183.942 89.7093 183.877 90.1247 183.746 90.498C183.615 90.862 183.424 91.1793 183.172 91.45C182.92 91.7113 182.612 91.9167 182.248 92.066C181.893 92.206 181.492 92.276 181.044 92.276H178.496V96H176.648ZM178.496 90.68H180.876C181.231 90.68 181.511 90.5867 181.716 90.4C181.921 90.204 182.024 89.9287 182.024 89.574V88.93C182.024 88.5753 181.921 88.3047 181.716 88.118C181.511 87.9313 181.231 87.838 180.876 87.838H178.496V90.68ZM185.617 96V86.228H187.465V94.362H191.315V96H185.617ZM199.212 96L198.428 93.508H194.956L194.186 96H192.31L195.586 86.228H197.882L201.13 96H199.212ZM196.72 87.908H196.65L195.404 91.926H197.98L196.72 87.908ZM205.37 90.988L204.362 88.958H204.32V96H202.57V86.228H204.6L207.54 91.24L208.548 93.27H208.59V86.228H210.34V96H208.31L205.37 90.988ZM216.468 87.866V96H214.62V87.866H211.848V86.228H219.24V87.866H216.468ZM220.753 96V86.228H227.193V87.866H222.601V90.232H226.661V91.87H222.601V94.362H227.193V96H220.753Z" fill="#41637D"/>
<rect x="267" y="165" width="218" height="17" fill="#EDEDED"/>
<rect x="267" y="165" width="35" height="17" fill="#39A4F5"/>
<path d="M136.227 178.168C135.583 178.168 135 178.065 134.477 177.86C133.964 177.645 133.52 177.328 133.147 176.908C132.783 176.488 132.503 175.97 132.307 175.354C132.111 174.729 132.013 174.005 132.013 173.184C132.013 172.363 132.111 171.635 132.307 171C132.503 170.356 132.783 169.819 133.147 169.39C133.52 168.951 133.964 168.62 134.477 168.396C135 168.172 135.583 168.06 136.227 168.06C137.104 168.06 137.832 168.247 138.411 168.62C138.99 168.993 139.452 169.558 139.797 170.314L138.215 171.154C138.075 170.715 137.846 170.365 137.529 170.104C137.212 169.833 136.778 169.698 136.227 169.698C135.536 169.698 134.986 169.931 134.575 170.398C134.174 170.865 133.973 171.518 133.973 172.358V173.898C133.973 174.747 134.174 175.401 134.575 175.858C134.986 176.306 135.536 176.53 136.227 176.53C136.778 176.53 137.226 176.381 137.571 176.082C137.926 175.783 138.182 175.415 138.341 174.976L139.839 175.858C139.484 176.586 139.013 177.155 138.425 177.566C137.837 177.967 137.104 178.168 136.227 178.168ZM145.074 178.168C144.43 178.168 143.847 178.061 143.324 177.846C142.801 177.631 142.353 177.309 141.98 176.88C141.616 176.451 141.331 175.923 141.126 175.298C140.921 174.673 140.818 173.945 140.818 173.114C140.818 172.293 140.921 171.569 141.126 170.944C141.331 170.309 141.616 169.777 141.98 169.348C142.353 168.919 142.801 168.597 143.324 168.382C143.847 168.167 144.43 168.06 145.074 168.06C145.718 168.06 146.301 168.167 146.824 168.382C147.347 168.597 147.795 168.919 148.168 169.348C148.541 169.777 148.826 170.309 149.022 170.944C149.227 171.569 149.33 172.293 149.33 173.114C149.33 173.945 149.227 174.673 149.022 175.298C148.826 175.923 148.541 176.451 148.168 176.88C147.795 177.309 147.347 177.631 146.824 177.846C146.301 178.061 145.718 178.168 145.074 178.168ZM145.074 176.53C145.774 176.53 146.329 176.297 146.74 175.83C147.16 175.363 147.37 174.71 147.37 173.87V172.358C147.37 171.518 147.16 170.865 146.74 170.398C146.329 169.931 145.774 169.698 145.074 169.698C144.374 169.698 143.814 169.931 143.394 170.398C142.983 170.865 142.778 171.518 142.778 172.358V173.87C142.778 174.71 142.983 175.363 143.394 175.83C143.814 176.297 144.374 176.53 145.074 176.53ZM154.005 172.988L152.997 170.958H152.955V178H151.205V168.228H153.235L156.175 173.24L157.183 175.27H157.225V168.228H158.975V178H156.945L154.005 172.988ZM165.103 169.866V178H163.255V169.866H160.483V168.228H167.875V169.866H165.103ZM171.236 178H169.388V168.228H173.798C174.246 168.228 174.648 168.298 175.002 168.438C175.357 168.578 175.656 168.783 175.898 169.054C176.15 169.315 176.342 169.633 176.472 170.006C176.612 170.379 176.682 170.795 176.682 171.252C176.682 171.924 176.528 172.503 176.22 172.988C175.922 173.473 175.469 173.819 174.862 174.024L176.864 178H174.806L172.986 174.234H171.236V178ZM173.616 172.68C173.971 172.68 174.251 172.587 174.456 172.4C174.662 172.204 174.764 171.929 174.764 171.574V170.93C174.764 170.575 174.662 170.305 174.456 170.118C174.251 169.931 173.971 169.838 173.616 169.838H171.236V172.68H173.616ZM184.733 178L183.949 175.508H180.477L179.707 178H177.831L181.107 168.228H183.403L186.651 178H184.733ZM182.241 169.908H182.171L180.925 173.926H183.501L182.241 169.908ZM187.685 178V176.516H188.973V169.712H187.685V168.228H192.123V169.712H190.821V176.516H192.123V178H187.685ZM196.811 172.988L195.803 170.958H195.761V178H194.011V168.228H196.041L198.981 173.24L199.989 175.27H200.031V168.228H201.781V178H199.751L196.811 172.988ZM207.91 169.866V178H206.062V169.866H203.29V168.228H210.682V169.866H207.91ZM212.195 178V168.228H218.635V169.866H214.043V172.232H218.103V173.87H214.043V176.362H218.635V178H212.195ZM223.627 178.168C222.787 178.168 222.073 178.019 221.485 177.72C220.907 177.421 220.407 177.029 219.987 176.544L221.233 175.34C221.569 175.732 221.943 176.031 222.353 176.236C222.773 176.441 223.235 176.544 223.739 176.544C224.309 176.544 224.738 176.423 225.027 176.18C225.317 175.928 225.461 175.592 225.461 175.172C225.461 174.845 225.368 174.579 225.181 174.374C224.995 174.169 224.645 174.019 224.131 173.926L223.207 173.786C221.257 173.478 220.281 172.531 220.281 170.944C220.281 170.505 220.361 170.109 220.519 169.754C220.687 169.399 220.925 169.096 221.233 168.844C221.541 168.592 221.91 168.401 222.339 168.27C222.778 168.13 223.273 168.06 223.823 168.06C224.561 168.06 225.205 168.181 225.755 168.424C226.306 168.667 226.777 169.026 227.169 169.502L225.909 170.692C225.667 170.393 225.373 170.151 225.027 169.964C224.682 169.777 224.248 169.684 223.725 169.684C223.193 169.684 222.792 169.787 222.521 169.992C222.26 170.188 222.129 170.468 222.129 170.832C222.129 171.205 222.237 171.481 222.451 171.658C222.666 171.835 223.011 171.966 223.487 172.05L224.397 172.218C225.387 172.395 226.115 172.713 226.581 173.17C227.057 173.618 227.295 174.248 227.295 175.06C227.295 175.527 227.211 175.951 227.043 176.334C226.885 176.707 226.647 177.034 226.329 177.314C226.021 177.585 225.639 177.795 225.181 177.944C224.733 178.093 224.215 178.168 223.627 178.168ZM99.4088 194.168C98.7648 194.168 98.1815 194.065 97.6588 193.86C97.1455 193.645 96.7021 193.328 96.3288 192.908C95.9648 192.488 95.6848 191.97 95.4888 191.354C95.2928 190.729 95.1948 190.005 95.1948 189.184C95.1948 188.363 95.2928 187.635 95.4888 187C95.6848 186.356 95.9648 185.819 96.3288 185.39C96.7021 184.951 97.1455 184.62 97.6588 184.396C98.1815 184.172 98.7648 184.06 99.4088 184.06C100.286 184.06 101.014 184.247 101.593 184.62C102.171 184.993 102.633 185.558 102.979 186.314L101.397 187.154C101.257 186.715 101.028 186.365 100.711 186.104C100.393 185.833 99.9595 185.698 99.4088 185.698C98.7181 185.698 98.1675 185.931 97.7568 186.398C97.3555 186.865 97.1548 187.518 97.1548 188.358V189.898C97.1548 190.747 97.3555 191.401 97.7568 191.858C98.1675 192.306 98.7181 192.53 99.4088 192.53C99.9595 192.53 100.407 192.381 100.753 192.082C101.107 191.783 101.364 191.415 101.523 190.976L103.021 191.858C102.666 192.586 102.195 193.155 101.607 193.566C101.019 193.967 100.286 194.168 99.4088 194.168ZM108.255 194.168C107.611 194.168 107.028 194.061 106.505 193.846C105.983 193.631 105.535 193.309 105.161 192.88C104.797 192.451 104.513 191.923 104.307 191.298C104.102 190.673 103.999 189.945 103.999 189.114C103.999 188.293 104.102 187.569 104.307 186.944C104.513 186.309 104.797 185.777 105.161 185.348C105.535 184.919 105.983 184.597 106.505 184.382C107.028 184.167 107.611 184.06 108.255 184.06C108.899 184.06 109.483 184.167 110.005 184.382C110.528 184.597 110.976 184.919 111.349 185.348C111.723 185.777 112.007 186.309 112.203 186.944C112.409 187.569 112.511 188.293 112.511 189.114C112.511 189.945 112.409 190.673 112.203 191.298C112.007 191.923 111.723 192.451 111.349 192.88C110.976 193.309 110.528 193.631 110.005 193.846C109.483 194.061 108.899 194.168 108.255 194.168ZM108.255 192.53C108.955 192.53 109.511 192.297 109.921 191.83C110.341 191.363 110.551 190.71 110.551 189.87V188.358C110.551 187.518 110.341 186.865 109.921 186.398C109.511 185.931 108.955 185.698 108.255 185.698C107.555 185.698 106.995 185.931 106.575 186.398C106.165 186.865 105.959 187.518 105.959 188.358V189.87C105.959 190.71 106.165 191.363 106.575 191.83C106.995 192.297 107.555 192.53 108.255 192.53ZM121.764 186.986H121.708L120.952 188.54L118.95 192.236L116.948 188.54L116.192 186.986H116.136V194H114.386V184.228H116.472L118.978 189.002H119.034L121.512 184.228H123.514V194H121.764V186.986ZM125.816 194V184.228H130.212C130.66 184.228 131.061 184.303 131.416 184.452C131.78 184.592 132.088 184.797 132.34 185.068C132.592 185.329 132.783 185.647 132.914 186.02C133.045 186.393 133.11 186.804 133.11 187.252C133.11 187.709 133.045 188.125 132.914 188.498C132.783 188.862 132.592 189.179 132.34 189.45C132.088 189.711 131.78 189.917 131.416 190.066C131.061 190.206 130.66 190.276 130.212 190.276H127.664V194H125.816ZM127.664 188.68H130.044C130.399 188.68 130.679 188.587 130.884 188.4C131.089 188.204 131.192 187.929 131.192 187.574V186.93C131.192 186.575 131.089 186.305 130.884 186.118C130.679 185.931 130.399 185.838 130.044 185.838H127.664V188.68ZM134.785 194V184.228H136.633V192.362H140.483V194H134.785ZM142.086 194V184.228H148.526V185.866H143.934V188.232H147.994V189.87H143.934V192.362H148.526V194H142.086ZM145.488 183.584L144.41 183.052L145.74 180.434L147.252 181.19L145.488 183.584ZM157.858 186.986H157.802L157.046 188.54L155.044 192.236L153.042 188.54L152.286 186.986H152.23V194H150.48V184.228H152.566L155.072 189.002H155.128L157.606 184.228H159.608V194H157.858V186.986ZM161.91 194V184.228H168.35V185.866H163.758V188.232H167.818V189.87H163.758V192.362H168.35V194H161.91ZM173.104 188.988L172.096 186.958H172.054V194H170.304V184.228H172.334L175.274 189.24L176.282 191.27H176.324V184.228H178.074V194H176.044L173.104 188.988ZM184.203 185.866V194H182.355V185.866H179.583V184.228H186.975V185.866H184.203ZM193.62 194L192.836 191.508H189.364L188.594 194H186.718L189.994 184.228H192.29L195.538 194H193.62ZM191.128 185.908H191.058L189.812 189.926H192.388L191.128 185.908ZM196.572 194V192.516H197.86V185.712H196.572V184.228H201.01V185.712H199.708V192.516H201.01V194H196.572ZM204.746 194H202.898V184.228H207.308C207.756 184.228 208.157 184.298 208.512 184.438C208.867 184.578 209.165 184.783 209.408 185.054C209.66 185.315 209.851 185.633 209.982 186.006C210.122 186.379 210.192 186.795 210.192 187.252C210.192 187.924 210.038 188.503 209.73 188.988C209.431 189.473 208.979 189.819 208.372 190.024L210.374 194H208.316L206.496 190.234H204.746V194ZM207.126 188.68C207.481 188.68 207.761 188.587 207.966 188.4C208.171 188.204 208.274 187.929 208.274 187.574V186.93C208.274 186.575 208.171 186.305 207.966 186.118C207.761 185.931 207.481 185.838 207.126 185.838H204.746V188.68H207.126ZM212.195 194V184.228H218.635V185.866H214.043V188.232H218.103V189.87H214.043V192.362H218.635V194H212.195ZM223.627 194.168C222.787 194.168 222.073 194.019 221.485 193.72C220.907 193.421 220.407 193.029 219.987 192.544L221.233 191.34C221.569 191.732 221.943 192.031 222.353 192.236C222.773 192.441 223.235 192.544 223.739 192.544C224.309 192.544 224.738 192.423 225.027 192.18C225.317 191.928 225.461 191.592 225.461 191.172C225.461 190.845 225.368 190.579 225.181 190.374C224.995 190.169 224.645 190.019 224.131 189.926L223.207 189.786C221.257 189.478 220.281 188.531 220.281 186.944C220.281 186.505 220.361 186.109 220.519 185.754C220.687 185.399 220.925 185.096 221.233 184.844C221.541 184.592 221.91 184.401 222.339 184.27C222.778 184.13 223.273 184.06 223.823 184.06C224.561 184.06 225.205 184.181 225.755 184.424C226.306 184.667 226.777 185.026 227.169 185.502L225.909 186.692C225.667 186.393 225.373 186.151 225.027 185.964C224.682 185.777 224.248 185.684 223.725 185.684C223.193 185.684 222.792 185.787 222.521 185.992C222.26 186.188 222.129 186.468 222.129 186.832C222.129 187.205 222.237 187.481 222.451 187.658C222.666 187.835 223.011 187.966 223.487 188.05L224.397 188.218C225.387 188.395 226.115 188.713 226.581 189.17C227.057 189.618 227.295 190.248 227.295 191.06C227.295 191.527 227.211 191.951 227.043 192.334C226.885 192.707 226.647 193.034 226.329 193.314C226.021 193.585 225.639 193.795 225.181 193.944C224.733 194.093 224.215 194.168 223.627 194.168Z" fill="#41637D"/>
<rect x="267" y="125" width="218" height="17" fill="#EDEDED"/>
<rect x="267" y="125" width="24" height="17" fill="#39A4F5"/>
<path d="M76.7886 111.228H81.3106C81.712 111.228 82.0713 111.289 82.3886 111.41C82.7153 111.531 82.9906 111.699 83.2146 111.914C83.4386 112.129 83.6066 112.395 83.7186 112.712C83.84 113.02 83.9006 113.361 83.9006 113.734C83.9006 114.107 83.8493 114.425 83.7466 114.686C83.6533 114.938 83.5226 115.148 83.3546 115.316C83.196 115.484 83.0093 115.61 82.7946 115.694C82.5893 115.778 82.3746 115.825 82.1506 115.834V115.918C82.3653 115.918 82.594 115.96 82.8366 116.044C83.0886 116.128 83.3173 116.263 83.5226 116.45C83.7373 116.627 83.9146 116.861 84.0546 117.15C84.1946 117.43 84.2646 117.78 84.2646 118.2C84.2646 118.592 84.1993 118.961 84.0686 119.306C83.9473 119.642 83.7746 119.936 83.5506 120.188C83.3266 120.44 83.0606 120.641 82.7526 120.79C82.4446 120.93 82.1086 121 81.7446 121H76.7886V111.228ZM78.6366 119.432H81.2126C81.5673 119.432 81.8426 119.343 82.0386 119.166C82.2346 118.979 82.3326 118.713 82.3326 118.368V117.892C82.3326 117.547 82.2346 117.281 82.0386 117.094C81.8426 116.907 81.5673 116.814 81.2126 116.814H78.6366V119.432ZM78.6366 115.302H80.9186C81.2546 115.302 81.516 115.213 81.7026 115.036C81.8893 114.849 81.9826 114.593 81.9826 114.266V113.832C81.9826 113.505 81.8893 113.253 81.7026 113.076C81.516 112.889 81.2546 112.796 80.9186 112.796H78.6366V115.302ZM87.9198 121H86.0718V111.228H90.4818C90.9298 111.228 91.3312 111.298 91.6858 111.438C92.0405 111.578 92.3392 111.783 92.5818 112.054C92.8338 112.315 93.0252 112.633 93.1558 113.006C93.2958 113.379 93.3658 113.795 93.3658 114.252C93.3658 114.924 93.2118 115.503 92.9038 115.988C92.6052 116.473 92.1525 116.819 91.5458 117.024L93.5478 121H91.4898L89.6698 117.234H87.9198V121ZM90.2998 115.68C90.6545 115.68 90.9345 115.587 91.1398 115.4C91.3452 115.204 91.4478 114.929 91.4478 114.574V113.93C91.4478 113.575 91.3452 113.305 91.1398 113.118C90.9345 112.931 90.6545 112.838 90.2998 112.838H87.9198V115.68H90.2998ZM95.3687 121V111.228H101.809V112.866H97.2167V115.232H101.277V116.87H97.2167V119.362H101.809V121H95.3687ZM105.99 121L102.798 111.228H104.688L106.186 115.988L107.054 119.236H107.096L107.95 115.988L109.448 111.228H111.282L108.09 121H105.99ZM112.65 121V111.228H119.09V112.866H114.498V115.232H118.558V116.87H114.498V119.362H119.09V121H112.65ZM124.88 112.866V121H123.032V112.866H120.26V111.228H127.652V112.866H124.88ZM131.396 123.114L135.414 110.64H136.912L132.894 123.114H131.396ZM141.894 121V111.228H146.29C146.738 111.228 147.139 111.303 147.494 111.452C147.858 111.592 148.166 111.797 148.418 112.068C148.67 112.329 148.861 112.647 148.992 113.02C149.123 113.393 149.188 113.804 149.188 114.252C149.188 114.709 149.123 115.125 148.992 115.498C148.861 115.862 148.67 116.179 148.418 116.45C148.166 116.711 147.858 116.917 147.494 117.066C147.139 117.206 146.738 117.276 146.29 117.276H143.742V121H141.894ZM143.742 115.68H146.122C146.477 115.68 146.757 115.587 146.962 115.4C147.167 115.204 147.27 114.929 147.27 114.574V113.93C147.27 113.575 147.167 113.305 146.962 113.118C146.757 112.931 146.477 112.838 146.122 112.838H143.742V115.68ZM152.711 121H150.863V111.228H155.273C155.721 111.228 156.122 111.298 156.477 111.438C156.832 111.578 157.13 111.783 157.373 112.054C157.625 112.315 157.816 112.633 157.947 113.006C158.087 113.379 158.157 113.795 158.157 114.252C158.157 114.924 158.003 115.503 157.695 115.988C157.396 116.473 156.944 116.819 156.337 117.024L158.339 121H156.281L154.461 117.234H152.711V121ZM155.091 115.68C155.446 115.68 155.726 115.587 155.931 115.4C156.136 115.204 156.239 114.929 156.239 114.574V113.93C156.239 113.575 156.136 113.305 155.931 113.118C155.726 112.931 155.446 112.838 155.091 112.838H152.711V115.68H155.091ZM163.859 121.168C163.215 121.168 162.632 121.061 162.109 120.846C161.586 120.631 161.138 120.309 160.765 119.88C160.401 119.451 160.116 118.923 159.911 118.298C159.706 117.673 159.603 116.945 159.603 116.114C159.603 115.293 159.706 114.569 159.911 113.944C160.116 113.309 160.401 112.777 160.765 112.348C161.138 111.919 161.586 111.597 162.109 111.382C162.632 111.167 163.215 111.06 163.859 111.06C164.503 111.06 165.086 111.167 165.609 111.382C166.132 111.597 166.58 111.919 166.953 112.348C167.326 112.777 167.611 113.309 167.807 113.944C168.012 114.569 168.115 115.293 168.115 116.114C168.115 116.945 168.012 117.673 167.807 118.298C167.611 118.923 167.326 119.451 166.953 119.88C166.58 120.309 166.132 120.631 165.609 120.846C165.086 121.061 164.503 121.168 163.859 121.168ZM163.859 119.53C164.559 119.53 165.114 119.297 165.525 118.83C165.945 118.363 166.155 117.71 166.155 116.87V115.358C166.155 114.518 165.945 113.865 165.525 113.398C165.114 112.931 164.559 112.698 163.859 112.698C163.159 112.698 162.599 112.931 162.179 113.398C161.768 113.865 161.563 114.518 161.563 115.358V116.87C161.563 117.71 161.768 118.363 162.179 118.83C162.599 119.297 163.159 119.53 163.859 119.53ZM173.484 112.866V121H171.636V112.866H168.864V111.228H176.256V112.866H173.484ZM177.769 121V111.228H184.209V112.866H179.617V115.232H183.677V116.87H179.617V119.362H184.209V121H177.769ZM189.958 121.168C189.314 121.168 188.73 121.065 188.208 120.86C187.694 120.645 187.251 120.328 186.878 119.908C186.514 119.488 186.234 118.97 186.038 118.354C185.842 117.729 185.744 117.005 185.744 116.184C185.744 115.363 185.842 114.635 186.038 114C186.234 113.356 186.514 112.819 186.878 112.39C187.251 111.951 187.694 111.62 188.208 111.396C188.73 111.172 189.314 111.06 189.958 111.06C190.835 111.06 191.563 111.247 192.142 111.62C192.72 111.993 193.182 112.558 193.528 113.314L191.946 114.154C191.806 113.715 191.577 113.365 191.26 113.104C190.942 112.833 190.508 112.698 189.958 112.698C189.267 112.698 188.716 112.931 188.306 113.398C187.904 113.865 187.704 114.518 187.704 115.358V116.898C187.704 117.747 187.904 118.401 188.306 118.858C188.716 119.306 189.267 119.53 189.958 119.53C190.508 119.53 190.956 119.381 191.302 119.082C191.656 118.783 191.913 118.415 192.072 117.976L193.57 118.858C193.215 119.586 192.744 120.155 192.156 120.566C191.568 120.967 190.835 121.168 189.958 121.168ZM198.982 112.866V121H197.134V112.866H194.362V111.228H201.754V112.866H198.982ZM202.793 121V119.516H204.081V112.712H202.793V111.228H207.231V112.712H205.929V119.516H207.231V121H202.793ZM212.955 121.168C212.311 121.168 211.727 121.061 211.205 120.846C210.682 120.631 210.234 120.309 209.861 119.88C209.497 119.451 209.212 118.923 209.007 118.298C208.801 117.673 208.699 116.945 208.699 116.114C208.699 115.293 208.801 114.569 209.007 113.944C209.212 113.309 209.497 112.777 209.861 112.348C210.234 111.919 210.682 111.597 211.205 111.382C211.727 111.167 212.311 111.06 212.955 111.06C213.599 111.06 214.182 111.167 214.705 111.382C215.227 111.597 215.675 111.919 216.049 112.348C216.422 112.777 216.707 113.309 216.903 113.944C217.108 114.569 217.211 115.293 217.211 116.114C217.211 116.945 217.108 117.673 216.903 118.298C216.707 118.923 216.422 119.451 216.049 119.88C215.675 120.309 215.227 120.631 214.705 120.846C214.182 121.061 213.599 121.168 212.955 121.168ZM212.955 119.53C213.655 119.53 214.21 119.297 214.621 118.83C215.041 118.363 215.251 117.71 215.251 116.87V115.358C215.251 114.518 215.041 113.865 214.621 113.398C214.21 112.931 213.655 112.698 212.955 112.698C212.255 112.698 211.695 112.931 211.275 113.398C210.864 113.865 210.659 114.518 210.659 115.358V116.87C210.659 117.71 210.864 118.363 211.275 118.83C211.695 119.297 212.255 119.53 212.955 119.53ZM221.886 115.988L220.878 113.958H220.836V121H219.086V111.228H221.116L224.056 116.24L225.064 118.27H225.106V111.228H226.856V121H224.826L221.886 115.988ZM37.164 136.104C37.024 136.225 36.8654 136.351 36.688 136.482C36.5107 136.603 36.3054 136.715 36.072 136.818C35.848 136.921 35.5914 137.005 35.302 137.07C35.022 137.135 34.7047 137.168 34.35 137.168C33.8274 137.168 33.3607 137.098 32.95 136.958C32.5487 136.818 32.2127 136.627 31.942 136.384C31.6714 136.141 31.466 135.857 31.326 135.53C31.186 135.194 31.116 134.835 31.116 134.452C31.116 134.107 31.1674 133.803 31.27 133.542C31.3727 133.271 31.5127 133.029 31.69 132.814C31.8674 132.59 32.0774 132.394 32.32 132.226C32.5627 132.049 32.8194 131.881 33.09 131.722C32.8007 131.395 32.544 131.041 32.32 130.658C32.1054 130.266 31.998 129.846 31.998 129.398C31.998 129.081 32.0634 128.782 32.194 128.502C32.3247 128.213 32.5114 127.961 32.754 127.746C33.006 127.531 33.3047 127.363 33.65 127.242C33.9954 127.121 34.3827 127.06 34.812 127.06C35.1947 127.06 35.5494 127.111 35.876 127.214C36.2027 127.317 36.4827 127.461 36.716 127.648C36.9587 127.835 37.1454 128.063 37.276 128.334C37.416 128.605 37.486 128.913 37.486 129.258C37.486 129.566 37.43 129.851 37.318 130.112C37.2154 130.364 37.0707 130.597 36.884 130.812C36.6974 131.017 36.4827 131.213 36.24 131.4C35.9974 131.577 35.736 131.745 35.456 131.904L37.164 133.752C37.2947 133.435 37.3927 133.099 37.458 132.744C37.5327 132.389 37.5794 132.035 37.598 131.68H39.796V133.178H38.886C38.746 133.813 38.5314 134.391 38.242 134.914L40.174 137H37.976L37.164 136.104ZM34.756 128.446C34.4574 128.446 34.21 128.535 34.014 128.712C33.818 128.88 33.72 129.109 33.72 129.398V129.496C33.72 129.711 33.7854 129.925 33.916 130.14C34.056 130.345 34.2707 130.611 34.56 130.938C34.9147 130.723 35.204 130.499 35.428 130.266C35.6614 130.033 35.778 129.762 35.778 129.454V129.37C35.778 129.071 35.6754 128.843 35.47 128.684C35.274 128.525 35.036 128.446 34.756 128.446ZM34.588 135.67C34.924 135.67 35.2274 135.619 35.498 135.516C35.7687 135.413 36.0067 135.273 36.212 135.096L33.986 132.688C33.6594 132.884 33.4027 133.094 33.216 133.318C33.0387 133.533 32.95 133.808 32.95 134.144V134.298C32.95 134.709 33.09 135.04 33.37 135.292C33.65 135.544 34.056 135.67 34.588 135.67ZM48.6051 137.168C47.9611 137.168 47.3778 137.061 46.8551 136.846C46.3324 136.631 45.8844 136.309 45.5111 135.88C45.1471 135.451 44.8624 134.923 44.6571 134.298C44.4518 133.673 44.3491 132.945 44.3491 132.114C44.3491 131.293 44.4518 130.569 44.6571 129.944C44.8624 129.309 45.1471 128.777 45.5111 128.348C45.8844 127.919 46.3324 127.597 46.8551 127.382C47.3778 127.167 47.9611 127.06 48.6051 127.06C49.2491 127.06 49.8324 127.167 50.3551 127.382C50.8778 127.597 51.3258 127.919 51.6991 128.348C52.0724 128.777 52.3571 129.309 52.5531 129.944C52.7584 130.569 52.8611 131.293 52.8611 132.114C52.8611 132.945 52.7584 133.673 52.5531 134.298C52.3571 134.923 52.0724 135.451 51.6991 135.88C51.3258 136.309 50.8778 136.631 50.3551 136.846C49.8324 137.061 49.2491 137.168 48.6051 137.168ZM48.6051 135.53C49.3051 135.53 49.8604 135.297 50.2711 134.83C50.6911 134.363 50.9011 133.71 50.9011 132.87V131.358C50.9011 130.518 50.6911 129.865 50.2711 129.398C49.8604 128.931 49.3051 128.698 48.6051 128.698C47.9051 128.698 47.3451 128.931 46.9251 129.398C46.5144 129.865 46.3091 130.518 46.3091 131.358V132.87C46.3091 133.71 46.5144 134.363 46.9251 134.83C47.3451 135.297 47.9051 135.53 48.6051 135.53ZM54.7359 137V127.228H59.1319C59.5799 127.228 59.9812 127.303 60.3359 127.452C60.6999 127.592 61.0079 127.797 61.2599 128.068C61.5119 128.329 61.7032 128.647 61.8339 129.02C61.9646 129.393 62.0299 129.804 62.0299 130.252C62.0299 130.709 61.9646 131.125 61.8339 131.498C61.7032 131.862 61.5119 132.179 61.2599 132.45C61.0079 132.711 60.6999 132.917 60.3359 133.066C59.9812 133.206 59.5799 133.276 59.1319 133.276H56.5839V137H54.7359ZM56.5839 131.68H58.9639C59.3186 131.68 59.5986 131.587 59.8039 131.4C60.0092 131.204 60.1119 130.929 60.1119 130.574V129.93C60.1119 129.575 60.0092 129.305 59.8039 129.118C59.5986 128.931 59.3186 128.838 58.9639 128.838H56.5839V131.68ZM63.7046 137V127.228H68.1006C68.5486 127.228 68.95 127.303 69.3046 127.452C69.6686 127.592 69.9766 127.797 70.2286 128.068C70.4806 128.329 70.672 128.647 70.8026 129.02C70.9333 129.393 70.9986 129.804 70.9986 130.252C70.9986 130.709 70.9333 131.125 70.8026 131.498C70.672 131.862 70.4806 132.179 70.2286 132.45C69.9766 132.711 69.6686 132.917 69.3046 133.066C68.95 133.206 68.5486 133.276 68.1006 133.276H65.5526V137H63.7046ZM65.5526 131.68H67.9326C68.2873 131.68 68.5673 131.587 68.7726 131.4C68.978 131.204 69.0806 130.929 69.0806 130.574V129.93C69.0806 129.575 68.978 129.305 68.7726 129.118C68.5673 128.931 68.2873 128.838 67.9326 128.838H65.5526V131.68ZM76.5094 137.168C75.8654 137.168 75.2821 137.061 74.7594 136.846C74.2367 136.631 73.7887 136.309 73.4154 135.88C73.0514 135.451 72.7667 134.923 72.5614 134.298C72.3561 133.673 72.2534 132.945 72.2534 132.114C72.2534 131.293 72.3561 130.569 72.5614 129.944C72.7667 129.309 73.0514 128.777 73.4154 128.348C73.7887 127.919 74.2367 127.597 74.7594 127.382C75.2821 127.167 75.8654 127.06 76.5094 127.06C77.1534 127.06 77.7367 127.167 78.2594 127.382C78.7821 127.597 79.2301 127.919 79.6034 128.348C79.9767 128.777 80.2614 129.309 80.4574 129.944C80.6627 130.569 80.7654 131.293 80.7654 132.114C80.7654 132.945 80.6627 133.673 80.4574 134.298C80.2614 134.923 79.9767 135.451 79.6034 135.88C79.2301 136.309 78.7821 136.631 78.2594 136.846C77.7367 137.061 77.1534 137.168 76.5094 137.168ZM76.5094 135.53C77.2094 135.53 77.7647 135.297 78.1754 134.83C78.5954 134.363 78.8054 133.71 78.8054 132.87V131.358C78.8054 130.518 78.5954 129.865 78.1754 129.398C77.7647 128.931 77.2094 128.698 76.5094 128.698C75.8094 128.698 75.2494 128.931 74.8294 129.398C74.4187 129.865 74.2134 130.518 74.2134 131.358V132.87C74.2134 133.71 74.4187 134.363 74.8294 134.83C75.2494 135.297 75.8094 135.53 76.5094 135.53ZM84.4882 137H82.6402V127.228H87.0502C87.4982 127.228 87.8995 127.298 88.2542 127.438C88.6089 127.578 88.9075 127.783 89.1502 128.054C89.4022 128.315 89.5935 128.633 89.7242 129.006C89.8642 129.379 89.9342 129.795 89.9342 130.252C89.9342 130.924 89.7802 131.503 89.4722 131.988C89.1735 132.473 88.7209 132.819 88.1142 133.024L90.1162 137H88.0582L86.2382 133.234H84.4882V137ZM86.8682 131.68C87.2229 131.68 87.5029 131.587 87.7082 131.4C87.9135 131.204 88.0162 130.929 88.0162 130.574V129.93C88.0162 129.575 87.9135 129.305 87.7082 129.118C87.5029 128.931 87.2229 128.838 86.8682 128.838H84.4882V131.68H86.8682ZM95.4313 128.866V137H93.5833V128.866H90.8113V127.228H98.2033V128.866H95.4313ZM101.466 127.228V133.234C101.466 133.999 101.611 134.573 101.9 134.956C102.199 135.339 102.698 135.53 103.398 135.53C104.098 135.53 104.593 135.339 104.882 134.956C105.181 134.573 105.33 133.999 105.33 133.234V127.228H107.15V132.996C107.15 133.715 107.08 134.335 106.94 134.858C106.81 135.381 106.595 135.815 106.296 136.16C105.998 136.505 105.606 136.762 105.12 136.93C104.644 137.089 104.066 137.168 103.384 137.168C102.694 137.168 102.11 137.089 101.634 136.93C101.168 136.762 100.785 136.505 100.486 136.16C100.188 135.815 99.973 135.381 99.8424 134.858C99.7117 134.335 99.6464 133.715 99.6464 132.996V127.228H101.466ZM112.182 131.988L111.174 129.958H111.132V137H109.382V127.228H111.412L114.352 132.24L115.36 134.27H115.402V127.228H117.152V137H115.122L112.182 131.988ZM119.039 137V135.516H120.327V128.712H119.039V127.228H123.477V128.712H122.175V135.516H123.477V137H119.039ZM129.132 128.866V137H127.284V128.866H124.512V127.228H131.904V128.866H129.132ZM133.418 137V127.228H139.858V128.866H135.266V131.232H139.326V132.87H135.266V135.362H139.858V137H133.418ZM136.82 126.584L135.742 126.052L137.072 123.434L138.584 124.19L136.82 126.584ZM145.121 127.228H148.677C149.311 127.228 149.885 127.331 150.399 127.536C150.921 127.741 151.365 128.049 151.729 128.46C152.102 128.861 152.387 129.37 152.583 129.986C152.788 130.593 152.891 131.302 152.891 132.114C152.891 132.926 152.788 133.64 152.583 134.256C152.387 134.863 152.102 135.371 151.729 135.782C151.365 136.183 150.921 136.487 150.399 136.692C149.885 136.897 149.311 137 148.677 137H145.121V127.228ZM148.677 135.362C149.367 135.362 149.913 135.161 150.315 134.76C150.725 134.349 150.931 133.724 150.931 132.884V131.344C150.931 130.504 150.725 129.883 150.315 129.482C149.913 129.071 149.367 128.866 148.677 128.866H146.969V135.362H148.677ZM154.367 137V135.516H155.655V128.712H154.367V127.228H158.805V128.712H157.503V135.516H158.805V137H154.367ZM163.731 137.168C162.891 137.168 162.177 137.019 161.589 136.72C161.01 136.421 160.511 136.029 160.091 135.544L161.337 134.34C161.673 134.732 162.046 135.031 162.457 135.236C162.877 135.441 163.339 135.544 163.843 135.544C164.412 135.544 164.842 135.423 165.131 135.18C165.42 134.928 165.565 134.592 165.565 134.172C165.565 133.845 165.472 133.579 165.285 133.374C165.098 133.169 164.748 133.019 164.235 132.926L163.311 132.786C161.36 132.478 160.385 131.531 160.385 129.944C160.385 129.505 160.464 129.109 160.623 128.754C160.791 128.399 161.029 128.096 161.337 127.844C161.645 127.592 162.014 127.401 162.443 127.27C162.882 127.13 163.376 127.06 163.927 127.06C164.664 127.06 165.308 127.181 165.859 127.424C166.41 127.667 166.881 128.026 167.273 128.502L166.013 129.692C165.77 129.393 165.476 129.151 165.131 128.964C164.786 128.777 164.352 128.684 163.829 128.684C163.297 128.684 162.896 128.787 162.625 128.992C162.364 129.188 162.233 129.468 162.233 129.832C162.233 130.205 162.34 130.481 162.555 130.658C162.77 130.835 163.115 130.966 163.591 131.05L164.501 131.218C165.49 131.395 166.218 131.713 166.685 132.17C167.161 132.618 167.399 133.248 167.399 134.06C167.399 134.527 167.315 134.951 167.147 135.334C166.988 135.707 166.75 136.034 166.433 136.314C166.125 136.585 165.742 136.795 165.285 136.944C164.837 137.093 164.319 137.168 163.731 137.168ZM169.252 137V127.228H173.648C174.096 127.228 174.497 127.303 174.852 127.452C175.216 127.592 175.524 127.797 175.776 128.068C176.028 128.329 176.219 128.647 176.35 129.02C176.48 129.393 176.546 129.804 176.546 130.252C176.546 130.709 176.48 131.125 176.35 131.498C176.219 131.862 176.028 132.179 175.776 132.45C175.524 132.711 175.216 132.917 174.852 133.066C174.497 133.206 174.096 133.276 173.648 133.276H171.1V137H169.252ZM171.1 131.68H173.48C173.834 131.68 174.114 131.587 174.32 131.4C174.525 131.204 174.628 130.929 174.628 130.574V129.93C174.628 129.575 174.525 129.305 174.32 129.118C174.114 128.931 173.834 128.838 173.48 128.838H171.1V131.68ZM182.056 137.168C181.412 137.168 180.829 137.061 180.306 136.846C179.784 136.631 179.336 136.309 178.962 135.88C178.598 135.451 178.314 134.923 178.108 134.298C177.903 133.673 177.8 132.945 177.8 132.114C177.8 131.293 177.903 130.569 178.108 129.944C178.314 129.309 178.598 128.777 178.962 128.348C179.336 127.919 179.784 127.597 180.306 127.382C180.829 127.167 181.412 127.06 182.056 127.06C182.7 127.06 183.284 127.167 183.806 127.382C184.329 127.597 184.777 127.919 185.15 128.348C185.524 128.777 185.808 129.309 186.004 129.944C186.21 130.569 186.312 131.293 186.312 132.114C186.312 132.945 186.21 133.673 186.004 134.298C185.808 134.923 185.524 135.451 185.15 135.88C184.777 136.309 184.329 136.631 183.806 136.846C183.284 137.061 182.7 137.168 182.056 137.168ZM182.056 135.53C182.756 135.53 183.312 135.297 183.722 134.83C184.142 134.363 184.352 133.71 184.352 132.87V131.358C184.352 130.518 184.142 129.865 183.722 129.398C183.312 128.931 182.756 128.698 182.056 128.698C181.356 128.698 180.796 128.931 180.376 129.398C179.966 129.865 179.76 130.518 179.76 131.358V132.87C179.76 133.71 179.966 134.363 180.376 134.83C180.796 135.297 181.356 135.53 182.056 135.53ZM190.987 131.988L189.979 129.958H189.937V137H188.187V127.228H190.217L193.157 132.24L194.165 134.27H194.207V127.228H195.957V137H193.927L190.987 131.988ZM197.844 137V135.516H199.132V128.712H197.844V127.228H202.282V128.712H200.98V135.516H202.282V137H197.844ZM204.169 127.228H208.691C209.093 127.228 209.452 127.289 209.769 127.41C210.096 127.531 210.371 127.699 210.595 127.914C210.819 128.129 210.987 128.395 211.099 128.712C211.221 129.02 211.281 129.361 211.281 129.734C211.281 130.107 211.23 130.425 211.127 130.686C211.034 130.938 210.903 131.148 210.735 131.316C210.577 131.484 210.39 131.61 210.175 131.694C209.97 131.778 209.755 131.825 209.531 131.834V131.918C209.746 131.918 209.975 131.96 210.217 132.044C210.469 132.128 210.698 132.263 210.903 132.45C211.118 132.627 211.295 132.861 211.435 133.15C211.575 133.43 211.645 133.78 211.645 134.2C211.645 134.592 211.58 134.961 211.449 135.306C211.328 135.642 211.155 135.936 210.931 136.188C210.707 136.44 210.441 136.641 210.133 136.79C209.825 136.93 209.489 137 209.125 137H204.169V127.228ZM206.017 135.432H208.593C208.948 135.432 209.223 135.343 209.419 135.166C209.615 134.979 209.713 134.713 209.713 134.368V133.892C209.713 133.547 209.615 133.281 209.419 133.094C209.223 132.907 208.948 132.814 208.593 132.814H206.017V135.432ZM206.017 131.302H208.299C208.635 131.302 208.897 131.213 209.083 131.036C209.27 130.849 209.363 130.593 209.363 130.266V129.832C209.363 129.505 209.27 129.253 209.083 129.076C208.897 128.889 208.635 128.796 208.299 128.796H206.017V131.302ZM213.453 137V127.228H215.301V135.362H219.151V137H213.453ZM220.753 137V127.228H227.193V128.866H222.601V131.232H226.661V132.87H222.601V135.362H227.193V137H220.753ZM124.916 153.168C124.076 153.168 123.362 153.019 122.774 152.72C122.196 152.421 121.696 152.029 121.276 151.544L122.522 150.34C122.858 150.732 123.232 151.031 123.642 151.236C124.062 151.441 124.524 151.544 125.028 151.544C125.598 151.544 126.027 151.423 126.316 151.18C126.606 150.928 126.75 150.592 126.75 150.172C126.75 149.845 126.657 149.579 126.47 149.374C126.284 149.169 125.934 149.019 125.42 148.926L124.496 148.786C122.546 148.478 121.57 147.531 121.57 145.944C121.57 145.505 121.65 145.109 121.808 144.754C121.976 144.399 122.214 144.096 122.522 143.844C122.83 143.592 123.199 143.401 123.628 143.27C124.067 143.13 124.562 143.06 125.112 143.06C125.85 143.06 126.494 143.181 127.044 143.424C127.595 143.667 128.066 144.026 128.458 144.502L127.198 145.692C126.956 145.393 126.662 145.151 126.316 144.964C125.971 144.777 125.537 144.684 125.014 144.684C124.482 144.684 124.081 144.787 123.81 144.992C123.549 145.188 123.418 145.468 123.418 145.832C123.418 146.205 123.526 146.481 123.74 146.658C123.955 146.835 124.3 146.966 124.776 147.05L125.686 147.218C126.676 147.395 127.404 147.713 127.87 148.17C128.346 148.618 128.584 149.248 128.584 150.06C128.584 150.527 128.5 150.951 128.332 151.334C128.174 151.707 127.936 152.034 127.618 152.314C127.31 152.585 126.928 152.795 126.47 152.944C126.022 153.093 125.504 153.168 124.916 153.168ZM132.187 143.228V149.234C132.187 149.999 132.332 150.573 132.621 150.956C132.92 151.339 133.419 151.53 134.119 151.53C134.819 151.53 135.314 151.339 135.603 150.956C135.902 150.573 136.051 149.999 136.051 149.234V143.228H137.871V148.996C137.871 149.715 137.801 150.335 137.661 150.858C137.53 151.381 137.316 151.815 137.017 152.16C136.718 152.505 136.326 152.762 135.841 152.93C135.365 153.089 134.786 153.168 134.105 153.168C133.414 153.168 132.831 153.089 132.355 152.93C131.888 152.762 131.506 152.505 131.207 152.16C130.908 151.815 130.694 151.381 130.563 150.858C130.432 150.335 130.367 149.715 130.367 148.996V143.228H132.187ZM141.951 153H140.103V143.228H144.513C144.961 143.228 145.362 143.298 145.717 143.438C146.072 143.578 146.37 143.783 146.613 144.054C146.865 144.315 147.056 144.633 147.187 145.006C147.327 145.379 147.397 145.795 147.397 146.252C147.397 146.924 147.243 147.503 146.935 147.988C146.636 148.473 146.184 148.819 145.577 149.024L147.579 153H145.521L143.701 149.234H141.951V153ZM144.331 147.68C144.686 147.68 144.966 147.587 145.171 147.4C145.376 147.204 145.479 146.929 145.479 146.574V145.93C145.479 145.575 145.376 145.305 145.171 145.118C144.966 144.931 144.686 144.838 144.331 144.838H141.951V147.68H144.331ZM152.709 153V143.228H154.557V151.362H158.407V153H152.709ZM160.009 153V143.228H166.449V144.866H161.857V147.232H165.917V148.87H161.857V151.362H166.449V153H160.009ZM179.09 145.986H179.034L178.278 147.54L176.276 151.236L174.274 147.54L173.518 145.986H173.462V153H171.712V143.228H173.798L176.304 148.002H176.36L178.838 143.228H180.84V153H179.09V145.986ZM189.19 153L188.406 150.508H184.934L184.164 153H182.288L185.564 143.228H187.86L191.108 153H189.19ZM186.698 144.908H186.628L185.382 148.926H187.958L186.698 144.908ZM194.396 153H192.548V143.228H196.958C197.406 143.228 197.808 143.298 198.162 143.438C198.517 143.578 198.816 143.783 199.058 144.054C199.31 144.315 199.502 144.633 199.632 145.006C199.772 145.379 199.842 145.795 199.842 146.252C199.842 146.924 199.688 147.503 199.38 147.988C199.082 148.473 198.629 148.819 198.022 149.024L200.024 153H197.966L196.146 149.234H194.396V153ZM196.776 147.68C197.131 147.68 197.411 147.587 197.616 147.4C197.822 147.204 197.924 146.929 197.924 146.574V145.93C197.924 145.575 197.822 145.305 197.616 145.118C197.411 144.931 197.131 144.838 196.776 144.838H194.396V147.68H196.776ZM205.503 153.168C204.859 153.168 204.275 153.065 203.753 152.86C203.239 152.645 202.796 152.328 202.423 151.908C202.059 151.488 201.779 150.97 201.583 150.354C201.387 149.729 201.289 149.005 201.289 148.184C201.289 147.363 201.387 146.635 201.583 146C201.779 145.356 202.059 144.819 202.423 144.39C202.796 143.951 203.239 143.62 203.753 143.396C204.275 143.172 204.859 143.06 205.503 143.06C206.38 143.06 207.108 143.247 207.687 143.62C208.265 143.993 208.727 144.558 209.073 145.314L207.491 146.154C207.351 145.715 207.122 145.365 206.805 145.104C206.487 144.833 206.053 144.698 205.503 144.698C204.812 144.698 204.261 144.931 203.851 145.398C203.449 145.865 203.249 146.518 203.249 147.358V148.898C203.249 149.747 203.449 150.401 203.851 150.858C204.261 151.306 204.812 151.53 205.503 151.53C206.053 151.53 206.501 151.381 206.847 151.082C207.201 150.783 207.458 150.415 207.617 149.976L209.115 150.858C208.76 151.586 208.289 152.155 207.701 152.566C207.113 152.967 206.38 153.168 205.503 153.168ZM216.613 148.87H212.539V153H210.691V143.228H212.539V147.232H216.613V143.228H218.461V153H216.613V148.87ZM220.753 153V143.228H227.193V144.866H222.601V147.232H226.661V148.87H222.601V151.362H227.193V153H220.753ZM224.155 142.584L223.077 142.052L224.407 139.434L225.919 140.19L224.155 142.584Z" fill="#41637D"/>
<line x1="267.254" y1="0.963867" x2="267.254" y2="190.964" stroke="#41637D"/>
<line x1="376.375" y1="0.963867" x2="376.375" y2="190.964" stroke="#41637D"/>
<line x1="485.5" y1="0.963867" x2="485.5" y2="190.964" stroke="#41637D"/>
</svg>
