<svg width="296" height="216" viewBox="0 0 296 216" fill="none" xmlns="http://www.w3.org/2000/svg">
<path d="M188.901 212.144C188.365 212.144 187.901 212.048 187.509 211.856C187.117 211.656 186.793 211.372 186.537 211.004C186.281 210.636 186.089 210.184 185.961 209.648C185.841 209.112 185.781 208.5 185.781 207.812C185.781 207.132 185.841 206.524 185.961 205.988C186.089 205.444 186.281 204.988 186.537 204.62C186.793 204.252 187.117 203.972 187.509 203.78C187.901 203.58 188.365 203.48 188.901 203.48C189.965 203.48 190.749 203.86 191.253 204.62C191.765 205.38 192.021 206.444 192.021 207.812C192.021 209.18 191.765 210.244 191.253 211.004C190.749 211.764 189.965 212.144 188.901 212.144ZM188.901 210.812C189.437 210.812 189.809 210.612 190.017 210.212C190.233 209.804 190.341 209.256 190.341 208.568V207.056C190.341 206.368 190.233 205.824 190.017 205.424C189.809 205.016 189.437 204.812 188.901 204.812C188.365 204.812 187.989 205.016 187.773 205.424C187.565 205.824 187.461 206.368 187.461 207.056V208.568C187.461 209.256 187.565 209.804 187.773 210.212C187.989 210.612 188.365 210.812 188.901 210.812ZM194.656 212L200.464 203.624H201.856L196.048 212H194.656ZM195.232 208.232C194.552 208.232 194.032 208.032 193.672 207.632C193.32 207.224 193.144 206.632 193.144 205.856C193.144 205.08 193.32 204.492 193.672 204.092C194.032 203.684 194.552 203.48 195.232 203.48C195.912 203.48 196.428 203.684 196.78 204.092C197.132 204.492 197.308 205.08 197.308 205.856C197.308 206.632 197.132 207.224 196.78 207.632C196.428 208.032 195.912 208.232 195.232 208.232ZM195.232 207.32C195.728 207.32 195.976 206.94 195.976 206.18V205.532C195.976 204.772 195.728 204.392 195.232 204.392C194.736 204.392 194.488 204.772 194.488 205.532V206.18C194.488 206.94 194.736 207.32 195.232 207.32ZM201.28 212.144C200.608 212.144 200.092 211.944 199.732 211.544C199.38 211.136 199.204 210.544 199.204 209.768C199.204 208.992 199.38 208.404 199.732 208.004C200.092 207.596 200.608 207.392 201.28 207.392C201.96 207.392 202.476 207.596 202.828 208.004C203.188 208.404 203.368 208.992 203.368 209.768C203.368 210.544 203.188 211.136 202.828 211.544C202.476 211.944 201.96 212.144 201.28 212.144ZM201.28 211.232C201.776 211.232 202.024 210.852 202.024 210.092V209.444C202.024 208.684 201.776 208.304 201.28 208.304C200.784 208.304 200.536 208.684 200.536 209.444V210.092C200.536 210.852 200.784 211.232 201.28 211.232Z" fill="#41637D"/>
<path d="M229.276 204.992H225.508L225.316 207.8H225.4C225.488 207.624 225.584 207.46 225.688 207.308C225.792 207.156 225.912 207.028 226.048 206.924C226.184 206.82 226.34 206.74 226.516 206.684C226.7 206.62 226.92 206.588 227.176 206.588C227.536 206.588 227.872 206.648 228.184 206.768C228.496 206.888 228.764 207.064 228.988 207.296C229.22 207.52 229.4 207.796 229.528 208.124C229.664 208.452 229.732 208.824 229.732 209.24C229.732 209.664 229.664 210.052 229.528 210.404C229.392 210.756 229.192 211.064 228.928 211.328C228.664 211.584 228.34 211.784 227.956 211.928C227.572 212.072 227.132 212.144 226.636 212.144C226.252 212.144 225.908 212.1 225.604 212.012C225.3 211.932 225.032 211.82 224.8 211.676C224.568 211.532 224.368 211.368 224.2 211.184C224.032 210.992 223.884 210.792 223.756 210.584L224.908 209.696C225.004 209.856 225.104 210.008 225.208 210.152C225.312 210.288 225.432 210.408 225.568 210.512C225.712 210.616 225.868 210.7 226.036 210.764C226.212 210.82 226.416 210.848 226.648 210.848C227.12 210.848 227.476 210.716 227.716 210.452C227.964 210.188 228.088 209.828 228.088 209.372V209.276C228.088 208.844 227.964 208.504 227.716 208.256C227.468 208.008 227.124 207.884 226.684 207.884C226.34 207.884 226.06 207.952 225.844 208.088C225.628 208.216 225.456 208.356 225.328 208.508L224.032 208.328L224.344 203.624H229.276V204.992ZM233.891 212.144C233.355 212.144 232.891 212.048 232.499 211.856C232.107 211.656 231.783 211.372 231.527 211.004C231.271 210.636 231.079 210.184 230.951 209.648C230.831 209.112 230.771 208.5 230.771 207.812C230.771 207.132 230.831 206.524 230.951 205.988C231.079 205.444 231.271 204.988 231.527 204.62C231.783 204.252 232.107 203.972 232.499 203.78C232.891 203.58 233.355 203.48 233.891 203.48C234.955 203.48 235.739 203.86 236.243 204.62C236.755 205.38 237.011 206.444 237.011 207.812C237.011 209.18 236.755 210.244 236.243 211.004C235.739 211.764 234.955 212.144 233.891 212.144ZM233.891 210.812C234.427 210.812 234.799 210.612 235.007 210.212C235.223 209.804 235.331 209.256 235.331 208.568V207.056C235.331 206.368 235.223 205.824 235.007 205.424C234.799 205.016 234.427 204.812 233.891 204.812C233.355 204.812 232.979 205.016 232.763 205.424C232.555 205.824 232.451 206.368 232.451 207.056V208.568C232.451 209.256 232.555 209.804 232.763 210.212C232.979 210.612 233.355 210.812 233.891 210.812ZM239.646 212L245.454 203.624H246.846L241.038 212H239.646ZM240.222 208.232C239.542 208.232 239.022 208.032 238.662 207.632C238.31 207.224 238.134 206.632 238.134 205.856C238.134 205.08 238.31 204.492 238.662 204.092C239.022 203.684 239.542 203.48 240.222 203.48C240.902 203.48 241.418 203.684 241.77 204.092C242.122 204.492 242.298 205.08 242.298 205.856C242.298 206.632 242.122 207.224 241.77 207.632C241.418 208.032 240.902 208.232 240.222 208.232ZM240.222 207.32C240.718 207.32 240.966 206.94 240.966 206.18V205.532C240.966 204.772 240.718 204.392 240.222 204.392C239.726 204.392 239.478 204.772 239.478 205.532V206.18C239.478 206.94 239.726 207.32 240.222 207.32ZM246.27 212.144C245.598 212.144 245.082 211.944 244.722 211.544C244.37 211.136 244.194 210.544 244.194 209.768C244.194 208.992 244.37 208.404 244.722 208.004C245.082 207.596 245.598 207.392 246.27 207.392C246.95 207.392 247.466 207.596 247.818 208.004C248.178 208.404 248.358 208.992 248.358 209.768C248.358 210.544 248.178 211.136 247.818 211.544C247.466 211.944 246.95 212.144 246.27 212.144ZM246.27 211.232C246.766 211.232 247.014 210.852 247.014 210.092V209.444C247.014 208.684 246.766 208.304 246.27 208.304C245.774 208.304 245.526 208.684 245.526 209.444V210.092C245.526 210.852 245.774 211.232 246.27 211.232Z" fill="#41637D"/>
<path d="M262.823 212V210.716H265.127V204.764H265.019L263.195 206.924L262.211 206.096L264.287 203.624H266.675V210.716H268.595V212H262.823ZM272.527 212.144C271.991 212.144 271.527 212.048 271.135 211.856C270.743 211.656 270.419 211.372 270.163 211.004C269.907 210.636 269.715 210.184 269.587 209.648C269.467 209.112 269.407 208.5 269.407 207.812C269.407 207.132 269.467 206.524 269.587 205.988C269.715 205.444 269.907 204.988 270.163 204.62C270.419 204.252 270.743 203.972 271.135 203.78C271.527 203.58 271.991 203.48 272.527 203.48C273.591 203.48 274.375 203.86 274.879 204.62C275.391 205.38 275.647 206.444 275.647 207.812C275.647 209.18 275.391 210.244 274.879 211.004C274.375 211.764 273.591 212.144 272.527 212.144ZM272.527 210.812C273.063 210.812 273.435 210.612 273.643 210.212C273.859 209.804 273.967 209.256 273.967 208.568V207.056C273.967 206.368 273.859 205.824 273.643 205.424C273.435 205.016 273.063 204.812 272.527 204.812C271.991 204.812 271.615 205.016 271.399 205.424C271.191 205.824 271.087 206.368 271.087 207.056V208.568C271.087 209.256 271.191 209.804 271.399 210.212C271.615 210.612 271.991 210.812 272.527 210.812ZM279.722 212.144C279.186 212.144 278.722 212.048 278.33 211.856C277.938 211.656 277.614 211.372 277.358 211.004C277.102 210.636 276.91 210.184 276.782 209.648C276.662 209.112 276.602 208.5 276.602 207.812C276.602 207.132 276.662 206.524 276.782 205.988C276.91 205.444 277.102 204.988 277.358 204.62C277.614 204.252 277.938 203.972 278.33 203.78C278.722 203.58 279.186 203.48 279.722 203.48C280.786 203.48 281.57 203.86 282.074 204.62C282.586 205.38 282.842 206.444 282.842 207.812C282.842 209.18 282.586 210.244 282.074 211.004C281.57 211.764 280.786 212.144 279.722 212.144ZM279.722 210.812C280.258 210.812 280.63 210.612 280.838 210.212C281.054 209.804 281.162 209.256 281.162 208.568V207.056C281.162 206.368 281.054 205.824 280.838 205.424C280.63 205.016 280.258 204.812 279.722 204.812C279.186 204.812 278.81 205.016 278.594 205.424C278.386 205.824 278.282 206.368 278.282 207.056V208.568C278.282 209.256 278.386 209.804 278.594 210.212C278.81 210.612 279.186 210.812 279.722 210.812ZM285.477 212L291.285 203.624H292.677L286.869 212H285.477ZM286.053 208.232C285.373 208.232 284.853 208.032 284.493 207.632C284.141 207.224 283.965 206.632 283.965 205.856C283.965 205.08 284.141 204.492 284.493 204.092C284.853 203.684 285.373 203.48 286.053 203.48C286.733 203.48 287.249 203.684 287.601 204.092C287.953 204.492 288.129 205.08 288.129 205.856C288.129 206.632 287.953 207.224 287.601 207.632C287.249 208.032 286.733 208.232 286.053 208.232ZM286.053 207.32C286.549 207.32 286.797 206.94 286.797 206.18V205.532C286.797 204.772 286.549 204.392 286.053 204.392C285.557 204.392 285.309 204.772 285.309 205.532V206.18C285.309 206.94 285.557 207.32 286.053 207.32ZM292.101 212.144C291.429 212.144 290.913 211.944 290.553 211.544C290.201 211.136 290.025 210.544 290.025 209.768C290.025 208.992 290.201 208.404 290.553 208.004C290.913 207.596 291.429 207.392 292.101 207.392C292.781 207.392 293.297 207.596 293.649 208.004C294.009 208.404 294.189 208.992 294.189 209.768C294.189 210.544 294.009 211.136 293.649 211.544C293.297 211.944 292.781 212.144 292.101 212.144ZM292.101 211.232C292.597 211.232 292.845 210.852 292.845 210.092V209.444C292.845 208.684 292.597 208.304 292.101 208.304C291.605 208.304 291.357 208.684 291.357 209.444V210.092C291.357 210.852 291.605 211.232 292.101 211.232Z" fill="#41637D"/>
<line opacity="0.2" x1="203.358" y1="1.64788e-08" x2="203.358" y2="190" stroke="#41637D" stroke-width="0.839895"/>
<line opacity="0.2" x1="245.354" y1="1.64788e-08" x2="245.354" y2="190" stroke="#41637D" stroke-width="0.839895"/>
<line opacity="0.2" x1="211.758" y1="1.64788e-08" x2="211.758" y2="190" stroke="#41637D" stroke-width="0.839895"/>
<line opacity="0.2" x1="253.752" y1="1.64788e-08" x2="253.752" y2="190" stroke="#41637D" stroke-width="0.839895"/>
<line opacity="0.2" x1="220.156" y1="1.64788e-08" x2="220.156" y2="190" stroke="#41637D" stroke-width="0.839895"/>
<line opacity="0.2" x1="262.151" y1="1.64788e-08" x2="262.151" y2="190" stroke="#41637D" stroke-width="0.839895"/>
<line opacity="0.2" x1="228.556" y1="1.64788e-08" x2="228.556" y2="190" stroke="#41637D" stroke-width="0.839895"/>
<line opacity="0.2" x1="270.55" y1="1.64788e-08" x2="270.55" y2="190" stroke="#41637D" stroke-width="0.839895"/>
<rect x="194.539" width="83.9895" height="16.7979" fill="#EDEDED"/>
<rect x="195.486" width="66" height="17" fill="#1084DD"/>
<path d="M53.0758 13V4.624H58.5958V6.028H54.6598V8.056H58.1398V9.46H54.6598V11.596H58.5958V13H53.0758ZM66.9311 13H65.0831L63.1631 9.784H63.1271L61.2311 13H59.5031L62.2151 8.704L59.6231 4.624H61.4711L63.2471 7.6H63.2831L65.0831 4.624H66.8111L64.1951 8.704L66.9311 13ZM71.4224 6.028V13H69.8384V6.028H67.4624V4.624H73.7984V6.028H71.4224ZM76.6793 13H75.0953V4.624H78.8753C79.2593 4.624 79.6033 4.684 79.9073 4.804C80.2113 4.924 80.4673 5.1 80.6753 5.332C80.8913 5.556 81.0553 5.828 81.1673 6.148C81.2873 6.468 81.3473 6.824 81.3473 7.216C81.3473 7.792 81.2153 8.288 80.9513 8.704C80.6953 9.12 80.3073 9.416 79.7873 9.592L81.5033 13H79.7393L78.1793 9.772H76.6793V13ZM78.7193 8.44C79.0233 8.44 79.2633 8.36 79.4393 8.2C79.6153 8.032 79.7033 7.796 79.7033 7.492V6.94C79.7033 6.636 79.6153 6.404 79.4393 6.244C79.2633 6.084 79.0233 6.004 78.7193 6.004H76.6793V8.44H78.7193ZM88.2481 13L87.5761 10.864H84.6001L83.9401 13H82.3321L85.1401 4.624H87.1081L89.8921 13H88.2481ZM86.1121 6.064H86.0521L84.9841 9.508H87.1921L86.1121 6.064ZM94.0622 13.144C93.5102 13.144 93.0102 13.056 92.5622 12.88C92.1222 12.696 91.7422 12.424 91.4222 12.064C91.1102 11.704 90.8702 11.26 90.7022 10.732C90.5342 10.196 90.4502 9.576 90.4502 8.872C90.4502 8.168 90.5342 7.544 90.7022 7C90.8702 6.448 91.1102 5.988 91.4222 5.62C91.7422 5.244 92.1222 4.96 92.5622 4.768C93.0102 4.576 93.5102 4.48 94.0622 4.48C94.8142 4.48 95.4382 4.64 95.9342 4.96C96.4302 5.28 96.8262 5.764 97.1222 6.412L95.7662 7.132C95.6462 6.756 95.4502 6.456 95.1782 6.232C94.9062 6 94.5342 5.884 94.0622 5.884C93.4702 5.884 92.9982 6.084 92.6462 6.484C92.3022 6.884 92.1302 7.444 92.1302 8.164V9.484C92.1302 10.212 92.3022 10.772 92.6462 11.164C92.9982 11.548 93.4702 11.74 94.0622 11.74C94.5342 11.74 94.9182 11.612 95.2142 11.356C95.5182 11.1 95.7382 10.784 95.8742 10.408L97.1582 11.164C96.8542 11.788 96.4502 12.276 95.9462 12.628C95.4422 12.972 94.8142 13.144 94.0622 13.144ZM101.797 6.028V13H100.213V6.028H97.8374V4.624H104.173V6.028H101.797ZM105.064 13V11.728H106.168V5.896H105.064V4.624H108.868V5.896H107.752V11.728H108.868V13H105.064ZM113.774 13.144C113.222 13.144 112.722 13.052 112.274 12.868C111.826 12.684 111.442 12.408 111.122 12.04C110.81 11.672 110.566 11.22 110.39 10.684C110.214 10.148 110.126 9.524 110.126 8.812C110.126 8.108 110.214 7.488 110.39 6.952C110.566 6.408 110.81 5.952 111.122 5.584C111.442 5.216 111.826 4.94 112.274 4.756C112.722 4.572 113.222 4.48 113.774 4.48C114.326 4.48 114.826 4.572 115.274 4.756C115.722 4.94 116.106 5.216 116.426 5.584C116.746 5.952 116.99 6.408 117.158 6.952C117.334 7.488 117.422 8.108 117.422 8.812C117.422 9.524 117.334 10.148 117.158 10.684C116.99 11.22 116.746 11.672 116.426 12.04C116.106 12.408 115.722 12.684 115.274 12.868C114.826 13.052 114.326 13.144 113.774 13.144ZM113.774 11.74C114.374 11.74 114.85 11.54 115.202 11.14C115.562 10.74 115.742 10.18 115.742 9.46V8.164C115.742 7.444 115.562 6.884 115.202 6.484C114.85 6.084 114.374 5.884 113.774 5.884C113.174 5.884 112.694 6.084 112.334 6.484C111.982 6.884 111.806 7.444 111.806 8.164V9.46C111.806 10.18 111.982 10.74 112.334 11.14C112.694 11.54 113.174 11.74 113.774 11.74ZM121.429 8.704L120.565 6.964H120.529V13H119.029V4.624H120.769L123.289 8.92L124.153 10.66H124.189V4.624H125.689V13H123.949L121.429 8.704ZM130.49 13V4.624H134.258C134.642 4.624 134.986 4.688 135.29 4.816C135.602 4.936 135.866 5.112 136.082 5.344C136.298 5.568 136.462 5.84 136.574 6.16C136.686 6.48 136.742 6.832 136.742 7.216C136.742 7.608 136.686 7.964 136.574 8.284C136.462 8.596 136.298 8.868 136.082 9.1C135.866 9.324 135.602 9.5 135.29 9.628C134.986 9.748 134.642 9.808 134.258 9.808H132.074V13H130.49ZM132.074 8.44H134.114C134.418 8.44 134.658 8.36 134.834 8.2C135.01 8.032 135.098 7.796 135.098 7.492V6.94C135.098 6.636 135.01 6.404 134.834 6.244C134.658 6.084 134.418 6.004 134.114 6.004H132.074V8.44ZM137.829 13V11.728H138.933V5.896H137.829V4.624H141.633V5.896H140.517V11.728H141.633V13H137.829ZM143.252 13V4.624H144.836V11.596H148.136V13H143.252ZM152.352 13.144C151.8 13.144 151.3 13.052 150.852 12.868C150.404 12.684 150.02 12.408 149.7 12.04C149.388 11.672 149.144 11.22 148.968 10.684C148.792 10.148 148.704 9.524 148.704 8.812C148.704 8.108 148.792 7.488 148.968 6.952C149.144 6.408 149.388 5.952 149.7 5.584C150.02 5.216 150.404 4.94 150.852 4.756C151.3 4.572 151.8 4.48 152.352 4.48C152.904 4.48 153.404 4.572 153.852 4.756C154.3 4.94 154.684 5.216 155.004 5.584C155.324 5.952 155.568 6.408 155.736 6.952C155.912 7.488 156 8.108 156 8.812C156 9.524 155.912 10.148 155.736 10.684C155.568 11.22 155.324 11.672 155.004 12.04C154.684 12.408 154.3 12.684 153.852 12.868C153.404 13.052 152.904 13.144 152.352 13.144ZM152.352 11.74C152.952 11.74 153.428 11.54 153.78 11.14C154.14 10.74 154.32 10.18 154.32 9.46V8.164C154.32 7.444 154.14 6.884 153.78 6.484C153.428 6.084 152.952 5.884 152.352 5.884C151.752 5.884 151.272 6.084 150.912 6.484C150.56 6.884 150.384 7.444 150.384 8.164V9.46C150.384 10.18 150.56 10.74 150.912 11.14C151.272 11.54 151.752 11.74 152.352 11.74ZM160.602 6.028V13H159.018V6.028H156.642V4.624H162.978V6.028H160.602ZM164.275 13V4.624H169.795V6.028H165.859V8.056H169.339V9.46H165.859V11.596H169.795V13H164.275Z" fill="#41637D"/>
<rect x="194.539" y="41" width="83.9895" height="16.7979" fill="#EDEDED"/>
<rect x="194.486" y="41" width="69" height="17" fill="#39A4F5"/>
<rect x="194.486" y="41" width="51" height="17" fill="#1084DD"/>
<path d="M18.9274 54.0005V45.6245H22.6954C23.0794 45.6245 23.4234 45.6885 23.7274 45.8165C24.0394 45.9365 24.3034 46.1125 24.5194 46.3445C24.7354 46.5685 24.8994 46.8405 25.0114 47.1605C25.1234 47.4805 25.1794 47.8325 25.1794 48.2165C25.1794 48.6085 25.1234 48.9645 25.0114 49.2845C24.8994 49.5965 24.7354 49.8685 24.5194 50.1005C24.3034 50.3245 24.0394 50.5005 23.7274 50.6285C23.4234 50.7485 23.0794 50.8085 22.6954 50.8085H20.5114V54.0005H18.9274ZM20.5114 49.4405H22.5514C22.8554 49.4405 23.0954 49.3605 23.2714 49.2005C23.4474 49.0325 23.5354 48.7965 23.5354 48.4925V47.9405C23.5354 47.6365 23.4474 47.4045 23.2714 47.2445C23.0954 47.0845 22.8554 47.0045 22.5514 47.0045H20.5114V49.4405ZM29.9029 54.1445C29.3509 54.1445 28.8509 54.0525 28.4029 53.8685C27.9549 53.6845 27.5709 53.4085 27.2509 53.0405C26.9389 52.6725 26.6949 52.2205 26.5189 51.6845C26.3429 51.1485 26.2549 50.5245 26.2549 49.8125C26.2549 49.1085 26.3429 48.4885 26.5189 47.9525C26.6949 47.4085 26.9389 46.9525 27.2509 46.5845C27.5709 46.2165 27.9549 45.9405 28.4029 45.7565C28.8509 45.5725 29.3509 45.4805 29.9029 45.4805C30.4549 45.4805 30.9549 45.5725 31.4029 45.7565C31.8509 45.9405 32.2349 46.2165 32.5549 46.5845C32.8749 46.9525 33.1189 47.4085 33.2869 47.9525C33.4629 48.4885 33.5509 49.1085 33.5509 49.8125C33.5509 50.5245 33.4629 51.1485 33.2869 51.6845C33.1189 52.2205 32.8749 52.6725 32.5549 53.0405C32.2349 53.4085 31.8509 53.6845 31.4029 53.8685C30.9549 54.0525 30.4549 54.1445 29.9029 54.1445ZM29.9029 52.7405C30.5029 52.7405 30.9789 52.5405 31.3309 52.1405C31.6909 51.7405 31.8709 51.1805 31.8709 50.4605V49.1645C31.8709 48.4445 31.6909 47.8845 31.3309 47.4845C30.9789 47.0845 30.5029 46.8845 29.9029 46.8845C29.3029 46.8845 28.8229 47.0845 28.4629 47.4845C28.1109 47.8845 27.9349 48.4445 27.9349 49.1645V50.4605C27.9349 51.1805 28.1109 51.7405 28.4629 52.1405C28.8229 52.5405 29.3029 52.7405 29.9029 52.7405ZM37.7267 54.1445C37.0067 54.1445 36.3947 54.0165 35.8907 53.7605C35.3947 53.5045 34.9667 53.1685 34.6067 52.7525L35.6747 51.7205C35.9627 52.0565 36.2827 52.3125 36.6347 52.4885C36.9947 52.6645 37.3907 52.7525 37.8227 52.7525C38.3107 52.7525 38.6787 52.6485 38.9267 52.4405C39.1747 52.2245 39.2987 51.9365 39.2987 51.5765C39.2987 51.2965 39.2187 51.0685 39.0587 50.8925C38.8987 50.7165 38.5987 50.5885 38.1587 50.5085L37.3667 50.3885C35.6947 50.1245 34.8587 49.3125 34.8587 47.9525C34.8587 47.5765 34.9267 47.2365 35.0627 46.9325C35.2067 46.6285 35.4107 46.3685 35.6747 46.1525C35.9387 45.9365 36.2547 45.7725 36.6227 45.6605C36.9987 45.5405 37.4227 45.4805 37.8947 45.4805C38.5267 45.4805 39.0787 45.5845 39.5507 45.7925C40.0227 46.0005 40.4267 46.3085 40.7627 46.7165L39.6827 47.7365C39.4747 47.4805 39.2227 47.2725 38.9267 47.1125C38.6307 46.9525 38.2587 46.8725 37.8107 46.8725C37.3547 46.8725 37.0107 46.9605 36.7787 47.1365C36.5547 47.3045 36.4427 47.5445 36.4427 47.8565C36.4427 48.1765 36.5347 48.4125 36.7187 48.5645C36.9027 48.7165 37.1987 48.8285 37.6067 48.9005L38.3867 49.0445C39.2347 49.1965 39.8587 49.4685 40.2587 49.8605C40.6667 50.2445 40.8707 50.7845 40.8707 51.4805C40.8707 51.8805 40.7987 52.2445 40.6547 52.5725C40.5187 52.8925 40.3147 53.1725 40.0427 53.4125C39.7787 53.6445 39.4507 53.8245 39.0587 53.9525C38.6747 54.0805 38.2307 54.1445 37.7267 54.1445ZM45.5122 47.0285V54.0005H43.9282V47.0285H41.5522V45.6245H47.8882V47.0285H45.5122ZM48.3464 51.1085V49.5845H51.7784V51.1085H48.3464ZM56.1997 47.0285V54.0005H54.6157V47.0285H52.2397V45.6245H58.5757V47.0285H56.1997ZM61.4567 54.0005H59.8727V45.6245H63.6527C64.0367 45.6245 64.3807 45.6845 64.6847 45.8045C64.9887 45.9245 65.2447 46.1005 65.4527 46.3325C65.6687 46.5565 65.8327 46.8285 65.9447 47.1485C66.0647 47.4685 66.1247 47.8245 66.1247 48.2165C66.1247 48.7925 65.9927 49.2885 65.7287 49.7045C65.4727 50.1205 65.0847 50.4165 64.5647 50.5925L66.2807 54.0005H64.5167L62.9567 50.7725H61.4567V54.0005ZM63.4967 49.4405C63.8007 49.4405 64.0407 49.3605 64.2167 49.2005C64.3927 49.0325 64.4807 48.7965 64.4807 48.4925V47.9405C64.4807 47.6365 64.3927 47.4045 64.2167 47.2445C64.0407 47.0845 63.8007 47.0045 63.4967 47.0045H61.4567V49.4405H63.4967ZM73.0254 54.0005L72.3534 51.8645H69.3774L68.7174 54.0005H67.1094L69.9174 45.6245H71.8854L74.6694 54.0005H73.0254ZM70.8894 47.0645H70.8294L69.7614 50.5085H71.9694L70.8894 47.0645ZM75.5559 54.0005V52.7285H76.6599V46.8965H75.5559V45.6245H79.3599V46.8965H78.2439V52.7285H79.3599V54.0005H75.5559ZM84.2075 47.0285V54.0005H82.6235V47.0285H80.2475V45.6245H86.5835V47.0285H84.2075ZM87.8805 54.0005V45.6245H93.4005V47.0285H89.4645V49.0565H92.9445V50.4605H89.4645V52.5965H93.4005V54.0005H87.8805ZM101.4 47.9885H101.352L100.704 49.3205L98.9878 52.4885L97.2718 49.3205L96.6238 47.9885H96.5758V54.0005H95.0758V45.6245H96.8638L99.0118 49.7165H99.0598L101.184 45.6245H102.9V54.0005H101.4V47.9885ZM104.873 54.0005V45.6245H110.393V47.0285H106.457V49.0565H109.937V50.4605H106.457V52.5965H110.393V54.0005H104.873ZM114.468 49.7045L113.604 47.9645H113.568V54.0005H112.068V45.6245H113.808L116.328 49.9205L117.192 51.6605H117.228V45.6245H118.728V54.0005H116.988L114.468 49.7045ZM123.981 47.0285V54.0005H122.397V47.0285H120.021V45.6245H126.357V47.0285H123.981ZM130.49 54.0005V45.6245H134.258C134.642 45.6245 134.986 45.6885 135.29 45.8165C135.602 45.9365 135.866 46.1125 136.082 46.3445C136.298 46.5685 136.462 46.8405 136.574 47.1605C136.686 47.4805 136.742 47.8325 136.742 48.2165C136.742 48.6085 136.686 48.9645 136.574 49.2845C136.462 49.5965 136.298 49.8685 136.082 50.1005C135.866 50.3245 135.602 50.5005 135.29 50.6285C134.986 50.7485 134.642 50.8085 134.258 50.8085H132.074V54.0005H130.49ZM132.074 49.4405H134.114C134.418 49.4405 134.658 49.3605 134.834 49.2005C135.01 49.0325 135.098 48.7965 135.098 48.4925V47.9405C135.098 47.6365 135.01 47.4045 134.834 47.2445C134.658 47.0845 134.418 47.0045 134.114 47.0045H132.074V49.4405ZM137.829 54.0005V52.7285H138.933V46.8965H137.829V45.6245H141.633V46.8965H140.517V52.7285H141.633V54.0005H137.829ZM143.252 54.0005V45.6245H144.836V52.5965H148.136V54.0005H143.252ZM152.352 54.1445C151.8 54.1445 151.3 54.0525 150.852 53.8685C150.404 53.6845 150.02 53.4085 149.7 53.0405C149.388 52.6725 149.144 52.2205 148.968 51.6845C148.792 51.1485 148.704 50.5245 148.704 49.8125C148.704 49.1085 148.792 48.4885 148.968 47.9525C149.144 47.4085 149.388 46.9525 149.7 46.5845C150.02 46.2165 150.404 45.9405 150.852 45.7565C151.3 45.5725 151.8 45.4805 152.352 45.4805C152.904 45.4805 153.404 45.5725 153.852 45.7565C154.3 45.9405 154.684 46.2165 155.004 46.5845C155.324 46.9525 155.568 47.4085 155.736 47.9525C155.912 48.4885 156 49.1085 156 49.8125C156 50.5245 155.912 51.1485 155.736 51.6845C155.568 52.2205 155.324 52.6725 155.004 53.0405C154.684 53.4085 154.3 53.6845 153.852 53.8685C153.404 54.0525 152.904 54.1445 152.352 54.1445ZM152.352 52.7405C152.952 52.7405 153.428 52.5405 153.78 52.1405C154.14 51.7405 154.32 51.1805 154.32 50.4605V49.1645C154.32 48.4445 154.14 47.8845 153.78 47.4845C153.428 47.0845 152.952 46.8845 152.352 46.8845C151.752 46.8845 151.272 47.0845 150.912 47.4845C150.56 47.8845 150.384 48.4445 150.384 49.1645V50.4605C150.384 51.1805 150.56 51.7405 150.912 52.1405C151.272 52.5405 151.752 52.7405 152.352 52.7405ZM160.602 47.0285V54.0005H159.018V47.0285H156.642V45.6245H162.978V47.0285H160.602ZM164.275 54.0005V45.6245H169.795V47.0285H165.859V49.0565H169.339V50.4605H165.859V52.5965H169.795V54.0005H164.275Z" fill="#41637D"/>
<rect x="194.54" y="82" width="83.9895" height="16.7979" fill="#39A4F5"/>
<rect x="194.486" y="82" width="51" height="17" fill="#1084DD"/>
<path d="M9.27355 95.144C8.55355 95.144 7.94155 95.016 7.43755 94.76C6.94155 94.504 6.51355 94.168 6.15355 93.752L7.22155 92.72C7.50955 93.056 7.82955 93.312 8.18155 93.488C8.54155 93.664 8.93755 93.752 9.36955 93.752C9.85755 93.752 10.2255 93.648 10.4735 93.44C10.7215 93.224 10.8455 92.936 10.8455 92.576C10.8455 92.296 10.7655 92.068 10.6055 91.892C10.4455 91.716 10.1455 91.588 9.70555 91.508L8.91355 91.388C7.24155 91.124 6.40555 90.312 6.40555 88.952C6.40555 88.576 6.47355 88.236 6.60955 87.932C6.75355 87.628 6.95755 87.368 7.22155 87.152C7.48555 86.936 7.80155 86.772 8.16955 86.66C8.54555 86.54 8.96955 86.48 9.44155 86.48C10.0735 86.48 10.6255 86.584 11.0975 86.792C11.5695 87 11.9735 87.308 12.3095 87.716L11.2295 88.736C11.0215 88.48 10.7695 88.272 10.4735 88.112C10.1775 87.952 9.80555 87.872 9.35755 87.872C8.90155 87.872 8.55755 87.96 8.32555 88.136C8.10155 88.304 7.98955 88.544 7.98955 88.856C7.98955 89.176 8.08155 89.412 8.26555 89.564C8.44955 89.716 8.74555 89.828 9.15355 89.9L9.93355 90.044C10.7815 90.196 11.4055 90.468 11.8055 90.86C12.2135 91.244 12.4175 91.784 12.4175 92.48C12.4175 92.88 12.3455 93.244 12.2015 93.572C12.0655 93.892 11.8615 94.172 11.5895 94.412C11.3255 94.644 10.9975 94.824 10.6055 94.952C10.2215 95.08 9.77755 95.144 9.27355 95.144ZM17.2575 95.144C16.7055 95.144 16.2055 95.056 15.7575 94.88C15.3175 94.696 14.9375 94.424 14.6175 94.064C14.3055 93.704 14.0655 93.26 13.8975 92.732C13.7295 92.196 13.6455 91.576 13.6455 90.872C13.6455 90.168 13.7295 89.544 13.8975 89C14.0655 88.448 14.3055 87.988 14.6175 87.62C14.9375 87.244 15.3175 86.96 15.7575 86.768C16.2055 86.576 16.7055 86.48 17.2575 86.48C18.0095 86.48 18.6335 86.64 19.1295 86.96C19.6255 87.28 20.0215 87.764 20.3175 88.412L18.9615 89.132C18.8415 88.756 18.6455 88.456 18.3735 88.232C18.1015 88 17.7295 87.884 17.2575 87.884C16.6655 87.884 16.1935 88.084 15.8415 88.484C15.4975 88.884 15.3255 89.444 15.3255 90.164V91.484C15.3255 92.212 15.4975 92.772 15.8415 93.164C16.1935 93.548 16.6655 93.74 17.2575 93.74C17.7295 93.74 18.1135 93.612 18.4095 93.356C18.7135 93.1 18.9335 92.784 19.0695 92.408L20.3535 93.164C20.0495 93.788 19.6455 94.276 19.1415 94.628C18.6375 94.972 18.0095 95.144 17.2575 95.144ZM26.8184 95L26.1464 92.864H23.1704L22.5104 95H20.9024L23.7104 86.624H25.6784L28.4624 95H26.8184ZM24.6824 88.064H24.6224L23.5544 91.508H25.7624L24.6824 88.064ZM29.6969 95V86.624H31.2809V93.596H34.5809V95H29.6969ZM35.9547 95V86.624H41.4747V88.028H37.5387V90.056H41.0187V91.46H37.5387V93.596H41.4747V95H35.9547ZM42.862 92.108V90.584H46.294V92.108H42.862ZM49.4781 86.624V91.772C49.4781 92.428 49.6021 92.92 49.8501 93.248C50.1061 93.576 50.5341 93.74 51.1341 93.74C51.7341 93.74 52.1581 93.576 52.4061 93.248C52.6621 92.92 52.7901 92.428 52.7901 91.772V86.624H54.3501V91.568C54.3501 92.184 54.2901 92.716 54.1701 93.164C54.0581 93.612 53.8741 93.984 53.6181 94.28C53.3621 94.576 53.0261 94.796 52.6101 94.94C52.2021 95.076 51.7061 95.144 51.1221 95.144C50.5301 95.144 50.0301 95.076 49.6221 94.94C49.2221 94.796 48.8941 94.576 48.6381 94.28C48.3821 93.984 48.1981 93.612 48.0861 93.164C47.9741 92.716 47.9181 92.184 47.9181 91.568V86.624H49.4781ZM56.2633 95V86.624H60.0313C60.4153 86.624 60.7593 86.688 61.0633 86.816C61.3753 86.936 61.6393 87.112 61.8553 87.344C62.0713 87.568 62.2353 87.84 62.3473 88.16C62.4593 88.48 62.5153 88.832 62.5153 89.216C62.5153 89.608 62.4593 89.964 62.3473 90.284C62.2353 90.596 62.0713 90.868 61.8553 91.1C61.6393 91.324 61.3753 91.5 61.0633 91.628C60.7593 91.748 60.4153 91.808 60.0313 91.808H57.8473V95H56.2633ZM57.8473 90.44H59.8873C60.1913 90.44 60.4313 90.36 60.6073 90.2C60.7833 90.032 60.8713 89.796 60.8713 89.492V88.94C60.8713 88.636 60.7833 88.404 60.6073 88.244C60.4313 88.084 60.1913 88.004 59.8873 88.004H57.8473V90.44ZM66.7867 95V86.624H68.3707V93.596H71.6707V95H66.7867ZM78.4395 95L77.7675 92.864H74.7915L74.1315 95H72.5235L75.3315 86.624H77.2995L80.0835 95H78.4395ZM76.3035 88.064H76.2435L75.1755 91.508H77.3835L76.3035 88.064ZM81.318 86.624H85.194C85.538 86.624 85.846 86.676 86.118 86.78C86.398 86.884 86.634 87.028 86.826 87.212C87.018 87.396 87.162 87.624 87.258 87.896C87.362 88.16 87.414 88.452 87.414 88.772C87.414 89.092 87.37 89.364 87.282 89.588C87.202 89.804 87.09 89.984 86.946 90.128C86.81 90.272 86.65 90.38 86.466 90.452C86.29 90.524 86.106 90.564 85.914 90.572V90.644C86.098 90.644 86.294 90.68 86.502 90.752C86.718 90.824 86.914 90.94 87.09 91.1C87.274 91.252 87.426 91.452 87.546 91.7C87.666 91.94 87.726 92.24 87.726 92.6C87.726 92.936 87.67 93.252 87.558 93.548C87.454 93.836 87.306 94.088 87.114 94.304C86.922 94.52 86.694 94.692 86.43 94.82C86.166 94.94 85.878 95 85.566 95H81.318V86.624ZM82.902 93.656H85.11C85.414 93.656 85.65 93.58 85.818 93.428C85.986 93.268 86.07 93.04 86.07 92.744V92.336C86.07 92.04 85.986 91.812 85.818 91.652C85.65 91.492 85.414 91.412 85.11 91.412H82.902V93.656ZM82.902 90.116H84.858C85.146 90.116 85.37 90.04 85.53 89.888C85.69 89.728 85.77 89.508 85.77 89.228V88.856C85.77 88.576 85.69 88.36 85.53 88.208C85.37 88.048 85.146 87.968 84.858 87.968H82.902V90.116ZM92.563 95.144C92.011 95.144 91.511 95.052 91.063 94.868C90.615 94.684 90.231 94.408 89.911 94.04C89.599 93.672 89.355 93.22 89.179 92.684C89.003 92.148 88.915 91.524 88.915 90.812C88.915 90.108 89.003 89.488 89.179 88.952C89.355 88.408 89.599 87.952 89.911 87.584C90.231 87.216 90.615 86.94 91.063 86.756C91.511 86.572 92.011 86.48 92.563 86.48C93.115 86.48 93.615 86.572 94.063 86.756C94.511 86.94 94.895 87.216 95.215 87.584C95.535 87.952 95.779 88.408 95.947 88.952C96.123 89.488 96.211 90.108 96.211 90.812C96.211 91.524 96.123 92.148 95.947 92.684C95.779 93.22 95.535 93.672 95.215 94.04C94.895 94.408 94.511 94.684 94.063 94.868C93.615 95.052 93.115 95.144 92.563 95.144ZM92.563 93.74C93.163 93.74 93.639 93.54 93.991 93.14C94.351 92.74 94.531 92.18 94.531 91.46V90.164C94.531 89.444 94.351 88.884 93.991 88.484C93.639 88.084 93.163 87.884 92.563 87.884C91.963 87.884 91.483 88.084 91.123 88.484C90.771 88.884 90.595 89.444 90.595 90.164V91.46C90.595 92.18 90.771 92.74 91.123 93.14C91.483 93.54 91.963 93.74 92.563 93.74ZM100.306 95V93.728H101.41V87.896H100.306V86.624H104.11V87.896H102.994V93.728H104.11V95H100.306ZM108.128 90.704L107.264 88.964H107.228V95H105.728V86.624H107.468L109.988 90.92L110.852 92.66H110.888V86.624H112.388V95H110.648L108.128 90.704ZM114.353 86.624H117.401C117.945 86.624 118.437 86.712 118.877 86.888C119.325 87.064 119.705 87.328 120.017 87.68C120.337 88.024 120.581 88.46 120.749 88.988C120.925 89.508 121.013 90.116 121.013 90.812C121.013 91.508 120.925 92.12 120.749 92.648C120.581 93.168 120.337 93.604 120.017 93.956C119.705 94.3 119.325 94.56 118.877 94.736C118.437 94.912 117.945 95 117.401 95H114.353V86.624ZM117.401 93.596C117.993 93.596 118.461 93.424 118.805 93.08C119.157 92.728 119.333 92.192 119.333 91.472V90.152C119.333 89.432 119.157 88.9 118.805 88.556C118.461 88.204 117.993 88.028 117.401 88.028H115.937V93.596H117.401ZM124.127 86.624V91.772C124.127 92.428 124.251 92.92 124.499 93.248C124.755 93.576 125.183 93.74 125.783 93.74C126.383 93.74 126.807 93.576 127.055 93.248C127.311 92.92 127.439 92.428 127.439 91.772V86.624H128.999V91.568C128.999 92.184 128.939 92.716 128.819 93.164C128.707 93.612 128.523 93.984 128.267 94.28C128.011 94.576 127.675 94.796 127.259 94.94C126.851 95.076 126.355 95.144 125.771 95.144C125.179 95.144 124.679 95.076 124.271 94.94C123.871 94.796 123.543 94.576 123.287 94.28C123.031 93.984 122.847 93.612 122.735 93.164C122.623 92.716 122.567 92.184 122.567 91.568V86.624H124.127ZM133.516 95.144C132.796 95.144 132.184 95.016 131.68 94.76C131.184 94.504 130.756 94.168 130.396 93.752L131.464 92.72C131.752 93.056 132.072 93.312 132.424 93.488C132.784 93.664 133.18 93.752 133.612 93.752C134.1 93.752 134.468 93.648 134.716 93.44C134.964 93.224 135.088 92.936 135.088 92.576C135.088 92.296 135.008 92.068 134.848 91.892C134.688 91.716 134.388 91.588 133.948 91.508L133.156 91.388C131.484 91.124 130.648 90.312 130.648 88.952C130.648 88.576 130.716 88.236 130.852 87.932C130.996 87.628 131.2 87.368 131.464 87.152C131.728 86.936 132.044 86.772 132.412 86.66C132.788 86.54 133.212 86.48 133.684 86.48C134.316 86.48 134.868 86.584 135.34 86.792C135.812 87 136.216 87.308 136.552 87.716L135.472 88.736C135.264 88.48 135.012 88.272 134.716 88.112C134.42 87.952 134.048 87.872 133.6 87.872C133.144 87.872 132.8 87.96 132.568 88.136C132.344 88.304 132.232 88.544 132.232 88.856C132.232 89.176 132.324 89.412 132.508 89.564C132.692 89.716 132.988 89.828 133.396 89.9L134.176 90.044C135.024 90.196 135.648 90.468 136.048 90.86C136.456 91.244 136.66 91.784 136.66 92.48C136.66 92.88 136.588 93.244 136.444 93.572C136.308 93.892 136.104 94.172 135.832 94.412C135.568 94.644 135.24 94.824 134.848 94.952C134.464 95.08 134.02 95.144 133.516 95.144ZM141.301 88.028V95H139.717V88.028H137.341V86.624H143.677V88.028H141.301ZM146.558 95H144.974V86.624H148.754C149.138 86.624 149.482 86.684 149.786 86.804C150.09 86.924 150.346 87.1 150.554 87.332C150.77 87.556 150.934 87.828 151.046 88.148C151.166 88.468 151.226 88.824 151.226 89.216C151.226 89.792 151.094 90.288 150.83 90.704C150.574 91.12 150.186 91.416 149.666 91.592L151.382 95H149.618L148.058 91.772H146.558V95ZM148.598 90.44C148.902 90.44 149.142 90.36 149.318 90.2C149.494 90.032 149.582 89.796 149.582 89.492V88.94C149.582 88.636 149.494 88.404 149.318 88.244C149.142 88.084 148.902 88.004 148.598 88.004H146.558V90.44H148.598ZM152.595 95V93.728H153.699V87.896H152.595V86.624H156.399V87.896H155.283V93.728H156.399V95H152.595ZM158.017 95V86.624H163.537V88.028H159.601V90.056H163.081V91.46H159.601V93.596H163.537V95H158.017ZM165.213 95V86.624H166.797V93.596H170.097V95H165.213Z" fill="#41637D"/>
<rect x="194.54" y="164" width="83.9895" height="16.7979" fill="#EDEDED"/>
<rect x="194.486" y="164.202" width="18" height="17" fill="#39A4F5"/>
<rect x="194.486" y="164.202" width="10" height="17" fill="#1084DD"/>
<path d="M2.37072 177V168.624H7.75872V170.028H3.95472V172.056H7.26672V173.46H3.95472V177H2.37072ZM12.2681 177.144C11.7161 177.144 11.2161 177.052 10.7681 176.868C10.3201 176.684 9.93609 176.408 9.61609 176.04C9.30409 175.672 9.06009 175.22 8.88409 174.684C8.70809 174.148 8.62009 173.524 8.62009 172.812C8.62009 172.108 8.70809 171.488 8.88409 170.952C9.06009 170.408 9.30409 169.952 9.61609 169.584C9.93609 169.216 10.3201 168.94 10.7681 168.756C11.2161 168.572 11.7161 168.48 12.2681 168.48C12.8201 168.48 13.3201 168.572 13.7681 168.756C14.2161 168.94 14.6001 169.216 14.9201 169.584C15.2401 169.952 15.4841 170.408 15.6521 170.952C15.8281 171.488 15.9161 172.108 15.9161 172.812C15.9161 173.524 15.8281 174.148 15.6521 174.684C15.4841 175.22 15.2401 175.672 14.9201 176.04C14.6001 176.408 14.2161 176.684 13.7681 176.868C13.3201 177.052 12.8201 177.144 12.2681 177.144ZM12.2681 175.74C12.8681 175.74 13.3441 175.54 13.6961 175.14C14.0561 174.74 14.2361 174.18 14.2361 173.46V172.164C14.2361 171.444 14.0561 170.884 13.6961 170.484C13.3441 170.084 12.8681 169.884 12.2681 169.884C11.6681 169.884 11.1881 170.084 10.8281 170.484C10.4761 170.884 10.3001 171.444 10.3001 172.164V173.46C10.3001 174.18 10.4761 174.74 10.8281 175.14C11.1881 175.54 11.6681 175.74 12.2681 175.74ZM19.1071 177H17.5231V168.624H21.3031C21.6871 168.624 22.0311 168.684 22.3351 168.804C22.6391 168.924 22.8951 169.1 23.1031 169.332C23.3191 169.556 23.4831 169.828 23.5951 170.148C23.7151 170.468 23.7751 170.824 23.7751 171.216C23.7751 171.792 23.6431 172.288 23.3791 172.704C23.1231 173.12 22.7351 173.416 22.2151 173.592L23.9311 177H22.1671L20.6071 173.772H19.1071V177ZM21.1471 172.44C21.4511 172.44 21.6911 172.36 21.8671 172.2C22.0431 172.032 22.1311 171.796 22.1311 171.492V170.94C22.1311 170.636 22.0431 170.404 21.8671 170.244C21.6911 170.084 21.4511 170.004 21.1471 170.004H19.1071V172.44H21.1471ZM31.8158 170.988H31.7678L31.1198 172.32L29.4038 175.488L27.6878 172.32L27.0398 170.988H26.9918V177H25.4918V168.624H27.2798L29.4278 172.716H29.4758L31.5998 168.624H33.3158V177H31.8158V170.988ZM36.7887 168.624V173.772C36.7887 174.428 36.9127 174.92 37.1607 175.248C37.4167 175.576 37.8447 175.74 38.4447 175.74C39.0447 175.74 39.4687 175.576 39.7167 175.248C39.9727 174.92 40.1007 174.428 40.1007 173.772V168.624H41.6607V173.568C41.6607 174.184 41.6007 174.716 41.4807 175.164C41.3687 175.612 41.1847 175.984 40.9287 176.28C40.6727 176.576 40.3367 176.796 39.9207 176.94C39.5127 177.076 39.0167 177.144 38.4327 177.144C37.8407 177.144 37.3407 177.076 36.9327 176.94C36.5327 176.796 36.2047 176.576 35.9487 176.28C35.6927 175.984 35.5087 175.612 35.3967 175.164C35.2847 174.716 35.2287 174.184 35.2287 173.568V168.624H36.7887ZM43.5738 177V168.624H45.1578V175.596H48.4578V177H43.5738ZM55.2266 177L54.5546 174.864H51.5786L50.9186 177H49.3106L52.1186 168.624H54.0866L56.8706 177H55.2266ZM53.0906 170.064H53.0306L51.9626 173.508H54.1706L53.0906 170.064ZM60.6079 170.028V177H59.0239V170.028H56.6479V168.624H62.9839V170.028H60.6079ZM63.8743 177V175.728H64.9783V169.896H63.8743V168.624H67.6783V169.896H66.5623V175.728H67.6783V177H63.8743ZM72.5845 177.144C72.0325 177.144 71.5325 177.052 71.0845 176.868C70.6365 176.684 70.2525 176.408 69.9325 176.04C69.6205 175.672 69.3765 175.22 69.2005 174.684C69.0245 174.148 68.9365 173.524 68.9365 172.812C68.9365 172.108 69.0245 171.488 69.2005 170.952C69.3765 170.408 69.6205 169.952 69.9325 169.584C70.2525 169.216 70.6365 168.94 71.0845 168.756C71.5325 168.572 72.0325 168.48 72.5845 168.48C73.1365 168.48 73.6365 168.572 74.0845 168.756C74.5325 168.94 74.9165 169.216 75.2365 169.584C75.5565 169.952 75.8005 170.408 75.9685 170.952C76.1445 171.488 76.2325 172.108 76.2325 172.812C76.2325 173.524 76.1445 174.148 75.9685 174.684C75.8005 175.22 75.5565 175.672 75.2365 176.04C74.9165 176.408 74.5325 176.684 74.0845 176.868C73.6365 177.052 73.1365 177.144 72.5845 177.144ZM72.5845 175.74C73.1845 175.74 73.6605 175.54 74.0125 175.14C74.3725 174.74 74.5525 174.18 74.5525 173.46V172.164C74.5525 171.444 74.3725 170.884 74.0125 170.484C73.6605 170.084 73.1845 169.884 72.5845 169.884C71.9845 169.884 71.5045 170.084 71.1445 170.484C70.7925 170.884 70.6165 171.444 70.6165 172.164V173.46C70.6165 174.18 70.7925 174.74 71.1445 175.14C71.5045 175.54 71.9845 175.74 72.5845 175.74ZM80.2395 172.704L79.3755 170.964H79.3395V177H77.8395V168.624H79.5795L82.0995 172.92L82.9635 174.66H82.9995V168.624H84.4995V177H82.7595L80.2395 172.704ZM94.1724 176.232C94.0524 176.336 93.9164 176.444 93.7644 176.556C93.6124 176.66 93.4364 176.756 93.2364 176.844C93.0444 176.932 92.8244 177.004 92.5764 177.06C92.3364 177.116 92.0644 177.144 91.7604 177.144C91.3124 177.144 90.9124 177.084 90.5604 176.964C90.2164 176.844 89.9284 176.68 89.6964 176.472C89.4644 176.264 89.2884 176.02 89.1684 175.74C89.0484 175.452 88.9884 175.144 88.9884 174.816C88.9884 174.52 89.0324 174.26 89.1204 174.036C89.2084 173.804 89.3284 173.596 89.4804 173.412C89.6324 173.22 89.8124 173.052 90.0204 172.908C90.2284 172.756 90.4484 172.612 90.6804 172.476C90.4324 172.196 90.2124 171.892 90.0204 171.564C89.8364 171.228 89.7444 170.868 89.7444 170.484C89.7444 170.212 89.8004 169.956 89.9124 169.716C90.0244 169.468 90.1844 169.252 90.3924 169.068C90.6084 168.884 90.8644 168.74 91.1604 168.636C91.4564 168.532 91.7884 168.48 92.1564 168.48C92.4844 168.48 92.7884 168.524 93.0684 168.612C93.3484 168.7 93.5884 168.824 93.7884 168.984C93.9964 169.144 94.1564 169.34 94.2684 169.572C94.3884 169.804 94.4484 170.068 94.4484 170.364C94.4484 170.628 94.4004 170.872 94.3044 171.096C94.2164 171.312 94.0924 171.512 93.9324 171.696C93.7724 171.872 93.5884 172.04 93.3804 172.2C93.1724 172.352 92.9484 172.496 92.7084 172.632L94.1724 174.216C94.2844 173.944 94.3684 173.656 94.4244 173.352C94.4884 173.048 94.5284 172.744 94.5444 172.44H96.4284V173.724H95.6484C95.5284 174.268 95.3444 174.764 95.0964 175.212L96.7524 177H94.8684L94.1724 176.232ZM92.1084 169.668C91.8524 169.668 91.6404 169.744 91.4724 169.896C91.3044 170.04 91.2204 170.236 91.2204 170.484V170.568C91.2204 170.752 91.2764 170.936 91.3884 171.12C91.5084 171.296 91.6924 171.524 91.9404 171.804C92.2444 171.62 92.4924 171.428 92.6844 171.228C92.8844 171.028 92.9844 170.796 92.9844 170.532V170.46C92.9844 170.204 92.8964 170.008 92.7204 169.872C92.5524 169.736 92.3484 169.668 92.1084 169.668ZM91.9644 175.86C92.2524 175.86 92.5124 175.816 92.7444 175.728C92.9764 175.64 93.1804 175.52 93.3564 175.368L91.4484 173.304C91.1684 173.472 90.9484 173.652 90.7884 173.844C90.6364 174.028 90.5604 174.264 90.5604 174.552V174.684C90.5604 175.036 90.6804 175.32 90.9204 175.536C91.1604 175.752 91.5084 175.86 91.9644 175.86ZM102.635 177L99.899 168.624H101.519L102.803 172.704L103.547 175.488H103.583L104.315 172.704L105.599 168.624H107.171L104.435 177H102.635ZM112.93 177L112.258 174.864H109.282L108.622 177H107.014L109.822 168.624H111.79L114.574 177H112.93ZM110.794 170.064H110.734L109.666 173.508H111.874L110.794 170.064ZM115.808 177V168.624H117.392V175.596H120.692V177H115.808ZM121.718 177V175.728H122.822V169.896H121.718V168.624H125.522V169.896H124.406V175.728H125.522V177H121.718ZM127.14 168.624H130.188C130.732 168.624 131.224 168.712 131.664 168.888C132.112 169.064 132.492 169.328 132.804 169.68C133.124 170.024 133.368 170.46 133.536 170.988C133.712 171.508 133.8 172.116 133.8 172.812C133.8 173.508 133.712 174.12 133.536 174.648C133.368 175.168 133.124 175.604 132.804 175.956C132.492 176.3 132.112 176.56 131.664 176.736C131.224 176.912 130.732 177 130.188 177H127.14V168.624ZM130.188 175.596C130.78 175.596 131.248 175.424 131.592 175.08C131.944 174.728 132.12 174.192 132.12 173.472V172.152C132.12 171.432 131.944 170.9 131.592 170.556C131.248 170.204 130.78 170.028 130.188 170.028H128.724V175.596H130.188ZM140.234 177L139.562 174.864H136.586L135.926 177H134.318L137.126 168.624H139.094L141.878 177H140.234ZM138.098 170.064H138.038L136.97 173.508H139.178L138.098 170.064ZM145.616 170.028V177H144.032V170.028H141.656V168.624H147.992V170.028H145.616ZM148.882 177V175.728H149.986V169.896H148.882V168.624H152.686V169.896H151.57V175.728H152.686V177H148.882ZM157.592 177.144C157.04 177.144 156.54 177.052 156.092 176.868C155.644 176.684 155.26 176.408 154.94 176.04C154.628 175.672 154.384 175.22 154.208 174.684C154.032 174.148 153.944 173.524 153.944 172.812C153.944 172.108 154.032 171.488 154.208 170.952C154.384 170.408 154.628 169.952 154.94 169.584C155.26 169.216 155.644 168.94 156.092 168.756C156.54 168.572 157.04 168.48 157.592 168.48C158.144 168.48 158.644 168.572 159.092 168.756C159.54 168.94 159.924 169.216 160.244 169.584C160.564 169.952 160.808 170.408 160.976 170.952C161.152 171.488 161.24 172.108 161.24 172.812C161.24 173.524 161.152 174.148 160.976 174.684C160.808 175.22 160.564 175.672 160.244 176.04C159.924 176.408 159.54 176.684 159.092 176.868C158.644 177.052 158.144 177.144 157.592 177.144ZM157.592 175.74C158.192 175.74 158.668 175.54 159.02 175.14C159.38 174.74 159.56 174.18 159.56 173.46V172.164C159.56 171.444 159.38 170.884 159.02 170.484C158.668 170.084 158.192 169.884 157.592 169.884C156.992 169.884 156.512 170.084 156.152 170.484C155.8 170.884 155.624 171.444 155.624 172.164V173.46C155.624 174.18 155.8 174.74 156.152 175.14C156.512 175.54 156.992 175.74 157.592 175.74ZM165.247 172.704L164.383 170.964H164.347V177H162.847V168.624H164.587L167.107 172.92L167.971 174.66H168.007V168.624H169.507V177H167.767L165.247 172.704Z" fill="#41637D"/>
<rect x="194.54" y="123" width="83.9895" height="16.7979" fill="#EDEDED"/>
<rect x="194.486" y="123" width="64" height="17" fill="#39A4F5"/>
<rect x="194.486" y="123" width="18" height="17" fill="#1084DD"/>
<path d="M58.4024 136.404L57.7304 134.268H54.7544L54.0944 136.404H52.4864L55.2944 128.028H57.2624L60.0464 136.404H58.4024ZM56.2664 129.468H56.2064L55.1384 132.912H57.3464L56.2664 129.468ZM63.6809 132.108L62.8169 130.368H62.7809V136.404H61.2809V128.028H63.0209L65.5409 132.324L66.4049 134.064H66.4409V128.028H67.9409V136.404H66.2009L63.6809 132.108ZM75.0899 136.404L74.4179 134.268H71.4419L70.7819 136.404H69.1739L71.9819 128.028H73.9499L76.7339 136.404H75.0899ZM72.9539 129.468H72.8939L71.8259 132.912H74.0339L72.9539 129.468ZM77.9684 136.404V128.028H79.5524V135H82.8524V136.404H77.9684ZM85.2107 136.404V133.116L82.3427 128.028H84.1187L86.0507 131.568H86.0747L87.9587 128.028H89.6867L86.8067 133.104V136.404H85.2107ZM92.9357 136.548C92.2157 136.548 91.6037 136.42 91.0997 136.164C90.6037 135.908 90.1757 135.572 89.8157 135.156L90.8837 134.124C91.1717 134.46 91.4917 134.716 91.8437 134.892C92.2037 135.068 92.5997 135.156 93.0317 135.156C93.5197 135.156 93.8877 135.052 94.1357 134.844C94.3837 134.628 94.5077 134.34 94.5077 133.98C94.5077 133.7 94.4277 133.472 94.2677 133.296C94.1077 133.12 93.8077 132.992 93.3677 132.912L92.5757 132.792C90.9037 132.528 90.0677 131.716 90.0677 130.356C90.0677 129.98 90.1357 129.64 90.2717 129.336C90.4157 129.032 90.6197 128.772 90.8837 128.556C91.1477 128.34 91.4637 128.176 91.8317 128.064C92.2077 127.944 92.6317 127.884 93.1037 127.884C93.7357 127.884 94.2877 127.988 94.7597 128.196C95.2317 128.404 95.6357 128.712 95.9717 129.12L94.8917 130.14C94.6837 129.884 94.4317 129.676 94.1357 129.516C93.8397 129.356 93.4677 129.276 93.0197 129.276C92.5637 129.276 92.2197 129.364 91.9877 129.54C91.7637 129.708 91.6517 129.948 91.6517 130.26C91.6517 130.58 91.7437 130.816 91.9277 130.968C92.1117 131.12 92.4077 131.232 92.8157 131.304L93.5957 131.448C94.4437 131.6 95.0677 131.872 95.4677 132.264C95.8757 132.648 96.0797 133.188 96.0797 133.884C96.0797 134.284 96.0077 134.648 95.8637 134.976C95.7277 135.296 95.5237 135.576 95.2517 135.816C94.9877 136.048 94.6597 136.228 94.2677 136.356C93.8837 136.484 93.4397 136.548 92.9357 136.548ZM97.6676 136.404V128.028H103.188V129.432H99.2516V131.46H102.732V132.864H99.2516V135H103.188V136.404H97.6676ZM109.283 136.404H107.699V128.028H111.479C111.863 128.028 112.207 128.088 112.511 128.208C112.815 128.328 113.071 128.504 113.279 128.736C113.495 128.96 113.659 129.232 113.771 129.552C113.891 129.872 113.951 130.228 113.951 130.62C113.951 131.196 113.819 131.692 113.555 132.108C113.299 132.524 112.911 132.82 112.391 132.996L114.107 136.404H112.343L110.783 133.176H109.283V136.404ZM111.323 131.844C111.627 131.844 111.867 131.764 112.043 131.604C112.219 131.436 112.307 131.2 112.307 130.896V130.344C112.307 130.04 112.219 129.808 112.043 129.648C111.867 129.488 111.627 129.408 111.323 129.408H109.283V131.844H111.323ZM115.668 136.404V128.028H121.188V129.432H117.252V131.46H120.732V132.864H117.252V135H121.188V136.404H115.668ZM118.584 127.476L117.66 127.02L118.8 124.776L120.096 125.424L118.584 127.476ZM125.467 136.548C124.747 136.548 124.135 136.42 123.631 136.164C123.135 135.908 122.707 135.572 122.347 135.156L123.415 134.124C123.703 134.46 124.023 134.716 124.375 134.892C124.735 135.068 125.131 135.156 125.563 135.156C126.051 135.156 126.419 135.052 126.667 134.844C126.915 134.628 127.039 134.34 127.039 133.98C127.039 133.7 126.959 133.472 126.799 133.296C126.639 133.12 126.339 132.992 125.899 132.912L125.107 132.792C123.435 132.528 122.599 131.716 122.599 130.356C122.599 129.98 122.667 129.64 122.803 129.336C122.947 129.032 123.151 128.772 123.415 128.556C123.679 128.34 123.995 128.176 124.363 128.064C124.739 127.944 125.163 127.884 125.635 127.884C126.267 127.884 126.819 127.988 127.291 128.196C127.763 128.404 128.167 128.712 128.503 129.12L127.423 130.14C127.215 129.884 126.963 129.676 126.667 129.516C126.371 129.356 125.999 129.276 125.551 129.276C125.095 129.276 124.751 129.364 124.519 129.54C124.295 129.708 124.183 129.948 124.183 130.26C124.183 130.58 124.275 130.816 124.459 130.968C124.643 131.12 124.939 131.232 125.347 131.304L126.127 131.448C126.975 131.6 127.599 131.872 127.999 132.264C128.407 132.648 128.611 133.188 128.611 133.884C128.611 134.284 128.539 134.648 128.395 134.976C128.259 135.296 128.055 135.576 127.783 135.816C127.519 136.048 127.191 136.228 126.799 136.356C126.415 136.484 125.971 136.548 125.467 136.548ZM131.699 128.028V133.176C131.699 133.832 131.823 134.324 132.071 134.652C132.327 134.98 132.755 135.144 133.355 135.144C133.955 135.144 134.379 134.98 134.627 134.652C134.883 134.324 135.011 133.832 135.011 133.176V128.028H136.571V132.972C136.571 133.588 136.511 134.12 136.391 134.568C136.279 135.016 136.095 135.388 135.839 135.684C135.583 135.98 135.247 136.2 134.831 136.344C134.423 136.48 133.927 136.548 133.343 136.548C132.751 136.548 132.251 136.48 131.843 136.344C131.443 136.2 131.115 135.98 130.859 135.684C130.603 135.388 130.419 135.016 130.307 134.568C130.195 134.12 130.139 133.588 130.139 132.972V128.028H131.699ZM138.484 136.404V128.028H140.068V135H143.368V136.404H138.484ZM147.151 129.432V136.404H145.567V129.432H143.191V128.028H149.527V129.432H147.151ZM155.223 136.404L154.551 134.268H151.575L150.915 136.404H149.307L152.115 128.028H154.083L156.867 136.404H155.223ZM153.087 129.468H153.027L151.959 132.912H154.167L153.087 129.468ZM160.604 129.432V136.404H159.02V129.432H156.644V128.028H162.98V129.432H160.604ZM166.74 136.548C166.02 136.548 165.408 136.42 164.904 136.164C164.408 135.908 163.98 135.572 163.62 135.156L164.688 134.124C164.976 134.46 165.296 134.716 165.648 134.892C166.008 135.068 166.404 135.156 166.836 135.156C167.324 135.156 167.692 135.052 167.94 134.844C168.188 134.628 168.312 134.34 168.312 133.98C168.312 133.7 168.232 133.472 168.072 133.296C167.912 133.12 167.612 132.992 167.172 132.912L166.38 132.792C164.708 132.528 163.872 131.716 163.872 130.356C163.872 129.98 163.94 129.64 164.076 129.336C164.22 129.032 164.424 128.772 164.688 128.556C164.952 128.34 165.268 128.176 165.636 128.064C166.012 127.944 166.436 127.884 166.908 127.884C167.54 127.884 168.092 127.988 168.564 128.196C169.036 128.404 169.44 128.712 169.776 129.12L168.696 130.14C168.488 129.884 168.236 129.676 167.94 129.516C167.644 129.356 167.272 129.276 166.824 129.276C166.368 129.276 166.024 129.364 165.792 129.54C165.568 129.708 165.456 129.948 165.456 130.26C165.456 130.58 165.548 130.816 165.732 130.968C165.916 131.12 166.212 131.232 166.62 131.304L167.4 131.448C168.248 131.6 168.872 131.872 169.272 132.264C169.68 132.648 169.884 133.188 169.884 133.884C169.884 134.284 169.812 134.648 169.668 134.976C169.532 135.296 169.328 135.576 169.056 135.816C168.792 136.048 168.464 136.228 168.072 136.356C167.688 136.484 167.244 136.548 166.74 136.548Z" fill="#41637D"/>
<line x1="194.959" y1="1.64788e-08" x2="194.959" y2="190" stroke="#41637D" stroke-width="0.839895"/>
<line x1="236.953" y1="1.64788e-08" x2="236.953" y2="190" stroke="#41637D" stroke-width="0.839895"/>
<line x1="278.948" y1="1.64788e-08" x2="278.948" y2="190" stroke="#41637D" stroke-width="0.839895"/>
</svg>
