<svg width="277" height="216" viewBox="0 0 277 216" fill="none" xmlns="http://www.w3.org/2000/svg">
<path d="M169.657 212.144C169.121 212.144 168.657 212.048 168.265 211.856C167.873 211.656 167.549 211.372 167.293 211.004C167.037 210.636 166.845 210.184 166.717 209.648C166.597 209.112 166.537 208.5 166.537 207.812C166.537 207.132 166.597 206.524 166.717 205.988C166.845 205.444 167.037 204.988 167.293 204.62C167.549 204.252 167.873 203.972 168.265 203.78C168.657 203.58 169.121 203.48 169.657 203.48C170.721 203.48 171.505 203.86 172.009 204.62C172.521 205.38 172.777 206.444 172.777 207.812C172.777 209.18 172.521 210.244 172.009 211.004C171.505 211.764 170.721 212.144 169.657 212.144ZM169.657 210.812C170.193 210.812 170.565 210.612 170.773 210.212C170.989 209.804 171.097 209.256 171.097 208.568V207.056C171.097 206.368 170.989 205.824 170.773 205.424C170.565 205.016 170.193 204.812 169.657 204.812C169.121 204.812 168.745 205.016 168.529 205.424C168.321 205.824 168.217 206.368 168.217 207.056V208.568C168.217 209.256 168.321 209.804 168.529 210.212C168.745 210.612 169.121 210.812 169.657 210.812ZM175.412 212L181.22 203.624H182.612L176.804 212H175.412ZM175.988 208.232C175.308 208.232 174.788 208.032 174.428 207.632C174.076 207.224 173.9 206.632 173.9 205.856C173.9 205.08 174.076 204.492 174.428 204.092C174.788 203.684 175.308 203.48 175.988 203.48C176.668 203.48 177.184 203.684 177.536 204.092C177.888 204.492 178.064 205.08 178.064 205.856C178.064 206.632 177.888 207.224 177.536 207.632C177.184 208.032 176.668 208.232 175.988 208.232ZM175.988 207.32C176.484 207.32 176.732 206.94 176.732 206.18V205.532C176.732 204.772 176.484 204.392 175.988 204.392C175.492 204.392 175.244 204.772 175.244 205.532V206.18C175.244 206.94 175.492 207.32 175.988 207.32ZM182.036 212.144C181.364 212.144 180.848 211.944 180.488 211.544C180.136 211.136 179.96 210.544 179.96 209.768C179.96 208.992 180.136 208.404 180.488 208.004C180.848 207.596 181.364 207.392 182.036 207.392C182.716 207.392 183.232 207.596 183.584 208.004C183.944 208.404 184.124 208.992 184.124 209.768C184.124 210.544 183.944 211.136 183.584 211.544C183.232 211.944 182.716 212.144 182.036 212.144ZM182.036 211.232C182.532 211.232 182.78 210.852 182.78 210.092V209.444C182.78 208.684 182.532 208.304 182.036 208.304C181.54 208.304 181.292 208.684 181.292 209.444V210.092C181.292 210.852 181.54 211.232 182.036 211.232Z" fill="#41637D"/>
<path d="M210.032 204.992H206.264L206.072 207.8H206.156C206.244 207.624 206.34 207.46 206.444 207.308C206.548 207.156 206.668 207.028 206.804 206.924C206.94 206.82 207.096 206.74 207.272 206.684C207.456 206.62 207.676 206.588 207.932 206.588C208.292 206.588 208.628 206.648 208.94 206.768C209.252 206.888 209.52 207.064 209.744 207.296C209.976 207.52 210.156 207.796 210.284 208.124C210.42 208.452 210.488 208.824 210.488 209.24C210.488 209.664 210.42 210.052 210.284 210.404C210.148 210.756 209.948 211.064 209.684 211.328C209.42 211.584 209.096 211.784 208.712 211.928C208.328 212.072 207.888 212.144 207.392 212.144C207.008 212.144 206.664 212.1 206.36 212.012C206.056 211.932 205.788 211.82 205.556 211.676C205.324 211.532 205.124 211.368 204.956 211.184C204.788 210.992 204.64 210.792 204.512 210.584L205.664 209.696C205.76 209.856 205.86 210.008 205.964 210.152C206.068 210.288 206.188 210.408 206.324 210.512C206.468 210.616 206.624 210.7 206.792 210.764C206.968 210.82 207.172 210.848 207.404 210.848C207.876 210.848 208.232 210.716 208.472 210.452C208.72 210.188 208.844 209.828 208.844 209.372V209.276C208.844 208.844 208.72 208.504 208.472 208.256C208.224 208.008 207.88 207.884 207.44 207.884C207.096 207.884 206.816 207.952 206.6 208.088C206.384 208.216 206.212 208.356 206.084 208.508L204.788 208.328L205.1 203.624H210.032V204.992ZM214.647 212.144C214.111 212.144 213.647 212.048 213.255 211.856C212.863 211.656 212.539 211.372 212.283 211.004C212.027 210.636 211.835 210.184 211.707 209.648C211.587 209.112 211.527 208.5 211.527 207.812C211.527 207.132 211.587 206.524 211.707 205.988C211.835 205.444 212.027 204.988 212.283 204.62C212.539 204.252 212.863 203.972 213.255 203.78C213.647 203.58 214.111 203.48 214.647 203.48C215.711 203.48 216.495 203.86 216.999 204.62C217.511 205.38 217.767 206.444 217.767 207.812C217.767 209.18 217.511 210.244 216.999 211.004C216.495 211.764 215.711 212.144 214.647 212.144ZM214.647 210.812C215.183 210.812 215.555 210.612 215.763 210.212C215.979 209.804 216.087 209.256 216.087 208.568V207.056C216.087 206.368 215.979 205.824 215.763 205.424C215.555 205.016 215.183 204.812 214.647 204.812C214.111 204.812 213.735 205.016 213.519 205.424C213.311 205.824 213.207 206.368 213.207 207.056V208.568C213.207 209.256 213.311 209.804 213.519 210.212C213.735 210.612 214.111 210.812 214.647 210.812ZM220.402 212L226.21 203.624H227.602L221.794 212H220.402ZM220.978 208.232C220.298 208.232 219.778 208.032 219.418 207.632C219.066 207.224 218.89 206.632 218.89 205.856C218.89 205.08 219.066 204.492 219.418 204.092C219.778 203.684 220.298 203.48 220.978 203.48C221.658 203.48 222.174 203.684 222.526 204.092C222.878 204.492 223.054 205.08 223.054 205.856C223.054 206.632 222.878 207.224 222.526 207.632C222.174 208.032 221.658 208.232 220.978 208.232ZM220.978 207.32C221.474 207.32 221.722 206.94 221.722 206.18V205.532C221.722 204.772 221.474 204.392 220.978 204.392C220.482 204.392 220.234 204.772 220.234 205.532V206.18C220.234 206.94 220.482 207.32 220.978 207.32ZM227.026 212.144C226.354 212.144 225.838 211.944 225.478 211.544C225.126 211.136 224.95 210.544 224.95 209.768C224.95 208.992 225.126 208.404 225.478 208.004C225.838 207.596 226.354 207.392 227.026 207.392C227.706 207.392 228.222 207.596 228.574 208.004C228.934 208.404 229.114 208.992 229.114 209.768C229.114 210.544 228.934 211.136 228.574 211.544C228.222 211.944 227.706 212.144 227.026 212.144ZM227.026 211.232C227.522 211.232 227.77 210.852 227.77 210.092V209.444C227.77 208.684 227.522 208.304 227.026 208.304C226.53 208.304 226.282 208.684 226.282 209.444V210.092C226.282 210.852 226.53 211.232 227.026 211.232Z" fill="#41637D"/>
<path d="M243.58 212V210.716H245.884V204.764H245.776L243.952 206.924L242.968 206.096L245.044 203.624H247.432V210.716H249.352V212H243.58ZM253.284 212.144C252.748 212.144 252.284 212.048 251.892 211.856C251.5 211.656 251.176 211.372 250.92 211.004C250.664 210.636 250.472 210.184 250.344 209.648C250.224 209.112 250.164 208.5 250.164 207.812C250.164 207.132 250.224 206.524 250.344 205.988C250.472 205.444 250.664 204.988 250.92 204.62C251.176 204.252 251.5 203.972 251.892 203.78C252.284 203.58 252.748 203.48 253.284 203.48C254.348 203.48 255.132 203.86 255.636 204.62C256.148 205.38 256.404 206.444 256.404 207.812C256.404 209.18 256.148 210.244 255.636 211.004C255.132 211.764 254.348 212.144 253.284 212.144ZM253.284 210.812C253.82 210.812 254.192 210.612 254.4 210.212C254.616 209.804 254.724 209.256 254.724 208.568V207.056C254.724 206.368 254.616 205.824 254.4 205.424C254.192 205.016 253.82 204.812 253.284 204.812C252.748 204.812 252.372 205.016 252.156 205.424C251.948 205.824 251.844 206.368 251.844 207.056V208.568C251.844 209.256 251.948 209.804 252.156 210.212C252.372 210.612 252.748 210.812 253.284 210.812ZM260.479 212.144C259.943 212.144 259.479 212.048 259.087 211.856C258.695 211.656 258.371 211.372 258.115 211.004C257.859 210.636 257.667 210.184 257.539 209.648C257.419 209.112 257.359 208.5 257.359 207.812C257.359 207.132 257.419 206.524 257.539 205.988C257.667 205.444 257.859 204.988 258.115 204.62C258.371 204.252 258.695 203.972 259.087 203.78C259.479 203.58 259.943 203.48 260.479 203.48C261.543 203.48 262.327 203.86 262.831 204.62C263.343 205.38 263.599 206.444 263.599 207.812C263.599 209.18 263.343 210.244 262.831 211.004C262.327 211.764 261.543 212.144 260.479 212.144ZM260.479 210.812C261.015 210.812 261.387 210.612 261.595 210.212C261.811 209.804 261.919 209.256 261.919 208.568V207.056C261.919 206.368 261.811 205.824 261.595 205.424C261.387 205.016 261.015 204.812 260.479 204.812C259.943 204.812 259.567 205.016 259.351 205.424C259.143 205.824 259.039 206.368 259.039 207.056V208.568C259.039 209.256 259.143 209.804 259.351 210.212C259.567 210.612 259.943 210.812 260.479 210.812ZM266.234 212L272.042 203.624H273.434L267.626 212H266.234ZM266.81 208.232C266.13 208.232 265.61 208.032 265.25 207.632C264.898 207.224 264.722 206.632 264.722 205.856C264.722 205.08 264.898 204.492 265.25 204.092C265.61 203.684 266.13 203.48 266.81 203.48C267.49 203.48 268.006 203.684 268.358 204.092C268.71 204.492 268.886 205.08 268.886 205.856C268.886 206.632 268.71 207.224 268.358 207.632C268.006 208.032 267.49 208.232 266.81 208.232ZM266.81 207.32C267.306 207.32 267.554 206.94 267.554 206.18V205.532C267.554 204.772 267.306 204.392 266.81 204.392C266.314 204.392 266.066 204.772 266.066 205.532V206.18C266.066 206.94 266.314 207.32 266.81 207.32ZM272.858 212.144C272.186 212.144 271.67 211.944 271.31 211.544C270.958 211.136 270.782 210.544 270.782 209.768C270.782 208.992 270.958 208.404 271.31 208.004C271.67 207.596 272.186 207.392 272.858 207.392C273.538 207.392 274.054 207.596 274.406 208.004C274.766 208.404 274.946 208.992 274.946 209.768C274.946 210.544 274.766 211.136 274.406 211.544C274.054 211.944 273.538 212.144 272.858 212.144ZM272.858 211.232C273.354 211.232 273.602 210.852 273.602 210.092V209.444C273.602 208.684 273.354 208.304 272.858 208.304C272.362 208.304 272.114 208.684 272.114 209.444V210.092C272.114 210.852 272.362 211.232 272.858 211.232Z" fill="#41637D"/>
<line opacity="0.2" x1="184.113" y1="1.64788e-08" x2="184.113" y2="190" stroke="#41637D" stroke-width="0.839895"/>
<line opacity="0.2" x1="226.109" y1="1.64788e-08" x2="226.109" y2="190" stroke="#41637D" stroke-width="0.839895"/>
<line opacity="0.2" x1="192.514" y1="1.64788e-08" x2="192.514" y2="190" stroke="#41637D" stroke-width="0.839895"/>
<line opacity="0.2" x1="234.508" y1="1.64788e-08" x2="234.508" y2="190" stroke="#41637D" stroke-width="0.839895"/>
<line opacity="0.2" x1="200.912" y1="1.64788e-08" x2="200.912" y2="190" stroke="#41637D" stroke-width="0.839895"/>
<line opacity="0.2" x1="242.906" y1="1.64788e-08" x2="242.906" y2="190" stroke="#41637D" stroke-width="0.839895"/>
<line opacity="0.2" x1="209.311" y1="1.64788e-08" x2="209.311" y2="190" stroke="#41637D" stroke-width="0.839895"/>
<line opacity="0.2" x1="251.305" y1="1.64788e-08" x2="251.305" y2="190" stroke="#41637D" stroke-width="0.839895"/>
<rect x="175.295" width="83.9895" height="16.7979" fill="#EDEDED"/>
<rect x="175.242" width="28" height="17" fill="#39A4F5"/>
<rect x="176.242" width="12" height="17" fill="#1084DD"/>
<path d="M11.1676 4.624H14.2156C14.7596 4.624 15.2516 4.712 15.6916 4.888C16.1396 5.064 16.5196 5.328 16.8316 5.68C17.1516 6.024 17.3956 6.46 17.5636 6.988C17.7396 7.508 17.8276 8.116 17.8276 8.812C17.8276 9.508 17.7396 10.12 17.5636 10.648C17.3956 11.168 17.1516 11.604 16.8316 11.956C16.5196 12.3 16.1396 12.56 15.6916 12.736C15.2516 12.912 14.7596 13 14.2156 13H11.1676V4.624ZM14.2156 11.596C14.8076 11.596 15.2756 11.424 15.6196 11.08C15.9716 10.728 16.1476 10.192 16.1476 9.472V8.152C16.1476 7.432 15.9716 6.9 15.6196 6.556C15.2756 6.204 14.8076 6.028 14.2156 6.028H12.7516V11.596H14.2156ZM19.441 13V4.624H24.961V6.028H21.025V8.056H24.505V9.46H21.025V11.596H24.961V13H19.441ZM29.2403 13.144C28.5203 13.144 27.9083 13.016 27.4043 12.76C26.9083 12.504 26.4803 12.168 26.1203 11.752L27.1883 10.72C27.4763 11.056 27.7963 11.312 28.1483 11.488C28.5083 11.664 28.9043 11.752 29.3363 11.752C29.8243 11.752 30.1923 11.648 30.4403 11.44C30.6883 11.224 30.8123 10.936 30.8123 10.576C30.8123 10.296 30.7323 10.068 30.5723 9.892C30.4123 9.716 30.1123 9.588 29.6723 9.508L28.8803 9.388C27.2083 9.124 26.3723 8.312 26.3723 6.952C26.3723 6.576 26.4403 6.236 26.5763 5.932C26.7203 5.628 26.9243 5.368 27.1883 5.152C27.4523 4.936 27.7683 4.772 28.1363 4.66C28.5123 4.54 28.9363 4.48 29.4083 4.48C30.0403 4.48 30.5923 4.584 31.0643 4.792C31.5363 5 31.9403 5.308 32.2763 5.716L31.1963 6.736C30.9883 6.48 30.7363 6.272 30.4403 6.112C30.1443 5.952 29.7723 5.872 29.3243 5.872C28.8683 5.872 28.5243 5.96 28.2923 6.136C28.0683 6.304 27.9563 6.544 27.9563 6.856C27.9563 7.176 28.0483 7.412 28.2323 7.564C28.4163 7.716 28.7123 7.828 29.1203 7.9L29.9003 8.044C30.7483 8.196 31.3723 8.468 31.7723 8.86C32.1803 9.244 32.3843 9.784 32.3843 10.48C32.3843 10.88 32.3123 11.244 32.1683 11.572C32.0323 11.892 31.8283 12.172 31.5563 12.412C31.2923 12.644 30.9643 12.824 30.5723 12.952C30.1883 13.08 29.7443 13.144 29.2403 13.144ZM33.6243 13V11.728H34.7283V5.896H33.6243V4.624H37.4283V5.896H36.3123V11.728H37.4283V13H33.6243ZM44.3865 11.704H44.3385C44.2665 12.112 44.0385 12.456 43.6545 12.736C43.2785 13.008 42.7745 13.144 42.1425 13.144C41.6465 13.144 41.1865 13.052 40.7625 12.868C40.3465 12.684 39.9825 12.412 39.6705 12.052C39.3665 11.684 39.1265 11.232 38.9505 10.696C38.7745 10.16 38.6865 9.54 38.6865 8.836C38.6865 8.132 38.7745 7.512 38.9505 6.976C39.1345 6.432 39.3905 5.976 39.7185 5.608C40.0465 5.24 40.4385 4.96 40.8945 4.768C41.3505 4.576 41.8585 4.48 42.4185 4.48C43.1705 4.48 43.8105 4.644 44.3385 4.972C44.8665 5.3 45.2825 5.772 45.5865 6.388L44.3025 7.144C44.1505 6.784 43.9225 6.484 43.6185 6.244C43.3225 6.004 42.9225 5.884 42.4185 5.884C41.7945 5.884 41.2945 6.076 40.9185 6.46C40.5505 6.836 40.3665 7.396 40.3665 8.14V9.484C40.3665 10.22 40.5545 10.78 40.9305 11.164C41.3065 11.548 41.8105 11.74 42.4425 11.74C42.6905 11.74 42.9225 11.712 43.1385 11.656C43.3545 11.592 43.5425 11.5 43.7025 11.38C43.8625 11.26 43.9905 11.112 44.0865 10.936C44.1825 10.76 44.2305 10.552 44.2305 10.312V9.772H42.5865V8.44H45.7545V13H44.3865V11.704ZM49.9895 8.704L49.1255 6.964H49.0895V13H47.5895V4.624H49.3295L51.8495 8.92L52.7135 10.66H52.7495V4.624H54.2495V13H52.5095L49.9895 8.704ZM59.0504 4.624H62.0984C62.6424 4.624 63.1344 4.712 63.5744 4.888C64.0224 5.064 64.4024 5.328 64.7144 5.68C65.0344 6.024 65.2784 6.46 65.4464 6.988C65.6224 7.508 65.7104 8.116 65.7104 8.812C65.7104 9.508 65.6224 10.12 65.4464 10.648C65.2784 11.168 65.0344 11.604 64.7144 11.956C64.4024 12.3 64.0224 12.56 63.5744 12.736C63.1344 12.912 62.6424 13 62.0984 13H59.0504V4.624ZM62.0984 11.596C62.6904 11.596 63.1584 11.424 63.5024 11.08C63.8544 10.728 64.0304 10.192 64.0304 9.472V8.152C64.0304 7.432 63.8544 6.9 63.5024 6.556C63.1584 6.204 62.6904 6.028 62.0984 6.028H60.6344V11.596H62.0984ZM68.8238 4.624V9.772C68.8238 10.428 68.9478 10.92 69.1958 11.248C69.4518 11.576 69.8798 11.74 70.4798 11.74C71.0798 11.74 71.5038 11.576 71.7518 11.248C72.0078 10.92 72.1358 10.428 72.1358 9.772V4.624H73.6958V9.568C73.6958 10.184 73.6358 10.716 73.5158 11.164C73.4038 11.612 73.2198 11.984 72.9638 12.28C72.7078 12.576 72.3718 12.796 71.9558 12.94C71.5478 13.076 71.0518 13.144 70.4678 13.144C69.8758 13.144 69.3758 13.076 68.9678 12.94C68.5678 12.796 68.2398 12.576 67.9838 12.28C67.7278 11.984 67.5438 11.612 67.4318 11.164C67.3198 10.716 67.2638 10.184 67.2638 9.568V4.624H68.8238ZM78.4449 13V4.624H82.2129C82.5969 4.624 82.9409 4.688 83.2449 4.816C83.5569 4.936 83.8209 5.112 84.0369 5.344C84.2529 5.568 84.4169 5.84 84.5289 6.16C84.6409 6.48 84.6969 6.832 84.6969 7.216C84.6969 7.608 84.6409 7.964 84.5289 8.284C84.4169 8.596 84.2529 8.868 84.0369 9.1C83.8209 9.324 83.5569 9.5 83.2449 9.628C82.9409 9.748 82.5969 9.808 82.2129 9.808H80.0289V13H78.4449ZM80.0289 8.44H82.0689C82.3729 8.44 82.6129 8.36 82.7889 8.2C82.9649 8.032 83.0529 7.796 83.0529 7.492V6.94C83.0529 6.636 82.9649 6.404 82.7889 6.244C82.6129 6.084 82.3729 6.004 82.0689 6.004H80.0289V8.44ZM87.7164 13H86.1324V4.624H89.9124C90.2964 4.624 90.6404 4.684 90.9444 4.804C91.2484 4.924 91.5044 5.1 91.7124 5.332C91.9284 5.556 92.0924 5.828 92.2044 6.148C92.3244 6.468 92.3844 6.824 92.3844 7.216C92.3844 7.792 92.2524 8.288 91.9884 8.704C91.7324 9.12 91.3444 9.416 90.8244 9.592L92.5404 13H90.7764L89.2164 9.772H87.7164V13ZM89.7564 8.44C90.0604 8.44 90.3004 8.36 90.4764 8.2C90.6524 8.032 90.7404 7.796 90.7404 7.492V6.94C90.7404 6.636 90.6524 6.404 90.4764 6.244C90.3004 6.084 90.0604 6.004 89.7564 6.004H87.7164V8.44H89.7564ZM97.272 13.144C96.72 13.144 96.22 13.052 95.772 12.868C95.324 12.684 94.94 12.408 94.62 12.04C94.308 11.672 94.064 11.22 93.888 10.684C93.712 10.148 93.624 9.524 93.624 8.812C93.624 8.108 93.712 7.488 93.888 6.952C94.064 6.408 94.308 5.952 94.62 5.584C94.94 5.216 95.324 4.94 95.772 4.756C96.22 4.572 96.72 4.48 97.272 4.48C97.824 4.48 98.324 4.572 98.772 4.756C99.22 4.94 99.604 5.216 99.924 5.584C100.244 5.952 100.488 6.408 100.656 6.952C100.832 7.488 100.92 8.108 100.92 8.812C100.92 9.524 100.832 10.148 100.656 10.684C100.488 11.22 100.244 11.672 99.924 12.04C99.604 12.408 99.22 12.684 98.772 12.868C98.324 13.052 97.824 13.144 97.272 13.144ZM97.272 11.74C97.872 11.74 98.348 11.54 98.7 11.14C99.06 10.74 99.24 10.18 99.24 9.46V8.164C99.24 7.444 99.06 6.884 98.7 6.484C98.348 6.084 97.872 5.884 97.272 5.884C96.672 5.884 96.192 6.084 95.832 6.484C95.48 6.884 95.304 7.444 95.304 8.164V9.46C95.304 10.18 95.48 10.74 95.832 11.14C96.192 11.54 96.672 11.74 97.272 11.74ZM105.522 6.028V13H103.938V6.028H101.562V4.624H107.898V6.028H105.522ZM112.19 13.144C111.638 13.144 111.138 13.052 110.69 12.868C110.242 12.684 109.858 12.408 109.538 12.04C109.226 11.672 108.982 11.22 108.806 10.684C108.63 10.148 108.542 9.524 108.542 8.812C108.542 8.108 108.63 7.488 108.806 6.952C108.982 6.408 109.226 5.952 109.538 5.584C109.858 5.216 110.242 4.94 110.69 4.756C111.138 4.572 111.638 4.48 112.19 4.48C112.742 4.48 113.242 4.572 113.69 4.756C114.138 4.94 114.522 5.216 114.842 5.584C115.162 5.952 115.406 6.408 115.574 6.952C115.75 7.488 115.838 8.108 115.838 8.812C115.838 9.524 115.75 10.148 115.574 10.684C115.406 11.22 115.162 11.672 114.842 12.04C114.522 12.408 114.138 12.684 113.69 12.868C113.242 13.052 112.742 13.144 112.19 13.144ZM112.19 11.74C112.79 11.74 113.266 11.54 113.618 11.14C113.978 10.74 114.158 10.18 114.158 9.46V8.164C114.158 7.444 113.978 6.884 113.618 6.484C113.266 6.084 112.79 5.884 112.19 5.884C111.59 5.884 111.11 6.084 110.75 6.484C110.398 6.884 110.222 7.444 110.222 8.164V9.46C110.222 10.18 110.398 10.74 110.75 11.14C111.11 11.54 111.59 11.74 112.19 11.74ZM120.697 13.144C120.145 13.144 119.645 13.056 119.197 12.88C118.757 12.696 118.377 12.424 118.057 12.064C117.745 11.704 117.505 11.26 117.337 10.732C117.169 10.196 117.085 9.576 117.085 8.872C117.085 8.168 117.169 7.544 117.337 7C117.505 6.448 117.745 5.988 118.057 5.62C118.377 5.244 118.757 4.96 119.197 4.768C119.645 4.576 120.145 4.48 120.697 4.48C121.449 4.48 122.073 4.64 122.569 4.96C123.065 5.28 123.461 5.764 123.757 6.412L122.401 7.132C122.281 6.756 122.085 6.456 121.813 6.232C121.541 6 121.169 5.884 120.697 5.884C120.105 5.884 119.633 6.084 119.281 6.484C118.937 6.884 118.765 7.444 118.765 8.164V9.484C118.765 10.212 118.937 10.772 119.281 11.164C119.633 11.548 120.105 11.74 120.697 11.74C121.169 11.74 121.553 11.612 121.849 11.356C122.153 11.1 122.373 10.784 122.509 10.408L123.793 11.164C123.489 11.788 123.085 12.276 122.581 12.628C122.077 12.972 121.449 13.144 120.697 13.144ZM128.28 13.144C127.728 13.144 127.228 13.052 126.78 12.868C126.332 12.684 125.948 12.408 125.628 12.04C125.316 11.672 125.072 11.22 124.896 10.684C124.72 10.148 124.632 9.524 124.632 8.812C124.632 8.108 124.72 7.488 124.896 6.952C125.072 6.408 125.316 5.952 125.628 5.584C125.948 5.216 126.332 4.94 126.78 4.756C127.228 4.572 127.728 4.48 128.28 4.48C128.832 4.48 129.332 4.572 129.78 4.756C130.228 4.94 130.612 5.216 130.932 5.584C131.252 5.952 131.496 6.408 131.664 6.952C131.84 7.488 131.928 8.108 131.928 8.812C131.928 9.524 131.84 10.148 131.664 10.684C131.496 11.22 131.252 11.672 130.932 12.04C130.612 12.408 130.228 12.684 129.78 12.868C129.332 13.052 128.832 13.144 128.28 13.144ZM128.28 11.74C128.88 11.74 129.356 11.54 129.708 11.14C130.068 10.74 130.248 10.18 130.248 9.46V8.164C130.248 7.444 130.068 6.884 129.708 6.484C129.356 6.084 128.88 5.884 128.28 5.884C127.68 5.884 127.2 6.084 126.84 6.484C126.488 6.884 126.312 7.444 126.312 8.164V9.46C126.312 10.18 126.488 10.74 126.84 11.14C127.2 11.54 127.68 11.74 128.28 11.74ZM133.535 13V4.624H135.119V11.596H138.419V13H133.535ZM139.793 13V4.624H145.313V6.028H141.377V8.056H144.857V9.46H141.377V11.596H145.313V13H139.793ZM146.064 14.812L149.508 4.12H150.792L147.348 14.812H146.064ZM67.1891 29.144C66.6371 29.144 66.1371 29.056 65.6891 28.88C65.2491 28.696 64.8691 28.424 64.5491 28.064C64.2371 27.704 63.9971 27.26 63.8291 26.732C63.6611 26.196 63.5771 25.576 63.5771 24.872C63.5771 24.168 63.6611 23.544 63.8291 23C63.9971 22.448 64.2371 21.988 64.5491 21.62C64.8691 21.244 65.2491 20.96 65.6891 20.768C66.1371 20.576 66.6371 20.48 67.1891 20.48C67.9411 20.48 68.5651 20.64 69.0611 20.96C69.5571 21.28 69.9531 21.764 70.2491 22.412L68.8931 23.132C68.7731 22.756 68.5771 22.456 68.3051 22.232C68.0331 22 67.6611 21.884 67.1891 21.884C66.5971 21.884 66.1251 22.084 65.7731 22.484C65.4291 22.884 65.2571 23.444 65.2571 24.164V25.484C65.2571 26.212 65.4291 26.772 65.7731 27.164C66.1251 27.548 66.5971 27.74 67.1891 27.74C67.6611 27.74 68.0451 27.612 68.3411 27.356C68.6451 27.1 68.8651 26.784 69.0011 26.408L70.2851 27.164C69.9811 27.788 69.5771 28.276 69.0731 28.628C68.5691 28.972 67.9411 29.144 67.1891 29.144ZM76.7123 25.46H73.2203V29H71.6363V20.624H73.2203V24.056H76.7123V20.624H78.2963V29H76.7123V25.46ZM83.5493 29.144C82.9973 29.144 82.4973 29.052 82.0493 28.868C81.6013 28.684 81.2173 28.408 80.8973 28.04C80.5853 27.672 80.3413 27.22 80.1653 26.684C79.9893 26.148 79.9013 25.524 79.9013 24.812C79.9013 24.108 79.9893 23.488 80.1653 22.952C80.3413 22.408 80.5853 21.952 80.8973 21.584C81.2173 21.216 81.6013 20.94 82.0493 20.756C82.4973 20.572 82.9973 20.48 83.5493 20.48C84.1013 20.48 84.6013 20.572 85.0493 20.756C85.4973 20.94 85.8813 21.216 86.2013 21.584C86.5213 21.952 86.7653 22.408 86.9333 22.952C87.1093 23.488 87.1973 24.108 87.1973 24.812C87.1973 25.524 87.1093 26.148 86.9333 26.684C86.7653 27.22 86.5213 27.672 86.2013 28.04C85.8813 28.408 85.4973 28.684 85.0493 28.868C84.6013 29.052 84.1013 29.144 83.5493 29.144ZM83.5493 27.74C84.1493 27.74 84.6253 27.54 84.9773 27.14C85.3373 26.74 85.5173 26.18 85.5173 25.46V24.164C85.5173 23.444 85.3373 22.884 84.9773 22.484C84.6253 22.084 84.1493 21.884 83.5493 21.884C82.9493 21.884 82.4693 22.084 82.1093 22.484C81.7573 22.884 81.5813 23.444 81.5813 24.164V25.46C81.5813 26.18 81.7573 26.74 82.1093 27.14C82.4693 27.54 82.9493 27.74 83.5493 27.74ZM88.4563 29V27.728H89.5603V21.896H88.4563V20.624H92.2603V21.896H91.1443V27.728H92.2603V29H88.4563ZM100.539 29H98.6905L96.7705 25.784H96.7345L94.8385 29H93.1105L95.8225 24.704L93.2305 20.624H95.0785L96.8545 23.6H96.8905L98.6905 20.624H100.419L97.8025 24.704L100.539 29ZM107.866 22.028V29H106.282V22.028H103.906V20.624H110.242V22.028H107.866ZM111.539 29V20.624H117.059V22.028H113.123V24.056H116.603V25.46H113.123V27.596H117.059V29H111.539ZM121.986 29.144C121.434 29.144 120.934 29.056 120.486 28.88C120.046 28.696 119.666 28.424 119.346 28.064C119.034 27.704 118.794 27.26 118.626 26.732C118.458 26.196 118.374 25.576 118.374 24.872C118.374 24.168 118.458 23.544 118.626 23C118.794 22.448 119.034 21.988 119.346 21.62C119.666 21.244 120.046 20.96 120.486 20.768C120.934 20.576 121.434 20.48 121.986 20.48C122.738 20.48 123.362 20.64 123.858 20.96C124.354 21.28 124.75 21.764 125.046 22.412L123.69 23.132C123.57 22.756 123.374 22.456 123.102 22.232C122.83 22 122.458 21.884 121.986 21.884C121.394 21.884 120.922 22.084 120.57 22.484C120.226 22.884 120.054 23.444 120.054 24.164V25.484C120.054 26.212 120.226 26.772 120.57 27.164C120.922 27.548 121.394 27.74 121.986 27.74C122.458 27.74 122.842 27.612 123.138 27.356C123.442 27.1 123.662 26.784 123.798 26.408L125.082 27.164C124.778 27.788 124.374 28.276 123.87 28.628C123.366 28.972 122.738 29.144 121.986 29.144ZM131.509 25.46H128.017V29H126.433V20.624H128.017V24.056H131.509V20.624H133.093V29H131.509V25.46ZM137.458 24.704L136.594 22.964H136.558V29H135.058V20.624H136.798L139.318 24.92L140.182 26.66H140.218V20.624H141.718V29H139.978L137.458 24.704ZM146.971 29.144C146.419 29.144 145.919 29.052 145.471 28.868C145.023 28.684 144.639 28.408 144.319 28.04C144.007 27.672 143.763 27.22 143.587 26.684C143.411 26.148 143.323 25.524 143.323 24.812C143.323 24.108 143.411 23.488 143.587 22.952C143.763 22.408 144.007 21.952 144.319 21.584C144.639 21.216 145.023 20.94 145.471 20.756C145.919 20.572 146.419 20.48 146.971 20.48C147.523 20.48 148.023 20.572 148.471 20.756C148.919 20.94 149.303 21.216 149.623 21.584C149.943 21.952 150.187 22.408 150.355 22.952C150.531 23.488 150.619 24.108 150.619 24.812C150.619 25.524 150.531 26.148 150.355 26.684C150.187 27.22 149.943 27.672 149.623 28.04C149.303 28.408 148.919 28.684 148.471 28.868C148.023 29.052 147.523 29.144 146.971 29.144ZM146.971 27.74C147.571 27.74 148.047 27.54 148.399 27.14C148.759 26.74 148.939 26.18 148.939 25.46V24.164C148.939 23.444 148.759 22.884 148.399 22.484C148.047 22.084 147.571 21.884 146.971 21.884C146.371 21.884 145.891 22.084 145.531 22.484C145.179 22.884 145.003 23.444 145.003 24.164V25.46C145.003 26.18 145.179 26.74 145.531 27.14C145.891 27.54 146.371 27.74 146.971 27.74Z" fill="#41637D"/>
<rect x="175.295" y="41.9995" width="83.9895" height="16.7979" fill="#EDEDED"/>
<rect x="175.242" y="41.9995" width="20" height="17" fill="#39A4F5"/>
<rect x="175.242" y="41.9995" width="11" height="17" fill="#1084DD"/>
<path d="M32.9293 47V38.624H38.4493V40.028H34.5133V42.056H37.9933V43.46H34.5133V45.596H38.4493V47H32.9293ZM46.7846 47H44.9366L43.0166 43.784H42.9806L41.0846 47H39.3566L42.0686 42.704L39.4766 38.624H41.3246L43.1006 41.6H43.1366L44.9366 38.624H46.6646L44.0486 42.704L46.7846 47ZM51.2759 40.028V47H49.6919V40.028H47.3159V38.624H53.6519V40.028H51.2759ZM56.5328 47H54.9488V38.624H58.7288C59.1128 38.624 59.4568 38.684 59.7608 38.804C60.0648 38.924 60.3208 39.1 60.5288 39.332C60.7448 39.556 60.9088 39.828 61.0208 40.148C61.1408 40.468 61.2008 40.824 61.2008 41.216C61.2008 41.792 61.0688 42.288 60.8048 42.704C60.5488 43.12 60.1608 43.416 59.6408 43.592L61.3568 47H59.5928L58.0328 43.772H56.5328V47ZM58.5728 42.44C58.8768 42.44 59.1168 42.36 59.2928 42.2C59.4688 42.032 59.5568 41.796 59.5568 41.492V40.94C59.5568 40.636 59.4688 40.404 59.2928 40.244C59.1168 40.084 58.8768 40.004 58.5728 40.004H56.5328V42.44H58.5728ZM68.1016 47L67.4296 44.864H64.4536L63.7936 47H62.1856L64.9936 38.624H66.9616L69.7456 47H68.1016ZM65.9656 40.064H65.9056L64.8376 43.508H67.0456L65.9656 40.064ZM70.6321 47V45.728H71.7361V39.896H70.6321V38.624H74.4361V39.896H73.3201V45.728H74.4361V47H70.6321ZM79.2837 40.028V47H77.6997V40.028H75.3237V38.624H81.6597V40.028H79.2837ZM85.7926 47V38.624H87.3766V45.596H90.6766V47H85.7926ZM97.4453 47L96.7733 44.864H93.7973L93.1373 47H91.5293L94.3373 38.624H96.3053L99.0893 47H97.4453ZM95.3093 40.064H95.2493L94.1813 43.508H96.3893L95.3093 40.064ZM100.324 38.624H104.2C104.544 38.624 104.852 38.676 105.124 38.78C105.404 38.884 105.64 39.028 105.832 39.212C106.024 39.396 106.168 39.624 106.264 39.896C106.368 40.16 106.42 40.452 106.42 40.772C106.42 41.092 106.376 41.364 106.288 41.588C106.208 41.804 106.096 41.984 105.952 42.128C105.816 42.272 105.656 42.38 105.472 42.452C105.296 42.524 105.112 42.564 104.92 42.572V42.644C105.104 42.644 105.3 42.68 105.508 42.752C105.724 42.824 105.92 42.94 106.096 43.1C106.28 43.252 106.432 43.452 106.552 43.7C106.672 43.94 106.732 44.24 106.732 44.6C106.732 44.936 106.676 45.252 106.564 45.548C106.46 45.836 106.312 46.088 106.12 46.304C105.928 46.52 105.7 46.692 105.436 46.82C105.172 46.94 104.884 47 104.572 47H100.324V38.624ZM101.908 45.656H104.116C104.42 45.656 104.656 45.58 104.824 45.428C104.992 45.268 105.076 45.04 105.076 44.744V44.336C105.076 44.04 104.992 43.812 104.824 43.652C104.656 43.492 104.42 43.412 104.116 43.412H101.908V45.656ZM101.908 42.116H103.864C104.152 42.116 104.376 42.04 104.536 41.888C104.696 41.728 104.776 41.508 104.776 41.228V40.856C104.776 40.576 104.696 40.36 104.536 40.208C104.376 40.048 104.152 39.968 103.864 39.968H101.908V42.116ZM111.569 47.144C111.017 47.144 110.517 47.052 110.069 46.868C109.621 46.684 109.237 46.408 108.917 46.04C108.605 45.672 108.361 45.22 108.185 44.684C108.009 44.148 107.921 43.524 107.921 42.812C107.921 42.108 108.009 41.488 108.185 40.952C108.361 40.408 108.605 39.952 108.917 39.584C109.237 39.216 109.621 38.94 110.069 38.756C110.517 38.572 111.017 38.48 111.569 38.48C112.121 38.48 112.621 38.572 113.069 38.756C113.517 38.94 113.901 39.216 114.221 39.584C114.541 39.952 114.785 40.408 114.953 40.952C115.129 41.488 115.217 42.108 115.217 42.812C115.217 43.524 115.129 44.148 114.953 44.684C114.785 45.22 114.541 45.672 114.221 46.04C113.901 46.408 113.517 46.684 113.069 46.868C112.621 47.052 112.121 47.144 111.569 47.144ZM111.569 45.74C112.169 45.74 112.645 45.54 112.997 45.14C113.357 44.74 113.537 44.18 113.537 43.46V42.164C113.537 41.444 113.357 40.884 112.997 40.484C112.645 40.084 112.169 39.884 111.569 39.884C110.969 39.884 110.489 40.084 110.129 40.484C109.777 40.884 109.601 41.444 109.601 42.164V43.46C109.601 44.18 109.777 44.74 110.129 45.14C110.489 45.54 110.969 45.74 111.569 45.74ZM118.736 48.812L122.18 38.12H123.464L120.02 48.812H118.736ZM129.318 47H127.734V38.624H131.514C131.898 38.624 132.242 38.684 132.546 38.804C132.85 38.924 133.106 39.1 133.314 39.332C133.53 39.556 133.694 39.828 133.806 40.148C133.926 40.468 133.986 40.824 133.986 41.216C133.986 41.792 133.854 42.288 133.59 42.704C133.334 43.12 132.946 43.416 132.426 43.592L134.142 47H132.378L130.818 43.772H129.318V47ZM131.358 42.44C131.662 42.44 131.902 42.36 132.078 42.2C132.254 42.032 132.342 41.796 132.342 41.492V40.94C132.342 40.636 132.254 40.404 132.078 40.244C131.902 40.084 131.662 40.004 131.358 40.004H129.318V42.44H131.358ZM140.27 46.232C140.15 46.336 140.014 46.444 139.862 46.556C139.71 46.66 139.534 46.756 139.334 46.844C139.142 46.932 138.922 47.004 138.674 47.06C138.434 47.116 138.162 47.144 137.858 47.144C137.41 47.144 137.01 47.084 136.658 46.964C136.314 46.844 136.026 46.68 135.794 46.472C135.562 46.264 135.386 46.02 135.266 45.74C135.146 45.452 135.086 45.144 135.086 44.816C135.086 44.52 135.13 44.26 135.218 44.036C135.306 43.804 135.426 43.596 135.578 43.412C135.73 43.22 135.91 43.052 136.118 42.908C136.326 42.756 136.546 42.612 136.778 42.476C136.53 42.196 136.31 41.892 136.118 41.564C135.934 41.228 135.842 40.868 135.842 40.484C135.842 40.212 135.898 39.956 136.01 39.716C136.122 39.468 136.282 39.252 136.49 39.068C136.706 38.884 136.962 38.74 137.258 38.636C137.554 38.532 137.886 38.48 138.254 38.48C138.582 38.48 138.886 38.524 139.166 38.612C139.446 38.7 139.686 38.824 139.886 38.984C140.094 39.144 140.254 39.34 140.366 39.572C140.486 39.804 140.546 40.068 140.546 40.364C140.546 40.628 140.498 40.872 140.402 41.096C140.314 41.312 140.19 41.512 140.03 41.696C139.87 41.872 139.686 42.04 139.478 42.2C139.27 42.352 139.046 42.496 138.806 42.632L140.27 44.216C140.382 43.944 140.466 43.656 140.522 43.352C140.586 43.048 140.626 42.744 140.642 42.44H142.526V43.724H141.746C141.626 44.268 141.442 44.764 141.194 45.212L142.85 47H140.966L140.27 46.232ZM138.206 39.668C137.95 39.668 137.738 39.744 137.57 39.896C137.402 40.04 137.318 40.236 137.318 40.484V40.568C137.318 40.752 137.374 40.936 137.486 41.12C137.606 41.296 137.79 41.524 138.038 41.804C138.342 41.62 138.59 41.428 138.782 41.228C138.982 41.028 139.082 40.796 139.082 40.532V40.46C139.082 40.204 138.994 40.008 138.818 39.872C138.65 39.736 138.446 39.668 138.206 39.668ZM138.062 45.86C138.35 45.86 138.61 45.816 138.842 45.728C139.074 45.64 139.278 45.52 139.454 45.368L137.546 43.304C137.266 43.472 137.046 43.652 136.886 43.844C136.734 44.028 136.658 44.264 136.658 44.552V44.684C136.658 45.036 136.778 45.32 137.018 45.536C137.258 45.752 137.606 45.86 138.062 45.86ZM143.953 38.624H147.001C147.545 38.624 148.037 38.712 148.477 38.888C148.925 39.064 149.305 39.328 149.617 39.68C149.937 40.024 150.181 40.46 150.349 40.988C150.525 41.508 150.613 42.116 150.613 42.812C150.613 43.508 150.525 44.12 150.349 44.648C150.181 45.168 149.937 45.604 149.617 45.956C149.305 46.3 148.925 46.56 148.477 46.736C148.037 46.912 147.545 47 147.001 47H143.953V38.624ZM147.001 45.596C147.593 45.596 148.061 45.424 148.405 45.08C148.757 44.728 148.933 44.192 148.933 43.472V42.152C148.933 41.432 148.757 40.9 148.405 40.556C148.061 40.204 147.593 40.028 147.001 40.028H145.537V45.596H147.001ZM34.7827 64.812L38.2267 54.12H39.5107L36.0667 64.812H34.7827ZM43.7809 63V54.624H49.3009V56.028H45.3649V58.056H48.8449V59.46H45.3649V61.596H49.3009V63H43.7809ZM57.6362 63H55.7882L53.8682 59.784H53.8322L51.9362 63H50.2082L52.9202 58.704L50.3282 54.624H52.1762L53.9522 57.6H53.9882L55.7882 54.624H57.5162L54.9002 58.704L57.6362 63ZM62.1275 56.028V63H60.5435V56.028H58.1675V54.624H64.5035V56.028H62.1275ZM67.3844 63H65.8004V54.624H69.5804C69.9644 54.624 70.3084 54.684 70.6124 54.804C70.9164 54.924 71.1724 55.1 71.3804 55.332C71.5964 55.556 71.7604 55.828 71.8724 56.148C71.9924 56.468 72.0524 56.824 72.0524 57.216C72.0524 57.792 71.9204 58.288 71.6564 58.704C71.4004 59.12 71.0124 59.416 70.4924 59.592L72.2084 63H70.4444L68.8844 59.772H67.3844V63ZM69.4244 58.44C69.7284 58.44 69.9684 58.36 70.1444 58.2C70.3204 58.032 70.4084 57.796 70.4084 57.492V56.94C70.4084 56.636 70.3204 56.404 70.1444 56.244C69.9684 56.084 69.7284 56.004 69.4244 56.004H67.3844V58.44H69.4244ZM78.9532 63L78.2812 60.864H75.3052L74.6452 63H73.0372L75.8452 54.624H77.8132L80.5972 63H78.9532ZM76.8172 56.064H76.7572L75.6892 59.508H77.8972L76.8172 56.064ZM84.7673 63.144C84.2153 63.144 83.7153 63.056 83.2673 62.88C82.8273 62.696 82.4473 62.424 82.1273 62.064C81.8153 61.704 81.5753 61.26 81.4073 60.732C81.2393 60.196 81.1553 59.576 81.1553 58.872C81.1553 58.168 81.2393 57.544 81.4073 57C81.5753 56.448 81.8153 55.988 82.1273 55.62C82.4473 55.244 82.8273 54.96 83.2673 54.768C83.7153 54.576 84.2153 54.48 84.7673 54.48C85.5193 54.48 86.1433 54.64 86.6393 54.96C87.1353 55.28 87.5313 55.764 87.8273 56.412L86.4713 57.132C86.3513 56.756 86.1553 56.456 85.8833 56.232C85.6113 56 85.2393 55.884 84.7673 55.884C84.1753 55.884 83.7033 56.084 83.3513 56.484C83.0073 56.884 82.8353 57.444 82.8353 58.164V59.484C82.8353 60.212 83.0073 60.772 83.3513 61.164C83.7033 61.548 84.1753 61.74 84.7673 61.74C85.2393 61.74 85.6233 61.612 85.9193 61.356C86.2233 61.1 86.4433 60.784 86.5793 60.408L87.8633 61.164C87.5593 61.788 87.1553 62.276 86.6513 62.628C86.1473 62.972 85.5193 63.144 84.7673 63.144ZM92.5025 56.028V63H90.9185V56.028H88.5425V54.624H94.8785V56.028H92.5025ZM95.7688 63V61.728H96.8728V55.896H95.7688V54.624H99.5728V55.896H98.4568V61.728H99.5728V63H95.7688ZM104.479 63.144C103.927 63.144 103.427 63.052 102.979 62.868C102.531 62.684 102.147 62.408 101.827 62.04C101.515 61.672 101.271 61.22 101.095 60.684C100.919 60.148 100.831 59.524 100.831 58.812C100.831 58.108 100.919 57.488 101.095 56.952C101.271 56.408 101.515 55.952 101.827 55.584C102.147 55.216 102.531 54.94 102.979 54.756C103.427 54.572 103.927 54.48 104.479 54.48C105.031 54.48 105.531 54.572 105.979 54.756C106.427 54.94 106.811 55.216 107.131 55.584C107.451 55.952 107.695 56.408 107.863 56.952C108.039 57.488 108.127 58.108 108.127 58.812C108.127 59.524 108.039 60.148 107.863 60.684C107.695 61.22 107.451 61.672 107.131 62.04C106.811 62.408 106.427 62.684 105.979 62.868C105.531 63.052 105.031 63.144 104.479 63.144ZM104.479 61.74C105.079 61.74 105.555 61.54 105.907 61.14C106.267 60.74 106.447 60.18 106.447 59.46V58.164C106.447 57.444 106.267 56.884 105.907 56.484C105.555 56.084 105.079 55.884 104.479 55.884C103.879 55.884 103.399 56.084 103.039 56.484C102.687 56.884 102.511 57.444 102.511 58.164V59.46C102.511 60.18 102.687 60.74 103.039 61.14C103.399 61.54 103.879 61.74 104.479 61.74ZM112.134 58.704L111.27 56.964H111.234V63H109.734V54.624H111.474L113.994 58.92L114.858 60.66H114.894V54.624H116.394V63H114.654L112.134 58.704ZM121.195 63V54.624H122.779V61.596H126.079V63H121.195ZM132.848 63L132.176 60.864H129.2L128.54 63H126.932L129.74 54.624H131.708L134.492 63H132.848ZM130.712 56.064H130.652L129.584 59.508H131.792L130.712 56.064ZM135.726 54.624H139.602C139.946 54.624 140.254 54.676 140.526 54.78C140.806 54.884 141.042 55.028 141.234 55.212C141.426 55.396 141.57 55.624 141.666 55.896C141.77 56.16 141.822 56.452 141.822 56.772C141.822 57.092 141.778 57.364 141.69 57.588C141.61 57.804 141.498 57.984 141.354 58.128C141.218 58.272 141.058 58.38 140.874 58.452C140.698 58.524 140.514 58.564 140.322 58.572V58.644C140.506 58.644 140.702 58.68 140.91 58.752C141.126 58.824 141.322 58.94 141.498 59.1C141.682 59.252 141.834 59.452 141.954 59.7C142.074 59.94 142.134 60.24 142.134 60.6C142.134 60.936 142.078 61.252 141.966 61.548C141.862 61.836 141.714 62.088 141.522 62.304C141.33 62.52 141.102 62.692 140.838 62.82C140.574 62.94 140.286 63 139.974 63H135.726V54.624ZM137.31 61.656H139.518C139.822 61.656 140.058 61.58 140.226 61.428C140.394 61.268 140.478 61.04 140.478 60.744V60.336C140.478 60.04 140.394 59.812 140.226 59.652C140.058 59.492 139.822 59.412 139.518 59.412H137.31V61.656ZM137.31 58.116H139.266C139.554 58.116 139.778 58.04 139.938 57.888C140.098 57.728 140.178 57.508 140.178 57.228V56.856C140.178 56.576 140.098 56.36 139.938 56.208C139.778 56.048 139.554 55.968 139.266 55.968H137.31V58.116ZM146.971 63.144C146.419 63.144 145.919 63.052 145.471 62.868C145.023 62.684 144.639 62.408 144.319 62.04C144.007 61.672 143.763 61.22 143.587 60.684C143.411 60.148 143.323 59.524 143.323 58.812C143.323 58.108 143.411 57.488 143.587 56.952C143.763 56.408 144.007 55.952 144.319 55.584C144.639 55.216 145.023 54.94 145.471 54.756C145.919 54.572 146.419 54.48 146.971 54.48C147.523 54.48 148.023 54.572 148.471 54.756C148.919 54.94 149.303 55.216 149.623 55.584C149.943 55.952 150.187 56.408 150.355 56.952C150.531 57.488 150.619 58.108 150.619 58.812C150.619 59.524 150.531 60.148 150.355 60.684C150.187 61.22 149.943 61.672 149.623 62.04C149.303 62.408 148.919 62.684 148.471 62.868C148.023 63.052 147.523 63.144 146.971 63.144ZM146.971 61.74C147.571 61.74 148.047 61.54 148.399 61.14C148.759 60.74 148.939 60.18 148.939 59.46V58.164C148.939 57.444 148.759 56.884 148.399 56.484C148.047 56.084 147.571 55.884 146.971 55.884C146.371 55.884 145.891 56.084 145.531 56.484C145.179 56.884 145.003 57.444 145.003 58.164V59.46C145.003 60.18 145.179 60.74 145.531 61.14C145.891 61.54 146.371 61.74 146.971 61.74Z" fill="#41637D"/>
<rect x="175.295" y="82" width="83.9895" height="16.7979" fill="#EDEDED"/>
<rect x="175.295" y="82" width="17.6378" height="16.7979" fill="#39A4F5"/>
<rect x="175.242" y="82" width="9" height="17" fill="#1084DD"/>
<path d="M1.55822 95V86.624H5.32622C5.71022 86.624 6.05422 86.688 6.35822 86.816C6.67022 86.936 6.93422 87.112 7.15022 87.344C7.36622 87.568 7.53022 87.84 7.64222 88.16C7.75422 88.48 7.81022 88.832 7.81022 89.216C7.81022 89.608 7.75422 89.964 7.64222 90.284C7.53022 90.596 7.36622 90.868 7.15022 91.1C6.93422 91.324 6.67022 91.5 6.35822 91.628C6.05422 91.748 5.71022 91.808 5.32622 91.808H3.14222V95H1.55822ZM3.14222 90.44H5.18222C5.48622 90.44 5.72622 90.36 5.90222 90.2C6.07822 90.032 6.16622 89.796 6.16622 89.492V88.94C6.16622 88.636 6.07822 88.404 5.90222 88.244C5.72622 88.084 5.48622 88.004 5.18222 88.004H3.14222V90.44ZM12.5337 95.144C11.9817 95.144 11.4817 95.052 11.0337 94.868C10.5857 94.684 10.2017 94.408 9.88172 94.04C9.56972 93.672 9.32572 93.22 9.14972 92.684C8.97372 92.148 8.88572 91.524 8.88572 90.812C8.88572 90.108 8.97372 89.488 9.14972 88.952C9.32572 88.408 9.56972 87.952 9.88172 87.584C10.2017 87.216 10.5857 86.94 11.0337 86.756C11.4817 86.572 11.9817 86.48 12.5337 86.48C13.0857 86.48 13.5857 86.572 14.0337 86.756C14.4817 86.94 14.8657 87.216 15.1857 87.584C15.5057 87.952 15.7497 88.408 15.9177 88.952C16.0937 89.488 16.1817 90.108 16.1817 90.812C16.1817 91.524 16.0937 92.148 15.9177 92.684C15.7497 93.22 15.5057 93.672 15.1857 94.04C14.8657 94.408 14.4817 94.684 14.0337 94.868C13.5857 95.052 13.0857 95.144 12.5337 95.144ZM12.5337 93.74C13.1337 93.74 13.6097 93.54 13.9617 93.14C14.3217 92.74 14.5017 92.18 14.5017 91.46V90.164C14.5017 89.444 14.3217 88.884 13.9617 88.484C13.6097 88.084 13.1337 87.884 12.5337 87.884C11.9337 87.884 11.4537 88.084 11.0937 88.484C10.7417 88.884 10.5657 89.444 10.5657 90.164V91.46C10.5657 92.18 10.7417 92.74 11.0937 93.14C11.4537 93.54 11.9337 93.74 12.5337 93.74ZM20.3575 95.144C19.6375 95.144 19.0255 95.016 18.5215 94.76C18.0255 94.504 17.5975 94.168 17.2375 93.752L18.3055 92.72C18.5935 93.056 18.9135 93.312 19.2655 93.488C19.6255 93.664 20.0215 93.752 20.4535 93.752C20.9415 93.752 21.3095 93.648 21.5575 93.44C21.8055 93.224 21.9295 92.936 21.9295 92.576C21.9295 92.296 21.8495 92.068 21.6895 91.892C21.5295 91.716 21.2295 91.588 20.7895 91.508L19.9975 91.388C18.3255 91.124 17.4895 90.312 17.4895 88.952C17.4895 88.576 17.5575 88.236 17.6935 87.932C17.8375 87.628 18.0415 87.368 18.3055 87.152C18.5695 86.936 18.8855 86.772 19.2535 86.66C19.6295 86.54 20.0535 86.48 20.5255 86.48C21.1575 86.48 21.7095 86.584 22.1815 86.792C22.6535 87 23.0575 87.308 23.3935 87.716L22.3135 88.736C22.1055 88.48 21.8535 88.272 21.5575 88.112C21.2615 87.952 20.8895 87.872 20.4415 87.872C19.9855 87.872 19.6415 87.96 19.4095 88.136C19.1855 88.304 19.0735 88.544 19.0735 88.856C19.0735 89.176 19.1655 89.412 19.3495 89.564C19.5335 89.716 19.8295 89.828 20.2375 89.9L21.0175 90.044C21.8655 90.196 22.4895 90.468 22.8895 90.86C23.2975 91.244 23.5015 91.784 23.5015 92.48C23.5015 92.88 23.4295 93.244 23.2855 93.572C23.1495 93.892 22.9455 94.172 22.6735 94.412C22.4095 94.644 22.0815 94.824 21.6895 94.952C21.3055 95.08 20.8615 95.144 20.3575 95.144ZM28.1431 88.028V95H26.5591V88.028H24.1831V86.624H30.5191V88.028H28.1431ZM30.9773 92.108V90.584H34.4093V92.108H30.9773ZM38.8306 88.028V95H37.2466V88.028H34.8706V86.624H41.2066V88.028H38.8306ZM44.0875 95H42.5035V86.624H46.2835C46.6675 86.624 47.0115 86.684 47.3155 86.804C47.6195 86.924 47.8755 87.1 48.0835 87.332C48.2995 87.556 48.4635 87.828 48.5755 88.148C48.6955 88.468 48.7555 88.824 48.7555 89.216C48.7555 89.792 48.6235 90.288 48.3595 90.704C48.1035 91.12 47.7155 91.416 47.1955 91.592L48.9115 95H47.1475L45.5875 91.772H44.0875V95ZM46.1275 90.44C46.4315 90.44 46.6715 90.36 46.8475 90.2C47.0235 90.032 47.1115 89.796 47.1115 89.492V88.94C47.1115 88.636 47.0235 88.404 46.8475 88.244C46.6715 88.084 46.4315 88.004 46.1275 88.004H44.0875V90.44H46.1275ZM55.6563 95L54.9843 92.864H52.0083L51.3483 95H49.7403L52.5483 86.624H54.5163L57.3003 95H55.6563ZM53.5203 88.064H53.4603L52.3923 91.508H54.6003L53.5203 88.064ZM58.1868 95V93.728H59.2908V87.896H58.1868V86.624H61.9908V87.896H60.8748V93.728H61.9908V95H58.1868ZM66.8384 88.028V95H65.2544V88.028H62.8784V86.624H69.2144V88.028H66.8384ZM70.5113 95V86.624H76.0313V88.028H72.0953V90.056H75.5753V91.46H72.0953V93.596H76.0313V95H70.5113ZM84.0307 88.988H83.9827L83.3347 90.32L81.6187 93.488L79.9027 90.32L79.2547 88.988H79.2067V95H77.7067V86.624H79.4947L81.6427 90.716H81.6907L83.8147 86.624H85.5307V95H84.0307V88.988ZM87.5035 95V86.624H93.0235V88.028H89.0875V90.056H92.5675V91.46H89.0875V93.596H93.0235V95H87.5035ZM97.0988 90.704L96.2348 88.964H96.1988V95H94.6988V86.624H96.4388L98.9588 90.92L99.8228 92.66H99.8588V86.624H101.359V95H99.6188L97.0988 90.704ZM106.612 88.028V95H105.028V88.028H102.652V86.624H108.988V88.028H106.612ZM112.197 96.812L115.641 86.12H116.925L113.481 96.812H112.197ZM121.195 95V86.624H122.779V93.596H126.079V95H121.195ZM132.848 95L132.176 92.864H129.2L128.54 95H126.932L129.74 86.624H131.708L134.492 95H132.848ZM130.712 88.064H130.652L129.584 91.508H131.792L130.712 88.064ZM135.726 86.624H139.602C139.946 86.624 140.254 86.676 140.526 86.78C140.806 86.884 141.042 87.028 141.234 87.212C141.426 87.396 141.57 87.624 141.666 87.896C141.77 88.16 141.822 88.452 141.822 88.772C141.822 89.092 141.778 89.364 141.69 89.588C141.61 89.804 141.498 89.984 141.354 90.128C141.218 90.272 141.058 90.38 140.874 90.452C140.698 90.524 140.514 90.564 140.322 90.572V90.644C140.506 90.644 140.702 90.68 140.91 90.752C141.126 90.824 141.322 90.94 141.498 91.1C141.682 91.252 141.834 91.452 141.954 91.7C142.074 91.94 142.134 92.24 142.134 92.6C142.134 92.936 142.078 93.252 141.966 93.548C141.862 93.836 141.714 94.088 141.522 94.304C141.33 94.52 141.102 94.692 140.838 94.82C140.574 94.94 140.286 95 139.974 95H135.726V86.624ZM137.31 93.656H139.518C139.822 93.656 140.058 93.58 140.226 93.428C140.394 93.268 140.478 93.04 140.478 92.744V92.336C140.478 92.04 140.394 91.812 140.226 91.652C140.058 91.492 139.822 91.412 139.518 91.412H137.31V93.656ZM137.31 90.116H139.266C139.554 90.116 139.778 90.04 139.938 89.888C140.098 89.728 140.178 89.508 140.178 89.228V88.856C140.178 88.576 140.098 88.36 139.938 88.208C139.778 88.048 139.554 87.968 139.266 87.968H137.31V90.116ZM146.971 95.144C146.419 95.144 145.919 95.052 145.471 94.868C145.023 94.684 144.639 94.408 144.319 94.04C144.007 93.672 143.763 93.22 143.587 92.684C143.411 92.148 143.323 91.524 143.323 90.812C143.323 90.108 143.411 89.488 143.587 88.952C143.763 88.408 144.007 87.952 144.319 87.584C144.639 87.216 145.023 86.94 145.471 86.756C145.919 86.572 146.419 86.48 146.971 86.48C147.523 86.48 148.023 86.572 148.471 86.756C148.919 86.94 149.303 87.216 149.623 87.584C149.943 87.952 150.187 88.408 150.355 88.952C150.531 89.488 150.619 90.108 150.619 90.812C150.619 91.524 150.531 92.148 150.355 92.684C150.187 93.22 149.943 93.672 149.623 94.04C149.303 94.408 148.919 94.684 148.471 94.868C148.023 95.052 147.523 95.144 146.971 95.144ZM146.971 93.74C147.571 93.74 148.047 93.54 148.399 93.14C148.759 92.74 148.939 92.18 148.939 91.46V90.164C148.939 89.444 148.759 88.884 148.399 88.484C148.047 88.084 147.571 87.884 146.971 87.884C146.371 87.884 145.891 88.084 145.531 88.484C145.179 88.884 145.003 89.444 145.003 90.164V91.46C145.003 92.18 145.179 92.74 145.531 93.14C145.891 93.54 146.371 93.74 146.971 93.74Z" fill="#41637D"/>
<rect x="175.295" y="164" width="83.9895" height="16.7979" fill="#EDEDED"/>
<rect x="175.242" y="164.202" width="22" height="17" fill="#39A4F5"/>
<path d="M44.5865 170.028V177H43.0025V170.028H40.6265V168.624H46.9625V170.028H44.5865ZM48.2594 177V168.624H53.7794V170.028H49.8434V172.056H53.3234V173.46H49.8434V175.596H53.7794V177H48.2594ZM58.0587 177.144C57.3387 177.144 56.7267 177.016 56.2227 176.76C55.7267 176.504 55.2987 176.168 54.9387 175.752L56.0067 174.72C56.2947 175.056 56.6147 175.312 56.9667 175.488C57.3267 175.664 57.7227 175.752 58.1547 175.752C58.6427 175.752 59.0107 175.648 59.2587 175.44C59.5067 175.224 59.6307 174.936 59.6307 174.576C59.6307 174.296 59.5507 174.068 59.3907 173.892C59.2307 173.716 58.9307 173.588 58.4907 173.508L57.6987 173.388C56.0267 173.124 55.1907 172.312 55.1907 170.952C55.1907 170.576 55.2587 170.236 55.3947 169.932C55.5387 169.628 55.7427 169.368 56.0067 169.152C56.2707 168.936 56.5867 168.772 56.9547 168.66C57.3307 168.54 57.7547 168.48 58.2267 168.48C58.8587 168.48 59.4107 168.584 59.8827 168.792C60.3547 169 60.7587 169.308 61.0947 169.716L60.0147 170.736C59.8067 170.48 59.5547 170.272 59.2587 170.112C58.9627 169.952 58.5907 169.872 58.1427 169.872C57.6867 169.872 57.3427 169.96 57.1107 170.136C56.8867 170.304 56.7747 170.544 56.7747 170.856C56.7747 171.176 56.8667 171.412 57.0507 171.564C57.2347 171.716 57.5307 171.828 57.9387 171.9L58.7187 172.044C59.5667 172.196 60.1907 172.468 60.5907 172.86C60.9987 173.244 61.2027 173.784 61.2027 174.48C61.2027 174.88 61.1307 175.244 60.9867 175.572C60.8507 175.892 60.6467 176.172 60.3747 176.412C60.1107 176.644 59.7827 176.824 59.3907 176.952C59.0067 177.08 58.5627 177.144 58.0587 177.144ZM65.8443 170.028V177H64.2603V170.028H61.8843V168.624H68.2203V170.028H65.8443ZM72.3531 168.624H75.4011C75.9451 168.624 76.4371 168.712 76.8771 168.888C77.3251 169.064 77.7051 169.328 78.0171 169.68C78.3371 170.024 78.5811 170.46 78.7491 170.988C78.9251 171.508 79.0131 172.116 79.0131 172.812C79.0131 173.508 78.9251 174.12 78.7491 174.648C78.5811 175.168 78.3371 175.604 78.0171 175.956C77.7051 176.3 77.3251 176.56 76.8771 176.736C76.4371 176.912 75.9451 177 75.4011 177H72.3531V168.624ZM75.4011 175.596C75.9931 175.596 76.4611 175.424 76.8051 175.08C77.1571 174.728 77.3331 174.192 77.3331 173.472V172.152C77.3331 171.432 77.1571 170.9 76.8051 170.556C76.4611 170.204 75.9931 170.028 75.4011 170.028H73.9371V175.596H75.4011ZM81.161 168C81.489 168 81.725 168.08 81.869 168.24C82.021 168.392 82.097 168.584 82.097 168.816V169.044C82.097 169.26 82.065 169.48 82.001 169.704C81.945 169.92 81.861 170.132 81.749 170.34C81.637 170.548 81.505 170.744 81.353 170.928C81.201 171.112 81.037 171.276 80.861 171.42H79.829C80.085 171.18 80.301 170.94 80.477 170.7C80.653 170.452 80.785 170.18 80.873 169.884C80.641 169.844 80.473 169.752 80.369 169.608C80.265 169.456 80.213 169.28 80.213 169.08V168.816C80.213 168.584 80.285 168.392 80.429 168.24C80.581 168.08 80.825 168 81.161 168ZM83.861 177V168.624H89.381V170.028H85.445V172.056H88.925V173.46H85.445V175.596H89.381V177H83.861ZM91.0563 177V168.624H96.4443V170.028H92.6403V172.056H95.9523V173.46H92.6403V177H91.0563ZM97.982 177V168.624H103.37V170.028H99.566V172.056H102.878V173.46H99.566V177H97.982ZM104.56 177V175.728H105.664V169.896H104.56V168.624H108.364V169.896H107.248V175.728H108.364V177H104.56ZM113.234 177.144C112.682 177.144 112.182 177.056 111.734 176.88C111.294 176.696 110.914 176.424 110.594 176.064C110.282 175.704 110.042 175.26 109.874 174.732C109.706 174.196 109.622 173.576 109.622 172.872C109.622 172.168 109.706 171.544 109.874 171C110.042 170.448 110.282 169.988 110.594 169.62C110.914 169.244 111.294 168.96 111.734 168.768C112.182 168.576 112.682 168.48 113.234 168.48C113.986 168.48 114.61 168.64 115.106 168.96C115.602 169.28 115.998 169.764 116.294 170.412L114.938 171.132C114.818 170.756 114.622 170.456 114.35 170.232C114.078 170 113.706 169.884 113.234 169.884C112.642 169.884 112.17 170.084 111.818 170.484C111.474 170.884 111.302 171.444 111.302 172.164V173.484C111.302 174.212 111.474 174.772 111.818 175.164C112.17 175.548 112.642 175.74 113.234 175.74C113.706 175.74 114.09 175.612 114.386 175.356C114.69 175.1 114.91 174.784 115.046 174.408L116.33 175.164C116.026 175.788 115.622 176.276 115.118 176.628C114.614 176.972 113.986 177.144 113.234 177.144ZM122.795 177L122.123 174.864H119.147L118.487 177H116.879L119.687 168.624H121.655L124.439 177H122.795ZM120.659 170.064H120.599L119.531 173.508H121.739L120.659 170.064ZM128.609 177.144C128.057 177.144 127.557 177.056 127.109 176.88C126.669 176.696 126.289 176.424 125.969 176.064C125.657 175.704 125.417 175.26 125.249 174.732C125.081 174.196 124.997 173.576 124.997 172.872C124.997 172.168 125.081 171.544 125.249 171C125.417 170.448 125.657 169.988 125.969 169.62C126.289 169.244 126.669 168.96 127.109 168.768C127.557 168.576 128.057 168.48 128.609 168.48C129.361 168.48 129.985 168.64 130.481 168.96C130.977 169.28 131.373 169.764 131.669 170.412L130.313 171.132C130.193 170.756 129.997 170.456 129.725 170.232C129.453 170 129.081 169.884 128.609 169.884C128.017 169.884 127.545 170.084 127.193 170.484C126.849 170.884 126.677 171.444 126.677 172.164V173.484C126.677 174.212 126.849 174.772 127.193 175.164C127.545 175.548 128.017 175.74 128.609 175.74C129.081 175.74 129.465 175.612 129.761 175.356C130.065 175.1 130.285 174.784 130.421 174.408L131.705 175.164C131.401 175.788 130.997 176.276 130.493 176.628C129.989 176.972 129.361 177.144 128.609 177.144ZM132.708 177V175.728H133.812V169.896H132.708V168.624H136.512V169.896H135.396V175.728H136.512V177H132.708ZM141.36 170.028V177H139.776V170.028H137.4V168.624H143.736V170.028H141.36ZM145.033 177V168.624H150.553V170.028H146.617V172.056H150.097V173.46H146.617V175.596H150.553V177H145.033ZM147.949 168.072L147.025 167.616L148.165 165.372L149.461 166.02L147.949 168.072Z" fill="#41637D"/>
<rect x="175.295" y="123" width="83.9895" height="16.7979" fill="#EDEDED"/>
<rect x="175.242" y="123" width="18" height="17" fill="#39A4F5"/>
<path d="M20.152 136.548C19.6 136.548 19.1 136.46 18.652 136.284C18.212 136.1 17.832 135.828 17.512 135.468C17.2 135.108 16.96 134.664 16.792 134.136C16.624 133.6 16.54 132.98 16.54 132.276C16.54 131.572 16.624 130.948 16.792 130.404C16.96 129.852 17.2 129.392 17.512 129.024C17.832 128.648 18.212 128.364 18.652 128.172C19.1 127.98 19.6 127.884 20.152 127.884C20.904 127.884 21.528 128.044 22.024 128.364C22.52 128.684 22.916 129.168 23.212 129.816L21.856 130.536C21.736 130.16 21.54 129.86 21.268 129.636C20.996 129.404 20.624 129.288 20.152 129.288C19.56 129.288 19.088 129.488 18.736 129.888C18.392 130.288 18.22 130.848 18.22 131.568V132.888C18.22 133.616 18.392 134.176 18.736 134.568C19.088 134.952 19.56 135.144 20.152 135.144C20.624 135.144 21.008 135.016 21.304 134.76C21.608 134.504 21.828 134.188 21.964 133.812L23.248 134.568C22.944 135.192 22.54 135.68 22.036 136.032C21.532 136.376 20.904 136.548 20.152 136.548ZM29.7129 136.404L29.0409 134.268H26.0649L25.4049 136.404H23.7969L26.6049 128.028H28.5729L31.3569 136.404H29.7129ZM27.5769 129.468H27.5169L26.4489 132.912H28.6569L27.5769 129.468ZM34.1754 136.404H32.5914V128.028H36.3714C36.7554 128.028 37.0994 128.088 37.4034 128.208C37.7074 128.328 37.9634 128.504 38.1714 128.736C38.3874 128.96 38.5514 129.232 38.6634 129.552C38.7834 129.872 38.8434 130.228 38.8434 130.62C38.8434 131.196 38.7114 131.692 38.4474 132.108C38.1914 132.524 37.8034 132.82 37.2834 132.996L38.9994 136.404H37.2354L35.6754 133.176H34.1754V136.404ZM36.2154 131.844C36.5194 131.844 36.7594 131.764 36.9354 131.604C37.1114 131.436 37.1994 131.2 37.1994 130.896V130.344C37.1994 130.04 37.1114 129.808 36.9354 129.648C36.7594 129.488 36.5194 129.408 36.2154 129.408H34.1754V131.844H36.2154ZM45.7442 136.404L45.0722 134.268H42.0962L41.4362 136.404H39.8282L42.6362 128.028H44.6042L47.3882 136.404H45.7442ZM43.6082 129.468H43.5482L42.4802 132.912H44.6882L43.6082 129.468ZM51.5583 136.548C51.0063 136.548 50.5063 136.46 50.0583 136.284C49.6183 136.1 49.2383 135.828 48.9183 135.468C48.6063 135.108 48.3663 134.664 48.1983 134.136C48.0303 133.6 47.9463 132.98 47.9463 132.276C47.9463 131.572 48.0303 130.948 48.1983 130.404C48.3663 129.852 48.6063 129.392 48.9183 129.024C49.2383 128.648 49.6183 128.364 50.0583 128.172C50.5063 127.98 51.0063 127.884 51.5583 127.884C52.3103 127.884 52.9343 128.044 53.4303 128.364C53.9263 128.684 54.3223 129.168 54.6183 129.816L53.2623 130.536C53.1423 130.16 52.9463 129.86 52.6743 129.636C52.4023 129.404 52.0303 129.288 51.5583 129.288C50.9663 129.288 50.4943 129.488 50.1423 129.888C49.7983 130.288 49.6263 130.848 49.6263 131.568V132.888C49.6263 133.616 49.7983 134.176 50.1423 134.568C50.4943 134.952 50.9663 135.144 51.5583 135.144C52.0303 135.144 52.4143 135.016 52.7103 134.76C53.0143 134.504 53.2343 134.188 53.3703 133.812L54.6543 134.568C54.3503 135.192 53.9463 135.68 53.4423 136.032C52.9383 136.376 52.3103 136.548 51.5583 136.548ZM59.2935 129.432V136.404H57.7095V129.432H55.3335V128.028H61.6695V129.432H59.2935ZM62.9664 136.404V128.028H68.4864V129.432H64.5504V131.46H68.0304V132.864H64.5504V135H68.4864V136.404H62.9664ZM65.8824 127.476L64.9584 127.02L66.0984 124.776L67.3944 125.424L65.8824 127.476ZM71.7457 136.404H70.1617V128.028H73.9417C74.3257 128.028 74.6697 128.088 74.9737 128.208C75.2777 128.328 75.5337 128.504 75.7417 128.736C75.9577 128.96 76.1217 129.232 76.2337 129.552C76.3537 129.872 76.4137 130.228 76.4137 130.62C76.4137 131.196 76.2817 131.692 76.0177 132.108C75.7617 132.524 75.3737 132.82 74.8537 132.996L76.5697 136.404H74.8057L73.2457 133.176H71.7457V136.404ZM73.7857 131.844C74.0897 131.844 74.3297 131.764 74.5057 131.604C74.6817 131.436 74.7697 131.2 74.7697 130.896V130.344C74.7697 130.04 74.6817 129.808 74.5057 129.648C74.3297 129.488 74.0897 129.408 73.7857 129.408H71.7457V131.844H73.7857ZM77.7825 136.404V135.132H78.8865V129.3H77.7825V128.028H81.5865V129.3H80.4705V135.132H81.5865V136.404H77.7825ZM85.8087 136.548C85.0887 136.548 84.4767 136.42 83.9727 136.164C83.4767 135.908 83.0487 135.572 82.6887 135.156L83.7567 134.124C84.0447 134.46 84.3647 134.716 84.7167 134.892C85.0767 135.068 85.4727 135.156 85.9047 135.156C86.3927 135.156 86.7607 135.052 87.0087 134.844C87.2567 134.628 87.3807 134.34 87.3807 133.98C87.3807 133.7 87.3007 133.472 87.1407 133.296C86.9807 133.12 86.6807 132.992 86.2407 132.912L85.4487 132.792C83.7767 132.528 82.9407 131.716 82.9407 130.356C82.9407 129.98 83.0087 129.64 83.1447 129.336C83.2887 129.032 83.4927 128.772 83.7567 128.556C84.0207 128.34 84.3367 128.176 84.7047 128.064C85.0807 127.944 85.5047 127.884 85.9767 127.884C86.6087 127.884 87.1607 127.988 87.6327 128.196C88.1047 128.404 88.5087 128.712 88.8447 129.12L87.7647 130.14C87.5567 129.884 87.3047 129.676 87.0087 129.516C86.7127 129.356 86.3407 129.276 85.8927 129.276C85.4367 129.276 85.0927 129.364 84.8607 129.54C84.6367 129.708 84.5247 129.948 84.5247 130.26C84.5247 130.58 84.6167 130.816 84.8007 130.968C84.9847 131.12 85.2807 131.232 85.6887 131.304L86.4687 131.448C87.3167 131.6 87.9407 131.872 88.3407 132.264C88.7487 132.648 88.9527 133.188 88.9527 133.884C88.9527 134.284 88.8807 134.648 88.7367 134.976C88.6007 135.296 88.3967 135.576 88.1247 135.816C87.8607 136.048 87.5327 136.228 87.1407 136.356C86.7567 136.484 86.3127 136.548 85.8087 136.548ZM90.5406 136.404V128.028H96.0606V129.432H92.1246V131.46H95.6046V132.864H92.1246V135H96.0606V136.404H90.5406ZM99.32 136.404H97.736V128.028H101.516C101.9 128.028 102.244 128.088 102.548 128.208C102.852 128.328 103.108 128.504 103.316 128.736C103.532 128.96 103.696 129.232 103.808 129.552C103.928 129.872 103.988 130.228 103.988 130.62C103.988 131.196 103.856 131.692 103.592 132.108C103.336 132.524 102.948 132.82 102.428 132.996L104.144 136.404H102.38L100.82 133.176H99.32V136.404ZM101.36 131.844C101.664 131.844 101.904 131.764 102.08 131.604C102.256 131.436 102.344 131.2 102.344 130.896V130.344C102.344 130.04 102.256 129.808 102.08 129.648C101.904 129.488 101.664 129.408 101.36 129.408H99.32V131.844H101.36ZM108.541 136.404V128.028H110.125V135H113.425V136.404H108.541ZM114.677 127.404C115.005 127.404 115.241 127.484 115.385 127.644C115.537 127.796 115.613 127.988 115.613 128.22V128.448C115.613 128.664 115.581 128.884 115.517 129.108C115.461 129.324 115.377 129.536 115.265 129.744C115.153 129.952 115.021 130.148 114.869 130.332C114.717 130.516 114.553 130.68 114.377 130.824H113.345C113.601 130.584 113.817 130.344 113.993 130.104C114.169 129.856 114.301 129.584 114.389 129.288C114.157 129.248 113.989 129.156 113.885 129.012C113.781 128.86 113.729 128.684 113.729 128.484V128.22C113.729 127.988 113.801 127.796 113.945 127.644C114.097 127.484 114.341 127.404 114.677 127.404ZM117.377 136.404V128.028H122.897V129.432H118.961V131.46H122.441V132.864H118.961V135H122.897V136.404H117.377ZM127.176 136.548C126.456 136.548 125.844 136.42 125.34 136.164C124.844 135.908 124.416 135.572 124.056 135.156L125.124 134.124C125.412 134.46 125.732 134.716 126.084 134.892C126.444 135.068 126.84 135.156 127.272 135.156C127.76 135.156 128.128 135.052 128.376 134.844C128.624 134.628 128.748 134.34 128.748 133.98C128.748 133.7 128.668 133.472 128.508 133.296C128.348 133.12 128.048 132.992 127.608 132.912L126.816 132.792C125.144 132.528 124.308 131.716 124.308 130.356C124.308 129.98 124.376 129.64 124.512 129.336C124.656 129.032 124.86 128.772 125.124 128.556C125.388 128.34 125.704 128.176 126.072 128.064C126.448 127.944 126.872 127.884 127.344 127.884C127.976 127.884 128.528 127.988 129 128.196C129.472 128.404 129.876 128.712 130.212 129.12L129.132 130.14C128.924 129.884 128.672 129.676 128.376 129.516C128.08 129.356 127.708 129.276 127.26 129.276C126.804 129.276 126.46 129.364 126.228 129.54C126.004 129.708 125.892 129.948 125.892 130.26C125.892 130.58 125.984 130.816 126.168 130.968C126.352 131.12 126.648 131.232 127.056 131.304L127.836 131.448C128.684 131.6 129.308 131.872 129.708 132.264C130.116 132.648 130.32 133.188 130.32 133.884C130.32 134.284 130.248 134.648 130.104 134.976C129.968 135.296 129.764 135.576 129.492 135.816C129.228 136.048 128.9 136.228 128.508 136.356C128.124 136.484 127.68 136.548 127.176 136.548ZM134.359 136.548C133.639 136.548 133.027 136.42 132.523 136.164C132.027 135.908 131.599 135.572 131.239 135.156L132.307 134.124C132.595 134.46 132.915 134.716 133.267 134.892C133.627 135.068 134.023 135.156 134.455 135.156C134.943 135.156 135.311 135.052 135.559 134.844C135.807 134.628 135.931 134.34 135.931 133.98C135.931 133.7 135.851 133.472 135.691 133.296C135.531 133.12 135.231 132.992 134.791 132.912L133.999 132.792C132.327 132.528 131.491 131.716 131.491 130.356C131.491 129.98 131.559 129.64 131.695 129.336C131.839 129.032 132.043 128.772 132.307 128.556C132.571 128.34 132.887 128.176 133.255 128.064C133.631 127.944 134.055 127.884 134.527 127.884C135.159 127.884 135.711 127.988 136.183 128.196C136.655 128.404 137.059 128.712 137.395 129.12L136.315 130.14C136.107 129.884 135.855 129.676 135.559 129.516C135.263 129.356 134.891 129.276 134.443 129.276C133.987 129.276 133.643 129.364 133.411 129.54C133.187 129.708 133.075 129.948 133.075 130.26C133.075 130.58 133.167 130.816 133.351 130.968C133.535 131.12 133.831 131.232 134.239 131.304L135.019 131.448C135.867 131.6 136.491 131.872 136.891 132.264C137.299 132.648 137.503 133.188 137.503 133.884C137.503 134.284 137.431 134.648 137.287 134.976C137.151 135.296 136.947 135.576 136.675 135.816C136.411 136.048 136.083 136.228 135.691 136.356C135.307 136.484 134.863 136.548 134.359 136.548ZM144.275 136.404L143.603 134.268H140.627L139.967 136.404H138.359L141.167 128.028H143.135L145.919 136.404H144.275ZM142.139 129.468H142.079L141.011 132.912H143.219L142.139 129.468ZM146.806 136.404V135.132H147.91V129.3H146.806V128.028H150.61V129.3H149.494V135.132H150.61V136.404H146.806Z" fill="#41637D"/>
<line x1="175.715" y1="1.64788e-08" x2="175.715" y2="190" stroke="#41637D" stroke-width="0.839895"/>
<line x1="217.709" y1="1.64788e-08" x2="217.709" y2="190" stroke="#41637D" stroke-width="0.839895"/>
<line x1="259.705" y1="1.64788e-08" x2="259.705" y2="190" stroke="#41637D" stroke-width="0.839895"/>
</svg>
