<svg width="25" height="25" viewBox="0 0 25 25" fill="none" xmlns="http://www.w3.org/2000/svg">
<path d="M12.5 0.631226C5.95025 0.631226 0.625 6.00973 0.625 12.625C0.625 19.2402 5.95025 24.6187 12.5 24.6187C19.0498 24.6187 24.375 19.2402 24.375 12.625C24.375 6.00973 19.0498 0.631226 12.5 0.631226ZM13.7998 14.569V17.8515C13.7998 18.2046 13.5244 18.4827 13.1748 18.4827H11.7998C11.4502 18.4827 11.1748 18.2046 11.1748 17.8515V14.569C11.1748 14.2159 10.8994 13.9377 10.5498 13.9377H7.2998C6.9502 13.9377 6.6748 13.6596 6.6748 13.3065V11.9177C6.6748 11.5646 6.9502 11.2865 7.2998 11.2865H10.5498C10.8994 11.2865 11.1748 11.0083 11.1748 10.6552V7.37272C11.1748 7.01963 11.4502 6.74147 11.7998 6.74147H13.1748C13.5244 6.74147 13.7998 7.01963 13.7998 7.37272V10.6552C13.7998 11.0083 14.0752 11.2865 14.4248 11.2865H17.6748C18.0244 11.2865 18.2998 11.5646 18.2998 11.9177V13.3065C18.2998 13.6596 18.0244 13.9377 17.6748 13.9377H14.4248C14.0752 13.9377 13.7998 14.2159 13.7998 14.569Z" fill="#1084DD"/>
</svg>
