<svg width="25" height="25" viewBox="0 0 25 25" fill="none" xmlns="http://www.w3.org/2000/svg">
<path fill-rule="evenodd" clip-rule="evenodd" d="M0.625 12.5C0.625 5.95025 5.95025 0.625 12.5 0.625C19.0498 0.625 24.375 5.95025 24.375 12.5C24.375 19.0497 19.0498 24.375 12.5 24.375C5.95025 24.375 0.625 19.0497 0.625 12.5ZM7.2998 13.7998H10.5498H14.4248H17.6748C18.0244 13.7998 18.2998 13.5244 18.2998 13.1748V11.7998C18.2998 11.4502 18.0244 11.1748 17.6748 11.1748H14.4248H10.5498H7.2998C6.9502 11.1748 6.6748 11.4502 6.6748 11.7998V13.1748C6.6748 13.5244 6.9502 13.7998 7.2998 13.7998Z" fill="#39A4F5"/>
</svg>
