<svg width="20" height="20" viewBox="0 0 20 20" fill="none" xmlns="http://www.w3.org/2000/svg">
<path d="M10 0.5C7.4804 0.5 5.064 1.50078 3.2828 3.2828C1.50076 5.06404 0.5 7.4804 0.5 10C0.5 12.5196 1.50078 14.936 3.2828 16.7172C5.06404 18.4992 7.4804 19.5 10 19.5C12.5196 19.5 14.936 18.4992 16.7172 16.7172C18.4992 14.936 19.5 12.5196 19.5 10C19.5 7.4804 18.4992 5.064 16.7172 3.2828C14.936 1.50076 12.5196 0.5 10 0.5ZM10 15L8.58204 13.582L11.2524 10.9116H5.00004V9.0882H11.2524L8.58204 6.4178L10 4.99984L15 9.99984L10 15Z" fill="#8A898B"/>
</svg>
