<svg width="18" height="18" viewBox="0 0 18 18" fill="none" xmlns="http://www.w3.org/2000/svg">
<g clip-path="url(#clip0)">
<path d="M17.9957 17.2863V17.2856H18V10.9459C18 7.84442 17.3324 5.45532 13.7066 5.45532C11.9636 5.45532 10.7939 6.41183 10.3163 7.31863H10.2659V5.74487H6.82812V17.2856H10.4078V11.571C10.4078 10.0664 10.693 8.6115 12.5563 8.6115C14.3923 8.6115 14.4196 10.3286 14.4196 11.6676V17.2863H17.9957Z" fill="#7DAED3"/>
<path d="M0.999023 5.74536H4.58303V17.286H0.999023V5.74536Z" fill="#7DAED3"/>
<path d="M2.78965 0C1.64372 0 0.713867 0.929852 0.713867 2.07578C0.713867 3.22171 1.64372 4.17101 2.78965 4.17101C3.93558 4.17101 4.86543 3.22171 4.86543 2.07578C4.86471 0.929852 3.93486 0 2.78965 0V0Z" fill="#7DAED3"/>
</g>
<defs>
<clipPath id="clip0">
<rect width="17.2862" height="17.2862" fill="white" transform="translate(0.713867)"/>
</clipPath>
</defs>
</svg>
