<svg width="21" height="16" viewBox="0 0 21 16" fill="none" xmlns="http://www.w3.org/2000/svg">
<path d="M20.3827 2.50673C19.6635 2.80853 18.8918 3.0132 18.0809 3.10458C18.9088 2.63509 19.5426 1.89041 19.8429 1.00579C19.0664 1.44057 18.2091 1.75627 17.2958 1.92742C16.5644 1.18851 15.524 0.728271 14.3701 0.728271C12.1562 0.728271 10.3613 2.42811 10.3613 4.52342C10.3613 4.82059 10.3967 5.11084 10.4651 5.38839C7.13397 5.22994 4.1802 3.7186 2.20328 1.42206C1.8577 1.98175 1.66111 2.63391 1.66111 3.33006C1.66111 4.64715 2.36934 5.80929 3.4439 6.4892C2.78695 6.4684 2.16908 6.29726 1.62816 6.01278V6.0602C1.62816 7.8988 3.01042 9.43327 4.84325 9.78251C4.50744 9.86808 4.15334 9.91549 3.78702 9.91549C3.52816 9.91549 3.27783 9.89121 3.03239 9.84495C3.54279 11.354 5.02276 12.4514 6.77623 12.4814C5.40495 13.499 3.6759 14.1038 1.7979 14.1038C1.47432 14.1038 1.1556 14.0853 0.841797 14.0518C2.61603 15.1307 4.72239 15.7597 6.98627 15.7597C14.3603 15.7597 18.3911 9.97563 18.3911 4.95938L18.3777 4.46794C19.1653 3.93598 19.8466 3.26762 20.3827 2.50673Z" fill="#7DAED3"/>
</svg>
