<svg width="23" height="24" viewBox="0 0 23 24" fill="none" xmlns="http://www.w3.org/2000/svg">
<path fill-rule="evenodd" clip-rule="evenodd" d="M21.1841 15.8002C19.7662 15.8002 18.3753 15.5704 17.0578 15.1148C16.4164 14.885 15.6862 15.0624 15.2612 15.5099L12.6494 17.566C9.65513 15.8969 7.73879 13.9013 6.15858 10.7929L8.07878 8.13211C8.56173 7.62816 8.7356 6.89038 8.52696 6.20098C8.09037 4.81815 7.86629 3.36678 7.86629 1.89122C7.86629 0.84704 7.05107 -0.00362396 6.0504 -0.00362396H1.81589C0.815219 0.000407618 0 0.851071 0 1.89525C0 14.0827 9.50445 24.0004 21.1841 24.0004C22.1848 24.0004 23 23.1497 23 22.1056V17.695C23 16.6508 22.1848 15.8002 21.1841 15.8002Z" fill="#0069B4"/>
</svg>
