<svg width="119" height="142" viewBox="0 0 119 142" fill="none" xmlns="http://www.w3.org/2000/svg">
<path d="M71.0956 141.137C83.1049 139.705 94.4146 133.119 103.742 123.668C108.872 118.513 113.42 112.356 116.101 104.911C119.832 94.7442 119.716 83.0028 117.151 72.2637C114.586 61.5246 109.805 51.9309 104.209 43.0533C98.029 33.0301 90.9167 23.8661 82.9883 15.8475C76.9254 9.54725 70.0462 3.81972 62.351 1.6719C54.0728 -0.475924 45.3281 1.6719 37.6329 6.11073C29.9376 10.5496 23.2917 17.1362 16.7624 23.8661C12.2152 28.7345 7.66797 33.746 4.6365 40.0463C-2.126 54.0788 -0.610269 71.9773 3.58715 87.4416C6.38543 98.0375 10.4662 108.347 16.5292 116.509C23.6415 126.102 32.1529 129.253 41.5971 133.691C51.5077 138.273 60.1357 142.569 71.0956 141.137Z" fill="#EDF7FF"/>
</svg>
