<svg width="96" height="96" viewBox="0 0 96 96" fill="none" xmlns="http://www.w3.org/2000/svg">
<circle cx="48" cy="48" r="48" fill="#95C11F"/>
<g clip-path="url(#clip0)">
<path d="M65.8011 24.6936C65.8011 23.9245 65.1761 23.301 64.4069 23.301C57.0384 23.301 50.7015 27.8019 48.0006 34.1989C45.2997 27.8019 38.9625 23.301 31.5928 23.301C30.8237 23.301 30.2002 23.9245 30.2002 24.6936C30.2002 34.0401 37.4412 41.7271 46.6081 42.4398V51.5428C46.6081 52.3119 47.2316 52.9354 48.0006 52.9354C48.7697 52.9354 49.3932 52.3119 49.3932 51.5428V42.4398C58.5601 41.7271 65.8011 34.0401 65.8011 24.6936ZM33.056 26.1567C40.1702 26.8474 45.8468 32.5239 46.5374 39.6381C39.4238 38.9469 33.7473 33.2704 33.056 26.1567ZM49.4639 39.6382C50.1544 32.5245 55.8307 26.8481 62.9453 26.1569C62.2539 33.2705 56.5775 38.9469 49.4639 39.6382Z" fill="white"/>
<path d="M39.2895 51.3039C37.545 49.5595 34.7641 49.5326 32.9851 51.1697V45.5747C32.9851 41.5194 29.6854 38.2172 25.6276 38.2172H25.626C24.8569 38.2172 24.2334 38.8407 24.2334 39.6098V57.5093C24.2334 57.8786 24.3802 58.2328 24.6413 58.4939L33.1832 67.0359V69.4423C33.1832 70.2114 33.8067 70.8349 34.5758 70.8349H45.0172C45.7863 70.8349 46.4098 70.2114 46.4098 69.4423V61.4726C46.4098 59.5067 45.6443 57.6587 44.2545 56.2688L39.2895 51.3039ZM43.6246 68.0497H35.9683V66.4591C35.9683 66.0898 35.8216 65.7356 35.5604 65.4745L27.0186 56.9325V41.2216C29.6499 42.0662 30.1999 44.5044 30.1999 45.5748V54.5261C30.1999 54.8956 30.3467 55.2496 30.6079 55.5108L36.5744 61.4773C37.1183 62.0211 38.0001 62.0212 38.5438 61.4773C39.0877 60.9336 39.0877 60.0518 38.5438 59.5079L34.8147 55.7788C34.1225 55.0865 34.122 53.9662 34.8147 53.2734C35.5074 52.5808 36.6272 52.5805 37.3202 53.2734L42.2851 58.2383C43.149 59.1021 43.6247 60.2507 43.6247 61.4726V68.0497H43.6246Z" fill="white"/>
<path d="M70.3745 38.2173H70.373C66.3152 38.2173 63.0155 41.5196 63.0155 45.5748V51.1698C61.2365 49.5327 58.4555 49.5596 56.7111 51.304L51.7461 56.2689C50.3563 57.6587 49.5908 59.5068 49.5908 61.4727V69.4423C49.5908 70.2114 50.2143 70.8349 50.9834 70.8349H61.4247C62.1938 70.8349 62.8173 70.2114 62.8173 69.4423V67.0359L71.3592 58.494C71.6203 58.2329 71.7671 57.8787 71.7671 57.5094V39.6099C71.7671 38.8407 71.1436 38.2173 70.3745 38.2173ZM68.9819 56.9325L60.4401 65.4744C60.1789 65.7355 60.0321 66.0897 60.0321 66.459V68.0498H52.3759V61.4726C52.3759 60.2507 52.8516 59.1021 53.7155 58.2383L58.6804 53.2734C59.3734 52.5805 60.4933 52.5808 61.1859 53.2734C61.8786 53.9662 61.8781 55.0865 61.1859 55.7788L57.4568 59.5079C56.913 60.0518 56.913 60.9335 57.4568 61.4773C58.0005 62.0212 58.8823 62.0211 59.4262 61.4773L65.3927 55.5108C65.6539 55.2496 65.8007 54.8955 65.8007 54.5261V45.5748C65.8007 44.5044 66.3507 42.0662 68.982 41.2216V56.9325H68.9819Z" fill="white"/>
</g>
<defs>
<clipPath id="clip0">
<rect width="47.534" height="47.534" fill="white" transform="translate(24.2334 23.301)"/>
</clipPath>
</defs>
</svg>
