<svg width="42" height="51" viewBox="0 0 42 51" fill="none" xmlns="http://www.w3.org/2000/svg">
<path d="M34.4369 48.3856L41.8396 20.7594C42.0509 19.9708 41.9406 19.1461 41.5304 18.4356C41.1198 17.7243 40.4605 17.217 39.6723 17.0055L37.1637 16.3336C36.3761 16.1222 35.5504 16.232 34.8395 16.6424C34.129 17.0526 33.5987 17.7257 33.388 18.5135L29.0471 34.643L10.3054 2.18158C9.46045 0.717991 7.64699 0.223077 6.18301 1.06831L3.9344 2.36654C2.47042 3.21177 1.87677 5.09643 2.72177 6.56001L21.5303 39.1374L5.26742 34.7494C4.47904 34.5385 3.67155 34.6378 2.96066 35.0482C2.25055 35.4582 1.75138 36.1133 1.54024 36.9013L0.872901 39.4068C0.661596 40.1954 0.773631 41.0187 1.18429 41.7299C1.5945 42.4404 2.25521 42.9474 3.04381 43.1587L30.6697 50.5611C31.4606 50.7727 32.2892 50.6617 32.9998 50.2489C33.7147 49.8382 34.2257 49.1762 34.4369 48.3856Z" fill="#95C11F"/>
</svg>
