<svg width="43" height="43" viewBox="0 0 43 43" fill="none" xmlns="http://www.w3.org/2000/svg">
<path d="M39.6274 0.295311L11.0266 0.294988C10.2102 0.294989 9.44205 0.61499 8.86193 1.19511C8.28116 1.77588 7.9618 2.54401 7.96148 3.3601L7.96181 5.95713C7.96148 6.77258 8.28116 7.54168 8.8616 8.12213C9.44173 8.70225 10.2292 9.04028 11.0446 9.03995L27.7481 9.0583L1.2434 35.563C0.0483909 36.758 0.0396998 38.6378 1.23503 39.8331L3.07101 41.6691C4.26635 42.8644 6.24044 42.95 7.43545 41.755L34.0348 15.1557L34.0055 32.0002C34.0058 32.8163 34.3107 33.5705 34.8911 34.151C35.4709 34.7308 36.2329 35.0434 37.0487 35.0434L39.6415 35.0395C40.458 35.0395 41.2242 34.7182 41.8049 34.1375C42.385 33.5573 42.7038 32.7879 42.7038 31.9715L42.7038 3.37105C42.7034 2.55238 42.3818 1.78071 41.7991 1.20123C41.2174 0.616924 40.4457 0.294668 39.6274 0.295311Z" fill="#95C11F"/>
</svg>
