<svg width="48" height="49" viewBox="0 0 48 49" fill="none" xmlns="http://www.w3.org/2000/svg">
<g clip-path="url(#clip0)">
<path d="M23.998 6.23907C23.2214 6.23907 22.5918 6.87033 22.5918 7.64896C22.5918 8.42759 23.2214 9.05884 23.998 9.05884C28.6512 9.05884 32.4369 12.8537 32.4369 17.5181C32.4369 18.2968 33.0666 18.928 33.8432 18.928C34.6198 18.928 35.2494 18.2968 35.2494 17.5181C35.2494 11.2989 30.2021 6.23907 23.998 6.23907Z" fill="white"/>
<path d="M20.3752 0.979271C14.0218 2.31029 8.87023 7.42573 7.5147 13.8352C6.37011 19.2474 7.78057 24.6811 11.3844 28.743C13.1461 30.7284 14.1563 33.3492 14.1563 35.9406V38.7604C14.1563 40.6365 15.3814 42.2303 17.0713 42.7823C17.627 46.0744 20.477 48.7235 24.0001 48.7235C27.5222 48.7235 30.3729 46.0752 30.9289 42.7823C32.6188 42.2303 33.8438 40.6365 33.8438 38.7603V35.9405C33.8438 33.344 34.8574 30.7547 36.6978 28.6496C39.3916 25.5686 40.8751 21.6153 40.8751 17.5181C40.8751 6.84392 31.1299 -1.27335 20.3752 0.979271ZM24.0001 45.9038C22.1924 45.9038 20.6074 44.6567 20.0222 42.9806H27.9779C27.3927 44.6567 25.8078 45.9038 24.0001 45.9038ZM31.0313 38.7604C31.0313 39.5378 30.4005 40.1703 29.6251 40.1703H18.3751C17.5997 40.1703 16.9688 39.5378 16.9688 38.7604V37.3505H31.0313V38.7604ZM34.5828 26.7911C32.6215 29.0345 31.4149 31.7395 31.1087 34.5307H16.8918C16.5859 31.738 15.3824 29.0063 13.486 26.8689C10.4825 23.4836 9.30879 18.9462 10.2661 14.4201C11.3835 9.13639 15.6772 4.84423 20.9506 3.73954C29.9528 1.8534 38.0626 8.63137 38.0626 17.5181C38.0626 20.9312 36.8268 24.2244 34.5828 26.7911Z" fill="white"/>
<path d="M4.21875 17.5181H1.40625C0.629625 17.5181 0 18.1494 0 18.928C0 19.7066 0.629625 20.3379 1.40625 20.3379H4.21875C4.99538 20.3379 5.625 19.7066 5.625 18.928C5.625 18.1494 4.99538 17.5181 4.21875 17.5181Z" fill="white"/>
<path d="M4.80144 10.4687L2.81272 8.47488C2.26363 7.92427 1.37319 7.92427 0.824 8.47488C0.274813 9.02548 0.274813 9.91813 0.824 10.4687L2.81272 12.4626C3.36181 13.0132 4.25225 13.0133 4.80144 12.4626C5.35063 11.912 5.35063 11.0193 4.80144 10.4687Z" fill="white"/>
<path d="M4.80144 25.3935C4.25225 24.8428 3.36181 24.8428 2.81272 25.3935L0.824 27.3873C0.274813 27.9379 0.274813 28.8306 0.824 29.3812C1.37309 29.9318 2.26353 29.9319 2.81272 29.3812L4.80144 27.3873C5.35063 26.8367 5.35063 25.9441 4.80144 25.3935Z" fill="white"/>
<path d="M46.5938 17.5181H43.7812C43.0046 17.5181 42.375 18.1494 42.375 18.928C42.375 19.7066 43.0046 20.3379 43.7812 20.3379H46.5938C47.3704 20.3379 48 19.7066 48 18.928C48 18.1494 47.3704 17.5181 46.5938 17.5181Z" fill="white"/>
<path d="M47.1764 8.47487C46.6274 7.92427 45.7369 7.92427 45.1877 8.47487L43.199 10.4687C42.6498 11.0193 42.6498 11.912 43.199 12.4626C43.7481 13.0131 44.6385 13.0132 45.1877 12.4626L47.1764 10.4687C47.7256 9.91812 47.7256 9.02548 47.1764 8.47487Z" fill="white"/>
<path d="M47.1764 27.3873L45.1877 25.3935C44.6386 24.8428 43.7482 24.8428 43.199 25.3935C42.6498 25.9441 42.6498 26.8367 43.199 27.3873L45.1877 29.3812C45.7368 29.9317 46.6273 29.9318 47.1764 29.3812C47.7256 28.8306 47.7256 27.9379 47.1764 27.3873Z" fill="white"/>
</g>
<defs>
<clipPath id="clip0">
<rect width="48" height="48.124" fill="white" transform="translate(0 0.600464)"/>
</clipPath>
</defs>
</svg>
