<svg width="48" height="48" viewBox="0 0 48 48" fill="none" xmlns="http://www.w3.org/2000/svg">
<path d="M40.9688 25.1393H36.2702C35.6307 25.1393 35.0116 25.2266 34.4224 25.3873C33.2601 23.1024 30.8871 21.5325 28.1527 21.5325H19.8473C17.1129 21.5325 14.7399 23.1024 13.5776 25.3873C12.9884 25.2266 12.3693 25.1393 11.7298 25.1393H7.03125C3.15422 25.1393 0 28.2935 0 32.1705V39.6816C0 42.0078 1.89253 43.9003 4.21875 43.9003H43.7812C46.1075 43.9003 48 42.0078 48 39.6816V32.1705C48 28.2935 44.8458 25.1393 40.9688 25.1393ZM12.8161 28.5639V41.0879H4.21875C3.44334 41.0879 2.8125 40.4571 2.8125 39.6817V32.1706C2.8125 29.8444 4.70503 27.9518 7.03125 27.9518H11.7298C12.1116 27.9518 12.4812 28.0037 12.8332 28.0992C12.823 28.2531 12.8161 28.4078 12.8161 28.5639ZM32.3714 41.0879H15.6286V28.5638C15.6286 26.2376 17.5211 24.3451 19.8473 24.3451H28.1527C30.4789 24.3451 32.3714 26.2376 32.3714 28.5638V41.0879ZM45.1875 39.6817C45.1875 40.4571 44.5567 41.0879 43.7812 41.0879H35.1839V28.5638C35.1839 28.4076 35.177 28.2529 35.1668 28.0991C35.5188 28.0037 35.8884 27.9518 36.2702 27.9518H40.9688C43.295 27.9518 45.1875 29.8443 45.1875 32.1705V39.6817Z" fill="white"/>
<path d="M9.38087 11.8597C5.93566 11.8597 3.13281 14.6626 3.13281 18.1078C3.13272 21.553 5.93566 24.3559 9.38087 24.3559C12.826 24.3559 15.6289 21.553 15.6289 18.1078C15.6289 14.6626 12.8261 11.8597 9.38087 11.8597ZM9.38078 21.5434C7.48637 21.5434 5.94522 20.0022 5.94522 18.1078C5.94522 16.2134 7.48637 14.6722 9.38078 14.6722C11.2752 14.6722 12.8163 16.2134 12.8163 18.1078C12.8163 20.0022 11.2752 21.5434 9.38078 21.5434Z" fill="white"/>
<path d="M23.9997 4.09959C19.3969 4.09959 15.6523 7.84416 15.6523 12.4469C15.6523 17.0497 19.3969 20.7942 23.9997 20.7942C28.6024 20.7942 32.347 17.0497 32.347 12.4469C32.347 7.84425 28.6024 4.09959 23.9997 4.09959ZM23.9997 17.9817C20.9477 17.9817 18.4648 15.4988 18.4648 12.4469C18.4648 9.39506 20.9477 6.91209 23.9997 6.91209C27.0516 6.91209 29.5345 9.39497 29.5345 12.4469C29.5345 15.4988 27.0516 17.9817 23.9997 17.9817Z" fill="white"/>
<path d="M38.6182 11.8597C35.1731 11.8597 32.3701 14.6626 32.3701 18.1078C32.3702 21.553 35.1731 24.3559 38.6182 24.3559C42.0634 24.3559 44.8662 21.553 44.8662 18.1078C44.8662 14.6626 42.0634 11.8597 38.6182 11.8597ZM38.6182 21.5434C36.7239 21.5434 35.1826 20.0022 35.1826 18.1078C35.1827 16.2134 36.7239 14.6722 38.6182 14.6722C40.5126 14.6722 42.0537 16.2134 42.0537 18.1078C42.0537 20.0022 40.5126 21.5434 38.6182 21.5434Z" fill="white"/>
</svg>
