<svg width="48" height="48" viewBox="0 0 48 48" fill="none" xmlns="http://www.w3.org/2000/svg">
<path d="M28.5262 46.1248L41.3262 33.3248C43.8222 30.832 43.8222 26.768 41.3262 24.2752C40.1198 23.0656 38.5102 22.4 36.8014 22.4C35.0926 22.4 33.483 23.0656 32.2766 24.2752L24.0014 32.5504L15.7262 24.2752C14.5166 23.0656 12.9102 22.4 11.2014 22.4C9.49264 22.4 7.88624 23.0656 6.67664 24.2752C5.46704 25.4848 4.80144 27.0912 4.80144 28.8C4.80144 30.5088 5.46704 32.1152 6.67664 33.3248L19.4766 46.1248C20.683 47.3344 22.2926 48 24.0014 48C25.7102 48 27.3198 47.3344 28.5262 46.1248ZM21.739 43.8624L8.93904 31.0624C7.72944 29.8496 7.72944 27.7504 8.93904 26.5376C10.187 25.2896 12.2158 25.2896 13.4638 26.5376L24.0014 37.0752L34.539 26.5376C35.1438 25.9328 35.947 25.6 36.8014 25.6C37.6558 25.6 38.459 25.9328 39.0638 26.5376C39.6878 27.1616 40.0014 27.9808 40.0014 28.8C40.0014 29.6192 39.6878 30.4384 39.067 31.0624L26.267 43.8624C25.659 44.4672 24.8558 44.8 24.0014 44.8C23.147 44.8 22.3438 44.4672 21.739 43.8624Z" fill="white"/>
<path d="M28.5262 23.7248L41.3262 10.9248C43.8222 8.432 43.8222 4.368 41.3262 1.8752C40.1198 0.6656 38.5102 -2.04919e-07 36.8014 -2.79613e-07C35.0926 -3.54307e-07 33.483 0.6656 32.2766 1.8752L24.0014 10.1504L15.7262 1.8752C14.5166 0.665599 12.9102 -1.32393e-06 11.2014 -1.39862e-06C9.49264 -1.47332e-06 7.88624 0.665599 6.67664 1.8752C5.46704 3.0848 4.80144 4.6912 4.80144 6.4C4.80144 8.1088 5.46704 9.7152 6.67664 10.9248L19.4766 23.7248C20.683 24.9344 22.2926 25.6 24.0014 25.6C25.7102 25.6 27.3198 24.9344 28.5262 23.7248ZM21.739 21.4624L8.93904 8.6624C7.72944 7.4496 7.72944 5.3504 8.93904 4.1376C10.187 2.8896 12.2158 2.8896 13.4638 4.1376L24.0014 14.6752L34.539 4.1376C35.1438 3.5328 35.947 3.2 36.8014 3.2C37.6558 3.2 38.459 3.5328 39.0638 4.1376C39.6878 4.7616 40.0014 5.5808 40.0014 6.4C40.0014 7.2192 39.6878 8.0384 39.067 8.6624L26.267 21.4624C25.659 22.0672 24.8558 22.4 24.0014 22.4C23.147 22.4 22.3438 22.0672 21.739 21.4624Z" fill="white"/>
</svg>
