<svg width="48" height="48" viewBox="0 0 48 48" fill="none" xmlns="http://www.w3.org/2000/svg">
<path d="M40.9511 7.04888C36.4057 2.50331 30.3856 0 24 0C17.6144 0 11.5943 2.50331 7.04888 7.04888C2.50331 11.5943 0 17.6144 0 24C0 30.3856 2.50331 36.4057 7.04888 40.9511C11.5943 45.4967 17.6144 48 24 48C30.3856 48 36.4057 45.4967 40.9511 40.9511C45.4967 36.4057 48 30.3856 48 24C48 17.6144 45.4967 11.5943 40.9511 7.04888ZM24 45.1875C12.3172 45.1875 2.8125 35.6828 2.8125 24C2.8125 12.3172 12.3172 2.8125 24 2.8125C35.6828 2.8125 45.1875 12.3172 45.1875 24C45.1875 35.6828 35.6828 45.1875 24 45.1875Z" fill="white"/>
<path d="M24 5.71875C13.9197 5.71875 5.71875 13.9197 5.71875 24C5.71875 34.0803 13.9197 42.2812 24 42.2812C34.0803 42.2812 42.2812 34.0803 42.2812 24C42.2812 13.9197 34.0803 5.71875 24 5.71875ZM24 39.4688C15.4705 39.4688 8.53125 32.5295 8.53125 24C8.53125 15.4705 15.4705 8.53125 24 8.53125C32.5295 8.53125 39.4688 15.4705 39.4688 24C39.4688 32.5295 32.5295 39.4688 24 39.4688Z" fill="white"/>
<path d="M28.2188 19.767C28.2188 20.5436 28.8484 21.1733 29.625 21.1733C30.4016 21.1733 31.0312 20.5436 31.0312 19.767C31.0312 18.2096 30.2257 16.7123 28.8212 15.6589C27.8618 14.9393 26.6814 14.4587 25.4062 14.2542V12.7357C25.4062 11.959 24.7766 11.3294 24 11.3294C23.2234 11.3294 22.5938 11.959 22.5938 12.7357V14.2542C21.3185 14.4587 20.1381 14.9393 19.1788 15.6589C17.7743 16.7123 16.9688 18.2096 16.9688 19.767C16.9688 21.3244 17.7743 22.8217 19.1788 23.8751C20.1382 24.5947 21.3186 25.0753 22.5938 25.2798V30.8494C20.9738 30.4535 19.7812 29.4022 19.7812 28.2045C19.7812 27.4279 19.1516 26.7983 18.375 26.7983C17.5984 26.7983 16.9688 27.4279 16.9688 28.2045C16.9688 29.7619 17.7743 31.2592 19.1788 32.3126C20.1382 33.0322 21.3186 33.5128 22.5938 33.7173V35.25C22.5938 36.0266 23.2234 36.6563 24 36.6563C24.7766 36.6563 25.4062 36.0266 25.4062 35.25V33.7173C26.6815 33.5128 27.8619 33.0322 28.8212 32.3126C30.2257 31.2593 31.0312 29.7619 31.0312 28.2045C31.0312 26.6471 30.2257 25.1498 28.8212 24.0964C27.8618 23.3769 26.6814 22.8962 25.4062 22.6917V17.1221C27.0262 17.5181 28.2188 18.5693 28.2188 19.767ZM19.7812 19.767C19.7812 18.5693 20.9738 17.518 22.5938 17.1221V22.4118C20.9738 22.016 19.7812 20.9647 19.7812 19.767ZM28.2188 28.2045C28.2188 29.4022 27.0262 30.4535 25.4062 30.8494V25.5597C27.0262 25.9556 28.2188 27.0069 28.2188 28.2045Z" fill="white"/>
</svg>
