<svg width="48" height="46" viewBox="0 0 48 46" fill="none" xmlns="http://www.w3.org/2000/svg">
<path d="M38.7363 0.800537C37.2089 0.800537 10.9501 0.800537 9.26645 0.800537L0 13.4365L24.0996 45.1995L48.0001 13.4329L38.7363 0.800537ZM13.1748 14.8247L19.9646 35.1095L4.57395 14.8247H13.1748ZM16.1327 14.8247H31.8783L24.0596 38.5067L16.1327 14.8247ZM34.8322 14.8247H43.4429L28.099 35.2185L34.8322 14.8247ZM37.3148 3.60538L43.4854 12.0199H34.8341L32.0731 3.60538H37.3148ZM29.1211 3.60538L31.8821 12.0199H16.1205L18.8815 3.60538H29.1211ZM10.6878 3.60538H15.9294L13.1685 12.0199H4.5171L10.6878 3.60538Z" fill="white"/>
</svg>
