<svg width="343" height="143" viewBox="0 0 343 143" fill="none" xmlns="http://www.w3.org/2000/svg">
<mask id="path-1-inside-1" fill="white">
<path fill-rule="evenodd" clip-rule="evenodd" d="M18.4166 0C8.24539 0 0 8.24541 0 18.4166V113.065C0 123.237 8.24539 131.482 18.4166 131.482H166.423L177.942 143L189.462 131.482H324.583C334.755 131.482 343 123.237 343 113.065V18.4166C343 8.24539 334.755 0 324.583 0H18.4166Z"/>
</mask>
<path d="M166.423 131.482L168.544 129.361L167.666 128.482H166.423V131.482ZM177.942 143L175.821 145.121L177.942 147.242L180.064 145.121L177.942 143ZM189.462 131.482V128.482H188.219L187.341 129.361L189.462 131.482ZM3 18.4166C3 9.90226 9.90225 3 18.4166 3V-3C6.58854 -3 -3 6.58856 -3 18.4166H3ZM3 113.065V18.4166H-3V113.065H3ZM18.4166 128.482C9.90224 128.482 3 121.58 3 113.065H-3C-3 124.894 6.58853 134.482 18.4166 134.482V128.482ZM166.423 128.482H18.4166V134.482H166.423V128.482ZM180.064 140.879L168.544 129.361L164.302 133.604L175.821 145.121L180.064 140.879ZM187.341 129.361L175.821 140.879L180.064 145.121L191.583 133.604L187.341 129.361ZM324.583 128.482H189.462V134.482H324.583V128.482ZM340 113.065C340 121.58 333.098 128.482 324.583 128.482V134.482C336.411 134.482 346 124.893 346 113.065H340ZM340 18.4166V113.065H346V18.4166H340ZM324.583 3C333.098 3 340 9.90225 340 18.4166H346C346 6.58854 336.411 -3 324.583 -3V3ZM18.4166 3H324.583V-3H18.4166V3Z" fill="#39A4F5" mask="url(#path-1-inside-1)"/>
</svg>
