<svg width="236" height="222" viewBox="0 0 236 222" fill="none" xmlns="http://www.w3.org/2000/svg">
<path d="M129.145 218.144C128.609 218.144 128.145 218.048 127.753 217.856C127.361 217.656 127.037 217.372 126.781 217.004C126.525 216.636 126.333 216.184 126.205 215.648C126.085 215.112 126.025 214.5 126.025 213.812C126.025 213.132 126.085 212.524 126.205 211.988C126.333 211.444 126.525 210.988 126.781 210.62C127.037 210.252 127.361 209.972 127.753 209.78C128.145 209.58 128.609 209.48 129.145 209.48C130.209 209.48 130.993 209.86 131.497 210.62C132.009 211.38 132.265 212.444 132.265 213.812C132.265 215.18 132.009 216.244 131.497 217.004C130.993 217.764 130.209 218.144 129.145 218.144ZM129.145 216.812C129.681 216.812 130.053 216.612 130.261 216.212C130.477 215.804 130.585 215.256 130.585 214.568V213.056C130.585 212.368 130.477 211.824 130.261 211.424C130.053 211.016 129.681 210.812 129.145 210.812C128.609 210.812 128.233 211.016 128.017 211.424C127.809 211.824 127.705 212.368 127.705 213.056V214.568C127.705 215.256 127.809 215.804 128.017 216.212C128.233 216.612 128.609 216.812 129.145 216.812ZM134.901 218L140.709 209.624H142.101L136.293 218H134.901ZM135.477 214.232C134.797 214.232 134.277 214.032 133.917 213.632C133.565 213.224 133.389 212.632 133.389 211.856C133.389 211.08 133.565 210.492 133.917 210.092C134.277 209.684 134.797 209.48 135.477 209.48C136.157 209.48 136.673 209.684 137.025 210.092C137.377 210.492 137.553 211.08 137.553 211.856C137.553 212.632 137.377 213.224 137.025 213.632C136.673 214.032 136.157 214.232 135.477 214.232ZM135.477 213.32C135.973 213.32 136.221 212.94 136.221 212.18V211.532C136.221 210.772 135.973 210.392 135.477 210.392C134.981 210.392 134.733 210.772 134.733 211.532V212.18C134.733 212.94 134.981 213.32 135.477 213.32ZM141.525 218.144C140.853 218.144 140.337 217.944 139.977 217.544C139.625 217.136 139.449 216.544 139.449 215.768C139.449 214.992 139.625 214.404 139.977 214.004C140.337 213.596 140.853 213.392 141.525 213.392C142.205 213.392 142.721 213.596 143.073 214.004C143.433 214.404 143.613 214.992 143.613 215.768C143.613 216.544 143.433 217.136 143.073 217.544C142.721 217.944 142.205 218.144 141.525 218.144ZM141.525 217.232C142.021 217.232 142.269 216.852 142.269 216.092V215.444C142.269 214.684 142.021 214.304 141.525 214.304C141.029 214.304 140.781 214.684 140.781 215.444V216.092C140.781 216.852 141.029 217.232 141.525 217.232Z" fill="#41637D"/>
<path d="M169.52 210.992H165.752L165.56 213.8H165.644C165.732 213.624 165.828 213.46 165.932 213.308C166.036 213.156 166.156 213.028 166.292 212.924C166.428 212.82 166.584 212.74 166.76 212.684C166.944 212.62 167.164 212.588 167.42 212.588C167.78 212.588 168.116 212.648 168.428 212.768C168.74 212.888 169.008 213.064 169.232 213.296C169.464 213.52 169.644 213.796 169.772 214.124C169.908 214.452 169.976 214.824 169.976 215.24C169.976 215.664 169.908 216.052 169.772 216.404C169.636 216.756 169.436 217.064 169.172 217.328C168.908 217.584 168.584 217.784 168.2 217.928C167.816 218.072 167.376 218.144 166.88 218.144C166.496 218.144 166.152 218.1 165.848 218.012C165.544 217.932 165.276 217.82 165.044 217.676C164.812 217.532 164.612 217.368 164.444 217.184C164.276 216.992 164.128 216.792 164 216.584L165.152 215.696C165.248 215.856 165.348 216.008 165.452 216.152C165.556 216.288 165.676 216.408 165.812 216.512C165.956 216.616 166.112 216.7 166.28 216.764C166.456 216.82 166.66 216.848 166.892 216.848C167.364 216.848 167.72 216.716 167.96 216.452C168.208 216.188 168.332 215.828 168.332 215.372V215.276C168.332 214.844 168.208 214.504 167.96 214.256C167.712 214.008 167.368 213.884 166.928 213.884C166.584 213.884 166.304 213.952 166.088 214.088C165.872 214.216 165.7 214.356 165.572 214.508L164.276 214.328L164.588 209.624H169.52V210.992ZM174.136 218.144C173.6 218.144 173.136 218.048 172.744 217.856C172.352 217.656 172.028 217.372 171.772 217.004C171.516 216.636 171.324 216.184 171.196 215.648C171.076 215.112 171.016 214.5 171.016 213.812C171.016 213.132 171.076 212.524 171.196 211.988C171.324 211.444 171.516 210.988 171.772 210.62C172.028 210.252 172.352 209.972 172.744 209.78C173.136 209.58 173.6 209.48 174.136 209.48C175.2 209.48 175.984 209.86 176.488 210.62C177 211.38 177.256 212.444 177.256 213.812C177.256 215.18 177 216.244 176.488 217.004C175.984 217.764 175.2 218.144 174.136 218.144ZM174.136 216.812C174.672 216.812 175.044 216.612 175.252 216.212C175.468 215.804 175.576 215.256 175.576 214.568V213.056C175.576 212.368 175.468 211.824 175.252 211.424C175.044 211.016 174.672 210.812 174.136 210.812C173.6 210.812 173.224 211.016 173.008 211.424C172.8 211.824 172.696 212.368 172.696 213.056V214.568C172.696 215.256 172.8 215.804 173.008 216.212C173.224 216.612 173.6 216.812 174.136 216.812ZM179.891 218L185.699 209.624H187.091L181.283 218H179.891ZM180.467 214.232C179.787 214.232 179.267 214.032 178.907 213.632C178.555 213.224 178.379 212.632 178.379 211.856C178.379 211.08 178.555 210.492 178.907 210.092C179.267 209.684 179.787 209.48 180.467 209.48C181.147 209.48 181.663 209.684 182.015 210.092C182.367 210.492 182.543 211.08 182.543 211.856C182.543 212.632 182.367 213.224 182.015 213.632C181.663 214.032 181.147 214.232 180.467 214.232ZM180.467 213.32C180.963 213.32 181.211 212.94 181.211 212.18V211.532C181.211 210.772 180.963 210.392 180.467 210.392C179.971 210.392 179.723 210.772 179.723 211.532V212.18C179.723 212.94 179.971 213.32 180.467 213.32ZM186.515 218.144C185.843 218.144 185.327 217.944 184.967 217.544C184.615 217.136 184.439 216.544 184.439 215.768C184.439 214.992 184.615 214.404 184.967 214.004C185.327 213.596 185.843 213.392 186.515 213.392C187.195 213.392 187.711 213.596 188.063 214.004C188.423 214.404 188.603 214.992 188.603 215.768C188.603 216.544 188.423 217.136 188.063 217.544C187.711 217.944 187.195 218.144 186.515 218.144ZM186.515 217.232C187.011 217.232 187.259 216.852 187.259 216.092V215.444C187.259 214.684 187.011 214.304 186.515 214.304C186.019 214.304 185.771 214.684 185.771 215.444V216.092C185.771 216.852 186.019 217.232 186.515 217.232Z" fill="#41637D"/>
<path d="M203.068 218V216.716H205.372V210.764H205.264L203.44 212.924L202.456 212.096L204.532 209.624H206.92V216.716H208.84V218H203.068ZM212.771 218.144C212.235 218.144 211.771 218.048 211.379 217.856C210.987 217.656 210.663 217.372 210.407 217.004C210.151 216.636 209.959 216.184 209.831 215.648C209.711 215.112 209.651 214.5 209.651 213.812C209.651 213.132 209.711 212.524 209.831 211.988C209.959 211.444 210.151 210.988 210.407 210.62C210.663 210.252 210.987 209.972 211.379 209.78C211.771 209.58 212.235 209.48 212.771 209.48C213.835 209.48 214.619 209.86 215.123 210.62C215.635 211.38 215.891 212.444 215.891 213.812C215.891 215.18 215.635 216.244 215.123 217.004C214.619 217.764 213.835 218.144 212.771 218.144ZM212.771 216.812C213.307 216.812 213.679 216.612 213.887 216.212C214.103 215.804 214.211 215.256 214.211 214.568V213.056C214.211 212.368 214.103 211.824 213.887 211.424C213.679 211.016 213.307 210.812 212.771 210.812C212.235 210.812 211.859 211.016 211.643 211.424C211.435 211.824 211.331 212.368 211.331 213.056V214.568C211.331 215.256 211.435 215.804 211.643 216.212C211.859 216.612 212.235 216.812 212.771 216.812ZM219.967 218.144C219.431 218.144 218.967 218.048 218.575 217.856C218.183 217.656 217.859 217.372 217.603 217.004C217.347 216.636 217.155 216.184 217.027 215.648C216.907 215.112 216.847 214.5 216.847 213.812C216.847 213.132 216.907 212.524 217.027 211.988C217.155 211.444 217.347 210.988 217.603 210.62C217.859 210.252 218.183 209.972 218.575 209.78C218.967 209.58 219.431 209.48 219.967 209.48C221.031 209.48 221.815 209.86 222.319 210.62C222.831 211.38 223.087 212.444 223.087 213.812C223.087 215.18 222.831 216.244 222.319 217.004C221.815 217.764 221.031 218.144 219.967 218.144ZM219.967 216.812C220.503 216.812 220.875 216.612 221.083 216.212C221.299 215.804 221.407 215.256 221.407 214.568V213.056C221.407 212.368 221.299 211.824 221.083 211.424C220.875 211.016 220.503 210.812 219.967 210.812C219.431 210.812 219.055 211.016 218.839 211.424C218.631 211.824 218.527 212.368 218.527 213.056V214.568C218.527 215.256 218.631 215.804 218.839 216.212C219.055 216.612 219.431 216.812 219.967 216.812ZM225.722 218L231.53 209.624H232.922L227.114 218H225.722ZM226.298 214.232C225.618 214.232 225.098 214.032 224.738 213.632C224.386 213.224 224.21 212.632 224.21 211.856C224.21 211.08 224.386 210.492 224.738 210.092C225.098 209.684 225.618 209.48 226.298 209.48C226.978 209.48 227.494 209.684 227.846 210.092C228.198 210.492 228.374 211.08 228.374 211.856C228.374 212.632 228.198 213.224 227.846 213.632C227.494 214.032 226.978 214.232 226.298 214.232ZM226.298 213.32C226.794 213.32 227.042 212.94 227.042 212.18V211.532C227.042 210.772 226.794 210.392 226.298 210.392C225.802 210.392 225.554 210.772 225.554 211.532V212.18C225.554 212.94 225.802 213.32 226.298 213.32ZM232.346 218.144C231.674 218.144 231.158 217.944 230.798 217.544C230.446 217.136 230.27 216.544 230.27 215.768C230.27 214.992 230.446 214.404 230.798 214.004C231.158 213.596 231.674 213.392 232.346 213.392C233.026 213.392 233.542 213.596 233.894 214.004C234.254 214.404 234.434 214.992 234.434 215.768C234.434 216.544 234.254 217.136 233.894 217.544C233.542 217.944 233.026 218.144 232.346 218.144ZM232.346 217.232C232.842 217.232 233.09 216.852 233.09 216.092V215.444C233.09 214.684 232.842 214.304 232.346 214.304C231.85 214.304 231.602 214.684 231.602 215.444V216.092C231.602 216.852 231.85 217.232 232.346 217.232Z" fill="#41637D"/>
<line opacity="0.2" x1="143.603" y1="6" x2="143.603" y2="196" stroke="#41637D" stroke-width="0.839895"/>
<line opacity="0.2" x1="185.598" y1="6" x2="185.598" y2="196" stroke="#41637D" stroke-width="0.839895"/>
<line opacity="0.2" x1="152.002" y1="6" x2="152.002" y2="196" stroke="#41637D" stroke-width="0.839895"/>
<line opacity="0.2" x1="193.997" y1="6" x2="193.997" y2="196" stroke="#41637D" stroke-width="0.839895"/>
<line opacity="0.2" x1="160.401" y1="6" x2="160.401" y2="196" stroke="#41637D" stroke-width="0.839895"/>
<line opacity="0.2" x1="202.396" y1="6" x2="202.396" y2="196" stroke="#41637D" stroke-width="0.839895"/>
<line opacity="0.2" x1="168.8" y1="6" x2="168.8" y2="196" stroke="#41637D" stroke-width="0.839895"/>
<line opacity="0.2" x1="210.794" y1="6" x2="210.794" y2="196" stroke="#41637D" stroke-width="0.839895"/>
<rect x="134.784" y="6" width="83.9895" height="16.7979" fill="#39A4F5"/>
<rect x="135.733" y="6" width="62" height="17" fill="#1084DD"/>
<path d="M72.8111 69V60.624H76.5791C76.9631 60.624 77.3071 60.688 77.6111 60.816C77.9231 60.936 78.1871 61.112 78.4031 61.344C78.6191 61.568 78.7831 61.84 78.8951 62.16C79.0071 62.48 79.0631 62.832 79.0631 63.216C79.0631 63.608 79.0071 63.964 78.8951 64.284C78.7831 64.596 78.6191 64.868 78.4031 65.1C78.1871 65.324 77.9231 65.5 77.6111 65.628C77.3071 65.748 76.9631 65.808 76.5791 65.808H74.3951V69H72.8111ZM74.3951 64.44H76.4351C76.7391 64.44 76.9791 64.36 77.1551 64.2C77.3311 64.032 77.4191 63.796 77.4191 63.492V62.94C77.4191 62.636 77.3311 62.404 77.1551 62.244C76.9791 62.084 76.7391 62.004 76.4351 62.004H74.3951V64.44ZM85.5746 65.46H82.0826V69H80.4986V60.624H82.0826V64.056H85.5746V60.624H87.1586V69H85.5746V65.46ZM94.3076 69L93.6356 66.864H90.6596L89.9996 69H88.3916L91.1996 60.624H93.1676L95.9516 69H94.3076ZM92.1716 62.064H92.1116L91.0436 65.508H93.2516L92.1716 62.064ZM99.7901 69.144C99.0701 69.144 98.4581 69.016 97.9541 68.76C97.4581 68.504 97.0301 68.168 96.6701 67.752L97.7381 66.72C98.0261 67.056 98.3461 67.312 98.6981 67.488C99.0581 67.664 99.4541 67.752 99.8861 67.752C100.374 67.752 100.742 67.648 100.99 67.44C101.238 67.224 101.362 66.936 101.362 66.576C101.362 66.296 101.282 66.068 101.122 65.892C100.962 65.716 100.662 65.588 100.222 65.508L99.4301 65.388C97.7581 65.124 96.9221 64.312 96.9221 62.952C96.9221 62.576 96.9901 62.236 97.1261 61.932C97.2701 61.628 97.4741 61.368 97.7381 61.152C98.0021 60.936 98.3181 60.772 98.6861 60.66C99.0621 60.54 99.4861 60.48 99.9581 60.48C100.59 60.48 101.142 60.584 101.614 60.792C102.086 61 102.49 61.308 102.826 61.716L101.746 62.736C101.538 62.48 101.286 62.272 100.99 62.112C100.694 61.952 100.322 61.872 99.8741 61.872C99.4181 61.872 99.0741 61.96 98.8421 62.136C98.6181 62.304 98.5061 62.544 98.5061 62.856C98.5061 63.176 98.5981 63.412 98.7821 63.564C98.9661 63.716 99.2621 63.828 99.6701 63.9L100.45 64.044C101.298 64.196 101.922 64.468 102.322 64.86C102.73 65.244 102.934 65.784 102.934 66.48C102.934 66.88 102.862 67.244 102.718 67.572C102.582 67.892 102.378 68.172 102.106 68.412C101.842 68.644 101.514 68.824 101.122 68.952C100.738 69.08 100.294 69.144 99.7901 69.144ZM104.522 69V60.624H110.042V62.028H106.106V64.056H109.586V65.46H106.106V67.596H110.042V69H104.522ZM29.1002 85V76.624H34.6202V78.028H30.6842V80.056H34.1642V81.46H30.6842V83.596H34.6202V85H29.1002ZM32.0162 76.072L31.0922 75.616L32.2322 73.372L33.5282 74.02L32.0162 76.072ZM36.2955 85V76.624H37.8795V83.596H41.1795V85H36.2955ZM47.9483 85L47.2763 82.864H44.3003L43.6403 85H42.0323L44.8403 76.624H46.8083L49.5923 85H47.9483ZM45.8123 78.064H45.7523L44.6843 81.508H46.8923L45.8123 78.064ZM50.8268 76.624H54.7028C55.0468 76.624 55.3548 76.676 55.6268 76.78C55.9068 76.884 56.1428 77.028 56.3348 77.212C56.5268 77.396 56.6708 77.624 56.7668 77.896C56.8708 78.16 56.9228 78.452 56.9228 78.772C56.9228 79.092 56.8788 79.364 56.7908 79.588C56.7108 79.804 56.5988 79.984 56.4548 80.128C56.3188 80.272 56.1588 80.38 55.9748 80.452C55.7988 80.524 55.6148 80.564 55.4228 80.572V80.644C55.6068 80.644 55.8028 80.68 56.0108 80.752C56.2268 80.824 56.4228 80.94 56.5988 81.1C56.7828 81.252 56.9348 81.452 57.0548 81.7C57.1748 81.94 57.2348 82.24 57.2348 82.6C57.2348 82.936 57.1788 83.252 57.0668 83.548C56.9628 83.836 56.8148 84.088 56.6228 84.304C56.4308 84.52 56.2028 84.692 55.9388 84.82C55.6748 84.94 55.3868 85 55.0748 85H50.8268V76.624ZM52.4108 83.656H54.6188C54.9228 83.656 55.1588 83.58 55.3268 83.428C55.4948 83.268 55.5788 83.04 55.5788 82.744V82.336C55.5788 82.04 55.4948 81.812 55.3268 81.652C55.1588 81.492 54.9228 81.412 54.6188 81.412H52.4108V83.656ZM52.4108 80.116H54.3668C54.6548 80.116 54.8788 80.04 55.0388 79.888C55.1988 79.728 55.2788 79.508 55.2788 79.228V78.856C55.2788 78.576 55.1988 78.36 55.0388 78.208C54.8788 78.048 54.6548 77.968 54.3668 77.968H52.4108V80.116ZM62.0718 85.144C61.5198 85.144 61.0198 85.052 60.5718 84.868C60.1238 84.684 59.7398 84.408 59.4198 84.04C59.1078 83.672 58.8638 83.22 58.6878 82.684C58.5118 82.148 58.4238 81.524 58.4238 80.812C58.4238 80.108 58.5118 79.488 58.6878 78.952C58.8638 78.408 59.1078 77.952 59.4198 77.584C59.7398 77.216 60.1238 76.94 60.5718 76.756C61.0198 76.572 61.5198 76.48 62.0718 76.48C62.6238 76.48 63.1238 76.572 63.5718 76.756C64.0198 76.94 64.4038 77.216 64.7238 77.584C65.0438 77.952 65.2878 78.408 65.4558 78.952C65.6318 79.488 65.7198 80.108 65.7198 80.812C65.7198 81.524 65.6318 82.148 65.4558 82.684C65.2878 83.22 65.0438 83.672 64.7238 84.04C64.4038 84.408 64.0198 84.684 63.5718 84.868C63.1238 85.052 62.6238 85.144 62.0718 85.144ZM62.0718 83.74C62.6718 83.74 63.1478 83.54 63.4998 83.14C63.8598 82.74 64.0398 82.18 64.0398 81.46V80.164C64.0398 79.444 63.8598 78.884 63.4998 78.484C63.1478 78.084 62.6718 77.884 62.0718 77.884C61.4718 77.884 60.9918 78.084 60.6318 78.484C60.2798 78.884 60.1038 79.444 60.1038 80.164V81.46C60.1038 82.18 60.2798 82.74 60.6318 83.14C60.9918 83.54 61.4718 83.74 62.0718 83.74ZM68.9108 85H67.3268V76.624H71.1068C71.4908 76.624 71.8348 76.684 72.1388 76.804C72.4428 76.924 72.6988 77.1 72.9068 77.332C73.1228 77.556 73.2868 77.828 73.3988 78.148C73.5188 78.468 73.5788 78.824 73.5788 79.216C73.5788 79.792 73.4468 80.288 73.1828 80.704C72.9268 81.12 72.5388 81.416 72.0188 81.592L73.7348 85H71.9708L70.4108 81.772H68.9108V85ZM70.9508 80.44C71.2548 80.44 71.4948 80.36 71.6708 80.2C71.8468 80.032 71.9348 79.796 71.9348 79.492V78.94C71.9348 78.636 71.8468 78.404 71.6708 78.244C71.4948 78.084 71.2548 78.004 70.9508 78.004H68.9108V80.44H70.9508ZM80.4795 85L79.8075 82.864H76.8315L76.1715 85H74.5635L77.3715 76.624H79.3395L82.1235 85H80.4795ZM78.3435 78.064H78.2835L77.2155 81.508H79.4235L78.3435 78.064ZM85.8609 78.028V85H84.2769V78.028H81.9009V76.624H88.2369V78.028H85.8609ZM89.1272 85V83.728H90.2312V77.896H89.1272V76.624H92.9312V77.896H91.8152V83.728H92.9312V85H89.1272ZM97.8374 85.144C97.2854 85.144 96.7854 85.052 96.3374 84.868C95.8894 84.684 95.5054 84.408 95.1854 84.04C94.8734 83.672 94.6294 83.22 94.4534 82.684C94.2774 82.148 94.1894 81.524 94.1894 80.812C94.1894 80.108 94.2774 79.488 94.4534 78.952C94.6294 78.408 94.8734 77.952 95.1854 77.584C95.5054 77.216 95.8894 76.94 96.3374 76.756C96.7854 76.572 97.2854 76.48 97.8374 76.48C98.3894 76.48 98.8894 76.572 99.3374 76.756C99.7854 76.94 100.169 77.216 100.489 77.584C100.809 77.952 101.053 78.408 101.221 78.952C101.397 79.488 101.485 80.108 101.485 80.812C101.485 81.524 101.397 82.148 101.221 82.684C101.053 83.22 100.809 83.672 100.489 84.04C100.169 84.408 99.7854 84.684 99.3374 84.868C98.8894 85.052 98.3894 85.144 97.8374 85.144ZM97.8374 83.74C98.4374 83.74 98.9134 83.54 99.2654 83.14C99.6254 82.74 99.8054 82.18 99.8054 81.46V80.164C99.8054 79.444 99.6254 78.884 99.2654 78.484C98.9134 78.084 98.4374 77.884 97.8374 77.884C97.2374 77.884 96.7574 78.084 96.3974 78.484C96.0454 78.884 95.8694 79.444 95.8694 80.164V81.46C95.8694 82.18 96.0454 82.74 96.3974 83.14C96.7574 83.54 97.2374 83.74 97.8374 83.74ZM105.492 80.704L104.628 78.964H104.592V85H103.092V76.624H104.832L107.352 80.92L108.216 82.66H108.252V76.624H109.752V85H108.012L105.492 80.704ZM55.1417 101.144C54.4217 101.144 53.8097 101.016 53.3057 100.76C52.8097 100.504 52.3817 100.168 52.0217 99.752L53.0897 98.72C53.3777 99.056 53.6977 99.312 54.0497 99.488C54.4097 99.664 54.8057 99.752 55.2377 99.752C55.7257 99.752 56.0937 99.648 56.3417 99.44C56.5897 99.224 56.7137 98.936 56.7137 98.576C56.7137 98.296 56.6337 98.068 56.4737 97.892C56.3137 97.716 56.0137 97.588 55.5737 97.508L54.7817 97.388C53.1097 97.124 52.2737 96.312 52.2737 94.952C52.2737 94.576 52.3417 94.236 52.4777 93.932C52.6217 93.628 52.8257 93.368 53.0897 93.152C53.3537 92.936 53.6697 92.772 54.0377 92.66C54.4137 92.54 54.8377 92.48 55.3097 92.48C55.9417 92.48 56.4937 92.584 56.9657 92.792C57.4377 93 57.8417 93.308 58.1777 93.716L57.0977 94.736C56.8897 94.48 56.6377 94.272 56.3417 94.112C56.0457 93.952 55.6737 93.872 55.2257 93.872C54.7697 93.872 54.4257 93.96 54.1937 94.136C53.9697 94.304 53.8577 94.544 53.8577 94.856C53.8577 95.176 53.9497 95.412 54.1337 95.564C54.3177 95.716 54.6137 95.828 55.0217 95.9L55.8017 96.044C56.6497 96.196 57.2737 96.468 57.6737 96.86C58.0817 97.244 58.2857 97.784 58.2857 98.48C58.2857 98.88 58.2137 99.244 58.0697 99.572C57.9337 99.892 57.7297 100.172 57.4577 100.412C57.1937 100.644 56.8657 100.824 56.4737 100.952C56.0897 101.08 55.6457 101.144 55.1417 101.144ZM63.1616 101.144C62.6096 101.144 62.1096 101.052 61.6616 100.868C61.2136 100.684 60.8296 100.408 60.5096 100.04C60.1976 99.672 59.9536 99.22 59.7776 98.684C59.6016 98.148 59.5136 97.524 59.5136 96.812C59.5136 96.108 59.6016 95.488 59.7776 94.952C59.9536 94.408 60.1976 93.952 60.5096 93.584C60.8296 93.216 61.2136 92.94 61.6616 92.756C62.1096 92.572 62.6096 92.48 63.1616 92.48C63.7136 92.48 64.2136 92.572 64.6616 92.756C65.1096 92.94 65.4936 93.216 65.8136 93.584C66.1336 93.952 66.3776 94.408 66.5456 94.952C66.7216 95.488 66.8096 96.108 66.8096 96.812C66.8096 97.524 66.7216 98.148 66.5456 98.684C66.3776 99.22 66.1336 99.672 65.8136 100.04C65.4936 100.408 65.1096 100.684 64.6616 100.868C64.2136 101.052 63.7136 101.144 63.1616 101.144ZM63.1616 99.74C63.7616 99.74 64.2376 99.54 64.5896 99.14C64.9496 98.74 65.1296 98.18 65.1296 97.46V96.164C65.1296 95.444 64.9496 94.884 64.5896 94.484C64.2376 94.084 63.7616 93.884 63.1616 93.884C62.5616 93.884 62.0816 94.084 61.7216 94.484C61.3696 94.884 61.1936 95.444 61.1936 96.164V97.46C61.1936 98.18 61.3696 98.74 61.7216 99.14C62.0816 99.54 62.5616 99.74 63.1616 99.74ZM68.4166 101V92.624H70.0006V99.596H73.3006V101H68.4166ZM75.7877 92.624V97.772C75.7877 98.428 75.9117 98.92 76.1597 99.248C76.4157 99.576 76.8437 99.74 77.4437 99.74C78.0437 99.74 78.4677 99.576 78.7157 99.248C78.9717 98.92 79.0997 98.428 79.0997 97.772V92.624H80.6597V97.568C80.6597 98.184 80.5997 98.716 80.4797 99.164C80.3677 99.612 80.1837 99.984 79.9277 100.28C79.6717 100.576 79.3357 100.796 78.9197 100.94C78.5117 101.076 78.0157 101.144 77.4317 101.144C76.8397 101.144 76.3397 101.076 75.9317 100.94C75.5317 100.796 75.2037 100.576 74.9477 100.28C74.6917 99.984 74.5077 99.612 74.3957 99.164C74.2837 98.716 74.2277 98.184 74.2277 97.568V92.624H75.7877ZM85.8609 94.028V101H84.2769V94.028H81.9009V92.624H88.2369V94.028H85.8609ZM89.1272 101V99.728H90.2312V93.896H89.1272V92.624H92.9312V93.896H91.8152V99.728H92.9312V101H89.1272ZM97.8374 101.144C97.2854 101.144 96.7854 101.052 96.3374 100.868C95.8894 100.684 95.5054 100.408 95.1854 100.04C94.8734 99.672 94.6294 99.22 94.4534 98.684C94.2774 98.148 94.1894 97.524 94.1894 96.812C94.1894 96.108 94.2774 95.488 94.4534 94.952C94.6294 94.408 94.8734 93.952 95.1854 93.584C95.5054 93.216 95.8894 92.94 96.3374 92.756C96.7854 92.572 97.2854 92.48 97.8374 92.48C98.3894 92.48 98.8894 92.572 99.3374 92.756C99.7854 92.94 100.169 93.216 100.489 93.584C100.809 93.952 101.053 94.408 101.221 94.952C101.397 95.488 101.485 96.108 101.485 96.812C101.485 97.524 101.397 98.148 101.221 98.684C101.053 99.22 100.809 99.672 100.489 100.04C100.169 100.408 99.7854 100.684 99.3374 100.868C98.8894 101.052 98.3894 101.144 97.8374 101.144ZM97.8374 99.74C98.4374 99.74 98.9134 99.54 99.2654 99.14C99.6254 98.74 99.8054 98.18 99.8054 97.46V96.164C99.8054 95.444 99.6254 94.884 99.2654 94.484C98.9134 94.084 98.4374 93.884 97.8374 93.884C97.2374 93.884 96.7574 94.084 96.3974 94.484C96.0454 94.884 95.8694 95.444 95.8694 96.164V97.46C95.8694 98.18 96.0454 98.74 96.3974 99.14C96.7574 99.54 97.2374 99.74 97.8374 99.74ZM105.492 96.704L104.628 94.964H104.592V101H103.092V92.624H104.832L107.352 96.92L108.216 98.66H108.252V92.624H109.752V101H108.012L105.492 96.704ZM27.0999 117V115.728H28.2039V109.896H27.0999V108.624H30.9039V109.896H29.7879V115.728H30.9039V117H27.0999ZM34.9221 112.704L34.0581 110.964H34.0221V117H32.5221V108.624H34.2621L36.7821 112.92L37.6461 114.66H37.6821V108.624H39.1821V117H37.4421L34.9221 112.704ZM41.1471 108.624H44.1951C44.7391 108.624 45.2311 108.712 45.6711 108.888C46.1191 109.064 46.4991 109.328 46.8111 109.68C47.1311 110.024 47.3751 110.46 47.5431 110.988C47.7191 111.508 47.8071 112.116 47.8071 112.812C47.8071 113.508 47.7191 114.12 47.5431 114.648C47.3751 115.168 47.1311 115.604 46.8111 115.956C46.4991 116.3 46.1191 116.56 45.6711 116.736C45.2311 116.912 44.7391 117 44.1951 117H41.1471V108.624ZM44.1951 115.596C44.7871 115.596 45.2551 115.424 45.5991 115.08C45.9511 114.728 46.1271 114.192 46.1271 113.472V112.152C46.1271 111.432 45.9511 110.9 45.5991 110.556C45.2551 110.204 44.7871 110.028 44.1951 110.028H42.7311V115.596H44.1951ZM50.9205 108.624V113.772C50.9205 114.428 51.0445 114.92 51.2925 115.248C51.5485 115.576 51.9765 115.74 52.5765 115.74C53.1765 115.74 53.6005 115.576 53.8485 115.248C54.1045 114.92 54.2325 114.428 54.2325 113.772V108.624H55.7925V113.568C55.7925 114.184 55.7325 114.716 55.6125 115.164C55.5005 115.612 55.3165 115.984 55.0605 116.28C54.8045 116.576 54.4685 116.796 54.0525 116.94C53.6445 117.076 53.1485 117.144 52.5645 117.144C51.9725 117.144 51.4725 117.076 51.0645 116.94C50.6645 116.796 50.3365 116.576 50.0805 116.28C49.8245 115.984 49.6405 115.612 49.5285 115.164C49.4165 114.716 49.3605 114.184 49.3605 113.568V108.624H50.9205ZM60.3097 117.144C59.5897 117.144 58.9777 117.016 58.4737 116.76C57.9777 116.504 57.5497 116.168 57.1897 115.752L58.2577 114.72C58.5457 115.056 58.8657 115.312 59.2177 115.488C59.5777 115.664 59.9737 115.752 60.4057 115.752C60.8937 115.752 61.2617 115.648 61.5097 115.44C61.7577 115.224 61.8817 114.936 61.8817 114.576C61.8817 114.296 61.8017 114.068 61.6417 113.892C61.4817 113.716 61.1817 113.588 60.7417 113.508L59.9497 113.388C58.2777 113.124 57.4417 112.312 57.4417 110.952C57.4417 110.576 57.5097 110.236 57.6457 109.932C57.7897 109.628 57.9937 109.368 58.2577 109.152C58.5217 108.936 58.8377 108.772 59.2057 108.66C59.5817 108.54 60.0057 108.48 60.4777 108.48C61.1097 108.48 61.6617 108.584 62.1337 108.792C62.6057 109 63.0097 109.308 63.3457 109.716L62.2657 110.736C62.0577 110.48 61.8057 110.272 61.5097 110.112C61.2137 109.952 60.8417 109.872 60.3937 109.872C59.9377 109.872 59.5937 109.96 59.3617 110.136C59.1377 110.304 59.0257 110.544 59.0257 110.856C59.0257 111.176 59.1177 111.412 59.3017 111.564C59.4857 111.716 59.7817 111.828 60.1897 111.9L60.9697 112.044C61.8177 112.196 62.4417 112.468 62.8417 112.86C63.2497 113.244 63.4537 113.784 63.4537 114.48C63.4537 114.88 63.3817 115.244 63.2377 115.572C63.1017 115.892 62.8977 116.172 62.6257 116.412C62.3617 116.644 62.0337 116.824 61.6417 116.952C61.2577 117.08 60.8137 117.144 60.3097 117.144ZM68.0952 110.028V117H66.5112V110.028H64.1352V108.624H70.4712V110.028H68.0952ZM73.3522 117H71.7682V108.624H75.5482C75.9322 108.624 76.2762 108.684 76.5802 108.804C76.8842 108.924 77.1402 109.1 77.3482 109.332C77.5642 109.556 77.7282 109.828 77.8402 110.148C77.9602 110.468 78.0202 110.824 78.0202 111.216C78.0202 111.792 77.8882 112.288 77.6242 112.704C77.3682 113.12 76.9802 113.416 76.4602 113.592L78.1762 117H76.4122L74.8522 113.772H73.3522V117ZM75.3922 112.44C75.6962 112.44 75.9362 112.36 76.1122 112.2C76.2882 112.032 76.3762 111.796 76.3762 111.492V110.94C76.3762 110.636 76.2882 110.404 76.1122 110.244C75.9362 110.084 75.6962 110.004 75.3922 110.004H73.3522V112.44H75.3922ZM79.3889 117V115.728H80.4929V109.896H79.3889V108.624H83.1929V109.896H82.0769V115.728H83.1929V117H79.3889ZM84.8111 117V108.624H90.3311V110.028H86.3951V112.056H89.8751V113.46H86.3951V115.596H90.3311V117H84.8111ZM92.0065 117V108.624H93.5905V115.596H96.8905V117H92.0065ZM98.2643 117V108.624H99.8483V115.596H103.148V117H98.2643ZM104.522 117V108.624H110.042V110.028H106.106V112.056H109.586V113.46H106.106V115.596H110.042V117H104.522Z" fill="#F6851E"/>
<line x1="135.204" y1="6" x2="135.204" y2="196" stroke="#41637D" stroke-width="0.839895"/>
<line x1="177.198" y1="6" x2="177.198" y2="196" stroke="#41637D" stroke-width="0.839895"/>
<line x1="219.193" y1="6" x2="219.193" y2="196" stroke="#41637D" stroke-width="0.839895"/>
<path d="M91 0C80.1444 0 71.3125 8.83191 71.3125 19.6875C71.3125 28.4399 77.08 36.1135 85.4164 38.5712L89.7421 47.2225C89.9805 47.699 90.4672 48 91 48C91.5325 48 92.0195 47.699 92.2576 47.2225L96.5833 38.5715C104.92 36.1139 110.688 28.4403 110.688 19.6875C110.688 8.83191 101.856 0 91 0V0ZM95.2521 36.0223C94.8588 36.1241 94.5292 36.3911 94.3475 36.7544L91 43.4495L87.6525 36.7544C87.4708 36.3911 87.1412 36.1241 86.7479 36.022C79.3157 34.0935 74.125 27.3765 74.125 19.6875C74.125 10.3824 81.6949 2.8125 91 2.8125C100.305 2.8125 107.875 10.3824 107.875 19.6875C107.875 27.3765 102.684 34.0935 95.2521 36.0223Z" fill="#F6851E"/>
<path d="M91 14.0625C87.8982 14.0625 85.375 16.5857 85.375 19.6875C85.375 22.7893 87.8982 25.3125 91 25.3125C94.1018 25.3125 96.625 22.7893 96.625 19.6875C96.625 16.5857 94.1018 14.0625 91 14.0625ZM91 22.5C89.4491 22.5 88.1875 21.2384 88.1875 19.6875C88.1875 18.1366 89.4491 16.875 91 16.875C92.5509 16.875 93.8125 18.1366 93.8125 19.6875C93.8125 21.2384 92.5509 22.5 91 22.5Z" fill="#F6851E"/>
</svg>
