<svg width="343" height="143" viewBox="0 0 343 143" fill="none" xmlns="http://www.w3.org/2000/svg">
<mask id="path-1-inside-1" fill="white">
<path fill-rule="evenodd" clip-rule="evenodd" d="M18.4166 143C8.24539 143 0 134.755 0 124.583V29.9345C0 19.7633 8.24539 11.5179 18.4166 11.5179H166.423L177.942 3.05176e-05L189.462 11.5179H324.583C334.755 11.5179 343 19.7634 343 29.9346V124.583C343 134.755 334.755 143 324.583 143H18.4166Z"/>
</mask>
<path d="M166.423 11.5179L168.544 13.6394L167.666 14.5179H166.423V11.5179ZM177.942 3.05176e-05L175.821 -2.12143L177.942 -4.24234L180.064 -2.12143L177.942 3.05176e-05ZM189.462 11.5179V14.5179H188.219L187.341 13.6394L189.462 11.5179ZM3 124.583C3 133.098 9.90225 140 18.4166 140V146C6.58854 146 -3 136.411 -3 124.583H3ZM3 29.9345V124.583H-3V29.9345H3ZM18.4166 14.5179C9.90224 14.5179 3 21.4202 3 29.9345H-3C-3 18.1065 6.58853 8.51794 18.4166 8.51794V14.5179ZM166.423 14.5179H18.4166V8.51794H166.423V14.5179ZM180.064 2.12149L168.544 13.6394L164.302 9.39648L175.821 -2.12143L180.064 2.12149ZM187.341 13.6394L175.821 2.12149L180.064 -2.12143L191.583 9.39648L187.341 13.6394ZM324.583 14.5179H189.462V8.51794H324.583V14.5179ZM340 29.9346C340 21.4202 333.098 14.5179 324.583 14.5179V8.51794C336.411 8.51794 346 18.1065 346 29.9346H340ZM340 124.583V29.9346H346V124.583H340ZM324.583 140C333.098 140 340 133.098 340 124.583H346C346 136.411 336.411 146 324.583 146V140ZM18.4166 140H324.583V146H18.4166V140Z" fill="#39A4F5" mask="url(#path-1-inside-1)"/>
</svg>
