<svg width="142" height="142" viewBox="0 0 142 142" fill="none" xmlns="http://www.w3.org/2000/svg">
<path d="M130.286 19.3178C124.687 9.79939 119.177 2.06677 118.945 1.742C118.165 0.648707 116.904 0 115.56 0C114.217 0 112.956 0.648707 112.175 1.742C111.943 2.06649 106.434 9.79939 100.835 19.3178C92.9519 32.718 89.1201 42.3357 89.1201 48.7201C89.1201 63.2993 100.981 75.1602 115.56 75.1602C130.139 75.1602 142 63.299 142 48.7201C142 42.3357 138.169 32.718 130.286 19.3178Z" fill="#27547C"/>
<path d="M41.1659 41.5977C35.5668 32.0792 30.0571 24.3466 29.8253 24.0218C29.0443 22.9286 27.7835 22.2798 26.44 22.2798C25.0966 22.2798 23.8358 22.9286 23.0548 24.0218C22.8229 24.3463 17.3132 32.0792 11.7142 41.5977C3.83178 54.9981 0 64.6155 0 71C0 85.5791 11.8612 97.44 26.44 97.44C41.0189 97.44 52.88 85.5788 52.88 71C52.8803 64.6155 49.0485 54.9981 41.1659 41.5977Z" fill="#418BB3"/>
<path d="M70.9999 142C44.1356 142 22.2798 120.144 22.2798 93.2799C22.2798 81.4403 29.9691 62.3652 45.134 36.5847C56.2389 17.7065 67.5021 1.89953 67.6144 1.742C68.3957 0.648707 69.6565 0 70.9999 0C72.3434 0 73.6042 0.648707 74.3852 1.742C74.4975 1.89953 85.7607 17.7065 96.8656 36.5847C112.031 62.3652 119.72 81.4403 119.72 93.2799C119.72 120.144 97.8643 142 70.9999 142Z" fill="#5BC1EB"/>
<path d="M71 142V0C72.3435 0 73.6043 0.648707 74.3853 1.742C74.4976 1.89953 85.7608 17.7065 96.8656 36.5847C112.031 62.3652 119.72 81.4403 119.72 93.2799C119.72 120.144 97.8643 142 71 142Z" fill="#418BB3"/>
</svg>
