<svg width="296" height="216" viewBox="0 0 296 216" fill="none" xmlns="http://www.w3.org/2000/svg">
<path d="M188.903 212.144C188.367 212.144 187.903 212.048 187.511 211.856C187.119 211.656 186.795 211.372 186.539 211.004C186.283 210.636 186.091 210.184 185.963 209.648C185.843 209.112 185.783 208.5 185.783 207.812C185.783 207.132 185.843 206.524 185.963 205.988C186.091 205.444 186.283 204.988 186.539 204.62C186.795 204.252 187.119 203.972 187.511 203.78C187.903 203.58 188.367 203.48 188.903 203.48C189.967 203.48 190.751 203.86 191.255 204.62C191.767 205.38 192.023 206.444 192.023 207.812C192.023 209.18 191.767 210.244 191.255 211.004C190.751 211.764 189.967 212.144 188.903 212.144ZM188.903 210.812C189.439 210.812 189.811 210.612 190.019 210.212C190.235 209.804 190.343 209.256 190.343 208.568V207.056C190.343 206.368 190.235 205.824 190.019 205.424C189.811 205.016 189.439 204.812 188.903 204.812C188.367 204.812 187.991 205.016 187.775 205.424C187.567 205.824 187.463 206.368 187.463 207.056V208.568C187.463 209.256 187.567 209.804 187.775 210.212C187.991 210.612 188.367 210.812 188.903 210.812ZM194.658 212L200.466 203.624H201.858L196.05 212H194.658ZM195.234 208.232C194.554 208.232 194.034 208.032 193.674 207.632C193.322 207.224 193.146 206.632 193.146 205.856C193.146 205.08 193.322 204.492 193.674 204.092C194.034 203.684 194.554 203.48 195.234 203.48C195.914 203.48 196.43 203.684 196.782 204.092C197.134 204.492 197.31 205.08 197.31 205.856C197.31 206.632 197.134 207.224 196.782 207.632C196.43 208.032 195.914 208.232 195.234 208.232ZM195.234 207.32C195.73 207.32 195.978 206.94 195.978 206.18V205.532C195.978 204.772 195.73 204.392 195.234 204.392C194.738 204.392 194.49 204.772 194.49 205.532V206.18C194.49 206.94 194.738 207.32 195.234 207.32ZM201.282 212.144C200.61 212.144 200.094 211.944 199.734 211.544C199.382 211.136 199.206 210.544 199.206 209.768C199.206 208.992 199.382 208.404 199.734 208.004C200.094 207.596 200.61 207.392 201.282 207.392C201.962 207.392 202.478 207.596 202.83 208.004C203.19 208.404 203.37 208.992 203.37 209.768C203.37 210.544 203.19 211.136 202.83 211.544C202.478 211.944 201.962 212.144 201.282 212.144ZM201.282 211.232C201.778 211.232 202.026 210.852 202.026 210.092V209.444C202.026 208.684 201.778 208.304 201.282 208.304C200.786 208.304 200.538 208.684 200.538 209.444V210.092C200.538 210.852 200.786 211.232 201.282 211.232Z" fill="#41637D"/>
<path d="M229.278 204.992H225.51L225.318 207.8H225.402C225.49 207.624 225.586 207.46 225.69 207.308C225.794 207.156 225.914 207.028 226.05 206.924C226.186 206.82 226.342 206.74 226.518 206.684C226.702 206.62 226.922 206.588 227.178 206.588C227.538 206.588 227.874 206.648 228.186 206.768C228.498 206.888 228.766 207.064 228.99 207.296C229.222 207.52 229.402 207.796 229.53 208.124C229.666 208.452 229.734 208.824 229.734 209.24C229.734 209.664 229.666 210.052 229.53 210.404C229.394 210.756 229.194 211.064 228.93 211.328C228.666 211.584 228.342 211.784 227.958 211.928C227.574 212.072 227.134 212.144 226.638 212.144C226.254 212.144 225.91 212.1 225.606 212.012C225.302 211.932 225.034 211.82 224.802 211.676C224.57 211.532 224.37 211.368 224.202 211.184C224.034 210.992 223.886 210.792 223.758 210.584L224.91 209.696C225.006 209.856 225.106 210.008 225.21 210.152C225.314 210.288 225.434 210.408 225.57 210.512C225.714 210.616 225.87 210.7 226.038 210.764C226.214 210.82 226.418 210.848 226.65 210.848C227.122 210.848 227.478 210.716 227.718 210.452C227.966 210.188 228.09 209.828 228.09 209.372V209.276C228.09 208.844 227.966 208.504 227.718 208.256C227.47 208.008 227.126 207.884 226.686 207.884C226.342 207.884 226.062 207.952 225.846 208.088C225.63 208.216 225.458 208.356 225.33 208.508L224.034 208.328L224.346 203.624H229.278V204.992ZM233.893 212.144C233.357 212.144 232.893 212.048 232.501 211.856C232.109 211.656 231.785 211.372 231.529 211.004C231.273 210.636 231.081 210.184 230.953 209.648C230.833 209.112 230.773 208.5 230.773 207.812C230.773 207.132 230.833 206.524 230.953 205.988C231.081 205.444 231.273 204.988 231.529 204.62C231.785 204.252 232.109 203.972 232.501 203.78C232.893 203.58 233.357 203.48 233.893 203.48C234.957 203.48 235.741 203.86 236.245 204.62C236.757 205.38 237.013 206.444 237.013 207.812C237.013 209.18 236.757 210.244 236.245 211.004C235.741 211.764 234.957 212.144 233.893 212.144ZM233.893 210.812C234.429 210.812 234.801 210.612 235.009 210.212C235.225 209.804 235.333 209.256 235.333 208.568V207.056C235.333 206.368 235.225 205.824 235.009 205.424C234.801 205.016 234.429 204.812 233.893 204.812C233.357 204.812 232.981 205.016 232.765 205.424C232.557 205.824 232.453 206.368 232.453 207.056V208.568C232.453 209.256 232.557 209.804 232.765 210.212C232.981 210.612 233.357 210.812 233.893 210.812ZM239.648 212L245.456 203.624H246.848L241.04 212H239.648ZM240.224 208.232C239.544 208.232 239.024 208.032 238.664 207.632C238.312 207.224 238.136 206.632 238.136 205.856C238.136 205.08 238.312 204.492 238.664 204.092C239.024 203.684 239.544 203.48 240.224 203.48C240.904 203.48 241.42 203.684 241.772 204.092C242.124 204.492 242.3 205.08 242.3 205.856C242.3 206.632 242.124 207.224 241.772 207.632C241.42 208.032 240.904 208.232 240.224 208.232ZM240.224 207.32C240.72 207.32 240.968 206.94 240.968 206.18V205.532C240.968 204.772 240.72 204.392 240.224 204.392C239.728 204.392 239.48 204.772 239.48 205.532V206.18C239.48 206.94 239.728 207.32 240.224 207.32ZM246.272 212.144C245.6 212.144 245.084 211.944 244.724 211.544C244.372 211.136 244.196 210.544 244.196 209.768C244.196 208.992 244.372 208.404 244.724 208.004C245.084 207.596 245.6 207.392 246.272 207.392C246.952 207.392 247.468 207.596 247.82 208.004C248.18 208.404 248.36 208.992 248.36 209.768C248.36 210.544 248.18 211.136 247.82 211.544C247.468 211.944 246.952 212.144 246.272 212.144ZM246.272 211.232C246.768 211.232 247.016 210.852 247.016 210.092V209.444C247.016 208.684 246.768 208.304 246.272 208.304C245.776 208.304 245.528 208.684 245.528 209.444V210.092C245.528 210.852 245.776 211.232 246.272 211.232Z" fill="#41637D"/>
<path d="M262.825 212V210.716H265.129V204.764H265.021L263.197 206.924L262.213 206.096L264.289 203.624H266.677V210.716H268.597V212H262.825ZM272.529 212.144C271.993 212.144 271.529 212.048 271.137 211.856C270.745 211.656 270.421 211.372 270.165 211.004C269.909 210.636 269.717 210.184 269.589 209.648C269.469 209.112 269.409 208.5 269.409 207.812C269.409 207.132 269.469 206.524 269.589 205.988C269.717 205.444 269.909 204.988 270.165 204.62C270.421 204.252 270.745 203.972 271.137 203.78C271.529 203.58 271.993 203.48 272.529 203.48C273.593 203.48 274.377 203.86 274.881 204.62C275.393 205.38 275.649 206.444 275.649 207.812C275.649 209.18 275.393 210.244 274.881 211.004C274.377 211.764 273.593 212.144 272.529 212.144ZM272.529 210.812C273.065 210.812 273.437 210.612 273.645 210.212C273.861 209.804 273.969 209.256 273.969 208.568V207.056C273.969 206.368 273.861 205.824 273.645 205.424C273.437 205.016 273.065 204.812 272.529 204.812C271.993 204.812 271.617 205.016 271.401 205.424C271.193 205.824 271.089 206.368 271.089 207.056V208.568C271.089 209.256 271.193 209.804 271.401 210.212C271.617 210.612 271.993 210.812 272.529 210.812ZM279.724 212.144C279.188 212.144 278.724 212.048 278.332 211.856C277.94 211.656 277.616 211.372 277.36 211.004C277.104 210.636 276.912 210.184 276.784 209.648C276.664 209.112 276.604 208.5 276.604 207.812C276.604 207.132 276.664 206.524 276.784 205.988C276.912 205.444 277.104 204.988 277.36 204.62C277.616 204.252 277.94 203.972 278.332 203.78C278.724 203.58 279.188 203.48 279.724 203.48C280.788 203.48 281.572 203.86 282.076 204.62C282.588 205.38 282.844 206.444 282.844 207.812C282.844 209.18 282.588 210.244 282.076 211.004C281.572 211.764 280.788 212.144 279.724 212.144ZM279.724 210.812C280.26 210.812 280.632 210.612 280.84 210.212C281.056 209.804 281.164 209.256 281.164 208.568V207.056C281.164 206.368 281.056 205.824 280.84 205.424C280.632 205.016 280.26 204.812 279.724 204.812C279.188 204.812 278.812 205.016 278.596 205.424C278.388 205.824 278.284 206.368 278.284 207.056V208.568C278.284 209.256 278.388 209.804 278.596 210.212C278.812 210.612 279.188 210.812 279.724 210.812ZM285.479 212L291.287 203.624H292.679L286.871 212H285.479ZM286.055 208.232C285.375 208.232 284.855 208.032 284.495 207.632C284.143 207.224 283.967 206.632 283.967 205.856C283.967 205.08 284.143 204.492 284.495 204.092C284.855 203.684 285.375 203.48 286.055 203.48C286.735 203.48 287.251 203.684 287.603 204.092C287.955 204.492 288.131 205.08 288.131 205.856C288.131 206.632 287.955 207.224 287.603 207.632C287.251 208.032 286.735 208.232 286.055 208.232ZM286.055 207.32C286.551 207.32 286.799 206.94 286.799 206.18V205.532C286.799 204.772 286.551 204.392 286.055 204.392C285.559 204.392 285.311 204.772 285.311 205.532V206.18C285.311 206.94 285.559 207.32 286.055 207.32ZM292.103 212.144C291.431 212.144 290.915 211.944 290.555 211.544C290.203 211.136 290.027 210.544 290.027 209.768C290.027 208.992 290.203 208.404 290.555 208.004C290.915 207.596 291.431 207.392 292.103 207.392C292.783 207.392 293.299 207.596 293.651 208.004C294.011 208.404 294.191 208.992 294.191 209.768C294.191 210.544 294.011 211.136 293.651 211.544C293.299 211.944 292.783 212.144 292.103 212.144ZM292.103 211.232C292.599 211.232 292.847 210.852 292.847 210.092V209.444C292.847 208.684 292.599 208.304 292.103 208.304C291.607 208.304 291.359 208.684 291.359 209.444V210.092C291.359 210.852 291.607 211.232 292.103 211.232Z" fill="#41637D"/>
<line opacity="0.2" x1="203.36" y1="1.64788e-08" x2="203.36" y2="190" stroke="#41637D" stroke-width="0.839895"/>
<line opacity="0.2" x1="245.355" y1="1.64788e-08" x2="245.355" y2="190" stroke="#41637D" stroke-width="0.839895"/>
<line opacity="0.2" x1="211.76" y1="1.64788e-08" x2="211.76" y2="190" stroke="#41637D" stroke-width="0.839895"/>
<line opacity="0.2" x1="253.754" y1="1.64788e-08" x2="253.754" y2="190" stroke="#41637D" stroke-width="0.839895"/>
<line opacity="0.2" x1="220.158" y1="1.64788e-08" x2="220.158" y2="190" stroke="#41637D" stroke-width="0.839895"/>
<line opacity="0.2" x1="262.153" y1="1.64788e-08" x2="262.153" y2="190" stroke="#41637D" stroke-width="0.839895"/>
<line opacity="0.2" x1="228.558" y1="1.64788e-08" x2="228.558" y2="190" stroke="#41637D" stroke-width="0.839895"/>
<line opacity="0.2" x1="270.552" y1="1.64788e-08" x2="270.552" y2="190" stroke="#41637D" stroke-width="0.839895"/>
<rect x="194.541" width="83.9895" height="16.7979" fill="#EDEDED"/>
<rect x="195.489" width="66" height="17" fill="#1084DD"/>
<path d="M53.0782 13V4.624H58.5982V6.028H54.6622V8.056H58.1422V9.46H54.6622V11.596H58.5982V13H53.0782ZM66.9336 13H65.0856L63.1656 9.784H63.1296L61.2336 13H59.5056L62.2176 8.704L59.6256 4.624H61.4736L63.2496 7.6H63.2856L65.0856 4.624H66.8136L64.1976 8.704L66.9336 13ZM71.4248 6.028V13H69.8408V6.028H67.4648V4.624H73.8008V6.028H71.4248ZM76.6818 13H75.0978V4.624H78.8778C79.2618 4.624 79.6058 4.684 79.9098 4.804C80.2138 4.924 80.4698 5.1 80.6778 5.332C80.8938 5.556 81.0578 5.828 81.1698 6.148C81.2898 6.468 81.3498 6.824 81.3498 7.216C81.3498 7.792 81.2178 8.288 80.9538 8.704C80.6978 9.12 80.3098 9.416 79.7898 9.592L81.5058 13H79.7418L78.1818 9.772H76.6818V13ZM78.7218 8.44C79.0258 8.44 79.2658 8.36 79.4418 8.2C79.6178 8.032 79.7058 7.796 79.7058 7.492V6.94C79.7058 6.636 79.6178 6.404 79.4418 6.244C79.2658 6.084 79.0258 6.004 78.7218 6.004H76.6818V8.44H78.7218ZM88.2505 13L87.5785 10.864H84.6025L83.9425 13H82.3345L85.1425 4.624H87.1105L89.8945 13H88.2505ZM86.1145 6.064H86.0545L84.9865 9.508H87.1945L86.1145 6.064ZM94.0646 13.144C93.5126 13.144 93.0126 13.056 92.5646 12.88C92.1246 12.696 91.7446 12.424 91.4246 12.064C91.1126 11.704 90.8726 11.26 90.7046 10.732C90.5366 10.196 90.4526 9.576 90.4526 8.872C90.4526 8.168 90.5366 7.544 90.7046 7C90.8726 6.448 91.1126 5.988 91.4246 5.62C91.7446 5.244 92.1246 4.96 92.5646 4.768C93.0126 4.576 93.5126 4.48 94.0646 4.48C94.8166 4.48 95.4406 4.64 95.9366 4.96C96.4326 5.28 96.8286 5.764 97.1246 6.412L95.7686 7.132C95.6486 6.756 95.4526 6.456 95.1806 6.232C94.9086 6 94.5366 5.884 94.0646 5.884C93.4726 5.884 93.0006 6.084 92.6486 6.484C92.3046 6.884 92.1326 7.444 92.1326 8.164V9.484C92.1326 10.212 92.3046 10.772 92.6486 11.164C93.0006 11.548 93.4726 11.74 94.0646 11.74C94.5366 11.74 94.9206 11.612 95.2166 11.356C95.5206 11.1 95.7406 10.784 95.8766 10.408L97.1606 11.164C96.8566 11.788 96.4526 12.276 95.9486 12.628C95.4446 12.972 94.8166 13.144 94.0646 13.144ZM101.8 6.028V13H100.216V6.028H97.8398V4.624H104.176V6.028H101.8ZM105.066 13V11.728H106.17V5.896H105.066V4.624H108.87V5.896H107.754V11.728H108.87V13H105.066ZM113.776 13.144C113.224 13.144 112.724 13.052 112.276 12.868C111.828 12.684 111.444 12.408 111.124 12.04C110.812 11.672 110.568 11.22 110.392 10.684C110.216 10.148 110.128 9.524 110.128 8.812C110.128 8.108 110.216 7.488 110.392 6.952C110.568 6.408 110.812 5.952 111.124 5.584C111.444 5.216 111.828 4.94 112.276 4.756C112.724 4.572 113.224 4.48 113.776 4.48C114.328 4.48 114.828 4.572 115.276 4.756C115.724 4.94 116.108 5.216 116.428 5.584C116.748 5.952 116.992 6.408 117.16 6.952C117.336 7.488 117.424 8.108 117.424 8.812C117.424 9.524 117.336 10.148 117.16 10.684C116.992 11.22 116.748 11.672 116.428 12.04C116.108 12.408 115.724 12.684 115.276 12.868C114.828 13.052 114.328 13.144 113.776 13.144ZM113.776 11.74C114.376 11.74 114.852 11.54 115.204 11.14C115.564 10.74 115.744 10.18 115.744 9.46V8.164C115.744 7.444 115.564 6.884 115.204 6.484C114.852 6.084 114.376 5.884 113.776 5.884C113.176 5.884 112.696 6.084 112.336 6.484C111.984 6.884 111.808 7.444 111.808 8.164V9.46C111.808 10.18 111.984 10.74 112.336 11.14C112.696 11.54 113.176 11.74 113.776 11.74ZM121.431 8.704L120.567 6.964H120.531V13H119.031V4.624H120.771L123.291 8.92L124.155 10.66H124.191V4.624H125.691V13H123.951L121.431 8.704ZM130.492 13V4.624H134.26C134.644 4.624 134.988 4.688 135.292 4.816C135.604 4.936 135.868 5.112 136.084 5.344C136.3 5.568 136.464 5.84 136.576 6.16C136.688 6.48 136.744 6.832 136.744 7.216C136.744 7.608 136.688 7.964 136.576 8.284C136.464 8.596 136.3 8.868 136.084 9.1C135.868 9.324 135.604 9.5 135.292 9.628C134.988 9.748 134.644 9.808 134.26 9.808H132.076V13H130.492ZM132.076 8.44H134.116C134.42 8.44 134.66 8.36 134.836 8.2C135.012 8.032 135.1 7.796 135.1 7.492V6.94C135.1 6.636 135.012 6.404 134.836 6.244C134.66 6.084 134.42 6.004 134.116 6.004H132.076V8.44ZM137.832 13V11.728H138.936V5.896H137.832V4.624H141.636V5.896H140.52V11.728H141.636V13H137.832ZM143.254 13V4.624H144.838V11.596H148.138V13H143.254ZM152.355 13.144C151.803 13.144 151.303 13.052 150.855 12.868C150.407 12.684 150.023 12.408 149.703 12.04C149.391 11.672 149.147 11.22 148.971 10.684C148.795 10.148 148.707 9.524 148.707 8.812C148.707 8.108 148.795 7.488 148.971 6.952C149.147 6.408 149.391 5.952 149.703 5.584C150.023 5.216 150.407 4.94 150.855 4.756C151.303 4.572 151.803 4.48 152.355 4.48C152.907 4.48 153.407 4.572 153.855 4.756C154.303 4.94 154.687 5.216 155.007 5.584C155.327 5.952 155.571 6.408 155.739 6.952C155.915 7.488 156.003 8.108 156.003 8.812C156.003 9.524 155.915 10.148 155.739 10.684C155.571 11.22 155.327 11.672 155.007 12.04C154.687 12.408 154.303 12.684 153.855 12.868C153.407 13.052 152.907 13.144 152.355 13.144ZM152.355 11.74C152.955 11.74 153.431 11.54 153.783 11.14C154.143 10.74 154.323 10.18 154.323 9.46V8.164C154.323 7.444 154.143 6.884 153.783 6.484C153.431 6.084 152.955 5.884 152.355 5.884C151.755 5.884 151.275 6.084 150.915 6.484C150.563 6.884 150.387 7.444 150.387 8.164V9.46C150.387 10.18 150.563 10.74 150.915 11.14C151.275 11.54 151.755 11.74 152.355 11.74ZM160.605 6.028V13H159.021V6.028H156.645V4.624H162.981V6.028H160.605ZM164.277 13V4.624H169.797V6.028H165.861V8.056H169.341V9.46H165.861V11.596H169.797V13H164.277Z" fill="#41637D"/>
<rect x="194.541" y="41" width="83.9895" height="16.7979" fill="#EDEDED"/>
<rect x="194.488" y="41" width="69" height="17" fill="#39A4F5"/>
<rect x="194.488" y="41" width="51" height="17" fill="#1084DD"/>
<path d="M18.9293 54.0005V45.6245H22.6973C23.0813 45.6245 23.4253 45.6885 23.7293 45.8165C24.0413 45.9365 24.3053 46.1125 24.5213 46.3445C24.7373 46.5685 24.9013 46.8405 25.0133 47.1605C25.1253 47.4805 25.1813 47.8325 25.1813 48.2165C25.1813 48.6085 25.1253 48.9645 25.0133 49.2845C24.9013 49.5965 24.7373 49.8685 24.5213 50.1005C24.3053 50.3245 24.0413 50.5005 23.7293 50.6285C23.4253 50.7485 23.0813 50.8085 22.6973 50.8085H20.5133V54.0005H18.9293ZM20.5133 49.4405H22.5533C22.8573 49.4405 23.0973 49.3605 23.2733 49.2005C23.4493 49.0325 23.5373 48.7965 23.5373 48.4925V47.9405C23.5373 47.6365 23.4493 47.4045 23.2733 47.2445C23.0973 47.0845 22.8573 47.0045 22.5533 47.0045H20.5133V49.4405ZM29.9048 54.1445C29.3528 54.1445 28.8528 54.0525 28.4048 53.8685C27.9568 53.6845 27.5728 53.4085 27.2528 53.0405C26.9408 52.6725 26.6968 52.2205 26.5208 51.6845C26.3448 51.1485 26.2568 50.5245 26.2568 49.8125C26.2568 49.1085 26.3448 48.4885 26.5208 47.9525C26.6968 47.4085 26.9408 46.9525 27.2528 46.5845C27.5728 46.2165 27.9568 45.9405 28.4048 45.7565C28.8528 45.5725 29.3528 45.4805 29.9048 45.4805C30.4568 45.4805 30.9568 45.5725 31.4048 45.7565C31.8528 45.9405 32.2368 46.2165 32.5568 46.5845C32.8768 46.9525 33.1208 47.4085 33.2888 47.9525C33.4648 48.4885 33.5528 49.1085 33.5528 49.8125C33.5528 50.5245 33.4648 51.1485 33.2888 51.6845C33.1208 52.2205 32.8768 52.6725 32.5568 53.0405C32.2368 53.4085 31.8528 53.6845 31.4048 53.8685C30.9568 54.0525 30.4568 54.1445 29.9048 54.1445ZM29.9048 52.7405C30.5048 52.7405 30.9808 52.5405 31.3328 52.1405C31.6928 51.7405 31.8728 51.1805 31.8728 50.4605V49.1645C31.8728 48.4445 31.6928 47.8845 31.3328 47.4845C30.9808 47.0845 30.5048 46.8845 29.9048 46.8845C29.3048 46.8845 28.8248 47.0845 28.4648 47.4845C28.1128 47.8845 27.9368 48.4445 27.9368 49.1645V50.4605C27.9368 51.1805 28.1128 51.7405 28.4648 52.1405C28.8248 52.5405 29.3048 52.7405 29.9048 52.7405ZM37.7286 54.1445C37.0086 54.1445 36.3966 54.0165 35.8926 53.7605C35.3966 53.5045 34.9686 53.1685 34.6086 52.7525L35.6766 51.7205C35.9646 52.0565 36.2846 52.3125 36.6366 52.4885C36.9966 52.6645 37.3926 52.7525 37.8246 52.7525C38.3126 52.7525 38.6806 52.6485 38.9286 52.4405C39.1766 52.2245 39.3006 51.9365 39.3006 51.5765C39.3006 51.2965 39.2206 51.0685 39.0606 50.8925C38.9006 50.7165 38.6006 50.5885 38.1606 50.5085L37.3686 50.3885C35.6966 50.1245 34.8606 49.3125 34.8606 47.9525C34.8606 47.5765 34.9286 47.2365 35.0646 46.9325C35.2086 46.6285 35.4126 46.3685 35.6766 46.1525C35.9406 45.9365 36.2566 45.7725 36.6246 45.6605C37.0006 45.5405 37.4246 45.4805 37.8966 45.4805C38.5286 45.4805 39.0806 45.5845 39.5526 45.7925C40.0246 46.0005 40.4286 46.3085 40.7646 46.7165L39.6846 47.7365C39.4766 47.4805 39.2246 47.2725 38.9286 47.1125C38.6326 46.9525 38.2606 46.8725 37.8126 46.8725C37.3566 46.8725 37.0126 46.9605 36.7806 47.1365C36.5566 47.3045 36.4446 47.5445 36.4446 47.8565C36.4446 48.1765 36.5366 48.4125 36.7206 48.5645C36.9046 48.7165 37.2006 48.8285 37.6086 48.9005L38.3886 49.0445C39.2366 49.1965 39.8606 49.4685 40.2606 49.8605C40.6686 50.2445 40.8726 50.7845 40.8726 51.4805C40.8726 51.8805 40.8006 52.2445 40.6566 52.5725C40.5206 52.8925 40.3166 53.1725 40.0446 53.4125C39.7806 53.6445 39.4526 53.8245 39.0606 53.9525C38.6766 54.0805 38.2326 54.1445 37.7286 54.1445ZM45.5142 47.0285V54.0005H43.9302V47.0285H41.5542V45.6245H47.8902V47.0285H45.5142ZM48.3483 51.1085V49.5845H51.7803V51.1085H48.3483ZM56.2017 47.0285V54.0005H54.6177V47.0285H52.2417V45.6245H58.5777V47.0285H56.2017ZM61.4586 54.0005H59.8746V45.6245H63.6546C64.0386 45.6245 64.3826 45.6845 64.6866 45.8045C64.9906 45.9245 65.2466 46.1005 65.4546 46.3325C65.6706 46.5565 65.8346 46.8285 65.9466 47.1485C66.0666 47.4685 66.1266 47.8245 66.1266 48.2165C66.1266 48.7925 65.9946 49.2885 65.7306 49.7045C65.4746 50.1205 65.0866 50.4165 64.5666 50.5925L66.2826 54.0005H64.5186L62.9586 50.7725H61.4586V54.0005ZM63.4986 49.4405C63.8026 49.4405 64.0426 49.3605 64.2186 49.2005C64.3946 49.0325 64.4826 48.7965 64.4826 48.4925V47.9405C64.4826 47.6365 64.3946 47.4045 64.2186 47.2445C64.0426 47.0845 63.8026 47.0045 63.4986 47.0045H61.4586V49.4405H63.4986ZM73.0274 54.0005L72.3554 51.8645H69.3794L68.7194 54.0005H67.1114L69.9194 45.6245H71.8874L74.6714 54.0005H73.0274ZM70.8914 47.0645H70.8314L69.7634 50.5085H71.9714L70.8914 47.0645ZM75.5579 54.0005V52.7285H76.6619V46.8965H75.5579V45.6245H79.3619V46.8965H78.2459V52.7285H79.3619V54.0005H75.5579ZM84.2095 47.0285V54.0005H82.6255V47.0285H80.2495V45.6245H86.5855V47.0285H84.2095ZM87.8824 54.0005V45.6245H93.4024V47.0285H89.4664V49.0565H92.9464V50.4605H89.4664V52.5965H93.4024V54.0005H87.8824ZM101.402 47.9885H101.354L100.706 49.3205L98.9898 52.4885L97.2738 49.3205L96.6258 47.9885H96.5778V54.0005H95.0778V45.6245H96.8658L99.0138 49.7165H99.0618L101.186 45.6245H102.902V54.0005H101.402V47.9885ZM104.875 54.0005V45.6245H110.395V47.0285H106.459V49.0565H109.939V50.4605H106.459V52.5965H110.395V54.0005H104.875ZM114.47 49.7045L113.606 47.9645H113.57V54.0005H112.07V45.6245H113.81L116.33 49.9205L117.194 51.6605H117.23V45.6245H118.73V54.0005H116.99L114.47 49.7045ZM123.983 47.0285V54.0005H122.399V47.0285H120.023V45.6245H126.359V47.0285H123.983ZM130.492 54.0005V45.6245H134.26C134.644 45.6245 134.988 45.6885 135.292 45.8165C135.604 45.9365 135.868 46.1125 136.084 46.3445C136.3 46.5685 136.464 46.8405 136.576 47.1605C136.688 47.4805 136.744 47.8325 136.744 48.2165C136.744 48.6085 136.688 48.9645 136.576 49.2845C136.464 49.5965 136.3 49.8685 136.084 50.1005C135.868 50.3245 135.604 50.5005 135.292 50.6285C134.988 50.7485 134.644 50.8085 134.26 50.8085H132.076V54.0005H130.492ZM132.076 49.4405H134.116C134.42 49.4405 134.66 49.3605 134.836 49.2005C135.012 49.0325 135.1 48.7965 135.1 48.4925V47.9405C135.1 47.6365 135.012 47.4045 134.836 47.2445C134.66 47.0845 134.42 47.0045 134.116 47.0045H132.076V49.4405ZM137.831 54.0005V52.7285H138.935V46.8965H137.831V45.6245H141.635V46.8965H140.519V52.7285H141.635V54.0005H137.831ZM143.254 54.0005V45.6245H144.838V52.5965H148.138V54.0005H143.254ZM152.354 54.1445C151.802 54.1445 151.302 54.0525 150.854 53.8685C150.406 53.6845 150.022 53.4085 149.702 53.0405C149.39 52.6725 149.146 52.2205 148.97 51.6845C148.794 51.1485 148.706 50.5245 148.706 49.8125C148.706 49.1085 148.794 48.4885 148.97 47.9525C149.146 47.4085 149.39 46.9525 149.702 46.5845C150.022 46.2165 150.406 45.9405 150.854 45.7565C151.302 45.5725 151.802 45.4805 152.354 45.4805C152.906 45.4805 153.406 45.5725 153.854 45.7565C154.302 45.9405 154.686 46.2165 155.006 46.5845C155.326 46.9525 155.57 47.4085 155.738 47.9525C155.914 48.4885 156.002 49.1085 156.002 49.8125C156.002 50.5245 155.914 51.1485 155.738 51.6845C155.57 52.2205 155.326 52.6725 155.006 53.0405C154.686 53.4085 154.302 53.6845 153.854 53.8685C153.406 54.0525 152.906 54.1445 152.354 54.1445ZM152.354 52.7405C152.954 52.7405 153.43 52.5405 153.782 52.1405C154.142 51.7405 154.322 51.1805 154.322 50.4605V49.1645C154.322 48.4445 154.142 47.8845 153.782 47.4845C153.43 47.0845 152.954 46.8845 152.354 46.8845C151.754 46.8845 151.274 47.0845 150.914 47.4845C150.562 47.8845 150.386 48.4445 150.386 49.1645V50.4605C150.386 51.1805 150.562 51.7405 150.914 52.1405C151.274 52.5405 151.754 52.7405 152.354 52.7405ZM160.604 47.0285V54.0005H159.02V47.0285H156.644V45.6245H162.98V47.0285H160.604ZM164.277 54.0005V45.6245H169.797V47.0285H165.861V49.0565H169.341V50.4605H165.861V52.5965H169.797V54.0005H164.277Z" fill="#41637D"/>
<rect x="194.542" y="82" width="83.9895" height="16.7979" fill="#39A4F5"/>
<rect x="194.488" y="82" width="51" height="17" fill="#1084DD"/>
<path d="M9.2755 95.144C8.5555 95.144 7.9435 95.016 7.4395 94.76C6.9435 94.504 6.5155 94.168 6.1555 93.752L7.2235 92.72C7.5115 93.056 7.8315 93.312 8.1835 93.488C8.5435 93.664 8.9395 93.752 9.3715 93.752C9.8595 93.752 10.2275 93.648 10.4755 93.44C10.7235 93.224 10.8475 92.936 10.8475 92.576C10.8475 92.296 10.7675 92.068 10.6075 91.892C10.4475 91.716 10.1475 91.588 9.7075 91.508L8.9155 91.388C7.2435 91.124 6.4075 90.312 6.4075 88.952C6.4075 88.576 6.4755 88.236 6.6115 87.932C6.7555 87.628 6.9595 87.368 7.2235 87.152C7.4875 86.936 7.8035 86.772 8.1715 86.66C8.5475 86.54 8.9715 86.48 9.4435 86.48C10.0755 86.48 10.6275 86.584 11.0995 86.792C11.5715 87 11.9755 87.308 12.3115 87.716L11.2315 88.736C11.0235 88.48 10.7715 88.272 10.4755 88.112C10.1795 87.952 9.8075 87.872 9.3595 87.872C8.9035 87.872 8.5595 87.96 8.3275 88.136C8.1035 88.304 7.9915 88.544 7.9915 88.856C7.9915 89.176 8.0835 89.412 8.2675 89.564C8.4515 89.716 8.7475 89.828 9.1555 89.9L9.9355 90.044C10.7835 90.196 11.4075 90.468 11.8075 90.86C12.2155 91.244 12.4195 91.784 12.4195 92.48C12.4195 92.88 12.3475 93.244 12.2035 93.572C12.0675 93.892 11.8635 94.172 11.5915 94.412C11.3275 94.644 10.9995 94.824 10.6075 94.952C10.2235 95.08 9.7795 95.144 9.2755 95.144ZM17.2594 95.144C16.7074 95.144 16.2074 95.056 15.7594 94.88C15.3194 94.696 14.9394 94.424 14.6194 94.064C14.3074 93.704 14.0674 93.26 13.8994 92.732C13.7314 92.196 13.6474 91.576 13.6474 90.872C13.6474 90.168 13.7314 89.544 13.8994 89C14.0674 88.448 14.3074 87.988 14.6194 87.62C14.9394 87.244 15.3194 86.96 15.7594 86.768C16.2074 86.576 16.7074 86.48 17.2594 86.48C18.0114 86.48 18.6354 86.64 19.1314 86.96C19.6274 87.28 20.0234 87.764 20.3194 88.412L18.9634 89.132C18.8434 88.756 18.6474 88.456 18.3754 88.232C18.1034 88 17.7314 87.884 17.2594 87.884C16.6674 87.884 16.1954 88.084 15.8434 88.484C15.4994 88.884 15.3274 89.444 15.3274 90.164V91.484C15.3274 92.212 15.4994 92.772 15.8434 93.164C16.1954 93.548 16.6674 93.74 17.2594 93.74C17.7314 93.74 18.1154 93.612 18.4114 93.356C18.7154 93.1 18.9354 92.784 19.0714 92.408L20.3554 93.164C20.0514 93.788 19.6474 94.276 19.1434 94.628C18.6394 94.972 18.0114 95.144 17.2594 95.144ZM26.8203 95L26.1483 92.864H23.1723L22.5123 95H20.9043L23.7123 86.624H25.6803L28.4643 95H26.8203ZM24.6843 88.064H24.6243L23.5563 91.508H25.7643L24.6843 88.064ZM29.6988 95V86.624H31.2828V93.596H34.5828V95H29.6988ZM35.9567 95V86.624H41.4767V88.028H37.5407V90.056H41.0207V91.46H37.5407V93.596H41.4767V95H35.9567ZM42.864 92.108V90.584H46.296V92.108H42.864ZM49.4801 86.624V91.772C49.4801 92.428 49.6041 92.92 49.8521 93.248C50.1081 93.576 50.5361 93.74 51.1361 93.74C51.7361 93.74 52.1601 93.576 52.4081 93.248C52.6641 92.92 52.7921 92.428 52.7921 91.772V86.624H54.3521V91.568C54.3521 92.184 54.2921 92.716 54.1721 93.164C54.0601 93.612 53.8761 93.984 53.6201 94.28C53.3641 94.576 53.0281 94.796 52.6121 94.94C52.2041 95.076 51.7081 95.144 51.1241 95.144C50.5321 95.144 50.0321 95.076 49.6241 94.94C49.2241 94.796 48.8961 94.576 48.6401 94.28C48.3841 93.984 48.2001 93.612 48.0881 93.164C47.9761 92.716 47.9201 92.184 47.9201 91.568V86.624H49.4801ZM56.2653 95V86.624H60.0333C60.4173 86.624 60.7613 86.688 61.0653 86.816C61.3773 86.936 61.6413 87.112 61.8573 87.344C62.0733 87.568 62.2373 87.84 62.3493 88.16C62.4613 88.48 62.5173 88.832 62.5173 89.216C62.5173 89.608 62.4613 89.964 62.3493 90.284C62.2373 90.596 62.0733 90.868 61.8573 91.1C61.6413 91.324 61.3773 91.5 61.0653 91.628C60.7613 91.748 60.4173 91.808 60.0333 91.808H57.8493V95H56.2653ZM57.8493 90.44H59.8893C60.1933 90.44 60.4333 90.36 60.6093 90.2C60.7853 90.032 60.8733 89.796 60.8733 89.492V88.94C60.8733 88.636 60.7853 88.404 60.6093 88.244C60.4333 88.084 60.1933 88.004 59.8893 88.004H57.8493V90.44ZM66.7887 95V86.624H68.3727V93.596H71.6727V95H66.7887ZM78.4414 95L77.7694 92.864H74.7934L74.1334 95H72.5254L75.3334 86.624H77.3014L80.0854 95H78.4414ZM76.3054 88.064H76.2454L75.1774 91.508H77.3854L76.3054 88.064ZM81.3199 86.624H85.1959C85.5399 86.624 85.8479 86.676 86.1199 86.78C86.3999 86.884 86.6359 87.028 86.8279 87.212C87.0199 87.396 87.1639 87.624 87.2599 87.896C87.3639 88.16 87.4159 88.452 87.4159 88.772C87.4159 89.092 87.3719 89.364 87.2839 89.588C87.2039 89.804 87.0919 89.984 86.9479 90.128C86.8119 90.272 86.6519 90.38 86.4679 90.452C86.2919 90.524 86.1079 90.564 85.9159 90.572V90.644C86.0999 90.644 86.2959 90.68 86.5039 90.752C86.7199 90.824 86.9159 90.94 87.0919 91.1C87.2759 91.252 87.4279 91.452 87.5479 91.7C87.6679 91.94 87.7279 92.24 87.7279 92.6C87.7279 92.936 87.6719 93.252 87.5599 93.548C87.4559 93.836 87.3079 94.088 87.1159 94.304C86.9239 94.52 86.6959 94.692 86.4319 94.82C86.1679 94.94 85.8799 95 85.5679 95H81.3199V86.624ZM82.9039 93.656H85.1119C85.4159 93.656 85.6519 93.58 85.8199 93.428C85.9879 93.268 86.0719 93.04 86.0719 92.744V92.336C86.0719 92.04 85.9879 91.812 85.8199 91.652C85.6519 91.492 85.4159 91.412 85.1119 91.412H82.9039V93.656ZM82.9039 90.116H84.8599C85.1479 90.116 85.3719 90.04 85.5319 89.888C85.6919 89.728 85.7719 89.508 85.7719 89.228V88.856C85.7719 88.576 85.6919 88.36 85.5319 88.208C85.3719 88.048 85.1479 87.968 84.8599 87.968H82.9039V90.116ZM92.565 95.144C92.013 95.144 91.513 95.052 91.065 94.868C90.617 94.684 90.233 94.408 89.913 94.04C89.601 93.672 89.357 93.22 89.181 92.684C89.005 92.148 88.917 91.524 88.917 90.812C88.917 90.108 89.005 89.488 89.181 88.952C89.357 88.408 89.601 87.952 89.913 87.584C90.233 87.216 90.617 86.94 91.065 86.756C91.513 86.572 92.013 86.48 92.565 86.48C93.117 86.48 93.617 86.572 94.065 86.756C94.513 86.94 94.897 87.216 95.217 87.584C95.537 87.952 95.781 88.408 95.949 88.952C96.125 89.488 96.213 90.108 96.213 90.812C96.213 91.524 96.125 92.148 95.949 92.684C95.781 93.22 95.537 93.672 95.217 94.04C94.897 94.408 94.513 94.684 94.065 94.868C93.617 95.052 93.117 95.144 92.565 95.144ZM92.565 93.74C93.165 93.74 93.641 93.54 93.993 93.14C94.353 92.74 94.533 92.18 94.533 91.46V90.164C94.533 89.444 94.353 88.884 93.993 88.484C93.641 88.084 93.165 87.884 92.565 87.884C91.965 87.884 91.485 88.084 91.125 88.484C90.773 88.884 90.597 89.444 90.597 90.164V91.46C90.597 92.18 90.773 92.74 91.125 93.14C91.485 93.54 91.965 93.74 92.565 93.74ZM100.308 95V93.728H101.412V87.896H100.308V86.624H104.112V87.896H102.996V93.728H104.112V95H100.308ZM108.13 90.704L107.266 88.964H107.23V95H105.73V86.624H107.47L109.99 90.92L110.854 92.66H110.89V86.624H112.39V95H110.65L108.13 90.704ZM114.355 86.624H117.403C117.947 86.624 118.439 86.712 118.879 86.888C119.327 87.064 119.707 87.328 120.019 87.68C120.339 88.024 120.583 88.46 120.751 88.988C120.927 89.508 121.015 90.116 121.015 90.812C121.015 91.508 120.927 92.12 120.751 92.648C120.583 93.168 120.339 93.604 120.019 93.956C119.707 94.3 119.327 94.56 118.879 94.736C118.439 94.912 117.947 95 117.403 95H114.355V86.624ZM117.403 93.596C117.995 93.596 118.463 93.424 118.807 93.08C119.159 92.728 119.335 92.192 119.335 91.472V90.152C119.335 89.432 119.159 88.9 118.807 88.556C118.463 88.204 117.995 88.028 117.403 88.028H115.939V93.596H117.403ZM124.129 86.624V91.772C124.129 92.428 124.253 92.92 124.501 93.248C124.757 93.576 125.185 93.74 125.785 93.74C126.385 93.74 126.809 93.576 127.057 93.248C127.313 92.92 127.441 92.428 127.441 91.772V86.624H129.001V91.568C129.001 92.184 128.941 92.716 128.821 93.164C128.709 93.612 128.525 93.984 128.269 94.28C128.013 94.576 127.677 94.796 127.261 94.94C126.853 95.076 126.357 95.144 125.773 95.144C125.181 95.144 124.681 95.076 124.273 94.94C123.873 94.796 123.545 94.576 123.289 94.28C123.033 93.984 122.849 93.612 122.737 93.164C122.625 92.716 122.569 92.184 122.569 91.568V86.624H124.129ZM133.518 95.144C132.798 95.144 132.186 95.016 131.682 94.76C131.186 94.504 130.758 94.168 130.398 93.752L131.466 92.72C131.754 93.056 132.074 93.312 132.426 93.488C132.786 93.664 133.182 93.752 133.614 93.752C134.102 93.752 134.47 93.648 134.718 93.44C134.966 93.224 135.09 92.936 135.09 92.576C135.09 92.296 135.01 92.068 134.85 91.892C134.69 91.716 134.39 91.588 133.95 91.508L133.158 91.388C131.486 91.124 130.65 90.312 130.65 88.952C130.65 88.576 130.718 88.236 130.854 87.932C130.998 87.628 131.202 87.368 131.466 87.152C131.73 86.936 132.046 86.772 132.414 86.66C132.79 86.54 133.214 86.48 133.686 86.48C134.318 86.48 134.87 86.584 135.342 86.792C135.814 87 136.218 87.308 136.554 87.716L135.474 88.736C135.266 88.48 135.014 88.272 134.718 88.112C134.422 87.952 134.05 87.872 133.602 87.872C133.146 87.872 132.802 87.96 132.57 88.136C132.346 88.304 132.234 88.544 132.234 88.856C132.234 89.176 132.326 89.412 132.51 89.564C132.694 89.716 132.99 89.828 133.398 89.9L134.178 90.044C135.026 90.196 135.65 90.468 136.05 90.86C136.458 91.244 136.662 91.784 136.662 92.48C136.662 92.88 136.59 93.244 136.446 93.572C136.31 93.892 136.106 94.172 135.834 94.412C135.57 94.644 135.242 94.824 134.85 94.952C134.466 95.08 134.022 95.144 133.518 95.144ZM141.303 88.028V95H139.719V88.028H137.343V86.624H143.679V88.028H141.303ZM146.56 95H144.976V86.624H148.756C149.14 86.624 149.484 86.684 149.788 86.804C150.092 86.924 150.348 87.1 150.556 87.332C150.772 87.556 150.936 87.828 151.048 88.148C151.168 88.468 151.228 88.824 151.228 89.216C151.228 89.792 151.096 90.288 150.832 90.704C150.576 91.12 150.188 91.416 149.668 91.592L151.384 95H149.62L148.06 91.772H146.56V95ZM148.6 90.44C148.904 90.44 149.144 90.36 149.32 90.2C149.496 90.032 149.584 89.796 149.584 89.492V88.94C149.584 88.636 149.496 88.404 149.32 88.244C149.144 88.084 148.904 88.004 148.6 88.004H146.56V90.44H148.6ZM152.597 95V93.728H153.701V87.896H152.597V86.624H156.401V87.896H155.285V93.728H156.401V95H152.597ZM158.019 95V86.624H163.539V88.028H159.603V90.056H163.083V91.46H159.603V93.596H163.539V95H158.019ZM165.214 95V86.624H166.798V93.596H170.098V95H165.214Z" fill="#41637D"/>
<rect x="194.542" y="164" width="83.9895" height="16.7979" fill="#EDEDED"/>
<rect x="194.488" y="164.202" width="18" height="17" fill="#39A4F5"/>
<rect x="194.488" y="164.202" width="10" height="17" fill="#1084DD"/>
<path d="M2.37267 177V168.624H7.76067V170.028H3.95667V172.056H7.26867V173.46H3.95667V177H2.37267ZM12.27 177.144C11.718 177.144 11.218 177.052 10.77 176.868C10.322 176.684 9.93805 176.408 9.61805 176.04C9.30605 175.672 9.06205 175.22 8.88605 174.684C8.71005 174.148 8.62205 173.524 8.62205 172.812C8.62205 172.108 8.71005 171.488 8.88605 170.952C9.06205 170.408 9.30605 169.952 9.61805 169.584C9.93805 169.216 10.322 168.94 10.77 168.756C11.218 168.572 11.718 168.48 12.27 168.48C12.822 168.48 13.322 168.572 13.77 168.756C14.218 168.94 14.602 169.216 14.922 169.584C15.242 169.952 15.486 170.408 15.654 170.952C15.83 171.488 15.918 172.108 15.918 172.812C15.918 173.524 15.83 174.148 15.654 174.684C15.486 175.22 15.242 175.672 14.922 176.04C14.602 176.408 14.218 176.684 13.77 176.868C13.322 177.052 12.822 177.144 12.27 177.144ZM12.27 175.74C12.87 175.74 13.346 175.54 13.698 175.14C14.058 174.74 14.238 174.18 14.238 173.46V172.164C14.238 171.444 14.058 170.884 13.698 170.484C13.346 170.084 12.87 169.884 12.27 169.884C11.67 169.884 11.19 170.084 10.83 170.484C10.478 170.884 10.302 171.444 10.302 172.164V173.46C10.302 174.18 10.478 174.74 10.83 175.14C11.19 175.54 11.67 175.74 12.27 175.74ZM19.109 177H17.525V168.624H21.305C21.689 168.624 22.033 168.684 22.337 168.804C22.641 168.924 22.897 169.1 23.105 169.332C23.321 169.556 23.485 169.828 23.597 170.148C23.717 170.468 23.777 170.824 23.777 171.216C23.777 171.792 23.645 172.288 23.381 172.704C23.125 173.12 22.737 173.416 22.217 173.592L23.933 177H22.169L20.609 173.772H19.109V177ZM21.149 172.44C21.453 172.44 21.693 172.36 21.869 172.2C22.045 172.032 22.133 171.796 22.133 171.492V170.94C22.133 170.636 22.045 170.404 21.869 170.244C21.693 170.084 21.453 170.004 21.149 170.004H19.109V172.44H21.149ZM31.8178 170.988H31.7698L31.1218 172.32L29.4058 175.488L27.6898 172.32L27.0418 170.988H26.9938V177H25.4938V168.624H27.2818L29.4298 172.716H29.4778L31.6018 168.624H33.3178V177H31.8178V170.988ZM36.7906 168.624V173.772C36.7906 174.428 36.9146 174.92 37.1626 175.248C37.4186 175.576 37.8466 175.74 38.4466 175.74C39.0466 175.74 39.4706 175.576 39.7186 175.248C39.9746 174.92 40.1026 174.428 40.1026 173.772V168.624H41.6626V173.568C41.6626 174.184 41.6026 174.716 41.4826 175.164C41.3706 175.612 41.1866 175.984 40.9306 176.28C40.6746 176.576 40.3386 176.796 39.9226 176.94C39.5146 177.076 39.0186 177.144 38.4346 177.144C37.8426 177.144 37.3426 177.076 36.9346 176.94C36.5346 176.796 36.2066 176.576 35.9506 176.28C35.6946 175.984 35.5106 175.612 35.3986 175.164C35.2866 174.716 35.2306 174.184 35.2306 173.568V168.624H36.7906ZM43.5758 177V168.624H45.1598V175.596H48.4598V177H43.5758ZM55.2285 177L54.5565 174.864H51.5805L50.9205 177H49.3125L52.1205 168.624H54.0885L56.8725 177H55.2285ZM53.0925 170.064H53.0325L51.9645 173.508H54.1725L53.0925 170.064ZM60.6099 170.028V177H59.0259V170.028H56.6499V168.624H62.9859V170.028H60.6099ZM63.8762 177V175.728H64.9802V169.896H63.8762V168.624H67.6802V169.896H66.5642V175.728H67.6802V177H63.8762ZM72.5865 177.144C72.0345 177.144 71.5345 177.052 71.0865 176.868C70.6385 176.684 70.2545 176.408 69.9345 176.04C69.6225 175.672 69.3785 175.22 69.2025 174.684C69.0265 174.148 68.9385 173.524 68.9385 172.812C68.9385 172.108 69.0265 171.488 69.2025 170.952C69.3785 170.408 69.6225 169.952 69.9345 169.584C70.2545 169.216 70.6385 168.94 71.0865 168.756C71.5345 168.572 72.0345 168.48 72.5865 168.48C73.1385 168.48 73.6385 168.572 74.0865 168.756C74.5345 168.94 74.9185 169.216 75.2385 169.584C75.5585 169.952 75.8025 170.408 75.9705 170.952C76.1465 171.488 76.2345 172.108 76.2345 172.812C76.2345 173.524 76.1465 174.148 75.9705 174.684C75.8025 175.22 75.5585 175.672 75.2385 176.04C74.9185 176.408 74.5345 176.684 74.0865 176.868C73.6385 177.052 73.1385 177.144 72.5865 177.144ZM72.5865 175.74C73.1865 175.74 73.6625 175.54 74.0145 175.14C74.3745 174.74 74.5545 174.18 74.5545 173.46V172.164C74.5545 171.444 74.3745 170.884 74.0145 170.484C73.6625 170.084 73.1865 169.884 72.5865 169.884C71.9865 169.884 71.5065 170.084 71.1465 170.484C70.7945 170.884 70.6185 171.444 70.6185 172.164V173.46C70.6185 174.18 70.7945 174.74 71.1465 175.14C71.5065 175.54 71.9865 175.74 72.5865 175.74ZM80.2414 172.704L79.3774 170.964H79.3414V177H77.8414V168.624H79.5814L82.1014 172.92L82.9654 174.66H83.0014V168.624H84.5014V177H82.7614L80.2414 172.704ZM94.1744 176.232C94.0544 176.336 93.9184 176.444 93.7664 176.556C93.6144 176.66 93.4384 176.756 93.2384 176.844C93.0464 176.932 92.8264 177.004 92.5784 177.06C92.3384 177.116 92.0664 177.144 91.7624 177.144C91.3144 177.144 90.9144 177.084 90.5624 176.964C90.2184 176.844 89.9304 176.68 89.6984 176.472C89.4664 176.264 89.2904 176.02 89.1704 175.74C89.0504 175.452 88.9904 175.144 88.9904 174.816C88.9904 174.52 89.0344 174.26 89.1224 174.036C89.2104 173.804 89.3304 173.596 89.4824 173.412C89.6344 173.22 89.8144 173.052 90.0224 172.908C90.2304 172.756 90.4504 172.612 90.6824 172.476C90.4344 172.196 90.2144 171.892 90.0224 171.564C89.8384 171.228 89.7464 170.868 89.7464 170.484C89.7464 170.212 89.8024 169.956 89.9144 169.716C90.0264 169.468 90.1864 169.252 90.3944 169.068C90.6104 168.884 90.8664 168.74 91.1624 168.636C91.4584 168.532 91.7904 168.48 92.1584 168.48C92.4864 168.48 92.7904 168.524 93.0704 168.612C93.3504 168.7 93.5904 168.824 93.7904 168.984C93.9984 169.144 94.1584 169.34 94.2704 169.572C94.3904 169.804 94.4504 170.068 94.4504 170.364C94.4504 170.628 94.4024 170.872 94.3064 171.096C94.2184 171.312 94.0944 171.512 93.9344 171.696C93.7744 171.872 93.5904 172.04 93.3824 172.2C93.1744 172.352 92.9504 172.496 92.7104 172.632L94.1744 174.216C94.2864 173.944 94.3704 173.656 94.4264 173.352C94.4904 173.048 94.5304 172.744 94.5464 172.44H96.4304V173.724H95.6504C95.5304 174.268 95.3464 174.764 95.0984 175.212L96.7544 177H94.8704L94.1744 176.232ZM92.1104 169.668C91.8544 169.668 91.6424 169.744 91.4744 169.896C91.3064 170.04 91.2224 170.236 91.2224 170.484V170.568C91.2224 170.752 91.2784 170.936 91.3904 171.12C91.5104 171.296 91.6944 171.524 91.9424 171.804C92.2464 171.62 92.4944 171.428 92.6864 171.228C92.8864 171.028 92.9864 170.796 92.9864 170.532V170.46C92.9864 170.204 92.8984 170.008 92.7224 169.872C92.5544 169.736 92.3504 169.668 92.1104 169.668ZM91.9664 175.86C92.2544 175.86 92.5144 175.816 92.7464 175.728C92.9784 175.64 93.1824 175.52 93.3584 175.368L91.4504 173.304C91.1704 173.472 90.9504 173.652 90.7904 173.844C90.6384 174.028 90.5624 174.264 90.5624 174.552V174.684C90.5624 175.036 90.6824 175.32 90.9224 175.536C91.1624 175.752 91.5104 175.86 91.9664 175.86ZM102.637 177L99.901 168.624H101.521L102.805 172.704L103.549 175.488H103.585L104.317 172.704L105.601 168.624H107.173L104.437 177H102.637ZM112.932 177L112.26 174.864H109.284L108.624 177H107.016L109.824 168.624H111.792L114.576 177H112.932ZM110.796 170.064H110.736L109.668 173.508H111.876L110.796 170.064ZM115.81 177V168.624H117.394V175.596H120.694V177H115.81ZM121.72 177V175.728H122.824V169.896H121.72V168.624H125.524V169.896H124.408V175.728H125.524V177H121.72ZM127.142 168.624H130.19C130.734 168.624 131.226 168.712 131.666 168.888C132.114 169.064 132.494 169.328 132.806 169.68C133.126 170.024 133.37 170.46 133.538 170.988C133.714 171.508 133.802 172.116 133.802 172.812C133.802 173.508 133.714 174.12 133.538 174.648C133.37 175.168 133.126 175.604 132.806 175.956C132.494 176.3 132.114 176.56 131.666 176.736C131.226 176.912 130.734 177 130.19 177H127.142V168.624ZM130.19 175.596C130.782 175.596 131.25 175.424 131.594 175.08C131.946 174.728 132.122 174.192 132.122 173.472V172.152C132.122 171.432 131.946 170.9 131.594 170.556C131.25 170.204 130.782 170.028 130.19 170.028H128.726V175.596H130.19ZM140.236 177L139.564 174.864H136.588L135.928 177H134.32L137.128 168.624H139.096L141.88 177H140.236ZM138.1 170.064H138.04L136.972 173.508H139.18L138.1 170.064ZM145.618 170.028V177H144.034V170.028H141.658V168.624H147.994V170.028H145.618ZM148.884 177V175.728H149.988V169.896H148.884V168.624H152.688V169.896H151.572V175.728H152.688V177H148.884ZM157.594 177.144C157.042 177.144 156.542 177.052 156.094 176.868C155.646 176.684 155.262 176.408 154.942 176.04C154.63 175.672 154.386 175.22 154.21 174.684C154.034 174.148 153.946 173.524 153.946 172.812C153.946 172.108 154.034 171.488 154.21 170.952C154.386 170.408 154.63 169.952 154.942 169.584C155.262 169.216 155.646 168.94 156.094 168.756C156.542 168.572 157.042 168.48 157.594 168.48C158.146 168.48 158.646 168.572 159.094 168.756C159.542 168.94 159.926 169.216 160.246 169.584C160.566 169.952 160.81 170.408 160.978 170.952C161.154 171.488 161.242 172.108 161.242 172.812C161.242 173.524 161.154 174.148 160.978 174.684C160.81 175.22 160.566 175.672 160.246 176.04C159.926 176.408 159.542 176.684 159.094 176.868C158.646 177.052 158.146 177.144 157.594 177.144ZM157.594 175.74C158.194 175.74 158.67 175.54 159.022 175.14C159.382 174.74 159.562 174.18 159.562 173.46V172.164C159.562 171.444 159.382 170.884 159.022 170.484C158.67 170.084 158.194 169.884 157.594 169.884C156.994 169.884 156.514 170.084 156.154 170.484C155.802 170.884 155.626 171.444 155.626 172.164V173.46C155.626 174.18 155.802 174.74 156.154 175.14C156.514 175.54 156.994 175.74 157.594 175.74ZM165.249 172.704L164.385 170.964H164.349V177H162.849V168.624H164.589L167.109 172.92L167.973 174.66H168.009V168.624H169.509V177H167.769L165.249 172.704Z" fill="#41637D"/>
<rect x="194.542" y="123" width="83.9895" height="16.7979" fill="#EDEDED"/>
<rect x="194.488" y="123" width="64" height="17" fill="#39A4F5"/>
<rect x="194.488" y="123" width="18" height="17" fill="#1084DD"/>
<path d="M58.4043 136.404L57.7323 134.268H54.7563L54.0963 136.404H52.4883L55.2963 128.028H57.2643L60.0483 136.404H58.4043ZM56.2683 129.468H56.2083L55.1403 132.912H57.3483L56.2683 129.468ZM63.6828 132.108L62.8188 130.368H62.7828V136.404H61.2828V128.028H63.0228L65.5428 132.324L66.4068 134.064H66.4428V128.028H67.9428V136.404H66.2028L63.6828 132.108ZM75.0918 136.404L74.4198 134.268H71.4438L70.7838 136.404H69.1758L71.9838 128.028H73.9518L76.7358 136.404H75.0918ZM72.9558 129.468H72.8958L71.8278 132.912H74.0358L72.9558 129.468ZM77.9703 136.404V128.028H79.5543V135H82.8543V136.404H77.9703ZM85.2126 136.404V133.116L82.3446 128.028H84.1206L86.0526 131.568H86.0766L87.9606 128.028H89.6886L86.8086 133.104V136.404H85.2126ZM92.9376 136.548C92.2176 136.548 91.6056 136.42 91.1016 136.164C90.6056 135.908 90.1776 135.572 89.8176 135.156L90.8856 134.124C91.1736 134.46 91.4936 134.716 91.8456 134.892C92.2056 135.068 92.6016 135.156 93.0336 135.156C93.5216 135.156 93.8896 135.052 94.1376 134.844C94.3856 134.628 94.5096 134.34 94.5096 133.98C94.5096 133.7 94.4296 133.472 94.2696 133.296C94.1096 133.12 93.8096 132.992 93.3696 132.912L92.5776 132.792C90.9056 132.528 90.0696 131.716 90.0696 130.356C90.0696 129.98 90.1376 129.64 90.2736 129.336C90.4176 129.032 90.6216 128.772 90.8856 128.556C91.1496 128.34 91.4656 128.176 91.8336 128.064C92.2096 127.944 92.6336 127.884 93.1056 127.884C93.7376 127.884 94.2896 127.988 94.7616 128.196C95.2336 128.404 95.6376 128.712 95.9736 129.12L94.8936 130.14C94.6856 129.884 94.4336 129.676 94.1376 129.516C93.8416 129.356 93.4696 129.276 93.0216 129.276C92.5656 129.276 92.2216 129.364 91.9896 129.54C91.7656 129.708 91.6536 129.948 91.6536 130.26C91.6536 130.58 91.7456 130.816 91.9296 130.968C92.1136 131.12 92.4096 131.232 92.8176 131.304L93.5976 131.448C94.4456 131.6 95.0696 131.872 95.4696 132.264C95.8776 132.648 96.0816 133.188 96.0816 133.884C96.0816 134.284 96.0096 134.648 95.8656 134.976C95.7296 135.296 95.5256 135.576 95.2536 135.816C94.9896 136.048 94.6616 136.228 94.2696 136.356C93.8856 136.484 93.4416 136.548 92.9376 136.548ZM97.6695 136.404V128.028H103.19V129.432H99.2535V131.46H102.734V132.864H99.2535V135H103.19V136.404H97.6695ZM109.285 136.404H107.701V128.028H111.481C111.865 128.028 112.209 128.088 112.513 128.208C112.817 128.328 113.073 128.504 113.281 128.736C113.497 128.96 113.661 129.232 113.773 129.552C113.893 129.872 113.953 130.228 113.953 130.62C113.953 131.196 113.821 131.692 113.557 132.108C113.301 132.524 112.913 132.82 112.393 132.996L114.109 136.404H112.345L110.785 133.176H109.285V136.404ZM111.325 131.844C111.629 131.844 111.869 131.764 112.045 131.604C112.221 131.436 112.309 131.2 112.309 130.896V130.344C112.309 130.04 112.221 129.808 112.045 129.648C111.869 129.488 111.629 129.408 111.325 129.408H109.285V131.844H111.325ZM115.67 136.404V128.028H121.19V129.432H117.254V131.46H120.734V132.864H117.254V135H121.19V136.404H115.67ZM118.586 127.476L117.662 127.02L118.802 124.776L120.098 125.424L118.586 127.476ZM125.469 136.548C124.749 136.548 124.137 136.42 123.633 136.164C123.137 135.908 122.709 135.572 122.349 135.156L123.417 134.124C123.705 134.46 124.025 134.716 124.377 134.892C124.737 135.068 125.133 135.156 125.565 135.156C126.053 135.156 126.421 135.052 126.669 134.844C126.917 134.628 127.041 134.34 127.041 133.98C127.041 133.7 126.961 133.472 126.801 133.296C126.641 133.12 126.341 132.992 125.901 132.912L125.109 132.792C123.437 132.528 122.601 131.716 122.601 130.356C122.601 129.98 122.669 129.64 122.805 129.336C122.949 129.032 123.153 128.772 123.417 128.556C123.681 128.34 123.997 128.176 124.365 128.064C124.741 127.944 125.165 127.884 125.637 127.884C126.269 127.884 126.821 127.988 127.293 128.196C127.765 128.404 128.169 128.712 128.505 129.12L127.425 130.14C127.217 129.884 126.965 129.676 126.669 129.516C126.373 129.356 126.001 129.276 125.553 129.276C125.097 129.276 124.753 129.364 124.521 129.54C124.297 129.708 124.185 129.948 124.185 130.26C124.185 130.58 124.277 130.816 124.461 130.968C124.645 131.12 124.941 131.232 125.349 131.304L126.129 131.448C126.977 131.6 127.601 131.872 128.001 132.264C128.409 132.648 128.613 133.188 128.613 133.884C128.613 134.284 128.541 134.648 128.397 134.976C128.261 135.296 128.057 135.576 127.785 135.816C127.521 136.048 127.193 136.228 126.801 136.356C126.417 136.484 125.973 136.548 125.469 136.548ZM131.701 128.028V133.176C131.701 133.832 131.825 134.324 132.073 134.652C132.329 134.98 132.757 135.144 133.357 135.144C133.957 135.144 134.381 134.98 134.629 134.652C134.885 134.324 135.013 133.832 135.013 133.176V128.028H136.573V132.972C136.573 133.588 136.513 134.12 136.393 134.568C136.281 135.016 136.097 135.388 135.841 135.684C135.585 135.98 135.249 136.2 134.833 136.344C134.425 136.48 133.929 136.548 133.345 136.548C132.753 136.548 132.253 136.48 131.845 136.344C131.445 136.2 131.117 135.98 130.861 135.684C130.605 135.388 130.421 135.016 130.309 134.568C130.197 134.12 130.141 133.588 130.141 132.972V128.028H131.701ZM138.486 136.404V128.028H140.07V135H143.37V136.404H138.486ZM147.153 129.432V136.404H145.569V129.432H143.193V128.028H149.529V129.432H147.153ZM155.225 136.404L154.553 134.268H151.577L150.917 136.404H149.309L152.117 128.028H154.085L156.869 136.404H155.225ZM153.089 129.468H153.029L151.961 132.912H154.169L153.089 129.468ZM160.606 129.432V136.404H159.022V129.432H156.646V128.028H162.982V129.432H160.606ZM166.742 136.548C166.022 136.548 165.41 136.42 164.906 136.164C164.41 135.908 163.982 135.572 163.622 135.156L164.69 134.124C164.978 134.46 165.298 134.716 165.65 134.892C166.01 135.068 166.406 135.156 166.838 135.156C167.326 135.156 167.694 135.052 167.942 134.844C168.19 134.628 168.314 134.34 168.314 133.98C168.314 133.7 168.234 133.472 168.074 133.296C167.914 133.12 167.614 132.992 167.174 132.912L166.382 132.792C164.71 132.528 163.874 131.716 163.874 130.356C163.874 129.98 163.942 129.64 164.078 129.336C164.222 129.032 164.426 128.772 164.69 128.556C164.954 128.34 165.27 128.176 165.638 128.064C166.014 127.944 166.438 127.884 166.91 127.884C167.542 127.884 168.094 127.988 168.566 128.196C169.038 128.404 169.442 128.712 169.778 129.12L168.698 130.14C168.49 129.884 168.238 129.676 167.942 129.516C167.646 129.356 167.274 129.276 166.826 129.276C166.37 129.276 166.026 129.364 165.794 129.54C165.57 129.708 165.458 129.948 165.458 130.26C165.458 130.58 165.55 130.816 165.734 130.968C165.918 131.12 166.214 131.232 166.622 131.304L167.402 131.448C168.25 131.6 168.874 131.872 169.274 132.264C169.682 132.648 169.886 133.188 169.886 133.884C169.886 134.284 169.814 134.648 169.67 134.976C169.534 135.296 169.33 135.576 169.058 135.816C168.794 136.048 168.466 136.228 168.074 136.356C167.69 136.484 167.246 136.548 166.742 136.548Z" fill="#41637D"/>
<line x1="194.961" y1="1.64788e-08" x2="194.961" y2="190" stroke="#41637D" stroke-width="0.839895"/>
<line x1="236.955" y1="1.64788e-08" x2="236.955" y2="190" stroke="#41637D" stroke-width="0.839895"/>
<line x1="278.95" y1="1.64788e-08" x2="278.95" y2="190" stroke="#41637D" stroke-width="0.839895"/>
</svg>
