<svg width="327" height="216" viewBox="0 0 327 216" fill="none" xmlns="http://www.w3.org/2000/svg">
<path d="M219.414 212.144C218.878 212.144 218.414 212.048 218.022 211.856C217.63 211.656 217.306 211.372 217.05 211.004C216.794 210.636 216.602 210.184 216.474 209.648C216.354 209.112 216.294 208.5 216.294 207.812C216.294 207.132 216.354 206.524 216.474 205.988C216.602 205.444 216.794 204.988 217.05 204.62C217.306 204.252 217.63 203.972 218.022 203.78C218.414 203.58 218.878 203.48 219.414 203.48C220.478 203.48 221.262 203.86 221.766 204.62C222.278 205.38 222.534 206.444 222.534 207.812C222.534 209.18 222.278 210.244 221.766 211.004C221.262 211.764 220.478 212.144 219.414 212.144ZM219.414 210.812C219.95 210.812 220.322 210.612 220.53 210.212C220.746 209.804 220.854 209.256 220.854 208.568V207.056C220.854 206.368 220.746 205.824 220.53 205.424C220.322 205.016 219.95 204.812 219.414 204.812C218.878 204.812 218.502 205.016 218.286 205.424C218.078 205.824 217.974 206.368 217.974 207.056V208.568C217.974 209.256 218.078 209.804 218.286 210.212C218.502 210.612 218.878 210.812 219.414 210.812ZM225.17 212L230.978 203.624H232.37L226.562 212H225.17ZM225.746 208.232C225.066 208.232 224.546 208.032 224.186 207.632C223.834 207.224 223.658 206.632 223.658 205.856C223.658 205.08 223.834 204.492 224.186 204.092C224.546 203.684 225.066 203.48 225.746 203.48C226.426 203.48 226.942 203.684 227.294 204.092C227.646 204.492 227.822 205.08 227.822 205.856C227.822 206.632 227.646 207.224 227.294 207.632C226.942 208.032 226.426 208.232 225.746 208.232ZM225.746 207.32C226.242 207.32 226.49 206.94 226.49 206.18V205.532C226.49 204.772 226.242 204.392 225.746 204.392C225.25 204.392 225.002 204.772 225.002 205.532V206.18C225.002 206.94 225.25 207.32 225.746 207.32ZM231.794 212.144C231.122 212.144 230.606 211.944 230.246 211.544C229.894 211.136 229.718 210.544 229.718 209.768C229.718 208.992 229.894 208.404 230.246 208.004C230.606 207.596 231.122 207.392 231.794 207.392C232.474 207.392 232.99 207.596 233.342 208.004C233.702 208.404 233.882 208.992 233.882 209.768C233.882 210.544 233.702 211.136 233.342 211.544C232.99 211.944 232.474 212.144 231.794 212.144ZM231.794 211.232C232.29 211.232 232.538 210.852 232.538 210.092V209.444C232.538 208.684 232.29 208.304 231.794 208.304C231.298 208.304 231.05 208.684 231.05 209.444V210.092C231.05 210.852 231.298 211.232 231.794 211.232Z" fill="#41637D"/>
<path d="M259.789 204.992H256.021L255.829 207.8H255.913C256.001 207.624 256.097 207.46 256.201 207.308C256.305 207.156 256.425 207.028 256.561 206.924C256.697 206.82 256.853 206.74 257.029 206.684C257.213 206.62 257.433 206.588 257.689 206.588C258.049 206.588 258.385 206.648 258.697 206.768C259.009 206.888 259.277 207.064 259.501 207.296C259.733 207.52 259.913 207.796 260.041 208.124C260.177 208.452 260.245 208.824 260.245 209.24C260.245 209.664 260.177 210.052 260.041 210.404C259.905 210.756 259.705 211.064 259.441 211.328C259.177 211.584 258.853 211.784 258.469 211.928C258.085 212.072 257.645 212.144 257.149 212.144C256.765 212.144 256.421 212.1 256.117 212.012C255.813 211.932 255.545 211.82 255.313 211.676C255.081 211.532 254.881 211.368 254.713 211.184C254.545 210.992 254.397 210.792 254.269 210.584L255.421 209.696C255.517 209.856 255.617 210.008 255.721 210.152C255.825 210.288 255.945 210.408 256.081 210.512C256.225 210.616 256.381 210.7 256.549 210.764C256.725 210.82 256.929 210.848 257.161 210.848C257.633 210.848 257.989 210.716 258.229 210.452C258.477 210.188 258.601 209.828 258.601 209.372V209.276C258.601 208.844 258.477 208.504 258.229 208.256C257.981 208.008 257.637 207.884 257.197 207.884C256.853 207.884 256.573 207.952 256.357 208.088C256.141 208.216 255.969 208.356 255.841 208.508L254.545 208.328L254.857 203.624H259.789V204.992ZM264.405 212.144C263.869 212.144 263.405 212.048 263.013 211.856C262.621 211.656 262.297 211.372 262.041 211.004C261.785 210.636 261.593 210.184 261.465 209.648C261.345 209.112 261.285 208.5 261.285 207.812C261.285 207.132 261.345 206.524 261.465 205.988C261.593 205.444 261.785 204.988 262.041 204.62C262.297 204.252 262.621 203.972 263.013 203.78C263.405 203.58 263.869 203.48 264.405 203.48C265.469 203.48 266.253 203.86 266.757 204.62C267.269 205.38 267.525 206.444 267.525 207.812C267.525 209.18 267.269 210.244 266.757 211.004C266.253 211.764 265.469 212.144 264.405 212.144ZM264.405 210.812C264.941 210.812 265.313 210.612 265.521 210.212C265.737 209.804 265.845 209.256 265.845 208.568V207.056C265.845 206.368 265.737 205.824 265.521 205.424C265.313 205.016 264.941 204.812 264.405 204.812C263.869 204.812 263.493 205.016 263.277 205.424C263.069 205.824 262.965 206.368 262.965 207.056V208.568C262.965 209.256 263.069 209.804 263.277 210.212C263.493 210.612 263.869 210.812 264.405 210.812ZM270.16 212L275.968 203.624H277.36L271.552 212H270.16ZM270.736 208.232C270.056 208.232 269.536 208.032 269.176 207.632C268.824 207.224 268.648 206.632 268.648 205.856C268.648 205.08 268.824 204.492 269.176 204.092C269.536 203.684 270.056 203.48 270.736 203.48C271.416 203.48 271.932 203.684 272.284 204.092C272.636 204.492 272.812 205.08 272.812 205.856C272.812 206.632 272.636 207.224 272.284 207.632C271.932 208.032 271.416 208.232 270.736 208.232ZM270.736 207.32C271.232 207.32 271.48 206.94 271.48 206.18V205.532C271.48 204.772 271.232 204.392 270.736 204.392C270.24 204.392 269.992 204.772 269.992 205.532V206.18C269.992 206.94 270.24 207.32 270.736 207.32ZM276.784 212.144C276.112 212.144 275.596 211.944 275.236 211.544C274.884 211.136 274.708 210.544 274.708 209.768C274.708 208.992 274.884 208.404 275.236 208.004C275.596 207.596 276.112 207.392 276.784 207.392C277.464 207.392 277.98 207.596 278.332 208.004C278.692 208.404 278.872 208.992 278.872 209.768C278.872 210.544 278.692 211.136 278.332 211.544C277.98 211.944 277.464 212.144 276.784 212.144ZM276.784 211.232C277.28 211.232 277.528 210.852 277.528 210.092V209.444C277.528 208.684 277.28 208.304 276.784 208.304C276.288 208.304 276.04 208.684 276.04 209.444V210.092C276.04 210.852 276.288 211.232 276.784 211.232Z" fill="#41637D"/>
<path d="M293.337 212V210.716H295.641V204.764H295.533L293.709 206.924L292.725 206.096L294.801 203.624H297.189V210.716H299.109V212H293.337ZM303.04 212.144C302.504 212.144 302.04 212.048 301.648 211.856C301.256 211.656 300.932 211.372 300.676 211.004C300.42 210.636 300.228 210.184 300.1 209.648C299.98 209.112 299.92 208.5 299.92 207.812C299.92 207.132 299.98 206.524 300.1 205.988C300.228 205.444 300.42 204.988 300.676 204.62C300.932 204.252 301.256 203.972 301.648 203.78C302.04 203.58 302.504 203.48 303.04 203.48C304.104 203.48 304.888 203.86 305.392 204.62C305.904 205.38 306.16 206.444 306.16 207.812C306.16 209.18 305.904 210.244 305.392 211.004C304.888 211.764 304.104 212.144 303.04 212.144ZM303.04 210.812C303.576 210.812 303.948 210.612 304.156 210.212C304.372 209.804 304.48 209.256 304.48 208.568V207.056C304.48 206.368 304.372 205.824 304.156 205.424C303.948 205.016 303.576 204.812 303.04 204.812C302.504 204.812 302.128 205.016 301.912 205.424C301.704 205.824 301.6 206.368 301.6 207.056V208.568C301.6 209.256 301.704 209.804 301.912 210.212C302.128 210.612 302.504 210.812 303.04 210.812ZM310.236 212.144C309.7 212.144 309.236 212.048 308.844 211.856C308.452 211.656 308.128 211.372 307.872 211.004C307.616 210.636 307.424 210.184 307.296 209.648C307.176 209.112 307.116 208.5 307.116 207.812C307.116 207.132 307.176 206.524 307.296 205.988C307.424 205.444 307.616 204.988 307.872 204.62C308.128 204.252 308.452 203.972 308.844 203.78C309.236 203.58 309.7 203.48 310.236 203.48C311.3 203.48 312.084 203.86 312.588 204.62C313.1 205.38 313.356 206.444 313.356 207.812C313.356 209.18 313.1 210.244 312.588 211.004C312.084 211.764 311.3 212.144 310.236 212.144ZM310.236 210.812C310.772 210.812 311.144 210.612 311.352 210.212C311.568 209.804 311.676 209.256 311.676 208.568V207.056C311.676 206.368 311.568 205.824 311.352 205.424C311.144 205.016 310.772 204.812 310.236 204.812C309.7 204.812 309.324 205.016 309.108 205.424C308.9 205.824 308.796 206.368 308.796 207.056V208.568C308.796 209.256 308.9 209.804 309.108 210.212C309.324 210.612 309.7 210.812 310.236 210.812ZM315.991 212L321.799 203.624H323.191L317.383 212H315.991ZM316.567 208.232C315.887 208.232 315.367 208.032 315.007 207.632C314.655 207.224 314.479 206.632 314.479 205.856C314.479 205.08 314.655 204.492 315.007 204.092C315.367 203.684 315.887 203.48 316.567 203.48C317.247 203.48 317.763 203.684 318.115 204.092C318.467 204.492 318.643 205.08 318.643 205.856C318.643 206.632 318.467 207.224 318.115 207.632C317.763 208.032 317.247 208.232 316.567 208.232ZM316.567 207.32C317.063 207.32 317.311 206.94 317.311 206.18V205.532C317.311 204.772 317.063 204.392 316.567 204.392C316.071 204.392 315.823 204.772 315.823 205.532V206.18C315.823 206.94 316.071 207.32 316.567 207.32ZM322.615 212.144C321.943 212.144 321.427 211.944 321.067 211.544C320.715 211.136 320.539 210.544 320.539 209.768C320.539 208.992 320.715 208.404 321.067 208.004C321.427 207.596 321.943 207.392 322.615 207.392C323.295 207.392 323.811 207.596 324.163 208.004C324.523 208.404 324.703 208.992 324.703 209.768C324.703 210.544 324.523 211.136 324.163 211.544C323.811 211.944 323.295 212.144 322.615 212.144ZM322.615 211.232C323.111 211.232 323.359 210.852 323.359 210.092V209.444C323.359 208.684 323.111 208.304 322.615 208.304C322.119 208.304 321.871 208.684 321.871 209.444V210.092C321.871 210.852 322.119 211.232 322.615 211.232Z" fill="#41637D"/>
<line opacity="0.2" x1="233.872" y1="1.64788e-08" x2="233.872" y2="190" stroke="#41637D" stroke-width="0.839895"/>
<line opacity="0.2" x1="275.867" y1="1.64788e-08" x2="275.867" y2="190" stroke="#41637D" stroke-width="0.839895"/>
<line opacity="0.2" x1="242.272" y1="1.64788e-08" x2="242.271" y2="190" stroke="#41637D" stroke-width="0.839895"/>
<line opacity="0.2" x1="284.266" y1="1.64788e-08" x2="284.266" y2="190" stroke="#41637D" stroke-width="0.839895"/>
<line opacity="0.2" x1="250.67" y1="1.64788e-08" x2="250.67" y2="190" stroke="#41637D" stroke-width="0.839895"/>
<line opacity="0.2" x1="292.665" y1="1.64788e-08" x2="292.665" y2="190" stroke="#41637D" stroke-width="0.839895"/>
<line opacity="0.2" x1="259.069" y1="1.64788e-08" x2="259.069" y2="190" stroke="#41637D" stroke-width="0.839895"/>
<line opacity="0.2" x1="301.064" y1="1.64788e-08" x2="301.064" y2="190" stroke="#41637D" stroke-width="0.839895"/>
<rect x="225.053" width="83.9895" height="16.7979" fill="#EDEDED"/>
<rect x="225.053" width="21.8373" height="16.7979" fill="#39A4F5"/>
<path d="M161.121 4.624H164.997C165.341 4.624 165.649 4.676 165.921 4.78C166.201 4.884 166.437 5.028 166.629 5.212C166.821 5.396 166.965 5.624 167.061 5.896C167.165 6.16 167.217 6.452 167.217 6.772C167.217 7.092 167.173 7.364 167.085 7.588C167.005 7.804 166.893 7.984 166.749 8.128C166.613 8.272 166.453 8.38 166.269 8.452C166.093 8.524 165.909 8.564 165.717 8.572V8.644C165.901 8.644 166.097 8.68 166.305 8.752C166.521 8.824 166.717 8.94 166.893 9.1C167.077 9.252 167.229 9.452 167.349 9.7C167.469 9.94 167.529 10.24 167.529 10.6C167.529 10.936 167.473 11.252 167.361 11.548C167.257 11.836 167.109 12.088 166.917 12.304C166.725 12.52 166.497 12.692 166.233 12.82C165.969 12.94 165.681 13 165.369 13H161.121V4.624ZM162.705 11.656H164.913C165.217 11.656 165.453 11.58 165.621 11.428C165.789 11.268 165.873 11.04 165.873 10.744V10.336C165.873 10.04 165.789 9.812 165.621 9.652C165.453 9.492 165.217 9.412 164.913 9.412H162.705V11.656ZM162.705 8.116H164.661C164.949 8.116 165.173 8.04 165.333 7.888C165.493 7.728 165.573 7.508 165.573 7.228V6.856C165.573 6.576 165.493 6.36 165.333 6.208C165.173 6.048 164.949 5.968 164.661 5.968H162.705V8.116ZM168.73 13V11.728H169.834V5.896H168.73V4.624H172.534V5.896H171.418V11.728H172.534V13H168.73ZM174.153 4.624H178.029C178.373 4.624 178.681 4.676 178.953 4.78C179.233 4.884 179.469 5.028 179.661 5.212C179.853 5.396 179.997 5.624 180.093 5.896C180.197 6.16 180.249 6.452 180.249 6.772C180.249 7.092 180.205 7.364 180.117 7.588C180.037 7.804 179.925 7.984 179.781 8.128C179.645 8.272 179.485 8.38 179.301 8.452C179.125 8.524 178.941 8.564 178.749 8.572V8.644C178.933 8.644 179.129 8.68 179.337 8.752C179.553 8.824 179.749 8.94 179.925 9.1C180.109 9.252 180.261 9.452 180.381 9.7C180.501 9.94 180.561 10.24 180.561 10.6C180.561 10.936 180.505 11.252 180.393 11.548C180.289 11.836 180.141 12.088 179.949 12.304C179.757 12.52 179.529 12.692 179.265 12.82C179.001 12.94 178.713 13 178.401 13H174.153V4.624ZM175.737 11.656H177.945C178.249 11.656 178.485 11.58 178.653 11.428C178.821 11.268 178.905 11.04 178.905 10.744V10.336C178.905 10.04 178.821 9.812 178.653 9.652C178.485 9.492 178.249 9.412 177.945 9.412H175.737V11.656ZM175.737 8.116H177.693C177.981 8.116 178.205 8.04 178.365 7.888C178.525 7.728 178.605 7.508 178.605 7.228V6.856C178.605 6.576 178.525 6.36 178.365 6.208C178.205 6.048 177.981 5.968 177.693 5.968H175.737V8.116ZM182.11 13V4.624H183.694V11.596H186.994V13H182.11ZM188.02 13V11.728H189.124V5.896H188.02V4.624H191.824V5.896H190.708V11.728H191.824V13H188.02ZM196.73 13.144C196.178 13.144 195.678 13.052 195.23 12.868C194.782 12.684 194.398 12.408 194.078 12.04C193.766 11.672 193.522 11.22 193.346 10.684C193.17 10.148 193.082 9.524 193.082 8.812C193.082 8.108 193.17 7.488 193.346 6.952C193.522 6.408 193.766 5.952 194.078 5.584C194.398 5.216 194.782 4.94 195.23 4.756C195.678 4.572 196.178 4.48 196.73 4.48C197.282 4.48 197.782 4.572 198.23 4.756C198.678 4.94 199.062 5.216 199.382 5.584C199.702 5.952 199.946 6.408 200.114 6.952C200.29 7.488 200.378 8.108 200.378 8.812C200.378 9.524 200.29 10.148 200.114 10.684C199.946 11.22 199.702 11.672 199.382 12.04C199.062 12.408 198.678 12.684 198.23 12.868C197.782 13.052 197.282 13.144 196.73 13.144ZM196.73 11.74C197.33 11.74 197.806 11.54 198.158 11.14C198.518 10.74 198.698 10.18 198.698 9.46V8.164C198.698 7.444 198.518 6.884 198.158 6.484C197.806 6.084 197.33 5.884 196.73 5.884C196.13 5.884 195.65 6.084 195.29 6.484C194.938 6.884 194.762 7.444 194.762 8.164V9.46C194.762 10.18 194.938 10.74 195.29 11.14C195.65 11.54 196.13 11.74 196.73 11.74Z" fill="#41637D"/>
<rect x="225.053" y="42" width="83.9895" height="16.7979" fill="#EDEDED"/>
<rect x="225.053" y="42" width="34.4357" height="16.7979" fill="#39A4F5"/>
<path d="M93.7037 55.0005V46.6245H99.2237V48.0285H95.2877V50.0565H98.7677V51.4605H95.2877V53.5965H99.2237V55.0005H93.7037ZM96.6197 46.0725L95.6957 45.6165L96.8357 43.3725L98.1317 44.0205L96.6197 46.0725ZM104.187 48.0285V55.0005H102.603V48.0285H100.227V46.6245H106.563V48.0285H104.187ZM109.36 46.6245V51.7725C109.36 52.4285 109.484 52.9205 109.732 53.2485C109.988 53.5765 110.416 53.7405 111.016 53.7405C111.616 53.7405 112.04 53.5765 112.288 53.2485C112.544 52.9205 112.672 52.4285 112.672 51.7725V46.6245H114.232V51.5685C114.232 52.1845 114.172 52.7165 114.052 53.1645C113.94 53.6125 113.756 53.9845 113.5 54.2805C113.244 54.5765 112.908 54.7965 112.492 54.9405C112.084 55.0765 111.588 55.1445 111.004 55.1445C110.412 55.1445 109.912 55.0765 109.504 54.9405C109.104 54.7965 108.776 54.5765 108.52 54.2805C108.264 53.9845 108.08 53.6125 107.968 53.1645C107.856 52.7165 107.8 52.1845 107.8 51.5685V46.6245H109.36ZM116.145 46.6245H119.193C119.737 46.6245 120.229 46.7125 120.669 46.8885C121.117 47.0645 121.497 47.3285 121.809 47.6805C122.129 48.0245 122.373 48.4605 122.541 48.9885C122.717 49.5085 122.805 50.1165 122.805 50.8125C122.805 51.5085 122.717 52.1205 122.541 52.6485C122.373 53.1685 122.129 53.6045 121.809 53.9565C121.497 54.3005 121.117 54.5605 120.669 54.7365C120.229 54.9125 119.737 55.0005 119.193 55.0005H116.145V46.6245ZM119.193 53.5965C119.785 53.5965 120.253 53.4245 120.597 53.0805C120.949 52.7285 121.125 52.1925 121.125 51.4725V50.1525C121.125 49.4325 120.949 48.9005 120.597 48.5565C120.253 48.2045 119.785 48.0285 119.193 48.0285H117.729V53.5965H119.193ZM124.419 55.0005V46.6245H129.939V48.0285H126.003V50.0565H129.483V51.4605H126.003V53.5965H129.939V55.0005H124.419ZM134.45 46.6245H137.498C138.042 46.6245 138.534 46.7125 138.974 46.8885C139.422 47.0645 139.802 47.3285 140.114 47.6805C140.434 48.0245 140.678 48.4605 140.846 48.9885C141.022 49.5085 141.11 50.1165 141.11 50.8125C141.11 51.5085 141.022 52.1205 140.846 52.6485C140.678 53.1685 140.434 53.6045 140.114 53.9565C139.802 54.3005 139.422 54.5605 138.974 54.7365C138.534 54.9125 138.042 55.0005 137.498 55.0005H134.45V46.6245ZM137.498 53.5965C138.09 53.5965 138.558 53.4245 138.902 53.0805C139.254 52.7285 139.43 52.1925 139.43 51.4725V50.1525C139.43 49.4325 139.254 48.9005 138.902 48.5565C138.558 48.2045 138.09 48.0285 137.498 48.0285H136.034V53.5965H137.498ZM142.723 55.0005V46.6245H148.243V48.0285H144.307V50.0565H147.787V51.4605H144.307V53.5965H148.243V55.0005H142.723ZM159.079 48.9885H159.031L158.383 50.3205L156.667 53.4885L154.951 50.3205L154.303 48.9885H154.255V55.0005H152.755V46.6245H154.543L156.691 50.7165H156.739L158.863 46.6245H160.579V55.0005H159.079V48.9885ZM167.735 55.0005L167.063 52.8645H164.087L163.427 55.0005H161.819L164.627 46.6245H166.595L169.379 55.0005H167.735ZM165.599 48.0645H165.539L164.471 51.5085H166.679L165.599 48.0645ZM172.198 55.0005H170.614V46.6245H174.394C174.778 46.6245 175.122 46.6845 175.426 46.8045C175.73 46.9245 175.986 47.1005 176.194 47.3325C176.41 47.5565 176.574 47.8285 176.686 48.1485C176.806 48.4685 176.866 48.8245 176.866 49.2165C176.866 49.7925 176.734 50.2885 176.47 50.7045C176.214 51.1205 175.826 51.4165 175.306 51.5925L177.022 55.0005H175.258L173.698 51.7725H172.198V55.0005ZM174.238 50.4405C174.542 50.4405 174.782 50.3605 174.958 50.2005C175.134 50.0325 175.222 49.7965 175.222 49.4925V48.9405C175.222 48.6365 175.134 48.4045 174.958 48.2445C174.782 48.0845 174.542 48.0045 174.238 48.0045H172.198V50.4405H174.238ZM181.717 55.1445C181.165 55.1445 180.665 55.0565 180.217 54.8805C179.777 54.6965 179.397 54.4245 179.077 54.0645C178.765 53.7045 178.525 53.2605 178.357 52.7325C178.189 52.1965 178.105 51.5765 178.105 50.8725C178.105 50.1685 178.189 49.5445 178.357 49.0005C178.525 48.4485 178.765 47.9885 179.077 47.6205C179.397 47.2445 179.777 46.9605 180.217 46.7685C180.665 46.5765 181.165 46.4805 181.717 46.4805C182.469 46.4805 183.093 46.6405 183.589 46.9605C184.085 47.2805 184.481 47.7645 184.777 48.4125L183.421 49.1325C183.301 48.7565 183.105 48.4565 182.833 48.2325C182.561 48.0005 182.189 47.8845 181.717 47.8845C181.125 47.8845 180.653 48.0845 180.301 48.4845C179.957 48.8845 179.785 49.4445 179.785 50.1645V51.4845C179.785 52.2125 179.957 52.7725 180.301 53.1645C180.653 53.5485 181.125 53.7405 181.717 53.7405C182.189 53.7405 182.573 53.6125 182.869 53.3565C183.173 53.1005 183.393 52.7845 183.529 52.4085L184.813 53.1645C184.509 53.7885 184.105 54.2765 183.601 54.6285C183.097 54.9725 182.469 55.1445 181.717 55.1445ZM191.241 51.4605H187.749V55.0005H186.165V46.6245H187.749V50.0565H191.241V46.6245H192.825V55.0005H191.241V51.4605ZM194.79 55.0005V46.6245H200.31V48.0285H196.374V50.0565H199.854V51.4605H196.374V53.5965H200.31V55.0005H194.79ZM197.706 46.0725L196.782 45.6165L197.922 43.3725L199.218 44.0205L197.706 46.0725Z" fill="#41637D"/>
<rect x="225.053" y="82" width="83.9895" height="16.7979" fill="#EDEDED"/>
<rect x="225.053" y="82" width="17.6378" height="16.7979" fill="#39A4F5"/>
<path d="M59.1232 95.144C58.4032 95.144 57.7912 95.016 57.2872 94.76C56.7912 94.504 56.3632 94.168 56.0032 93.752L57.0712 92.72C57.3592 93.056 57.6792 93.312 58.0312 93.488C58.3912 93.664 58.7872 93.752 59.2192 93.752C59.7072 93.752 60.0752 93.648 60.3232 93.44C60.5712 93.224 60.6952 92.936 60.6952 92.576C60.6952 92.296 60.6152 92.068 60.4552 91.892C60.2952 91.716 59.9952 91.588 59.5552 91.508L58.7632 91.388C57.0912 91.124 56.2552 90.312 56.2552 88.952C56.2552 88.576 56.3232 88.236 56.4592 87.932C56.6032 87.628 56.8072 87.368 57.0712 87.152C57.3352 86.936 57.6512 86.772 58.0192 86.66C58.3952 86.54 58.8192 86.48 59.2912 86.48C59.9232 86.48 60.4752 86.584 60.9472 86.792C61.4192 87 61.8232 87.308 62.1592 87.716L61.0792 88.736C60.8712 88.48 60.6192 88.272 60.3232 88.112C60.0272 87.952 59.6552 87.872 59.2072 87.872C58.7512 87.872 58.4072 87.96 58.1752 88.136C57.9512 88.304 57.8392 88.544 57.8392 88.856C57.8392 89.176 57.9312 89.412 58.1152 89.564C58.2992 89.716 58.5952 89.828 59.0032 89.9L59.7832 90.044C60.6312 90.196 61.2552 90.468 61.6552 90.86C62.0632 91.244 62.2672 91.784 62.2672 92.48C62.2672 92.88 62.1952 93.244 62.0512 93.572C61.9152 93.892 61.7112 94.172 61.4392 94.412C61.1752 94.644 60.8472 94.824 60.4552 94.952C60.0712 95.08 59.6272 95.144 59.1232 95.144ZM67.1431 95.144C66.5911 95.144 66.0911 95.052 65.6431 94.868C65.1951 94.684 64.8111 94.408 64.4911 94.04C64.1791 93.672 63.9351 93.22 63.7591 92.684C63.5831 92.148 63.4951 91.524 63.4951 90.812C63.4951 90.108 63.5831 89.488 63.7591 88.952C63.9351 88.408 64.1791 87.952 64.4911 87.584C64.8111 87.216 65.1951 86.94 65.6431 86.756C66.0911 86.572 66.5911 86.48 67.1431 86.48C67.6951 86.48 68.1951 86.572 68.6431 86.756C69.0911 86.94 69.4751 87.216 69.7951 87.584C70.1151 87.952 70.3591 88.408 70.5271 88.952C70.7031 89.488 70.7911 90.108 70.7911 90.812C70.7911 91.524 70.7031 92.148 70.5271 92.684C70.3591 93.22 70.1151 93.672 69.7951 94.04C69.4751 94.408 69.0911 94.684 68.6431 94.868C68.1951 95.052 67.6951 95.144 67.1431 95.144ZM67.1431 93.74C67.7431 93.74 68.2191 93.54 68.5711 93.14C68.9311 92.74 69.1111 92.18 69.1111 91.46V90.164C69.1111 89.444 68.9311 88.884 68.5711 88.484C68.2191 88.084 67.7431 87.884 67.1431 87.884C66.5431 87.884 66.0631 88.084 65.7031 88.484C65.3511 88.884 65.1751 89.444 65.1751 90.164V91.46C65.1751 92.18 65.3511 92.74 65.7031 93.14C66.0631 93.54 66.5431 93.74 67.1431 93.74ZM73.8981 86.624V91.772C73.8981 92.428 74.0221 92.92 74.2701 93.248C74.5261 93.576 74.9541 93.74 75.5541 93.74C76.1541 93.74 76.5781 93.576 76.8261 93.248C77.0821 92.92 77.2101 92.428 77.2101 91.772V86.624H78.7701V91.568C78.7701 92.184 78.7101 92.716 78.5901 93.164C78.4781 93.612 78.2941 93.984 78.0381 94.28C77.7821 94.576 77.4461 94.796 77.0301 94.94C76.6221 95.076 76.1261 95.144 75.5421 95.144C74.9501 95.144 74.4501 95.076 74.0421 94.94C73.6421 94.796 73.3141 94.576 73.0581 94.28C72.8021 93.984 72.6181 93.612 72.5061 93.164C72.3941 92.716 72.3381 92.184 72.3381 91.568V86.624H73.8981ZM82.2672 95H80.6832V86.624H84.4632C84.8472 86.624 85.1912 86.684 85.4952 86.804C85.7992 86.924 86.0552 87.1 86.2632 87.332C86.4792 87.556 86.6432 87.828 86.7552 88.148C86.8752 88.468 86.9352 88.824 86.9352 89.216C86.9352 89.792 86.8032 90.288 86.5392 90.704C86.2832 91.12 85.8952 91.416 85.3752 91.592L87.0912 95H85.3272L83.7672 91.772H82.2672V95ZM84.3072 90.44C84.6112 90.44 84.8512 90.36 85.0272 90.2C85.2032 90.032 85.2912 89.796 85.2912 89.492V88.94C85.2912 88.636 85.2032 88.404 85.0272 88.244C84.8512 88.084 84.6112 88.004 84.3072 88.004H82.2672V90.44H84.3072ZM91.7868 95.144C91.2348 95.144 90.7348 95.056 90.2868 94.88C89.8468 94.696 89.4668 94.424 89.1468 94.064C88.8348 93.704 88.5948 93.26 88.4268 92.732C88.2588 92.196 88.1748 91.576 88.1748 90.872C88.1748 90.168 88.2588 89.544 88.4268 89C88.5948 88.448 88.8348 87.988 89.1468 87.62C89.4668 87.244 89.8468 86.96 90.2868 86.768C90.7348 86.576 91.2348 86.48 91.7868 86.48C92.5388 86.48 93.1628 86.64 93.6588 86.96C94.1548 87.28 94.5508 87.764 94.8468 88.412L93.4908 89.132C93.3708 88.756 93.1748 88.456 92.9028 88.232C92.6308 88 92.2588 87.884 91.7868 87.884C91.1948 87.884 90.7228 88.084 90.3708 88.484C90.0268 88.884 89.8548 89.444 89.8548 90.164V91.484C89.8548 92.212 90.0268 92.772 90.3708 93.164C90.7228 93.548 91.1948 93.74 91.7868 93.74C92.2588 93.74 92.6428 93.612 92.9388 93.356C93.2428 93.1 93.4628 92.784 93.5988 92.408L94.8828 93.164C94.5788 93.788 94.1748 94.276 93.6708 94.628C93.1668 94.972 92.5388 95.144 91.7868 95.144ZM95.886 95V93.728H96.99V87.896H95.886V86.624H99.69V87.896H98.574V93.728H99.69V95H95.886ZM103.708 90.704L102.844 88.964H102.808V95H101.308V86.624H103.048L105.568 90.92L106.432 92.66H106.468V86.624H107.968V95H106.228L103.708 90.704ZM115.273 93.704H115.225C115.153 94.112 114.925 94.456 114.541 94.736C114.165 95.008 113.661 95.144 113.029 95.144C112.533 95.144 112.073 95.052 111.649 94.868C111.233 94.684 110.869 94.412 110.557 94.052C110.253 93.684 110.013 93.232 109.837 92.696C109.661 92.16 109.573 91.54 109.573 90.836C109.573 90.132 109.661 89.512 109.837 88.976C110.021 88.432 110.277 87.976 110.605 87.608C110.933 87.24 111.325 86.96 111.781 86.768C112.237 86.576 112.745 86.48 113.305 86.48C114.057 86.48 114.697 86.644 115.225 86.972C115.753 87.3 116.169 87.772 116.473 88.388L115.189 89.144C115.037 88.784 114.809 88.484 114.505 88.244C114.209 88.004 113.809 87.884 113.305 87.884C112.681 87.884 112.181 88.076 111.805 88.46C111.437 88.836 111.253 89.396 111.253 90.14V91.484C111.253 92.22 111.441 92.78 111.817 93.164C112.193 93.548 112.697 93.74 113.329 93.74C113.577 93.74 113.809 93.712 114.025 93.656C114.241 93.592 114.429 93.5 114.589 93.38C114.749 93.26 114.877 93.112 114.973 92.936C115.069 92.76 115.117 92.552 115.117 92.312V91.772H113.473V90.44H116.641V95H115.273V93.704ZM121.312 86.624H124.36C124.904 86.624 125.396 86.712 125.836 86.888C126.284 87.064 126.664 87.328 126.976 87.68C127.296 88.024 127.54 88.46 127.708 88.988C127.884 89.508 127.972 90.116 127.972 90.812C127.972 91.508 127.884 92.12 127.708 92.648C127.54 93.168 127.296 93.604 126.976 93.956C126.664 94.3 126.284 94.56 125.836 94.736C125.396 94.912 124.904 95 124.36 95H121.312V86.624ZM124.36 93.596C124.952 93.596 125.42 93.424 125.764 93.08C126.116 92.728 126.292 92.192 126.292 91.472V90.152C126.292 89.432 126.116 88.9 125.764 88.556C125.42 88.204 124.952 88.028 124.36 88.028H122.896V93.596H124.36ZM129.586 95V86.624H135.106V88.028H131.17V90.056H134.65V91.46H131.17V93.596H135.106V95H129.586ZM139.617 95V86.624H141.201V93.596H144.501V95H139.617ZM151.27 95L150.598 92.864H147.622L146.962 95H145.354L148.162 86.624H150.13L152.914 95H151.27ZM149.134 88.064H149.074L148.006 91.508H150.214L149.134 88.064ZM156.984 95V86.624H160.752C161.136 86.624 161.48 86.688 161.784 86.816C162.096 86.936 162.36 87.112 162.576 87.344C162.792 87.568 162.956 87.84 163.068 88.16C163.18 88.48 163.236 88.832 163.236 89.216C163.236 89.608 163.18 89.964 163.068 90.284C162.956 90.596 162.792 90.868 162.576 91.1C162.36 91.324 162.096 91.5 161.784 91.628C161.48 91.748 161.136 91.808 160.752 91.808H158.568V95H156.984ZM158.568 90.44H160.608C160.912 90.44 161.152 90.36 161.328 90.2C161.504 90.032 161.592 89.796 161.592 89.492V88.94C161.592 88.636 161.504 88.404 161.328 88.244C161.152 88.084 160.912 88.004 160.608 88.004H158.568V90.44ZM164.672 95V86.624H166.256V93.596H169.556V95H164.672ZM176.324 95L175.652 92.864H172.676L172.016 95H170.408L173.216 86.624H175.184L177.968 95H176.324ZM174.188 88.064H174.128L173.06 91.508H175.268L174.188 88.064ZM181.603 90.704L180.739 88.964H180.703V95H179.203V86.624H180.943L183.463 90.92L184.327 92.66H184.363V86.624H185.863V95H184.123L181.603 90.704ZM191.116 88.028V95H189.532V88.028H187.156V86.624H193.492V88.028H191.116ZM194.789 95V86.624H200.309V88.028H196.373V90.056H199.853V91.46H196.373V93.596H200.309V95H194.789Z" fill="#41637D"/>
<rect x="225.053" y="164" width="83.9895" height="16.7979" fill="#EDEDED"/>
<rect x="225.053" y="164" width="13.4383" height="16.7979" fill="#39A4F5"/>
<path d="M5.04655 177.144C4.49455 177.144 3.99455 177.056 3.54655 176.88C3.10655 176.696 2.72655 176.424 2.40655 176.064C2.09455 175.704 1.85455 175.26 1.68655 174.732C1.51855 174.196 1.43455 173.576 1.43455 172.872C1.43455 172.168 1.51855 171.544 1.68655 171C1.85455 170.448 2.09455 169.988 2.40655 169.62C2.72655 169.244 3.10655 168.96 3.54655 168.768C3.99455 168.576 4.49455 168.48 5.04655 168.48C5.79855 168.48 6.42255 168.64 6.91855 168.96C7.41455 169.28 7.81055 169.764 8.10655 170.412L6.75055 171.132C6.63055 170.756 6.43455 170.456 6.16255 170.232C5.89055 170 5.51855 169.884 5.04655 169.884C4.45455 169.884 3.98255 170.084 3.63055 170.484C3.28655 170.884 3.11455 171.444 3.11455 172.164V173.484C3.11455 174.212 3.28655 174.772 3.63055 175.164C3.98255 175.548 4.45455 175.74 5.04655 175.74C5.51855 175.74 5.90255 175.612 6.19855 175.356C6.50255 175.1 6.72255 174.784 6.85855 174.408L8.14255 175.164C7.83855 175.788 7.43455 176.276 6.93055 176.628C6.42655 176.972 5.79855 177.144 5.04655 177.144ZM12.6294 177.144C12.0774 177.144 11.5774 177.052 11.1294 176.868C10.6814 176.684 10.2974 176.408 9.97742 176.04C9.66542 175.672 9.42142 175.22 9.24542 174.684C9.06942 174.148 8.98142 173.524 8.98142 172.812C8.98142 172.108 9.06942 171.488 9.24542 170.952C9.42142 170.408 9.66542 169.952 9.97742 169.584C10.2974 169.216 10.6814 168.94 11.1294 168.756C11.5774 168.572 12.0774 168.48 12.6294 168.48C13.1814 168.48 13.6814 168.572 14.1294 168.756C14.5774 168.94 14.9614 169.216 15.2814 169.584C15.6014 169.952 15.8454 170.408 16.0134 170.952C16.1894 171.488 16.2774 172.108 16.2774 172.812C16.2774 173.524 16.1894 174.148 16.0134 174.684C15.8454 175.22 15.6014 175.672 15.2814 176.04C14.9614 176.408 14.5774 176.684 14.1294 176.868C13.6814 177.052 13.1814 177.144 12.6294 177.144ZM12.6294 175.74C13.2294 175.74 13.7054 175.54 14.0574 175.14C14.4174 174.74 14.5974 174.18 14.5974 173.46V172.164C14.5974 171.444 14.4174 170.884 14.0574 170.484C13.7054 170.084 13.2294 169.884 12.6294 169.884C12.0294 169.884 11.5494 170.084 11.1894 170.484C10.8374 170.884 10.6614 171.444 10.6614 172.164V173.46C10.6614 174.18 10.8374 174.74 11.1894 175.14C11.5494 175.54 12.0294 175.74 12.6294 175.74ZM20.2844 172.704L19.4204 170.964H19.3844V177H17.8844V168.624H19.6244L22.1444 172.92L23.0084 174.66H23.0444V168.624H24.5444V177H22.8044L20.2844 172.704ZM29.7974 170.028V177H28.2134V170.028H25.8374V168.624H32.1734V170.028H29.7974ZM35.0543 177H33.4703V168.624H37.2503C37.6343 168.624 37.9783 168.684 38.2823 168.804C38.5863 168.924 38.8423 169.1 39.0503 169.332C39.2663 169.556 39.4303 169.828 39.5423 170.148C39.6623 170.468 39.7223 170.824 39.7223 171.216C39.7223 171.792 39.5903 172.288 39.3263 172.704C39.0703 173.12 38.6823 173.416 38.1623 173.592L39.8783 177H38.1143L36.5543 173.772H35.0543V177ZM37.0943 172.44C37.3983 172.44 37.6383 172.36 37.8143 172.2C37.9903 172.032 38.0783 171.796 38.0783 171.492V170.94C38.0783 170.636 37.9903 170.404 37.8143 170.244C37.6383 170.084 37.3983 170.004 37.0943 170.004H35.0543V172.44H37.0943ZM46.6231 177L45.9511 174.864H42.9751L42.3151 177H40.7071L43.5151 168.624H45.4831L48.2671 177H46.6231ZM44.4871 170.064H44.4271L43.3591 173.508H45.5671L44.4871 170.064ZM49.1536 177V175.728H50.2576V169.896H49.1536V168.624H52.9576V169.896H51.8416V175.728H52.9576V177H49.1536ZM56.9758 172.704L56.1118 170.964H56.0758V177H54.5758V168.624H56.3158L58.8358 172.92L59.6998 174.66H59.7358V168.624H61.2358V177H59.4958L56.9758 172.704ZM66.4888 170.028V177H64.9048V170.028H62.5288V168.624H68.8648V170.028H66.4888ZM70.1617 177V168.624H75.6817V170.028H71.7457V172.056H75.2257V173.46H71.7457V175.596H75.6817V177H70.1617ZM79.961 177.144C79.241 177.144 78.629 177.016 78.125 176.76C77.629 176.504 77.201 176.168 76.841 175.752L77.909 174.72C78.197 175.056 78.517 175.312 78.869 175.488C79.229 175.664 79.625 175.752 80.057 175.752C80.545 175.752 80.913 175.648 81.161 175.44C81.409 175.224 81.533 174.936 81.533 174.576C81.533 174.296 81.453 174.068 81.293 173.892C81.133 173.716 80.833 173.588 80.393 173.508L79.601 173.388C77.929 173.124 77.093 172.312 77.093 170.952C77.093 170.576 77.161 170.236 77.297 169.932C77.441 169.628 77.645 169.368 77.909 169.152C78.173 168.936 78.489 168.772 78.857 168.66C79.233 168.54 79.657 168.48 80.129 168.48C80.761 168.48 81.313 168.584 81.785 168.792C82.257 169 82.661 169.308 82.997 169.716L81.917 170.736C81.709 170.48 81.457 170.272 81.161 170.112C80.865 169.952 80.493 169.872 80.045 169.872C79.589 169.872 79.245 169.96 79.013 170.136C78.789 170.304 78.677 170.544 78.677 170.856C78.677 171.176 78.769 171.412 78.953 171.564C79.137 171.716 79.433 171.828 79.841 171.9L80.621 172.044C81.469 172.196 82.093 172.468 82.493 172.86C82.901 173.244 83.105 173.784 83.105 174.48C83.105 174.88 83.033 175.244 82.889 175.572C82.753 175.892 82.549 176.172 82.277 176.412C82.013 176.644 81.685 176.824 81.293 176.952C80.909 177.08 80.465 177.144 79.961 177.144ZM90.7809 177.144C90.2289 177.144 89.7289 177.056 89.2809 176.88C88.8409 176.696 88.4609 176.424 88.1409 176.064C87.8289 175.704 87.5889 175.26 87.4209 174.732C87.2529 174.196 87.1689 173.576 87.1689 172.872C87.1689 172.168 87.2529 171.544 87.4209 171C87.5889 170.448 87.8289 169.988 88.1409 169.62C88.4609 169.244 88.8409 168.96 89.2809 168.768C89.7289 168.576 90.2289 168.48 90.7809 168.48C91.5329 168.48 92.1569 168.64 92.6529 168.96C93.1489 169.28 93.5449 169.764 93.8409 170.412L92.4849 171.132C92.3649 170.756 92.1689 170.456 91.8969 170.232C91.6249 170 91.2529 169.884 90.7809 169.884C90.1889 169.884 89.7169 170.084 89.3649 170.484C89.0209 170.884 88.8489 171.444 88.8489 172.164V173.484C88.8489 174.212 89.0209 174.772 89.3649 175.164C89.7169 175.548 90.1889 175.74 90.7809 175.74C91.2529 175.74 91.6369 175.612 91.9329 175.356C92.2369 175.1 92.4569 174.784 92.5929 174.408L93.8769 175.164C93.5729 175.788 93.1689 176.276 92.6649 176.628C92.1609 176.972 91.5329 177.144 90.7809 177.144ZM98.3638 177.144C97.8118 177.144 97.3118 177.052 96.8638 176.868C96.4158 176.684 96.0318 176.408 95.7118 176.04C95.3998 175.672 95.1558 175.22 94.9798 174.684C94.8038 174.148 94.7158 173.524 94.7158 172.812C94.7158 172.108 94.8038 171.488 94.9798 170.952C95.1558 170.408 95.3998 169.952 95.7118 169.584C96.0318 169.216 96.4158 168.94 96.8638 168.756C97.3118 168.572 97.8118 168.48 98.3638 168.48C98.9158 168.48 99.4158 168.572 99.8638 168.756C100.312 168.94 100.696 169.216 101.016 169.584C101.336 169.952 101.58 170.408 101.748 170.952C101.924 171.488 102.012 172.108 102.012 172.812C102.012 173.524 101.924 174.148 101.748 174.684C101.58 175.22 101.336 175.672 101.016 176.04C100.696 176.408 100.312 176.684 99.8638 176.868C99.4158 177.052 98.9158 177.144 98.3638 177.144ZM98.3638 175.74C98.9638 175.74 99.4398 175.54 99.7918 175.14C100.152 174.74 100.332 174.18 100.332 173.46V172.164C100.332 171.444 100.152 170.884 99.7918 170.484C99.4398 170.084 98.9638 169.884 98.3638 169.884C97.7638 169.884 97.2838 170.084 96.9238 170.484C96.5718 170.884 96.3958 171.444 96.3958 172.164V173.46C96.3958 174.18 96.5718 174.74 96.9238 175.14C97.2838 175.54 97.7638 175.74 98.3638 175.74ZM109.943 170.988H109.895L109.247 172.32L107.531 175.488L105.815 172.32L105.167 170.988H105.119V177H103.619V168.624H105.407L107.555 172.716H107.603L109.727 168.624H111.443V177H109.943V170.988ZM113.416 177V168.624H117.184C117.568 168.624 117.912 168.688 118.216 168.816C118.528 168.936 118.792 169.112 119.008 169.344C119.224 169.568 119.388 169.84 119.5 170.16C119.612 170.48 119.668 170.832 119.668 171.216C119.668 171.608 119.612 171.964 119.5 172.284C119.388 172.596 119.224 172.868 119.008 173.1C118.792 173.324 118.528 173.5 118.216 173.628C117.912 173.748 117.568 173.808 117.184 173.808H115V177H113.416ZM115 172.44H117.04C117.344 172.44 117.584 172.36 117.76 172.2C117.936 172.032 118.024 171.796 118.024 171.492V170.94C118.024 170.636 117.936 170.404 117.76 170.244C117.584 170.084 117.344 170.004 117.04 170.004H115V172.44ZM121.103 177V168.624H122.687V175.596H125.987V177H121.103ZM127.361 177V168.624H132.881V170.028H128.945V172.056H132.425V173.46H128.945V175.596H132.881V177H127.361ZM130.277 168.072L129.353 167.616L130.493 165.372L131.789 166.02L130.277 168.072ZM140.88 170.988H140.832L140.184 172.32L138.468 175.488L136.752 172.32L136.104 170.988H136.056V177H134.556V168.624H136.344L138.492 172.716H138.54L140.664 168.624H142.38V177H140.88V170.988ZM144.353 177V168.624H149.873V170.028H145.937V172.056H149.417V173.46H145.937V175.596H149.873V177H144.353ZM153.948 172.704L153.084 170.964H153.048V177H151.548V168.624H153.288L155.808 172.92L156.672 174.66H156.708V168.624H158.208V177H156.468L153.948 172.704ZM163.461 170.028V177H161.877V170.028H159.501V168.624H165.837V170.028H163.461ZM171.533 177L170.861 174.864H167.885L167.225 177H165.617L168.425 168.624H170.393L173.177 177H171.533ZM169.397 170.064H169.337L168.269 173.508H170.477L169.397 170.064ZM174.064 177V175.728H175.168V169.896H174.064V168.624H177.868V169.896H176.752V175.728H177.868V177H174.064ZM181.07 177H179.486V168.624H183.266C183.65 168.624 183.994 168.684 184.298 168.804C184.602 168.924 184.858 169.1 185.066 169.332C185.282 169.556 185.446 169.828 185.558 170.148C185.678 170.468 185.738 170.824 185.738 171.216C185.738 171.792 185.606 172.288 185.342 172.704C185.086 173.12 184.698 173.416 184.178 173.592L185.894 177H184.13L182.57 173.772H181.07V177ZM183.11 172.44C183.414 172.44 183.654 172.36 183.83 172.2C184.006 172.032 184.094 171.796 184.094 171.492V170.94C184.094 170.636 184.006 170.404 183.83 170.244C183.654 170.084 183.414 170.004 183.11 170.004H181.07V172.44H183.11ZM187.455 177V168.624H192.975V170.028H189.039V172.056H192.519V173.46H189.039V175.596H192.975V177H187.455ZM197.254 177.144C196.534 177.144 195.922 177.016 195.418 176.76C194.922 176.504 194.494 176.168 194.134 175.752L195.202 174.72C195.49 175.056 195.81 175.312 196.162 175.488C196.522 175.664 196.918 175.752 197.35 175.752C197.838 175.752 198.206 175.648 198.454 175.44C198.702 175.224 198.826 174.936 198.826 174.576C198.826 174.296 198.746 174.068 198.586 173.892C198.426 173.716 198.126 173.588 197.686 173.508L196.894 173.388C195.222 173.124 194.386 172.312 194.386 170.952C194.386 170.576 194.454 170.236 194.59 169.932C194.734 169.628 194.938 169.368 195.202 169.152C195.466 168.936 195.782 168.772 196.15 168.66C196.526 168.54 196.95 168.48 197.422 168.48C198.054 168.48 198.606 168.584 199.078 168.792C199.55 169 199.954 169.308 200.29 169.716L199.21 170.736C199.002 170.48 198.75 170.272 198.454 170.112C198.158 169.952 197.786 169.872 197.338 169.872C196.882 169.872 196.538 169.96 196.306 170.136C196.082 170.304 195.97 170.544 195.97 170.856C195.97 171.176 196.062 171.412 196.246 171.564C196.43 171.716 196.726 171.828 197.134 171.9L197.914 172.044C198.762 172.196 199.386 172.468 199.786 172.86C200.194 173.244 200.398 173.784 200.398 174.48C200.398 174.88 200.326 175.244 200.182 175.572C200.046 175.892 199.842 176.172 199.57 176.412C199.306 176.644 198.978 176.824 198.586 176.952C198.202 177.08 197.758 177.144 197.254 177.144Z" fill="#41637D"/>
<rect x="225.053" y="123.798" width="83.9895" height="16.7979" fill="#EDEDED"/>
<rect x="225.053" y="123.798" width="9.23884" height="16.7979" fill="#39A4F5"/>
<path d="M71.3922 111.624H75.2682C75.6122 111.624 75.9202 111.676 76.1922 111.78C76.4722 111.884 76.7082 112.028 76.9002 112.212C77.0922 112.396 77.2362 112.624 77.3322 112.896C77.4362 113.16 77.4882 113.452 77.4882 113.772C77.4882 114.092 77.4442 114.364 77.3562 114.588C77.2762 114.804 77.1642 114.984 77.0202 115.128C76.8842 115.272 76.7242 115.38 76.5402 115.452C76.3642 115.524 76.1802 115.564 75.9882 115.572V115.644C76.1722 115.644 76.3682 115.68 76.5762 115.752C76.7922 115.824 76.9882 115.94 77.1642 116.1C77.3482 116.252 77.5002 116.452 77.6202 116.7C77.7402 116.94 77.8002 117.24 77.8002 117.6C77.8002 117.936 77.7442 118.252 77.6322 118.548C77.5282 118.836 77.3802 119.088 77.1882 119.304C76.9962 119.52 76.7682 119.692 76.5042 119.82C76.2402 119.94 75.9522 120 75.6402 120H71.3922V111.624ZM72.9762 118.656H75.1842C75.4882 118.656 75.7242 118.58 75.8922 118.428C76.0602 118.268 76.1442 118.04 76.1442 117.744V117.336C76.1442 117.04 76.0602 116.812 75.8922 116.652C75.7242 116.492 75.4882 116.412 75.1842 116.412H72.9762V118.656ZM72.9762 115.116H74.9322C75.2202 115.116 75.4442 115.04 75.6042 114.888C75.7642 114.728 75.8442 114.508 75.8442 114.228V113.856C75.8442 113.576 75.7642 113.36 75.6042 113.208C75.4442 113.048 75.2202 112.968 74.9322 112.968H72.9762V115.116ZM80.9332 120H79.3492V111.624H83.1292C83.5132 111.624 83.8572 111.684 84.1612 111.804C84.4652 111.924 84.7212 112.1 84.9292 112.332C85.1452 112.556 85.3092 112.828 85.4212 113.148C85.5412 113.468 85.6012 113.824 85.6012 114.216C85.6012 114.792 85.4692 115.288 85.2052 115.704C84.9492 116.12 84.5612 116.416 84.0412 116.592L85.7572 120H83.9932L82.4332 116.772H80.9332V120ZM82.9732 115.44C83.2772 115.44 83.5172 115.36 83.6932 115.2C83.8692 115.032 83.9572 114.796 83.9572 114.492V113.94C83.9572 113.636 83.8692 113.404 83.6932 113.244C83.5172 113.084 83.2772 113.004 82.9732 113.004H80.9332V115.44H82.9732ZM87.318 120V111.624H92.838V113.028H88.902V115.056H92.382V116.46H88.902V118.596H92.838V120H87.318ZM96.4221 120L93.6861 111.624H95.3061L96.5901 115.704L97.3341 118.488H97.3701L98.1021 115.704L99.3861 111.624H100.958L98.2221 120H96.4221ZM102.13 120V111.624H107.65V113.028H103.714V115.056H107.194V116.46H103.714V118.596H107.65V120H102.13ZM112.614 113.028V120H111.03V113.028H108.654V111.624H114.99V113.028H112.614ZM118.199 121.812L121.643 111.12H122.927L119.483 121.812H118.199ZM127.197 120V111.624H130.965C131.349 111.624 131.693 111.688 131.997 111.816C132.309 111.936 132.573 112.112 132.789 112.344C133.005 112.568 133.169 112.84 133.281 113.16C133.393 113.48 133.449 113.832 133.449 114.216C133.449 114.608 133.393 114.964 133.281 115.284C133.169 115.596 133.005 115.868 132.789 116.1C132.573 116.324 132.309 116.5 131.997 116.628C131.693 116.748 131.349 116.808 130.965 116.808H128.781V120H127.197ZM128.781 115.44H130.821C131.125 115.44 131.365 115.36 131.541 115.2C131.717 115.032 131.805 114.796 131.805 114.492V113.94C131.805 113.636 131.717 113.404 131.541 113.244C131.365 113.084 131.125 113.004 130.821 113.004H128.781V115.44ZM136.468 120H134.884V111.624H138.664C139.048 111.624 139.392 111.684 139.696 111.804C140 111.924 140.256 112.1 140.464 112.332C140.68 112.556 140.844 112.828 140.956 113.148C141.076 113.468 141.136 113.824 141.136 114.216C141.136 114.792 141.004 115.288 140.74 115.704C140.484 116.12 140.096 116.416 139.576 116.592L141.292 120H139.528L137.968 116.772H136.468V120ZM138.508 115.44C138.812 115.44 139.052 115.36 139.228 115.2C139.404 115.032 139.492 114.796 139.492 114.492V113.94C139.492 113.636 139.404 113.404 139.228 113.244C139.052 113.084 138.812 113.004 138.508 113.004H136.468V115.44H138.508ZM146.024 120.144C145.472 120.144 144.972 120.052 144.524 119.868C144.076 119.684 143.692 119.408 143.372 119.04C143.06 118.672 142.816 118.22 142.64 117.684C142.464 117.148 142.376 116.524 142.376 115.812C142.376 115.108 142.464 114.488 142.64 113.952C142.816 113.408 143.06 112.952 143.372 112.584C143.692 112.216 144.076 111.94 144.524 111.756C144.972 111.572 145.472 111.48 146.024 111.48C146.576 111.48 147.076 111.572 147.524 111.756C147.972 111.94 148.356 112.216 148.676 112.584C148.996 112.952 149.24 113.408 149.408 113.952C149.584 114.488 149.672 115.108 149.672 115.812C149.672 116.524 149.584 117.148 149.408 117.684C149.24 118.22 148.996 118.672 148.676 119.04C148.356 119.408 147.972 119.684 147.524 119.868C147.076 120.052 146.576 120.144 146.024 120.144ZM146.024 118.74C146.624 118.74 147.1 118.54 147.452 118.14C147.812 117.74 147.992 117.18 147.992 116.46V115.164C147.992 114.444 147.812 113.884 147.452 113.484C147.1 113.084 146.624 112.884 146.024 112.884C145.424 112.884 144.944 113.084 144.584 113.484C144.232 113.884 144.056 114.444 144.056 115.164V116.46C144.056 117.18 144.232 117.74 144.584 118.14C144.944 118.54 145.424 118.74 146.024 118.74ZM154.274 113.028V120H152.69V113.028H150.314V111.624H156.65V113.028H154.274ZM157.947 120V111.624H163.467V113.028H159.531V115.056H163.011V116.46H159.531V118.596H163.467V120H157.947ZM168.394 120.144C167.842 120.144 167.342 120.056 166.894 119.88C166.454 119.696 166.074 119.424 165.754 119.064C165.442 118.704 165.202 118.26 165.034 117.732C164.866 117.196 164.782 116.576 164.782 115.872C164.782 115.168 164.866 114.544 165.034 114C165.202 113.448 165.442 112.988 165.754 112.62C166.074 112.244 166.454 111.96 166.894 111.768C167.342 111.576 167.842 111.48 168.394 111.48C169.146 111.48 169.77 111.64 170.266 111.96C170.762 112.28 171.158 112.764 171.454 113.412L170.098 114.132C169.978 113.756 169.782 113.456 169.51 113.232C169.238 113 168.866 112.884 168.394 112.884C167.802 112.884 167.33 113.084 166.978 113.484C166.634 113.884 166.462 114.444 166.462 115.164V116.484C166.462 117.212 166.634 117.772 166.978 118.164C167.33 118.548 167.802 118.74 168.394 118.74C168.866 118.74 169.25 118.612 169.546 118.356C169.85 118.1 170.07 117.784 170.206 117.408L171.49 118.164C171.186 118.788 170.782 119.276 170.278 119.628C169.774 119.972 169.146 120.144 168.394 120.144ZM176.129 113.028V120H174.545V113.028H172.169V111.624H178.505V113.028H176.129ZM179.396 120V118.728H180.5V112.896H179.396V111.624H183.2V112.896H182.084V118.728H183.2V120H179.396ZM188.106 120.144C187.554 120.144 187.054 120.052 186.606 119.868C186.158 119.684 185.774 119.408 185.454 119.04C185.142 118.672 184.898 118.22 184.722 117.684C184.546 117.148 184.458 116.524 184.458 115.812C184.458 115.108 184.546 114.488 184.722 113.952C184.898 113.408 185.142 112.952 185.454 112.584C185.774 112.216 186.158 111.94 186.606 111.756C187.054 111.572 187.554 111.48 188.106 111.48C188.658 111.48 189.158 111.572 189.606 111.756C190.054 111.94 190.438 112.216 190.758 112.584C191.078 112.952 191.322 113.408 191.49 113.952C191.666 114.488 191.754 115.108 191.754 115.812C191.754 116.524 191.666 117.148 191.49 117.684C191.322 118.22 191.078 118.672 190.758 119.04C190.438 119.408 190.054 119.684 189.606 119.868C189.158 120.052 188.658 120.144 188.106 120.144ZM188.106 118.74C188.706 118.74 189.182 118.54 189.534 118.14C189.894 117.74 190.074 117.18 190.074 116.46V115.164C190.074 114.444 189.894 113.884 189.534 113.484C189.182 113.084 188.706 112.884 188.106 112.884C187.506 112.884 187.026 113.084 186.666 113.484C186.314 113.884 186.138 114.444 186.138 115.164V116.46C186.138 117.18 186.314 117.74 186.666 118.14C187.026 118.54 187.506 118.74 188.106 118.74ZM195.761 115.704L194.897 113.964H194.861V120H193.361V111.624H195.101L197.621 115.92L198.485 117.66H198.521V111.624H200.021V120H198.281L195.761 115.704ZM37.4283 135.232C37.3083 135.336 37.1723 135.444 37.0203 135.556C36.8683 135.66 36.6923 135.756 36.4923 135.844C36.3003 135.932 36.0803 136.004 35.8323 136.06C35.5923 136.116 35.3203 136.144 35.0163 136.144C34.5683 136.144 34.1683 136.084 33.8163 135.964C33.4723 135.844 33.1843 135.68 32.9523 135.472C32.7203 135.264 32.5443 135.02 32.4243 134.74C32.3043 134.452 32.2443 134.144 32.2443 133.816C32.2443 133.52 32.2883 133.26 32.3763 133.036C32.4643 132.804 32.5843 132.596 32.7363 132.412C32.8883 132.22 33.0683 132.052 33.2763 131.908C33.4843 131.756 33.7043 131.612 33.9363 131.476C33.6883 131.196 33.4683 130.892 33.2763 130.564C33.0923 130.228 33.0003 129.868 33.0003 129.484C33.0003 129.212 33.0563 128.956 33.1683 128.716C33.2803 128.468 33.4403 128.252 33.6483 128.068C33.8643 127.884 34.1203 127.74 34.4163 127.636C34.7123 127.532 35.0443 127.48 35.4123 127.48C35.7403 127.48 36.0443 127.524 36.3243 127.612C36.6043 127.7 36.8443 127.824 37.0443 127.984C37.2523 128.144 37.4123 128.34 37.5243 128.572C37.6443 128.804 37.7043 129.068 37.7043 129.364C37.7043 129.628 37.6563 129.872 37.5603 130.096C37.4723 130.312 37.3483 130.512 37.1883 130.696C37.0283 130.872 36.8443 131.04 36.6363 131.2C36.4283 131.352 36.2043 131.496 35.9643 131.632L37.4283 133.216C37.5403 132.944 37.6243 132.656 37.6803 132.352C37.7443 132.048 37.7843 131.744 37.8003 131.44H39.6843V132.724H38.9043C38.7843 133.268 38.6003 133.764 38.3523 134.212L40.0083 136H38.1243L37.4283 135.232ZM35.3643 128.668C35.1083 128.668 34.8963 128.744 34.7283 128.896C34.5603 129.04 34.4763 129.236 34.4763 129.484V129.568C34.4763 129.752 34.5323 129.936 34.6443 130.12C34.7643 130.296 34.9483 130.524 35.1963 130.804C35.5003 130.62 35.7483 130.428 35.9403 130.228C36.1403 130.028 36.2403 129.796 36.2403 129.532V129.46C36.2403 129.204 36.1523 129.008 35.9763 128.872C35.8083 128.736 35.6043 128.668 35.3643 128.668ZM35.2203 134.86C35.5083 134.86 35.7683 134.816 36.0003 134.728C36.2323 134.64 36.4363 134.52 36.6123 134.368L34.7043 132.304C34.4243 132.472 34.2043 132.652 34.0443 132.844C33.8923 133.028 33.8163 133.264 33.8163 133.552V133.684C33.8163 134.036 33.9363 134.32 34.1763 134.536C34.4163 134.752 34.7643 134.86 35.2203 134.86ZM47.2349 136.144C46.6829 136.144 46.1829 136.052 45.7349 135.868C45.2869 135.684 44.9029 135.408 44.5829 135.04C44.2709 134.672 44.0269 134.22 43.8509 133.684C43.6749 133.148 43.5869 132.524 43.5869 131.812C43.5869 131.108 43.6749 130.488 43.8509 129.952C44.0269 129.408 44.2709 128.952 44.5829 128.584C44.9029 128.216 45.2869 127.94 45.7349 127.756C46.1829 127.572 46.6829 127.48 47.2349 127.48C47.7869 127.48 48.2869 127.572 48.7349 127.756C49.1829 127.94 49.5669 128.216 49.8869 128.584C50.2069 128.952 50.4509 129.408 50.6189 129.952C50.7949 130.488 50.8829 131.108 50.8829 131.812C50.8829 132.524 50.7949 133.148 50.6189 133.684C50.4509 134.22 50.2069 134.672 49.8869 135.04C49.5669 135.408 49.1829 135.684 48.7349 135.868C48.2869 136.052 47.7869 136.144 47.2349 136.144ZM47.2349 134.74C47.8349 134.74 48.3109 134.54 48.6629 134.14C49.0229 133.74 49.2029 133.18 49.2029 132.46V131.164C49.2029 130.444 49.0229 129.884 48.6629 129.484C48.3109 129.084 47.8349 128.884 47.2349 128.884C46.6349 128.884 46.1549 129.084 45.7949 129.484C45.4429 129.884 45.2669 130.444 45.2669 131.164V132.46C45.2669 133.18 45.4429 133.74 45.7949 134.14C46.1549 134.54 46.6349 134.74 47.2349 134.74ZM52.4899 136V127.624H56.2579C56.6419 127.624 56.9859 127.688 57.2899 127.816C57.6019 127.936 57.8659 128.112 58.0819 128.344C58.2979 128.568 58.4619 128.84 58.5739 129.16C58.6859 129.48 58.7419 129.832 58.7419 130.216C58.7419 130.608 58.6859 130.964 58.5739 131.284C58.4619 131.596 58.2979 131.868 58.0819 132.1C57.8659 132.324 57.6019 132.5 57.2899 132.628C56.9859 132.748 56.6419 132.808 56.2579 132.808H54.0739V136H52.4899ZM54.0739 131.44H56.1139C56.4179 131.44 56.6579 131.36 56.8339 131.2C57.0099 131.032 57.0979 130.796 57.0979 130.492V129.94C57.0979 129.636 57.0099 129.404 56.8339 129.244C56.6579 129.084 56.4179 129.004 56.1139 129.004H54.0739V131.44ZM60.1774 136V127.624H63.9454C64.3294 127.624 64.6734 127.688 64.9774 127.816C65.2894 127.936 65.5534 128.112 65.7694 128.344C65.9854 128.568 66.1494 128.84 66.2614 129.16C66.3734 129.48 66.4294 129.832 66.4294 130.216C66.4294 130.608 66.3734 130.964 66.2614 131.284C66.1494 131.596 65.9854 131.868 65.7694 132.1C65.5534 132.324 65.2894 132.5 64.9774 132.628C64.6734 132.748 64.3294 132.808 63.9454 132.808H61.7614V136H60.1774ZM61.7614 131.44H63.8014C64.1054 131.44 64.3454 131.36 64.5214 131.2C64.6974 131.032 64.7854 130.796 64.7854 130.492V129.94C64.7854 129.636 64.6974 129.404 64.5214 129.244C64.3454 129.084 64.1054 129.004 63.8014 129.004H61.7614V131.44ZM71.1529 136.144C70.6009 136.144 70.1009 136.052 69.6529 135.868C69.2049 135.684 68.8209 135.408 68.5009 135.04C68.1889 134.672 67.9449 134.22 67.7689 133.684C67.5929 133.148 67.5049 132.524 67.5049 131.812C67.5049 131.108 67.5929 130.488 67.7689 129.952C67.9449 129.408 68.1889 128.952 68.5009 128.584C68.8209 128.216 69.2049 127.94 69.6529 127.756C70.1009 127.572 70.6009 127.48 71.1529 127.48C71.7049 127.48 72.2049 127.572 72.6529 127.756C73.1009 127.94 73.4849 128.216 73.8049 128.584C74.1249 128.952 74.3689 129.408 74.5369 129.952C74.7129 130.488 74.8009 131.108 74.8009 131.812C74.8009 132.524 74.7129 133.148 74.5369 133.684C74.3689 134.22 74.1249 134.672 73.8049 135.04C73.4849 135.408 73.1009 135.684 72.6529 135.868C72.2049 136.052 71.7049 136.144 71.1529 136.144ZM71.1529 134.74C71.7529 134.74 72.2289 134.54 72.5809 134.14C72.9409 133.74 73.1209 133.18 73.1209 132.46V131.164C73.1209 130.444 72.9409 129.884 72.5809 129.484C72.2289 129.084 71.7529 128.884 71.1529 128.884C70.5529 128.884 70.0729 129.084 69.7129 129.484C69.3609 129.884 69.1849 130.444 69.1849 131.164V132.46C69.1849 133.18 69.3609 133.74 69.7129 134.14C70.0729 134.54 70.5529 134.74 71.1529 134.74ZM77.9918 136H76.4078V127.624H80.1878C80.5718 127.624 80.9158 127.684 81.2198 127.804C81.5238 127.924 81.7798 128.1 81.9878 128.332C82.2038 128.556 82.3678 128.828 82.4798 129.148C82.5998 129.468 82.6598 129.824 82.6598 130.216C82.6598 130.792 82.5278 131.288 82.2638 131.704C82.0078 132.12 81.6198 132.416 81.0998 132.592L82.8158 136H81.0518L79.4918 132.772H77.9918V136ZM80.0318 131.44C80.3358 131.44 80.5758 131.36 80.7518 131.2C80.9278 131.032 81.0158 130.796 81.0158 130.492V129.94C81.0158 129.636 80.9278 129.404 80.7518 129.244C80.5758 129.084 80.3358 129.004 80.0318 129.004H77.9918V131.44H80.0318ZM87.3716 129.028V136H85.7876V129.028H83.4116V127.624H89.7476V129.028H87.3716ZM92.5445 127.624V132.772C92.5445 133.428 92.6685 133.92 92.9165 134.248C93.1725 134.576 93.6005 134.74 94.2005 134.74C94.8005 134.74 95.2245 134.576 95.4725 134.248C95.7285 133.92 95.8565 133.428 95.8565 132.772V127.624H97.4165V132.568C97.4165 133.184 97.3565 133.716 97.2365 134.164C97.1245 134.612 96.9405 134.984 96.6845 135.28C96.4285 135.576 96.0925 135.796 95.6765 135.94C95.2685 136.076 94.7725 136.144 94.1885 136.144C93.5965 136.144 93.0965 136.076 92.6885 135.94C92.2885 135.796 91.9605 135.576 91.7045 135.28C91.4485 134.984 91.2645 134.612 91.1525 134.164C91.0405 133.716 90.9845 133.184 90.9845 132.568V127.624H92.5445ZM101.73 131.704L100.866 129.964H100.83V136H99.3297V127.624H101.07L103.59 131.92L104.454 133.66H104.49V127.624H105.99V136H104.25L101.73 131.704ZM107.607 136V134.728H108.711V128.896H107.607V127.624H111.411V128.896H110.295V134.728H111.411V136H107.607ZM116.258 129.028V136H114.674V129.028H112.298V127.624H118.634V129.028H116.258ZM119.931 136V127.624H125.451V129.028H121.515V131.056H124.995V132.46H121.515V134.596H125.451V136H119.931ZM122.847 127.072L121.923 126.616L123.063 124.372L124.359 125.02L122.847 127.072ZM129.963 127.624H133.011C133.555 127.624 134.047 127.712 134.487 127.888C134.935 128.064 135.315 128.328 135.627 128.68C135.947 129.024 136.191 129.46 136.359 129.988C136.535 130.508 136.623 131.116 136.623 131.812C136.623 132.508 136.535 133.12 136.359 133.648C136.191 134.168 135.947 134.604 135.627 134.956C135.315 135.3 134.935 135.56 134.487 135.736C134.047 135.912 133.555 136 133.011 136H129.963V127.624ZM133.011 134.596C133.603 134.596 134.071 134.424 134.415 134.08C134.767 133.728 134.943 133.192 134.943 132.472V131.152C134.943 130.432 134.767 129.9 134.415 129.556C134.071 129.204 133.603 129.028 133.011 129.028H131.547V134.596H133.011ZM137.888 136V134.728H138.992V128.896H137.888V127.624H141.692V128.896H140.576V134.728H141.692V136H137.888ZM145.914 136.144C145.194 136.144 144.582 136.016 144.078 135.76C143.582 135.504 143.154 135.168 142.794 134.752L143.862 133.72C144.15 134.056 144.47 134.312 144.822 134.488C145.182 134.664 145.578 134.752 146.01 134.752C146.498 134.752 146.866 134.648 147.114 134.44C147.362 134.224 147.486 133.936 147.486 133.576C147.486 133.296 147.406 133.068 147.246 132.892C147.086 132.716 146.786 132.588 146.346 132.508L145.554 132.388C143.882 132.124 143.046 131.312 143.046 129.952C143.046 129.576 143.114 129.236 143.25 128.932C143.394 128.628 143.598 128.368 143.862 128.152C144.126 127.936 144.442 127.772 144.81 127.66C145.186 127.54 145.61 127.48 146.082 127.48C146.714 127.48 147.266 127.584 147.738 127.792C148.21 128 148.614 128.308 148.95 128.716L147.87 129.736C147.662 129.48 147.41 129.272 147.114 129.112C146.818 128.952 146.446 128.872 145.998 128.872C145.542 128.872 145.198 128.96 144.966 129.136C144.742 129.304 144.63 129.544 144.63 129.856C144.63 130.176 144.722 130.412 144.906 130.564C145.09 130.716 145.386 130.828 145.794 130.9L146.574 131.044C147.422 131.196 148.046 131.468 148.446 131.86C148.854 132.244 149.058 132.784 149.058 133.48C149.058 133.88 148.986 134.244 148.842 134.572C148.706 134.892 148.502 135.172 148.23 135.412C147.966 135.644 147.638 135.824 147.246 135.952C146.862 136.08 146.418 136.144 145.914 136.144ZM150.646 136V127.624H154.414C154.798 127.624 155.142 127.688 155.446 127.816C155.758 127.936 156.022 128.112 156.238 128.344C156.454 128.568 156.618 128.84 156.73 129.16C156.842 129.48 156.898 129.832 156.898 130.216C156.898 130.608 156.842 130.964 156.73 131.284C156.618 131.596 156.454 131.868 156.238 132.1C156.022 132.324 155.758 132.5 155.446 132.628C155.142 132.748 154.798 132.808 154.414 132.808H152.23V136H150.646ZM152.23 131.44H154.27C154.574 131.44 154.814 131.36 154.99 131.2C155.166 131.032 155.254 130.796 155.254 130.492V129.94C155.254 129.636 155.166 129.404 154.99 129.244C154.814 129.084 154.574 129.004 154.27 129.004H152.23V131.44ZM161.622 136.144C161.07 136.144 160.57 136.052 160.122 135.868C159.674 135.684 159.29 135.408 158.97 135.04C158.658 134.672 158.414 134.22 158.238 133.684C158.062 133.148 157.974 132.524 157.974 131.812C157.974 131.108 158.062 130.488 158.238 129.952C158.414 129.408 158.658 128.952 158.97 128.584C159.29 128.216 159.674 127.94 160.122 127.756C160.57 127.572 161.07 127.48 161.622 127.48C162.174 127.48 162.674 127.572 163.122 127.756C163.57 127.94 163.954 128.216 164.274 128.584C164.594 128.952 164.838 129.408 165.006 129.952C165.182 130.488 165.27 131.108 165.27 131.812C165.27 132.524 165.182 133.148 165.006 133.684C164.838 134.22 164.594 134.672 164.274 135.04C163.954 135.408 163.57 135.684 163.122 135.868C162.674 136.052 162.174 136.144 161.622 136.144ZM161.622 134.74C162.222 134.74 162.698 134.54 163.05 134.14C163.41 133.74 163.59 133.18 163.59 132.46V131.164C163.59 130.444 163.41 129.884 163.05 129.484C162.698 129.084 162.222 128.884 161.622 128.884C161.022 128.884 160.542 129.084 160.182 129.484C159.83 129.884 159.654 130.444 159.654 131.164V132.46C159.654 133.18 159.83 133.74 160.182 134.14C160.542 134.54 161.022 134.74 161.622 134.74ZM169.277 131.704L168.413 129.964H168.377V136H166.877V127.624H168.617L171.137 131.92L172.001 133.66H172.037V127.624H173.537V136H171.797L169.277 131.704ZM175.154 136V134.728H176.258V128.896H175.154V127.624H178.958V128.896H177.842V134.728H178.958V136H175.154ZM180.576 127.624H184.452C184.796 127.624 185.104 127.676 185.376 127.78C185.656 127.884 185.892 128.028 186.084 128.212C186.276 128.396 186.42 128.624 186.516 128.896C186.62 129.16 186.672 129.452 186.672 129.772C186.672 130.092 186.628 130.364 186.54 130.588C186.46 130.804 186.348 130.984 186.204 131.128C186.068 131.272 185.908 131.38 185.724 131.452C185.548 131.524 185.364 131.564 185.172 131.572V131.644C185.356 131.644 185.552 131.68 185.76 131.752C185.976 131.824 186.172 131.94 186.348 132.1C186.532 132.252 186.684 132.452 186.804 132.7C186.924 132.94 186.984 133.24 186.984 133.6C186.984 133.936 186.928 134.252 186.816 134.548C186.712 134.836 186.564 135.088 186.372 135.304C186.18 135.52 185.952 135.692 185.688 135.82C185.424 135.94 185.136 136 184.824 136H180.576V127.624ZM182.16 134.656H184.368C184.672 134.656 184.908 134.58 185.076 134.428C185.244 134.268 185.328 134.04 185.328 133.744V133.336C185.328 133.04 185.244 132.812 185.076 132.652C184.908 132.492 184.672 132.412 184.368 132.412H182.16V134.656ZM182.16 131.116H184.116C184.404 131.116 184.628 131.04 184.788 130.888C184.948 130.728 185.028 130.508 185.028 130.228V129.856C185.028 129.576 184.948 129.36 184.788 129.208C184.628 129.048 184.404 128.968 184.116 128.968H182.16V131.116ZM188.533 136V127.624H190.117V134.596H193.417V136H188.533ZM194.791 136V127.624H200.311V129.028H196.375V131.056H199.855V132.46H196.375V134.596H200.311V136H194.791ZM112.645 152.144C111.925 152.144 111.313 152.016 110.809 151.76C110.313 151.504 109.885 151.168 109.525 150.752L110.593 149.72C110.881 150.056 111.201 150.312 111.553 150.488C111.913 150.664 112.309 150.752 112.741 150.752C113.229 150.752 113.597 150.648 113.845 150.44C114.093 150.224 114.217 149.936 114.217 149.576C114.217 149.296 114.137 149.068 113.977 148.892C113.817 148.716 113.517 148.588 113.077 148.508L112.285 148.388C110.613 148.124 109.777 147.312 109.777 145.952C109.777 145.576 109.845 145.236 109.981 144.932C110.125 144.628 110.329 144.368 110.593 144.152C110.857 143.936 111.173 143.772 111.541 143.66C111.917 143.54 112.341 143.48 112.813 143.48C113.445 143.48 113.997 143.584 114.469 143.792C114.941 144 115.345 144.308 115.681 144.716L114.601 145.736C114.393 145.48 114.141 145.272 113.845 145.112C113.549 144.952 113.177 144.872 112.729 144.872C112.273 144.872 111.929 144.96 111.697 145.136C111.473 145.304 111.361 145.544 111.361 145.856C111.361 146.176 111.453 146.412 111.637 146.564C111.821 146.716 112.117 146.828 112.525 146.9L113.305 147.044C114.153 147.196 114.777 147.468 115.177 147.86C115.585 148.244 115.789 148.784 115.789 149.48C115.789 149.88 115.717 150.244 115.573 150.572C115.437 150.892 115.233 151.172 114.961 151.412C114.697 151.644 114.369 151.824 113.977 151.952C113.593 152.08 113.149 152.144 112.645 152.144ZM118.877 143.624V148.772C118.877 149.428 119.001 149.92 119.249 150.248C119.505 150.576 119.933 150.74 120.533 150.74C121.133 150.74 121.557 150.576 121.805 150.248C122.061 149.92 122.189 149.428 122.189 148.772V143.624H123.749V148.568C123.749 149.184 123.689 149.716 123.569 150.164C123.457 150.612 123.273 150.984 123.017 151.28C122.761 151.576 122.425 151.796 122.009 151.94C121.601 152.076 121.105 152.144 120.521 152.144C119.929 152.144 119.429 152.076 119.021 151.94C118.621 151.796 118.293 151.576 118.037 151.28C117.781 150.984 117.597 150.612 117.485 150.164C117.373 149.716 117.317 149.184 117.317 148.568V143.624H118.877ZM127.246 152H125.662V143.624H129.442C129.826 143.624 130.17 143.684 130.474 143.804C130.778 143.924 131.034 144.1 131.242 144.332C131.458 144.556 131.622 144.828 131.734 145.148C131.854 145.468 131.914 145.824 131.914 146.216C131.914 146.792 131.782 147.288 131.518 147.704C131.262 148.12 130.874 148.416 130.354 148.592L132.07 152H130.306L128.746 148.772H127.246V152ZM129.286 147.44C129.59 147.44 129.83 147.36 130.006 147.2C130.182 147.032 130.27 146.796 130.27 146.492V145.94C130.27 145.636 130.182 145.404 130.006 145.244C129.83 145.084 129.59 145.004 129.286 145.004H127.246V147.44H129.286ZM136.466 152V143.624H138.05V150.596H141.35V152H136.466ZM142.724 152V143.624H148.244V145.028H144.308V147.056H147.788V148.46H144.308V150.596H148.244V152H142.724ZM159.079 145.988H159.031L158.383 147.32L156.667 150.488L154.951 147.32L154.303 145.988H154.255V152H152.755V143.624H154.543L156.691 147.716H156.739L158.863 143.624H160.579V152H159.079V145.988ZM167.736 152L167.064 149.864H164.088L163.428 152H161.82L164.628 143.624H166.596L169.38 152H167.736ZM165.6 145.064H165.54L164.472 148.508H166.68L165.6 145.064ZM172.199 152H170.615V143.624H174.395C174.779 143.624 175.123 143.684 175.427 143.804C175.731 143.924 175.987 144.1 176.195 144.332C176.411 144.556 176.575 144.828 176.687 145.148C176.807 145.468 176.867 145.824 176.867 146.216C176.867 146.792 176.735 147.288 176.471 147.704C176.215 148.12 175.827 148.416 175.307 148.592L177.023 152H175.259L173.699 148.772H172.199V152ZM174.239 147.44C174.543 147.44 174.783 147.36 174.959 147.2C175.135 147.032 175.223 146.796 175.223 146.492V145.94C175.223 145.636 175.135 145.404 174.959 145.244C174.783 145.084 174.543 145.004 174.239 145.004H172.199V147.44H174.239ZM181.718 152.144C181.166 152.144 180.666 152.056 180.218 151.88C179.778 151.696 179.398 151.424 179.078 151.064C178.766 150.704 178.526 150.26 178.358 149.732C178.19 149.196 178.106 148.576 178.106 147.872C178.106 147.168 178.19 146.544 178.358 146C178.526 145.448 178.766 144.988 179.078 144.62C179.398 144.244 179.778 143.96 180.218 143.768C180.666 143.576 181.166 143.48 181.718 143.48C182.47 143.48 183.094 143.64 183.59 143.96C184.086 144.28 184.482 144.764 184.778 145.412L183.422 146.132C183.302 145.756 183.106 145.456 182.834 145.232C182.562 145 182.19 144.884 181.718 144.884C181.126 144.884 180.654 145.084 180.302 145.484C179.958 145.884 179.786 146.444 179.786 147.164V148.484C179.786 149.212 179.958 149.772 180.302 150.164C180.654 150.548 181.126 150.74 181.718 150.74C182.19 150.74 182.574 150.612 182.87 150.356C183.174 150.1 183.394 149.784 183.53 149.408L184.814 150.164C184.51 150.788 184.106 151.276 183.602 151.628C183.098 151.972 182.47 152.144 181.718 152.144ZM191.242 148.46H187.75V152H186.166V143.624H187.75V147.056H191.242V143.624H192.826V152H191.242V148.46ZM194.791 152V143.624H200.311V145.028H196.375V147.056H199.855V148.46H196.375V150.596H200.311V152H194.791ZM197.707 143.072L196.783 142.616L197.923 140.372L199.219 141.02L197.707 143.072Z" fill="#41637D"/>
<line x1="225.474" y1="1.64788e-08" x2="225.474" y2="190" stroke="#41637D" stroke-width="0.839895"/>
<line x1="267.468" y1="1.64788e-08" x2="267.468" y2="190" stroke="#41637D" stroke-width="0.839895"/>
<line x1="309.463" y1="1.64788e-08" x2="309.463" y2="190" stroke="#41637D" stroke-width="0.839895"/>
</svg>
