<svg width="386" height="143" viewBox="0 0 386 143" fill="none" xmlns="http://www.w3.org/2000/svg">
<mask id="path-1-inside-1" fill="white">
<path fill-rule="evenodd" clip-rule="evenodd" d="M366.001 0C377.047 0 386.001 8.95431 386.001 20V123C386.001 134.046 377.047 143 366.001 143H34.001C22.9553 143 14.001 134.046 14.001 123V85.2642L0.000213623 71.2635L14.001 57.2627V20C14.001 8.9543 22.9553 0 34.001 0H366.001Z"/>
</mask>
<path d="M14.001 85.2642L16.1223 83.1429L17.001 84.0216V85.2642H14.001ZM0.000213623 71.2635L-2.12109 73.3848L-4.24243 71.2635L-2.12109 69.1421L0.000213623 71.2635ZM14.001 57.2627H17.001V58.5053L16.1223 59.384L14.001 57.2627ZM383.001 20C383.001 10.6112 375.39 3 366.001 3V-3C378.704 -3 389.001 7.29745 389.001 20H383.001ZM383.001 123V20H389.001V123H383.001ZM366.001 140C375.39 140 383.001 132.389 383.001 123H389.001C389.001 135.703 378.704 146 366.001 146V140ZM34.001 140H366.001V146H34.001V140ZM17.001 123C17.001 132.389 24.6122 140 34.001 140V146C21.2984 146 11.001 135.703 11.001 123H17.001ZM17.001 85.2642V123H11.001V85.2642H17.001ZM2.12152 69.1421L16.1223 83.1429L11.8797 87.3855L-2.12109 73.3848L2.12152 69.1421ZM16.1223 59.384L2.12152 73.3848L-2.12109 69.1421L11.8797 55.1414L16.1223 59.384ZM17.001 20V57.2627H11.001V20H17.001ZM34.001 3C24.6122 3 17.001 10.6112 17.001 20H11.001C11.001 7.29745 21.2984 -3 34.001 -3V3ZM366.001 3H34.001V-3H366.001V3Z" fill="#39A4F5" mask="url(#path-1-inside-1)"/>
</svg>
