<svg width="277" height="216" viewBox="0 0 277 216" fill="none" xmlns="http://www.w3.org/2000/svg">
<path d="M169.66 212.144C169.124 212.144 168.66 212.048 168.268 211.856C167.876 211.656 167.552 211.372 167.296 211.004C167.04 210.636 166.848 210.184 166.72 209.648C166.6 209.112 166.54 208.5 166.54 207.812C166.54 207.132 166.6 206.524 166.72 205.988C166.848 205.444 167.04 204.988 167.296 204.62C167.552 204.252 167.876 203.972 168.268 203.78C168.66 203.58 169.124 203.48 169.66 203.48C170.724 203.48 171.508 203.86 172.012 204.62C172.524 205.38 172.78 206.444 172.78 207.812C172.78 209.18 172.524 210.244 172.012 211.004C171.508 211.764 170.724 212.144 169.66 212.144ZM169.66 210.812C170.196 210.812 170.568 210.612 170.776 210.212C170.992 209.804 171.1 209.256 171.1 208.568V207.056C171.1 206.368 170.992 205.824 170.776 205.424C170.568 205.016 170.196 204.812 169.66 204.812C169.124 204.812 168.748 205.016 168.532 205.424C168.324 205.824 168.22 206.368 168.22 207.056V208.568C168.22 209.256 168.324 209.804 168.532 210.212C168.748 210.612 169.124 210.812 169.66 210.812ZM175.415 212L181.223 203.624H182.615L176.807 212H175.415ZM175.991 208.232C175.311 208.232 174.791 208.032 174.431 207.632C174.079 207.224 173.903 206.632 173.903 205.856C173.903 205.08 174.079 204.492 174.431 204.092C174.791 203.684 175.311 203.48 175.991 203.48C176.671 203.48 177.187 203.684 177.539 204.092C177.891 204.492 178.067 205.08 178.067 205.856C178.067 206.632 177.891 207.224 177.539 207.632C177.187 208.032 176.671 208.232 175.991 208.232ZM175.991 207.32C176.487 207.32 176.735 206.94 176.735 206.18V205.532C176.735 204.772 176.487 204.392 175.991 204.392C175.495 204.392 175.247 204.772 175.247 205.532V206.18C175.247 206.94 175.495 207.32 175.991 207.32ZM182.039 212.144C181.367 212.144 180.851 211.944 180.491 211.544C180.139 211.136 179.963 210.544 179.963 209.768C179.963 208.992 180.139 208.404 180.491 208.004C180.851 207.596 181.367 207.392 182.039 207.392C182.719 207.392 183.235 207.596 183.587 208.004C183.947 208.404 184.127 208.992 184.127 209.768C184.127 210.544 183.947 211.136 183.587 211.544C183.235 211.944 182.719 212.144 182.039 212.144ZM182.039 211.232C182.535 211.232 182.783 210.852 182.783 210.092V209.444C182.783 208.684 182.535 208.304 182.039 208.304C181.543 208.304 181.295 208.684 181.295 209.444V210.092C181.295 210.852 181.543 211.232 182.039 211.232Z" fill="#41637D"/>
<path d="M210.034 204.992H206.266L206.074 207.8H206.158C206.246 207.624 206.342 207.46 206.446 207.308C206.55 207.156 206.67 207.028 206.806 206.924C206.942 206.82 207.098 206.74 207.274 206.684C207.458 206.62 207.678 206.588 207.934 206.588C208.294 206.588 208.63 206.648 208.942 206.768C209.254 206.888 209.522 207.064 209.746 207.296C209.978 207.52 210.158 207.796 210.286 208.124C210.422 208.452 210.49 208.824 210.49 209.24C210.49 209.664 210.422 210.052 210.286 210.404C210.15 210.756 209.95 211.064 209.686 211.328C209.422 211.584 209.098 211.784 208.714 211.928C208.33 212.072 207.89 212.144 207.394 212.144C207.01 212.144 206.666 212.1 206.362 212.012C206.058 211.932 205.79 211.82 205.558 211.676C205.326 211.532 205.126 211.368 204.958 211.184C204.79 210.992 204.642 210.792 204.514 210.584L205.666 209.696C205.762 209.856 205.862 210.008 205.966 210.152C206.07 210.288 206.19 210.408 206.326 210.512C206.47 210.616 206.626 210.7 206.794 210.764C206.97 210.82 207.174 210.848 207.406 210.848C207.878 210.848 208.234 210.716 208.474 210.452C208.722 210.188 208.846 209.828 208.846 209.372V209.276C208.846 208.844 208.722 208.504 208.474 208.256C208.226 208.008 207.882 207.884 207.442 207.884C207.098 207.884 206.818 207.952 206.602 208.088C206.386 208.216 206.214 208.356 206.086 208.508L204.79 208.328L205.102 203.624H210.034V204.992ZM214.65 212.144C214.114 212.144 213.65 212.048 213.258 211.856C212.866 211.656 212.542 211.372 212.286 211.004C212.03 210.636 211.838 210.184 211.71 209.648C211.59 209.112 211.53 208.5 211.53 207.812C211.53 207.132 211.59 206.524 211.71 205.988C211.838 205.444 212.03 204.988 212.286 204.62C212.542 204.252 212.866 203.972 213.258 203.78C213.65 203.58 214.114 203.48 214.65 203.48C215.714 203.48 216.498 203.86 217.002 204.62C217.514 205.38 217.77 206.444 217.77 207.812C217.77 209.18 217.514 210.244 217.002 211.004C216.498 211.764 215.714 212.144 214.65 212.144ZM214.65 210.812C215.186 210.812 215.558 210.612 215.766 210.212C215.982 209.804 216.09 209.256 216.09 208.568V207.056C216.09 206.368 215.982 205.824 215.766 205.424C215.558 205.016 215.186 204.812 214.65 204.812C214.114 204.812 213.738 205.016 213.522 205.424C213.314 205.824 213.21 206.368 213.21 207.056V208.568C213.21 209.256 213.314 209.804 213.522 210.212C213.738 210.612 214.114 210.812 214.65 210.812ZM220.405 212L226.213 203.624H227.605L221.797 212H220.405ZM220.981 208.232C220.301 208.232 219.781 208.032 219.421 207.632C219.069 207.224 218.893 206.632 218.893 205.856C218.893 205.08 219.069 204.492 219.421 204.092C219.781 203.684 220.301 203.48 220.981 203.48C221.661 203.48 222.177 203.684 222.529 204.092C222.881 204.492 223.057 205.08 223.057 205.856C223.057 206.632 222.881 207.224 222.529 207.632C222.177 208.032 221.661 208.232 220.981 208.232ZM220.981 207.32C221.477 207.32 221.725 206.94 221.725 206.18V205.532C221.725 204.772 221.477 204.392 220.981 204.392C220.485 204.392 220.237 204.772 220.237 205.532V206.18C220.237 206.94 220.485 207.32 220.981 207.32ZM227.029 212.144C226.357 212.144 225.841 211.944 225.481 211.544C225.129 211.136 224.953 210.544 224.953 209.768C224.953 208.992 225.129 208.404 225.481 208.004C225.841 207.596 226.357 207.392 227.029 207.392C227.709 207.392 228.225 207.596 228.577 208.004C228.937 208.404 229.117 208.992 229.117 209.768C229.117 210.544 228.937 211.136 228.577 211.544C228.225 211.944 227.709 212.144 227.029 212.144ZM227.029 211.232C227.525 211.232 227.773 210.852 227.773 210.092V209.444C227.773 208.684 227.525 208.304 227.029 208.304C226.533 208.304 226.285 208.684 226.285 209.444V210.092C226.285 210.852 226.533 211.232 227.029 211.232Z" fill="#41637D"/>
<path d="M243.582 212V210.716H245.886V204.764H245.778L243.954 206.924L242.97 206.096L245.046 203.624H247.434V210.716H249.354V212H243.582ZM253.286 212.144C252.75 212.144 252.286 212.048 251.894 211.856C251.502 211.656 251.178 211.372 250.922 211.004C250.666 210.636 250.474 210.184 250.346 209.648C250.226 209.112 250.166 208.5 250.166 207.812C250.166 207.132 250.226 206.524 250.346 205.988C250.474 205.444 250.666 204.988 250.922 204.62C251.178 204.252 251.502 203.972 251.894 203.78C252.286 203.58 252.75 203.48 253.286 203.48C254.35 203.48 255.134 203.86 255.638 204.62C256.15 205.38 256.406 206.444 256.406 207.812C256.406 209.18 256.15 210.244 255.638 211.004C255.134 211.764 254.35 212.144 253.286 212.144ZM253.286 210.812C253.822 210.812 254.194 210.612 254.402 210.212C254.618 209.804 254.726 209.256 254.726 208.568V207.056C254.726 206.368 254.618 205.824 254.402 205.424C254.194 205.016 253.822 204.812 253.286 204.812C252.75 204.812 252.374 205.016 252.158 205.424C251.95 205.824 251.846 206.368 251.846 207.056V208.568C251.846 209.256 251.95 209.804 252.158 210.212C252.374 210.612 252.75 210.812 253.286 210.812ZM260.481 212.144C259.945 212.144 259.481 212.048 259.089 211.856C258.697 211.656 258.373 211.372 258.117 211.004C257.861 210.636 257.669 210.184 257.541 209.648C257.421 209.112 257.361 208.5 257.361 207.812C257.361 207.132 257.421 206.524 257.541 205.988C257.669 205.444 257.861 204.988 258.117 204.62C258.373 204.252 258.697 203.972 259.089 203.78C259.481 203.58 259.945 203.48 260.481 203.48C261.545 203.48 262.329 203.86 262.833 204.62C263.345 205.38 263.601 206.444 263.601 207.812C263.601 209.18 263.345 210.244 262.833 211.004C262.329 211.764 261.545 212.144 260.481 212.144ZM260.481 210.812C261.017 210.812 261.389 210.612 261.597 210.212C261.813 209.804 261.921 209.256 261.921 208.568V207.056C261.921 206.368 261.813 205.824 261.597 205.424C261.389 205.016 261.017 204.812 260.481 204.812C259.945 204.812 259.569 205.016 259.353 205.424C259.145 205.824 259.041 206.368 259.041 207.056V208.568C259.041 209.256 259.145 209.804 259.353 210.212C259.569 210.612 259.945 210.812 260.481 210.812ZM266.236 212L272.044 203.624H273.436L267.628 212H266.236ZM266.812 208.232C266.132 208.232 265.612 208.032 265.252 207.632C264.9 207.224 264.724 206.632 264.724 205.856C264.724 205.08 264.9 204.492 265.252 204.092C265.612 203.684 266.132 203.48 266.812 203.48C267.492 203.48 268.008 203.684 268.36 204.092C268.712 204.492 268.888 205.08 268.888 205.856C268.888 206.632 268.712 207.224 268.36 207.632C268.008 208.032 267.492 208.232 266.812 208.232ZM266.812 207.32C267.308 207.32 267.556 206.94 267.556 206.18V205.532C267.556 204.772 267.308 204.392 266.812 204.392C266.316 204.392 266.068 204.772 266.068 205.532V206.18C266.068 206.94 266.316 207.32 266.812 207.32ZM272.86 212.144C272.188 212.144 271.672 211.944 271.312 211.544C270.96 211.136 270.784 210.544 270.784 209.768C270.784 208.992 270.96 208.404 271.312 208.004C271.672 207.596 272.188 207.392 272.86 207.392C273.54 207.392 274.056 207.596 274.408 208.004C274.768 208.404 274.948 208.992 274.948 209.768C274.948 210.544 274.768 211.136 274.408 211.544C274.056 211.944 273.54 212.144 272.86 212.144ZM272.86 211.232C273.356 211.232 273.604 210.852 273.604 210.092V209.444C273.604 208.684 273.356 208.304 272.86 208.304C272.364 208.304 272.116 208.684 272.116 209.444V210.092C272.116 210.852 272.364 211.232 272.86 211.232Z" fill="#41637D"/>
<line opacity="0.2" x1="184.117" y1="1.64788e-08" x2="184.117" y2="190" stroke="#41637D" stroke-width="0.839895"/>
<line opacity="0.2" x1="226.112" y1="1.64788e-08" x2="226.112" y2="190" stroke="#41637D" stroke-width="0.839895"/>
<line opacity="0.2" x1="192.517" y1="1.64788e-08" x2="192.517" y2="190" stroke="#41637D" stroke-width="0.839895"/>
<line opacity="0.2" x1="234.511" y1="1.64788e-08" x2="234.511" y2="190" stroke="#41637D" stroke-width="0.839895"/>
<line opacity="0.2" x1="200.915" y1="1.64788e-08" x2="200.915" y2="190" stroke="#41637D" stroke-width="0.839895"/>
<line opacity="0.2" x1="242.91" y1="1.64788e-08" x2="242.91" y2="190" stroke="#41637D" stroke-width="0.839895"/>
<line opacity="0.2" x1="209.314" y1="1.64788e-08" x2="209.314" y2="190" stroke="#41637D" stroke-width="0.839895"/>
<line opacity="0.2" x1="251.309" y1="1.64788e-08" x2="251.309" y2="190" stroke="#41637D" stroke-width="0.839895"/>
<rect x="175.298" width="83.9895" height="16.7979" fill="#EDEDED"/>
<rect x="175.246" width="28" height="17" fill="#39A4F5"/>
<rect x="176.246" width="12" height="17" fill="#1084DD"/>
<path d="M11.171 4.624H14.219C14.763 4.624 15.255 4.712 15.695 4.888C16.143 5.064 16.523 5.328 16.835 5.68C17.155 6.024 17.399 6.46 17.567 6.988C17.743 7.508 17.831 8.116 17.831 8.812C17.831 9.508 17.743 10.12 17.567 10.648C17.399 11.168 17.155 11.604 16.835 11.956C16.523 12.3 16.143 12.56 15.695 12.736C15.255 12.912 14.763 13 14.219 13H11.171V4.624ZM14.219 11.596C14.811 11.596 15.279 11.424 15.623 11.08C15.975 10.728 16.151 10.192 16.151 9.472V8.152C16.151 7.432 15.975 6.9 15.623 6.556C15.279 6.204 14.811 6.028 14.219 6.028H12.755V11.596H14.219ZM19.4444 13V4.624H24.9644V6.028H21.0284V8.056H24.5084V9.46H21.0284V11.596H24.9644V13H19.4444ZM29.2438 13.144C28.5238 13.144 27.9118 13.016 27.4078 12.76C26.9118 12.504 26.4838 12.168 26.1238 11.752L27.1918 10.72C27.4798 11.056 27.7998 11.312 28.1518 11.488C28.5118 11.664 28.9078 11.752 29.3398 11.752C29.8278 11.752 30.1958 11.648 30.4438 11.44C30.6918 11.224 30.8158 10.936 30.8158 10.576C30.8158 10.296 30.7358 10.068 30.5758 9.892C30.4158 9.716 30.1158 9.588 29.6758 9.508L28.8838 9.388C27.2118 9.124 26.3758 8.312 26.3758 6.952C26.3758 6.576 26.4438 6.236 26.5798 5.932C26.7238 5.628 26.9278 5.368 27.1918 5.152C27.4558 4.936 27.7718 4.772 28.1398 4.66C28.5158 4.54 28.9398 4.48 29.4118 4.48C30.0438 4.48 30.5958 4.584 31.0678 4.792C31.5398 5 31.9438 5.308 32.2798 5.716L31.1998 6.736C30.9918 6.48 30.7398 6.272 30.4438 6.112C30.1478 5.952 29.7758 5.872 29.3278 5.872C28.8718 5.872 28.5278 5.96 28.2958 6.136C28.0718 6.304 27.9598 6.544 27.9598 6.856C27.9598 7.176 28.0518 7.412 28.2358 7.564C28.4198 7.716 28.7158 7.828 29.1238 7.9L29.9038 8.044C30.7518 8.196 31.3758 8.468 31.7758 8.86C32.1838 9.244 32.3878 9.784 32.3878 10.48C32.3878 10.88 32.3158 11.244 32.1718 11.572C32.0358 11.892 31.8318 12.172 31.5598 12.412C31.2958 12.644 30.9678 12.824 30.5758 12.952C30.1918 13.08 29.7478 13.144 29.2438 13.144ZM33.6277 13V11.728H34.7317V5.896H33.6277V4.624H37.4317V5.896H36.3157V11.728H37.4317V13H33.6277ZM44.3899 11.704H44.3419C44.2699 12.112 44.0419 12.456 43.6579 12.736C43.2819 13.008 42.7779 13.144 42.1459 13.144C41.6499 13.144 41.1899 13.052 40.7659 12.868C40.3499 12.684 39.9859 12.412 39.6739 12.052C39.3699 11.684 39.1299 11.232 38.9539 10.696C38.7779 10.16 38.6899 9.54 38.6899 8.836C38.6899 8.132 38.7779 7.512 38.9539 6.976C39.1379 6.432 39.3939 5.976 39.7219 5.608C40.0499 5.24 40.4419 4.96 40.8979 4.768C41.3539 4.576 41.8619 4.48 42.4219 4.48C43.1739 4.48 43.8139 4.644 44.3419 4.972C44.8699 5.3 45.2859 5.772 45.5899 6.388L44.3059 7.144C44.1539 6.784 43.9259 6.484 43.6219 6.244C43.3259 6.004 42.9259 5.884 42.4219 5.884C41.7979 5.884 41.2979 6.076 40.9219 6.46C40.5539 6.836 40.3699 7.396 40.3699 8.14V9.484C40.3699 10.22 40.5579 10.78 40.9339 11.164C41.3099 11.548 41.8139 11.74 42.4459 11.74C42.6939 11.74 42.9259 11.712 43.1419 11.656C43.3579 11.592 43.5459 11.5 43.7059 11.38C43.8659 11.26 43.9939 11.112 44.0899 10.936C44.1859 10.76 44.2339 10.552 44.2339 10.312V9.772H42.5899V8.44H45.7579V13H44.3899V11.704ZM49.9929 8.704L49.1289 6.964H49.0929V13H47.5929V4.624H49.3329L51.8529 8.92L52.7169 10.66H52.7529V4.624H54.2529V13H52.5129L49.9929 8.704ZM59.0538 4.624H62.1018C62.6458 4.624 63.1378 4.712 63.5778 4.888C64.0258 5.064 64.4058 5.328 64.7178 5.68C65.0378 6.024 65.2818 6.46 65.4498 6.988C65.6258 7.508 65.7138 8.116 65.7138 8.812C65.7138 9.508 65.6258 10.12 65.4498 10.648C65.2818 11.168 65.0378 11.604 64.7178 11.956C64.4058 12.3 64.0258 12.56 63.5778 12.736C63.1378 12.912 62.6458 13 62.1018 13H59.0538V4.624ZM62.1018 11.596C62.6938 11.596 63.1618 11.424 63.5058 11.08C63.8578 10.728 64.0338 10.192 64.0338 9.472V8.152C64.0338 7.432 63.8578 6.9 63.5058 6.556C63.1618 6.204 62.6938 6.028 62.1018 6.028H60.6378V11.596H62.1018ZM68.8273 4.624V9.772C68.8273 10.428 68.9513 10.92 69.1993 11.248C69.4553 11.576 69.8833 11.74 70.4833 11.74C71.0833 11.74 71.5073 11.576 71.7553 11.248C72.0113 10.92 72.1393 10.428 72.1393 9.772V4.624H73.6993V9.568C73.6993 10.184 73.6393 10.716 73.5193 11.164C73.4073 11.612 73.2233 11.984 72.9673 12.28C72.7113 12.576 72.3753 12.796 71.9593 12.94C71.5513 13.076 71.0553 13.144 70.4713 13.144C69.8793 13.144 69.3793 13.076 68.9713 12.94C68.5713 12.796 68.2433 12.576 67.9873 12.28C67.7313 11.984 67.5473 11.612 67.4353 11.164C67.3233 10.716 67.2673 10.184 67.2673 9.568V4.624H68.8273ZM78.4484 13V4.624H82.2164C82.6004 4.624 82.9444 4.688 83.2484 4.816C83.5604 4.936 83.8244 5.112 84.0404 5.344C84.2564 5.568 84.4204 5.84 84.5324 6.16C84.6444 6.48 84.7004 6.832 84.7004 7.216C84.7004 7.608 84.6444 7.964 84.5324 8.284C84.4204 8.596 84.2564 8.868 84.0404 9.1C83.8244 9.324 83.5604 9.5 83.2484 9.628C82.9444 9.748 82.6004 9.808 82.2164 9.808H80.0324V13H78.4484ZM80.0324 8.44H82.0724C82.3764 8.44 82.6164 8.36 82.7924 8.2C82.9684 8.032 83.0564 7.796 83.0564 7.492V6.94C83.0564 6.636 82.9684 6.404 82.7924 6.244C82.6164 6.084 82.3764 6.004 82.0724 6.004H80.0324V8.44ZM87.7199 13H86.1359V4.624H89.9159C90.2999 4.624 90.6439 4.684 90.9479 4.804C91.2519 4.924 91.5079 5.1 91.7159 5.332C91.9319 5.556 92.0959 5.828 92.2079 6.148C92.3279 6.468 92.3879 6.824 92.3879 7.216C92.3879 7.792 92.2559 8.288 91.9919 8.704C91.7359 9.12 91.3479 9.416 90.8279 9.592L92.5439 13H90.7799L89.2199 9.772H87.7199V13ZM89.7599 8.44C90.0639 8.44 90.3039 8.36 90.4799 8.2C90.6559 8.032 90.7439 7.796 90.7439 7.492V6.94C90.7439 6.636 90.6559 6.404 90.4799 6.244C90.3039 6.084 90.0639 6.004 89.7599 6.004H87.7199V8.44H89.7599ZM97.2754 13.144C96.7234 13.144 96.2234 13.052 95.7754 12.868C95.3274 12.684 94.9434 12.408 94.6234 12.04C94.3114 11.672 94.0674 11.22 93.8914 10.684C93.7154 10.148 93.6274 9.524 93.6274 8.812C93.6274 8.108 93.7154 7.488 93.8914 6.952C94.0674 6.408 94.3114 5.952 94.6234 5.584C94.9434 5.216 95.3274 4.94 95.7754 4.756C96.2234 4.572 96.7234 4.48 97.2754 4.48C97.8274 4.48 98.3274 4.572 98.7754 4.756C99.2234 4.94 99.6074 5.216 99.9274 5.584C100.247 5.952 100.491 6.408 100.659 6.952C100.835 7.488 100.923 8.108 100.923 8.812C100.923 9.524 100.835 10.148 100.659 10.684C100.491 11.22 100.247 11.672 99.9274 12.04C99.6074 12.408 99.2234 12.684 98.7754 12.868C98.3274 13.052 97.8274 13.144 97.2754 13.144ZM97.2754 11.74C97.8754 11.74 98.3514 11.54 98.7034 11.14C99.0634 10.74 99.2434 10.18 99.2434 9.46V8.164C99.2434 7.444 99.0634 6.884 98.7034 6.484C98.3514 6.084 97.8754 5.884 97.2754 5.884C96.6754 5.884 96.1954 6.084 95.8354 6.484C95.4834 6.884 95.3074 7.444 95.3074 8.164V9.46C95.3074 10.18 95.4834 10.74 95.8354 11.14C96.1954 11.54 96.6754 11.74 97.2754 11.74ZM105.525 6.028V13H103.941V6.028H101.565V4.624H107.901V6.028H105.525ZM112.193 13.144C111.641 13.144 111.141 13.052 110.693 12.868C110.245 12.684 109.861 12.408 109.541 12.04C109.229 11.672 108.985 11.22 108.809 10.684C108.633 10.148 108.545 9.524 108.545 8.812C108.545 8.108 108.633 7.488 108.809 6.952C108.985 6.408 109.229 5.952 109.541 5.584C109.861 5.216 110.245 4.94 110.693 4.756C111.141 4.572 111.641 4.48 112.193 4.48C112.745 4.48 113.245 4.572 113.693 4.756C114.141 4.94 114.525 5.216 114.845 5.584C115.165 5.952 115.409 6.408 115.577 6.952C115.753 7.488 115.841 8.108 115.841 8.812C115.841 9.524 115.753 10.148 115.577 10.684C115.409 11.22 115.165 11.672 114.845 12.04C114.525 12.408 114.141 12.684 113.693 12.868C113.245 13.052 112.745 13.144 112.193 13.144ZM112.193 11.74C112.793 11.74 113.269 11.54 113.621 11.14C113.981 10.74 114.161 10.18 114.161 9.46V8.164C114.161 7.444 113.981 6.884 113.621 6.484C113.269 6.084 112.793 5.884 112.193 5.884C111.593 5.884 111.113 6.084 110.753 6.484C110.401 6.884 110.225 7.444 110.225 8.164V9.46C110.225 10.18 110.401 10.74 110.753 11.14C111.113 11.54 111.593 11.74 112.193 11.74ZM120.7 13.144C120.148 13.144 119.648 13.056 119.2 12.88C118.76 12.696 118.38 12.424 118.06 12.064C117.748 11.704 117.508 11.26 117.34 10.732C117.172 10.196 117.088 9.576 117.088 8.872C117.088 8.168 117.172 7.544 117.34 7C117.508 6.448 117.748 5.988 118.06 5.62C118.38 5.244 118.76 4.96 119.2 4.768C119.648 4.576 120.148 4.48 120.7 4.48C121.452 4.48 122.076 4.64 122.572 4.96C123.068 5.28 123.464 5.764 123.76 6.412L122.404 7.132C122.284 6.756 122.088 6.456 121.816 6.232C121.544 6 121.172 5.884 120.7 5.884C120.108 5.884 119.636 6.084 119.284 6.484C118.94 6.884 118.768 7.444 118.768 8.164V9.484C118.768 10.212 118.94 10.772 119.284 11.164C119.636 11.548 120.108 11.74 120.7 11.74C121.172 11.74 121.556 11.612 121.852 11.356C122.156 11.1 122.376 10.784 122.512 10.408L123.796 11.164C123.492 11.788 123.088 12.276 122.584 12.628C122.08 12.972 121.452 13.144 120.7 13.144ZM128.283 13.144C127.731 13.144 127.231 13.052 126.783 12.868C126.335 12.684 125.951 12.408 125.631 12.04C125.319 11.672 125.075 11.22 124.899 10.684C124.723 10.148 124.635 9.524 124.635 8.812C124.635 8.108 124.723 7.488 124.899 6.952C125.075 6.408 125.319 5.952 125.631 5.584C125.951 5.216 126.335 4.94 126.783 4.756C127.231 4.572 127.731 4.48 128.283 4.48C128.835 4.48 129.335 4.572 129.783 4.756C130.231 4.94 130.615 5.216 130.935 5.584C131.255 5.952 131.499 6.408 131.667 6.952C131.843 7.488 131.931 8.108 131.931 8.812C131.931 9.524 131.843 10.148 131.667 10.684C131.499 11.22 131.255 11.672 130.935 12.04C130.615 12.408 130.231 12.684 129.783 12.868C129.335 13.052 128.835 13.144 128.283 13.144ZM128.283 11.74C128.883 11.74 129.359 11.54 129.711 11.14C130.071 10.74 130.251 10.18 130.251 9.46V8.164C130.251 7.444 130.071 6.884 129.711 6.484C129.359 6.084 128.883 5.884 128.283 5.884C127.683 5.884 127.203 6.084 126.843 6.484C126.491 6.884 126.315 7.444 126.315 8.164V9.46C126.315 10.18 126.491 10.74 126.843 11.14C127.203 11.54 127.683 11.74 128.283 11.74ZM133.538 13V4.624H135.122V11.596H138.422V13H133.538ZM139.796 13V4.624H145.316V6.028H141.38V8.056H144.86V9.46H141.38V11.596H145.316V13H139.796ZM146.067 14.812L149.511 4.12H150.795L147.351 14.812H146.067ZM67.1925 29.144C66.6405 29.144 66.1405 29.056 65.6925 28.88C65.2525 28.696 64.8725 28.424 64.5525 28.064C64.2405 27.704 64.0005 27.26 63.8325 26.732C63.6645 26.196 63.5805 25.576 63.5805 24.872C63.5805 24.168 63.6645 23.544 63.8325 23C64.0005 22.448 64.2405 21.988 64.5525 21.62C64.8725 21.244 65.2525 20.96 65.6925 20.768C66.1405 20.576 66.6405 20.48 67.1925 20.48C67.9445 20.48 68.5685 20.64 69.0645 20.96C69.5605 21.28 69.9565 21.764 70.2525 22.412L68.8965 23.132C68.7765 22.756 68.5805 22.456 68.3085 22.232C68.0365 22 67.6645 21.884 67.1925 21.884C66.6005 21.884 66.1285 22.084 65.7765 22.484C65.4325 22.884 65.2605 23.444 65.2605 24.164V25.484C65.2605 26.212 65.4325 26.772 65.7765 27.164C66.1285 27.548 66.6005 27.74 67.1925 27.74C67.6645 27.74 68.0485 27.612 68.3445 27.356C68.6485 27.1 68.8685 26.784 69.0045 26.408L70.2885 27.164C69.9845 27.788 69.5805 28.276 69.0765 28.628C68.5725 28.972 67.9445 29.144 67.1925 29.144ZM76.7158 25.46H73.2238V29H71.6398V20.624H73.2238V24.056H76.7158V20.624H78.2998V29H76.7158V25.46ZM83.5528 29.144C83.0008 29.144 82.5008 29.052 82.0528 28.868C81.6048 28.684 81.2208 28.408 80.9008 28.04C80.5888 27.672 80.3448 27.22 80.1688 26.684C79.9928 26.148 79.9048 25.524 79.9048 24.812C79.9048 24.108 79.9928 23.488 80.1688 22.952C80.3448 22.408 80.5888 21.952 80.9008 21.584C81.2208 21.216 81.6048 20.94 82.0528 20.756C82.5008 20.572 83.0008 20.48 83.5528 20.48C84.1048 20.48 84.6048 20.572 85.0528 20.756C85.5008 20.94 85.8848 21.216 86.2048 21.584C86.5248 21.952 86.7688 22.408 86.9368 22.952C87.1128 23.488 87.2008 24.108 87.2008 24.812C87.2008 25.524 87.1128 26.148 86.9368 26.684C86.7688 27.22 86.5248 27.672 86.2048 28.04C85.8848 28.408 85.5008 28.684 85.0528 28.868C84.6048 29.052 84.1048 29.144 83.5528 29.144ZM83.5528 27.74C84.1528 27.74 84.6288 27.54 84.9808 27.14C85.3408 26.74 85.5208 26.18 85.5208 25.46V24.164C85.5208 23.444 85.3408 22.884 84.9808 22.484C84.6288 22.084 84.1528 21.884 83.5528 21.884C82.9528 21.884 82.4728 22.084 82.1128 22.484C81.7608 22.884 81.5848 23.444 81.5848 24.164V25.46C81.5848 26.18 81.7608 26.74 82.1128 27.14C82.4728 27.54 82.9528 27.74 83.5528 27.74ZM88.4597 29V27.728H89.5637V21.896H88.4597V20.624H92.2637V21.896H91.1477V27.728H92.2637V29H88.4597ZM100.542 29H98.6939L96.7739 25.784H96.7379L94.8419 29H93.1139L95.8259 24.704L93.2339 20.624H95.0819L96.8579 23.6H96.8939L98.6939 20.624H100.422L97.8059 24.704L100.542 29ZM107.869 22.028V29H106.285V22.028H103.909V20.624H110.245V22.028H107.869ZM111.542 29V20.624H117.062V22.028H113.126V24.056H116.606V25.46H113.126V27.596H117.062V29H111.542ZM121.989 29.144C121.437 29.144 120.937 29.056 120.489 28.88C120.049 28.696 119.669 28.424 119.349 28.064C119.037 27.704 118.797 27.26 118.629 26.732C118.461 26.196 118.377 25.576 118.377 24.872C118.377 24.168 118.461 23.544 118.629 23C118.797 22.448 119.037 21.988 119.349 21.62C119.669 21.244 120.049 20.96 120.489 20.768C120.937 20.576 121.437 20.48 121.989 20.48C122.741 20.48 123.365 20.64 123.861 20.96C124.357 21.28 124.753 21.764 125.049 22.412L123.693 23.132C123.573 22.756 123.377 22.456 123.105 22.232C122.833 22 122.461 21.884 121.989 21.884C121.397 21.884 120.925 22.084 120.573 22.484C120.229 22.884 120.057 23.444 120.057 24.164V25.484C120.057 26.212 120.229 26.772 120.573 27.164C120.925 27.548 121.397 27.74 121.989 27.74C122.461 27.74 122.845 27.612 123.141 27.356C123.445 27.1 123.665 26.784 123.801 26.408L125.085 27.164C124.781 27.788 124.377 28.276 123.873 28.628C123.369 28.972 122.741 29.144 121.989 29.144ZM131.513 25.46H128.021V29H126.437V20.624H128.021V24.056H131.513V20.624H133.097V29H131.513V25.46ZM137.462 24.704L136.598 22.964H136.562V29H135.062V20.624H136.802L139.322 24.92L140.186 26.66H140.222V20.624H141.722V29H139.982L137.462 24.704ZM146.975 29.144C146.423 29.144 145.923 29.052 145.475 28.868C145.027 28.684 144.643 28.408 144.323 28.04C144.011 27.672 143.767 27.22 143.591 26.684C143.415 26.148 143.327 25.524 143.327 24.812C143.327 24.108 143.415 23.488 143.591 22.952C143.767 22.408 144.011 21.952 144.323 21.584C144.643 21.216 145.027 20.94 145.475 20.756C145.923 20.572 146.423 20.48 146.975 20.48C147.527 20.48 148.027 20.572 148.475 20.756C148.923 20.94 149.307 21.216 149.627 21.584C149.947 21.952 150.191 22.408 150.359 22.952C150.535 23.488 150.623 24.108 150.623 24.812C150.623 25.524 150.535 26.148 150.359 26.684C150.191 27.22 149.947 27.672 149.627 28.04C149.307 28.408 148.923 28.684 148.475 28.868C148.027 29.052 147.527 29.144 146.975 29.144ZM146.975 27.74C147.575 27.74 148.051 27.54 148.403 27.14C148.763 26.74 148.943 26.18 148.943 25.46V24.164C148.943 23.444 148.763 22.884 148.403 22.484C148.051 22.084 147.575 21.884 146.975 21.884C146.375 21.884 145.895 22.084 145.535 22.484C145.183 22.884 145.007 23.444 145.007 24.164V25.46C145.007 26.18 145.183 26.74 145.535 27.14C145.895 27.54 146.375 27.74 146.975 27.74Z" fill="#41637D"/>
<rect x="175.298" y="41.9995" width="83.9895" height="16.7979" fill="#EDEDED"/>
<rect x="175.245" y="41.9995" width="20" height="17" fill="#39A4F5"/>
<rect x="175.245" y="41.9995" width="11" height="17" fill="#1084DD"/>
<path d="M32.9322 47V38.624H38.4522V40.028H34.5162V42.056H37.9962V43.46H34.5162V45.596H38.4522V47H32.9322ZM46.7876 47H44.9396L43.0196 43.784H42.9836L41.0876 47H39.3596L42.0716 42.704L39.4796 38.624H41.3276L43.1036 41.6H43.1396L44.9396 38.624H46.6676L44.0516 42.704L46.7876 47ZM51.2788 40.028V47H49.6948V40.028H47.3188V38.624H53.6548V40.028H51.2788ZM56.5358 47H54.9518V38.624H58.7318C59.1158 38.624 59.4598 38.684 59.7638 38.804C60.0678 38.924 60.3238 39.1 60.5318 39.332C60.7478 39.556 60.9118 39.828 61.0238 40.148C61.1438 40.468 61.2038 40.824 61.2038 41.216C61.2038 41.792 61.0718 42.288 60.8078 42.704C60.5518 43.12 60.1638 43.416 59.6438 43.592L61.3598 47H59.5958L58.0358 43.772H56.5358V47ZM58.5758 42.44C58.8798 42.44 59.1198 42.36 59.2958 42.2C59.4718 42.032 59.5598 41.796 59.5598 41.492V40.94C59.5598 40.636 59.4718 40.404 59.2958 40.244C59.1198 40.084 58.8798 40.004 58.5758 40.004H56.5358V42.44H58.5758ZM68.1045 47L67.4325 44.864H64.4565L63.7965 47H62.1885L64.9965 38.624H66.9645L69.7485 47H68.1045ZM65.9685 40.064H65.9085L64.8405 43.508H67.0485L65.9685 40.064ZM70.635 47V45.728H71.739V39.896H70.635V38.624H74.439V39.896H73.323V45.728H74.439V47H70.635ZM79.2866 40.028V47H77.7026V40.028H75.3266V38.624H81.6626V40.028H79.2866ZM85.7955 47V38.624H87.3795V45.596H90.6795V47H85.7955ZM97.4483 47L96.7763 44.864H93.8003L93.1403 47H91.5323L94.3403 38.624H96.3083L99.0923 47H97.4483ZM95.3123 40.064H95.2523L94.1843 43.508H96.3923L95.3123 40.064ZM100.327 38.624H104.203C104.547 38.624 104.855 38.676 105.127 38.78C105.407 38.884 105.643 39.028 105.835 39.212C106.027 39.396 106.171 39.624 106.267 39.896C106.371 40.16 106.423 40.452 106.423 40.772C106.423 41.092 106.379 41.364 106.291 41.588C106.211 41.804 106.099 41.984 105.955 42.128C105.819 42.272 105.659 42.38 105.475 42.452C105.299 42.524 105.115 42.564 104.923 42.572V42.644C105.107 42.644 105.303 42.68 105.511 42.752C105.727 42.824 105.923 42.94 106.099 43.1C106.283 43.252 106.435 43.452 106.555 43.7C106.675 43.94 106.735 44.24 106.735 44.6C106.735 44.936 106.679 45.252 106.567 45.548C106.463 45.836 106.315 46.088 106.123 46.304C105.931 46.52 105.703 46.692 105.439 46.82C105.175 46.94 104.887 47 104.575 47H100.327V38.624ZM101.911 45.656H104.119C104.423 45.656 104.659 45.58 104.827 45.428C104.995 45.268 105.079 45.04 105.079 44.744V44.336C105.079 44.04 104.995 43.812 104.827 43.652C104.659 43.492 104.423 43.412 104.119 43.412H101.911V45.656ZM101.911 42.116H103.867C104.155 42.116 104.379 42.04 104.539 41.888C104.699 41.728 104.779 41.508 104.779 41.228V40.856C104.779 40.576 104.699 40.36 104.539 40.208C104.379 40.048 104.155 39.968 103.867 39.968H101.911V42.116ZM111.572 47.144C111.02 47.144 110.52 47.052 110.072 46.868C109.624 46.684 109.24 46.408 108.92 46.04C108.608 45.672 108.364 45.22 108.188 44.684C108.012 44.148 107.924 43.524 107.924 42.812C107.924 42.108 108.012 41.488 108.188 40.952C108.364 40.408 108.608 39.952 108.92 39.584C109.24 39.216 109.624 38.94 110.072 38.756C110.52 38.572 111.02 38.48 111.572 38.48C112.124 38.48 112.624 38.572 113.072 38.756C113.52 38.94 113.904 39.216 114.224 39.584C114.544 39.952 114.788 40.408 114.956 40.952C115.132 41.488 115.22 42.108 115.22 42.812C115.22 43.524 115.132 44.148 114.956 44.684C114.788 45.22 114.544 45.672 114.224 46.04C113.904 46.408 113.52 46.684 113.072 46.868C112.624 47.052 112.124 47.144 111.572 47.144ZM111.572 45.74C112.172 45.74 112.648 45.54 113 45.14C113.36 44.74 113.54 44.18 113.54 43.46V42.164C113.54 41.444 113.36 40.884 113 40.484C112.648 40.084 112.172 39.884 111.572 39.884C110.972 39.884 110.492 40.084 110.132 40.484C109.78 40.884 109.604 41.444 109.604 42.164V43.46C109.604 44.18 109.78 44.74 110.132 45.14C110.492 45.54 110.972 45.74 111.572 45.74ZM118.739 48.812L122.183 38.12H123.467L120.023 48.812H118.739ZM129.321 47H127.737V38.624H131.517C131.901 38.624 132.245 38.684 132.549 38.804C132.853 38.924 133.109 39.1 133.317 39.332C133.533 39.556 133.697 39.828 133.809 40.148C133.929 40.468 133.989 40.824 133.989 41.216C133.989 41.792 133.857 42.288 133.593 42.704C133.337 43.12 132.949 43.416 132.429 43.592L134.145 47H132.381L130.821 43.772H129.321V47ZM131.361 42.44C131.665 42.44 131.905 42.36 132.081 42.2C132.257 42.032 132.345 41.796 132.345 41.492V40.94C132.345 40.636 132.257 40.404 132.081 40.244C131.905 40.084 131.665 40.004 131.361 40.004H129.321V42.44H131.361ZM140.273 46.232C140.153 46.336 140.017 46.444 139.865 46.556C139.713 46.66 139.537 46.756 139.337 46.844C139.145 46.932 138.925 47.004 138.677 47.06C138.437 47.116 138.165 47.144 137.861 47.144C137.413 47.144 137.013 47.084 136.661 46.964C136.317 46.844 136.029 46.68 135.797 46.472C135.565 46.264 135.389 46.02 135.269 45.74C135.149 45.452 135.089 45.144 135.089 44.816C135.089 44.52 135.133 44.26 135.221 44.036C135.309 43.804 135.429 43.596 135.581 43.412C135.733 43.22 135.913 43.052 136.121 42.908C136.329 42.756 136.549 42.612 136.781 42.476C136.533 42.196 136.313 41.892 136.121 41.564C135.937 41.228 135.845 40.868 135.845 40.484C135.845 40.212 135.901 39.956 136.013 39.716C136.125 39.468 136.285 39.252 136.493 39.068C136.709 38.884 136.965 38.74 137.261 38.636C137.557 38.532 137.889 38.48 138.257 38.48C138.585 38.48 138.889 38.524 139.169 38.612C139.449 38.7 139.689 38.824 139.889 38.984C140.097 39.144 140.257 39.34 140.369 39.572C140.489 39.804 140.549 40.068 140.549 40.364C140.549 40.628 140.501 40.872 140.405 41.096C140.317 41.312 140.193 41.512 140.033 41.696C139.873 41.872 139.689 42.04 139.481 42.2C139.273 42.352 139.049 42.496 138.809 42.632L140.273 44.216C140.385 43.944 140.469 43.656 140.525 43.352C140.589 43.048 140.629 42.744 140.645 42.44H142.529V43.724H141.749C141.629 44.268 141.445 44.764 141.197 45.212L142.853 47H140.969L140.273 46.232ZM138.209 39.668C137.953 39.668 137.741 39.744 137.573 39.896C137.405 40.04 137.321 40.236 137.321 40.484V40.568C137.321 40.752 137.377 40.936 137.489 41.12C137.609 41.296 137.793 41.524 138.041 41.804C138.345 41.62 138.593 41.428 138.785 41.228C138.985 41.028 139.085 40.796 139.085 40.532V40.46C139.085 40.204 138.997 40.008 138.821 39.872C138.653 39.736 138.449 39.668 138.209 39.668ZM138.065 45.86C138.353 45.86 138.613 45.816 138.845 45.728C139.077 45.64 139.281 45.52 139.457 45.368L137.549 43.304C137.269 43.472 137.049 43.652 136.889 43.844C136.737 44.028 136.661 44.264 136.661 44.552V44.684C136.661 45.036 136.781 45.32 137.021 45.536C137.261 45.752 137.609 45.86 138.065 45.86ZM143.956 38.624H147.004C147.548 38.624 148.04 38.712 148.48 38.888C148.928 39.064 149.308 39.328 149.62 39.68C149.94 40.024 150.184 40.46 150.352 40.988C150.528 41.508 150.616 42.116 150.616 42.812C150.616 43.508 150.528 44.12 150.352 44.648C150.184 45.168 149.94 45.604 149.62 45.956C149.308 46.3 148.928 46.56 148.48 46.736C148.04 46.912 147.548 47 147.004 47H143.956V38.624ZM147.004 45.596C147.596 45.596 148.064 45.424 148.408 45.08C148.76 44.728 148.936 44.192 148.936 43.472V42.152C148.936 41.432 148.76 40.9 148.408 40.556C148.064 40.204 147.596 40.028 147.004 40.028H145.54V45.596H147.004ZM34.7856 64.812L38.2296 54.12H39.5136L36.0696 64.812H34.7856ZM43.7838 63V54.624H49.3038V56.028H45.3678V58.056H48.8478V59.46H45.3678V61.596H49.3038V63H43.7838ZM57.6391 63H55.7911L53.8711 59.784H53.8351L51.9391 63H50.2111L52.9231 58.704L50.3311 54.624H52.1791L53.9551 57.6H53.9911L55.7911 54.624H57.5191L54.9031 58.704L57.6391 63ZM62.1304 56.028V63H60.5464V56.028H58.1704V54.624H64.5064V56.028H62.1304ZM67.3873 63H65.8033V54.624H69.5833C69.9673 54.624 70.3113 54.684 70.6153 54.804C70.9193 54.924 71.1753 55.1 71.3833 55.332C71.5993 55.556 71.7633 55.828 71.8753 56.148C71.9953 56.468 72.0553 56.824 72.0553 57.216C72.0553 57.792 71.9233 58.288 71.6593 58.704C71.4033 59.12 71.0153 59.416 70.4953 59.592L72.2113 63H70.4473L68.8873 59.772H67.3873V63ZM69.4273 58.44C69.7313 58.44 69.9713 58.36 70.1473 58.2C70.3233 58.032 70.4113 57.796 70.4113 57.492V56.94C70.4113 56.636 70.3233 56.404 70.1473 56.244C69.9713 56.084 69.7313 56.004 69.4273 56.004H67.3873V58.44H69.4273ZM78.9561 63L78.2841 60.864H75.3081L74.6481 63H73.0401L75.8481 54.624H77.8161L80.6001 63H78.9561ZM76.8201 56.064H76.7601L75.6921 59.508H77.9001L76.8201 56.064ZM84.7702 63.144C84.2182 63.144 83.7182 63.056 83.2702 62.88C82.8302 62.696 82.4502 62.424 82.1302 62.064C81.8182 61.704 81.5782 61.26 81.4102 60.732C81.2422 60.196 81.1582 59.576 81.1582 58.872C81.1582 58.168 81.2422 57.544 81.4102 57C81.5782 56.448 81.8182 55.988 82.1302 55.62C82.4502 55.244 82.8302 54.96 83.2702 54.768C83.7182 54.576 84.2182 54.48 84.7702 54.48C85.5222 54.48 86.1462 54.64 86.6422 54.96C87.1382 55.28 87.5342 55.764 87.8302 56.412L86.4742 57.132C86.3542 56.756 86.1582 56.456 85.8862 56.232C85.6142 56 85.2422 55.884 84.7702 55.884C84.1782 55.884 83.7062 56.084 83.3542 56.484C83.0102 56.884 82.8382 57.444 82.8382 58.164V59.484C82.8382 60.212 83.0102 60.772 83.3542 61.164C83.7062 61.548 84.1782 61.74 84.7702 61.74C85.2422 61.74 85.6262 61.612 85.9222 61.356C86.2262 61.1 86.4462 60.784 86.5822 60.408L87.8662 61.164C87.5622 61.788 87.1582 62.276 86.6542 62.628C86.1502 62.972 85.5222 63.144 84.7702 63.144ZM92.5054 56.028V63H90.9214V56.028H88.5454V54.624H94.8814V56.028H92.5054ZM95.7717 63V61.728H96.8757V55.896H95.7717V54.624H99.5757V55.896H98.4597V61.728H99.5757V63H95.7717ZM104.482 63.144C103.93 63.144 103.43 63.052 102.982 62.868C102.534 62.684 102.15 62.408 101.83 62.04C101.518 61.672 101.274 61.22 101.098 60.684C100.922 60.148 100.834 59.524 100.834 58.812C100.834 58.108 100.922 57.488 101.098 56.952C101.274 56.408 101.518 55.952 101.83 55.584C102.15 55.216 102.534 54.94 102.982 54.756C103.43 54.572 103.93 54.48 104.482 54.48C105.034 54.48 105.534 54.572 105.982 54.756C106.43 54.94 106.814 55.216 107.134 55.584C107.454 55.952 107.698 56.408 107.866 56.952C108.042 57.488 108.13 58.108 108.13 58.812C108.13 59.524 108.042 60.148 107.866 60.684C107.698 61.22 107.454 61.672 107.134 62.04C106.814 62.408 106.43 62.684 105.982 62.868C105.534 63.052 105.034 63.144 104.482 63.144ZM104.482 61.74C105.082 61.74 105.558 61.54 105.91 61.14C106.27 60.74 106.45 60.18 106.45 59.46V58.164C106.45 57.444 106.27 56.884 105.91 56.484C105.558 56.084 105.082 55.884 104.482 55.884C103.882 55.884 103.402 56.084 103.042 56.484C102.69 56.884 102.514 57.444 102.514 58.164V59.46C102.514 60.18 102.69 60.74 103.042 61.14C103.402 61.54 103.882 61.74 104.482 61.74ZM112.137 58.704L111.273 56.964H111.237V63H109.737V54.624H111.477L113.997 58.92L114.861 60.66H114.897V54.624H116.397V63H114.657L112.137 58.704ZM121.198 63V54.624H122.782V61.596H126.082V63H121.198ZM132.851 63L132.179 60.864H129.203L128.543 63H126.935L129.743 54.624H131.711L134.495 63H132.851ZM130.715 56.064H130.655L129.587 59.508H131.795L130.715 56.064ZM135.729 54.624H139.605C139.949 54.624 140.257 54.676 140.529 54.78C140.809 54.884 141.045 55.028 141.237 55.212C141.429 55.396 141.573 55.624 141.669 55.896C141.773 56.16 141.825 56.452 141.825 56.772C141.825 57.092 141.781 57.364 141.693 57.588C141.613 57.804 141.501 57.984 141.357 58.128C141.221 58.272 141.061 58.38 140.877 58.452C140.701 58.524 140.517 58.564 140.325 58.572V58.644C140.509 58.644 140.705 58.68 140.913 58.752C141.129 58.824 141.325 58.94 141.501 59.1C141.685 59.252 141.837 59.452 141.957 59.7C142.077 59.94 142.137 60.24 142.137 60.6C142.137 60.936 142.081 61.252 141.969 61.548C141.865 61.836 141.717 62.088 141.525 62.304C141.333 62.52 141.105 62.692 140.841 62.82C140.577 62.94 140.289 63 139.977 63H135.729V54.624ZM137.313 61.656H139.521C139.825 61.656 140.061 61.58 140.229 61.428C140.397 61.268 140.481 61.04 140.481 60.744V60.336C140.481 60.04 140.397 59.812 140.229 59.652C140.061 59.492 139.825 59.412 139.521 59.412H137.313V61.656ZM137.313 58.116H139.269C139.557 58.116 139.781 58.04 139.941 57.888C140.101 57.728 140.181 57.508 140.181 57.228V56.856C140.181 56.576 140.101 56.36 139.941 56.208C139.781 56.048 139.557 55.968 139.269 55.968H137.313V58.116ZM146.974 63.144C146.422 63.144 145.922 63.052 145.474 62.868C145.026 62.684 144.642 62.408 144.322 62.04C144.01 61.672 143.766 61.22 143.59 60.684C143.414 60.148 143.326 59.524 143.326 58.812C143.326 58.108 143.414 57.488 143.59 56.952C143.766 56.408 144.01 55.952 144.322 55.584C144.642 55.216 145.026 54.94 145.474 54.756C145.922 54.572 146.422 54.48 146.974 54.48C147.526 54.48 148.026 54.572 148.474 54.756C148.922 54.94 149.306 55.216 149.626 55.584C149.946 55.952 150.19 56.408 150.358 56.952C150.534 57.488 150.622 58.108 150.622 58.812C150.622 59.524 150.534 60.148 150.358 60.684C150.19 61.22 149.946 61.672 149.626 62.04C149.306 62.408 148.922 62.684 148.474 62.868C148.026 63.052 147.526 63.144 146.974 63.144ZM146.974 61.74C147.574 61.74 148.05 61.54 148.402 61.14C148.762 60.74 148.942 60.18 148.942 59.46V58.164C148.942 57.444 148.762 56.884 148.402 56.484C148.05 56.084 147.574 55.884 146.974 55.884C146.374 55.884 145.894 56.084 145.534 56.484C145.182 56.884 145.006 57.444 145.006 58.164V59.46C145.006 60.18 145.182 60.74 145.534 61.14C145.894 61.54 146.374 61.74 146.974 61.74Z" fill="#41637D"/>
<rect x="175.299" y="82" width="83.9895" height="16.7979" fill="#EDEDED"/>
<rect x="175.299" y="82" width="17.6378" height="16.7979" fill="#39A4F5"/>
<rect x="175.245" y="82" width="9" height="17" fill="#1084DD"/>
<path d="M1.56115 95V86.624H5.32915C5.71315 86.624 6.05715 86.688 6.36115 86.816C6.67315 86.936 6.93715 87.112 7.15315 87.344C7.36915 87.568 7.53315 87.84 7.64515 88.16C7.75715 88.48 7.81315 88.832 7.81315 89.216C7.81315 89.608 7.75715 89.964 7.64515 90.284C7.53315 90.596 7.36915 90.868 7.15315 91.1C6.93715 91.324 6.67315 91.5 6.36115 91.628C6.05715 91.748 5.71315 91.808 5.32915 91.808H3.14515V95H1.56115ZM3.14515 90.44H5.18515C5.48915 90.44 5.72915 90.36 5.90515 90.2C6.08115 90.032 6.16915 89.796 6.16915 89.492V88.94C6.16915 88.636 6.08115 88.404 5.90515 88.244C5.72915 88.084 5.48915 88.004 5.18515 88.004H3.14515V90.44ZM12.5366 95.144C11.9846 95.144 11.4846 95.052 11.0366 94.868C10.5886 94.684 10.2046 94.408 9.88465 94.04C9.57265 93.672 9.32865 93.22 9.15265 92.684C8.97665 92.148 8.88865 91.524 8.88865 90.812C8.88865 90.108 8.97665 89.488 9.15265 88.952C9.32865 88.408 9.57265 87.952 9.88465 87.584C10.2046 87.216 10.5886 86.94 11.0366 86.756C11.4846 86.572 11.9846 86.48 12.5366 86.48C13.0886 86.48 13.5886 86.572 14.0366 86.756C14.4846 86.94 14.8686 87.216 15.1886 87.584C15.5086 87.952 15.7526 88.408 15.9206 88.952C16.0966 89.488 16.1846 90.108 16.1846 90.812C16.1846 91.524 16.0966 92.148 15.9206 92.684C15.7526 93.22 15.5086 93.672 15.1886 94.04C14.8686 94.408 14.4846 94.684 14.0366 94.868C13.5886 95.052 13.0886 95.144 12.5366 95.144ZM12.5366 93.74C13.1366 93.74 13.6126 93.54 13.9646 93.14C14.3246 92.74 14.5046 92.18 14.5046 91.46V90.164C14.5046 89.444 14.3246 88.884 13.9646 88.484C13.6126 88.084 13.1366 87.884 12.5366 87.884C11.9366 87.884 11.4566 88.084 11.0966 88.484C10.7446 88.884 10.5686 89.444 10.5686 90.164V91.46C10.5686 92.18 10.7446 92.74 11.0966 93.14C11.4566 93.54 11.9366 93.74 12.5366 93.74ZM20.3605 95.144C19.6405 95.144 19.0285 95.016 18.5245 94.76C18.0285 94.504 17.6005 94.168 17.2405 93.752L18.3085 92.72C18.5965 93.056 18.9165 93.312 19.2685 93.488C19.6285 93.664 20.0245 93.752 20.4565 93.752C20.9445 93.752 21.3125 93.648 21.5605 93.44C21.8085 93.224 21.9325 92.936 21.9325 92.576C21.9325 92.296 21.8525 92.068 21.6925 91.892C21.5325 91.716 21.2325 91.588 20.7925 91.508L20.0005 91.388C18.3285 91.124 17.4925 90.312 17.4925 88.952C17.4925 88.576 17.5605 88.236 17.6965 87.932C17.8405 87.628 18.0445 87.368 18.3085 87.152C18.5725 86.936 18.8885 86.772 19.2565 86.66C19.6325 86.54 20.0565 86.48 20.5285 86.48C21.1605 86.48 21.7125 86.584 22.1845 86.792C22.6565 87 23.0605 87.308 23.3965 87.716L22.3165 88.736C22.1085 88.48 21.8565 88.272 21.5605 88.112C21.2645 87.952 20.8925 87.872 20.4445 87.872C19.9885 87.872 19.6445 87.96 19.4125 88.136C19.1885 88.304 19.0765 88.544 19.0765 88.856C19.0765 89.176 19.1685 89.412 19.3525 89.564C19.5365 89.716 19.8325 89.828 20.2405 89.9L21.0205 90.044C21.8685 90.196 22.4925 90.468 22.8925 90.86C23.3005 91.244 23.5045 91.784 23.5045 92.48C23.5045 92.88 23.4325 93.244 23.2885 93.572C23.1525 93.892 22.9485 94.172 22.6765 94.412C22.4125 94.644 22.0845 94.824 21.6925 94.952C21.3085 95.08 20.8645 95.144 20.3605 95.144ZM28.146 88.028V95H26.562V88.028H24.186V86.624H30.522V88.028H28.146ZM30.9802 92.108V90.584H34.4122V92.108H30.9802ZM38.8335 88.028V95H37.2495V88.028H34.8735V86.624H41.2095V88.028H38.8335ZM44.0905 95H42.5065V86.624H46.2865C46.6705 86.624 47.0145 86.684 47.3185 86.804C47.6225 86.924 47.8785 87.1 48.0865 87.332C48.3025 87.556 48.4665 87.828 48.5785 88.148C48.6985 88.468 48.7585 88.824 48.7585 89.216C48.7585 89.792 48.6265 90.288 48.3625 90.704C48.1065 91.12 47.7185 91.416 47.1985 91.592L48.9145 95H47.1505L45.5905 91.772H44.0905V95ZM46.1305 90.44C46.4345 90.44 46.6745 90.36 46.8505 90.2C47.0265 90.032 47.1145 89.796 47.1145 89.492V88.94C47.1145 88.636 47.0265 88.404 46.8505 88.244C46.6745 88.084 46.4345 88.004 46.1305 88.004H44.0905V90.44H46.1305ZM55.6592 95L54.9872 92.864H52.0112L51.3512 95H49.7432L52.5512 86.624H54.5192L57.3032 95H55.6592ZM53.5232 88.064H53.4632L52.3952 91.508H54.6032L53.5232 88.064ZM58.1897 95V93.728H59.2937V87.896H58.1897V86.624H61.9937V87.896H60.8777V93.728H61.9937V95H58.1897ZM66.8413 88.028V95H65.2573V88.028H62.8813V86.624H69.2173V88.028H66.8413ZM70.5143 95V86.624H76.0343V88.028H72.0983V90.056H75.5783V91.46H72.0983V93.596H76.0343V95H70.5143ZM84.0336 88.988H83.9856L83.3376 90.32L81.6216 93.488L79.9056 90.32L79.2576 88.988H79.2096V95H77.7096V86.624H79.4976L81.6456 90.716H81.6936L83.8176 86.624H85.5336V95H84.0336V88.988ZM87.5065 95V86.624H93.0265V88.028H89.0905V90.056H92.5705V91.46H89.0905V93.596H93.0265V95H87.5065ZM97.1018 90.704L96.2378 88.964H96.2018V95H94.7018V86.624H96.4418L98.9618 90.92L99.8258 92.66H99.8618V86.624H101.362V95H99.6218L97.1018 90.704ZM106.615 88.028V95H105.031V88.028H102.655V86.624H108.991V88.028H106.615ZM112.2 96.812L115.644 86.12H116.928L113.484 96.812H112.2ZM121.198 95V86.624H122.782V93.596H126.082V95H121.198ZM132.851 95L132.179 92.864H129.203L128.543 95H126.935L129.743 86.624H131.711L134.495 95H132.851ZM130.715 88.064H130.655L129.587 91.508H131.795L130.715 88.064ZM135.729 86.624H139.605C139.949 86.624 140.257 86.676 140.529 86.78C140.809 86.884 141.045 87.028 141.237 87.212C141.429 87.396 141.573 87.624 141.669 87.896C141.773 88.16 141.825 88.452 141.825 88.772C141.825 89.092 141.781 89.364 141.693 89.588C141.613 89.804 141.501 89.984 141.357 90.128C141.221 90.272 141.061 90.38 140.877 90.452C140.701 90.524 140.517 90.564 140.325 90.572V90.644C140.509 90.644 140.705 90.68 140.913 90.752C141.129 90.824 141.325 90.94 141.501 91.1C141.685 91.252 141.837 91.452 141.957 91.7C142.077 91.94 142.137 92.24 142.137 92.6C142.137 92.936 142.081 93.252 141.969 93.548C141.865 93.836 141.717 94.088 141.525 94.304C141.333 94.52 141.105 94.692 140.841 94.82C140.577 94.94 140.289 95 139.977 95H135.729V86.624ZM137.313 93.656H139.521C139.825 93.656 140.061 93.58 140.229 93.428C140.397 93.268 140.481 93.04 140.481 92.744V92.336C140.481 92.04 140.397 91.812 140.229 91.652C140.061 91.492 139.825 91.412 139.521 91.412H137.313V93.656ZM137.313 90.116H139.269C139.557 90.116 139.781 90.04 139.941 89.888C140.101 89.728 140.181 89.508 140.181 89.228V88.856C140.181 88.576 140.101 88.36 139.941 88.208C139.781 88.048 139.557 87.968 139.269 87.968H137.313V90.116ZM146.974 95.144C146.422 95.144 145.922 95.052 145.474 94.868C145.026 94.684 144.642 94.408 144.322 94.04C144.01 93.672 143.766 93.22 143.59 92.684C143.414 92.148 143.326 91.524 143.326 90.812C143.326 90.108 143.414 89.488 143.59 88.952C143.766 88.408 144.01 87.952 144.322 87.584C144.642 87.216 145.026 86.94 145.474 86.756C145.922 86.572 146.422 86.48 146.974 86.48C147.526 86.48 148.026 86.572 148.474 86.756C148.922 86.94 149.306 87.216 149.626 87.584C149.946 87.952 150.19 88.408 150.358 88.952C150.534 89.488 150.622 90.108 150.622 90.812C150.622 91.524 150.534 92.148 150.358 92.684C150.19 93.22 149.946 93.672 149.626 94.04C149.306 94.408 148.922 94.684 148.474 94.868C148.026 95.052 147.526 95.144 146.974 95.144ZM146.974 93.74C147.574 93.74 148.05 93.54 148.402 93.14C148.762 92.74 148.942 92.18 148.942 91.46V90.164C148.942 89.444 148.762 88.884 148.402 88.484C148.05 88.084 147.574 87.884 146.974 87.884C146.374 87.884 145.894 88.084 145.534 88.484C145.182 88.884 145.006 89.444 145.006 90.164V91.46C145.006 92.18 145.182 92.74 145.534 93.14C145.894 93.54 146.374 93.74 146.974 93.74Z" fill="#41637D"/>
<rect x="175.299" y="164" width="83.9895" height="16.7979" fill="#EDEDED"/>
<rect x="175.245" y="164.202" width="22" height="17" fill="#39A4F5"/>
<path d="M44.5894 170.028V177H43.0054V170.028H40.6294V168.624H46.9654V170.028H44.5894ZM48.2623 177V168.624H53.7823V170.028H49.8463V172.056H53.3263V173.46H49.8463V175.596H53.7823V177H48.2623ZM58.0616 177.144C57.3416 177.144 56.7296 177.016 56.2256 176.76C55.7296 176.504 55.3016 176.168 54.9416 175.752L56.0096 174.72C56.2976 175.056 56.6176 175.312 56.9696 175.488C57.3296 175.664 57.7256 175.752 58.1576 175.752C58.6456 175.752 59.0136 175.648 59.2616 175.44C59.5096 175.224 59.6336 174.936 59.6336 174.576C59.6336 174.296 59.5536 174.068 59.3936 173.892C59.2336 173.716 58.9336 173.588 58.4936 173.508L57.7016 173.388C56.0296 173.124 55.1936 172.312 55.1936 170.952C55.1936 170.576 55.2616 170.236 55.3976 169.932C55.5416 169.628 55.7456 169.368 56.0096 169.152C56.2736 168.936 56.5896 168.772 56.9576 168.66C57.3336 168.54 57.7576 168.48 58.2296 168.48C58.8616 168.48 59.4136 168.584 59.8856 168.792C60.3576 169 60.7616 169.308 61.0976 169.716L60.0176 170.736C59.8096 170.48 59.5576 170.272 59.2616 170.112C58.9656 169.952 58.5936 169.872 58.1456 169.872C57.6896 169.872 57.3456 169.96 57.1136 170.136C56.8896 170.304 56.7776 170.544 56.7776 170.856C56.7776 171.176 56.8696 171.412 57.0536 171.564C57.2376 171.716 57.5336 171.828 57.9416 171.9L58.7216 172.044C59.5696 172.196 60.1936 172.468 60.5936 172.86C61.0016 173.244 61.2056 173.784 61.2056 174.48C61.2056 174.88 61.1336 175.244 60.9896 175.572C60.8536 175.892 60.6496 176.172 60.3776 176.412C60.1136 176.644 59.7856 176.824 59.3936 176.952C59.0096 177.08 58.5656 177.144 58.0616 177.144ZM65.8472 170.028V177H64.2632V170.028H61.8872V168.624H68.2232V170.028H65.8472ZM72.3561 168.624H75.4041C75.9481 168.624 76.4401 168.712 76.8801 168.888C77.3281 169.064 77.7081 169.328 78.0201 169.68C78.3401 170.024 78.5841 170.46 78.7521 170.988C78.9281 171.508 79.0161 172.116 79.0161 172.812C79.0161 173.508 78.9281 174.12 78.7521 174.648C78.5841 175.168 78.3401 175.604 78.0201 175.956C77.7081 176.3 77.3281 176.56 76.8801 176.736C76.4401 176.912 75.9481 177 75.4041 177H72.3561V168.624ZM75.4041 175.596C75.9961 175.596 76.4641 175.424 76.8081 175.08C77.1601 174.728 77.3361 174.192 77.3361 173.472V172.152C77.3361 171.432 77.1601 170.9 76.8081 170.556C76.4641 170.204 75.9961 170.028 75.4041 170.028H73.9401V175.596H75.4041ZM81.164 168C81.492 168 81.728 168.08 81.872 168.24C82.024 168.392 82.1 168.584 82.1 168.816V169.044C82.1 169.26 82.068 169.48 82.004 169.704C81.948 169.92 81.864 170.132 81.752 170.34C81.64 170.548 81.508 170.744 81.356 170.928C81.204 171.112 81.04 171.276 80.864 171.42H79.832C80.088 171.18 80.304 170.94 80.48 170.7C80.656 170.452 80.788 170.18 80.876 169.884C80.644 169.844 80.476 169.752 80.372 169.608C80.268 169.456 80.216 169.28 80.216 169.08V168.816C80.216 168.584 80.288 168.392 80.432 168.24C80.584 168.08 80.828 168 81.164 168ZM83.8639 177V168.624H89.3839V170.028H85.4479V172.056H88.9279V173.46H85.4479V175.596H89.3839V177H83.8639ZM91.0592 177V168.624H96.4472V170.028H92.6432V172.056H95.9552V173.46H92.6432V177H91.0592ZM97.985 177V168.624H103.373V170.028H99.569V172.056H102.881V173.46H99.569V177H97.985ZM104.563 177V175.728H105.667V169.896H104.563V168.624H108.367V169.896H107.251V175.728H108.367V177H104.563ZM113.237 177.144C112.685 177.144 112.185 177.056 111.737 176.88C111.297 176.696 110.917 176.424 110.597 176.064C110.285 175.704 110.045 175.26 109.877 174.732C109.709 174.196 109.625 173.576 109.625 172.872C109.625 172.168 109.709 171.544 109.877 171C110.045 170.448 110.285 169.988 110.597 169.62C110.917 169.244 111.297 168.96 111.737 168.768C112.185 168.576 112.685 168.48 113.237 168.48C113.989 168.48 114.613 168.64 115.109 168.96C115.605 169.28 116.001 169.764 116.297 170.412L114.941 171.132C114.821 170.756 114.625 170.456 114.353 170.232C114.081 170 113.709 169.884 113.237 169.884C112.645 169.884 112.173 170.084 111.821 170.484C111.477 170.884 111.305 171.444 111.305 172.164V173.484C111.305 174.212 111.477 174.772 111.821 175.164C112.173 175.548 112.645 175.74 113.237 175.74C113.709 175.74 114.093 175.612 114.389 175.356C114.693 175.1 114.913 174.784 115.049 174.408L116.333 175.164C116.029 175.788 115.625 176.276 115.121 176.628C114.617 176.972 113.989 177.144 113.237 177.144ZM122.798 177L122.126 174.864H119.15L118.49 177H116.882L119.69 168.624H121.658L124.442 177H122.798ZM120.662 170.064H120.602L119.534 173.508H121.742L120.662 170.064ZM128.612 177.144C128.06 177.144 127.56 177.056 127.112 176.88C126.672 176.696 126.292 176.424 125.972 176.064C125.66 175.704 125.42 175.26 125.252 174.732C125.084 174.196 125 173.576 125 172.872C125 172.168 125.084 171.544 125.252 171C125.42 170.448 125.66 169.988 125.972 169.62C126.292 169.244 126.672 168.96 127.112 168.768C127.56 168.576 128.06 168.48 128.612 168.48C129.364 168.48 129.988 168.64 130.484 168.96C130.98 169.28 131.376 169.764 131.672 170.412L130.316 171.132C130.196 170.756 130 170.456 129.728 170.232C129.456 170 129.084 169.884 128.612 169.884C128.02 169.884 127.548 170.084 127.196 170.484C126.852 170.884 126.68 171.444 126.68 172.164V173.484C126.68 174.212 126.852 174.772 127.196 175.164C127.548 175.548 128.02 175.74 128.612 175.74C129.084 175.74 129.468 175.612 129.764 175.356C130.068 175.1 130.288 174.784 130.424 174.408L131.708 175.164C131.404 175.788 131 176.276 130.496 176.628C129.992 176.972 129.364 177.144 128.612 177.144ZM132.711 177V175.728H133.815V169.896H132.711V168.624H136.515V169.896H135.399V175.728H136.515V177H132.711ZM141.363 170.028V177H139.779V170.028H137.403V168.624H143.739V170.028H141.363ZM145.036 177V168.624H150.556V170.028H146.62V172.056H150.1V173.46H146.62V175.596H150.556V177H145.036ZM147.952 168.072L147.028 167.616L148.168 165.372L149.464 166.02L147.952 168.072Z" fill="#41637D"/>
<rect x="175.299" y="123" width="83.9895" height="16.7979" fill="#EDEDED"/>
<rect x="175.245" y="123" width="18" height="17" fill="#39A4F5"/>
<path d="M20.1549 136.548C19.6029 136.548 19.1029 136.46 18.6549 136.284C18.2149 136.1 17.8349 135.828 17.5149 135.468C17.2029 135.108 16.9629 134.664 16.7949 134.136C16.6269 133.6 16.5429 132.98 16.5429 132.276C16.5429 131.572 16.6269 130.948 16.7949 130.404C16.9629 129.852 17.2029 129.392 17.5149 129.024C17.8349 128.648 18.2149 128.364 18.6549 128.172C19.1029 127.98 19.6029 127.884 20.1549 127.884C20.9069 127.884 21.5309 128.044 22.0269 128.364C22.5229 128.684 22.9189 129.168 23.2149 129.816L21.8589 130.536C21.7389 130.16 21.5429 129.86 21.2709 129.636C20.9989 129.404 20.6269 129.288 20.1549 129.288C19.5629 129.288 19.0909 129.488 18.7389 129.888C18.3949 130.288 18.2229 130.848 18.2229 131.568V132.888C18.2229 133.616 18.3949 134.176 18.7389 134.568C19.0909 134.952 19.5629 135.144 20.1549 135.144C20.6269 135.144 21.0109 135.016 21.3069 134.76C21.6109 134.504 21.8309 134.188 21.9669 133.812L23.2509 134.568C22.9469 135.192 22.5429 135.68 22.0389 136.032C21.5349 136.376 20.9069 136.548 20.1549 136.548ZM29.7159 136.404L29.0439 134.268H26.0679L25.4079 136.404H23.7999L26.6079 128.028H28.5759L31.3599 136.404H29.7159ZM27.5799 129.468H27.5199L26.4519 132.912H28.6599L27.5799 129.468ZM34.1784 136.404H32.5944V128.028H36.3744C36.7584 128.028 37.1024 128.088 37.4064 128.208C37.7104 128.328 37.9664 128.504 38.1744 128.736C38.3904 128.96 38.5544 129.232 38.6664 129.552C38.7864 129.872 38.8464 130.228 38.8464 130.62C38.8464 131.196 38.7144 131.692 38.4504 132.108C38.1944 132.524 37.8064 132.82 37.2864 132.996L39.0024 136.404H37.2384L35.6784 133.176H34.1784V136.404ZM36.2184 131.844C36.5224 131.844 36.7624 131.764 36.9384 131.604C37.1144 131.436 37.2024 131.2 37.2024 130.896V130.344C37.2024 130.04 37.1144 129.808 36.9384 129.648C36.7624 129.488 36.5224 129.408 36.2184 129.408H34.1784V131.844H36.2184ZM45.7471 136.404L45.0751 134.268H42.0991L41.4391 136.404H39.8311L42.6391 128.028H44.6071L47.3911 136.404H45.7471ZM43.6111 129.468H43.5511L42.4831 132.912H44.6911L43.6111 129.468ZM51.5612 136.548C51.0092 136.548 50.5092 136.46 50.0612 136.284C49.6212 136.1 49.2412 135.828 48.9212 135.468C48.6092 135.108 48.3692 134.664 48.2012 134.136C48.0332 133.6 47.9492 132.98 47.9492 132.276C47.9492 131.572 48.0332 130.948 48.2012 130.404C48.3692 129.852 48.6092 129.392 48.9212 129.024C49.2412 128.648 49.6212 128.364 50.0612 128.172C50.5092 127.98 51.0092 127.884 51.5612 127.884C52.3132 127.884 52.9372 128.044 53.4332 128.364C53.9292 128.684 54.3252 129.168 54.6212 129.816L53.2652 130.536C53.1452 130.16 52.9492 129.86 52.6772 129.636C52.4052 129.404 52.0332 129.288 51.5612 129.288C50.9692 129.288 50.4972 129.488 50.1452 129.888C49.8012 130.288 49.6292 130.848 49.6292 131.568V132.888C49.6292 133.616 49.8012 134.176 50.1452 134.568C50.4972 134.952 50.9692 135.144 51.5612 135.144C52.0332 135.144 52.4172 135.016 52.7132 134.76C53.0172 134.504 53.2372 134.188 53.3732 133.812L54.6572 134.568C54.3532 135.192 53.9492 135.68 53.4452 136.032C52.9412 136.376 52.3132 136.548 51.5612 136.548ZM59.2964 129.432V136.404H57.7124V129.432H55.3364V128.028H61.6724V129.432H59.2964ZM62.9694 136.404V128.028H68.4894V129.432H64.5534V131.46H68.0334V132.864H64.5534V135H68.4894V136.404H62.9694ZM65.8854 127.476L64.9614 127.02L66.1014 124.776L67.3974 125.424L65.8854 127.476ZM71.7487 136.404H70.1647V128.028H73.9447C74.3287 128.028 74.6727 128.088 74.9767 128.208C75.2807 128.328 75.5367 128.504 75.7447 128.736C75.9607 128.96 76.1247 129.232 76.2367 129.552C76.3567 129.872 76.4167 130.228 76.4167 130.62C76.4167 131.196 76.2847 131.692 76.0207 132.108C75.7647 132.524 75.3767 132.82 74.8567 132.996L76.5727 136.404H74.8087L73.2487 133.176H71.7487V136.404ZM73.7887 131.844C74.0927 131.844 74.3327 131.764 74.5087 131.604C74.6847 131.436 74.7727 131.2 74.7727 130.896V130.344C74.7727 130.04 74.6847 129.808 74.5087 129.648C74.3327 129.488 74.0927 129.408 73.7887 129.408H71.7487V131.844H73.7887ZM77.7854 136.404V135.132H78.8894V129.3H77.7854V128.028H81.5894V129.3H80.4734V135.132H81.5894V136.404H77.7854ZM85.8116 136.548C85.0916 136.548 84.4796 136.42 83.9756 136.164C83.4796 135.908 83.0516 135.572 82.6916 135.156L83.7596 134.124C84.0476 134.46 84.3676 134.716 84.7196 134.892C85.0796 135.068 85.4756 135.156 85.9076 135.156C86.3956 135.156 86.7636 135.052 87.0116 134.844C87.2596 134.628 87.3836 134.34 87.3836 133.98C87.3836 133.7 87.3036 133.472 87.1436 133.296C86.9836 133.12 86.6836 132.992 86.2436 132.912L85.4516 132.792C83.7796 132.528 82.9436 131.716 82.9436 130.356C82.9436 129.98 83.0116 129.64 83.1476 129.336C83.2916 129.032 83.4956 128.772 83.7596 128.556C84.0236 128.34 84.3396 128.176 84.7076 128.064C85.0836 127.944 85.5076 127.884 85.9796 127.884C86.6116 127.884 87.1636 127.988 87.6356 128.196C88.1076 128.404 88.5116 128.712 88.8476 129.12L87.7676 130.14C87.5596 129.884 87.3076 129.676 87.0116 129.516C86.7156 129.356 86.3436 129.276 85.8956 129.276C85.4396 129.276 85.0956 129.364 84.8636 129.54C84.6396 129.708 84.5276 129.948 84.5276 130.26C84.5276 130.58 84.6196 130.816 84.8036 130.968C84.9876 131.12 85.2836 131.232 85.6916 131.304L86.4716 131.448C87.3196 131.6 87.9436 131.872 88.3436 132.264C88.7516 132.648 88.9556 133.188 88.9556 133.884C88.9556 134.284 88.8836 134.648 88.7396 134.976C88.6036 135.296 88.3996 135.576 88.1276 135.816C87.8636 136.048 87.5356 136.228 87.1436 136.356C86.7596 136.484 86.3156 136.548 85.8116 136.548ZM90.5436 136.404V128.028H96.0636V129.432H92.1276V131.46H95.6076V132.864H92.1276V135H96.0636V136.404H90.5436ZM99.3229 136.404H97.7389V128.028H101.519C101.903 128.028 102.247 128.088 102.551 128.208C102.855 128.328 103.111 128.504 103.319 128.736C103.535 128.96 103.699 129.232 103.811 129.552C103.931 129.872 103.991 130.228 103.991 130.62C103.991 131.196 103.859 131.692 103.595 132.108C103.339 132.524 102.951 132.82 102.431 132.996L104.147 136.404H102.383L100.823 133.176H99.3229V136.404ZM101.363 131.844C101.667 131.844 101.907 131.764 102.083 131.604C102.259 131.436 102.347 131.2 102.347 130.896V130.344C102.347 130.04 102.259 129.808 102.083 129.648C101.907 129.488 101.667 129.408 101.363 129.408H99.3229V131.844H101.363ZM108.544 136.404V128.028H110.128V135H113.428V136.404H108.544ZM114.68 127.404C115.008 127.404 115.244 127.484 115.388 127.644C115.54 127.796 115.616 127.988 115.616 128.22V128.448C115.616 128.664 115.584 128.884 115.52 129.108C115.464 129.324 115.38 129.536 115.268 129.744C115.156 129.952 115.024 130.148 114.872 130.332C114.72 130.516 114.556 130.68 114.38 130.824H113.348C113.604 130.584 113.82 130.344 113.996 130.104C114.172 129.856 114.304 129.584 114.392 129.288C114.16 129.248 113.992 129.156 113.888 129.012C113.784 128.86 113.732 128.684 113.732 128.484V128.22C113.732 127.988 113.804 127.796 113.948 127.644C114.1 127.484 114.344 127.404 114.68 127.404ZM117.38 136.404V128.028H122.9V129.432H118.964V131.46H122.444V132.864H118.964V135H122.9V136.404H117.38ZM127.179 136.548C126.459 136.548 125.847 136.42 125.343 136.164C124.847 135.908 124.419 135.572 124.059 135.156L125.127 134.124C125.415 134.46 125.735 134.716 126.087 134.892C126.447 135.068 126.843 135.156 127.275 135.156C127.763 135.156 128.131 135.052 128.379 134.844C128.627 134.628 128.751 134.34 128.751 133.98C128.751 133.7 128.671 133.472 128.511 133.296C128.351 133.12 128.051 132.992 127.611 132.912L126.819 132.792C125.147 132.528 124.311 131.716 124.311 130.356C124.311 129.98 124.379 129.64 124.515 129.336C124.659 129.032 124.863 128.772 125.127 128.556C125.391 128.34 125.707 128.176 126.075 128.064C126.451 127.944 126.875 127.884 127.347 127.884C127.979 127.884 128.531 127.988 129.003 128.196C129.475 128.404 129.879 128.712 130.215 129.12L129.135 130.14C128.927 129.884 128.675 129.676 128.379 129.516C128.083 129.356 127.711 129.276 127.263 129.276C126.807 129.276 126.463 129.364 126.231 129.54C126.007 129.708 125.895 129.948 125.895 130.26C125.895 130.58 125.987 130.816 126.171 130.968C126.355 131.12 126.651 131.232 127.059 131.304L127.839 131.448C128.687 131.6 129.311 131.872 129.711 132.264C130.119 132.648 130.323 133.188 130.323 133.884C130.323 134.284 130.251 134.648 130.107 134.976C129.971 135.296 129.767 135.576 129.495 135.816C129.231 136.048 128.903 136.228 128.511 136.356C128.127 136.484 127.683 136.548 127.179 136.548ZM134.362 136.548C133.642 136.548 133.03 136.42 132.526 136.164C132.03 135.908 131.602 135.572 131.242 135.156L132.31 134.124C132.598 134.46 132.918 134.716 133.27 134.892C133.63 135.068 134.026 135.156 134.458 135.156C134.946 135.156 135.314 135.052 135.562 134.844C135.81 134.628 135.934 134.34 135.934 133.98C135.934 133.7 135.854 133.472 135.694 133.296C135.534 133.12 135.234 132.992 134.794 132.912L134.002 132.792C132.33 132.528 131.494 131.716 131.494 130.356C131.494 129.98 131.562 129.64 131.698 129.336C131.842 129.032 132.046 128.772 132.31 128.556C132.574 128.34 132.89 128.176 133.258 128.064C133.634 127.944 134.058 127.884 134.53 127.884C135.162 127.884 135.714 127.988 136.186 128.196C136.658 128.404 137.062 128.712 137.398 129.12L136.318 130.14C136.11 129.884 135.858 129.676 135.562 129.516C135.266 129.356 134.894 129.276 134.446 129.276C133.99 129.276 133.646 129.364 133.414 129.54C133.19 129.708 133.078 129.948 133.078 130.26C133.078 130.58 133.17 130.816 133.354 130.968C133.538 131.12 133.834 131.232 134.242 131.304L135.022 131.448C135.87 131.6 136.494 131.872 136.894 132.264C137.302 132.648 137.506 133.188 137.506 133.884C137.506 134.284 137.434 134.648 137.29 134.976C137.154 135.296 136.95 135.576 136.678 135.816C136.414 136.048 136.086 136.228 135.694 136.356C135.31 136.484 134.866 136.548 134.362 136.548ZM144.278 136.404L143.606 134.268H140.63L139.97 136.404H138.362L141.17 128.028H143.138L145.922 136.404H144.278ZM142.142 129.468H142.082L141.014 132.912H143.222L142.142 129.468ZM146.809 136.404V135.132H147.913V129.3H146.809V128.028H150.613V129.3H149.497V135.132H150.613V136.404H146.809Z" fill="#41637D"/>
<line x1="175.718" y1="1.64788e-08" x2="175.718" y2="190" stroke="#41637D" stroke-width="0.839895"/>
<line x1="217.712" y1="1.64788e-08" x2="217.712" y2="190" stroke="#41637D" stroke-width="0.839895"/>
<line x1="259.707" y1="1.64788e-08" x2="259.707" y2="190" stroke="#41637D" stroke-width="0.839895"/>
</svg>
