<svg width="385" height="143" viewBox="0 0 385 143" fill="none" xmlns="http://www.w3.org/2000/svg">
<mask id="path-1-inside-1" fill="white">
<path fill-rule="evenodd" clip-rule="evenodd" d="M20 0C8.9543 0 0 8.95431 0 20V123C0 134.046 8.9543 143 20 143H352.49C363.536 143 372.49 134.046 372.49 123V83.7906L385 71.2635L372.49 58.7363V20C372.49 8.9543 363.536 0 352.49 0H20Z"/>
</mask>
<path d="M372.49 83.7906L370.367 81.6707L369.49 82.5492V83.7906H372.49ZM385 71.2635L387.123 73.3833L389.24 71.2635L387.123 69.1436L385 71.2635ZM372.49 58.7363H369.49V59.9778L370.367 60.8562L372.49 58.7363ZM3 20C3 10.6112 10.6112 3 20 3V-3C7.29745 -3 -3 7.29745 -3 20H3ZM3 123V20H-3V123H3ZM20 140C10.6112 140 3 132.389 3 123H-3C-3 135.703 7.29744 146 20 146V140ZM352.49 140H20V146H352.49V140ZM369.49 123C369.49 132.389 361.879 140 352.49 140V146C365.193 146 375.49 135.703 375.49 123H369.49ZM369.49 83.7906V123H375.49V83.7906H369.49ZM382.877 69.1436L370.367 81.6707L374.613 85.9105L387.123 73.3833L382.877 69.1436ZM370.367 60.8562L382.877 73.3833L387.123 69.1436L374.613 56.6164L370.367 60.8562ZM369.49 20V58.7363H375.49V20H369.49ZM352.49 3C361.879 3 369.49 10.6112 369.49 20H375.49C375.49 7.29745 365.193 -3 352.49 -3V3ZM20 3H352.49V-3H20V3Z" fill="#39A4F5" mask="url(#path-1-inside-1)"/>
</svg>
