<svg width="80" height="80" viewBox="0 0 80 80" fill="none" xmlns="http://www.w3.org/2000/svg">
<path fill-rule="evenodd" clip-rule="evenodd" d="M76.8049 17.5449L62.4554 3.19548C58.1951 -1.06469 51.2631 -1.06469 47.0024 3.19564L3.19524 47.0029C-1.06508 51.2633 -1.06508 58.1956 3.19524 62.456L17.5447 76.8055C19.6747 78.9355 22.4716 80.0002 25.2697 80.0002C28.0688 80.0002 30.8691 78.9339 33.0016 76.8014L60.6314 49.0726L71.3409 38.4614L76.8044 32.998C81.0652 28.7376 81.0652 21.8054 76.8049 17.5449ZM28.5827 72.3902L56.2082 44.6653L66.9258 34.0462L72.3892 28.5828C74.2152 26.7568 74.2152 23.786 72.3892 21.9601L58.0398 7.61066C56.2139 5.78471 53.2431 5.78471 51.4171 7.61066L49.9905 9.03723L55.312 14.3588C56.5312 15.578 56.5312 17.5546 55.312 18.774C54.7024 19.3835 53.9034 19.6884 53.1045 19.6884C52.3054 19.6884 51.5067 19.3837 50.897 18.774L45.5755 13.4524L40.961 18.067L50.6612 27.7671C51.8806 28.9864 51.8806 30.9631 50.6612 32.1823C50.0516 32.7919 49.2527 33.0967 48.4537 33.0967C47.6546 33.0967 46.8557 32.7919 46.2462 32.1823L36.546 22.4821L32.1127 26.9154L37.4549 32.2576C38.6741 33.4769 38.6741 35.4536 37.4549 36.6728C36.8454 37.2823 36.0464 37.5872 35.2474 37.5872C34.4483 37.5872 33.6494 37.2823 33.0399 36.6728L27.6977 31.3306L23.3208 35.7075L33.055 45.4418C34.2743 46.661 34.2743 48.6376 33.055 49.8569C32.4455 50.4665 31.6466 50.7713 30.8475 50.7713C30.0485 50.7713 29.2495 50.4665 28.64 49.8569L18.9058 40.1227L14.2815 44.7468L19.5797 50.0451C20.7989 51.2643 20.7989 53.241 19.5797 54.4602C18.9701 55.0698 18.1712 55.3746 17.3722 55.3746C16.5731 55.3746 15.7742 55.0698 15.1647 54.4602L9.86652 49.1621L7.61057 51.418C5.78463 53.244 5.78463 56.2148 7.61057 58.0407L21.96 72.3902C23.7859 74.2159 26.7567 74.2161 28.5827 72.3902Z" fill="white"/>
</svg>
